G04 ================== begin FILE IDENTIFICATION RECORD ==================*
G04 Layout Name:  C:/WORK/2019project/IMX815/FabOutput/Lay-45699_A.brd*
G04 Film Name:    ASSEMBLY_TOP*
G04 File Format:  Gerber RS274X*
G04 File Origin:  Cadence Allegro 17.2-S046*
G04 Origin Date:  Fri Mar 22 13:38:46 2019*
G04 *
G04 Layer:  REF DES/ASSEMBLY_TOP*
G04 Layer:  PACKAGE GEOMETRY/ASSEMBLY_TOP*
G04 Layer:  DRAWING FORMAT/FILM_TITLE_BLOCK*
G04 Layer:  BOARD GEOMETRY/OUTLINE*
G04 *
G04 Offset:    (0.00 0.00)*
G04 Mirror:    No*
G04 Mode:      Positive*
G04 Rotation:  0*
G04 FullContactRelief:  No*
G04 UndefLineWidth:     7.00*
G04 ================== end FILE IDENTIFICATION RECORD ====================*
%FSLAX55Y55*MOIN*%
%IR0*IPPOS*OFA0.00000B0.00000*MIA0B0*SFA1.00000B1.00000*%
%ADD10C,.01*%
%ADD11C,.02*%
%ADD12C,.004*%
%ADD13C,.007*%
%ADD14C,.006*%
%ADD15C,.00598*%
G75*
%LPD*%
G75*
G36*
G01X29633Y27375D02*
X26877Y24619D01*
X32389D01*
X29633Y27375D01*
G37*
G36*
G01X107666Y70868D02*
X113116Y62018D01*
X107666Y53168D01*
X114131D01*
X117791Y59018D01*
X121466Y53168D01*
X127941D01*
X122491Y62068D01*
X127916Y70868D01*
X121466D01*
X117786Y65018D01*
X114166Y70868D01*
X107666D01*
G37*
G36*
G01X91666Y53168D02*
Y70868D01*
X97146D01*
X106316Y60218D01*
Y70868D01*
X106366D01*
X111796Y62018D01*
X106321Y53148D01*
X97116Y63868D01*
Y53168D01*
X91666D01*
G37*
G36*
G01X129216Y70868D02*
X123816Y62018D01*
X129216Y53218D01*
X129266D01*
Y57118D01*
X139166D01*
X139566Y57168D01*
X139816Y57218D01*
X140016Y57268D01*
X140466Y57418D01*
X140716Y57518D01*
X141116Y57718D01*
X141566Y58018D01*
X142266Y58718D01*
X142416Y58918D01*
X142616Y59218D01*
X142966Y59918D01*
X143066Y60168D01*
X143166Y60468D01*
X143266Y60818D01*
X143366Y61318D01*
X143416Y61618D01*
X143466Y62118D01*
Y65618D01*
X143416Y66168D01*
X143366Y66518D01*
X143266Y67018D01*
X143216Y67218D01*
X143016Y67818D01*
X142966Y67918D01*
X142916Y68068D01*
X142816Y68268D01*
X142716Y68418D01*
X142616Y68618D01*
X142516Y68768D01*
X142366Y68968D01*
X142116Y69268D01*
X141816Y69518D01*
X141666Y69668D01*
X141466Y69818D01*
X141316Y69918D01*
X140966Y70118D01*
X140766Y70218D01*
X140266Y70418D01*
X139966Y70518D01*
X139616Y70618D01*
X139116Y70718D01*
X138466Y70818D01*
X137916Y70868D01*
X129216D01*
G37*
%LPC*%
G75*
G36*
G01X136756Y61468D02*
X129266D01*
Y66518D01*
X136116Y66513D01*
X136916Y66418D01*
X137316Y66318D01*
X137516Y66218D01*
X137766Y66068D01*
X137966Y65868D01*
X138116Y65668D01*
X138266Y65318D01*
X138316Y65018D01*
X138366Y64768D01*
Y63568D01*
X138316Y63318D01*
X138266Y63018D01*
X138166Y62618D01*
X137966Y62218D01*
X137866Y62068D01*
X137716Y61918D01*
X137516Y61768D01*
X137166Y61568D01*
X136756Y61468D01*
G37*
%LPD*%
G75*
G54D10*
G01X-100138Y-147478D02*
X299862D01*
G01X-100138Y-117478D02*
Y-97478D01*
X299862D01*
G01X-50138Y-167478D02*
Y-147478D01*
G01X75362Y-167478D02*
Y-147478D01*
G01X74862Y-97478D02*
Y-67478D01*
G01X124862Y-167478D02*
Y-147478D01*
G54D11*
G01X-100138Y-167478D02*
Y-67478D01*
X299862D01*
G01D02*
Y-167478D01*
X-100138D01*
G54D12*
G01X4341Y31726D02*
Y29726D01*
G01X3804Y31726D02*
X4878D01*
G01X5874Y29726D02*
Y31726D01*
X6434D01*
X6621Y31626D01*
X6761Y31393D01*
X6808Y31126D01*
X6761Y30859D01*
X6644Y30659D01*
X6434Y30559D01*
X5874D01*
G01X7898Y31393D02*
X8038Y31593D01*
X8201Y31693D01*
X8388Y31726D01*
X8621Y31659D01*
X8784Y31493D01*
X8831Y31293D01*
X8808Y31093D01*
X8714Y30926D01*
X8248Y30593D01*
X8038Y30359D01*
X7898Y30026D01*
X7851Y29726D01*
X8831D01*
G01X9898Y30559D02*
X10061Y30793D01*
X10201Y30926D01*
X10388Y30993D01*
X10551Y30926D01*
X10668Y30793D01*
X10761Y30593D01*
X10784Y30359D01*
X10761Y30159D01*
X10668Y29959D01*
X10528Y29793D01*
X10364Y29726D01*
X10178Y29793D01*
X10014Y29993D01*
X9921Y30293D01*
X9898Y30626D01*
X9944Y31059D01*
X10014Y31293D01*
X10131Y31526D01*
X10294Y31693D01*
X10458Y31726D01*
X10621Y31659D01*
X10738Y31493D01*
G01X4149Y58246D02*
Y56246D01*
G01X3612Y58246D02*
X4686D01*
G01X5682Y56246D02*
Y58246D01*
X6242D01*
X6429Y58146D01*
X6569Y57913D01*
X6616Y57646D01*
X6569Y57379D01*
X6452Y57179D01*
X6242Y57079D01*
X5682D01*
G01X7706Y57913D02*
X7846Y58113D01*
X8009Y58213D01*
X8196Y58246D01*
X8429Y58179D01*
X8592Y58013D01*
X8639Y57813D01*
X8616Y57613D01*
X8522Y57446D01*
X8056Y57113D01*
X7846Y56879D01*
X7706Y56546D01*
X7659Y56246D01*
X8639D01*
G01X9636Y56546D02*
X9776Y56379D01*
X9939Y56279D01*
X10149Y56246D01*
X10359Y56313D01*
X10522Y56446D01*
X10639Y56679D01*
X10662Y56946D01*
X10616Y57213D01*
X10499Y57379D01*
X10336Y57513D01*
X10172Y57546D01*
X10009Y57513D01*
X9799Y57379D01*
X9869Y58246D01*
X10499D01*
G01X3989Y64350D02*
Y62350D01*
G01X3452Y64350D02*
X4526D01*
G01X5522Y62350D02*
Y64350D01*
X6082D01*
X6269Y64250D01*
X6409Y64017D01*
X6456Y63750D01*
X6409Y63483D01*
X6292Y63283D01*
X6082Y63183D01*
X5522D01*
G01X7476Y62750D02*
X7616Y62517D01*
X7802Y62383D01*
X8012Y62350D01*
X8199Y62383D01*
X8386Y62550D01*
X8502Y62750D01*
X8526Y62950D01*
X8479Y63183D01*
X8316Y63350D01*
X8152Y63417D01*
X7942D01*
G01X8152D02*
X8292Y63517D01*
X8409Y63683D01*
X8456Y63883D01*
X8409Y64083D01*
X8292Y64250D01*
X8082Y64350D01*
X7872Y64317D01*
X7662Y64183D01*
G01X9989Y62350D02*
Y64350D01*
X9709Y63950D01*
G01Y62350D02*
X10269D01*
G01X1067Y98141D02*
Y96141D01*
G01X530Y98141D02*
X1604D01*
G01X1792Y143431D02*
X2375Y145431D01*
X2958Y143431D01*
G01X2748Y144131D02*
X2002D01*
G01X10648Y17172D02*
Y15739D01*
X10741Y15439D01*
X10928Y15239D01*
X11161Y15172D01*
X11394Y15239D01*
X11581Y15439D01*
X11674Y15739D01*
Y17172D01*
G01X12764Y15405D02*
X12928Y15239D01*
X13114Y15172D01*
X13301Y15239D01*
X13464Y15439D01*
X13581Y15739D01*
X13628Y16039D01*
Y16405D01*
X13581Y16705D01*
X13464Y16972D01*
X13324Y17105D01*
X13161Y17172D01*
X12974Y17105D01*
X12834Y16972D01*
X12741Y16772D01*
X12694Y16505D01*
X12741Y16272D01*
X12858Y16039D01*
X12998Y15905D01*
X13161Y15872D01*
X13348Y15939D01*
X13488Y16105D01*
X13628Y16405D01*
G01X22248Y10793D02*
Y8793D01*
G01X21711Y10793D02*
X22785D01*
G01X23781Y8793D02*
Y10793D01*
X24341D01*
X24528Y10693D01*
X24668Y10460D01*
X24715Y10193D01*
X24668Y9926D01*
X24551Y9726D01*
X24341Y9626D01*
X23781D01*
G01X26248Y8793D02*
Y10793D01*
X25968Y10393D01*
G01Y8793D02*
X26528D01*
G01X28248Y10793D02*
X28061Y10726D01*
X27921Y10560D01*
X27828Y10360D01*
X27758Y10093D01*
X27735Y9793D01*
X27758Y9493D01*
X27828Y9226D01*
X27921Y9026D01*
X28061Y8860D01*
X28248Y8793D01*
X28435Y8860D01*
X28575Y9026D01*
X28668Y9226D01*
X28738Y9493D01*
X28761Y9793D01*
X28738Y10093D01*
X28668Y10360D01*
X28575Y10560D01*
X28435Y10726D01*
X28248Y10793D01*
G01X29735Y9093D02*
X29875Y8926D01*
X30038Y8826D01*
X30248Y8793D01*
X30458Y8860D01*
X30621Y8993D01*
X30738Y9226D01*
X30761Y9493D01*
X30715Y9760D01*
X30598Y9926D01*
X30435Y10060D01*
X30271Y10093D01*
X30108Y10060D01*
X29898Y9926D01*
X29968Y10793D01*
X30598D01*
G01X18489Y15850D02*
Y13850D01*
G01X17952Y15850D02*
X19026D01*
G01X20022Y13850D02*
Y15850D01*
X20582D01*
X20769Y15750D01*
X20909Y15517D01*
X20956Y15250D01*
X20909Y14983D01*
X20792Y14783D01*
X20582Y14683D01*
X20022D01*
G01X22046Y15517D02*
X22186Y15717D01*
X22349Y15817D01*
X22536Y15850D01*
X22769Y15783D01*
X22932Y15617D01*
X22979Y15417D01*
X22956Y15217D01*
X22862Y15050D01*
X22396Y14717D01*
X22186Y14483D01*
X22046Y14150D01*
X21999Y13850D01*
X22979D01*
G01X24489D02*
X24652Y13883D01*
X24839Y13983D01*
X24956Y14150D01*
X25002Y14383D01*
X24956Y14617D01*
X24816Y14817D01*
X24606Y14917D01*
X24372D01*
X24232Y14983D01*
X24116Y15150D01*
X24069Y15383D01*
X24139Y15617D01*
X24302Y15783D01*
X24489Y15850D01*
X24676Y15783D01*
X24839Y15617D01*
X24909Y15383D01*
X24862Y15150D01*
X24746Y14983D01*
X24606Y14917D01*
X24372D01*
X24162Y14817D01*
X24022Y14617D01*
X23976Y14383D01*
X24022Y14150D01*
X24139Y13983D01*
X24326Y13883D01*
X24489Y13850D01*
G01X18489Y21350D02*
Y19350D01*
G01X17952Y21350D02*
X19026D01*
G01X20022Y19350D02*
Y21350D01*
X20582D01*
X20769Y21250D01*
X20909Y21017D01*
X20956Y20750D01*
X20909Y20483D01*
X20792Y20283D01*
X20582Y20183D01*
X20022D01*
G01X22046Y21017D02*
X22186Y21217D01*
X22349Y21317D01*
X22536Y21350D01*
X22769Y21283D01*
X22932Y21117D01*
X22979Y20917D01*
X22956Y20717D01*
X22862Y20550D01*
X22396Y20217D01*
X22186Y19983D01*
X22046Y19650D01*
X21999Y19350D01*
X22979D01*
G01X24092Y19583D02*
X24256Y19417D01*
X24442Y19350D01*
X24629Y19417D01*
X24792Y19617D01*
X24909Y19917D01*
X24956Y20217D01*
Y20583D01*
X24909Y20883D01*
X24792Y21150D01*
X24652Y21283D01*
X24489Y21350D01*
X24302Y21283D01*
X24162Y21150D01*
X24069Y20950D01*
X24022Y20683D01*
X24069Y20450D01*
X24186Y20217D01*
X24326Y20083D01*
X24489Y20050D01*
X24676Y20117D01*
X24816Y20283D01*
X24956Y20583D01*
G01X16260Y25450D02*
Y27450D01*
X15980Y27050D01*
G01Y25450D02*
X16540D01*
G01X18489Y26850D02*
Y24850D01*
G01X17952Y26850D02*
X19026D01*
G01X20022Y24850D02*
Y26850D01*
X20582D01*
X20769Y26750D01*
X20909Y26517D01*
X20956Y26250D01*
X20909Y25983D01*
X20792Y25783D01*
X20582Y25683D01*
X20022D01*
G01X21976Y25250D02*
X22116Y25017D01*
X22302Y24883D01*
X22512Y24850D01*
X22699Y24883D01*
X22886Y25050D01*
X23002Y25250D01*
X23026Y25450D01*
X22979Y25683D01*
X22816Y25850D01*
X22652Y25917D01*
X22442D01*
G01X22652D02*
X22792Y26017D01*
X22909Y26183D01*
X22956Y26383D01*
X22909Y26583D01*
X22792Y26750D01*
X22582Y26850D01*
X22372Y26817D01*
X22162Y26683D01*
G01X23976Y25250D02*
X24116Y25017D01*
X24302Y24883D01*
X24512Y24850D01*
X24699Y24883D01*
X24886Y25050D01*
X25002Y25250D01*
X25026Y25450D01*
X24979Y25683D01*
X24816Y25850D01*
X24652Y25917D01*
X24442D01*
G01X24652D02*
X24792Y26017D01*
X24909Y26183D01*
X24956Y26383D01*
X24909Y26583D01*
X24792Y26750D01*
X24582Y26850D01*
X24372Y26817D01*
X24162Y26683D01*
G01X20000Y40700D02*
Y38700D01*
X20280Y39100D01*
G01Y40700D02*
X19720D01*
G01X13757Y33415D02*
X15757D01*
Y34349D01*
G01Y35882D02*
X13757D01*
X14157Y35602D01*
G01X15757D02*
Y36162D01*
G01X15357Y37369D02*
X15590Y37509D01*
X15724Y37695D01*
X15757Y37905D01*
X15724Y38092D01*
X15557Y38279D01*
X15357Y38395D01*
X15157Y38419D01*
X14924Y38372D01*
X14757Y38209D01*
X14690Y38045D01*
Y37835D01*
G01Y38045D02*
X14590Y38185D01*
X14424Y38302D01*
X14224Y38349D01*
X14024Y38302D01*
X13857Y38185D01*
X13757Y37975D01*
X13790Y37765D01*
X13924Y37555D01*
G01X22723Y30640D02*
X22890Y30780D01*
X22990Y30943D01*
X23023Y31153D01*
X22956Y31363D01*
X22823Y31526D01*
X22590Y31643D01*
X22323Y31666D01*
X22056Y31620D01*
X21890Y31503D01*
X21756Y31340D01*
X21723Y31176D01*
X21756Y31013D01*
X21890Y30803D01*
X21023Y30873D01*
Y31503D01*
G01X22190Y32710D02*
X21956Y32873D01*
X21823Y33013D01*
X21756Y33200D01*
X21823Y33363D01*
X21956Y33480D01*
X22156Y33573D01*
X22390Y33596D01*
X22590Y33573D01*
X22790Y33480D01*
X22956Y33340D01*
X23023Y33176D01*
X22956Y32990D01*
X22756Y32826D01*
X22456Y32733D01*
X22123Y32710D01*
X21690Y32756D01*
X21456Y32826D01*
X21223Y32943D01*
X21056Y33106D01*
X21023Y33270D01*
X21090Y33433D01*
X21256Y33550D01*
G01X21100Y42700D02*
Y44700D01*
X20820Y44300D01*
G01Y42700D02*
X21380D01*
G01X13749Y46235D02*
X15749D01*
Y47169D01*
G01Y48702D02*
X13749D01*
X14149Y48422D01*
G01X15749D02*
Y48982D01*
G01Y50702D02*
X13749D01*
X14149Y50422D01*
G01X15749D02*
Y50982D01*
G01X22813Y51719D02*
X20813D01*
X22246Y50856D01*
Y52022D01*
G01X22413Y52926D02*
X22646Y53066D01*
X22780Y53252D01*
X22813Y53462D01*
X22780Y53649D01*
X22613Y53836D01*
X22413Y53952D01*
X22213Y53976D01*
X21980Y53929D01*
X21813Y53766D01*
X21746Y53602D01*
Y53392D01*
G01Y53602D02*
X21646Y53742D01*
X21480Y53859D01*
X21280Y53906D01*
X21080Y53859D01*
X20913Y53742D01*
X20813Y53532D01*
X20846Y53322D01*
X20980Y53112D01*
G01X11207Y73654D02*
X13207D01*
G01X11207Y73117D02*
Y74191D01*
G01X13207Y75187D02*
X11207D01*
Y75747D01*
X11307Y75934D01*
X11540Y76074D01*
X11807Y76121D01*
X12074Y76074D01*
X12274Y75957D01*
X12374Y75747D01*
Y75187D01*
G01X13207Y77654D02*
X11207D01*
X11607Y77374D01*
G01X13207D02*
Y77934D01*
G01X11207Y79654D02*
X11274Y79467D01*
X11440Y79327D01*
X11640Y79234D01*
X11907Y79164D01*
X12207Y79141D01*
X12507Y79164D01*
X12774Y79234D01*
X12974Y79327D01*
X13140Y79467D01*
X13207Y79654D01*
X13140Y79841D01*
X12974Y79981D01*
X12774Y80074D01*
X12507Y80144D01*
X12207Y80167D01*
X11907Y80144D01*
X11640Y80074D01*
X11440Y79981D01*
X11274Y79841D01*
X11207Y79654D01*
G01Y81654D02*
X11274Y81467D01*
X11440Y81327D01*
X11640Y81234D01*
X11907Y81164D01*
X12207Y81141D01*
X12507Y81164D01*
X12774Y81234D01*
X12974Y81327D01*
X13140Y81467D01*
X13207Y81654D01*
X13140Y81841D01*
X12974Y81981D01*
X12774Y82074D01*
X12507Y82144D01*
X12207Y82167D01*
X11907Y82144D01*
X11640Y82074D01*
X11440Y81981D01*
X11274Y81841D01*
X11207Y81654D01*
G01X17946Y74259D02*
X19946D01*
G01X17946Y73722D02*
Y74796D01*
G01X19946Y75792D02*
X17946D01*
Y76352D01*
X18046Y76539D01*
X18279Y76679D01*
X18546Y76726D01*
X18813Y76679D01*
X19013Y76562D01*
X19113Y76352D01*
Y75792D01*
G01X18279Y77816D02*
X18079Y77956D01*
X17979Y78119D01*
X17946Y78306D01*
X18013Y78539D01*
X18179Y78702D01*
X18379Y78749D01*
X18579Y78726D01*
X18746Y78632D01*
X19079Y78166D01*
X19313Y77956D01*
X19646Y77816D01*
X19946Y77769D01*
Y78749D01*
G01Y80212D02*
X19513Y80259D01*
X19146Y80329D01*
X18813Y80422D01*
X18446Y80539D01*
X17946Y80726D01*
Y79792D01*
G01X12217Y148353D02*
Y150353D01*
X11937Y149953D01*
G01Y148353D02*
X12497D01*
G01X9994Y188249D02*
X10087Y188349D01*
X10157Y188515D01*
X10204Y188749D01*
X10157Y188949D01*
X10064Y189082D01*
X9900Y189182D01*
X9270D01*
Y187182D01*
X10040D01*
X10204Y187315D01*
X10297Y187515D01*
X10344Y187749D01*
X10297Y187982D01*
X10157Y188182D01*
X9994Y188249D01*
X9270D01*
G01X11317Y187182D02*
Y189182D01*
G01X12297D02*
Y187182D01*
G01Y188182D02*
X11317D01*
G01X13294Y187582D02*
X13434Y187349D01*
X13620Y187215D01*
X13830Y187182D01*
X14017Y187215D01*
X14204Y187382D01*
X14320Y187582D01*
X14344Y187782D01*
X14297Y188015D01*
X14134Y188182D01*
X13970Y188249D01*
X13760D01*
G01X13970D02*
X14110Y188349D01*
X14227Y188515D01*
X14274Y188715D01*
X14227Y188915D01*
X14110Y189082D01*
X13900Y189182D01*
X13690Y189149D01*
X13480Y189015D01*
G01X32984Y14383D02*
X30984D01*
Y14967D01*
X31084Y15153D01*
X31217Y15270D01*
X31484Y15317D01*
X31751Y15270D01*
X31917Y15130D01*
X32017Y14967D01*
Y14383D01*
G01Y14967D02*
X32984Y15317D01*
G01Y16850D02*
X30984D01*
X31384Y16570D01*
G01X32984D02*
Y17130D01*
G01Y18850D02*
X30984D01*
X31384Y18570D01*
G01X32984D02*
Y19130D01*
G01Y20850D02*
X30984D01*
X31384Y20570D01*
G01X32984D02*
Y21130D01*
G01X34849Y16363D02*
X34749Y16223D01*
X34682Y16060D01*
Y15873D01*
X34782Y15663D01*
X34949Y15500D01*
X35149Y15383D01*
X35482Y15290D01*
X35782Y15267D01*
X36082Y15313D01*
X36282Y15383D01*
X36482Y15523D01*
X36615Y15687D01*
X36682Y15850D01*
Y16013D01*
X36615Y16177D01*
X36515Y16317D01*
X36382Y16433D01*
G01X36682Y17850D02*
X34682D01*
X35082Y17570D01*
G01X36682D02*
Y18130D01*
G01Y19850D02*
X34682D01*
X35082Y19570D01*
G01X36682D02*
Y20130D01*
G01X25622Y9512D02*
X25482Y9612D01*
X25319Y9679D01*
X25132D01*
X24922Y9579D01*
X24759Y9412D01*
X24642Y9212D01*
X24549Y8879D01*
X24526Y8579D01*
X24572Y8279D01*
X24642Y8079D01*
X24782Y7879D01*
X24946Y7746D01*
X25109Y7679D01*
X25272D01*
X25436Y7746D01*
X25576Y7846D01*
X25692Y7979D01*
G01X27389Y7679D02*
Y9679D01*
X26526Y8246D01*
X27692D01*
G01X28666Y9346D02*
X28806Y9546D01*
X28969Y9646D01*
X29156Y9679D01*
X29389Y9612D01*
X29552Y9446D01*
X29599Y9246D01*
X29576Y9046D01*
X29482Y8879D01*
X29016Y8546D01*
X28806Y8312D01*
X28666Y7979D01*
X28619Y7679D01*
X29599D01*
G01X30596Y8079D02*
X30736Y7846D01*
X30922Y7712D01*
X31132Y7679D01*
X31319Y7712D01*
X31506Y7879D01*
X31622Y8079D01*
X31646Y8279D01*
X31599Y8512D01*
X31436Y8679D01*
X31272Y8746D01*
X31062D01*
G01X31272D02*
X31412Y8846D01*
X31529Y9012D01*
X31576Y9212D01*
X31529Y9412D01*
X31412Y9579D01*
X31202Y9679D01*
X30992Y9646D01*
X30782Y9512D01*
G01X36000Y23000D02*
Y21000D01*
G01X35463Y23000D02*
X36537D01*
G01X37533Y21000D02*
Y23000D01*
X38093D01*
X38280Y22900D01*
X38420Y22667D01*
X38467Y22400D01*
X38420Y22133D01*
X38303Y21933D01*
X38093Y21833D01*
X37533D01*
G01X39487Y21300D02*
X39627Y21133D01*
X39790Y21033D01*
X40000Y21000D01*
X40210Y21067D01*
X40373Y21200D01*
X40490Y21433D01*
X40513Y21700D01*
X40467Y21967D01*
X40350Y22133D01*
X40187Y22267D01*
X40023Y22300D01*
X39860Y22267D01*
X39650Y22133D01*
X39720Y23000D01*
X40350D01*
G01X41557Y22667D02*
X41697Y22867D01*
X41860Y22967D01*
X42047Y23000D01*
X42280Y22933D01*
X42443Y22767D01*
X42490Y22567D01*
X42467Y22367D01*
X42373Y22200D01*
X41907Y21867D01*
X41697Y21633D01*
X41557Y21300D01*
X41510Y21000D01*
X42490D01*
G01X38992Y11725D02*
X38892Y11585D01*
X38825Y11422D01*
Y11235D01*
X38925Y11025D01*
X39092Y10862D01*
X39292Y10745D01*
X39625Y10652D01*
X39925Y10629D01*
X40225Y10675D01*
X40425Y10745D01*
X40625Y10885D01*
X40758Y11049D01*
X40825Y11212D01*
Y11375D01*
X40758Y11539D01*
X40658Y11679D01*
X40525Y11795D01*
G01X39158Y12769D02*
X38958Y12909D01*
X38858Y13072D01*
X38825Y13259D01*
X38892Y13492D01*
X39058Y13655D01*
X39258Y13702D01*
X39458Y13679D01*
X39625Y13585D01*
X39958Y13119D01*
X40192Y12909D01*
X40525Y12769D01*
X40825Y12722D01*
Y13702D01*
G01X40592Y14815D02*
X40758Y14979D01*
X40825Y15165D01*
X40758Y15352D01*
X40558Y15515D01*
X40258Y15632D01*
X39958Y15679D01*
X39592D01*
X39292Y15632D01*
X39025Y15515D01*
X38892Y15375D01*
X38825Y15212D01*
X38892Y15025D01*
X39025Y14885D01*
X39225Y14792D01*
X39492Y14745D01*
X39725Y14792D01*
X39958Y14909D01*
X40092Y15049D01*
X40125Y15212D01*
X40058Y15399D01*
X39892Y15539D01*
X39592Y15679D01*
G01X40592Y16815D02*
X40758Y16979D01*
X40825Y17165D01*
X40758Y17352D01*
X40558Y17515D01*
X40258Y17632D01*
X39958Y17679D01*
X39592D01*
X39292Y17632D01*
X39025Y17515D01*
X38892Y17375D01*
X38825Y17212D01*
X38892Y17025D01*
X39025Y16885D01*
X39225Y16792D01*
X39492Y16745D01*
X39725Y16792D01*
X39958Y16909D01*
X40092Y17049D01*
X40125Y17212D01*
X40058Y17399D01*
X39892Y17539D01*
X39592Y17679D01*
G01X30652Y23292D02*
X28652D01*
X29052Y23012D01*
G01X30652D02*
Y23572D01*
G01X38610Y41531D02*
Y40098D01*
X38703Y39798D01*
X38890Y39598D01*
X39123Y39531D01*
X39356Y39598D01*
X39543Y39798D01*
X39636Y40098D01*
Y41531D01*
G01X41123Y39531D02*
X41286Y39564D01*
X41473Y39664D01*
X41590Y39831D01*
X41636Y40064D01*
X41590Y40298D01*
X41450Y40498D01*
X41240Y40598D01*
X41006D01*
X40866Y40664D01*
X40750Y40831D01*
X40703Y41064D01*
X40773Y41298D01*
X40936Y41464D01*
X41123Y41531D01*
X41310Y41464D01*
X41473Y41298D01*
X41543Y41064D01*
X41496Y40831D01*
X41380Y40664D01*
X41240Y40598D01*
X41006D01*
X40796Y40498D01*
X40656Y40298D01*
X40610Y40064D01*
X40656Y39831D01*
X40773Y39664D01*
X40960Y39564D01*
X41123Y39531D01*
G01X34123Y69743D02*
Y67743D01*
X35057D01*
G01X36590D02*
Y69743D01*
X36310Y69343D01*
G01Y67743D02*
X36870D01*
G01X38077Y68043D02*
X38217Y67876D01*
X38380Y67776D01*
X38590Y67743D01*
X38800Y67810D01*
X38963Y67943D01*
X39080Y68176D01*
X39103Y68443D01*
X39057Y68710D01*
X38940Y68876D01*
X38777Y69010D01*
X38613Y69043D01*
X38450Y69010D01*
X38240Y68876D01*
X38310Y69743D01*
X38940D01*
G01X27993Y60686D02*
X25993D01*
X27426Y59823D01*
Y60989D01*
G01X26326Y61963D02*
X26126Y62103D01*
X26026Y62266D01*
X25993Y62453D01*
X26060Y62686D01*
X26226Y62849D01*
X26426Y62896D01*
X26626Y62873D01*
X26793Y62779D01*
X27126Y62313D01*
X27360Y62103D01*
X27693Y61963D01*
X27993Y61916D01*
Y62896D01*
G01X23709Y123069D02*
Y121636D01*
X23802Y121336D01*
X23989Y121136D01*
X24222Y121069D01*
X24455Y121136D01*
X24642Y121336D01*
X24735Y121636D01*
Y123069D01*
G01X25779Y122736D02*
X25919Y122936D01*
X26082Y123036D01*
X26269Y123069D01*
X26502Y123002D01*
X26665Y122836D01*
X26712Y122636D01*
X26689Y122436D01*
X26595Y122269D01*
X26129Y121936D01*
X25919Y121702D01*
X25779Y121369D01*
X25732Y121069D01*
X26712D01*
G01X37214Y148684D02*
X37378Y148518D01*
X37564Y148451D01*
X37751Y148518D01*
X37914Y148718D01*
X38031Y149018D01*
X38078Y149318D01*
Y149684D01*
X38031Y149984D01*
X37914Y150251D01*
X37774Y150384D01*
X37611Y150451D01*
X37424Y150384D01*
X37284Y150251D01*
X37191Y150051D01*
X37144Y149784D01*
X37191Y149551D01*
X37308Y149318D01*
X37448Y149184D01*
X37611Y149151D01*
X37798Y149218D01*
X37938Y149384D01*
X38078Y149684D01*
G01X34989Y168290D02*
Y166290D01*
G01X34452Y168290D02*
X35526D01*
G01X36522Y166290D02*
Y168290D01*
X37082D01*
X37269Y168190D01*
X37409Y167957D01*
X37456Y167690D01*
X37409Y167423D01*
X37292Y167223D01*
X37082Y167123D01*
X36522D01*
G01X39269Y166290D02*
Y168290D01*
X38406Y166857D01*
X39572D01*
G01X41269Y166290D02*
Y168290D01*
X40406Y166857D01*
X41572D01*
G01X41554Y18070D02*
Y20070D01*
X41274Y19670D01*
G01Y18070D02*
X41834D01*
G01X56489Y22082D02*
X54489D01*
Y22666D01*
X54589Y22852D01*
X54722Y22969D01*
X54989Y23016D01*
X55256Y22969D01*
X55422Y22829D01*
X55522Y22666D01*
Y22082D01*
G01Y22666D02*
X56489Y23016D01*
G01X56189Y24036D02*
X56356Y24176D01*
X56456Y24339D01*
X56489Y24549D01*
X56422Y24759D01*
X56289Y24922D01*
X56056Y25039D01*
X55789Y25062D01*
X55522Y25016D01*
X55356Y24899D01*
X55222Y24736D01*
X55189Y24572D01*
X55222Y24409D01*
X55356Y24199D01*
X54489Y24269D01*
Y24899D01*
G01X56489Y26549D02*
X54489D01*
X54889Y26269D01*
G01X56489D02*
Y26829D01*
G01X47246Y14261D02*
X47059Y14294D01*
X46896Y14428D01*
X46756Y14628D01*
X46663Y14861D01*
X46616Y15128D01*
Y15394D01*
X46663Y15661D01*
X46756Y15894D01*
X46896Y16094D01*
X47059Y16228D01*
X47246Y16261D01*
X47433Y16228D01*
X47596Y16094D01*
X47736Y15894D01*
X47829Y15661D01*
X47876Y15394D01*
Y15128D01*
X47829Y14861D01*
X47736Y14628D01*
X47596Y14428D01*
X47433Y14294D01*
X47246Y14261D01*
G01X47433Y14794D02*
X47713Y14261D01*
G01X48803Y16261D02*
X49689D01*
X48803Y14261D01*
X49689D01*
G01X50803Y15928D02*
X50943Y16128D01*
X51106Y16228D01*
X51293Y16261D01*
X51526Y16194D01*
X51689Y16028D01*
X51736Y15828D01*
X51713Y15628D01*
X51619Y15461D01*
X51153Y15128D01*
X50943Y14894D01*
X50803Y14561D01*
X50756Y14261D01*
X51736D01*
G01X46852Y24050D02*
Y26050D01*
X47436D01*
X47622Y25950D01*
X47739Y25817D01*
X47786Y25550D01*
X47739Y25283D01*
X47599Y25117D01*
X47436Y25017D01*
X46852D01*
G01X47436D02*
X47786Y24050D01*
G01X48806Y24350D02*
X48946Y24183D01*
X49109Y24083D01*
X49319Y24050D01*
X49529Y24117D01*
X49692Y24250D01*
X49809Y24483D01*
X49832Y24750D01*
X49786Y25017D01*
X49669Y25183D01*
X49506Y25317D01*
X49342Y25350D01*
X49179Y25317D01*
X48969Y25183D01*
X49039Y26050D01*
X49669D01*
G01X51272Y24050D02*
X51319Y24483D01*
X51389Y24850D01*
X51482Y25183D01*
X51599Y25550D01*
X51786Y26050D01*
X50852D01*
G01X49800Y26250D02*
Y28250D01*
X49520Y27850D01*
G01Y26250D02*
X50080D01*
G01X52080D02*
Y28250D01*
X51217Y26817D01*
X52383D01*
G01X57056Y51664D02*
X56856Y51804D01*
X56756Y51967D01*
X56723Y52154D01*
X56790Y52387D01*
X56956Y52550D01*
X57156Y52597D01*
X57356Y52574D01*
X57523Y52480D01*
X57856Y52014D01*
X58090Y51804D01*
X58423Y51664D01*
X58723Y51617D01*
Y52597D01*
G01Y54107D02*
X58690Y54270D01*
X58590Y54457D01*
X58423Y54574D01*
X58190Y54620D01*
X57956Y54574D01*
X57756Y54434D01*
X57656Y54224D01*
Y53990D01*
X57590Y53850D01*
X57423Y53734D01*
X57190Y53687D01*
X56956Y53757D01*
X56790Y53920D01*
X56723Y54107D01*
X56790Y54294D01*
X56956Y54457D01*
X57190Y54527D01*
X57423Y54480D01*
X57590Y54364D01*
X57656Y54224D01*
Y53990D01*
X57756Y53780D01*
X57956Y53640D01*
X58190Y53594D01*
X58423Y53640D01*
X58590Y53757D01*
X58690Y53944D01*
X58723Y54107D01*
G01X44787Y63852D02*
Y65852D01*
X44507Y65452D01*
G01Y63852D02*
X45067D01*
G01X50155Y60046D02*
X49955Y60186D01*
X49855Y60349D01*
X49822Y60536D01*
X49889Y60769D01*
X50055Y60932D01*
X50255Y60979D01*
X50455Y60956D01*
X50622Y60862D01*
X50955Y60396D01*
X51189Y60186D01*
X51522Y60046D01*
X51822Y59999D01*
Y60979D01*
G01X51589Y62092D02*
X51755Y62256D01*
X51822Y62442D01*
X51755Y62629D01*
X51555Y62792D01*
X51255Y62909D01*
X50955Y62956D01*
X50589D01*
X50289Y62909D01*
X50022Y62792D01*
X49889Y62652D01*
X49822Y62489D01*
X49889Y62302D01*
X50022Y62162D01*
X50222Y62069D01*
X50489Y62022D01*
X50722Y62069D01*
X50955Y62186D01*
X51089Y62326D01*
X51122Y62489D01*
X51055Y62676D01*
X50889Y62816D01*
X50589Y62956D01*
G01X53818Y113799D02*
Y111799D01*
G01X53281Y113799D02*
X54355D01*
G01X55351Y111799D02*
Y113799D01*
X55911D01*
X56098Y113699D01*
X56238Y113466D01*
X56285Y113199D01*
X56238Y112932D01*
X56121Y112732D01*
X55911Y112632D01*
X55351D01*
G01X57305Y112099D02*
X57445Y111932D01*
X57608Y111832D01*
X57818Y111799D01*
X58028Y111866D01*
X58191Y111999D01*
X58308Y112232D01*
X58331Y112499D01*
X58285Y112766D01*
X58168Y112932D01*
X58005Y113066D01*
X57841Y113099D01*
X57678Y113066D01*
X57468Y112932D01*
X57538Y113799D01*
X58168D01*
G01X59818Y111799D02*
X59981Y111832D01*
X60168Y111932D01*
X60285Y112099D01*
X60331Y112332D01*
X60285Y112566D01*
X60145Y112766D01*
X59935Y112866D01*
X59701D01*
X59561Y112932D01*
X59445Y113099D01*
X59398Y113332D01*
X59468Y113566D01*
X59631Y113732D01*
X59818Y113799D01*
X60005Y113732D01*
X60168Y113566D01*
X60238Y113332D01*
X60191Y113099D01*
X60075Y112932D01*
X59935Y112866D01*
X59701D01*
X59491Y112766D01*
X59351Y112566D01*
X59305Y112332D01*
X59351Y112099D01*
X59468Y111932D01*
X59655Y111832D01*
X59818Y111799D01*
G01X59989Y22082D02*
X57989D01*
Y22666D01*
X58089Y22852D01*
X58222Y22969D01*
X58489Y23016D01*
X58756Y22969D01*
X58922Y22829D01*
X59022Y22666D01*
Y22082D01*
G01Y22666D02*
X59989Y23016D01*
G01X59689Y24036D02*
X59856Y24176D01*
X59956Y24339D01*
X59989Y24549D01*
X59922Y24759D01*
X59789Y24922D01*
X59556Y25039D01*
X59289Y25062D01*
X59022Y25016D01*
X58856Y24899D01*
X58722Y24736D01*
X58689Y24572D01*
X58722Y24409D01*
X58856Y24199D01*
X57989Y24269D01*
Y24899D01*
G01X58322Y26106D02*
X58122Y26246D01*
X58022Y26409D01*
X57989Y26596D01*
X58056Y26829D01*
X58222Y26992D01*
X58422Y27039D01*
X58622Y27016D01*
X58789Y26922D01*
X59122Y26456D01*
X59356Y26246D01*
X59689Y26106D01*
X59989Y26059D01*
Y27039D01*
G01X61989Y20850D02*
Y18850D01*
G01X61452Y20850D02*
X62526D01*
G01X63522Y18850D02*
Y20850D01*
X64082D01*
X64269Y20750D01*
X64409Y20517D01*
X64456Y20250D01*
X64409Y19983D01*
X64292Y19783D01*
X64082Y19683D01*
X63522D01*
G01X65546Y20517D02*
X65686Y20717D01*
X65849Y20817D01*
X66036Y20850D01*
X66269Y20783D01*
X66432Y20617D01*
X66479Y20417D01*
X66456Y20217D01*
X66362Y20050D01*
X65896Y19717D01*
X65686Y19483D01*
X65546Y19150D01*
X65499Y18850D01*
X66479D01*
G01X67546Y20517D02*
X67686Y20717D01*
X67849Y20817D01*
X68036Y20850D01*
X68269Y20783D01*
X68432Y20617D01*
X68479Y20417D01*
X68456Y20217D01*
X68362Y20050D01*
X67896Y19717D01*
X67686Y19483D01*
X67546Y19150D01*
X67499Y18850D01*
X68479D01*
G01X62000Y14200D02*
Y12200D01*
G01X61463Y14200D02*
X62537D01*
G01X63533Y12200D02*
Y14200D01*
X64093D01*
X64280Y14100D01*
X64420Y13867D01*
X64467Y13600D01*
X64420Y13333D01*
X64303Y13133D01*
X64093Y13033D01*
X63533D01*
G01X65487Y12600D02*
X65627Y12367D01*
X65813Y12233D01*
X66023Y12200D01*
X66210Y12233D01*
X66397Y12400D01*
X66513Y12600D01*
X66537Y12800D01*
X66490Y13033D01*
X66327Y13200D01*
X66163Y13267D01*
X65953D01*
G01X66163D02*
X66303Y13367D01*
X66420Y13533D01*
X66467Y13733D01*
X66420Y13933D01*
X66303Y14100D01*
X66093Y14200D01*
X65883Y14167D01*
X65673Y14033D01*
G01X67557Y13867D02*
X67697Y14067D01*
X67860Y14167D01*
X68047Y14200D01*
X68280Y14133D01*
X68443Y13967D01*
X68490Y13767D01*
X68467Y13567D01*
X68373Y13400D01*
X67907Y13067D01*
X67697Y12833D01*
X67557Y12500D01*
X67510Y12200D01*
X68490D01*
G01X57834Y11725D02*
X57734Y11585D01*
X57667Y11422D01*
Y11235D01*
X57767Y11025D01*
X57934Y10862D01*
X58134Y10745D01*
X58467Y10652D01*
X58767Y10629D01*
X59067Y10675D01*
X59267Y10745D01*
X59467Y10885D01*
X59600Y11049D01*
X59667Y11212D01*
Y11375D01*
X59600Y11539D01*
X59500Y11679D01*
X59367Y11795D01*
G01X58000Y12769D02*
X57800Y12909D01*
X57700Y13072D01*
X57667Y13259D01*
X57734Y13492D01*
X57900Y13655D01*
X58100Y13702D01*
X58300Y13679D01*
X58467Y13585D01*
X58800Y13119D01*
X59034Y12909D01*
X59367Y12769D01*
X59667Y12722D01*
Y13702D01*
G01X59434Y14815D02*
X59600Y14979D01*
X59667Y15165D01*
X59600Y15352D01*
X59400Y15515D01*
X59100Y15632D01*
X58800Y15679D01*
X58434D01*
X58134Y15632D01*
X57867Y15515D01*
X57734Y15375D01*
X57667Y15212D01*
X57734Y15025D01*
X57867Y14885D01*
X58067Y14792D01*
X58334Y14745D01*
X58567Y14792D01*
X58800Y14909D01*
X58934Y15049D01*
X58967Y15212D01*
X58900Y15399D01*
X58734Y15539D01*
X58434Y15679D01*
G01X59667Y17212D02*
X59634Y17375D01*
X59534Y17562D01*
X59367Y17679D01*
X59134Y17725D01*
X58900Y17679D01*
X58700Y17539D01*
X58600Y17329D01*
Y17095D01*
X58534Y16955D01*
X58367Y16839D01*
X58134Y16792D01*
X57900Y16862D01*
X57734Y17025D01*
X57667Y17212D01*
X57734Y17399D01*
X57900Y17562D01*
X58134Y17632D01*
X58367Y17585D01*
X58534Y17469D01*
X58600Y17329D01*
Y17095D01*
X58700Y16885D01*
X58900Y16745D01*
X59134Y16699D01*
X59367Y16745D01*
X59534Y16862D01*
X59634Y17049D01*
X59667Y17212D01*
G01X70391Y39658D02*
Y37658D01*
X70671Y38058D01*
G01Y39658D02*
X70111D01*
G01X63522Y35394D02*
Y33394D01*
X64456D01*
G01X65476Y33694D02*
X65616Y33527D01*
X65779Y33427D01*
X65989Y33394D01*
X66199Y33461D01*
X66362Y33594D01*
X66479Y33827D01*
X66502Y34094D01*
X66456Y34361D01*
X66339Y34527D01*
X66176Y34661D01*
X66012Y34694D01*
X65849Y34661D01*
X65639Y34527D01*
X65709Y35394D01*
X66339D01*
G01X59141Y29178D02*
X57141D01*
X57541Y28898D01*
G01X59141D02*
Y29458D01*
G01X58841Y30665D02*
X59008Y30805D01*
X59108Y30968D01*
X59141Y31178D01*
X59074Y31388D01*
X58941Y31551D01*
X58708Y31668D01*
X58441Y31691D01*
X58174Y31645D01*
X58008Y31528D01*
X57874Y31365D01*
X57841Y31201D01*
X57874Y31038D01*
X58008Y30828D01*
X57141Y30898D01*
Y31528D01*
G01X69558Y55377D02*
X71558D01*
G01X69558Y54840D02*
Y55914D01*
G01X71558Y56910D02*
X69558D01*
Y57470D01*
X69658Y57657D01*
X69891Y57797D01*
X70158Y57844D01*
X70425Y57797D01*
X70625Y57680D01*
X70725Y57470D01*
Y56910D01*
G01X69891Y58934D02*
X69691Y59074D01*
X69591Y59237D01*
X69558Y59424D01*
X69625Y59657D01*
X69791Y59820D01*
X69991Y59867D01*
X70191Y59844D01*
X70358Y59750D01*
X70691Y59284D01*
X70925Y59074D01*
X71258Y58934D01*
X71558Y58887D01*
Y59867D01*
G01X71158Y60864D02*
X71391Y61004D01*
X71525Y61190D01*
X71558Y61400D01*
X71525Y61587D01*
X71358Y61774D01*
X71158Y61890D01*
X70958Y61914D01*
X70725Y61867D01*
X70558Y61704D01*
X70491Y61540D01*
Y61330D01*
G01Y61540D02*
X70391Y61680D01*
X70225Y61797D01*
X70025Y61844D01*
X69825Y61797D01*
X69658Y61680D01*
X69558Y61470D01*
X69591Y61260D01*
X69725Y61050D01*
G01X70566Y44215D02*
Y42215D01*
X70846Y42615D01*
G01Y44215D02*
X70286D01*
G01X63522Y49702D02*
Y47702D01*
X64456D01*
G01X65546Y48535D02*
X65709Y48769D01*
X65849Y48902D01*
X66036Y48969D01*
X66199Y48902D01*
X66316Y48769D01*
X66409Y48569D01*
X66432Y48335D01*
X66409Y48135D01*
X66316Y47935D01*
X66176Y47769D01*
X66012Y47702D01*
X65826Y47769D01*
X65662Y47969D01*
X65569Y48269D01*
X65546Y48602D01*
X65592Y49035D01*
X65662Y49269D01*
X65779Y49502D01*
X65942Y49669D01*
X66106Y49702D01*
X66269Y49635D01*
X66386Y49469D01*
G01X68022Y65850D02*
Y67850D01*
X68606D01*
X68792Y67750D01*
X68909Y67617D01*
X68956Y67350D01*
X68909Y67083D01*
X68769Y66917D01*
X68606Y66817D01*
X68022D01*
G01X68606D02*
X68956Y65850D01*
G01X70769D02*
Y67850D01*
X69906Y66417D01*
X71072D01*
G01X72489Y65850D02*
X72652Y65883D01*
X72839Y65983D01*
X72956Y66150D01*
X73002Y66383D01*
X72956Y66617D01*
X72816Y66817D01*
X72606Y66917D01*
X72372D01*
X72232Y66983D01*
X72116Y67150D01*
X72069Y67383D01*
X72139Y67617D01*
X72302Y67783D01*
X72489Y67850D01*
X72676Y67783D01*
X72839Y67617D01*
X72909Y67383D01*
X72862Y67150D01*
X72746Y66983D01*
X72606Y66917D01*
X72372D01*
X72162Y66817D01*
X72022Y66617D01*
X71976Y66383D01*
X72022Y66150D01*
X72139Y65983D01*
X72326Y65883D01*
X72489Y65850D01*
G01X68022Y69350D02*
Y71350D01*
X68606D01*
X68792Y71250D01*
X68909Y71117D01*
X68956Y70850D01*
X68909Y70583D01*
X68769Y70417D01*
X68606Y70317D01*
X68022D01*
G01X68606D02*
X68956Y69350D01*
G01X69976Y69650D02*
X70116Y69483D01*
X70279Y69383D01*
X70489Y69350D01*
X70699Y69417D01*
X70862Y69550D01*
X70979Y69783D01*
X71002Y70050D01*
X70956Y70317D01*
X70839Y70483D01*
X70676Y70617D01*
X70512Y70650D01*
X70349Y70617D01*
X70139Y70483D01*
X70209Y71350D01*
X70839D01*
G01X72769Y69350D02*
Y71350D01*
X71906Y69917D01*
X73072D01*
G01X67022Y62350D02*
Y64350D01*
X67606D01*
X67792Y64250D01*
X67909Y64117D01*
X67956Y63850D01*
X67909Y63583D01*
X67769Y63417D01*
X67606Y63317D01*
X67022D01*
G01X67606D02*
X67956Y62350D01*
G01X69489D02*
Y64350D01*
X69209Y63950D01*
G01Y62350D02*
X69769D01*
G01X71489D02*
Y64350D01*
X71209Y63950D01*
G01Y62350D02*
X71769D01*
G01X73769D02*
Y64350D01*
X72906Y62917D01*
X74072D01*
G01X62685Y89006D02*
X63268Y91006D01*
X63851Y89006D01*
G01X63641Y89706D02*
X62895D01*
G01X65408Y90006D02*
X65875D01*
Y89406D01*
X65735Y89206D01*
X65571Y89073D01*
X65338Y89006D01*
X65105Y89073D01*
X64941Y89206D01*
X64801Y89406D01*
X64708Y89639D01*
X64661Y89906D01*
Y90139D01*
X64708Y90339D01*
X64801Y90573D01*
X64941Y90773D01*
X65081Y90906D01*
X65268Y91006D01*
X65431D01*
X65618Y90939D01*
X65758Y90806D01*
G01X62685Y90974D02*
X63268Y92974D01*
X63851Y90974D01*
G01X63641Y91674D02*
X62895D01*
G01X64825Y90974D02*
Y92974D01*
X65711D01*
G01X65385Y92007D02*
X64825D01*
G01X62685Y92943D02*
X63268Y94943D01*
X63851Y92943D01*
G01X63641Y93643D02*
X62895D01*
G01X65735Y92943D02*
X64801D01*
Y94943D01*
X65735D01*
G01X65361Y93976D02*
X64801D01*
G01X62685Y94911D02*
X63268Y96911D01*
X63851Y94911D01*
G01X63641Y95611D02*
X62895D01*
G01X64755Y94911D02*
Y96911D01*
X65221D01*
X65408Y96811D01*
X65548Y96678D01*
X65665Y96478D01*
X65758Y96244D01*
X65781Y95911D01*
X65758Y95578D01*
X65665Y95344D01*
X65548Y95144D01*
X65408Y95011D01*
X65221Y94911D01*
X64755D01*
G01X62685Y96880D02*
X63268Y98880D01*
X63851Y96880D01*
G01X63641Y97580D02*
X62895D01*
G01X65781Y98713D02*
X65641Y98813D01*
X65478Y98880D01*
X65291D01*
X65081Y98780D01*
X64918Y98613D01*
X64801Y98413D01*
X64708Y98080D01*
X64685Y97780D01*
X64731Y97480D01*
X64801Y97280D01*
X64941Y97080D01*
X65105Y96947D01*
X65268Y96880D01*
X65431D01*
X65595Y96947D01*
X65735Y97047D01*
X65851Y97180D01*
G01X62685Y98848D02*
X63268Y100848D01*
X63851Y98848D01*
G01X63641Y99548D02*
X62895D01*
G01X65455Y99915D02*
X65548Y100015D01*
X65618Y100181D01*
X65665Y100415D01*
X65618Y100615D01*
X65525Y100748D01*
X65361Y100848D01*
X64731D01*
Y98848D01*
X65501D01*
X65665Y98981D01*
X65758Y99181D01*
X65805Y99415D01*
X65758Y99648D01*
X65618Y99848D01*
X65455Y99915D01*
X64731D01*
G01X62685Y100817D02*
X63268Y102817D01*
X63851Y100817D01*
G01X63641Y101517D02*
X62895D01*
G01X64685Y100817D02*
X65268Y102817D01*
X65851Y100817D01*
G01X65641Y101517D02*
X64895D01*
G01X63268Y102785D02*
Y103685D01*
X62801Y104785D01*
G01X63735D02*
X63268Y103685D01*
G01X62568Y106754D02*
X62895Y104754D01*
X63268Y106754D01*
X63641Y104754D01*
X63968Y106754D01*
G01X62685Y108722D02*
X63268Y106722D01*
X63851Y108722D01*
G01X62755Y110691D02*
Y109258D01*
X62848Y108958D01*
X63035Y108758D01*
X63268Y108691D01*
X63501Y108758D01*
X63688Y108958D01*
X63781Y109258D01*
Y110691D01*
G01X63268Y112659D02*
Y110659D01*
G01X62731Y112659D02*
X63805D01*
G01X62801Y112628D02*
Y114628D01*
X63385D01*
X63571Y114528D01*
X63688Y114395D01*
X63735Y114128D01*
X63688Y113861D01*
X63548Y113695D01*
X63385Y113595D01*
X62801D01*
G01X63385D02*
X63735Y112628D01*
G01X62801Y114596D02*
Y116596D01*
X63361D01*
X63548Y116496D01*
X63688Y116263D01*
X63735Y115996D01*
X63688Y115729D01*
X63571Y115529D01*
X63361Y115429D01*
X62801D01*
G01X62731Y116565D02*
Y118565D01*
X63805Y116565D01*
Y118565D01*
G01X62661Y118533D02*
Y120533D01*
X63268Y118866D01*
X63875Y120533D01*
Y118533D01*
G01X62801Y122502D02*
Y120502D01*
X63735D01*
G01X62755Y122470D02*
Y124470D01*
G01X63641D02*
X62755Y123237D01*
G01X63781Y122470D02*
X63151Y123803D01*
G01X62801Y124839D02*
X62918Y124639D01*
X63058Y124506D01*
X63221Y124439D01*
X63408Y124506D01*
X63548Y124639D01*
X63688Y124839D01*
X63735Y125106D01*
Y126439D01*
G01X62778Y126407D02*
Y128407D01*
G01X63758D02*
Y126407D01*
G01Y127407D02*
X62778D01*
G01X58300Y118200D02*
Y116200D01*
G01X57763Y118200D02*
X58837D01*
G01X59833Y116200D02*
Y118200D01*
X60393D01*
X60580Y118100D01*
X60720Y117867D01*
X60767Y117600D01*
X60720Y117333D01*
X60603Y117133D01*
X60393Y117033D01*
X59833D01*
G01X62300Y116200D02*
Y118200D01*
X62020Y117800D01*
G01Y116200D02*
X62580D01*
G01X63787Y116500D02*
X63927Y116333D01*
X64090Y116233D01*
X64300Y116200D01*
X64510Y116267D01*
X64673Y116400D01*
X64790Y116633D01*
X64813Y116900D01*
X64767Y117167D01*
X64650Y117333D01*
X64487Y117467D01*
X64323Y117500D01*
X64160Y117467D01*
X63950Y117333D01*
X64020Y118200D01*
X64650D01*
G01X74416Y143806D02*
X74556Y143639D01*
X74719Y143539D01*
X74929Y143506D01*
X75139Y143573D01*
X75302Y143706D01*
X75419Y143939D01*
X75442Y144206D01*
X75396Y144473D01*
X75279Y144639D01*
X75116Y144773D01*
X74952Y144806D01*
X74789Y144773D01*
X74579Y144639D01*
X74649Y145506D01*
X75279D01*
G01X63408Y129376D02*
X63875D01*
Y128776D01*
X63735Y128576D01*
X63571Y128443D01*
X63338Y128376D01*
X63105Y128443D01*
X62941Y128576D01*
X62801Y128776D01*
X62708Y129009D01*
X62661Y129276D01*
Y129509D01*
X62708Y129709D01*
X62801Y129943D01*
X62941Y130143D01*
X63081Y130276D01*
X63268Y130376D01*
X63431D01*
X63618Y130309D01*
X63758Y130176D01*
G01X62825Y130344D02*
Y132344D01*
X63711D01*
G01X63385Y131377D02*
X62825D01*
G01X63735Y132313D02*
X62801D01*
Y134313D01*
X63735D01*
G01X63361Y133346D02*
X62801D01*
G01X62755Y134281D02*
Y136281D01*
X63221D01*
X63408Y136181D01*
X63548Y136048D01*
X63665Y135848D01*
X63758Y135614D01*
X63781Y135281D01*
X63758Y134948D01*
X63665Y134714D01*
X63548Y134514D01*
X63408Y134381D01*
X63221Y134281D01*
X62755D01*
G01X63781Y138083D02*
X63641Y138183D01*
X63478Y138250D01*
X63291D01*
X63081Y138150D01*
X62918Y137983D01*
X62801Y137783D01*
X62708Y137450D01*
X62685Y137150D01*
X62731Y136850D01*
X62801Y136650D01*
X62941Y136450D01*
X63105Y136317D01*
X63268Y136250D01*
X63431D01*
X63595Y136317D01*
X63735Y136417D01*
X63851Y136550D01*
G01X63455Y139285D02*
X63548Y139385D01*
X63618Y139551D01*
X63665Y139785D01*
X63618Y139985D01*
X63525Y140118D01*
X63361Y140218D01*
X62731D01*
Y138218D01*
X63501D01*
X63665Y138351D01*
X63758Y138551D01*
X63805Y138785D01*
X63758Y139018D01*
X63618Y139218D01*
X63455Y139285D01*
X62731D01*
G01X73241Y143506D02*
Y145506D01*
X72378Y144073D01*
X73544D01*
G01X70479Y143906D02*
X70619Y143673D01*
X70805Y143539D01*
X71015Y143506D01*
X71202Y143539D01*
X71389Y143706D01*
X71505Y143906D01*
X71529Y144106D01*
X71482Y144339D01*
X71319Y144506D01*
X71155Y144573D01*
X70945D01*
G01X71155D02*
X71295Y144673D01*
X71412Y144839D01*
X71459Y145039D01*
X71412Y145239D01*
X71295Y145406D01*
X71085Y145506D01*
X70875Y145473D01*
X70665Y145339D01*
G01X68581Y145173D02*
X68721Y145373D01*
X68884Y145473D01*
X69071Y145506D01*
X69304Y145439D01*
X69467Y145273D01*
X69514Y145073D01*
X69491Y144873D01*
X69397Y144706D01*
X68931Y144373D01*
X68721Y144139D01*
X68581Y143806D01*
X68534Y143506D01*
X69514D01*
G01X67055D02*
Y145506D01*
X66775Y145106D01*
G01Y143506D02*
X67335D01*
G01X62685Y140187D02*
X63268Y142187D01*
X63851Y140187D01*
G01X63641Y140887D02*
X62895D01*
G01X67085Y182764D02*
X65085D01*
Y183348D01*
X65185Y183534D01*
X65318Y183651D01*
X65585Y183698D01*
X65852Y183651D01*
X66018Y183511D01*
X66118Y183348D01*
Y182764D01*
G01Y183348D02*
X67085Y183698D01*
G01Y185231D02*
X65085D01*
X65485Y184951D01*
G01X67085D02*
Y185511D01*
G01X66685Y186718D02*
X66918Y186858D01*
X67052Y187044D01*
X67085Y187254D01*
X67052Y187441D01*
X66885Y187628D01*
X66685Y187744D01*
X66485Y187768D01*
X66252Y187721D01*
X66085Y187558D01*
X66018Y187394D01*
Y187184D01*
G01Y187394D02*
X65918Y187534D01*
X65752Y187651D01*
X65552Y187698D01*
X65352Y187651D01*
X65185Y187534D01*
X65085Y187324D01*
X65118Y187114D01*
X65252Y186904D01*
G01X62785Y182764D02*
X60785D01*
Y183348D01*
X60885Y183534D01*
X61018Y183651D01*
X61285Y183698D01*
X61552Y183651D01*
X61718Y183511D01*
X61818Y183348D01*
Y182764D01*
G01Y183348D02*
X62785Y183698D01*
G01Y185231D02*
X60785D01*
X61185Y184951D01*
G01X62785D02*
Y185511D01*
G01X61118Y186788D02*
X60918Y186928D01*
X60818Y187091D01*
X60785Y187278D01*
X60852Y187511D01*
X61018Y187674D01*
X61218Y187721D01*
X61418Y187698D01*
X61585Y187604D01*
X61918Y187138D01*
X62152Y186928D01*
X62485Y186788D01*
X62785Y186741D01*
Y187721D01*
G01X75585Y182764D02*
X73585D01*
Y183348D01*
X73685Y183534D01*
X73818Y183651D01*
X74085Y183698D01*
X74352Y183651D01*
X74518Y183511D01*
X74618Y183348D01*
Y182764D01*
G01Y183348D02*
X75585Y183698D01*
G01Y185231D02*
X73585D01*
X73985Y184951D01*
G01X75585D02*
Y185511D01*
G01Y187231D02*
X73585D01*
X73985Y186951D01*
G01X75585D02*
Y187511D01*
G01X71289Y182764D02*
X69289D01*
Y183348D01*
X69389Y183534D01*
X69522Y183651D01*
X69789Y183698D01*
X70056Y183651D01*
X70222Y183511D01*
X70322Y183348D01*
Y182764D01*
G01Y183348D02*
X71289Y183698D01*
G01Y185231D02*
X69289D01*
X69689Y184951D01*
G01X71289D02*
Y185511D01*
G01X69289Y187231D02*
X69356Y187044D01*
X69522Y186904D01*
X69722Y186811D01*
X69989Y186741D01*
X70289Y186718D01*
X70589Y186741D01*
X70856Y186811D01*
X71056Y186904D01*
X71222Y187044D01*
X71289Y187231D01*
X71222Y187418D01*
X71056Y187558D01*
X70856Y187651D01*
X70589Y187721D01*
X70289Y187744D01*
X69989Y187721D01*
X69722Y187651D01*
X69522Y187558D01*
X69356Y187418D01*
X69289Y187231D01*
G01X90242Y4957D02*
X88242D01*
X88642Y4677D01*
G01X90242D02*
Y5237D01*
G01X77300Y17100D02*
Y15100D01*
G01X76763Y17100D02*
X77837D01*
G01X78833Y15100D02*
Y17100D01*
X79393D01*
X79580Y17000D01*
X79720Y16767D01*
X79767Y16500D01*
X79720Y16233D01*
X79603Y16033D01*
X79393Y15933D01*
X78833D01*
G01X80787Y15400D02*
X80927Y15233D01*
X81090Y15133D01*
X81300Y15100D01*
X81510Y15167D01*
X81673Y15300D01*
X81790Y15533D01*
X81813Y15800D01*
X81767Y16067D01*
X81650Y16233D01*
X81487Y16367D01*
X81323Y16400D01*
X81160Y16367D01*
X80950Y16233D01*
X81020Y17100D01*
X81650D01*
G01X82787Y15500D02*
X82927Y15267D01*
X83113Y15133D01*
X83323Y15100D01*
X83510Y15133D01*
X83697Y15300D01*
X83813Y15500D01*
X83837Y15700D01*
X83790Y15933D01*
X83627Y16100D01*
X83463Y16167D01*
X83253D01*
G01X83463D02*
X83603Y16267D01*
X83720Y16433D01*
X83767Y16633D01*
X83720Y16833D01*
X83603Y17000D01*
X83393Y17100D01*
X83183Y17067D01*
X82973Y16933D01*
G01X86833Y24099D02*
Y22099D01*
G01X86296Y24099D02*
X87370D01*
G01X88366Y22099D02*
Y24099D01*
X88926D01*
X89113Y23999D01*
X89253Y23766D01*
X89300Y23499D01*
X89253Y23232D01*
X89136Y23032D01*
X88926Y22932D01*
X88366D01*
G01X90320Y22399D02*
X90460Y22232D01*
X90623Y22132D01*
X90833Y22099D01*
X91043Y22166D01*
X91206Y22299D01*
X91323Y22532D01*
X91346Y22799D01*
X91300Y23066D01*
X91183Y23232D01*
X91020Y23366D01*
X90856Y23399D01*
X90693Y23366D01*
X90483Y23232D01*
X90553Y24099D01*
X91183D01*
G01X92833Y22099D02*
Y24099D01*
X92553Y23699D01*
G01Y22099D02*
X93113D01*
G01X76300Y14482D02*
X74300D01*
Y15066D01*
X74400Y15252D01*
X74533Y15369D01*
X74800Y15416D01*
X75067Y15369D01*
X75233Y15229D01*
X75333Y15066D01*
Y14482D01*
G01Y15066D02*
X76300Y15416D01*
G01Y16949D02*
X74300D01*
X74700Y16669D01*
G01X76300D02*
Y17229D01*
G01X74300Y18949D02*
X74367Y18762D01*
X74533Y18622D01*
X74733Y18529D01*
X75000Y18459D01*
X75300Y18436D01*
X75600Y18459D01*
X75867Y18529D01*
X76067Y18622D01*
X76233Y18762D01*
X76300Y18949D01*
X76233Y19136D01*
X76067Y19276D01*
X75867Y19369D01*
X75600Y19439D01*
X75300Y19462D01*
X75000Y19439D01*
X74733Y19369D01*
X74533Y19276D01*
X74367Y19136D01*
X74300Y18949D01*
G01X75467Y20506D02*
X75233Y20669D01*
X75100Y20809D01*
X75033Y20996D01*
X75100Y21159D01*
X75233Y21276D01*
X75433Y21369D01*
X75667Y21392D01*
X75867Y21369D01*
X76067Y21276D01*
X76233Y21136D01*
X76300Y20972D01*
X76233Y20786D01*
X76033Y20622D01*
X75733Y20529D01*
X75400Y20506D01*
X74967Y20552D01*
X74733Y20622D01*
X74500Y20739D01*
X74333Y20902D01*
X74300Y21066D01*
X74367Y21229D01*
X74533Y21346D01*
G01X77035Y10600D02*
Y12600D01*
X77619D01*
X77805Y12500D01*
X77922Y12367D01*
X77969Y12100D01*
X77922Y11833D01*
X77782Y11667D01*
X77619Y11567D01*
X77035D01*
G01X77619D02*
X77969Y10600D01*
G01X79502D02*
Y12600D01*
X79222Y12200D01*
G01Y10600D02*
X79782D01*
G01X81059Y12267D02*
X81199Y12467D01*
X81362Y12567D01*
X81549Y12600D01*
X81782Y12533D01*
X81945Y12367D01*
X81992Y12167D01*
X81969Y11967D01*
X81875Y11800D01*
X81409Y11467D01*
X81199Y11233D01*
X81059Y10900D01*
X81012Y10600D01*
X81992D01*
G01X83455D02*
X83502Y11033D01*
X83572Y11400D01*
X83665Y11733D01*
X83782Y12100D01*
X83969Y12600D01*
X83035D01*
G01X78035Y18800D02*
Y20800D01*
X78619D01*
X78805Y20700D01*
X78922Y20567D01*
X78969Y20300D01*
X78922Y20033D01*
X78782Y19867D01*
X78619Y19767D01*
X78035D01*
G01X78619D02*
X78969Y18800D01*
G01X79989Y19100D02*
X80129Y18933D01*
X80292Y18833D01*
X80502Y18800D01*
X80712Y18867D01*
X80875Y19000D01*
X80992Y19233D01*
X81015Y19500D01*
X80969Y19767D01*
X80852Y19933D01*
X80689Y20067D01*
X80525Y20100D01*
X80362Y20067D01*
X80152Y19933D01*
X80222Y20800D01*
X80852D01*
G01X81989Y19100D02*
X82129Y18933D01*
X82292Y18833D01*
X82502Y18800D01*
X82712Y18867D01*
X82875Y19000D01*
X82992Y19233D01*
X83015Y19500D01*
X82969Y19767D01*
X82852Y19933D01*
X82689Y20067D01*
X82525Y20100D01*
X82362Y20067D01*
X82152Y19933D01*
X82222Y20800D01*
X82852D01*
G01X87742Y35326D02*
Y33326D01*
G01X87205Y35326D02*
X88279D01*
G01X89275Y33326D02*
Y35326D01*
X89835D01*
X90022Y35226D01*
X90162Y34993D01*
X90209Y34726D01*
X90162Y34459D01*
X90045Y34259D01*
X89835Y34159D01*
X89275D01*
G01X91742Y33326D02*
Y35326D01*
X91462Y34926D01*
G01Y33326D02*
X92022D01*
G01X93742Y35326D02*
X93555Y35259D01*
X93415Y35093D01*
X93322Y34893D01*
X93252Y34626D01*
X93229Y34326D01*
X93252Y34026D01*
X93322Y33759D01*
X93415Y33559D01*
X93555Y33393D01*
X93742Y33326D01*
X93929Y33393D01*
X94069Y33559D01*
X94162Y33759D01*
X94232Y34026D01*
X94255Y34326D01*
X94232Y34626D01*
X94162Y34893D01*
X94069Y35093D01*
X93929Y35259D01*
X93742Y35326D01*
G01X90976Y115990D02*
Y114557D01*
X91069Y114257D01*
X91256Y114057D01*
X91489Y113990D01*
X91722Y114057D01*
X91909Y114257D01*
X92002Y114557D01*
Y115990D01*
G01X93489Y113990D02*
Y115990D01*
X93209Y115590D01*
G01Y113990D02*
X93769D01*
G01X90677Y143113D02*
Y145113D01*
X90397Y144713D01*
G01Y143113D02*
X90957D01*
G01X92164Y143513D02*
X92304Y143280D01*
X92490Y143146D01*
X92700Y143113D01*
X92887Y143146D01*
X93074Y143313D01*
X93190Y143513D01*
X93214Y143713D01*
X93167Y143946D01*
X93004Y144113D01*
X92840Y144180D01*
X92630D01*
G01X92840D02*
X92980Y144280D01*
X93097Y144446D01*
X93144Y144646D01*
X93097Y144846D01*
X92980Y145013D01*
X92770Y145113D01*
X92560Y145080D01*
X92350Y144946D01*
G01X89102Y143113D02*
Y145113D01*
X88822Y144713D01*
G01Y143113D02*
X89382D01*
G01X90659Y144780D02*
X90799Y144980D01*
X90962Y145080D01*
X91149Y145113D01*
X91382Y145046D01*
X91545Y144880D01*
X91592Y144680D01*
X91569Y144480D01*
X91475Y144313D01*
X91009Y143980D01*
X90799Y143746D01*
X90659Y143413D01*
X90612Y143113D01*
X91592D01*
G01X87134D02*
Y145113D01*
X86854Y144713D01*
G01Y143113D02*
X87414D01*
G01X89134D02*
Y145113D01*
X88854Y144713D01*
G01Y143113D02*
X89414D01*
G01X85165D02*
Y145113D01*
X84885Y144713D01*
G01Y143113D02*
X85445D01*
G01X87165Y145113D02*
X86978Y145046D01*
X86838Y144880D01*
X86745Y144680D01*
X86675Y144413D01*
X86652Y144113D01*
X86675Y143813D01*
X86745Y143546D01*
X86838Y143346D01*
X86978Y143180D01*
X87165Y143113D01*
X87352Y143180D01*
X87492Y143346D01*
X87585Y143546D01*
X87655Y143813D01*
X87678Y144113D01*
X87655Y144413D01*
X87585Y144680D01*
X87492Y144880D01*
X87352Y145046D01*
X87165Y145113D01*
G01X82406Y143739D02*
X82570Y143573D01*
X82756Y143506D01*
X82943Y143573D01*
X83106Y143773D01*
X83223Y144073D01*
X83270Y144373D01*
Y144739D01*
X83223Y145039D01*
X83106Y145306D01*
X82966Y145439D01*
X82803Y145506D01*
X82616Y145439D01*
X82476Y145306D01*
X82383Y145106D01*
X82336Y144839D01*
X82383Y144606D01*
X82500Y144373D01*
X82640Y144239D01*
X82803Y144206D01*
X82990Y144273D01*
X83130Y144439D01*
X83270Y144739D01*
G01X80835Y143506D02*
X80998Y143539D01*
X81185Y143639D01*
X81302Y143806D01*
X81348Y144039D01*
X81302Y144273D01*
X81162Y144473D01*
X80952Y144573D01*
X80718D01*
X80578Y144639D01*
X80462Y144806D01*
X80415Y145039D01*
X80485Y145273D01*
X80648Y145439D01*
X80835Y145506D01*
X81022Y145439D01*
X81185Y145273D01*
X81255Y145039D01*
X81208Y144806D01*
X81092Y144639D01*
X80952Y144573D01*
X80718D01*
X80508Y144473D01*
X80368Y144273D01*
X80322Y144039D01*
X80368Y143806D01*
X80485Y143639D01*
X80672Y143539D01*
X80835Y143506D01*
G01X78819D02*
X78866Y143939D01*
X78936Y144306D01*
X79029Y144639D01*
X79146Y145006D01*
X79333Y145506D01*
X78399D01*
G01X76455Y144339D02*
X76618Y144573D01*
X76758Y144706D01*
X76945Y144773D01*
X77108Y144706D01*
X77225Y144573D01*
X77318Y144373D01*
X77341Y144139D01*
X77318Y143939D01*
X77225Y143739D01*
X77085Y143573D01*
X76921Y143506D01*
X76735Y143573D01*
X76571Y143773D01*
X76478Y144073D01*
X76455Y144406D01*
X76501Y144839D01*
X76571Y145073D01*
X76688Y145306D01*
X76851Y145473D01*
X77015Y145506D01*
X77178Y145439D01*
X77295Y145273D01*
G01X92460Y182764D02*
X90460D01*
Y183348D01*
X90560Y183534D01*
X90693Y183651D01*
X90960Y183698D01*
X91227Y183651D01*
X91393Y183511D01*
X91493Y183348D01*
Y182764D01*
G01Y183348D02*
X92460Y183698D01*
G01Y185231D02*
X90460D01*
X90860Y184951D01*
G01X92460D02*
Y185511D01*
G01Y187184D02*
X92027Y187231D01*
X91660Y187301D01*
X91327Y187394D01*
X90960Y187511D01*
X90460Y187698D01*
Y186764D01*
G01X88159Y182764D02*
X86159D01*
Y183348D01*
X86259Y183534D01*
X86392Y183651D01*
X86659Y183698D01*
X86926Y183651D01*
X87092Y183511D01*
X87192Y183348D01*
Y182764D01*
G01Y183348D02*
X88159Y183698D01*
G01Y185231D02*
X86159D01*
X86559Y184951D01*
G01X88159D02*
Y185511D01*
G01X87326Y186788D02*
X87092Y186951D01*
X86959Y187091D01*
X86892Y187278D01*
X86959Y187441D01*
X87092Y187558D01*
X87292Y187651D01*
X87526Y187674D01*
X87726Y187651D01*
X87926Y187558D01*
X88092Y187418D01*
X88159Y187254D01*
X88092Y187068D01*
X87892Y186904D01*
X87592Y186811D01*
X87259Y186788D01*
X86826Y186834D01*
X86592Y186904D01*
X86359Y187021D01*
X86192Y187184D01*
X86159Y187348D01*
X86226Y187511D01*
X86392Y187628D01*
G01X83918Y182764D02*
X81918D01*
Y183348D01*
X82018Y183534D01*
X82151Y183651D01*
X82418Y183698D01*
X82685Y183651D01*
X82851Y183511D01*
X82951Y183348D01*
Y182764D01*
G01Y183348D02*
X83918Y183698D01*
G01Y185231D02*
X81918D01*
X82318Y184951D01*
G01X83918D02*
Y185511D01*
G01X83618Y186718D02*
X83785Y186858D01*
X83885Y187021D01*
X83918Y187231D01*
X83851Y187441D01*
X83718Y187604D01*
X83485Y187721D01*
X83218Y187744D01*
X82951Y187698D01*
X82785Y187581D01*
X82651Y187418D01*
X82618Y187254D01*
X82651Y187091D01*
X82785Y186881D01*
X81918Y186951D01*
Y187581D01*
G01X79761Y182764D02*
X77761D01*
Y183348D01*
X77861Y183534D01*
X77994Y183651D01*
X78261Y183698D01*
X78528Y183651D01*
X78694Y183511D01*
X78794Y183348D01*
Y182764D01*
G01Y183348D02*
X79761Y183698D01*
G01Y185231D02*
X77761D01*
X78161Y184951D01*
G01X79761D02*
Y185511D01*
G01Y187511D02*
X77761D01*
X79194Y186648D01*
Y187814D01*
G01X94690Y8858D02*
X94807Y8658D01*
X94947Y8525D01*
X95110Y8458D01*
X95297Y8525D01*
X95437Y8658D01*
X95577Y8858D01*
X95624Y9125D01*
Y10458D01*
G01X96714Y9291D02*
X96877Y9525D01*
X97017Y9658D01*
X97204Y9725D01*
X97367Y9658D01*
X97484Y9525D01*
X97577Y9325D01*
X97600Y9091D01*
X97577Y8891D01*
X97484Y8691D01*
X97344Y8525D01*
X97180Y8458D01*
X96994Y8525D01*
X96830Y8725D01*
X96737Y9025D01*
X96714Y9358D01*
X96760Y9791D01*
X96830Y10025D01*
X96947Y10258D01*
X97110Y10425D01*
X97274Y10458D01*
X97437Y10391D01*
X97554Y10225D01*
G01X96689Y35490D02*
Y33490D01*
G01X96152Y35490D02*
X97226D01*
G01X98222Y33490D02*
Y35490D01*
X98782D01*
X98969Y35390D01*
X99109Y35157D01*
X99156Y34890D01*
X99109Y34623D01*
X98992Y34423D01*
X98782Y34323D01*
X98222D01*
G01X100969Y33490D02*
Y35490D01*
X100106Y34057D01*
X101272D01*
G01X102176Y33790D02*
X102316Y33623D01*
X102479Y33523D01*
X102689Y33490D01*
X102899Y33557D01*
X103062Y33690D01*
X103179Y33923D01*
X103202Y34190D01*
X103156Y34457D01*
X103039Y34623D01*
X102876Y34757D01*
X102712Y34790D01*
X102549Y34757D01*
X102339Y34623D01*
X102409Y35490D01*
X103039D01*
G01X107591Y43291D02*
X107731Y43491D01*
X107894Y43591D01*
X108081Y43624D01*
X108314Y43557D01*
X108477Y43391D01*
X108524Y43191D01*
X108501Y42991D01*
X108407Y42824D01*
X107941Y42491D01*
X107731Y42257D01*
X107591Y41924D01*
X107544Y41624D01*
X108524D01*
G01X110034Y43624D02*
X109847Y43557D01*
X109707Y43391D01*
X109614Y43191D01*
X109544Y42924D01*
X109521Y42624D01*
X109544Y42324D01*
X109614Y42057D01*
X109707Y41857D01*
X109847Y41691D01*
X110034Y41624D01*
X110221Y41691D01*
X110361Y41857D01*
X110454Y42057D01*
X110524Y42324D01*
X110547Y42624D01*
X110524Y42924D01*
X110454Y43191D01*
X110361Y43391D01*
X110221Y43557D01*
X110034Y43624D01*
G01X112034Y41624D02*
Y43624D01*
X111754Y43224D01*
G01Y41624D02*
X112314D01*
G01X113637Y41857D02*
X113801Y41691D01*
X113987Y41624D01*
X114174Y41691D01*
X114337Y41891D01*
X114454Y42191D01*
X114501Y42491D01*
Y42857D01*
X114454Y43157D01*
X114337Y43424D01*
X114197Y43557D01*
X114034Y43624D01*
X113847Y43557D01*
X113707Y43424D01*
X113614Y43224D01*
X113567Y42957D01*
X113614Y42724D01*
X113731Y42491D01*
X113871Y42357D01*
X114034Y42324D01*
X114221Y42391D01*
X114361Y42557D01*
X114501Y42857D01*
G01X117497Y41624D02*
Y43624D01*
X118571Y41624D01*
Y43624D01*
G01X119544Y41624D02*
X120524Y43624D01*
G01X119544D02*
X120524Y41624D01*
G01X121567D02*
Y43624D01*
X122127D01*
X122314Y43524D01*
X122454Y43291D01*
X122501Y43024D01*
X122454Y42757D01*
X122337Y42557D01*
X122127Y42457D01*
X121567D01*
G01X126221Y42691D02*
X126314Y42791D01*
X126384Y42957D01*
X126431Y43191D01*
X126384Y43391D01*
X126291Y43524D01*
X126127Y43624D01*
X125497D01*
Y41624D01*
X126267D01*
X126431Y41757D01*
X126524Y41957D01*
X126571Y42191D01*
X126524Y42424D01*
X126384Y42624D01*
X126221Y42691D01*
X125497D01*
G01X128034Y41557D02*
X127987Y41591D01*
Y41657D01*
X128034Y41691D01*
X128081Y41657D01*
Y41591D01*
X128034Y41557D01*
G01X129451Y43624D02*
X130034Y41624D01*
X130617Y43624D01*
G01X132034Y41557D02*
X131987Y41591D01*
Y41657D01*
X132034Y41691D01*
X132081Y41657D01*
Y41591D01*
X132034Y41557D01*
G01X108344Y144780D02*
X108484Y144980D01*
X108647Y145080D01*
X108834Y145113D01*
X109067Y145046D01*
X109230Y144880D01*
X109277Y144680D01*
X109254Y144480D01*
X109160Y144313D01*
X108694Y143980D01*
X108484Y143746D01*
X108344Y143413D01*
X108297Y143113D01*
X109277D01*
G01X110344Y144780D02*
X110484Y144980D01*
X110647Y145080D01*
X110834Y145113D01*
X111067Y145046D01*
X111230Y144880D01*
X111277Y144680D01*
X111254Y144480D01*
X111160Y144313D01*
X110694Y143980D01*
X110484Y143746D01*
X110344Y143413D01*
X110297Y143113D01*
X111277D01*
G01X106376Y144780D02*
X106516Y144980D01*
X106679Y145080D01*
X106866Y145113D01*
X107099Y145046D01*
X107262Y144880D01*
X107309Y144680D01*
X107286Y144480D01*
X107192Y144313D01*
X106726Y143980D01*
X106516Y143746D01*
X106376Y143413D01*
X106329Y143113D01*
X107309D01*
G01X108819D02*
Y145113D01*
X108539Y144713D01*
G01Y143113D02*
X109099D01*
G01X104407Y144780D02*
X104547Y144980D01*
X104710Y145080D01*
X104897Y145113D01*
X105130Y145046D01*
X105293Y144880D01*
X105340Y144680D01*
X105317Y144480D01*
X105223Y144313D01*
X104757Y143980D01*
X104547Y143746D01*
X104407Y143413D01*
X104360Y143113D01*
X105340D01*
G01X106850Y145113D02*
X106663Y145046D01*
X106523Y144880D01*
X106430Y144680D01*
X106360Y144413D01*
X106337Y144113D01*
X106360Y143813D01*
X106430Y143546D01*
X106523Y143346D01*
X106663Y143180D01*
X106850Y143113D01*
X107037Y143180D01*
X107177Y143346D01*
X107270Y143546D01*
X107340Y143813D01*
X107363Y144113D01*
X107340Y144413D01*
X107270Y144680D01*
X107177Y144880D01*
X107037Y145046D01*
X106850Y145113D01*
G01X102882Y143113D02*
Y145113D01*
X102602Y144713D01*
G01Y143113D02*
X103162D01*
G01X104485Y143346D02*
X104649Y143180D01*
X104835Y143113D01*
X105022Y143180D01*
X105185Y143380D01*
X105302Y143680D01*
X105349Y143980D01*
Y144346D01*
X105302Y144646D01*
X105185Y144913D01*
X105045Y145046D01*
X104882Y145113D01*
X104695Y145046D01*
X104555Y144913D01*
X104462Y144713D01*
X104415Y144446D01*
X104462Y144213D01*
X104579Y143980D01*
X104719Y143846D01*
X104882Y143813D01*
X105069Y143880D01*
X105209Y144046D01*
X105349Y144346D01*
G01X100913Y143113D02*
Y145113D01*
X100633Y144713D01*
G01Y143113D02*
X101193D01*
G01X102913D02*
X103076Y143146D01*
X103263Y143246D01*
X103380Y143413D01*
X103426Y143646D01*
X103380Y143880D01*
X103240Y144080D01*
X103030Y144180D01*
X102796D01*
X102656Y144246D01*
X102540Y144413D01*
X102493Y144646D01*
X102563Y144880D01*
X102726Y145046D01*
X102913Y145113D01*
X103100Y145046D01*
X103263Y144880D01*
X103333Y144646D01*
X103286Y144413D01*
X103170Y144246D01*
X103030Y144180D01*
X102796D01*
X102586Y144080D01*
X102446Y143880D01*
X102400Y143646D01*
X102446Y143413D01*
X102563Y143246D01*
X102750Y143146D01*
X102913Y143113D01*
G01X98945D02*
Y145113D01*
X98665Y144713D01*
G01Y143113D02*
X99225D01*
G01X100898D02*
X100945Y143546D01*
X101015Y143913D01*
X101108Y144246D01*
X101225Y144613D01*
X101412Y145113D01*
X100478D01*
G01X96976Y143113D02*
Y145113D01*
X96696Y144713D01*
G01Y143113D02*
X97256D01*
G01X98533Y143946D02*
X98696Y144180D01*
X98836Y144313D01*
X99023Y144380D01*
X99186Y144313D01*
X99303Y144180D01*
X99396Y143980D01*
X99419Y143746D01*
X99396Y143546D01*
X99303Y143346D01*
X99163Y143180D01*
X98999Y143113D01*
X98813Y143180D01*
X98649Y143380D01*
X98556Y143680D01*
X98533Y144013D01*
X98579Y144446D01*
X98649Y144680D01*
X98766Y144913D01*
X98929Y145080D01*
X99093Y145113D01*
X99256Y145046D01*
X99373Y144880D01*
G01X95008Y143113D02*
Y145113D01*
X94728Y144713D01*
G01Y143113D02*
X95288D01*
G01X96495Y143413D02*
X96635Y143246D01*
X96798Y143146D01*
X97008Y143113D01*
X97218Y143180D01*
X97381Y143313D01*
X97498Y143546D01*
X97521Y143813D01*
X97475Y144080D01*
X97358Y144246D01*
X97195Y144380D01*
X97031Y144413D01*
X96868Y144380D01*
X96658Y144246D01*
X96728Y145113D01*
X97358D01*
G01X93039Y143113D02*
Y145113D01*
X92759Y144713D01*
G01Y143113D02*
X93319D01*
G01X95319D02*
Y145113D01*
X94456Y143680D01*
X95622D01*
G01X113522Y32490D02*
Y34490D01*
X114106D01*
X114292Y34390D01*
X114409Y34257D01*
X114456Y33990D01*
X114409Y33723D01*
X114269Y33557D01*
X114106Y33457D01*
X113522D01*
G01X114106D02*
X114456Y32490D01*
G01X115989D02*
Y34490D01*
X115709Y34090D01*
G01Y32490D02*
X116269D01*
G01X117989D02*
Y34490D01*
X117709Y34090D01*
G01Y32490D02*
X118269D01*
G01X119546Y33323D02*
X119709Y33557D01*
X119849Y33690D01*
X120036Y33757D01*
X120199Y33690D01*
X120316Y33557D01*
X120409Y33357D01*
X120432Y33123D01*
X120409Y32923D01*
X120316Y32723D01*
X120176Y32557D01*
X120012Y32490D01*
X119826Y32557D01*
X119662Y32757D01*
X119569Y33057D01*
X119546Y33390D01*
X119592Y33823D01*
X119662Y34057D01*
X119779Y34290D01*
X119942Y34457D01*
X120106Y34490D01*
X120269Y34423D01*
X120386Y34257D01*
G01X125886Y126702D02*
Y124702D01*
G01X125349Y126702D02*
X126423D01*
G01X127419Y124702D02*
Y126702D01*
X127979D01*
X128166Y126602D01*
X128306Y126369D01*
X128353Y126102D01*
X128306Y125835D01*
X128189Y125635D01*
X127979Y125535D01*
X127419D01*
G01X129443Y126369D02*
X129583Y126569D01*
X129746Y126669D01*
X129933Y126702D01*
X130166Y126635D01*
X130329Y126469D01*
X130376Y126269D01*
X130353Y126069D01*
X130259Y125902D01*
X129793Y125569D01*
X129583Y125335D01*
X129443Y125002D01*
X129396Y124702D01*
X130376D01*
G01X131886D02*
Y126702D01*
X131606Y126302D01*
G01Y124702D02*
X132166D01*
G01X118187Y144780D02*
X118327Y144980D01*
X118490Y145080D01*
X118677Y145113D01*
X118910Y145046D01*
X119073Y144880D01*
X119120Y144680D01*
X119097Y144480D01*
X119003Y144313D01*
X118537Y143980D01*
X118327Y143746D01*
X118187Y143413D01*
X118140Y143113D01*
X119120D01*
G01X120583D02*
X120630Y143546D01*
X120700Y143913D01*
X120793Y144246D01*
X120910Y144613D01*
X121097Y145113D01*
X120163D01*
G01X116218Y144780D02*
X116358Y144980D01*
X116521Y145080D01*
X116708Y145113D01*
X116941Y145046D01*
X117104Y144880D01*
X117151Y144680D01*
X117128Y144480D01*
X117034Y144313D01*
X116568Y143980D01*
X116358Y143746D01*
X116218Y143413D01*
X116171Y143113D01*
X117151D01*
G01X118218Y143946D02*
X118381Y144180D01*
X118521Y144313D01*
X118708Y144380D01*
X118871Y144313D01*
X118988Y144180D01*
X119081Y143980D01*
X119104Y143746D01*
X119081Y143546D01*
X118988Y143346D01*
X118848Y143180D01*
X118684Y143113D01*
X118498Y143180D01*
X118334Y143380D01*
X118241Y143680D01*
X118218Y144013D01*
X118264Y144446D01*
X118334Y144680D01*
X118451Y144913D01*
X118614Y145080D01*
X118778Y145113D01*
X118941Y145046D01*
X119058Y144880D01*
G01X114250Y144780D02*
X114390Y144980D01*
X114553Y145080D01*
X114740Y145113D01*
X114973Y145046D01*
X115136Y144880D01*
X115183Y144680D01*
X115160Y144480D01*
X115066Y144313D01*
X114600Y143980D01*
X114390Y143746D01*
X114250Y143413D01*
X114203Y143113D01*
X115183D01*
G01X116180Y143413D02*
X116320Y143246D01*
X116483Y143146D01*
X116693Y143113D01*
X116903Y143180D01*
X117066Y143313D01*
X117183Y143546D01*
X117206Y143813D01*
X117160Y144080D01*
X117043Y144246D01*
X116880Y144380D01*
X116716Y144413D01*
X116553Y144380D01*
X116343Y144246D01*
X116413Y145113D01*
X117043D01*
G01X112281Y144780D02*
X112421Y144980D01*
X112584Y145080D01*
X112771Y145113D01*
X113004Y145046D01*
X113167Y144880D01*
X113214Y144680D01*
X113191Y144480D01*
X113097Y144313D01*
X112631Y143980D01*
X112421Y143746D01*
X112281Y143413D01*
X112234Y143113D01*
X113214D01*
G01X115004D02*
Y145113D01*
X114141Y143680D01*
X115307D01*
G01X110313Y144780D02*
X110453Y144980D01*
X110616Y145080D01*
X110803Y145113D01*
X111036Y145046D01*
X111199Y144880D01*
X111246Y144680D01*
X111223Y144480D01*
X111129Y144313D01*
X110663Y143980D01*
X110453Y143746D01*
X110313Y143413D01*
X110266Y143113D01*
X111246D01*
G01X112243Y143513D02*
X112383Y143280D01*
X112569Y143146D01*
X112779Y143113D01*
X112966Y143146D01*
X113153Y143313D01*
X113269Y143513D01*
X113293Y143713D01*
X113246Y143946D01*
X113083Y144113D01*
X112919Y144180D01*
X112709D01*
G01X112919D02*
X113059Y144280D01*
X113176Y144446D01*
X113223Y144646D01*
X113176Y144846D01*
X113059Y145013D01*
X112849Y145113D01*
X112639Y145080D01*
X112429Y144946D01*
G01X119384Y157084D02*
Y155084D01*
G01X118847Y157084D02*
X119921D01*
G01X120917Y155084D02*
Y157084D01*
X121477D01*
X121664Y156984D01*
X121804Y156751D01*
X121851Y156484D01*
X121804Y156217D01*
X121687Y156017D01*
X121477Y155917D01*
X120917D01*
G01X123337Y155084D02*
X123384Y155517D01*
X123454Y155884D01*
X123547Y156217D01*
X123664Y156584D01*
X123851Y157084D01*
X122917D01*
G01X119489Y162490D02*
Y160490D01*
G01X118952Y162490D02*
X120026D01*
G01X121022Y160490D02*
Y162490D01*
X121582D01*
X121769Y162390D01*
X121909Y162157D01*
X121956Y161890D01*
X121909Y161623D01*
X121792Y161423D01*
X121582Y161323D01*
X121022D01*
G01X123092Y160723D02*
X123256Y160557D01*
X123442Y160490D01*
X123629Y160557D01*
X123792Y160757D01*
X123909Y161057D01*
X123956Y161357D01*
Y161723D01*
X123909Y162023D01*
X123792Y162290D01*
X123652Y162423D01*
X123489Y162490D01*
X123302Y162423D01*
X123162Y162290D01*
X123069Y162090D01*
X123022Y161823D01*
X123069Y161590D01*
X123186Y161357D01*
X123326Y161223D01*
X123489Y161190D01*
X123676Y161257D01*
X123816Y161423D01*
X123956Y161723D01*
G01X124688Y158605D02*
Y160605D01*
X125272D01*
X125458Y160505D01*
X125575Y160372D01*
X125622Y160105D01*
X125575Y159838D01*
X125435Y159672D01*
X125272Y159572D01*
X124688D01*
G01X125272D02*
X125622Y158605D01*
G01X126712Y160272D02*
X126852Y160472D01*
X127015Y160572D01*
X127202Y160605D01*
X127435Y160538D01*
X127598Y160372D01*
X127645Y160172D01*
X127622Y159972D01*
X127528Y159805D01*
X127062Y159472D01*
X126852Y159238D01*
X126712Y158905D01*
X126665Y158605D01*
X127645D01*
G01X129155D02*
Y160605D01*
X128875Y160205D01*
G01Y158605D02*
X129435D01*
G01X124722Y162990D02*
Y164990D01*
X125306D01*
X125492Y164890D01*
X125609Y164757D01*
X125656Y164490D01*
X125609Y164223D01*
X125469Y164057D01*
X125306Y163957D01*
X124722D01*
G01X125306D02*
X125656Y162990D01*
G01X126746Y164657D02*
X126886Y164857D01*
X127049Y164957D01*
X127236Y164990D01*
X127469Y164923D01*
X127632Y164757D01*
X127679Y164557D01*
X127656Y164357D01*
X127562Y164190D01*
X127096Y163857D01*
X126886Y163623D01*
X126746Y163290D01*
X126699Y162990D01*
X127679D01*
G01X129189Y164990D02*
X129002Y164923D01*
X128862Y164757D01*
X128769Y164557D01*
X128699Y164290D01*
X128676Y163990D01*
X128699Y163690D01*
X128769Y163423D01*
X128862Y163223D01*
X129002Y163057D01*
X129189Y162990D01*
X129376Y163057D01*
X129516Y163223D01*
X129609Y163423D01*
X129679Y163690D01*
X129702Y163990D01*
X129679Y164290D01*
X129609Y164557D01*
X129516Y164757D01*
X129376Y164923D01*
X129189Y164990D01*
G01X125900Y184733D02*
X123900D01*
Y185317D01*
X124000Y185503D01*
X124133Y185620D01*
X124400Y185667D01*
X124667Y185620D01*
X124833Y185480D01*
X124933Y185317D01*
Y184733D01*
G01Y185317D02*
X125900Y185667D01*
G01Y187200D02*
X123900D01*
X124300Y186920D01*
G01X125900D02*
Y187480D01*
G01X125500Y188687D02*
X125733Y188827D01*
X125867Y189013D01*
X125900Y189223D01*
X125867Y189410D01*
X125700Y189597D01*
X125500Y189713D01*
X125300Y189737D01*
X125067Y189690D01*
X124900Y189527D01*
X124833Y189363D01*
Y189153D01*
G01Y189363D02*
X124733Y189503D01*
X124567Y189620D01*
X124367Y189667D01*
X124167Y189620D01*
X124000Y189503D01*
X123900Y189293D01*
X123933Y189083D01*
X124067Y188873D01*
G01X125600Y190687D02*
X125767Y190827D01*
X125867Y190990D01*
X125900Y191200D01*
X125833Y191410D01*
X125700Y191573D01*
X125467Y191690D01*
X125200Y191713D01*
X124933Y191667D01*
X124767Y191550D01*
X124633Y191387D01*
X124600Y191223D01*
X124633Y191060D01*
X124767Y190850D01*
X123900Y190920D01*
Y191550D01*
G01X116200Y184333D02*
X114200D01*
Y184917D01*
X114300Y185103D01*
X114433Y185220D01*
X114700Y185267D01*
X114967Y185220D01*
X115133Y185080D01*
X115233Y184917D01*
Y184333D01*
G01Y184917D02*
X116200Y185267D01*
G01Y186800D02*
X114200D01*
X114600Y186520D01*
G01X116200D02*
Y187080D01*
G01X115800Y188287D02*
X116033Y188427D01*
X116167Y188613D01*
X116200Y188823D01*
X116167Y189010D01*
X116000Y189197D01*
X115800Y189313D01*
X115600Y189337D01*
X115367Y189290D01*
X115200Y189127D01*
X115133Y188963D01*
Y188753D01*
G01Y188963D02*
X115033Y189103D01*
X114867Y189220D01*
X114667Y189267D01*
X114467Y189220D01*
X114300Y189103D01*
X114200Y188893D01*
X114233Y188683D01*
X114367Y188473D01*
G01X116200Y191080D02*
X114200D01*
X115633Y190217D01*
Y191383D01*
G01X140389Y110690D02*
Y108690D01*
G01X139852Y110690D02*
X140926D01*
G01X141922Y108690D02*
Y110690D01*
X142482D01*
X142669Y110590D01*
X142809Y110357D01*
X142856Y110090D01*
X142809Y109823D01*
X142692Y109623D01*
X142482Y109523D01*
X141922D01*
G01X143876Y109090D02*
X144016Y108857D01*
X144202Y108723D01*
X144412Y108690D01*
X144599Y108723D01*
X144786Y108890D01*
X144902Y109090D01*
X144926Y109290D01*
X144879Y109523D01*
X144716Y109690D01*
X144552Y109757D01*
X144342D01*
G01X144552D02*
X144692Y109857D01*
X144809Y110023D01*
X144856Y110223D01*
X144809Y110423D01*
X144692Y110590D01*
X144482Y110690D01*
X144272Y110657D01*
X144062Y110523D01*
G01X146669Y108690D02*
Y110690D01*
X145806Y109257D01*
X146972D01*
G01X135039Y114993D02*
Y112993D01*
G01X134502Y114993D02*
X135576D01*
G01X136572Y112993D02*
Y114993D01*
X137132D01*
X137319Y114893D01*
X137459Y114660D01*
X137506Y114393D01*
X137459Y114126D01*
X137342Y113926D01*
X137132Y113826D01*
X136572D01*
G01X138526Y113393D02*
X138666Y113160D01*
X138852Y113026D01*
X139062Y112993D01*
X139249Y113026D01*
X139436Y113193D01*
X139552Y113393D01*
X139576Y113593D01*
X139529Y113826D01*
X139366Y113993D01*
X139202Y114060D01*
X138992D01*
G01X139202D02*
X139342Y114160D01*
X139459Y114326D01*
X139506Y114526D01*
X139459Y114726D01*
X139342Y114893D01*
X139132Y114993D01*
X138922Y114960D01*
X138712Y114826D01*
G01X140526Y113293D02*
X140666Y113126D01*
X140829Y113026D01*
X141039Y112993D01*
X141249Y113060D01*
X141412Y113193D01*
X141529Y113426D01*
X141552Y113693D01*
X141506Y113960D01*
X141389Y114126D01*
X141226Y114260D01*
X141062Y114293D01*
X140899Y114260D01*
X140689Y114126D01*
X140759Y114993D01*
X141389D01*
G01X137557Y126614D02*
Y124614D01*
G01X137020Y126614D02*
X138094D01*
G01X139090Y124614D02*
Y126614D01*
X139650D01*
X139837Y126514D01*
X139977Y126281D01*
X140024Y126014D01*
X139977Y125747D01*
X139860Y125547D01*
X139650Y125447D01*
X139090D01*
G01X141557Y124614D02*
Y126614D01*
X141277Y126214D01*
G01Y124614D02*
X141837D01*
G01X143160Y124847D02*
X143324Y124681D01*
X143510Y124614D01*
X143697Y124681D01*
X143860Y124881D01*
X143977Y125181D01*
X144024Y125481D01*
Y125847D01*
X143977Y126147D01*
X143860Y126414D01*
X143720Y126547D01*
X143557Y126614D01*
X143370Y126547D01*
X143230Y126414D01*
X143137Y126214D01*
X143090Y125947D01*
X143137Y125714D01*
X143254Y125481D01*
X143394Y125347D01*
X143557Y125314D01*
X143744Y125381D01*
X143884Y125547D01*
X144024Y125847D01*
G01X131128Y144391D02*
X129128D01*
Y144975D01*
X129228Y145161D01*
X129361Y145278D01*
X129628Y145325D01*
X129895Y145278D01*
X130061Y145138D01*
X130161Y144975D01*
Y144391D01*
G01Y144975D02*
X131128Y145325D01*
G01X129461Y146415D02*
X129261Y146555D01*
X129161Y146718D01*
X129128Y146905D01*
X129195Y147138D01*
X129361Y147301D01*
X129561Y147348D01*
X129761Y147325D01*
X129928Y147231D01*
X130261Y146765D01*
X130495Y146555D01*
X130828Y146415D01*
X131128Y146368D01*
Y147348D01*
G01X130295Y148415D02*
X130061Y148578D01*
X129928Y148718D01*
X129861Y148905D01*
X129928Y149068D01*
X130061Y149185D01*
X130261Y149278D01*
X130495Y149301D01*
X130695Y149278D01*
X130895Y149185D01*
X131061Y149045D01*
X131128Y148881D01*
X131061Y148695D01*
X130861Y148531D01*
X130561Y148438D01*
X130228Y148415D01*
X129795Y148461D01*
X129561Y148531D01*
X129328Y148648D01*
X129161Y148811D01*
X129128Y148975D01*
X129195Y149138D01*
X129361Y149255D01*
G01X132197Y138215D02*
X132097Y138075D01*
X132030Y137912D01*
Y137725D01*
X132130Y137515D01*
X132297Y137352D01*
X132497Y137235D01*
X132830Y137142D01*
X133130Y137119D01*
X133430Y137165D01*
X133630Y137235D01*
X133830Y137375D01*
X133963Y137539D01*
X134030Y137702D01*
Y137865D01*
X133963Y138029D01*
X133863Y138169D01*
X133730Y138285D01*
G01X134030Y139702D02*
X132030D01*
X132430Y139422D01*
G01X134030D02*
Y139982D01*
G01X132363Y141259D02*
X132163Y141399D01*
X132063Y141562D01*
X132030Y141749D01*
X132097Y141982D01*
X132263Y142145D01*
X132463Y142192D01*
X132663Y142169D01*
X132830Y142075D01*
X133163Y141609D01*
X133397Y141399D01*
X133730Y141259D01*
X134030Y141212D01*
Y142192D01*
G01Y143982D02*
X132030D01*
X133463Y143119D01*
Y144285D01*
G01X140469Y131840D02*
Y129840D01*
G01X139932Y131840D02*
X141006D01*
G01X142002Y129840D02*
Y131840D01*
X142562D01*
X142749Y131740D01*
X142889Y131507D01*
X142936Y131240D01*
X142889Y130973D01*
X142772Y130773D01*
X142562Y130673D01*
X142002D01*
G01X144026Y131507D02*
X144166Y131707D01*
X144329Y131807D01*
X144516Y131840D01*
X144749Y131773D01*
X144912Y131607D01*
X144959Y131407D01*
X144936Y131207D01*
X144842Y131040D01*
X144376Y130707D01*
X144166Y130473D01*
X144026Y130140D01*
X143979Y129840D01*
X144959D01*
G01X146469Y131840D02*
X146282Y131773D01*
X146142Y131607D01*
X146049Y131407D01*
X145979Y131140D01*
X145956Y130840D01*
X145979Y130540D01*
X146049Y130273D01*
X146142Y130073D01*
X146282Y129907D01*
X146469Y129840D01*
X146656Y129907D01*
X146796Y130073D01*
X146889Y130273D01*
X146959Y130540D01*
X146982Y130840D01*
X146959Y131140D01*
X146889Y131407D01*
X146796Y131607D01*
X146656Y131773D01*
X146469Y131840D01*
G01X126989Y136490D02*
Y134490D01*
G01X126452Y136490D02*
X127526D01*
G01X128522Y134490D02*
Y136490D01*
X129082D01*
X129269Y136390D01*
X129409Y136157D01*
X129456Y135890D01*
X129409Y135623D01*
X129292Y135423D01*
X129082Y135323D01*
X128522D01*
G01X130476Y134790D02*
X130616Y134623D01*
X130779Y134523D01*
X130989Y134490D01*
X131199Y134557D01*
X131362Y134690D01*
X131479Y134923D01*
X131502Y135190D01*
X131456Y135457D01*
X131339Y135623D01*
X131176Y135757D01*
X131012Y135790D01*
X130849Y135757D01*
X130639Y135623D01*
X130709Y136490D01*
X131339D01*
G01X143889Y136890D02*
Y134890D01*
G01X143352Y136890D02*
X144426D01*
G01X145422Y134890D02*
Y136890D01*
X145982D01*
X146169Y136790D01*
X146309Y136557D01*
X146356Y136290D01*
X146309Y136023D01*
X146192Y135823D01*
X145982Y135723D01*
X145422D01*
G01X148169Y134890D02*
Y136890D01*
X147306Y135457D01*
X148472D01*
G01X132694Y130586D02*
Y128586D01*
G01X132157Y130586D02*
X133231D01*
G01X134227Y128586D02*
Y130586D01*
X134787D01*
X134974Y130486D01*
X135114Y130253D01*
X135161Y129986D01*
X135114Y129719D01*
X134997Y129519D01*
X134787Y129419D01*
X134227D01*
G01X136181Y128986D02*
X136321Y128753D01*
X136507Y128619D01*
X136717Y128586D01*
X136904Y128619D01*
X137091Y128786D01*
X137207Y128986D01*
X137231Y129186D01*
X137184Y129419D01*
X137021Y129586D01*
X136857Y129653D01*
X136647D01*
G01X136857D02*
X136997Y129753D01*
X137114Y129919D01*
X137161Y130119D01*
X137114Y130319D01*
X136997Y130486D01*
X136787Y130586D01*
X136577Y130553D01*
X136367Y130419D01*
G01X132789Y136290D02*
Y134290D01*
G01X132252Y136290D02*
X133326D01*
G01X134322Y134290D02*
Y136290D01*
X134882D01*
X135069Y136190D01*
X135209Y135957D01*
X135256Y135690D01*
X135209Y135423D01*
X135092Y135223D01*
X134882Y135123D01*
X134322D01*
G01X136346Y135957D02*
X136486Y136157D01*
X136649Y136257D01*
X136836Y136290D01*
X137069Y136223D01*
X137232Y136057D01*
X137279Y135857D01*
X137256Y135657D01*
X137162Y135490D01*
X136696Y135157D01*
X136486Y134923D01*
X136346Y134590D01*
X136299Y134290D01*
X137279D01*
G01X138289Y136790D02*
Y134790D01*
G01X137752Y136790D02*
X138826D01*
G01X139822Y134790D02*
Y136790D01*
X140382D01*
X140569Y136690D01*
X140709Y136457D01*
X140756Y136190D01*
X140709Y135923D01*
X140592Y135723D01*
X140382Y135623D01*
X139822D01*
G01X142289Y134790D02*
Y136790D01*
X142009Y136390D01*
G01Y134790D02*
X142569D01*
G01X140139Y159693D02*
Y157693D01*
G01X139602Y159693D02*
X140676D01*
G01X141672Y157693D02*
Y159693D01*
X142232D01*
X142419Y159593D01*
X142559Y159360D01*
X142606Y159093D01*
X142559Y158826D01*
X142442Y158626D01*
X142232Y158526D01*
X141672D01*
G01X143626Y158093D02*
X143766Y157860D01*
X143952Y157726D01*
X144162Y157693D01*
X144349Y157726D01*
X144536Y157893D01*
X144652Y158093D01*
X144676Y158293D01*
X144629Y158526D01*
X144466Y158693D01*
X144302Y158760D01*
X144092D01*
G01X144302D02*
X144442Y158860D01*
X144559Y159026D01*
X144606Y159226D01*
X144559Y159426D01*
X144442Y159593D01*
X144232Y159693D01*
X144022Y159660D01*
X143812Y159526D01*
G01X146139Y157693D02*
X146302Y157726D01*
X146489Y157826D01*
X146606Y157993D01*
X146652Y158226D01*
X146606Y158460D01*
X146466Y158660D01*
X146256Y158760D01*
X146022D01*
X145882Y158826D01*
X145766Y158993D01*
X145719Y159226D01*
X145789Y159460D01*
X145952Y159626D01*
X146139Y159693D01*
X146326Y159626D01*
X146489Y159460D01*
X146559Y159226D01*
X146512Y158993D01*
X146396Y158826D01*
X146256Y158760D01*
X146022D01*
X145812Y158660D01*
X145672Y158460D01*
X145626Y158226D01*
X145672Y157993D01*
X145789Y157826D01*
X145976Y157726D01*
X146139Y157693D01*
G01X130276Y159199D02*
Y157199D01*
G01X129739Y159199D02*
X130813D01*
G01X131809Y157199D02*
Y159199D01*
X132369D01*
X132556Y159099D01*
X132696Y158866D01*
X132743Y158599D01*
X132696Y158332D01*
X132579Y158132D01*
X132369Y158032D01*
X131809D01*
G01X133763Y157599D02*
X133903Y157366D01*
X134089Y157232D01*
X134299Y157199D01*
X134486Y157232D01*
X134673Y157399D01*
X134789Y157599D01*
X134813Y157799D01*
X134766Y158032D01*
X134603Y158199D01*
X134439Y158266D01*
X134229D01*
G01X134439D02*
X134579Y158366D01*
X134696Y158532D01*
X134743Y158732D01*
X134696Y158932D01*
X134579Y159099D01*
X134369Y159199D01*
X134159Y159166D01*
X133949Y159032D01*
G01X135879Y157432D02*
X136043Y157266D01*
X136229Y157199D01*
X136416Y157266D01*
X136579Y157466D01*
X136696Y157766D01*
X136743Y158066D01*
Y158432D01*
X136696Y158732D01*
X136579Y158999D01*
X136439Y159132D01*
X136276Y159199D01*
X136089Y159132D01*
X135949Y158999D01*
X135856Y158799D01*
X135809Y158532D01*
X135856Y158299D01*
X135973Y158066D01*
X136113Y157932D01*
X136276Y157899D01*
X136463Y157966D01*
X136603Y158132D01*
X136743Y158432D01*
G01X131835Y150237D02*
X131735Y150097D01*
X131668Y149934D01*
Y149747D01*
X131768Y149537D01*
X131935Y149374D01*
X132135Y149257D01*
X132468Y149164D01*
X132768Y149141D01*
X133068Y149187D01*
X133268Y149257D01*
X133468Y149397D01*
X133601Y149561D01*
X133668Y149724D01*
Y149887D01*
X133601Y150051D01*
X133501Y150191D01*
X133368Y150307D01*
G01X133668Y151724D02*
X131668D01*
X132068Y151444D01*
G01X133668D02*
Y152004D01*
G01X132001Y153281D02*
X131801Y153421D01*
X131701Y153584D01*
X131668Y153771D01*
X131735Y154004D01*
X131901Y154167D01*
X132101Y154214D01*
X132301Y154191D01*
X132468Y154097D01*
X132801Y153631D01*
X133035Y153421D01*
X133368Y153281D01*
X133668Y153234D01*
Y154214D01*
G01X133268Y155211D02*
X133501Y155351D01*
X133635Y155537D01*
X133668Y155747D01*
X133635Y155934D01*
X133468Y156121D01*
X133268Y156237D01*
X133068Y156261D01*
X132835Y156214D01*
X132668Y156051D01*
X132601Y155887D01*
Y155677D01*
G01Y155887D02*
X132501Y156027D01*
X132335Y156144D01*
X132135Y156191D01*
X131935Y156144D01*
X131768Y156027D01*
X131668Y155817D01*
X131701Y155607D01*
X131835Y155397D01*
G01X140435Y146280D02*
Y147180D01*
X139968Y148280D01*
G01X140902D02*
X140435Y147180D01*
G01X142435Y146280D02*
Y148280D01*
X142155Y147880D01*
G01Y146280D02*
X142715D01*
G01X129900Y170500D02*
Y168500D01*
G01X129363Y170500D02*
X130437D01*
G01X131433Y168500D02*
Y170500D01*
X131993D01*
X132180Y170400D01*
X132320Y170167D01*
X132367Y169900D01*
X132320Y169633D01*
X132203Y169433D01*
X131993Y169333D01*
X131433D01*
G01X133457D02*
X133620Y169567D01*
X133760Y169700D01*
X133947Y169767D01*
X134110Y169700D01*
X134227Y169567D01*
X134320Y169367D01*
X134343Y169133D01*
X134320Y168933D01*
X134227Y168733D01*
X134087Y168567D01*
X133923Y168500D01*
X133737Y168567D01*
X133573Y168767D01*
X133480Y169067D01*
X133457Y169400D01*
X133503Y169833D01*
X133573Y170067D01*
X133690Y170300D01*
X133853Y170467D01*
X134017Y170500D01*
X134180Y170433D01*
X134297Y170267D01*
G01X130434Y164257D02*
Y166257D01*
X131018D01*
X131204Y166157D01*
X131321Y166024D01*
X131368Y165757D01*
X131321Y165490D01*
X131181Y165324D01*
X131018Y165224D01*
X130434D01*
G01X131018D02*
X131368Y164257D01*
G01X132901D02*
Y166257D01*
X132621Y165857D01*
G01Y164257D02*
X133181D01*
G01X134901D02*
Y166257D01*
X134621Y165857D01*
G01Y164257D02*
X135181D01*
G01X136388Y164657D02*
X136528Y164424D01*
X136714Y164290D01*
X136924Y164257D01*
X137111Y164290D01*
X137298Y164457D01*
X137414Y164657D01*
X137438Y164857D01*
X137391Y165090D01*
X137228Y165257D01*
X137064Y165324D01*
X136854D01*
G01X137064D02*
X137204Y165424D01*
X137321Y165590D01*
X137368Y165790D01*
X137321Y165990D01*
X137204Y166157D01*
X136994Y166257D01*
X136784Y166224D01*
X136574Y166090D01*
G01X157533Y53800D02*
Y55800D01*
X158117D01*
X158303Y55700D01*
X158420Y55567D01*
X158467Y55300D01*
X158420Y55033D01*
X158280Y54867D01*
X158117Y54767D01*
X157533D01*
G01X158117D02*
X158467Y53800D01*
G01X160000D02*
Y55800D01*
X159720Y55400D01*
G01Y53800D02*
X160280D01*
G01X161487Y54200D02*
X161627Y53967D01*
X161813Y53833D01*
X162023Y53800D01*
X162210Y53833D01*
X162397Y54000D01*
X162513Y54200D01*
X162537Y54400D01*
X162490Y54633D01*
X162327Y54800D01*
X162163Y54867D01*
X161953D01*
G01X162163D02*
X162303Y54967D01*
X162420Y55133D01*
X162467Y55333D01*
X162420Y55533D01*
X162303Y55700D01*
X162093Y55800D01*
X161883Y55767D01*
X161673Y55633D01*
G01X163557Y55467D02*
X163697Y55667D01*
X163860Y55767D01*
X164047Y55800D01*
X164280Y55733D01*
X164443Y55567D01*
X164490Y55367D01*
X164467Y55167D01*
X164373Y55000D01*
X163907Y54667D01*
X163697Y54433D01*
X163557Y54100D01*
X163510Y53800D01*
X164490D01*
G01X157733Y49900D02*
Y51900D01*
X158317D01*
X158503Y51800D01*
X158620Y51667D01*
X158667Y51400D01*
X158620Y51133D01*
X158480Y50967D01*
X158317Y50867D01*
X157733D01*
G01X158317D02*
X158667Y49900D01*
G01X160200D02*
Y51900D01*
X159920Y51500D01*
G01Y49900D02*
X160480D01*
G01X161687Y50300D02*
X161827Y50067D01*
X162013Y49933D01*
X162223Y49900D01*
X162410Y49933D01*
X162597Y50100D01*
X162713Y50300D01*
X162737Y50500D01*
X162690Y50733D01*
X162527Y50900D01*
X162363Y50967D01*
X162153D01*
G01X162363D02*
X162503Y51067D01*
X162620Y51233D01*
X162667Y51433D01*
X162620Y51633D01*
X162503Y51800D01*
X162293Y51900D01*
X162083Y51867D01*
X161873Y51733D01*
G01X164200Y49900D02*
Y51900D01*
X163920Y51500D01*
G01Y49900D02*
X164480D01*
G01X157633Y57800D02*
Y59800D01*
X158217D01*
X158403Y59700D01*
X158520Y59567D01*
X158567Y59300D01*
X158520Y59033D01*
X158380Y58867D01*
X158217Y58767D01*
X157633D01*
G01X158217D02*
X158567Y57800D01*
G01X160100D02*
Y59800D01*
X159820Y59400D01*
G01Y57800D02*
X160380D01*
G01X161657Y59467D02*
X161797Y59667D01*
X161960Y59767D01*
X162147Y59800D01*
X162380Y59733D01*
X162543Y59567D01*
X162590Y59367D01*
X162567Y59167D01*
X162473Y59000D01*
X162007Y58667D01*
X161797Y58433D01*
X161657Y58100D01*
X161610Y57800D01*
X162590D01*
G01X163703Y58033D02*
X163867Y57867D01*
X164053Y57800D01*
X164240Y57867D01*
X164403Y58067D01*
X164520Y58367D01*
X164567Y58667D01*
Y59033D01*
X164520Y59333D01*
X164403Y59600D01*
X164263Y59733D01*
X164100Y59800D01*
X163913Y59733D01*
X163773Y59600D01*
X163680Y59400D01*
X163633Y59133D01*
X163680Y58900D01*
X163797Y58667D01*
X163937Y58533D01*
X164100Y58500D01*
X164287Y58567D01*
X164427Y58733D01*
X164567Y59033D01*
G01X158033Y61900D02*
Y63900D01*
X158617D01*
X158803Y63800D01*
X158920Y63667D01*
X158967Y63400D01*
X158920Y63133D01*
X158780Y62967D01*
X158617Y62867D01*
X158033D01*
G01X158617D02*
X158967Y61900D01*
G01X160500D02*
Y63900D01*
X160220Y63500D01*
G01Y61900D02*
X160780D01*
G01X161987Y62300D02*
X162127Y62067D01*
X162313Y61933D01*
X162523Y61900D01*
X162710Y61933D01*
X162897Y62100D01*
X163013Y62300D01*
X163037Y62500D01*
X162990Y62733D01*
X162827Y62900D01*
X162663Y62967D01*
X162453D01*
G01X162663D02*
X162803Y63067D01*
X162920Y63233D01*
X162967Y63433D01*
X162920Y63633D01*
X162803Y63800D01*
X162593Y63900D01*
X162383Y63867D01*
X162173Y63733D01*
G01X164500Y63900D02*
X164313Y63833D01*
X164173Y63667D01*
X164080Y63467D01*
X164010Y63200D01*
X163987Y62900D01*
X164010Y62600D01*
X164080Y62333D01*
X164173Y62133D01*
X164313Y61967D01*
X164500Y61900D01*
X164687Y61967D01*
X164827Y62133D01*
X164920Y62333D01*
X164990Y62600D01*
X165013Y62900D01*
X164990Y63200D01*
X164920Y63467D01*
X164827Y63667D01*
X164687Y63833D01*
X164500Y63900D01*
G01X159630Y71703D02*
X161630D01*
Y72637D01*
G01X159963Y73727D02*
X159763Y73867D01*
X159663Y74030D01*
X159630Y74217D01*
X159697Y74450D01*
X159863Y74613D01*
X160063Y74660D01*
X160263Y74637D01*
X160430Y74543D01*
X160763Y74077D01*
X160997Y73867D01*
X161330Y73727D01*
X161630Y73680D01*
Y74660D01*
G01X157633Y65500D02*
Y67500D01*
X158217D01*
X158403Y67400D01*
X158520Y67267D01*
X158567Y67000D01*
X158520Y66733D01*
X158380Y66567D01*
X158217Y66467D01*
X157633D01*
G01X158217D02*
X158567Y65500D01*
G01X160100D02*
Y67500D01*
X159820Y67100D01*
G01Y65500D02*
X160380D01*
G01X162100D02*
Y67500D01*
X161820Y67100D01*
G01Y65500D02*
X162380D01*
G01X163587Y65800D02*
X163727Y65633D01*
X163890Y65533D01*
X164100Y65500D01*
X164310Y65567D01*
X164473Y65700D01*
X164590Y65933D01*
X164613Y66200D01*
X164567Y66467D01*
X164450Y66633D01*
X164287Y66767D01*
X164123Y66800D01*
X163960Y66767D01*
X163750Y66633D01*
X163820Y67500D01*
X164450D01*
G01X151112Y106811D02*
X149112D01*
Y107395D01*
X149212Y107581D01*
X149345Y107698D01*
X149612Y107745D01*
X149879Y107698D01*
X150045Y107558D01*
X150145Y107395D01*
Y106811D01*
G01Y107395D02*
X151112Y107745D01*
G01Y109278D02*
X149112D01*
X149512Y108998D01*
G01X151112D02*
Y109558D01*
G01Y111278D02*
X149112D01*
X149512Y110998D01*
G01X151112D02*
Y111558D01*
G01Y113278D02*
X151079Y113441D01*
X150979Y113628D01*
X150812Y113745D01*
X150579Y113791D01*
X150345Y113745D01*
X150145Y113605D01*
X150045Y113395D01*
Y113161D01*
X149979Y113021D01*
X149812Y112905D01*
X149579Y112858D01*
X149345Y112928D01*
X149179Y113091D01*
X149112Y113278D01*
X149179Y113465D01*
X149345Y113628D01*
X149579Y113698D01*
X149812Y113651D01*
X149979Y113535D01*
X150045Y113395D01*
Y113161D01*
X150145Y112951D01*
X150345Y112811D01*
X150579Y112765D01*
X150812Y112811D01*
X150979Y112928D01*
X151079Y113115D01*
X151112Y113278D01*
G01X149657Y102463D02*
Y100463D01*
X149097D01*
X148910Y100563D01*
X148770Y100796D01*
X148723Y101063D01*
X148770Y101330D01*
X148887Y101530D01*
X149097Y101630D01*
X149657D01*
G01X145600Y116200D02*
Y114200D01*
G01X145063Y116200D02*
X146137D01*
G01X147133Y114200D02*
Y116200D01*
X147693D01*
X147880Y116100D01*
X148020Y115867D01*
X148067Y115600D01*
X148020Y115333D01*
X147903Y115133D01*
X147693Y115033D01*
X147133D01*
G01X149880Y114200D02*
Y116200D01*
X149017Y114767D01*
X150183D01*
G01X151600Y116200D02*
X151413Y116133D01*
X151273Y115967D01*
X151180Y115767D01*
X151110Y115500D01*
X151087Y115200D01*
X151110Y114900D01*
X151180Y114633D01*
X151273Y114433D01*
X151413Y114267D01*
X151600Y114200D01*
X151787Y114267D01*
X151927Y114433D01*
X152020Y114633D01*
X152090Y114900D01*
X152113Y115200D01*
X152090Y115500D01*
X152020Y115767D01*
X151927Y115967D01*
X151787Y116133D01*
X151600Y116200D01*
G01X144439Y120393D02*
Y118393D01*
G01X143902Y120393D02*
X144976D01*
G01X145972Y118393D02*
Y120393D01*
X146532D01*
X146719Y120293D01*
X146859Y120060D01*
X146906Y119793D01*
X146859Y119526D01*
X146742Y119326D01*
X146532Y119226D01*
X145972D01*
G01X147926Y118793D02*
X148066Y118560D01*
X148252Y118426D01*
X148462Y118393D01*
X148649Y118426D01*
X148836Y118593D01*
X148952Y118793D01*
X148976Y118993D01*
X148929Y119226D01*
X148766Y119393D01*
X148602Y119460D01*
X148392D01*
G01X148602D02*
X148742Y119560D01*
X148859Y119726D01*
X148906Y119926D01*
X148859Y120126D01*
X148742Y120293D01*
X148532Y120393D01*
X148322Y120360D01*
X148112Y120226D01*
G01X149996Y119226D02*
X150159Y119460D01*
X150299Y119593D01*
X150486Y119660D01*
X150649Y119593D01*
X150766Y119460D01*
X150859Y119260D01*
X150882Y119026D01*
X150859Y118826D01*
X150766Y118626D01*
X150626Y118460D01*
X150462Y118393D01*
X150276Y118460D01*
X150112Y118660D01*
X150019Y118960D01*
X149996Y119293D01*
X150042Y119726D01*
X150112Y119960D01*
X150229Y120193D01*
X150392Y120360D01*
X150556Y120393D01*
X150719Y120326D01*
X150836Y120160D01*
G01X150536Y120955D02*
X148536D01*
Y121539D01*
X148636Y121725D01*
X148769Y121842D01*
X149036Y121889D01*
X149303Y121842D01*
X149469Y121702D01*
X149569Y121539D01*
Y120955D01*
G01Y121539D02*
X150536Y121889D01*
G01Y123422D02*
X148536D01*
X148936Y123142D01*
G01X150536D02*
Y123702D01*
G01Y125422D02*
X148536D01*
X148936Y125142D01*
G01X150536D02*
Y125702D01*
G01Y127375D02*
X150103Y127422D01*
X149736Y127492D01*
X149403Y127585D01*
X149036Y127702D01*
X148536Y127889D01*
Y126955D01*
G01X152609Y140868D02*
Y142868D01*
X152329Y142468D01*
G01Y140868D02*
X152889D01*
G01X148876Y129198D02*
X149459Y131198D01*
X150042Y129198D01*
G01X149832Y129898D02*
X149086D01*
G01X148010Y138738D02*
Y140738D01*
X147730Y140338D01*
G01Y138738D02*
X148290D01*
G01X156000Y155100D02*
Y153100D01*
G01X155463Y155100D02*
X156537D01*
G01X157533Y153100D02*
Y155100D01*
X158093D01*
X158280Y155000D01*
X158420Y154767D01*
X158467Y154500D01*
X158420Y154233D01*
X158303Y154033D01*
X158093Y153933D01*
X157533D01*
G01X160000Y153100D02*
Y155100D01*
X159720Y154700D01*
G01Y153100D02*
X160280D01*
G01X161557Y153933D02*
X161720Y154167D01*
X161860Y154300D01*
X162047Y154367D01*
X162210Y154300D01*
X162327Y154167D01*
X162420Y153967D01*
X162443Y153733D01*
X162420Y153533D01*
X162327Y153333D01*
X162187Y153167D01*
X162023Y153100D01*
X161837Y153167D01*
X161673Y153367D01*
X161580Y153667D01*
X161557Y154000D01*
X161603Y154433D01*
X161673Y154667D01*
X161790Y154900D01*
X161953Y155067D01*
X162117Y155100D01*
X162280Y155033D01*
X162397Y154867D01*
G01X146423Y159217D02*
Y161217D01*
X147007D01*
X147193Y161117D01*
X147310Y160984D01*
X147357Y160717D01*
X147310Y160450D01*
X147170Y160284D01*
X147007Y160184D01*
X146423D01*
G01X147007D02*
X147357Y159217D01*
G01X148890D02*
Y161217D01*
X148610Y160817D01*
G01Y159217D02*
X149170D01*
G01X150890Y161217D02*
X150703Y161150D01*
X150563Y160984D01*
X150470Y160784D01*
X150400Y160517D01*
X150377Y160217D01*
X150400Y159917D01*
X150470Y159650D01*
X150563Y159450D01*
X150703Y159284D01*
X150890Y159217D01*
X151077Y159284D01*
X151217Y159450D01*
X151310Y159650D01*
X151380Y159917D01*
X151403Y160217D01*
X151380Y160517D01*
X151310Y160784D01*
X151217Y160984D01*
X151077Y161150D01*
X150890Y161217D01*
G01X152890D02*
X152703Y161150D01*
X152563Y160984D01*
X152470Y160784D01*
X152400Y160517D01*
X152377Y160217D01*
X152400Y159917D01*
X152470Y159650D01*
X152563Y159450D01*
X152703Y159284D01*
X152890Y159217D01*
X153077Y159284D01*
X153217Y159450D01*
X153310Y159650D01*
X153380Y159917D01*
X153403Y160217D01*
X153380Y160517D01*
X153310Y160784D01*
X153217Y160984D01*
X153077Y161150D01*
X152890Y161217D01*
G01X156989Y164190D02*
X158989D01*
G01X156989Y163653D02*
Y164727D01*
G01X158989Y165723D02*
X156989D01*
Y166283D01*
X157089Y166470D01*
X157322Y166610D01*
X157589Y166657D01*
X157856Y166610D01*
X158056Y166493D01*
X158156Y166283D01*
Y165723D01*
G01X158989Y168190D02*
X158956Y168353D01*
X158856Y168540D01*
X158689Y168657D01*
X158456Y168703D01*
X158222Y168657D01*
X158022Y168517D01*
X157922Y168307D01*
Y168073D01*
X157856Y167933D01*
X157689Y167817D01*
X157456Y167770D01*
X157222Y167840D01*
X157056Y168003D01*
X156989Y168190D01*
X157056Y168377D01*
X157222Y168540D01*
X157456Y168610D01*
X157689Y168563D01*
X157856Y168447D01*
X157922Y168307D01*
Y168073D01*
X158022Y167863D01*
X158222Y167723D01*
X158456Y167677D01*
X158689Y167723D01*
X158856Y167840D01*
X158956Y168027D01*
X158989Y168190D01*
G01X159374Y170760D02*
X157374D01*
Y171344D01*
X157474Y171530D01*
X157607Y171647D01*
X157874Y171694D01*
X158141Y171647D01*
X158307Y171507D01*
X158407Y171344D01*
Y170760D01*
G01Y171344D02*
X159374Y171694D01*
G01Y173227D02*
X157374D01*
X157774Y172947D01*
G01X159374D02*
Y173507D01*
G01X157374Y175227D02*
X157441Y175040D01*
X157607Y174900D01*
X157807Y174807D01*
X158074Y174737D01*
X158374Y174714D01*
X158674Y174737D01*
X158941Y174807D01*
X159141Y174900D01*
X159307Y175040D01*
X159374Y175227D01*
X159307Y175414D01*
X159141Y175554D01*
X158941Y175647D01*
X158674Y175717D01*
X158374Y175740D01*
X158074Y175717D01*
X157807Y175647D01*
X157607Y175554D01*
X157441Y175414D01*
X157374Y175227D01*
G01X157707Y176784D02*
X157507Y176924D01*
X157407Y177087D01*
X157374Y177274D01*
X157441Y177507D01*
X157607Y177670D01*
X157807Y177717D01*
X158007Y177694D01*
X158174Y177600D01*
X158507Y177134D01*
X158741Y176924D01*
X159074Y176784D01*
X159374Y176737D01*
Y177717D01*
G01X177665Y30242D02*
X177782Y30042D01*
X177922Y29909D01*
X178085Y29842D01*
X178272Y29909D01*
X178412Y30042D01*
X178552Y30242D01*
X178599Y30509D01*
Y31842D01*
G01X179689Y31509D02*
X179829Y31709D01*
X179992Y31809D01*
X180179Y31842D01*
X180412Y31775D01*
X180575Y31609D01*
X180622Y31409D01*
X180599Y31209D01*
X180505Y31042D01*
X180039Y30709D01*
X179829Y30475D01*
X179689Y30142D01*
X179642Y29842D01*
X180622D01*
G01X165613Y42133D02*
X165753Y41900D01*
X165939Y41766D01*
X166149Y41733D01*
X166336Y41766D01*
X166523Y41933D01*
X166639Y42133D01*
X166663Y42333D01*
X166616Y42566D01*
X166453Y42733D01*
X166289Y42800D01*
X166079D01*
G01X166289D02*
X166429Y42900D01*
X166546Y43066D01*
X166593Y43266D01*
X166546Y43466D01*
X166429Y43633D01*
X166219Y43733D01*
X166009Y43700D01*
X165799Y43566D01*
G01X167729Y41966D02*
X167893Y41800D01*
X168079Y41733D01*
X168266Y41800D01*
X168429Y42000D01*
X168546Y42300D01*
X168593Y42600D01*
Y42966D01*
X168546Y43266D01*
X168429Y43533D01*
X168289Y43666D01*
X168126Y43733D01*
X167939Y43666D01*
X167799Y43533D01*
X167706Y43333D01*
X167659Y43066D01*
X167706Y42833D01*
X167823Y42600D01*
X167963Y42466D01*
X168126Y42433D01*
X168313Y42500D01*
X168453Y42666D01*
X168593Y42966D01*
G01X161774Y46004D02*
X161914Y45771D01*
X162100Y45637D01*
X162310Y45604D01*
X162497Y45637D01*
X162684Y45804D01*
X162800Y46004D01*
X162824Y46204D01*
X162777Y46437D01*
X162614Y46604D01*
X162450Y46671D01*
X162240D01*
G01X162450D02*
X162590Y46771D01*
X162707Y46937D01*
X162754Y47137D01*
X162707Y47337D01*
X162590Y47504D01*
X162380Y47604D01*
X162170Y47571D01*
X161960Y47437D01*
G01X164287Y45604D02*
X164450Y45637D01*
X164637Y45737D01*
X164754Y45904D01*
X164800Y46137D01*
X164754Y46371D01*
X164614Y46571D01*
X164404Y46671D01*
X164170D01*
X164030Y46737D01*
X163914Y46904D01*
X163867Y47137D01*
X163937Y47371D01*
X164100Y47537D01*
X164287Y47604D01*
X164474Y47537D01*
X164637Y47371D01*
X164707Y47137D01*
X164660Y46904D01*
X164544Y46737D01*
X164404Y46671D01*
X164170D01*
X163960Y46571D01*
X163820Y46371D01*
X163774Y46137D01*
X163820Y45904D01*
X163937Y45737D01*
X164124Y45637D01*
X164287Y45604D01*
G01X177700Y79300D02*
X179700D01*
G01X177700Y78763D02*
Y79837D01*
G01X179700Y80833D02*
X177700D01*
Y81393D01*
X177800Y81580D01*
X178033Y81720D01*
X178300Y81767D01*
X178567Y81720D01*
X178767Y81603D01*
X178867Y81393D01*
Y80833D01*
G01X179700Y83300D02*
X177700D01*
X178100Y83020D01*
G01X179700D02*
Y83580D01*
G01Y85300D02*
X177700D01*
X178100Y85020D01*
G01X179700D02*
Y85580D01*
G01X165510Y79917D02*
X165650Y80117D01*
X165813Y80217D01*
X166000Y80250D01*
X166233Y80183D01*
X166396Y80017D01*
X166443Y79817D01*
X166420Y79617D01*
X166326Y79450D01*
X165860Y79117D01*
X165650Y78883D01*
X165510Y78550D01*
X165463Y78250D01*
X166443D01*
G01X167510Y79083D02*
X167673Y79317D01*
X167813Y79450D01*
X168000Y79517D01*
X168163Y79450D01*
X168280Y79317D01*
X168373Y79117D01*
X168396Y78883D01*
X168373Y78683D01*
X168280Y78483D01*
X168140Y78317D01*
X167976Y78250D01*
X167790Y78317D01*
X167626Y78517D01*
X167533Y78817D01*
X167510Y79150D01*
X167556Y79583D01*
X167626Y79817D01*
X167743Y80050D01*
X167906Y80217D01*
X168070Y80250D01*
X168233Y80183D01*
X168350Y80017D01*
G01X173106Y116027D02*
Y114594D01*
X173199Y114294D01*
X173386Y114094D01*
X173619Y114027D01*
X173852Y114094D01*
X174039Y114294D01*
X174132Y114594D01*
Y116027D01*
G01X175899Y114027D02*
Y116027D01*
X175036Y114594D01*
X176202D01*
G01X175226Y144702D02*
Y146702D01*
X174946Y146302D01*
G01Y144702D02*
X175506D01*
G01X164891Y154577D02*
Y152577D01*
G01X164354Y154577D02*
X165428D01*
G01X166424Y152577D02*
Y154577D01*
X166984D01*
X167171Y154477D01*
X167311Y154244D01*
X167358Y153977D01*
X167311Y153710D01*
X167194Y153510D01*
X166984Y153410D01*
X166424D01*
G01X168891Y152577D02*
Y154577D01*
X168611Y154177D01*
G01Y152577D02*
X169171D01*
G01X170844D02*
X170891Y153010D01*
X170961Y153377D01*
X171054Y153710D01*
X171171Y154077D01*
X171358Y154577D01*
X170424D01*
G01X172599Y157753D02*
X172499Y157613D01*
X172432Y157450D01*
Y157263D01*
X172532Y157053D01*
X172699Y156890D01*
X172899Y156773D01*
X173232Y156680D01*
X173532Y156657D01*
X173832Y156703D01*
X174032Y156773D01*
X174232Y156913D01*
X174365Y157077D01*
X174432Y157240D01*
Y157403D01*
X174365Y157567D01*
X174265Y157707D01*
X174132Y157823D01*
G01X174432Y159240D02*
X172432D01*
X172832Y158960D01*
G01X174432D02*
Y159520D01*
G01X174032Y160727D02*
X174265Y160867D01*
X174399Y161053D01*
X174432Y161263D01*
X174399Y161450D01*
X174232Y161637D01*
X174032Y161753D01*
X173832Y161777D01*
X173599Y161730D01*
X173432Y161567D01*
X173365Y161403D01*
Y161193D01*
G01Y161403D02*
X173265Y161543D01*
X173099Y161660D01*
X172899Y161707D01*
X172699Y161660D01*
X172532Y161543D01*
X172432Y161333D01*
X172465Y161123D01*
X172599Y160913D01*
G01X174199Y162843D02*
X174365Y163007D01*
X174432Y163193D01*
X174365Y163380D01*
X174165Y163543D01*
X173865Y163660D01*
X173565Y163707D01*
X173199D01*
X172899Y163660D01*
X172632Y163543D01*
X172499Y163403D01*
X172432Y163240D01*
X172499Y163053D01*
X172632Y162913D01*
X172832Y162820D01*
X173099Y162773D01*
X173332Y162820D01*
X173565Y162937D01*
X173699Y163077D01*
X173732Y163240D01*
X173665Y163427D01*
X173499Y163567D01*
X173199Y163707D01*
G01X173988Y149439D02*
X171988D01*
Y150023D01*
X172088Y150209D01*
X172221Y150326D01*
X172488Y150373D01*
X172755Y150326D01*
X172921Y150186D01*
X173021Y150023D01*
Y149439D01*
G01Y150023D02*
X173988Y150373D01*
G01X173588Y151393D02*
X173821Y151533D01*
X173955Y151719D01*
X173988Y151929D01*
X173955Y152116D01*
X173788Y152303D01*
X173588Y152419D01*
X173388Y152443D01*
X173155Y152396D01*
X172988Y152233D01*
X172921Y152069D01*
Y151859D01*
G01Y152069D02*
X172821Y152209D01*
X172655Y152326D01*
X172455Y152373D01*
X172255Y152326D01*
X172088Y152209D01*
X171988Y151999D01*
X172021Y151789D01*
X172155Y151579D01*
G01X173988Y153859D02*
X173555Y153906D01*
X173188Y153976D01*
X172855Y154069D01*
X172488Y154186D01*
X171988Y154373D01*
Y153439D01*
G01X168377Y157753D02*
X168277Y157613D01*
X168210Y157450D01*
Y157263D01*
X168310Y157053D01*
X168477Y156890D01*
X168677Y156773D01*
X169010Y156680D01*
X169310Y156657D01*
X169610Y156703D01*
X169810Y156773D01*
X170010Y156913D01*
X170143Y157077D01*
X170210Y157240D01*
Y157403D01*
X170143Y157567D01*
X170043Y157707D01*
X169910Y157823D01*
G01X170210Y159240D02*
X168210D01*
X168610Y158960D01*
G01X170210D02*
Y159520D01*
G01X169810Y160727D02*
X170043Y160867D01*
X170177Y161053D01*
X170210Y161263D01*
X170177Y161450D01*
X170010Y161637D01*
X169810Y161753D01*
X169610Y161777D01*
X169377Y161730D01*
X169210Y161567D01*
X169143Y161403D01*
Y161193D01*
G01Y161403D02*
X169043Y161543D01*
X168877Y161660D01*
X168677Y161707D01*
X168477Y161660D01*
X168310Y161543D01*
X168210Y161333D01*
X168243Y161123D01*
X168377Y160913D01*
G01X170210Y163240D02*
X170177Y163403D01*
X170077Y163590D01*
X169910Y163707D01*
X169677Y163753D01*
X169443Y163707D01*
X169243Y163567D01*
X169143Y163357D01*
Y163123D01*
X169077Y162983D01*
X168910Y162867D01*
X168677Y162820D01*
X168443Y162890D01*
X168277Y163053D01*
X168210Y163240D01*
X168277Y163427D01*
X168443Y163590D01*
X168677Y163660D01*
X168910Y163613D01*
X169077Y163497D01*
X169143Y163357D01*
Y163123D01*
X169243Y162913D01*
X169443Y162773D01*
X169677Y162727D01*
X169910Y162773D01*
X170077Y162890D01*
X170177Y163077D01*
X170210Y163240D01*
G01X169983Y172109D02*
X167983D01*
Y172693D01*
X168083Y172879D01*
X168216Y172996D01*
X168483Y173043D01*
X168750Y172996D01*
X168916Y172856D01*
X169016Y172693D01*
Y172109D01*
G01Y172693D02*
X169983Y173043D01*
G01Y174576D02*
X167983D01*
X168383Y174296D01*
G01X169983D02*
Y174856D01*
G01X168316Y176133D02*
X168116Y176273D01*
X168016Y176436D01*
X167983Y176623D01*
X168050Y176856D01*
X168216Y177019D01*
X168416Y177066D01*
X168616Y177043D01*
X168783Y176949D01*
X169116Y176483D01*
X169350Y176273D01*
X169683Y176133D01*
X169983Y176086D01*
Y177066D01*
G01X169683Y178063D02*
X169850Y178203D01*
X169950Y178366D01*
X169983Y178576D01*
X169916Y178786D01*
X169783Y178949D01*
X169550Y179066D01*
X169283Y179089D01*
X169016Y179043D01*
X168850Y178926D01*
X168716Y178763D01*
X168683Y178599D01*
X168716Y178436D01*
X168850Y178226D01*
X167983Y178296D01*
Y178926D01*
G01X164029Y172061D02*
X162029D01*
Y172527D01*
X162129Y172714D01*
X162262Y172854D01*
X162462Y172971D01*
X162696Y173064D01*
X163029Y173087D01*
X163362Y173064D01*
X163596Y172971D01*
X163796Y172854D01*
X163929Y172714D01*
X164029Y172527D01*
Y172061D01*
G01Y174574D02*
X162029D01*
X162429Y174294D01*
G01X164029D02*
Y174854D01*
G01X162989Y192990D02*
Y190990D01*
G01X162452Y192990D02*
X163526D01*
G01X164522Y190990D02*
Y192990D01*
X165082D01*
X165269Y192890D01*
X165409Y192657D01*
X165456Y192390D01*
X165409Y192123D01*
X165292Y191923D01*
X165082Y191823D01*
X164522D01*
G01X167269Y190990D02*
Y192990D01*
X166406Y191557D01*
X167572D01*
G01X168546Y191823D02*
X168709Y192057D01*
X168849Y192190D01*
X169036Y192257D01*
X169199Y192190D01*
X169316Y192057D01*
X169409Y191857D01*
X169432Y191623D01*
X169409Y191423D01*
X169316Y191223D01*
X169176Y191057D01*
X169012Y190990D01*
X168826Y191057D01*
X168662Y191257D01*
X168569Y191557D01*
X168546Y191890D01*
X168592Y192323D01*
X168662Y192557D01*
X168779Y192790D01*
X168942Y192957D01*
X169106Y192990D01*
X169269Y192923D01*
X169386Y192757D01*
G01X186372Y11871D02*
X186465Y11971D01*
X186535Y12137D01*
X186582Y12371D01*
X186535Y12571D01*
X186442Y12704D01*
X186278Y12804D01*
X185648D01*
Y10804D01*
X186418D01*
X186582Y10937D01*
X186675Y11137D01*
X186722Y11371D01*
X186675Y11604D01*
X186535Y11804D01*
X186372Y11871D01*
X185648D01*
G01X187695Y10804D02*
Y12804D01*
G01X188675D02*
Y10804D01*
G01Y11804D02*
X187695D01*
G01X189742Y12471D02*
X189882Y12671D01*
X190045Y12771D01*
X190232Y12804D01*
X190465Y12737D01*
X190628Y12571D01*
X190675Y12371D01*
X190652Y12171D01*
X190558Y12004D01*
X190092Y11671D01*
X189882Y11437D01*
X189742Y11104D01*
X189695Y10804D01*
X190675D01*
G01X189933Y31799D02*
Y29799D01*
X190867D01*
G01X191887Y30199D02*
X192027Y29966D01*
X192213Y29832D01*
X192423Y29799D01*
X192610Y29832D01*
X192797Y29999D01*
X192913Y30199D01*
X192937Y30399D01*
X192890Y30632D01*
X192727Y30799D01*
X192563Y30866D01*
X192353D01*
G01X192563D02*
X192703Y30966D01*
X192820Y31132D01*
X192867Y31332D01*
X192820Y31532D01*
X192703Y31699D01*
X192493Y31799D01*
X192283Y31766D01*
X192073Y31632D01*
G01X190999Y33633D02*
X188999D01*
Y34217D01*
X189099Y34403D01*
X189232Y34520D01*
X189499Y34567D01*
X189766Y34520D01*
X189932Y34380D01*
X190032Y34217D01*
Y33633D01*
G01Y34217D02*
X190999Y34567D01*
G01Y36380D02*
X188999D01*
X190432Y35517D01*
Y36683D01*
G01X190999Y38380D02*
X188999D01*
X190432Y37517D01*
Y38683D01*
G01X190033Y42100D02*
Y40100D01*
X190967D01*
G01X192780D02*
Y42100D01*
X191917Y40667D01*
X193083D01*
G01X187891Y29672D02*
Y27672D01*
X188171Y28072D01*
G01Y29672D02*
X187611D01*
G01X179505Y62250D02*
Y60817D01*
X179598Y60517D01*
X179785Y60317D01*
X180018Y60250D01*
X180251Y60317D01*
X180438Y60517D01*
X180531Y60817D01*
Y62250D01*
G01X181575Y61083D02*
X181738Y61317D01*
X181878Y61450D01*
X182065Y61517D01*
X182228Y61450D01*
X182345Y61317D01*
X182438Y61117D01*
X182461Y60883D01*
X182438Y60683D01*
X182345Y60483D01*
X182205Y60317D01*
X182041Y60250D01*
X181855Y60317D01*
X181691Y60517D01*
X181598Y60817D01*
X181575Y61150D01*
X181621Y61583D01*
X181691Y61817D01*
X181808Y62050D01*
X181971Y62217D01*
X182135Y62250D01*
X182298Y62183D01*
X182415Y62017D01*
G01X185601Y80700D02*
X187601D01*
G01X185601Y80163D02*
Y81237D01*
G01X187601Y82233D02*
X185601D01*
Y82793D01*
X185701Y82980D01*
X185934Y83120D01*
X186201Y83167D01*
X186468Y83120D01*
X186668Y83003D01*
X186768Y82793D01*
Y82233D01*
G01X187601Y84700D02*
X185601D01*
X186001Y84420D01*
G01X187601D02*
Y84980D01*
G01X185934Y86257D02*
X185734Y86397D01*
X185634Y86560D01*
X185601Y86747D01*
X185668Y86980D01*
X185834Y87143D01*
X186034Y87190D01*
X186234Y87167D01*
X186401Y87073D01*
X186734Y86607D01*
X186968Y86397D01*
X187301Y86257D01*
X187601Y86210D01*
Y87190D01*
G01X191300Y78400D02*
X193300D01*
G01X191300Y77863D02*
Y78937D01*
G01X193300Y79933D02*
X191300D01*
Y80493D01*
X191400Y80680D01*
X191633Y80820D01*
X191900Y80867D01*
X192167Y80820D01*
X192367Y80703D01*
X192467Y80493D01*
Y79933D01*
G01X193300Y82400D02*
X191300D01*
X191700Y82120D01*
G01X193300D02*
Y82680D01*
G01X192900Y83887D02*
X193133Y84027D01*
X193267Y84213D01*
X193300Y84423D01*
X193267Y84610D01*
X193100Y84797D01*
X192900Y84913D01*
X192700Y84937D01*
X192467Y84890D01*
X192300Y84727D01*
X192233Y84563D01*
Y84353D01*
G01Y84563D02*
X192133Y84703D01*
X191967Y84820D01*
X191767Y84867D01*
X191567Y84820D01*
X191400Y84703D01*
X191300Y84493D01*
X191333Y84283D01*
X191467Y84073D01*
G01X195444Y77704D02*
Y79704D01*
X195164Y79304D01*
G01Y77704D02*
X195724D01*
G01X196931Y78104D02*
X197071Y77871D01*
X197257Y77737D01*
X197467Y77704D01*
X197654Y77737D01*
X197841Y77904D01*
X197957Y78104D01*
X197981Y78304D01*
X197934Y78537D01*
X197771Y78704D01*
X197607Y78771D01*
X197397D01*
G01X197607D02*
X197747Y78871D01*
X197864Y79037D01*
X197911Y79237D01*
X197864Y79437D01*
X197747Y79604D01*
X197537Y79704D01*
X197327Y79671D01*
X197117Y79537D01*
G01X192882Y141805D02*
Y143805D01*
X192602Y143405D01*
G01Y141805D02*
X193162D01*
G01X195162D02*
Y143805D01*
X194299Y142372D01*
X195465D01*
G01X185258Y160698D02*
Y159265D01*
X185351Y158965D01*
X185538Y158765D01*
X185771Y158698D01*
X186004Y158765D01*
X186191Y158965D01*
X186284Y159265D01*
Y160698D01*
G01X187258Y158998D02*
X187398Y158831D01*
X187561Y158731D01*
X187771Y158698D01*
X187981Y158765D01*
X188144Y158898D01*
X188261Y159131D01*
X188284Y159398D01*
X188238Y159665D01*
X188121Y159831D01*
X187958Y159965D01*
X187794Y159998D01*
X187631Y159965D01*
X187421Y159831D01*
X187491Y160698D01*
X188121D01*
G01X186372Y188249D02*
X186465Y188349D01*
X186535Y188515D01*
X186582Y188749D01*
X186535Y188949D01*
X186442Y189082D01*
X186278Y189182D01*
X185648D01*
Y187182D01*
X186418D01*
X186582Y187315D01*
X186675Y187515D01*
X186722Y187749D01*
X186675Y187982D01*
X186535Y188182D01*
X186372Y188249D01*
X185648D01*
G01X187695Y187182D02*
Y189182D01*
G01X188675D02*
Y187182D01*
G01Y188182D02*
X187695D01*
G01X190185Y187182D02*
Y189182D01*
X189905Y188782D01*
G01Y187182D02*
X190465D01*
G01X195964Y42627D02*
X196104Y42460D01*
X196267Y42360D01*
X196477Y42327D01*
X196687Y42394D01*
X196850Y42527D01*
X196967Y42760D01*
X196990Y43027D01*
X196944Y43294D01*
X196827Y43460D01*
X196664Y43594D01*
X196500Y43627D01*
X196337Y43594D01*
X196127Y43460D01*
X196197Y44327D01*
X196827D01*
G01X198034Y43994D02*
X198174Y44194D01*
X198337Y44294D01*
X198524Y44327D01*
X198757Y44260D01*
X198920Y44094D01*
X198967Y43894D01*
X198944Y43694D01*
X198850Y43527D01*
X198384Y43194D01*
X198174Y42960D01*
X198034Y42627D01*
X197987Y42327D01*
X198967D01*
G01X198094Y51012D02*
Y49012D01*
X198374Y49412D01*
G01Y51012D02*
X197814D01*
G01X197057Y70469D02*
Y72469D01*
X196777Y72069D01*
G01Y70469D02*
X197337D01*
G01X198614Y72136D02*
X198754Y72336D01*
X198917Y72436D01*
X199104Y72469D01*
X199337Y72402D01*
X199500Y72236D01*
X199547Y72036D01*
X199524Y71836D01*
X199430Y71669D01*
X198964Y71336D01*
X198754Y71102D01*
X198614Y70769D01*
X198567Y70469D01*
X199547D01*
G01X197058Y144702D02*
Y146702D01*
X196195Y145269D01*
X197361D01*
G01X196521Y174305D02*
X196661Y174138D01*
X196824Y174038D01*
X197034Y174005D01*
X197244Y174072D01*
X197407Y174205D01*
X197524Y174438D01*
X197547Y174705D01*
X197501Y174972D01*
X197384Y175138D01*
X197221Y175272D01*
X197057Y175305D01*
X196894Y175272D01*
X196684Y175138D01*
X196754Y176005D01*
X197384D01*
G54D13*
G01X-4Y9993D02*
G03X9996Y-7I10000J0D01*
G01X189996D01*
G03X199996Y9993I0J10000D01*
G01Y189993D01*
G03X189996Y199993I-10000J0D01*
G01X9996D01*
G03X-4Y189993I0J-10000D01*
G01Y9993D01*
G01X64930Y87431D02*
X120048D01*
Y142549D01*
X66505D01*
X64930Y140974D01*
Y87431D01*
G54D14*
G01X-96613Y-154945D02*
X-96146Y-155278D01*
X-95621Y-155478D01*
X-95155D01*
X-94688Y-155278D01*
X-94338Y-154945D01*
X-94163Y-154478D01*
X-94280Y-154011D01*
X-94571Y-153611D01*
X-95096Y-153345D01*
X-95796Y-153211D01*
X-96205Y-152945D01*
X-96380Y-152478D01*
X-96263Y-152011D01*
X-95971Y-151678D01*
X-95563Y-151478D01*
X-95155D01*
X-94746Y-151611D01*
X-94396Y-151945D01*
G01X-91813Y-155478D02*
Y-151478D01*
G01X-89363D02*
Y-155478D01*
G01Y-153478D02*
X-91813D01*
G01X-84621Y-155478D02*
X-86955D01*
Y-151478D01*
X-84621D01*
G01X-85555Y-153411D02*
X-86955D01*
G01X-79821Y-155478D02*
X-82155D01*
Y-151478D01*
X-79821D01*
G01X-80755Y-153411D02*
X-82155D01*
G01X-76188Y-151478D02*
Y-155478D01*
G01X-77530Y-151478D02*
X-74846D01*
G01X-88388Y-136478D02*
X-88855Y-136411D01*
X-89263Y-136145D01*
X-89613Y-135745D01*
X-89846Y-135278D01*
X-89963Y-134745D01*
Y-134211D01*
X-89846Y-133678D01*
X-89613Y-133211D01*
X-89263Y-132811D01*
X-88855Y-132545D01*
X-88388Y-132478D01*
X-87921Y-132545D01*
X-87513Y-132811D01*
X-87163Y-133211D01*
X-86930Y-133678D01*
X-86813Y-134211D01*
Y-134745D01*
X-86930Y-135278D01*
X-87163Y-135745D01*
X-87513Y-136145D01*
X-87921Y-136411D01*
X-88388Y-136478D01*
G01X-84755D02*
Y-132478D01*
X-83296D01*
X-82830Y-132678D01*
X-82538Y-132945D01*
X-82421Y-133478D01*
X-82538Y-134011D01*
X-82888Y-134345D01*
X-83296Y-134545D01*
X-84755D01*
G01X-83296D02*
X-82421Y-136478D01*
G01X-74688Y-132478D02*
X-73288D01*
G01X-73988D02*
Y-136478D01*
G01X-74688D02*
X-73288D01*
G01X-70530D02*
Y-132478D01*
X-67846Y-136478D01*
Y-132478D01*
G01X-60755Y-136478D02*
Y-132478D01*
X-59355D01*
X-58888Y-132678D01*
X-58538Y-133145D01*
X-58421Y-133678D01*
X-58538Y-134211D01*
X-58830Y-134611D01*
X-59355Y-134811D01*
X-60755D01*
G01X-56246Y-136478D02*
X-54788Y-132478D01*
X-53330Y-136478D01*
G01X-53855Y-135078D02*
X-55721D01*
G01X-51155Y-136478D02*
Y-132478D01*
X-49696D01*
X-49230Y-132678D01*
X-48938Y-132945D01*
X-48821Y-133478D01*
X-48938Y-134011D01*
X-49288Y-134345D01*
X-49696Y-134545D01*
X-51155D01*
G01X-49696D02*
X-48821Y-136478D01*
G01X-45188Y-132478D02*
Y-136478D01*
G01X-46530Y-132478D02*
X-43846D01*
G01X-37338D02*
X-36521Y-136478D01*
X-35588Y-132478D01*
X-34655Y-136478D01*
X-33838Y-132478D01*
G01X-31488D02*
X-30088D01*
G01X-30788D02*
Y-136478D01*
G01X-31488D02*
X-30088D01*
G01X-25988Y-132478D02*
Y-136478D01*
G01X-27330Y-132478D02*
X-24646D01*
G01X-22413Y-136478D02*
Y-132478D01*
G01X-19963D02*
Y-136478D01*
G01Y-134478D02*
X-22413D01*
G01X-16388Y-136478D02*
X-16855Y-136411D01*
X-17263Y-136145D01*
X-17613Y-135745D01*
X-17846Y-135278D01*
X-17963Y-134745D01*
Y-134211D01*
X-17846Y-133678D01*
X-17613Y-133211D01*
X-17263Y-132811D01*
X-16855Y-132545D01*
X-16388Y-132478D01*
X-15921Y-132545D01*
X-15513Y-132811D01*
X-15163Y-133211D01*
X-14930Y-133678D01*
X-14813Y-134211D01*
Y-134745D01*
X-14930Y-135278D01*
X-15163Y-135745D01*
X-15513Y-136145D01*
X-15921Y-136411D01*
X-16388Y-136478D01*
G01X-12871Y-132478D02*
Y-135345D01*
X-12638Y-135945D01*
X-12171Y-136345D01*
X-11588Y-136478D01*
X-11005Y-136345D01*
X-10538Y-135945D01*
X-10305Y-135345D01*
Y-132478D01*
G01X-6788D02*
Y-136478D01*
G01X-8130Y-132478D02*
X-5446D01*
G01X2812D02*
Y-136478D01*
G01X1470Y-132478D02*
X4154D01*
G01X6387Y-136478D02*
Y-132478D01*
G01X8837D02*
Y-136478D01*
G01Y-134478D02*
X6387D01*
G01X13579Y-136478D02*
X11245D01*
Y-132478D01*
X13579D01*
G01X12645Y-134411D02*
X11245D01*
G01X23295Y-132811D02*
X22945Y-132611D01*
X22537Y-132478D01*
X22070D01*
X21545Y-132678D01*
X21137Y-133011D01*
X20845Y-133411D01*
X20612Y-134078D01*
X20554Y-134678D01*
X20670Y-135278D01*
X20845Y-135678D01*
X21195Y-136078D01*
X21604Y-136345D01*
X22012Y-136478D01*
X22420D01*
X22829Y-136345D01*
X23179Y-136145D01*
X23470Y-135878D01*
G01X26812Y-136478D02*
X26345Y-136411D01*
X25937Y-136145D01*
X25587Y-135745D01*
X25354Y-135278D01*
X25237Y-134745D01*
Y-134211D01*
X25354Y-133678D01*
X25587Y-133211D01*
X25937Y-132811D01*
X26345Y-132545D01*
X26812Y-132478D01*
X27279Y-132545D01*
X27687Y-132811D01*
X28037Y-133211D01*
X28270Y-133678D01*
X28387Y-134211D01*
Y-134745D01*
X28270Y-135278D01*
X28037Y-135745D01*
X27687Y-136145D01*
X27279Y-136411D01*
X26812Y-136478D01*
G01X30270D02*
Y-132478D01*
X32954Y-136478D01*
Y-132478D01*
G01X35187Y-135945D02*
X35654Y-136278D01*
X36179Y-136478D01*
X36645D01*
X37112Y-136278D01*
X37462Y-135945D01*
X37637Y-135478D01*
X37520Y-135011D01*
X37229Y-134611D01*
X36704Y-134345D01*
X36004Y-134211D01*
X35595Y-133945D01*
X35420Y-133478D01*
X35537Y-133011D01*
X35829Y-132678D01*
X36237Y-132478D01*
X36645D01*
X37054Y-132611D01*
X37404Y-132945D01*
G01X42379Y-136478D02*
X40045D01*
Y-132478D01*
X42379D01*
G01X41445Y-134411D02*
X40045D01*
G01X44670Y-136478D02*
Y-132478D01*
X47354Y-136478D01*
Y-132478D01*
G01X50812D02*
Y-136478D01*
G01X49470Y-132478D02*
X52154D01*
G01X60412Y-136478D02*
X59945Y-136411D01*
X59537Y-136145D01*
X59187Y-135745D01*
X58954Y-135278D01*
X58837Y-134745D01*
Y-134211D01*
X58954Y-133678D01*
X59187Y-133211D01*
X59537Y-132811D01*
X59945Y-132545D01*
X60412Y-132478D01*
X60879Y-132545D01*
X61287Y-132811D01*
X61637Y-133211D01*
X61870Y-133678D01*
X61987Y-134211D01*
Y-134745D01*
X61870Y-135278D01*
X61637Y-135745D01*
X61287Y-136145D01*
X60879Y-136411D01*
X60412Y-136478D01*
G01X64104D02*
Y-132478D01*
X66320D01*
G01X65504Y-134411D02*
X64104D01*
G01X-88730Y-144478D02*
Y-140478D01*
X-86046Y-144478D01*
Y-140478D01*
G01X-83813Y-144478D02*
X-81363Y-140478D01*
G01X-83813D02*
X-81363Y-144478D01*
G01X-78955D02*
Y-140478D01*
X-77555D01*
X-77088Y-140678D01*
X-76738Y-141145D01*
X-76621Y-141678D01*
X-76738Y-142211D01*
X-77030Y-142611D01*
X-77555Y-142811D01*
X-78955D01*
G01X-72988Y-144611D02*
X-73105Y-144545D01*
Y-144411D01*
X-72988Y-144345D01*
X-72871Y-144411D01*
Y-144545D01*
X-72988Y-144611D01*
G01X-87921Y-118345D02*
X-87688Y-118145D01*
X-87513Y-117811D01*
X-87396Y-117345D01*
X-87513Y-116945D01*
X-87746Y-116678D01*
X-88155Y-116478D01*
X-89730D01*
Y-120478D01*
X-87805D01*
X-87396Y-120211D01*
X-87163Y-119811D01*
X-87046Y-119345D01*
X-87163Y-118878D01*
X-87513Y-118478D01*
X-87921Y-118345D01*
X-89730D01*
G01X-82421Y-120478D02*
X-84755D01*
Y-116478D01*
X-82421D01*
G01X-83355Y-118411D02*
X-84755D01*
G01X-75271Y-116478D02*
Y-119345D01*
X-75038Y-119945D01*
X-74571Y-120345D01*
X-73988Y-120478D01*
X-73405Y-120345D01*
X-72938Y-119945D01*
X-72705Y-119345D01*
Y-116478D01*
G01X-70413Y-119945D02*
X-69946Y-120278D01*
X-69421Y-120478D01*
X-68955D01*
X-68488Y-120278D01*
X-68138Y-119945D01*
X-67963Y-119478D01*
X-68080Y-119011D01*
X-68371Y-118611D01*
X-68896Y-118345D01*
X-69596Y-118211D01*
X-70005Y-117945D01*
X-70180Y-117478D01*
X-70063Y-117011D01*
X-69771Y-116678D01*
X-69363Y-116478D01*
X-68955D01*
X-68546Y-116611D01*
X-68196Y-116945D01*
G01X-63221Y-120478D02*
X-65555D01*
Y-116478D01*
X-63221D01*
G01X-64155Y-118411D02*
X-65555D01*
G01X-60871Y-120478D02*
Y-116478D01*
X-59705D01*
X-59238Y-116678D01*
X-58888Y-116945D01*
X-58596Y-117345D01*
X-58363Y-117811D01*
X-58305Y-118478D01*
X-58363Y-119145D01*
X-58596Y-119611D01*
X-58888Y-120011D01*
X-59238Y-120278D01*
X-59705Y-120478D01*
X-60871D01*
G01X-51096D02*
Y-116478D01*
X-48880D01*
G01X-49696Y-118411D02*
X-51096D01*
G01X-45188Y-120478D02*
X-45655Y-120411D01*
X-46063Y-120145D01*
X-46413Y-119745D01*
X-46646Y-119278D01*
X-46763Y-118745D01*
Y-118211D01*
X-46646Y-117678D01*
X-46413Y-117211D01*
X-46063Y-116811D01*
X-45655Y-116545D01*
X-45188Y-116478D01*
X-44721Y-116545D01*
X-44313Y-116811D01*
X-43963Y-117211D01*
X-43730Y-117678D01*
X-43613Y-118211D01*
Y-118745D01*
X-43730Y-119278D01*
X-43963Y-119745D01*
X-44313Y-120145D01*
X-44721Y-120411D01*
X-45188Y-120478D01*
G01X-41555D02*
Y-116478D01*
X-40096D01*
X-39630Y-116678D01*
X-39338Y-116945D01*
X-39221Y-117478D01*
X-39338Y-118011D01*
X-39688Y-118345D01*
X-40096Y-118545D01*
X-41555D01*
G01X-40096D02*
X-39221Y-120478D01*
G01X-29621D02*
X-31955D01*
Y-116478D01*
X-29621D01*
G01X-30555Y-118411D02*
X-31955D01*
G01X-27330Y-120478D02*
Y-116478D01*
X-24646Y-120478D01*
Y-116478D01*
G01X-20838Y-118478D02*
X-19671D01*
Y-119678D01*
X-20021Y-120078D01*
X-20430Y-120345D01*
X-21013Y-120478D01*
X-21596Y-120345D01*
X-22005Y-120078D01*
X-22355Y-119678D01*
X-22588Y-119211D01*
X-22705Y-118678D01*
Y-118211D01*
X-22588Y-117811D01*
X-22355Y-117345D01*
X-22005Y-116945D01*
X-21655Y-116678D01*
X-21188Y-116478D01*
X-20780D01*
X-20313Y-116611D01*
X-19963Y-116878D01*
G01X-17088Y-116478D02*
X-15688D01*
G01X-16388D02*
Y-120478D01*
G01X-17088D02*
X-15688D01*
G01X-12930D02*
Y-116478D01*
X-10246Y-120478D01*
Y-116478D01*
G01X-5621Y-120478D02*
X-7955D01*
Y-116478D01*
X-5621D01*
G01X-6555Y-118411D02*
X-7955D01*
G01X-821Y-120478D02*
X-3155D01*
Y-116478D01*
X-821D01*
G01X-1755Y-118411D02*
X-3155D01*
G01X1645Y-120478D02*
Y-116478D01*
X3104D01*
X3570Y-116678D01*
X3862Y-116945D01*
X3979Y-117478D01*
X3862Y-118011D01*
X3512Y-118345D01*
X3104Y-118545D01*
X1645D01*
G01X3104D02*
X3979Y-120478D01*
G01X6912Y-116478D02*
X8312D01*
G01X7612D02*
Y-120478D01*
G01X6912D02*
X8312D01*
G01X11070D02*
Y-116478D01*
X13754Y-120478D01*
Y-116478D01*
G01X17562Y-118478D02*
X18729D01*
Y-119678D01*
X18379Y-120078D01*
X17970Y-120345D01*
X17387Y-120478D01*
X16804Y-120345D01*
X16395Y-120078D01*
X16045Y-119678D01*
X15812Y-119211D01*
X15695Y-118678D01*
Y-118211D01*
X15812Y-117811D01*
X16045Y-117345D01*
X16395Y-116945D01*
X16745Y-116678D01*
X17212Y-116478D01*
X17620D01*
X18087Y-116611D01*
X18437Y-116878D01*
G01X25529Y-120478D02*
Y-116478D01*
X26695D01*
X27162Y-116678D01*
X27512Y-116945D01*
X27804Y-117345D01*
X28037Y-117811D01*
X28095Y-118478D01*
X28037Y-119145D01*
X27804Y-119611D01*
X27512Y-120011D01*
X27162Y-120278D01*
X26695Y-120478D01*
X25529D01*
G01X32779D02*
X30445D01*
Y-116478D01*
X32779D01*
G01X31845Y-118411D02*
X30445D01*
G01X35187Y-119945D02*
X35654Y-120278D01*
X36179Y-120478D01*
X36645D01*
X37112Y-120278D01*
X37462Y-119945D01*
X37637Y-119478D01*
X37520Y-119011D01*
X37229Y-118611D01*
X36704Y-118345D01*
X36004Y-118211D01*
X35595Y-117945D01*
X35420Y-117478D01*
X35537Y-117011D01*
X35829Y-116678D01*
X36237Y-116478D01*
X36645D01*
X37054Y-116611D01*
X37404Y-116945D01*
G01X40512Y-116478D02*
X41912D01*
G01X41212D02*
Y-120478D01*
G01X40512D02*
X41912D01*
G01X46362Y-118478D02*
X47529D01*
Y-119678D01*
X47179Y-120078D01*
X46770Y-120345D01*
X46187Y-120478D01*
X45604Y-120345D01*
X45195Y-120078D01*
X44845Y-119678D01*
X44612Y-119211D01*
X44495Y-118678D01*
Y-118211D01*
X44612Y-117811D01*
X44845Y-117345D01*
X45195Y-116945D01*
X45545Y-116678D01*
X46012Y-116478D01*
X46420D01*
X46887Y-116611D01*
X47237Y-116878D01*
G01X49470Y-120478D02*
Y-116478D01*
X52154Y-120478D01*
Y-116478D01*
G01X-89555Y-128478D02*
Y-124478D01*
X-88155D01*
X-87688Y-124678D01*
X-87338Y-125145D01*
X-87221Y-125678D01*
X-87338Y-126211D01*
X-87630Y-126611D01*
X-88155Y-126811D01*
X-89555D01*
G01X-84755Y-128478D02*
Y-124478D01*
X-83296D01*
X-82830Y-124678D01*
X-82538Y-124945D01*
X-82421Y-125478D01*
X-82538Y-126011D01*
X-82888Y-126345D01*
X-83296Y-126545D01*
X-84755D01*
G01X-83296D02*
X-82421Y-128478D01*
G01X-78788D02*
X-79255Y-128411D01*
X-79663Y-128145D01*
X-80013Y-127745D01*
X-80246Y-127278D01*
X-80363Y-126745D01*
Y-126211D01*
X-80246Y-125678D01*
X-80013Y-125211D01*
X-79663Y-124811D01*
X-79255Y-124545D01*
X-78788Y-124478D01*
X-78321Y-124545D01*
X-77913Y-124811D01*
X-77563Y-125211D01*
X-77330Y-125678D01*
X-77213Y-126211D01*
Y-126745D01*
X-77330Y-127278D01*
X-77563Y-127745D01*
X-77913Y-128145D01*
X-78321Y-128411D01*
X-78788Y-128478D01*
G01X-72705Y-124811D02*
X-73055Y-124611D01*
X-73463Y-124478D01*
X-73930D01*
X-74455Y-124678D01*
X-74863Y-125011D01*
X-75155Y-125411D01*
X-75388Y-126078D01*
X-75446Y-126678D01*
X-75330Y-127278D01*
X-75155Y-127678D01*
X-74805Y-128078D01*
X-74396Y-128345D01*
X-73988Y-128478D01*
X-73580D01*
X-73171Y-128345D01*
X-72821Y-128145D01*
X-72530Y-127878D01*
G01X-70471Y-124478D02*
Y-127345D01*
X-70238Y-127945D01*
X-69771Y-128345D01*
X-69188Y-128478D01*
X-68605Y-128345D01*
X-68138Y-127945D01*
X-67905Y-127345D01*
Y-124478D01*
G01X-65555Y-128478D02*
Y-124478D01*
X-64096D01*
X-63630Y-124678D01*
X-63338Y-124945D01*
X-63221Y-125478D01*
X-63338Y-126011D01*
X-63688Y-126345D01*
X-64096Y-126545D01*
X-65555D01*
G01X-64096D02*
X-63221Y-128478D01*
G01X-58421D02*
X-60755D01*
Y-124478D01*
X-58421D01*
G01X-59355Y-126411D02*
X-60755D01*
G01X-56305Y-128478D02*
Y-124478D01*
X-54788Y-127811D01*
X-53271Y-124478D01*
Y-128478D01*
G01X-48821D02*
X-51155D01*
Y-124478D01*
X-48821D01*
G01X-49755Y-126411D02*
X-51155D01*
G01X-46530Y-128478D02*
Y-124478D01*
X-43846Y-128478D01*
Y-124478D01*
G01X-40388D02*
Y-128478D01*
G01X-41730Y-124478D02*
X-39046D01*
G01X-30788Y-128478D02*
X-31255Y-128411D01*
X-31663Y-128145D01*
X-32013Y-127745D01*
X-32246Y-127278D01*
X-32363Y-126745D01*
Y-126211D01*
X-32246Y-125678D01*
X-32013Y-125211D01*
X-31663Y-124811D01*
X-31255Y-124545D01*
X-30788Y-124478D01*
X-30321Y-124545D01*
X-29913Y-124811D01*
X-29563Y-125211D01*
X-29330Y-125678D01*
X-29213Y-126211D01*
Y-126745D01*
X-29330Y-127278D01*
X-29563Y-127745D01*
X-29913Y-128145D01*
X-30321Y-128411D01*
X-30788Y-128478D01*
G01X-27155D02*
Y-124478D01*
X-25696D01*
X-25230Y-124678D01*
X-24938Y-124945D01*
X-24821Y-125478D01*
X-24938Y-126011D01*
X-25288Y-126345D01*
X-25696Y-126545D01*
X-27155D01*
G01X-25696D02*
X-24821Y-128478D01*
G01X-17905D02*
Y-124478D01*
X-16388Y-127811D01*
X-14871Y-124478D01*
Y-128478D01*
G01X-13046D02*
X-11588Y-124478D01*
X-10130Y-128478D01*
G01X-10655Y-127078D02*
X-12521D01*
G01X-8130Y-128478D02*
Y-124478D01*
X-5446Y-128478D01*
Y-124478D01*
G01X-3271D02*
Y-127345D01*
X-3038Y-127945D01*
X-2571Y-128345D01*
X-1988Y-128478D01*
X-1405Y-128345D01*
X-938Y-127945D01*
X-705Y-127345D01*
Y-124478D01*
G01X1704Y-128478D02*
Y-124478D01*
X3920D01*
G01X3104Y-126411D02*
X1704D01*
G01X6154Y-128478D02*
X7612Y-124478D01*
X9070Y-128478D01*
G01X8545Y-127078D02*
X6679D01*
G01X13695Y-124811D02*
X13345Y-124611D01*
X12937Y-124478D01*
X12470D01*
X11945Y-124678D01*
X11537Y-125011D01*
X11245Y-125411D01*
X11012Y-126078D01*
X10954Y-126678D01*
X11070Y-127278D01*
X11245Y-127678D01*
X11595Y-128078D01*
X12004Y-128345D01*
X12412Y-128478D01*
X12820D01*
X13229Y-128345D01*
X13579Y-128145D01*
X13870Y-127878D01*
G01X17212Y-124478D02*
Y-128478D01*
G01X15870Y-124478D02*
X18554D01*
G01X20729D02*
Y-127345D01*
X20962Y-127945D01*
X21429Y-128345D01*
X22012Y-128478D01*
X22595Y-128345D01*
X23062Y-127945D01*
X23295Y-127345D01*
Y-124478D01*
G01X25645Y-128478D02*
Y-124478D01*
X27104D01*
X27570Y-124678D01*
X27862Y-124945D01*
X27979Y-125478D01*
X27862Y-126011D01*
X27512Y-126345D01*
X27104Y-126545D01*
X25645D01*
G01X27104D02*
X27979Y-128478D01*
G01X32779D02*
X30445D01*
Y-124478D01*
X32779D01*
G01X31845Y-126411D02*
X30445D01*
G01X40512Y-124478D02*
X41912D01*
G01X41212D02*
Y-128478D01*
G01X40512D02*
X41912D01*
G01X44670D02*
Y-124478D01*
X47354Y-128478D01*
Y-124478D01*
G01X53862D02*
X54679Y-128478D01*
X55612Y-124478D01*
X56545Y-128478D01*
X57362Y-124478D01*
G01X59187Y-128478D02*
Y-124478D01*
G01X61637D02*
Y-128478D01*
G01Y-126478D02*
X59187D01*
G01X65212Y-128478D02*
X64745Y-128411D01*
X64337Y-128145D01*
X63987Y-127745D01*
X63754Y-127278D01*
X63637Y-126745D01*
Y-126211D01*
X63754Y-125678D01*
X63987Y-125211D01*
X64337Y-124811D01*
X64745Y-124545D01*
X65212Y-124478D01*
X65679Y-124545D01*
X66087Y-124811D01*
X66437Y-125211D01*
X66670Y-125678D01*
X66787Y-126211D01*
Y-126745D01*
X66670Y-127278D01*
X66437Y-127745D01*
X66087Y-128145D01*
X65679Y-128411D01*
X65212Y-128478D01*
G01X68845Y-124478D02*
Y-128478D01*
X71179D01*
G01X75979D02*
X73645D01*
Y-124478D01*
X75979D01*
G01X75045Y-126411D02*
X73645D01*
G01X-89388Y-100478D02*
Y-104478D01*
G01X-90730Y-100478D02*
X-88046D01*
G01X-85813Y-104478D02*
Y-100478D01*
G01X-83363D02*
Y-104478D01*
G01Y-102478D02*
X-85813D01*
G01X-80488Y-100478D02*
X-79088D01*
G01X-79788D02*
Y-104478D01*
G01X-80488D02*
X-79088D01*
G01X-76213Y-103945D02*
X-75746Y-104278D01*
X-75221Y-104478D01*
X-74755D01*
X-74288Y-104278D01*
X-73938Y-103945D01*
X-73763Y-103478D01*
X-73880Y-103011D01*
X-74171Y-102611D01*
X-74696Y-102345D01*
X-75396Y-102211D01*
X-75805Y-101945D01*
X-75980Y-101478D01*
X-75863Y-101011D01*
X-75571Y-100678D01*
X-75163Y-100478D01*
X-74755D01*
X-74346Y-100611D01*
X-73996Y-100945D01*
G01X-66671Y-104478D02*
Y-100478D01*
X-65505D01*
X-65038Y-100678D01*
X-64688Y-100945D01*
X-64396Y-101345D01*
X-64163Y-101811D01*
X-64105Y-102478D01*
X-64163Y-103145D01*
X-64396Y-103611D01*
X-64688Y-104011D01*
X-65038Y-104278D01*
X-65505Y-104478D01*
X-66671D01*
G01X-60588D02*
X-61055Y-104411D01*
X-61463Y-104145D01*
X-61813Y-103745D01*
X-62046Y-103278D01*
X-62163Y-102745D01*
Y-102211D01*
X-62046Y-101678D01*
X-61813Y-101211D01*
X-61463Y-100811D01*
X-61055Y-100545D01*
X-60588Y-100478D01*
X-60121Y-100545D01*
X-59713Y-100811D01*
X-59363Y-101211D01*
X-59130Y-101678D01*
X-59013Y-102211D01*
Y-102745D01*
X-59130Y-103278D01*
X-59363Y-103745D01*
X-59713Y-104145D01*
X-60121Y-104411D01*
X-60588Y-104478D01*
G01X-54505Y-100811D02*
X-54855Y-100611D01*
X-55263Y-100478D01*
X-55730D01*
X-56255Y-100678D01*
X-56663Y-101011D01*
X-56955Y-101411D01*
X-57188Y-102078D01*
X-57246Y-102678D01*
X-57130Y-103278D01*
X-56955Y-103678D01*
X-56605Y-104078D01*
X-56196Y-104345D01*
X-55788Y-104478D01*
X-55380D01*
X-54971Y-104345D01*
X-54621Y-104145D01*
X-54330Y-103878D01*
G01X-52271Y-100478D02*
Y-103345D01*
X-52038Y-103945D01*
X-51571Y-104345D01*
X-50988Y-104478D01*
X-50405Y-104345D01*
X-49938Y-103945D01*
X-49705Y-103345D01*
Y-100478D01*
G01X-47705Y-104478D02*
Y-100478D01*
X-46188Y-103811D01*
X-44671Y-100478D01*
Y-104478D01*
G01X-40221D02*
X-42555D01*
Y-100478D01*
X-40221D01*
G01X-41155Y-102411D02*
X-42555D01*
G01X-37930Y-104478D02*
Y-100478D01*
X-35246Y-104478D01*
Y-100478D01*
G01X-31788D02*
Y-104478D01*
G01X-33130Y-100478D02*
X-30446D01*
G01X-20905Y-100811D02*
X-21255Y-100611D01*
X-21663Y-100478D01*
X-22130D01*
X-22655Y-100678D01*
X-23063Y-101011D01*
X-23355Y-101411D01*
X-23588Y-102078D01*
X-23646Y-102678D01*
X-23530Y-103278D01*
X-23355Y-103678D01*
X-23005Y-104078D01*
X-22596Y-104345D01*
X-22188Y-104478D01*
X-21780D01*
X-21371Y-104345D01*
X-21021Y-104145D01*
X-20730Y-103878D01*
G01X-17388Y-104478D02*
X-17855Y-104411D01*
X-18263Y-104145D01*
X-18613Y-103745D01*
X-18846Y-103278D01*
X-18963Y-102745D01*
Y-102211D01*
X-18846Y-101678D01*
X-18613Y-101211D01*
X-18263Y-100811D01*
X-17855Y-100545D01*
X-17388Y-100478D01*
X-16921Y-100545D01*
X-16513Y-100811D01*
X-16163Y-101211D01*
X-15930Y-101678D01*
X-15813Y-102211D01*
Y-102745D01*
X-15930Y-103278D01*
X-16163Y-103745D01*
X-16513Y-104145D01*
X-16921Y-104411D01*
X-17388Y-104478D01*
G01X-13930D02*
Y-100478D01*
X-11246Y-104478D01*
Y-100478D01*
G01X-7788D02*
Y-104478D01*
G01X-9130Y-100478D02*
X-6446D01*
G01X-4446Y-104478D02*
X-2988Y-100478D01*
X-1530Y-104478D01*
G01X-2055Y-103078D02*
X-3921D01*
G01X1112Y-100478D02*
X2512D01*
G01X1812D02*
Y-104478D01*
G01X1112D02*
X2512D01*
G01X5270D02*
Y-100478D01*
X7954Y-104478D01*
Y-100478D01*
G01X10187Y-103945D02*
X10654Y-104278D01*
X11179Y-104478D01*
X11645D01*
X12112Y-104278D01*
X12462Y-103945D01*
X12637Y-103478D01*
X12520Y-103011D01*
X12229Y-102611D01*
X11704Y-102345D01*
X11004Y-102211D01*
X10595Y-101945D01*
X10420Y-101478D01*
X10537Y-101011D01*
X10829Y-100678D01*
X11237Y-100478D01*
X11645D01*
X12054Y-100611D01*
X12404Y-100945D01*
G01X20312Y-100478D02*
X21712D01*
G01X21012D02*
Y-104478D01*
G01X20312D02*
X21712D01*
G01X24470D02*
Y-100478D01*
X27154Y-104478D01*
Y-100478D01*
G01X29504Y-104478D02*
Y-100478D01*
X31720D01*
G01X30904Y-102411D02*
X29504D01*
G01X35412Y-104478D02*
X34945Y-104411D01*
X34537Y-104145D01*
X34187Y-103745D01*
X33954Y-103278D01*
X33837Y-102745D01*
Y-102211D01*
X33954Y-101678D01*
X34187Y-101211D01*
X34537Y-100811D01*
X34945Y-100545D01*
X35412Y-100478D01*
X35879Y-100545D01*
X36287Y-100811D01*
X36637Y-101211D01*
X36870Y-101678D01*
X36987Y-102211D01*
Y-102745D01*
X36870Y-103278D01*
X36637Y-103745D01*
X36287Y-104145D01*
X35879Y-104411D01*
X35412Y-104478D01*
G01X39045D02*
Y-100478D01*
X40504D01*
X40970Y-100678D01*
X41262Y-100945D01*
X41379Y-101478D01*
X41262Y-102011D01*
X40912Y-102345D01*
X40504Y-102545D01*
X39045D01*
G01X40504D02*
X41379Y-104478D01*
G01X43495D02*
Y-100478D01*
X45012Y-103811D01*
X46529Y-100478D01*
Y-104478D01*
G01X48354D02*
X49812Y-100478D01*
X51270Y-104478D01*
G01X50745Y-103078D02*
X48879D01*
G01X54612Y-100478D02*
Y-104478D01*
G01X53270Y-100478D02*
X55954D01*
G01X58712D02*
X60112D01*
G01X59412D02*
Y-104478D01*
G01X58712D02*
X60112D01*
G01X64212D02*
X63745Y-104411D01*
X63337Y-104145D01*
X62987Y-103745D01*
X62754Y-103278D01*
X62637Y-102745D01*
Y-102211D01*
X62754Y-101678D01*
X62987Y-101211D01*
X63337Y-100811D01*
X63745Y-100545D01*
X64212Y-100478D01*
X64679Y-100545D01*
X65087Y-100811D01*
X65437Y-101211D01*
X65670Y-101678D01*
X65787Y-102211D01*
Y-102745D01*
X65670Y-103278D01*
X65437Y-103745D01*
X65087Y-104145D01*
X64679Y-104411D01*
X64212Y-104478D01*
G01X67670D02*
Y-100478D01*
X70354Y-104478D01*
Y-100478D01*
G01X-89555Y-112478D02*
Y-108478D01*
X-88155D01*
X-87688Y-108678D01*
X-87338Y-109145D01*
X-87221Y-109678D01*
X-87338Y-110211D01*
X-87630Y-110611D01*
X-88155Y-110811D01*
X-89555D01*
G01X-84755Y-112478D02*
Y-108478D01*
X-83296D01*
X-82830Y-108678D01*
X-82538Y-108945D01*
X-82421Y-109478D01*
X-82538Y-110011D01*
X-82888Y-110345D01*
X-83296Y-110545D01*
X-84755D01*
G01X-83296D02*
X-82421Y-112478D01*
G01X-78788D02*
X-79255Y-112411D01*
X-79663Y-112145D01*
X-80013Y-111745D01*
X-80246Y-111278D01*
X-80363Y-110745D01*
Y-110211D01*
X-80246Y-109678D01*
X-80013Y-109211D01*
X-79663Y-108811D01*
X-79255Y-108545D01*
X-78788Y-108478D01*
X-78321Y-108545D01*
X-77913Y-108811D01*
X-77563Y-109211D01*
X-77330Y-109678D01*
X-77213Y-110211D01*
Y-110745D01*
X-77330Y-111278D01*
X-77563Y-111745D01*
X-77913Y-112145D01*
X-78321Y-112411D01*
X-78788Y-112478D01*
G01X-75155D02*
Y-108478D01*
X-73755D01*
X-73288Y-108678D01*
X-72938Y-109145D01*
X-72821Y-109678D01*
X-72938Y-110211D01*
X-73230Y-110611D01*
X-73755Y-110811D01*
X-75155D01*
G01X-70355Y-112478D02*
Y-108478D01*
X-68896D01*
X-68430Y-108678D01*
X-68138Y-108945D01*
X-68021Y-109478D01*
X-68138Y-110011D01*
X-68488Y-110345D01*
X-68896Y-110545D01*
X-70355D01*
G01X-68896D02*
X-68021Y-112478D01*
G01X-65088Y-108478D02*
X-63688D01*
G01X-64388D02*
Y-112478D01*
G01X-65088D02*
X-63688D01*
G01X-58421D02*
X-60755D01*
Y-108478D01*
X-58421D01*
G01X-59355Y-110411D02*
X-60755D01*
G01X-54788Y-108478D02*
Y-112478D01*
G01X-56130Y-108478D02*
X-53446D01*
G01X-51446Y-112478D02*
X-49988Y-108478D01*
X-48530Y-112478D01*
G01X-49055Y-111078D02*
X-50921D01*
G01X-46355Y-112478D02*
Y-108478D01*
X-44896D01*
X-44430Y-108678D01*
X-44138Y-108945D01*
X-44021Y-109478D01*
X-44138Y-110011D01*
X-44488Y-110345D01*
X-44896Y-110545D01*
X-46355D01*
G01X-44896D02*
X-44021Y-112478D01*
G01X-40388D02*
Y-110678D01*
X-41555Y-108478D01*
G01X-39221D02*
X-40388Y-110678D01*
G01X-30788Y-108478D02*
Y-112478D01*
G01X-32130Y-108478D02*
X-29446D01*
G01X-25988Y-112478D02*
X-26455Y-112411D01*
X-26863Y-112145D01*
X-27213Y-111745D01*
X-27446Y-111278D01*
X-27563Y-110745D01*
Y-110211D01*
X-27446Y-109678D01*
X-27213Y-109211D01*
X-26863Y-108811D01*
X-26455Y-108545D01*
X-25988Y-108478D01*
X-25521Y-108545D01*
X-25113Y-108811D01*
X-24763Y-109211D01*
X-24530Y-109678D01*
X-24413Y-110211D01*
Y-110745D01*
X-24530Y-111278D01*
X-24763Y-111745D01*
X-25113Y-112145D01*
X-25521Y-112411D01*
X-25988Y-112478D01*
G01X-17730D02*
Y-108478D01*
X-15046Y-112478D01*
Y-108478D01*
G01X-12813Y-112478D02*
X-10363Y-108478D01*
G01X-12813D02*
X-10363Y-112478D01*
G01X-7955D02*
Y-108478D01*
X-6555D01*
X-6088Y-108678D01*
X-5738Y-109145D01*
X-5621Y-109678D01*
X-5738Y-110211D01*
X-6030Y-110611D01*
X-6555Y-110811D01*
X-7955D01*
G01X1354Y-112478D02*
X2812Y-108478D01*
X4270Y-112478D01*
G01X3745Y-111078D02*
X1879D01*
G01X6270Y-112478D02*
Y-108478D01*
X8954Y-112478D01*
Y-108478D01*
G01X11129Y-112478D02*
Y-108478D01*
X12295D01*
X12762Y-108678D01*
X13112Y-108945D01*
X13404Y-109345D01*
X13637Y-109811D01*
X13695Y-110478D01*
X13637Y-111145D01*
X13404Y-111611D01*
X13112Y-112011D01*
X12762Y-112278D01*
X12295Y-112478D01*
X11129D01*
G01X20787Y-111945D02*
X21254Y-112278D01*
X21779Y-112478D01*
X22245D01*
X22712Y-112278D01*
X23062Y-111945D01*
X23237Y-111478D01*
X23120Y-111011D01*
X22829Y-110611D01*
X22304Y-110345D01*
X21604Y-110211D01*
X21195Y-109945D01*
X21020Y-109478D01*
X21137Y-109011D01*
X21429Y-108678D01*
X21837Y-108478D01*
X22245D01*
X22654Y-108611D01*
X23004Y-108945D01*
G01X25587Y-112478D02*
Y-108478D01*
G01X28037D02*
Y-112478D01*
G01Y-110478D02*
X25587D01*
G01X30154Y-112478D02*
X31612Y-108478D01*
X33070Y-112478D01*
G01X32545Y-111078D02*
X30679D01*
G01X35245Y-108478D02*
Y-112478D01*
X37579D01*
G01X40045Y-108478D02*
Y-112478D01*
X42379D01*
G01X49470D02*
Y-108478D01*
X52154Y-112478D01*
Y-108478D01*
G01X55612Y-112478D02*
X55145Y-112411D01*
X54737Y-112145D01*
X54387Y-111745D01*
X54154Y-111278D01*
X54037Y-110745D01*
Y-110211D01*
X54154Y-109678D01*
X54387Y-109211D01*
X54737Y-108811D01*
X55145Y-108545D01*
X55612Y-108478D01*
X56079Y-108545D01*
X56487Y-108811D01*
X56837Y-109211D01*
X57070Y-109678D01*
X57187Y-110211D01*
Y-110745D01*
X57070Y-111278D01*
X56837Y-111745D01*
X56487Y-112145D01*
X56079Y-112411D01*
X55612Y-112478D01*
G01X60412Y-108478D02*
Y-112478D01*
G01X59070Y-108478D02*
X61754D01*
G01X-96496Y-85811D02*
X-96088Y-85345D01*
X-95738Y-85078D01*
X-95271Y-84945D01*
X-94863Y-85078D01*
X-94571Y-85345D01*
X-94338Y-85745D01*
X-94280Y-86211D01*
X-94338Y-86611D01*
X-94571Y-87011D01*
X-94921Y-87345D01*
X-95330Y-87478D01*
X-95796Y-87345D01*
X-96205Y-86945D01*
X-96438Y-86345D01*
X-96496Y-85678D01*
X-96380Y-84811D01*
X-96205Y-84345D01*
X-95913Y-83878D01*
X-95505Y-83545D01*
X-95096Y-83478D01*
X-94688Y-83611D01*
X-94396Y-83945D01*
G01X-91871Y-86878D02*
X-91521Y-87211D01*
X-91113Y-87411D01*
X-90588Y-87478D01*
X-90063Y-87345D01*
X-89655Y-87078D01*
X-89363Y-86611D01*
X-89305Y-86078D01*
X-89421Y-85545D01*
X-89713Y-85211D01*
X-90121Y-84945D01*
X-90530Y-84878D01*
X-90938Y-84945D01*
X-91463Y-85211D01*
X-91288Y-83478D01*
X-89713D01*
G01X-85788D02*
X-86255Y-83611D01*
X-86605Y-83945D01*
X-86838Y-84345D01*
X-87013Y-84878D01*
X-87071Y-85478D01*
X-87013Y-86078D01*
X-86838Y-86611D01*
X-86605Y-87011D01*
X-86255Y-87345D01*
X-85788Y-87478D01*
X-85321Y-87345D01*
X-84971Y-87011D01*
X-84738Y-86611D01*
X-84563Y-86078D01*
X-84505Y-85478D01*
X-84563Y-84878D01*
X-84738Y-84345D01*
X-84971Y-83945D01*
X-85321Y-83611D01*
X-85788Y-83478D01*
G01X-80988Y-87478D02*
Y-83478D01*
X-81688Y-84278D01*
G01Y-87478D02*
X-80288D01*
G01X-73138Y-83478D02*
X-72321Y-87478D01*
X-71388Y-83478D01*
X-70455Y-87478D01*
X-69638Y-83478D01*
G01X-67288D02*
X-65888D01*
G01X-66588D02*
Y-87478D01*
G01X-67288D02*
X-65888D01*
G01X-62955Y-83478D02*
Y-87478D01*
X-60621D01*
G01X-58155Y-83478D02*
Y-87478D01*
X-55821D01*
G01X-52888Y-83478D02*
X-51488D01*
G01X-52188D02*
Y-87478D01*
G01X-52888D02*
X-51488D01*
G01X-48846D02*
X-47388Y-83478D01*
X-45930Y-87478D01*
G01X-46455Y-86078D02*
X-48321D01*
G01X-44105Y-87478D02*
Y-83478D01*
X-42588Y-86811D01*
X-41071Y-83478D01*
Y-87478D01*
G01X-31705Y-83811D02*
X-32055Y-83611D01*
X-32463Y-83478D01*
X-32930D01*
X-33455Y-83678D01*
X-33863Y-84011D01*
X-34155Y-84411D01*
X-34388Y-85078D01*
X-34446Y-85678D01*
X-34330Y-86278D01*
X-34155Y-86678D01*
X-33805Y-87078D01*
X-33396Y-87345D01*
X-32988Y-87478D01*
X-32580D01*
X-32171Y-87345D01*
X-31821Y-87145D01*
X-31530Y-86878D01*
G01X-29646Y-87478D02*
X-28188Y-83478D01*
X-26730Y-87478D01*
G01X-27255Y-86078D02*
X-29121D01*
G01X-24730Y-87478D02*
Y-83478D01*
X-22046Y-87478D01*
Y-83478D01*
G01X-19930Y-87478D02*
Y-83478D01*
X-17246Y-87478D01*
Y-83478D01*
G01X-13788Y-87478D02*
X-14255Y-87411D01*
X-14663Y-87145D01*
X-15013Y-86745D01*
X-15246Y-86278D01*
X-15363Y-85745D01*
Y-85211D01*
X-15246Y-84678D01*
X-15013Y-84211D01*
X-14663Y-83811D01*
X-14255Y-83545D01*
X-13788Y-83478D01*
X-13321Y-83545D01*
X-12913Y-83811D01*
X-12563Y-84211D01*
X-12330Y-84678D01*
X-12213Y-85211D01*
Y-85745D01*
X-12330Y-86278D01*
X-12563Y-86745D01*
X-12913Y-87145D01*
X-13321Y-87411D01*
X-13788Y-87478D01*
G01X-10330D02*
Y-83478D01*
X-7646Y-87478D01*
Y-83478D01*
G01X-671Y-87478D02*
Y-83478D01*
X495D01*
X962Y-83678D01*
X1312Y-83945D01*
X1604Y-84345D01*
X1837Y-84811D01*
X1895Y-85478D01*
X1837Y-86145D01*
X1604Y-86611D01*
X1312Y-87011D01*
X962Y-87278D01*
X495Y-87478D01*
X-671D01*
G01X4245D02*
Y-83478D01*
X5704D01*
X6170Y-83678D01*
X6462Y-83945D01*
X6579Y-84478D01*
X6462Y-85011D01*
X6112Y-85345D01*
X5704Y-85545D01*
X4245D01*
G01X5704D02*
X6579Y-87478D01*
G01X9512Y-83478D02*
X10912D01*
G01X10212D02*
Y-87478D01*
G01X9512D02*
X10912D01*
G01X13554Y-83478D02*
X15012Y-87478D01*
X16470Y-83478D01*
G01X20979Y-87478D02*
X18645D01*
Y-83478D01*
X20979D01*
G01X20045Y-85411D02*
X18645D01*
G01X27662Y-83478D02*
X28479Y-87478D01*
X29412Y-83478D01*
X30345Y-87478D01*
X31162Y-83478D01*
G01X35379Y-87478D02*
X33045D01*
Y-83478D01*
X35379D01*
G01X34445Y-85411D02*
X33045D01*
G01X37787Y-86945D02*
X38254Y-87278D01*
X38779Y-87478D01*
X39245D01*
X39712Y-87278D01*
X40062Y-86945D01*
X40237Y-86478D01*
X40120Y-86011D01*
X39829Y-85611D01*
X39304Y-85345D01*
X38604Y-85211D01*
X38195Y-84945D01*
X38020Y-84478D01*
X38137Y-84011D01*
X38429Y-83678D01*
X38837Y-83478D01*
X39245D01*
X39654Y-83611D01*
X40004Y-83945D01*
G01X43812Y-83478D02*
Y-87478D01*
G01X42470Y-83478D02*
X45154D01*
G01X-96846Y-94478D02*
X-95388Y-90478D01*
X-93930Y-94478D01*
G01X-94455Y-93078D02*
X-96321D01*
G01X-91871Y-90478D02*
Y-93345D01*
X-91638Y-93945D01*
X-91171Y-94345D01*
X-90588Y-94478D01*
X-90005Y-94345D01*
X-89538Y-93945D01*
X-89305Y-93345D01*
Y-90478D01*
G01X-87013Y-93945D02*
X-86546Y-94278D01*
X-86021Y-94478D01*
X-85555D01*
X-85088Y-94278D01*
X-84738Y-93945D01*
X-84563Y-93478D01*
X-84680Y-93011D01*
X-84971Y-92611D01*
X-85496Y-92345D01*
X-86196Y-92211D01*
X-86605Y-91945D01*
X-86780Y-91478D01*
X-86663Y-91011D01*
X-86371Y-90678D01*
X-85963Y-90478D01*
X-85555D01*
X-85146Y-90611D01*
X-84796Y-90945D01*
G01X-80988Y-90478D02*
Y-94478D01*
G01X-82330Y-90478D02*
X-79646D01*
G01X-76888D02*
X-75488D01*
G01X-76188D02*
Y-94478D01*
G01X-76888D02*
X-75488D01*
G01X-72730D02*
Y-90478D01*
X-70046Y-94478D01*
Y-90478D01*
G01X-66588Y-94611D02*
X-66705Y-94545D01*
Y-94411D01*
X-66588Y-94345D01*
X-66471Y-94411D01*
Y-94545D01*
X-66588Y-94611D01*
G01X-56988Y-90478D02*
Y-94478D01*
G01X-58330Y-90478D02*
X-55646D01*
G01X-51021Y-94478D02*
X-53355D01*
Y-90478D01*
X-51021D01*
G01X-51955Y-92411D02*
X-53355D01*
G01X-48613Y-94478D02*
X-46163Y-90478D01*
G01X-48613D02*
X-46163Y-94478D01*
G01X-44046D02*
X-42588Y-90478D01*
X-41130Y-94478D01*
G01X-41655Y-93078D02*
X-43521D01*
G01X-39013Y-93945D02*
X-38546Y-94278D01*
X-38021Y-94478D01*
X-37555D01*
X-37088Y-94278D01*
X-36738Y-93945D01*
X-36563Y-93478D01*
X-36680Y-93011D01*
X-36971Y-92611D01*
X-37496Y-92345D01*
X-38196Y-92211D01*
X-38605Y-91945D01*
X-38780Y-91478D01*
X-38663Y-91011D01*
X-38371Y-90678D01*
X-37963Y-90478D01*
X-37555D01*
X-37146Y-90611D01*
X-36796Y-90945D01*
G01X-28305Y-94478D02*
X-28188Y-93611D01*
X-28013Y-92878D01*
X-27780Y-92211D01*
X-27488Y-91478D01*
X-27021Y-90478D01*
X-29355D01*
G01X-23388Y-94478D02*
X-22980Y-94411D01*
X-22513Y-94211D01*
X-22221Y-93878D01*
X-22105Y-93411D01*
X-22221Y-92945D01*
X-22571Y-92545D01*
X-23096Y-92345D01*
X-23680D01*
X-24030Y-92211D01*
X-24321Y-91878D01*
X-24438Y-91411D01*
X-24263Y-90945D01*
X-23855Y-90611D01*
X-23388Y-90478D01*
X-22921Y-90611D01*
X-22513Y-90945D01*
X-22338Y-91411D01*
X-22455Y-91878D01*
X-22746Y-92211D01*
X-23096Y-92345D01*
X-23680D01*
X-24205Y-92545D01*
X-24555Y-92945D01*
X-24671Y-93411D01*
X-24555Y-93878D01*
X-24263Y-94211D01*
X-23796Y-94411D01*
X-23388Y-94478D01*
G01X-18705D02*
X-18588Y-93611D01*
X-18413Y-92878D01*
X-18180Y-92211D01*
X-17888Y-91478D01*
X-17421Y-90478D01*
X-19755D01*
G01X-15071Y-93678D02*
X-14721Y-94145D01*
X-14255Y-94411D01*
X-13730Y-94478D01*
X-13263Y-94411D01*
X-12796Y-94078D01*
X-12505Y-93678D01*
X-12446Y-93278D01*
X-12563Y-92811D01*
X-12971Y-92478D01*
X-13380Y-92345D01*
X-13905D01*
G01X-13380D02*
X-13030Y-92145D01*
X-12738Y-91811D01*
X-12621Y-91411D01*
X-12738Y-91011D01*
X-13030Y-90678D01*
X-13555Y-90478D01*
X-14080Y-90545D01*
X-14605Y-90811D01*
G01X-10271Y-93878D02*
X-9921Y-94211D01*
X-9513Y-94411D01*
X-8988Y-94478D01*
X-8463Y-94345D01*
X-8055Y-94078D01*
X-7763Y-93611D01*
X-7705Y-93078D01*
X-7821Y-92545D01*
X-8113Y-92211D01*
X-8521Y-91945D01*
X-8930Y-91878D01*
X-9338Y-91945D01*
X-9863Y-92211D01*
X-9688Y-90478D01*
X-8113D01*
G01X-671D02*
Y-93345D01*
X-438Y-93945D01*
X29Y-94345D01*
X612Y-94478D01*
X1195Y-94345D01*
X1662Y-93945D01*
X1895Y-93345D01*
Y-90478D01*
G01X4187Y-93945D02*
X4654Y-94278D01*
X5179Y-94478D01*
X5645D01*
X6112Y-94278D01*
X6462Y-93945D01*
X6637Y-93478D01*
X6520Y-93011D01*
X6229Y-92611D01*
X5704Y-92345D01*
X5004Y-92211D01*
X4595Y-91945D01*
X4420Y-91478D01*
X4537Y-91011D01*
X4829Y-90678D01*
X5237Y-90478D01*
X5645D01*
X6054Y-90611D01*
X6404Y-90945D01*
G01X8754Y-94478D02*
X10212Y-90478D01*
X11670Y-94478D01*
G01X11145Y-93078D02*
X9279D01*
G01X-93985Y-78478D02*
Y-70978D01*
X-89691Y-78478D01*
Y-70978D01*
G01X-86298Y-78478D02*
X-82378Y-70978D01*
G01X-86298D02*
X-82378Y-78478D01*
G01X-78705D02*
Y-70978D01*
X-76465D01*
X-75718Y-71353D01*
X-75158Y-72228D01*
X-74971Y-73228D01*
X-75158Y-74228D01*
X-75625Y-74978D01*
X-76465Y-75353D01*
X-78705D01*
G01X-63798Y-77478D02*
X-63051Y-78103D01*
X-62211Y-78478D01*
X-61465D01*
X-60718Y-78103D01*
X-60158Y-77478D01*
X-59878Y-76603D01*
X-60065Y-75728D01*
X-60531Y-74978D01*
X-61371Y-74478D01*
X-62491Y-74228D01*
X-63145Y-73728D01*
X-63425Y-72853D01*
X-63238Y-71978D01*
X-62771Y-71353D01*
X-62118Y-70978D01*
X-61465D01*
X-60811Y-71228D01*
X-60251Y-71853D01*
G01X-52471Y-78478D02*
X-56205D01*
Y-70978D01*
X-52471D01*
G01X-53965Y-74603D02*
X-56205D01*
G01X-49265Y-78478D02*
Y-70978D01*
X-46838Y-77228D01*
X-44411Y-70978D01*
Y-78478D01*
G01X-40458Y-70978D02*
X-38218D01*
G01X-39338D02*
Y-78478D01*
G01X-40458D02*
X-38218D01*
G01X-29785Y-71603D02*
X-30345Y-71228D01*
X-30998Y-70978D01*
X-31745D01*
X-32585Y-71353D01*
X-33238Y-71978D01*
X-33705Y-72728D01*
X-34078Y-73978D01*
X-34171Y-75103D01*
X-33985Y-76228D01*
X-33705Y-76978D01*
X-33145Y-77728D01*
X-32491Y-78228D01*
X-31838Y-78478D01*
X-31185D01*
X-30531Y-78228D01*
X-29971Y-77853D01*
X-29505Y-77353D01*
G01X-24338Y-78478D02*
X-25085Y-78353D01*
X-25738Y-77853D01*
X-26298Y-77103D01*
X-26671Y-76228D01*
X-26858Y-75228D01*
Y-74228D01*
X-26671Y-73228D01*
X-26298Y-72353D01*
X-25738Y-71603D01*
X-25085Y-71103D01*
X-24338Y-70978D01*
X-23591Y-71103D01*
X-22938Y-71603D01*
X-22378Y-72353D01*
X-22005Y-73228D01*
X-21818Y-74228D01*
Y-75228D01*
X-22005Y-76228D01*
X-22378Y-77103D01*
X-22938Y-77853D01*
X-23591Y-78353D01*
X-24338Y-78478D01*
G01X-18985D02*
Y-70978D01*
X-14691Y-78478D01*
Y-70978D01*
G01X-11391Y-78478D02*
Y-70978D01*
X-9525D01*
X-8778Y-71353D01*
X-8218Y-71853D01*
X-7751Y-72603D01*
X-7378Y-73478D01*
X-7285Y-74728D01*
X-7378Y-75978D01*
X-7751Y-76853D01*
X-8218Y-77603D01*
X-8778Y-78103D01*
X-9525Y-78478D01*
X-11391D01*
G01X-3891Y-70978D02*
Y-76353D01*
X-3518Y-77478D01*
X-2771Y-78228D01*
X-1838Y-78478D01*
X-905Y-78228D01*
X-158Y-77478D01*
X215Y-76353D01*
Y-70978D01*
G01X7715Y-71603D02*
X7155Y-71228D01*
X6502Y-70978D01*
X5755D01*
X4915Y-71353D01*
X4262Y-71978D01*
X3795Y-72728D01*
X3422Y-73978D01*
X3329Y-75103D01*
X3515Y-76228D01*
X3795Y-76978D01*
X4355Y-77728D01*
X5009Y-78228D01*
X5662Y-78478D01*
X6315D01*
X6969Y-78228D01*
X7529Y-77853D01*
X7995Y-77353D01*
G01X13162Y-70978D02*
Y-78478D01*
G01X11015Y-70978D02*
X15309D01*
G01X20662Y-78478D02*
X19915Y-78353D01*
X19262Y-77853D01*
X18702Y-77103D01*
X18329Y-76228D01*
X18142Y-75228D01*
Y-74228D01*
X18329Y-73228D01*
X18702Y-72353D01*
X19262Y-71603D01*
X19915Y-71103D01*
X20662Y-70978D01*
X21409Y-71103D01*
X22062Y-71603D01*
X22622Y-72353D01*
X22995Y-73228D01*
X23182Y-74228D01*
Y-75228D01*
X22995Y-76228D01*
X22622Y-77103D01*
X22062Y-77853D01*
X21409Y-78353D01*
X20662Y-78478D01*
G01X26295D02*
Y-70978D01*
X28629D01*
X29375Y-71353D01*
X29842Y-71853D01*
X30029Y-72853D01*
X29842Y-73853D01*
X29282Y-74478D01*
X28629Y-74853D01*
X26295D01*
G01X28629D02*
X30029Y-78478D01*
G01X33702Y-77478D02*
X34449Y-78103D01*
X35289Y-78478D01*
X36035D01*
X36782Y-78103D01*
X37342Y-77478D01*
X37622Y-76603D01*
X37435Y-75728D01*
X36969Y-74978D01*
X36129Y-74478D01*
X35009Y-74228D01*
X34355Y-73728D01*
X34075Y-72853D01*
X34262Y-71978D01*
X34729Y-71353D01*
X35382Y-70978D01*
X36035D01*
X36689Y-71228D01*
X37249Y-71853D01*
G01X-46496Y-155478D02*
Y-151478D01*
X-44280D01*
G01X-45096Y-153411D02*
X-46496D01*
G01X-41288Y-151478D02*
X-39888D01*
G01X-40588D02*
Y-155478D01*
G01X-41288D02*
X-39888D01*
G01X-36955Y-151478D02*
Y-155478D01*
X-34621D01*
G01X-32505D02*
Y-151478D01*
X-30988Y-154811D01*
X-29471Y-151478D01*
Y-155478D01*
G01X2072Y99928D02*
X-1077D01*
G01X2072Y115676D02*
X-1077D01*
G01X2072Y131424D02*
X-1077D01*
G01X16815Y19947D02*
X5398D01*
Y13056D01*
X17799D01*
Y18963D01*
X16815Y19947D01*
G01X5218Y94613D02*
Y142250D01*
X9155Y146187D01*
X44982D01*
Y94613D01*
X5218D01*
G01X14080Y144022D02*
G03I-1574J0D01*
G01X33067Y19917D02*
Y15783D01*
X30901D01*
Y19917D01*
X33067D01*
G01X36765D02*
Y15783D01*
X34599D01*
Y19917D01*
X36765D01*
G01X25955Y9876D02*
X30089D01*
Y7710D01*
X25955D01*
Y9876D01*
G01X39984Y22000D02*
G03I-984J0D01*
G01X40475Y15452D02*
Y12972D01*
X39175D01*
Y15452D01*
X40475D01*
G01X53649Y29343D02*
Y56903D01*
X26089D01*
Y31312D01*
X28058Y29343D01*
X53649D01*
G01X40489Y167290D02*
G03I-2500J0D01*
G01X54406Y22482D02*
Y26616D01*
X56572D01*
Y22482D01*
X54406D01*
G01X50559Y24400D02*
X48079D01*
Y25700D01*
X50559D01*
Y24400D01*
G01X58890Y113193D02*
G03I-984J0D01*
G01X57906Y22482D02*
Y26616D01*
X60072D01*
Y22482D01*
X57906D01*
G01X59317Y15452D02*
Y12972D01*
X58017D01*
Y15452D01*
X59317D01*
G01X72556Y65767D02*
X68422D01*
Y67933D01*
X72556D01*
Y65767D01*
G01Y69267D02*
X68422D01*
Y71433D01*
X72556D01*
Y69267D01*
G01X68422Y64433D02*
X72556D01*
Y62267D01*
X68422D01*
Y64433D01*
G01X62284Y117200D02*
G03I-984J0D01*
G01X65435Y183991D02*
Y186471D01*
X66735D01*
Y183991D01*
X65435D01*
G01X61135D02*
Y186471D01*
X62435D01*
Y183991D01*
X61135D01*
G01X73935D02*
Y186471D01*
X75235D01*
Y183991D01*
X73935D01*
G01X69639D02*
Y186471D01*
X70939D01*
Y183991D01*
X69639D01*
G01X81612Y-163478D02*
Y-159478D01*
X80912Y-160278D01*
G01Y-163478D02*
X82312D01*
G01X86412D02*
X86820Y-163411D01*
X87287Y-163211D01*
X87579Y-162878D01*
X87695Y-162411D01*
X87579Y-161945D01*
X87229Y-161545D01*
X86704Y-161345D01*
X86120D01*
X85770Y-161211D01*
X85479Y-160878D01*
X85362Y-160411D01*
X85537Y-159945D01*
X85945Y-159611D01*
X86412Y-159478D01*
X86879Y-159611D01*
X87287Y-159945D01*
X87462Y-160411D01*
X87345Y-160878D01*
X87054Y-161211D01*
X86704Y-161345D01*
X86120D01*
X85595Y-161545D01*
X85245Y-161945D01*
X85129Y-162411D01*
X85245Y-162878D01*
X85537Y-163211D01*
X86004Y-163411D01*
X86412Y-163478D01*
G01X90454Y-162145D02*
X91970D01*
G01X96012Y-159478D02*
X95545Y-159611D01*
X95195Y-159945D01*
X94962Y-160345D01*
X94787Y-160878D01*
X94729Y-161478D01*
X94787Y-162078D01*
X94962Y-162611D01*
X95195Y-163011D01*
X95545Y-163345D01*
X96012Y-163478D01*
X96479Y-163345D01*
X96829Y-163011D01*
X97062Y-162611D01*
X97237Y-162078D01*
X97295Y-161478D01*
X97237Y-160878D01*
X97062Y-160345D01*
X96829Y-159945D01*
X96479Y-159611D01*
X96012Y-159478D01*
G01X99529Y-162678D02*
X99879Y-163145D01*
X100345Y-163411D01*
X100870Y-163478D01*
X101337Y-163411D01*
X101804Y-163078D01*
X102095Y-162678D01*
X102154Y-162278D01*
X102037Y-161811D01*
X101629Y-161478D01*
X101220Y-161345D01*
X100695D01*
G01X101220D02*
X101570Y-161145D01*
X101862Y-160811D01*
X101979Y-160411D01*
X101862Y-160011D01*
X101570Y-159678D01*
X101045Y-159478D01*
X100520Y-159545D01*
X99995Y-159811D01*
G01X104854Y-162145D02*
X106370D01*
G01X110412Y-163478D02*
Y-159478D01*
X109712Y-160278D01*
G01Y-163478D02*
X111112D01*
G01X114220Y-163011D02*
X114629Y-163345D01*
X115095Y-163478D01*
X115562Y-163345D01*
X115970Y-162945D01*
X116262Y-162345D01*
X116379Y-161745D01*
Y-161011D01*
X116262Y-160411D01*
X115970Y-159878D01*
X115620Y-159611D01*
X115212Y-159478D01*
X114745Y-159611D01*
X114395Y-159878D01*
X114162Y-160278D01*
X114045Y-160811D01*
X114162Y-161278D01*
X114454Y-161745D01*
X114804Y-162011D01*
X115212Y-162078D01*
X115679Y-161945D01*
X116029Y-161611D01*
X116379Y-161011D01*
G01X78329Y-155478D02*
Y-151478D01*
X79495D01*
X79962Y-151678D01*
X80312Y-151945D01*
X80604Y-152345D01*
X80837Y-152811D01*
X80895Y-153478D01*
X80837Y-154145D01*
X80604Y-154611D01*
X80312Y-155011D01*
X79962Y-155278D01*
X79495Y-155478D01*
X78329D01*
G01X82954D02*
X84412Y-151478D01*
X85870Y-155478D01*
G01X85345Y-154078D02*
X83479D01*
G01X89212Y-151478D02*
Y-155478D01*
G01X87870Y-151478D02*
X90554D01*
G01X95179Y-155478D02*
X92845D01*
Y-151478D01*
X95179D01*
G01X94245Y-153411D02*
X92845D01*
G01X87862Y-141311D02*
X91362D01*
G01X92662D02*
X96162D01*
G01X97462D02*
X100962D01*
G01X110095Y-136311D02*
X109745Y-136111D01*
X109337Y-135978D01*
X108870D01*
X108345Y-136178D01*
X107937Y-136511D01*
X107645Y-136911D01*
X107412Y-137578D01*
X107354Y-138178D01*
X107470Y-138778D01*
X107645Y-139178D01*
X107995Y-139578D01*
X108404Y-139845D01*
X108812Y-139978D01*
X109220D01*
X109629Y-139845D01*
X109979Y-139645D01*
X110270Y-139378D01*
G01X113612Y-139978D02*
X113145Y-139911D01*
X112737Y-139645D01*
X112387Y-139245D01*
X112154Y-138778D01*
X112037Y-138245D01*
Y-137711D01*
X112154Y-137178D01*
X112387Y-136711D01*
X112737Y-136311D01*
X113145Y-136045D01*
X113612Y-135978D01*
X114079Y-136045D01*
X114487Y-136311D01*
X114837Y-136711D01*
X115070Y-137178D01*
X115187Y-137711D01*
Y-138245D01*
X115070Y-138778D01*
X114837Y-139245D01*
X114487Y-139645D01*
X114079Y-139911D01*
X113612Y-139978D01*
G01X116895D02*
Y-135978D01*
X118412Y-139311D01*
X119929Y-135978D01*
Y-139978D01*
G01X122045D02*
Y-135978D01*
X123445D01*
X123912Y-136178D01*
X124262Y-136645D01*
X124379Y-137178D01*
X124262Y-137711D01*
X123970Y-138111D01*
X123445Y-138311D01*
X122045D01*
G01X126554Y-139978D02*
X128012Y-135978D01*
X129470Y-139978D01*
G01X128945Y-138578D02*
X127079D01*
G01X131470Y-139978D02*
Y-135978D01*
X134154Y-139978D01*
Y-135978D01*
G01X137612Y-139978D02*
Y-138178D01*
X136445Y-135978D01*
G01X138779D02*
X137612Y-138178D01*
G01X148495Y-136311D02*
X148145Y-136111D01*
X147737Y-135978D01*
X147270D01*
X146745Y-136178D01*
X146337Y-136511D01*
X146045Y-136911D01*
X145812Y-137578D01*
X145754Y-138178D01*
X145870Y-138778D01*
X146045Y-139178D01*
X146395Y-139578D01*
X146804Y-139845D01*
X147212Y-139978D01*
X147620D01*
X148029Y-139845D01*
X148379Y-139645D01*
X148670Y-139378D01*
G01X152012Y-139978D02*
X151545Y-139911D01*
X151137Y-139645D01*
X150787Y-139245D01*
X150554Y-138778D01*
X150437Y-138245D01*
Y-137711D01*
X150554Y-137178D01*
X150787Y-136711D01*
X151137Y-136311D01*
X151545Y-136045D01*
X152012Y-135978D01*
X152479Y-136045D01*
X152887Y-136311D01*
X153237Y-136711D01*
X153470Y-137178D01*
X153587Y-137711D01*
Y-138245D01*
X153470Y-138778D01*
X153237Y-139245D01*
X152887Y-139645D01*
X152479Y-139911D01*
X152012Y-139978D01*
G01X155470D02*
Y-135978D01*
X158154Y-139978D01*
Y-135978D01*
G01X160504Y-139978D02*
Y-135978D01*
X162720D01*
G01X161904Y-137911D02*
X160504D01*
G01X165712Y-135978D02*
X167112D01*
G01X166412D02*
Y-139978D01*
G01X165712D02*
X167112D01*
G01X169929D02*
Y-135978D01*
X171095D01*
X171562Y-136178D01*
X171912Y-136445D01*
X172204Y-136845D01*
X172437Y-137311D01*
X172495Y-137978D01*
X172437Y-138645D01*
X172204Y-139111D01*
X171912Y-139511D01*
X171562Y-139778D01*
X171095Y-139978D01*
X169929D01*
G01X177179D02*
X174845D01*
Y-135978D01*
X177179D01*
G01X176245Y-137911D02*
X174845D01*
G01X179470Y-139978D02*
Y-135978D01*
X182154Y-139978D01*
Y-135978D01*
G01X185612D02*
Y-139978D01*
G01X184270Y-135978D02*
X186954D01*
G01X189712D02*
X191112D01*
G01X190412D02*
Y-139978D01*
G01X189712D02*
X191112D01*
G01X193754D02*
X195212Y-135978D01*
X196670Y-139978D01*
G01X196145Y-138578D02*
X194279D01*
G01X198845Y-135978D02*
Y-139978D01*
X201179D01*
G01X87862Y-124811D02*
X91362D01*
G01X92662D02*
X96162D01*
G01X97462D02*
X100962D01*
G01X110095Y-119811D02*
X109745Y-119611D01*
X109337Y-119478D01*
X108870D01*
X108345Y-119678D01*
X107937Y-120011D01*
X107645Y-120411D01*
X107412Y-121078D01*
X107354Y-121678D01*
X107470Y-122278D01*
X107645Y-122678D01*
X107995Y-123078D01*
X108404Y-123345D01*
X108812Y-123478D01*
X109220D01*
X109629Y-123345D01*
X109979Y-123145D01*
X110270Y-122878D01*
G01X113612Y-123478D02*
X113145Y-123411D01*
X112737Y-123145D01*
X112387Y-122745D01*
X112154Y-122278D01*
X112037Y-121745D01*
Y-121211D01*
X112154Y-120678D01*
X112387Y-120211D01*
X112737Y-119811D01*
X113145Y-119545D01*
X113612Y-119478D01*
X114079Y-119545D01*
X114487Y-119811D01*
X114837Y-120211D01*
X115070Y-120678D01*
X115187Y-121211D01*
Y-121745D01*
X115070Y-122278D01*
X114837Y-122745D01*
X114487Y-123145D01*
X114079Y-123411D01*
X113612Y-123478D01*
G01X116895D02*
Y-119478D01*
X118412Y-122811D01*
X119929Y-119478D01*
Y-123478D01*
G01X122045D02*
Y-119478D01*
X123445D01*
X123912Y-119678D01*
X124262Y-120145D01*
X124379Y-120678D01*
X124262Y-121211D01*
X123970Y-121611D01*
X123445Y-121811D01*
X122045D01*
G01X126554Y-123478D02*
X128012Y-119478D01*
X129470Y-123478D01*
G01X128945Y-122078D02*
X127079D01*
G01X131470Y-123478D02*
Y-119478D01*
X134154Y-123478D01*
Y-119478D01*
G01X137612Y-123478D02*
Y-121678D01*
X136445Y-119478D01*
G01X138779D02*
X137612Y-121678D01*
G01X146512Y-119478D02*
X147912D01*
G01X147212D02*
Y-123478D01*
G01X146512D02*
X147912D01*
G01X150670D02*
Y-119478D01*
X153354Y-123478D01*
Y-119478D01*
G01X156812D02*
Y-123478D01*
G01X155470Y-119478D02*
X158154D01*
G01X162779Y-123478D02*
X160445D01*
Y-119478D01*
X162779D01*
G01X161845Y-121411D02*
X160445D01*
G01X165245Y-123478D02*
Y-119478D01*
X166704D01*
X167170Y-119678D01*
X167462Y-119945D01*
X167579Y-120478D01*
X167462Y-121011D01*
X167112Y-121345D01*
X166704Y-121545D01*
X165245D01*
G01X166704D02*
X167579Y-123478D01*
G01X169870D02*
Y-119478D01*
X172554Y-123478D01*
Y-119478D01*
G01X174554Y-123478D02*
X176012Y-119478D01*
X177470Y-123478D01*
G01X176945Y-122078D02*
X175079D01*
G01X179645Y-119478D02*
Y-123478D01*
X181979D01*
G01X87862Y-108811D02*
X91362D01*
G01X92662D02*
X96162D01*
G01X97462D02*
X100962D01*
G01X110095Y-103811D02*
X109745Y-103611D01*
X109337Y-103478D01*
X108870D01*
X108345Y-103678D01*
X107937Y-104011D01*
X107645Y-104411D01*
X107412Y-105078D01*
X107354Y-105678D01*
X107470Y-106278D01*
X107645Y-106678D01*
X107995Y-107078D01*
X108404Y-107345D01*
X108812Y-107478D01*
X109220D01*
X109629Y-107345D01*
X109979Y-107145D01*
X110270Y-106878D01*
G01X113612Y-107478D02*
X113145Y-107411D01*
X112737Y-107145D01*
X112387Y-106745D01*
X112154Y-106278D01*
X112037Y-105745D01*
Y-105211D01*
X112154Y-104678D01*
X112387Y-104211D01*
X112737Y-103811D01*
X113145Y-103545D01*
X113612Y-103478D01*
X114079Y-103545D01*
X114487Y-103811D01*
X114837Y-104211D01*
X115070Y-104678D01*
X115187Y-105211D01*
Y-105745D01*
X115070Y-106278D01*
X114837Y-106745D01*
X114487Y-107145D01*
X114079Y-107411D01*
X113612Y-107478D01*
G01X116895D02*
Y-103478D01*
X118412Y-106811D01*
X119929Y-103478D01*
Y-107478D01*
G01X122045D02*
Y-103478D01*
X123445D01*
X123912Y-103678D01*
X124262Y-104145D01*
X124379Y-104678D01*
X124262Y-105211D01*
X123970Y-105611D01*
X123445Y-105811D01*
X122045D01*
G01X126554Y-107478D02*
X128012Y-103478D01*
X129470Y-107478D01*
G01X128945Y-106078D02*
X127079D01*
G01X131470Y-107478D02*
Y-103478D01*
X134154Y-107478D01*
Y-103478D01*
G01X137612Y-107478D02*
Y-105678D01*
X136445Y-103478D01*
G01X138779D02*
X137612Y-105678D01*
G01X146045Y-107478D02*
Y-103478D01*
X147445D01*
X147912Y-103678D01*
X148262Y-104145D01*
X148379Y-104678D01*
X148262Y-105211D01*
X147970Y-105611D01*
X147445Y-105811D01*
X146045D01*
G01X150729Y-103478D02*
Y-106345D01*
X150962Y-106945D01*
X151429Y-107345D01*
X152012Y-107478D01*
X152595Y-107345D01*
X153062Y-106945D01*
X153295Y-106345D01*
Y-103478D01*
G01X157279Y-105345D02*
X157512Y-105145D01*
X157687Y-104811D01*
X157804Y-104345D01*
X157687Y-103945D01*
X157454Y-103678D01*
X157045Y-103478D01*
X155470D01*
Y-107478D01*
X157395D01*
X157804Y-107211D01*
X158037Y-106811D01*
X158154Y-106345D01*
X158037Y-105878D01*
X157687Y-105478D01*
X157279Y-105345D01*
X155470D01*
G01X160445Y-103478D02*
Y-107478D01*
X162779D01*
G01X165712Y-103478D02*
X167112D01*
G01X166412D02*
Y-107478D01*
G01X165712D02*
X167112D01*
G01X172495Y-103811D02*
X172145Y-103611D01*
X171737Y-103478D01*
X171270D01*
X170745Y-103678D01*
X170337Y-104011D01*
X170045Y-104411D01*
X169812Y-105078D01*
X169754Y-105678D01*
X169870Y-106278D01*
X170045Y-106678D01*
X170395Y-107078D01*
X170804Y-107345D01*
X171212Y-107478D01*
X171620D01*
X172029Y-107345D01*
X172379Y-107145D01*
X172670Y-106878D01*
G01X78270Y-75478D02*
Y-71478D01*
X80954Y-75478D01*
Y-71478D01*
G01X82954Y-75478D02*
X84412Y-71478D01*
X85870Y-75478D01*
G01X85345Y-74078D02*
X83479D01*
G01X87695Y-75478D02*
Y-71478D01*
X89212Y-74811D01*
X90729Y-71478D01*
Y-75478D01*
G01X95179D02*
X92845D01*
Y-71478D01*
X95179D01*
G01X94245Y-73411D02*
X92845D01*
G01X88442Y3957D02*
X106242D01*
Y13957D01*
X86242D01*
Y3957D01*
X88442D01*
G01X74650Y16709D02*
Y19189D01*
X75950D01*
Y16709D01*
X74650D01*
G01X82502Y10600D02*
X78502D01*
Y12600D01*
X82502D01*
Y10600D01*
G01Y18800D02*
X78502D01*
Y20800D01*
X82502D01*
Y18800D01*
G01X90810Y183991D02*
Y186471D01*
X92110D01*
Y183991D01*
X90810D01*
G01X86509D02*
Y186471D01*
X87809D01*
Y183991D01*
X86509D01*
G01X82268D02*
Y186471D01*
X83568D01*
Y183991D01*
X82268D01*
G01X78111D02*
Y186471D01*
X79411D01*
Y183991D01*
X78111D01*
G01X93367Y-106978D02*
X96657Y-100678D01*
G01X93367D02*
X96657Y-106978D01*
G01X105734Y43124D02*
G03I-3900J0D01*
G01X102189Y34490D02*
G03I-2500J0D01*
G01X103424Y44584D02*
G03X103924Y42184I-1566J-1578D01*
G01X118989Y32490D02*
X114989D01*
Y34490D01*
X118989D01*
Y32490D01*
G01X128395Y158955D02*
X125915D01*
Y160255D01*
X128395D01*
Y158955D01*
G01X128429Y163340D02*
X125949D01*
Y164640D01*
X128429D01*
Y163340D01*
G01X121750Y186660D02*
Y189140D01*
X123050D01*
Y186660D01*
X121750D01*
G01X117600Y185900D02*
Y189900D01*
X119600D01*
Y185900D01*
X117600D01*
G01X128270Y-155478D02*
Y-151478D01*
X130954Y-155478D01*
Y-151478D01*
G01X133129D02*
Y-154345D01*
X133362Y-154945D01*
X133829Y-155345D01*
X134412Y-155478D01*
X134995Y-155345D01*
X135462Y-154945D01*
X135695Y-154345D01*
Y-151478D01*
G01X137695Y-155478D02*
Y-151478D01*
X139212Y-154811D01*
X140729Y-151478D01*
Y-155478D01*
G01X144479Y-153345D02*
X144712Y-153145D01*
X144887Y-152811D01*
X145004Y-152345D01*
X144887Y-151945D01*
X144654Y-151678D01*
X144245Y-151478D01*
X142670D01*
Y-155478D01*
X144595D01*
X145004Y-155211D01*
X145237Y-154811D01*
X145354Y-154345D01*
X145237Y-153878D01*
X144887Y-153478D01*
X144479Y-153345D01*
X142670D01*
G01X149979Y-155478D02*
X147645D01*
Y-151478D01*
X149979D01*
G01X149045Y-153411D02*
X147645D01*
G01X152445Y-155478D02*
Y-151478D01*
X153904D01*
X154370Y-151678D01*
X154662Y-151945D01*
X154779Y-152478D01*
X154662Y-153011D01*
X154312Y-153345D01*
X153904Y-153545D01*
X152445D01*
G01X153904D02*
X154779Y-155478D01*
G01X144673Y110290D02*
G03I-984J0D01*
G01X141541Y125614D02*
G03I-984J0D01*
G01X129870Y125702D02*
G03I-984J0D01*
G01X144453Y130840D02*
G03I-984J0D01*
G01X129973Y135490D02*
G03I-984J0D01*
G01X135678Y129586D02*
G03I-984J0D01*
G01X135773Y135290D02*
G03I-984J0D01*
G01X141273Y135790D02*
G03I-984J0D01*
G01X133380Y141942D02*
Y139462D01*
X132080D01*
Y141942D01*
X133380D01*
G01X136317Y140786D02*
Y153778D01*
X146553D01*
Y140786D01*
X136317D01*
G01X133811Y148725D02*
Y144591D01*
X131645D01*
Y148725D01*
X133811D01*
G01X144123Y158693D02*
G03I-984J0D01*
G01X134260Y158199D02*
G03I-984J0D01*
G01X132018Y151484D02*
Y153964D01*
X133318D01*
Y151484D01*
X132018D01*
G01X131901Y166257D02*
X135901D01*
Y164257D01*
X131901D01*
Y166257D01*
G01X163212Y-162478D02*
Y-156178D01*
X162272Y-157438D01*
G01Y-162478D02*
X164152D01*
G01X169355D02*
X169512Y-161113D01*
X169747Y-159958D01*
X170060Y-158908D01*
X170452Y-157753D01*
X171079Y-156178D01*
X167945D01*
G01X175812D02*
X175185Y-156388D01*
X174715Y-156913D01*
X174402Y-157543D01*
X174167Y-158383D01*
X174089Y-159328D01*
X174167Y-160273D01*
X174402Y-161113D01*
X174715Y-161743D01*
X175185Y-162268D01*
X175812Y-162478D01*
X176439Y-162268D01*
X176909Y-161743D01*
X177222Y-161113D01*
X177457Y-160273D01*
X177535Y-159328D01*
X177457Y-158383D01*
X177222Y-157543D01*
X176909Y-156913D01*
X176439Y-156388D01*
X175812Y-156178D01*
G01X181094Y-160378D02*
X183130D01*
G01X189352Y-162478D02*
Y-156178D01*
X186454Y-160693D01*
X190370D01*
G01X192989Y-161533D02*
X193459Y-162058D01*
X194007Y-162373D01*
X194712Y-162478D01*
X195417Y-162268D01*
X195965Y-161848D01*
X196357Y-161113D01*
X196435Y-160273D01*
X196279Y-159433D01*
X195887Y-158908D01*
X195339Y-158488D01*
X194790Y-158383D01*
X194242Y-158488D01*
X193537Y-158908D01*
X193772Y-156178D01*
X195887D01*
G01X199524Y-159853D02*
X200072Y-159118D01*
X200542Y-158698D01*
X201169Y-158488D01*
X201717Y-158698D01*
X202109Y-159118D01*
X202422Y-159748D01*
X202500Y-160483D01*
X202422Y-161113D01*
X202109Y-161743D01*
X201639Y-162268D01*
X201090Y-162478D01*
X200464Y-162268D01*
X199915Y-161638D01*
X199602Y-160693D01*
X199524Y-159643D01*
X199680Y-158278D01*
X199915Y-157543D01*
X200307Y-156808D01*
X200855Y-156283D01*
X201404Y-156178D01*
X201952Y-156388D01*
X202344Y-156913D01*
G01X205980Y-161743D02*
X206529Y-162268D01*
X207155Y-162478D01*
X207782Y-162268D01*
X208330Y-161638D01*
X208722Y-160693D01*
X208879Y-159748D01*
Y-158593D01*
X208722Y-157648D01*
X208330Y-156808D01*
X207860Y-156388D01*
X207312Y-156178D01*
X206685Y-156388D01*
X206215Y-156808D01*
X205902Y-157438D01*
X205745Y-158278D01*
X205902Y-159013D01*
X206294Y-159748D01*
X206764Y-160168D01*
X207312Y-160273D01*
X207939Y-160063D01*
X208409Y-159538D01*
X208879Y-158593D01*
G01X212280Y-161743D02*
X212829Y-162268D01*
X213455Y-162478D01*
X214082Y-162268D01*
X214630Y-161638D01*
X215022Y-160693D01*
X215179Y-159748D01*
Y-158593D01*
X215022Y-157648D01*
X214630Y-156808D01*
X214160Y-156388D01*
X213612Y-156178D01*
X212985Y-156388D01*
X212515Y-156808D01*
X212202Y-157438D01*
X212045Y-158278D01*
X212202Y-159013D01*
X212594Y-159748D01*
X213064Y-160168D01*
X213612Y-160273D01*
X214239Y-160063D01*
X214709Y-159538D01*
X215179Y-158593D01*
G01X256145Y-162478D02*
Y-156178D01*
X258104D01*
X258730Y-156493D01*
X259122Y-156913D01*
X259279Y-157753D01*
X259122Y-158593D01*
X258652Y-159118D01*
X258104Y-159433D01*
X256145D01*
G01X258104D02*
X259279Y-162478D01*
G01X265579D02*
X262445D01*
Y-156178D01*
X265579D01*
G01X264325Y-159223D02*
X262445D01*
G01X268354Y-156178D02*
X270312Y-162478D01*
X272270Y-156178D01*
G01X280954Y-162478D02*
X282912Y-156178D01*
X284870Y-162478D01*
G01X284165Y-160273D02*
X281659D01*
G01X163200Y49900D02*
X159200D01*
Y51900D01*
X163200D01*
Y49900D01*
G01X163100Y53900D02*
X159100D01*
Y55900D01*
X163100D01*
Y53900D01*
G01X159100Y67500D02*
X163100D01*
Y65500D01*
X159100D01*
Y67500D01*
G01X163100Y57800D02*
X159100D01*
Y59800D01*
X163100D01*
Y57800D01*
G01X163200Y61800D02*
X159200D01*
Y63800D01*
X163200D01*
Y61800D01*
G01X158754Y78088D02*
Y70158D01*
X162646D01*
Y77042D01*
X158754D01*
G01X151784Y89239D02*
X197453D01*
Y140813D01*
X154284D01*
X151784Y138313D01*
Y89239D01*
G01X147462Y109038D02*
Y111518D01*
X148762D01*
Y109038D01*
X147462D01*
G01X149618Y110105D02*
X148044D01*
G01X149618Y119947D02*
X148044D01*
G01X148423Y119393D02*
G03I-984J0D01*
G01X150186Y125662D02*
Y123182D01*
X148886D01*
Y125662D01*
X150186D01*
G01X158361Y137073D02*
G03I-2640J0D01*
G01X146873Y135890D02*
G03I-984J0D01*
G01X151890Y159217D02*
X147890D01*
Y161217D01*
X151890D01*
Y159217D01*
G01X159124Y174267D02*
Y171787D01*
X157824D01*
Y174267D01*
X159124D01*
G01X156529Y173574D02*
Y177074D01*
G01X159029Y171074D02*
X153529D01*
G01X156529D02*
X159029Y173574D01*
X154029D01*
X156529Y171074D01*
Y168074D01*
G01X165212Y-89478D02*
X165760Y-89373D01*
X166387Y-89058D01*
X166779Y-88533D01*
X166935Y-87798D01*
X166779Y-87063D01*
X166309Y-86433D01*
X165604Y-86118D01*
X164820D01*
X164350Y-85908D01*
X163959Y-85383D01*
X163802Y-84648D01*
X164037Y-83913D01*
X164585Y-83388D01*
X165212Y-83178D01*
X165839Y-83388D01*
X166387Y-83913D01*
X166622Y-84648D01*
X166465Y-85383D01*
X166074Y-85908D01*
X165604Y-86118D01*
X164820D01*
X164115Y-86433D01*
X163645Y-87063D01*
X163489Y-87798D01*
X163645Y-88533D01*
X164037Y-89058D01*
X164664Y-89373D01*
X165212Y-89478D01*
G01X169475D02*
Y-83178D01*
X171512Y-88428D01*
X173549Y-83178D01*
Y-89478D01*
G01X176010D02*
Y-83178D01*
X179614Y-89478D01*
Y-83178D01*
G01X182154Y-89478D02*
X184112Y-83178D01*
X186070Y-89478D01*
G01X185365Y-87273D02*
X182859D01*
G01X188610Y-89478D02*
Y-83178D01*
X192214Y-89478D01*
Y-83178D01*
G01X196712Y-89478D02*
X196085Y-89373D01*
X195537Y-88953D01*
X195067Y-88323D01*
X194754Y-87588D01*
X194597Y-86748D01*
Y-85908D01*
X194754Y-85068D01*
X195067Y-84333D01*
X195537Y-83703D01*
X196085Y-83283D01*
X196712Y-83178D01*
X197339Y-83283D01*
X197887Y-83703D01*
X198357Y-84333D01*
X198670Y-85068D01*
X198827Y-85908D01*
Y-86748D01*
X198670Y-87588D01*
X198357Y-88323D01*
X197887Y-88953D01*
X197339Y-89373D01*
X196712Y-89478D01*
G01X201289D02*
Y-83178D01*
X202855D01*
X203482Y-83493D01*
X203952Y-83913D01*
X204344Y-84543D01*
X204657Y-85278D01*
X204735Y-86328D01*
X204657Y-87378D01*
X204344Y-88113D01*
X203952Y-88743D01*
X203482Y-89163D01*
X202855Y-89478D01*
X201289D01*
G01X210252D02*
Y-83178D01*
X207354Y-87693D01*
X211270D01*
G01X214594Y-87378D02*
X216630D01*
G01X223479Y-89478D02*
X220345D01*
Y-83178D01*
X223479D01*
G01X222225Y-86223D02*
X220345D01*
G01X226254Y-83178D02*
X228212Y-89478D01*
X230170Y-83178D01*
G01X232789Y-89478D02*
Y-83178D01*
G01X235765D02*
X232789Y-87063D01*
G01X236235Y-89478D02*
X234120Y-85278D01*
G01X173680Y36620D02*
X184920D01*
Y32180D01*
X185400D01*
Y29820D01*
X184920D01*
Y25380D01*
X173680D01*
Y29820D01*
X173200D01*
Y32180D01*
X173680D01*
Y36620D01*
G01X195767Y76748D02*
X166633D01*
Y45252D01*
X193267D01*
X195767Y47752D01*
Y76748D01*
G01X169894Y142979D02*
Y144553D01*
G01X174515Y162307D02*
Y158174D01*
X172348D01*
Y162307D01*
X174515D01*
G01X174072Y153973D02*
Y149839D01*
X171905D01*
Y153973D01*
X174072D01*
G01X169860Y161480D02*
Y159000D01*
X168560D01*
Y161480D01*
X169860D01*
G01X176732Y147898D02*
Y171715D01*
X196810D01*
Y147681D01*
X176732D01*
G01X168333Y174336D02*
Y176816D01*
X169633D01*
Y174336D01*
X168333D01*
G01X164801Y176920D02*
Y170228D01*
X161257D01*
Y176920D01*
X164801D01*
G01X168489Y191990D02*
G03I-2500J0D01*
G01X188916Y34033D02*
Y38167D01*
X191083D01*
Y34033D01*
X188916D01*
G01X189433Y42183D02*
X193567D01*
Y40017D01*
X189433D01*
Y42183D01*
G01Y32084D02*
X193567D01*
Y29917D01*
X189433D01*
Y32084D01*
G01X187583Y83900D02*
G03I-983J0D01*
G01X193185Y80800D02*
G03I-985J0D01*
G01X179343Y142979D02*
Y144553D01*
G54D15*
G01X18292Y31551D02*
Y40213D01*
X11206D01*
Y31551D01*
X18292D01*
G01X10418Y54017D02*
Y43387D01*
X19080D01*
Y54017D01*
X10418D01*
G01X31275Y64412D02*
X41905D01*
Y73074D01*
X31275D01*
Y64412D01*
G01X42652Y12015D02*
X55840D01*
Y18511D01*
X42652D01*
Y12015D01*
G01X69320Y29079D02*
Y39709D01*
X60658D01*
Y29079D01*
X69320D01*
G01X60658Y54017D02*
Y43387D01*
X69320D01*
Y54017D01*
X60658D01*
M02*
