G04 ================== begin FILE IDENTIFICATION RECORD ==================*
G04 Layout Name:  C:/WORK/2019project/IMX815/FabOutput/Lay-45699_A.brd*
G04 Film Name:    L1_PS.art*
G04 File Format:  Gerber RS274X*
G04 File Origin:  Cadence Allegro 17.2-S046*
G04 Origin Date:  Fri Mar 22 13:38:45 2019*
G04 *
G04 Layer:  PACKAGE GEOMETRY/SHORT_LAYER_TOP*
G04 Layer:  MANUFACTURING/PRIMARY_SIDE*
G04 Layer:  DRAWING FORMAT/FILM_TITLE_BLOCK*
G04 Layer:  BOARD GEOMETRY/OUTLINE*
G04 Layer:  ETCH/TOP*
G04 Layer:  PIN/TOP*
G04 Layer:  VIA CLASS/TOP*
G04 *
G04 Offset:    (0.00 0.00)*
G04 Mirror:    No*
G04 Mode:      Positive*
G04 Rotation:  0*
G04 FullContactRelief:  No*
G04 UndefLineWidth:     8.00*
G04 ================== end FILE IDENTIFICATION RECORD ====================*
%FSLAX55Y55*MOIN*%
%IR0*IPPOS*OFA0.00000B0.00000*MIA0B0*SFA1.00000B1.00000*%
%ADD31C,.01*%
%ADD21C,.02*%
%ADD18C,.04*%
%ADD28C,.05*%
%ADD17C,.014*%
%ADD35C,.015*%
%ADD34C,.06*%
%ADD33C,.025*%
%ADD10C,.016*%
%ADD24R,.008X.027*%
%ADD11C,.035*%
%ADD26R,.02X.02*%
%ADD25R,.027X.008*%
%ADD14C,.018*%
%ADD30C,.064*%
%ADD22R,.012X.012*%
%ADD37R,.04X.04*%
%ADD32R,.06X.06*%
%ADD41R,.039X.039*%
%ADD42R,.01X.02*%
%ADD40R,.02X.01*%
%ADD44R,.042X.04*%
%ADD38R,.031X.033*%
%AMMACRO45*
4,1,5,.0195,.0195,
-.0195,.0195,
-.0195,-.0195,
-.0005,-.0195,
.0195,.0005,
.0195,.0195,
0.0*
%
%ADD45MACRO45*%
%ADD43R,.024X.04*%
%ADD19R,.02X.018*%
%ADD12C,.2*%
%ADD20R,.018X.02*%
%ADD15R,.071X.034*%
%ADD13R,.024X.044*%
%ADD29R,.043X.075*%
%ADD46R,.122X.122*%
%ADD39R,.087X.042*%
%ADD36R,.047X.055*%
%ADD16R,.079X.048*%
%ADD27R,.048X.079*%
%ADD23R,.185X.185*%
%ADD47C,.011*%
%ADD48C,.012*%
%ADD49C,.003*%
%ADD50C,.004*%
%ADD51C,.005*%
%ADD52C,.0032*%
%ADD53C,.0041*%
%ADD54C,.008*%
%ADD55C,.0042*%
%ADD56C,.0033*%
%ADD57C,.006*%
%ADD58C,.007*%
%ADD59C,.0044*%
%ADD60C,.0045*%
%ADD61C,.0036*%
%ADD63R,.02X.00931*%
%ADD66R,.018X.008*%
%ADD65R,.017X.009*%
%ADD64R,.009X.017*%
%ADD62R,.0174X.00755*%
G75*
%LPD*%
G75*
G36*
G01X1797Y74800D02*
X3800D01*
X4500Y74100D01*
Y32216D01*
X4498Y32215D01*
Y20285D01*
X4500Y20284D01*
Y14100D01*
X5600Y13000D01*
Y12400D01*
X6256D01*
Y8691D01*
G03X6757Y8190I501J0D01*
G01X9157D01*
G03X9658Y8691I0J501D01*
G01Y12400D01*
X13736D01*
Y8691D01*
G03X14237Y8190I501J0D01*
G01X16637D01*
G03X17138Y8691I0J501D01*
G01Y8717D01*
G02X17730Y9069I400J1D01*
G03X17921Y8982I675J1229D01*
G01X17963Y8967D01*
X19389Y7542D01*
X19673D01*
X19733Y7460D01*
G03X21548Y6541I1815J1333D01*
G03X23420Y7542I0J2251D01*
G01X25202D01*
X25262Y7470D01*
G03X25646Y7292I383J323D01*
G01X27446D01*
G03X27926Y7648I0J502D01*
G01X27969Y7790D01*
X28600D01*
Y9796D01*
X27969D01*
X27926Y9938D01*
G03X27446Y10294I-480J-146D01*
G01X25646D01*
G03X25262Y10116I-1J-501D01*
G01X25202Y10044D01*
X23420D01*
G03X21548Y11045I-1872J-1250D01*
G03X20156Y10563I0J-2251D01*
G01X20016Y10453D01*
X19733Y10737D01*
X19718Y10779D01*
G03X18879Y11618I-1318J-479D01*
G01X18837Y11633D01*
X18753Y11717D01*
G02X19035Y12400I283J283D01*
G01X28864D01*
X32300Y8964D01*
X63000D01*
X68164D01*
X69899Y10700D01*
X75000D01*
X75910Y9790D01*
X85786D01*
Y4956D01*
X89308D01*
X95244D01*
Y9790D01*
X107528D01*
Y4210D01*
X169430D01*
Y12878D01*
X169381D01*
Y20619D01*
X168600Y21400D01*
Y39000D01*
X170200Y40600D01*
X171700D01*
X177500Y46400D01*
Y48300D01*
X177900Y48700D01*
X178500D01*
X178800Y48400D01*
Y42200D01*
X179600Y41400D01*
X183321D01*
X183346Y41394D01*
G03X183700Y41348I356J1356D01*
G03X184054Y41394I-2J1402D01*
G01X184079Y41400D01*
X185100D01*
X187400Y43700D01*
Y48800D01*
X187500Y48900D01*
X188600D01*
X188900Y48600D01*
Y42800D01*
X188050Y41950D01*
Y35650D01*
X187300Y34900D01*
X174000D01*
Y34802D01*
X173998D01*
Y27198D01*
X174002D01*
X174100Y27100D01*
X190600D01*
X192000Y28500D01*
Y29998D01*
X192078D01*
Y32002D01*
X192000D01*
Y40098D01*
X192078D01*
Y42102D01*
X192000D01*
Y42500D01*
X191200Y43300D01*
Y48700D01*
X191300Y48800D01*
X197700D01*
Y8500D01*
X192150Y2950D01*
X190950D01*
X190000Y2000D01*
X189600D01*
Y1794D01*
X9996D01*
G02X2154Y7600I0J8199D01*
G02X1797Y9993I7842J2393D01*
G01Y74800D01*
G37*
G36*
G01X8600Y197700D02*
X191100D01*
X197900Y190900D01*
Y97422D01*
G02X197226Y97131I-400J0D01*
G03X196332Y97486I-894J-948D01*
G03X195030Y96184I0J-1302D01*
G03X195426Y95248I1302J-1D01*
G02X195432Y94967I-139J-144D01*
G03X195074Y94070I945J-897D01*
G03X195445Y93160I1302J0D01*
G02X195444Y92881I-144J-139D01*
G03X195073Y91970I931J-910D01*
G03X196375Y90668I1302J0D01*
G03X197236Y90993I0J1303D01*
G02X197900Y90693I264J-300D01*
G01Y88300D01*
X197150Y87550D01*
X190950D01*
X185500Y93000D01*
Y97466D01*
G02X186181Y97751I400J0D01*
G03X187094Y97377I913J927D01*
G03Y99981I0J1302D01*
G03X185886Y99164I0J-1302D01*
G01X185835Y99038D01*
X185500D01*
Y99600D01*
X186400Y100500D01*
X189100D01*
X190106Y101506D01*
Y139730D01*
X192700Y142324D01*
Y152100D01*
X191900Y152900D01*
X180400D01*
X180000Y153300D01*
Y162647D01*
X180522Y163170D01*
Y166322D01*
X181700Y167500D01*
X195800D01*
X196800Y168500D01*
Y173100D01*
X191800Y178100D01*
X165087D01*
X165080Y178293D01*
G03X164579Y178776I-501J-18D01*
G01X162924D01*
X155339Y186361D01*
G02X155552Y187038I283J283D01*
G03X154731Y196966I-871J4926D01*
G01X154631D01*
G03X149755Y192835I50J-5002D01*
G02X149078Y192622I-394J70D01*
G01X145900Y195800D01*
X49600D01*
X22000Y168200D01*
X11298D01*
X11279Y168204D01*
G03X10389Y168292I-935J-4915D01*
G01X10289D01*
G03X9399Y168204I45J-5003D01*
G01X9380Y168200D01*
X3600D01*
X2200Y169600D01*
Y191300D01*
X8600Y197700D01*
G37*
G36*
G01X11199Y34295D02*
Y33300D01*
X10499Y32600D01*
X6300D01*
X5500Y31800D01*
Y20700D01*
X6500Y19700D01*
X9100D01*
X9500Y20100D01*
Y23780D01*
X9510Y23790D01*
Y24810D01*
X10280Y25580D01*
X11300D01*
X18299D01*
Y34295D01*
X11199D01*
G37*
G36*
G01X27253Y41161D02*
Y40361D01*
X24249D01*
Y39587D01*
X27253D01*
Y38787D01*
X21517D01*
X20199Y37469D01*
X11199D01*
Y40869D01*
X18298D01*
X18590Y41161D01*
X27253D01*
G37*
G36*
G01X10799Y50277D02*
Y60392D01*
X18699D01*
Y50277D01*
X10799D01*
G37*
G36*
G01X27253Y45084D02*
Y45884D01*
X24249D01*
Y46658D01*
X27253D01*
Y47458D01*
X24199D01*
X22764Y48893D01*
X21642D01*
X21234Y48485D01*
Y45414D01*
X21564Y45084D01*
X21642D01*
X27253D01*
G37*
G36*
G01Y41935D02*
Y42735D01*
X24249D01*
Y43509D01*
X27253D01*
Y44309D01*
X21517D01*
X18699Y47127D01*
X10799D01*
Y42327D01*
X18699D01*
X19091Y41935D01*
X27253D01*
G37*
G36*
G01X18100Y79400D02*
X23400D01*
X23550Y79250D01*
X33350D01*
X35700Y76900D01*
Y72100D01*
X35800Y72000D01*
Y61382D01*
X35785Y61345D01*
G03X35697Y61014I1203J-497D01*
G02X35018Y60782I-397J51D01*
G01X32300Y63500D01*
X30600D01*
X30400Y63700D01*
X18900D01*
X17200Y65400D01*
Y71635D01*
X17209Y71663D01*
G03X17264Y72039I-1247J374D01*
G03X17209Y72415I-1302J2D01*
G01X17200Y72443D01*
Y73625D01*
X17214Y73661D01*
G03Y74617I-1210J478D01*
G01X17200Y74653D01*
Y78500D01*
X18100Y79400D01*
G37*
G36*
G01X41057Y55739D02*
X40257D01*
Y58743D01*
X39483D01*
Y55739D01*
X38683D01*
Y61475D01*
X38100Y62058D01*
Y72693D01*
X40665D01*
X40672Y72700D01*
X42900D01*
Y63943D01*
X41057Y62100D01*
Y55739D01*
G37*
G36*
G01X52485Y41161D02*
Y40361D01*
X55489D01*
Y39587D01*
X52485D01*
Y38787D01*
X58221D01*
X61039Y35969D01*
X68939D01*
Y40769D01*
X61039D01*
X60647Y41161D01*
X52485D01*
G37*
G36*
G01X52000Y36500D02*
X56799D01*
G03X57648Y36185I849J987D01*
G03X58080Y36259I-1J1302D01*
G01X58199Y36301D01*
X60700Y33800D01*
X70500D01*
X71200Y33100D01*
Y29198D01*
X71094Y29092D01*
Y23481D01*
X65513Y17900D01*
X63300D01*
X60700Y20500D01*
Y28100D01*
X60100Y28700D01*
Y30500D01*
X55300Y35300D01*
X54813D01*
X54774Y35318D01*
G03X54565Y35364I-210J-456D01*
G01X51936D01*
X51600Y35700D01*
Y36100D01*
X52000Y36500D01*
G37*
G36*
G01X61800Y60700D02*
X71700D01*
X72700Y59700D01*
Y51000D01*
X71476Y49776D01*
X71346Y49844D01*
G03X70700Y50002I-647J-1244D01*
G03X69625Y49500I0J-1402D01*
G01X61800D01*
X58841Y46541D01*
G02X58560Y46540I-141J142D01*
G03X57648Y46912I-911J-930D01*
G03X56613Y46400I0J-1302D01*
G01X51900D01*
X51600Y46700D01*
Y47400D01*
X51934Y47734D01*
X54565D01*
G03X54889Y47853I0J501D01*
G01X54945Y47900D01*
X57300D01*
X60700Y51300D01*
Y59600D01*
X61800Y60700D01*
G37*
G36*
G01X44980Y55739D02*
X45780D01*
Y58743D01*
X46554D01*
Y55739D01*
X47354D01*
Y58793D01*
X48789Y60228D01*
Y61350D01*
X48381Y61758D01*
X45310D01*
X44980Y61428D01*
Y61350D01*
Y55739D01*
G37*
G36*
G01X52485Y41935D02*
Y42735D01*
X55489D01*
Y43509D01*
X52485D01*
Y44309D01*
X58221D01*
X61039Y47127D01*
X68939D01*
Y42327D01*
X61039D01*
X60647Y41935D01*
X52485D01*
G37*
G36*
G01X86788Y5958D02*
Y20373D01*
X86800D01*
Y20600D01*
X87000Y20800D01*
X92000D01*
X92200Y20600D01*
Y15500D01*
X92800Y14900D01*
X94200D01*
X94242Y14858D01*
Y11957D01*
Y5957D01*
X90310D01*
Y5958D01*
X86788D01*
G37*
G36*
G01X87990Y121490D02*
X88789D01*
X89388Y120892D01*
Y118482D01*
X89398Y118471D01*
Y117558D01*
X89396Y117555D01*
Y116430D01*
X89947Y115878D01*
X92195D01*
X92217Y115873D01*
G03X92510Y115840I291J1269D01*
G03X92803Y115873I2J1302D01*
G01X92825Y115878D01*
X94091D01*
X97981Y111988D01*
X98290D01*
X98389Y111890D01*
X98589D01*
X99088Y111392D01*
Y110498D01*
X98781Y110192D01*
X97981D01*
X97188Y109398D01*
Y109388D01*
X96889Y109090D01*
Y108790D01*
X96789Y108690D01*
X96189D01*
X95978Y108902D01*
Y113032D01*
X94929Y114080D01*
X89949D01*
X89056Y113187D01*
Y108690D01*
X88398D01*
X86897Y110192D01*
X86188D01*
X85890Y110488D01*
Y111582D01*
X86197Y111888D01*
X86997D01*
X87098Y111990D01*
X87189D01*
X87689Y112490D01*
Y113190D01*
X88089Y113590D01*
X88589D01*
X88788Y113788D01*
X88997D01*
X89590Y114382D01*
Y115498D01*
X88997Y116092D01*
X88888D01*
X88789Y116190D01*
X88489D01*
X87990Y116688D01*
Y116998D01*
X87097Y117892D01*
X86288D01*
X85990Y118188D01*
Y119782D01*
X85998Y119790D01*
X87289D01*
X87789Y120290D01*
Y120381D01*
X87990Y120582D01*
Y121490D01*
G37*
G36*
G01X78089Y105290D02*
X78889D01*
X79389Y104790D01*
Y103991D01*
X79390Y103990D01*
X79789Y103590D01*
X81289D01*
X81789Y104090D01*
X82989D01*
X83389Y103690D01*
Y102390D01*
X83789Y101990D01*
X84589D01*
X84889Y101690D01*
Y100690D01*
X84589Y100390D01*
X82789D01*
X82389Y100790D01*
X81173D01*
X81152Y100795D01*
G03X80877Y100824I-273J-1273D01*
G03X79826Y100290I0J-1301D01*
G01X78210D01*
X76500Y102000D01*
Y102900D01*
X77650Y104050D01*
Y104850D01*
X78089Y105290D01*
G37*
G36*
G01X90157Y113579D02*
X94721D01*
X95476Y112824D01*
Y108557D01*
X96032Y108001D01*
X98756D01*
X99169Y107588D01*
Y106233D01*
X98986Y106050D01*
X98395D01*
G03X98141Y106013I2J-902D01*
G01X98114Y106005D01*
X97430D01*
X97144Y105719D01*
Y104193D01*
X97158Y104179D01*
Y103585D01*
X97153Y103563D01*
G03X97121Y103276I1271J-287D01*
G03X97142Y103044I1302J1D01*
G01X97161Y102941D01*
X96860Y102640D01*
X96815Y102625D01*
G03X96451Y102439I403J-1238D01*
G01X95832D01*
X95332Y102939D01*
X95348Y103040D01*
G03X95358Y103179I-891J134D01*
G03X95326Y103418I-901J1D01*
G01X95319Y103444D01*
Y103865D01*
X94534Y104650D01*
X90227D01*
X89557Y105320D01*
Y112979D01*
X90157Y113579D01*
G37*
G36*
G01X96623Y125390D02*
X99071D01*
G02X99468Y124941I0J-400D01*
G03X99461Y124832I895J-112D01*
G03X100363Y123930I902J0D01*
G03X100816Y124052I0J902D01*
G01X100949Y124130D01*
X101389Y123690D01*
Y108990D01*
X100889Y108490D01*
X98976D01*
X98964Y108502D01*
X97976D01*
X97689Y108790D01*
Y109190D01*
X98180Y109681D01*
X98261Y109682D01*
G03X98374Y109689I-24J1302D01*
G01X98384Y109690D01*
X98989D01*
X99589Y110290D01*
Y112090D01*
X99189Y112490D01*
X98189D01*
X97208Y113471D01*
X97196Y113491D01*
G03X96895Y113792I-770J-469D01*
G01X96875Y113804D01*
X95238Y115441D01*
X95225Y115461D01*
G03X94928Y115758I-768J-471D01*
G01X94908Y115771D01*
X94299Y116380D01*
X90155D01*
X89897Y116638D01*
Y117347D01*
X89900Y117350D01*
Y118679D01*
X89889Y118690D01*
Y121590D01*
X89389Y122090D01*
X87689D01*
X87489Y121890D01*
Y120790D01*
X87089Y120390D01*
X85889D01*
X85489Y119990D01*
Y119530D01*
X85469Y119489D01*
G03X85342Y118927I1175J-561D01*
G03X85469Y118365I1302J-1D01*
G01X85489Y118324D01*
Y117890D01*
X85989Y117390D01*
X86889D01*
X87489Y116790D01*
Y116090D01*
X87989Y115590D01*
X88789D01*
X89089Y115290D01*
Y114590D01*
X88789Y114290D01*
X87889D01*
X87089Y113490D01*
Y112690D01*
X86789Y112390D01*
X85989D01*
X85389Y111790D01*
Y110190D01*
X85889Y109690D01*
X86689D01*
X87817Y108562D01*
G03X88030Y108349I735J522D01*
G01X89056Y107324D01*
Y106756D01*
X88319Y106020D01*
X88274Y106005D01*
G03X87695Y105426I278J-857D01*
G01X87680Y105381D01*
X86882Y104583D01*
X86768Y104618D01*
G03X86390Y104674I-378J-1246D01*
G03X85961Y104601I1J-1302D01*
G01X85929Y104590D01*
X84489D01*
X83989Y105090D01*
Y110290D01*
X83589Y110690D01*
Y111590D01*
X84089Y112090D01*
Y113790D01*
X83489Y114390D01*
X82589D01*
X82189Y114790D01*
Y115490D01*
X82589Y115890D01*
X83189D01*
X83589Y116290D01*
Y124363D01*
G03X84079Y125217I-800J1027D01*
G01X84103Y125390D01*
X84989D01*
X85389Y124990D01*
Y124290D01*
X85789Y123890D01*
X90889D01*
X91889Y124890D01*
G02X92303Y125284I400J-6D01*
G03X92347Y125283I52J1301D01*
G03X92702Y125332I1J1302D01*
G01X92815Y125364D01*
X93389Y124790D01*
Y124400D01*
X93789Y124000D01*
X94108D01*
X94142Y123987D01*
G03X94457Y123930I316J845D01*
G03X95094Y124195I-1J901D01*
G01X96259Y125359D01*
X96342D01*
G03X96603Y125386I-3J1302D01*
G01X96623Y125390D01*
G37*
G36*
G01X82366Y126100D02*
X82824D01*
G02X83107Y125417I0J-400D01*
G01X83088Y125398D01*
Y116705D01*
X82774Y116392D01*
X82381D01*
X81688Y115698D01*
Y115288D01*
X81500Y115100D01*
Y114100D01*
X82100Y113500D01*
X82700D01*
X83000Y113200D01*
Y105700D01*
X81892Y104592D01*
X81581D01*
X81390Y104400D01*
X80100D01*
X79890Y104610D01*
Y104998D01*
X79700Y105188D01*
Y108166D01*
G03Y109632I-1076J733D01*
G01Y110446D01*
G03X80011Y111290I-990J844D01*
G03X79800Y112001I-1302J0D01*
G01Y113100D01*
X79549Y113351D01*
X79534Y113385D01*
G03X79072Y113847I-825J-363D01*
G01X79038Y113862D01*
X78900Y114000D01*
X76300D01*
X75900Y114400D01*
Y115400D01*
X76400Y115900D01*
X79000D01*
X79800Y116700D01*
Y118410D01*
X79812Y118444D01*
G03X79891Y118890I-1223J447D01*
G03X79812Y119336I-1302J-1D01*
G01X79800Y119370D01*
Y125200D01*
X80100Y125500D01*
X80278D01*
X80319Y125480D01*
G03X80881Y125353I561J1175D01*
G03X81766Y125700I0J1302D01*
G01X81824Y125754D01*
X82019D01*
X82366Y126100D01*
G37*
G36*
G01X99757Y103843D02*
X106241D01*
G02X106641Y103422I1J-400D01*
G03X106639Y103353I1300J-72D01*
G03X106670Y103070I1302J-1D01*
G01X106675Y103048D01*
Y100935D01*
X99757D01*
Y103843D01*
G37*
%LPC*%
G75*
G36*
G01X194632Y102447D02*
G03X194113Y102490I-285J-281D01*
G02X193349Y102242I-764J1053D01*
G02Y104846I0J1302D01*
G02X194276Y104458I0J-1301D01*
G03X194795Y104415I285J281D01*
G02X195559Y104663I764J-1053D01*
G02Y102059I0J-1302D01*
G02X194632Y102447I0J1301D01*
G37*
G36*
G01X95089Y121599D02*
Y121990D01*
X95289Y122190D01*
X97489D01*
X97889Y121790D01*
Y120899D01*
X98297Y120492D01*
X98797D01*
X98898Y120390D01*
X99089D01*
X99589Y119890D01*
Y119699D01*
X99590Y119698D01*
Y118282D01*
X99589Y118281D01*
Y117690D01*
X99089Y117190D01*
X98789Y117490D01*
X98389D01*
X97889Y116990D01*
X97798D01*
X97589Y116781D01*
Y116290D01*
X97189Y115890D01*
X96089D01*
X95990Y115988D01*
X95881D01*
X95088Y116782D01*
Y121598D01*
X95089Y121599D01*
G37*
G54D63*
X14749Y55536D03*
G54D66*
X65900Y55300D03*
G54D65*
X65250Y27850D03*
G54D64*
X30050Y68850D03*
G54D62*
X14749Y30526D03*
%LPD*%
G75*
G36*
G01X95789Y121590D02*
X96489D01*
X97590Y120489D01*
X97604Y120464D01*
G03X97963Y120105I791J432D01*
G01X97988Y120091D01*
X98089Y119990D01*
X98589D01*
X99089Y119490D01*
Y119098D01*
X99088Y119087D01*
G03X99080Y118945I1294J-144D01*
G03X99088Y118803I1302J2D01*
G01X99089Y118792D01*
Y118490D01*
X98689Y118090D01*
X98189D01*
X96589Y116490D01*
X96200D01*
X95589Y117101D01*
Y121390D01*
X95789Y121590D01*
G37*
G54D10*
X3000Y23303D03*
Y13303D03*
Y33303D03*
Y53303D03*
Y43303D03*
Y73303D03*
Y63303D03*
X5136Y140633D03*
X5500Y170500D03*
Y174800D03*
X6033Y193281D03*
X4080Y188258D03*
X12900Y2900D03*
X22900D03*
X8500Y6600D03*
X11100Y6000D03*
X22003Y37293D03*
X20489Y32350D03*
X20466Y34873D03*
X20391Y49481D03*
X22838Y52510D03*
X20550Y51575D03*
X13000Y72187D03*
X15962Y72039D03*
X13000Y74287D03*
X16003Y74139D03*
X11150Y63350D03*
X18113Y93000D03*
X8000Y91400D03*
X11155Y107567D03*
X12502Y94800D03*
X17240Y107800D03*
X11000Y104579D03*
X16997Y104418D03*
X17400Y101400D03*
X11158Y110720D03*
X9400Y94000D03*
X17300Y98427D03*
X20200Y104600D03*
X17200Y110700D03*
X14100Y110800D03*
X15651Y94878D03*
X18801D03*
X11100Y98526D03*
X7102Y98300D03*
X10800Y123677D03*
X11000Y117178D03*
X17364Y120095D03*
X23200Y128200D03*
X23300Y118300D03*
X17200Y126700D03*
X7139Y112461D03*
X14100Y126700D03*
X20005Y123445D03*
X22141Y126300D03*
X20147Y126465D03*
X14345Y123355D03*
X20600Y119900D03*
X11200Y120400D03*
X11158Y113870D03*
X14226Y117400D03*
X11026Y126600D03*
X14088Y114113D03*
X17200Y117200D03*
X20633Y130918D03*
X14100Y142423D03*
Y136200D03*
X10878Y129800D03*
X11074Y142300D03*
X11000Y136221D03*
X17373Y142300D03*
X17212Y129358D03*
X23200Y174800D03*
X16200D03*
Y170500D03*
X12600Y174800D03*
Y170500D03*
X9100D03*
Y174800D03*
X11801Y196165D03*
X17242Y193281D03*
X19481Y188124D03*
X11568Y180258D03*
X6405Y183095D03*
X17568Y183188D03*
X32900Y2900D03*
X35682Y14274D03*
X39825Y11250D03*
X35682Y21426D03*
X24737Y20350D03*
Y14850D03*
X30479Y22847D03*
X25911Y26023D03*
X37382Y27169D03*
X37503Y25037D03*
X27915Y25095D03*
X23873Y32459D03*
X39878Y24733D03*
X24477Y58470D03*
X23877Y54560D03*
X33264Y59553D03*
X36989Y60850D03*
X28065Y61700D03*
X30400D03*
X38937Y104786D03*
X38899Y107700D03*
X24200Y101400D03*
X33000Y98400D03*
X26587Y101495D03*
X29848Y104852D03*
X36200Y107500D03*
X32800Y110800D03*
X32900Y107727D03*
Y104600D03*
X36000D03*
X36300Y98530D03*
X39120Y98200D03*
X29400Y98300D03*
X35900Y126475D03*
X39212Y123489D03*
X39161Y117139D03*
X29800Y123489D03*
Y120500D03*
X36087Y123513D03*
X32900Y113700D03*
X32924Y123500D03*
X33000Y120426D03*
X24900Y119500D03*
X36200Y113800D03*
X39200D03*
X36000Y120276D03*
X39000Y126600D03*
X32875D03*
X33200Y142684D03*
X39598Y137669D03*
X33100Y132873D03*
X27600Y129800D03*
X29307Y130843D03*
X24780Y131000D03*
X32925Y129800D03*
X39598Y134573D03*
Y140872D03*
X39878Y144022D03*
X39042Y129618D03*
X36174Y129900D03*
X38390Y157068D03*
X35400Y157309D03*
X32300Y156930D03*
X39724Y158690D03*
X32270Y159030D03*
X35300Y159407D03*
X27599Y174858D03*
X34289Y167290D03*
X37989Y170990D03*
Y163590D03*
X23900Y191900D03*
Y196200D03*
X27500Y191900D03*
Y196200D03*
X27700Y187400D03*
Y183100D03*
X31200D03*
Y187400D03*
X34800Y183100D03*
Y187400D03*
X24100D03*
Y183100D03*
X35000Y196100D03*
Y191800D03*
X38500D03*
Y196100D03*
X31400D03*
Y191800D03*
X42900Y2900D03*
X52900D03*
X52989Y23073D03*
X42722Y22986D03*
X45246Y23134D03*
X52500Y27437D03*
X47081Y26950D03*
X42082Y27120D03*
X57648Y37487D03*
Y45610D03*
X55980Y53359D03*
X54293Y59694D03*
X45300Y65800D03*
X48800Y72700D03*
X45400Y69500D03*
X45300Y72600D03*
X48800Y69100D03*
X48900Y65800D03*
X56385Y59500D03*
X45000Y104200D03*
X43800Y107600D03*
X56100Y106800D03*
X56869Y120900D03*
X45198Y158902D03*
X43100Y159000D03*
X41689Y167290D03*
X54189Y174867D03*
X54389Y179147D03*
X54289Y176996D03*
X42100Y191800D03*
Y196100D03*
X54381Y181247D03*
X53689Y192225D03*
X56437Y190021D03*
X53589Y190127D03*
X62900Y2900D03*
X72900D03*
X58667Y11250D03*
X73500Y23000D03*
X73000Y16898D03*
Y19000D03*
X74600Y13700D03*
X74242Y64300D03*
X66904Y74400D03*
X64820Y74139D03*
X65198Y89399D03*
X73073Y93336D03*
X70652Y109036D03*
X70821Y95574D03*
X71700Y103600D03*
X75087Y108787D03*
X73037Y108800D03*
X60700Y108400D03*
X71203Y126801D03*
X70652Y111190D03*
X70562Y118790D03*
X70574Y120836D03*
X72789Y115090D03*
X64800Y114300D03*
X72562Y118790D03*
X72592Y121177D03*
X58969Y120895D03*
X73900Y111400D03*
X74773Y121100D03*
X74566Y118741D03*
X63067Y121000D03*
X73691Y126600D03*
X61067Y121000D03*
X65100D03*
X70731Y134560D03*
X62140Y135195D03*
X72911Y136825D03*
X71084Y128908D03*
X70677Y136792D03*
X69940Y144500D03*
X63900Y145100D03*
X62191Y137195D03*
X66300Y142800D03*
X66299Y145120D03*
X72902Y134404D03*
X73499Y143852D03*
X70071Y142100D03*
X60900Y140095D03*
X64751Y140200D03*
X65239Y137017D03*
X74653Y132894D03*
X73253Y128990D03*
X72200Y149700D03*
X65472Y148627D03*
X71999Y147532D03*
X68670Y147572D03*
X58439Y174869D03*
X72489Y175160D03*
X62889Y175072D03*
X67589Y175056D03*
X58491Y176998D03*
X62914Y177172D03*
X67589Y177156D03*
X72489Y177260D03*
X62989Y179298D03*
X72345Y179356D03*
X58589Y179147D03*
X67589Y179256D03*
X62897Y181396D03*
X67595Y181356D03*
X72428Y181455D03*
X58531Y181247D03*
X67980Y192225D03*
X58189Y192190D03*
X74279Y191329D03*
X75309Y188910D03*
X64771Y190027D03*
X64839Y192225D03*
X61439Y190138D03*
X71101Y192225D03*
X58571Y190090D03*
X71089Y190120D03*
X72389Y188390D03*
X68010Y190125D03*
X61680Y192225D03*
X92900Y2900D03*
X82900D03*
X85352Y7840D03*
X85329Y11600D03*
X82500Y22700D03*
X91607Y30526D03*
X89621Y66618D03*
X92631Y65660D03*
X79752Y93194D03*
X87604Y93199D03*
X80589Y101673D03*
X77461Y102487D03*
X87350Y101416D03*
X78624Y108899D03*
X82289Y103290D03*
X80850Y95118D03*
X80837Y97350D03*
X86533Y97228D03*
X80877Y99522D03*
X86550Y99398D03*
X86482Y95058D03*
X78596Y97414D03*
X78571Y95152D03*
X92489Y107098D03*
X92498Y109268D03*
X92402Y103290D03*
X86390Y103372D03*
X92489Y95426D03*
X88735Y97258D03*
X88732Y95087D03*
X88560Y103362D03*
X88749Y99460D03*
X86731Y107116D03*
X80600Y105300D03*
X80678Y108816D03*
X80881Y126655D03*
X77998Y127021D03*
X92504Y114909D03*
X86644Y118927D03*
X86754Y110996D03*
X78589Y118890D03*
X78709Y111290D03*
X92589Y112751D03*
X86389Y126690D03*
X88689Y126590D03*
X92510Y117142D03*
X86715Y122840D03*
X92217Y122981D03*
X92489Y120810D03*
X84440Y111061D03*
X86714Y114976D03*
X84472Y118989D03*
X92347Y126585D03*
X76004Y126584D03*
X76576Y118716D03*
X76800Y121100D03*
X76100Y111300D03*
X80678Y118722D03*
Y115105D03*
X76889Y114990D03*
X82789Y125390D03*
X80589Y124590D03*
X80678Y120914D03*
X80754Y111238D03*
X79723Y136781D03*
X87380Y137014D03*
X87581Y128604D03*
X78441Y130733D03*
X86435Y130465D03*
X86493Y132736D03*
X81310Y144550D03*
X78689Y132746D03*
X80841Y134915D03*
X78200Y142678D03*
X92489Y130590D03*
X80947Y132753D03*
X92489Y134562D03*
X78561Y134913D03*
X88683Y130474D03*
X80768Y130538D03*
X86367Y135044D03*
X88728Y132798D03*
X88575Y135042D03*
X75589Y128990D03*
X86789Y175157D03*
X91689D03*
X76549Y175104D03*
X81789Y175122D03*
X86889Y179355D03*
Y177255D03*
X76789Y179370D03*
X76697Y177227D03*
X81789Y179322D03*
Y177222D03*
X91689Y177257D03*
X91589Y179355D03*
X92199Y189099D03*
X91602Y181455D03*
X81789Y181422D03*
X86877Y181455D03*
X76789Y181470D03*
X77542Y192196D03*
X87737Y192152D03*
X89689Y191139D03*
X87289Y189995D03*
X83825Y190826D03*
X79621Y191774D03*
X78663Y189905D03*
X89975Y189058D03*
X81765Y191685D03*
X102900Y2900D03*
X102100Y29300D03*
X98600Y57000D03*
X100373Y63977D03*
X98500Y59600D03*
X94772Y63217D03*
X97435Y93151D03*
X105380Y93227D03*
X102222Y103058D03*
X106027Y110065D03*
X104643Y103156D03*
X97220Y101388D03*
X108086Y101121D03*
X104320Y95152D03*
X107941Y103353D03*
X98536Y95088D03*
X98528Y97338D03*
X104269Y97342D03*
X96253Y103335D03*
X98284Y107116D03*
X106604Y97995D03*
X104302Y99512D03*
X108123Y109009D03*
X110206Y103331D03*
X98423Y103276D03*
X106520Y95793D03*
X96288Y97204D03*
X96249Y99413D03*
X96323Y95033D03*
X104163Y108912D03*
X98565Y99685D03*
X106104Y119896D03*
X98240Y110984D03*
X108208Y115030D03*
X98218Y119115D03*
X110205Y111236D03*
X104356Y115065D03*
X103399Y124667D03*
X108237Y118747D03*
X104161Y120937D03*
X108198Y120979D03*
X96340Y126661D03*
X107964Y111235D03*
X108217Y126618D03*
X100514Y111033D03*
X98231Y115069D03*
X100484Y115024D03*
X100382Y118945D03*
X98562Y122704D03*
X100562Y122693D03*
X104112Y128252D03*
X105224Y136892D03*
X97411Y136875D03*
X97496Y128588D03*
X104209Y134911D03*
X106423Y134675D03*
X98559Y130539D03*
X104259Y132738D03*
X106478Y132236D03*
X110158Y132651D03*
X96358Y132762D03*
X104300Y130566D03*
X96376Y130591D03*
X96395Y134932D03*
X98528Y132722D03*
X98567Y134892D03*
X108089Y128890D03*
X105579Y159830D03*
X105560Y155870D03*
X96489Y175161D03*
X100989Y174882D03*
X105689Y175183D03*
X105579Y163090D03*
X100889Y179175D03*
X110231Y179356D03*
X110189Y177185D03*
X105815Y177280D03*
X105489Y179355D03*
X105579Y165200D03*
X100819Y176976D03*
X96489Y179361D03*
Y177261D03*
X105489Y181455D03*
X96326D03*
X100789Y181273D03*
X105771Y192197D03*
X99524Y188122D03*
X97561Y186929D03*
X98158Y190730D03*
X102593Y187815D03*
X102761Y192190D03*
X105622Y190078D03*
X94641Y187271D03*
X108781Y190573D03*
X108889Y188475D03*
X101394Y190595D03*
X96326Y192026D03*
X122900Y2900D03*
X112900D03*
X122208Y20167D03*
X119877Y18165D03*
X116188Y20357D03*
X123027Y18165D03*
X116728D03*
X119198Y20364D03*
X126046Y17967D03*
X125218Y20350D03*
X122740Y38226D03*
X127464Y38476D03*
X122650Y40326D03*
X119730Y38226D03*
X116727Y40615D03*
X118989Y30990D03*
X119600Y40700D03*
X114989Y30990D03*
X125800Y66500D03*
X123300Y60400D03*
X120800Y62600D03*
X123400Y64500D03*
X125850Y62250D03*
X112184Y93232D03*
X119701Y88522D03*
X114389Y110069D03*
X114468Y102333D03*
X114326Y94608D03*
X112154Y95402D03*
X112303Y103452D03*
X112469Y108978D03*
X110293Y109018D03*
X110289Y97050D03*
X110365Y101166D03*
X112666Y101464D03*
X114493Y127776D03*
X114467Y119977D03*
X122289Y127481D03*
X125413Y126431D03*
X112597Y118786D03*
X110424Y118730D03*
X111990Y114990D03*
X112548Y121016D03*
X110367Y121086D03*
X110387Y126663D03*
X112518Y111255D03*
X112570Y126597D03*
X111986Y136803D03*
X114266Y136721D03*
X114296Y134493D03*
X118649Y142274D03*
X124889Y134416D03*
X112031Y134503D03*
X124789Y136614D03*
X110290Y128955D03*
X112488Y128785D03*
X125500Y139300D03*
X120400Y136400D03*
X111789Y159830D03*
X123540Y158240D03*
X126361Y167090D03*
X110289Y175087D03*
X120589Y175129D03*
X111789Y165300D03*
X118589Y167100D03*
X123539Y166940D03*
X120689Y179327D03*
X120589Y177229D03*
X123589Y163590D03*
X120815Y181424D03*
X110307Y181455D03*
X115032D03*
X125127Y192226D03*
X115989Y191890D03*
X112165Y190935D03*
X113827Y192219D03*
X110499Y192225D03*
X127046Y191205D03*
X142900Y2900D03*
X132900D03*
X142416Y20461D03*
X132476Y20382D03*
X138775Y18165D03*
X132163Y18253D03*
X128228Y20069D03*
X129036Y18029D03*
X136396Y20533D03*
X135715Y18075D03*
X139406Y20428D03*
X141925Y18165D03*
X133484Y38779D03*
X127644Y40610D03*
X133484Y41212D03*
X130893Y41280D03*
X130474Y38554D03*
X138864Y40615D03*
X141924D03*
Y38226D03*
X140462Y44165D03*
X132900Y55637D03*
X127750Y43115D03*
X130600Y55600D03*
X138893Y45734D03*
X135883Y66252D03*
X133034Y69960D03*
X139817Y73745D03*
X131949Y66770D03*
X130942Y70153D03*
X129757Y64578D03*
X134565Y68455D03*
X128950Y67850D03*
X143269Y84120D03*
X134286Y82073D03*
X140716Y92794D03*
X144200Y77485D03*
X140944Y77544D03*
X134895Y79741D03*
X131800Y79200D03*
X141989Y80990D03*
X144502Y89008D03*
X141005Y84076D03*
X141073Y88815D03*
X138635Y77724D03*
X138149Y90624D03*
X143308Y107398D03*
X136628Y94396D03*
X127750Y97737D03*
X133223Y98142D03*
X135334Y98160D03*
X131354Y125640D03*
X140909Y128865D03*
X138489Y138990D03*
X131039Y134440D03*
X131374Y131361D03*
X133089Y136990D03*
X138889Y131190D03*
X136887Y128602D03*
X141189Y131148D03*
X133959Y133081D03*
X144585Y147586D03*
X128529Y155300D03*
X144585Y155894D03*
X137533Y162764D03*
X139703Y161712D03*
X129689Y175065D03*
X129589Y177163D03*
X129489Y179357D03*
X144508Y177740D03*
X137800Y176800D03*
X136206Y186518D03*
X141373Y191774D03*
X129394Y181455D03*
X138939Y191774D03*
X143182Y190292D03*
X140389Y187350D03*
X138420Y186530D03*
X129270Y191205D03*
X142520Y188299D03*
X152900Y2900D03*
X160822Y20554D03*
X151446D03*
X160822Y18165D03*
X151373D03*
X157672Y20554D03*
X148224Y18165D03*
X148436Y20514D03*
X154474Y18165D03*
X157484Y18161D03*
X145426Y20481D03*
X145074Y18165D03*
X154523Y20554D03*
X145062Y38226D03*
X156098D03*
X160822D03*
X146522Y31990D03*
X160818Y40619D03*
X144968Y40615D03*
X160737Y28166D03*
X145771Y84011D03*
X146100Y79900D03*
X159848Y104093D03*
X161267Y97084D03*
X145423Y106571D03*
X146100Y110300D03*
X160091Y111954D03*
X158729Y122399D03*
X159942Y124066D03*
X158026Y112139D03*
X158558Y144607D03*
X160789Y144628D03*
X152259Y140481D03*
X150591Y156057D03*
X158918Y150430D03*
X151890Y157767D03*
X158474Y176380D03*
X144950Y188990D03*
X172900Y2900D03*
X162900D03*
X176500Y3400D03*
X172200Y23600D03*
Y18900D03*
X178100Y18500D03*
X172000Y15400D03*
X171900Y11700D03*
X171700Y7400D03*
X176500Y7200D03*
X174300Y9600D03*
X176200Y12200D03*
X174500Y21400D03*
X177500D03*
X174900Y18100D03*
X175300Y15100D03*
X163972Y20554D03*
Y18165D03*
X178200Y40200D03*
X174300Y40100D03*
X172100Y38000D03*
X172000Y34400D03*
X171900Y30700D03*
X172200Y27400D03*
X169800Y36200D03*
Y32100D03*
Y28300D03*
X169600Y25112D03*
X163972Y38226D03*
X163994Y40615D03*
X177800Y45200D03*
X177500Y42500D03*
X174900D03*
X174400Y83490D03*
X170930Y91670D03*
X178623Y92495D03*
Y89345D03*
X176523Y92490D03*
X176641Y83566D03*
X172000Y83490D03*
X173436Y91145D03*
X167728Y100286D03*
X172814Y100271D03*
X178110Y100369D03*
X175989Y100490D03*
X176772Y96300D03*
X170246Y100237D03*
X165280Y100102D03*
X167539Y107985D03*
X171472Y108330D03*
X167633Y112073D03*
X167696Y116679D03*
X174148Y117616D03*
X175179Y111961D03*
X169672Y122099D03*
X167844Y118844D03*
X171897Y117616D03*
X177571Y111890D03*
X172527Y122207D03*
X172041Y129479D03*
X169210Y156685D03*
X163989Y155706D03*
X163789Y158006D03*
X163149Y152277D03*
X166959Y169972D03*
X163029Y167248D03*
X171300Y183300D03*
Y187600D03*
X174900Y183300D03*
Y187600D03*
X171300Y191700D03*
Y196000D03*
X174900Y191700D03*
Y196000D03*
X162289Y191990D03*
X193939Y6580D03*
X182776Y6487D03*
X187939Y3650D03*
X179700Y3300D03*
X193613Y16673D03*
X182404D03*
X188172Y19557D03*
X195852Y11516D03*
X180451Y11650D03*
X187300Y23800D03*
X191200Y23600D03*
X195100Y23000D03*
X181200Y21500D03*
X184100Y40300D03*
X181200D03*
X185600Y26000D03*
X189700Y26100D03*
X193500Y25900D03*
X196700Y25800D03*
X195200Y28400D03*
X193000Y33800D03*
Y38600D03*
X194400Y36300D03*
X196100Y38400D03*
X196500Y34200D03*
Y31100D03*
X187300Y39600D03*
X187100Y35800D03*
X185300Y37200D03*
X188100Y45300D03*
X187400Y42400D03*
X192100Y45300D03*
X193300Y43300D03*
X195300Y45100D03*
X196300Y47600D03*
X196000Y41700D03*
X184627Y71927D03*
X183809Y86200D03*
X185900Y86400D03*
X196376Y89719D03*
X196375Y91970D03*
X195067Y85511D03*
X192974Y85691D03*
X195200Y110600D03*
X187150Y96572D03*
X195950Y99471D03*
X193349Y103544D03*
X196376Y94070D03*
X196332Y96184D03*
X187094Y98679D03*
X195559Y103361D03*
X195200Y125600D03*
Y114800D03*
Y121900D03*
Y118400D03*
X181322Y114657D03*
X181498Y111766D03*
X195000Y136800D03*
X194900Y143800D03*
Y140200D03*
X195200Y132700D03*
Y129200D03*
X189621Y156848D03*
Y162548D03*
X183921D03*
Y156848D03*
X195700Y159000D03*
X187941Y180209D03*
X188174Y196116D03*
X182406Y193232D03*
X193615D03*
X195854Y188075D03*
X182778Y183046D03*
X193941Y183139D03*
X180453Y188209D03*
G54D20*
X29498Y8793D03*
X26546D03*
X69013Y66850D03*
X71965D03*
X69013Y70350D03*
X71965D03*
Y63350D03*
X69013D03*
X192976Y41100D03*
X190024D03*
X192976Y31000D03*
X190024D03*
G54D11*
X7341Y30726D03*
X7149Y57246D03*
X6989Y63350D03*
X21489Y14850D03*
Y20350D03*
X21548Y8793D03*
X21489Y25850D03*
X18946Y77259D03*
X11907Y77554D03*
X64989Y19850D03*
X65000Y13200D03*
X70558Y58377D03*
X80300Y16100D03*
X89833Y23099D03*
X90742Y34326D03*
X79566Y148887D03*
X115412Y83041D03*
X121385Y156085D03*
X121489Y161490D03*
X131900Y169500D03*
X160800Y154300D03*
X157789Y167290D03*
X166991Y153777D03*
G54D12*
X11807Y188182D03*
X188185Y11804D03*
Y188182D03*
G54D30*
X59566Y83041D03*
Y148887D03*
X125412Y83041D03*
Y148887D03*
G54D21*
G01X-100138Y-167478D02*
Y-67478D01*
X299862D01*
G01D02*
Y-167478D01*
X-100138D01*
G01X194271Y152198D02*
Y148478D01*
G01X189621Y156848D02*
X186771Y159698D01*
G01X194271Y152198D02*
X189621Y156848D01*
X39000Y22000D03*
X57906Y113193D03*
X61300Y117200D03*
X143689Y110290D03*
X140557Y125614D03*
X128886Y125702D03*
X143469Y130840D03*
X128989Y135490D03*
X134694Y129586D03*
X134789Y135290D03*
X140289Y135790D03*
X143139Y158693D03*
X133276Y158199D03*
X147439Y119393D03*
X145889Y135890D03*
X186600Y83900D03*
X192200Y80800D03*
G54D13*
X15437Y22112D03*
X11697D03*
X7957D03*
Y10891D03*
X15437D03*
G54D40*
X173523Y58047D03*
X168995Y50173D03*
Y52142D03*
Y54110D03*
Y56079D03*
Y58047D03*
X173523Y60016D03*
Y61984D03*
Y63953D03*
X168995Y60016D03*
Y61984D03*
Y63953D03*
Y65921D03*
Y67890D03*
Y69858D03*
Y71827D03*
X188877Y58047D03*
X193405D03*
Y56079D03*
Y54110D03*
Y52142D03*
Y50173D03*
X188877Y60016D03*
Y63953D03*
Y61984D03*
X193405Y71827D03*
Y69858D03*
Y67890D03*
Y65921D03*
Y63953D03*
Y61984D03*
Y60016D03*
G54D22*
X39825Y13161D03*
Y15263D03*
X48268Y25050D03*
X50370D03*
X75300Y19000D03*
Y16898D03*
X58667Y13161D03*
Y15263D03*
X66085Y186282D03*
Y184180D03*
X61785Y186282D03*
Y184180D03*
X74585Y186282D03*
Y184180D03*
X70289Y186282D03*
Y184180D03*
X91460Y186282D03*
Y184180D03*
X87159Y186282D03*
Y184180D03*
X82918Y186282D03*
Y184180D03*
X78761Y186282D03*
Y184180D03*
X126104Y159605D03*
X126138Y163990D03*
X122400Y188951D03*
Y186849D03*
X132730Y139651D03*
Y141753D03*
X128206Y159605D03*
X132668Y153775D03*
Y151673D03*
X128240Y163990D03*
X148112Y109227D03*
X149536Y123371D03*
Y125473D03*
X148112Y111329D03*
X158474Y171976D03*
Y174078D03*
X169210Y159189D03*
Y161291D03*
X168983Y176627D03*
Y174525D03*
G54D31*
G01X-100138Y-147478D02*
X299862D01*
G01X-100138Y-117478D02*
Y-97478D01*
X299862D01*
G01X-50138Y-167478D02*
Y-147478D01*
G01X9400Y94000D02*
X11907Y91493D01*
Y77554D01*
G01X12502Y106227D02*
X11162Y107567D01*
X11155D01*
G01X12502Y94800D02*
Y96778D01*
G01Y103077D02*
X11000Y104579D01*
G01X12502Y109376D02*
X11158Y110720D01*
G01X12502Y99928D02*
X11100Y98526D01*
G01X12502Y121975D02*
X10800Y123677D01*
G01X12502Y115676D02*
X11000Y117178D01*
G01X12502Y112526D02*
X11158Y113870D01*
G01X15651Y118825D02*
X14226Y117400D01*
G01X12502Y118825D02*
X12801D01*
X14226Y117400D01*
G01X12502Y125124D02*
X11026Y126600D01*
G01X15651Y144022D02*
X17229Y145600D01*
G01X15651Y140872D02*
X14100Y142423D01*
G01X15651Y134573D02*
Y134649D01*
X14100Y136200D01*
G01X12502Y131424D02*
X10878Y129800D01*
G01X12502Y128274D02*
X12404D01*
X10878Y129800D01*
G01X18801Y131424D02*
X20127D01*
X20633Y130918D01*
G01X12502Y140872D02*
X11074Y142300D01*
G01X12502Y137723D02*
X11000Y136221D01*
G01X12502Y134573D02*
Y134719D01*
X11000Y136221D01*
G01X18801Y140872D02*
X17373Y142300D01*
G01X12502Y144022D02*
X14300Y145820D01*
G01X15651Y128274D02*
X16735Y129358D01*
X17212D01*
G01X34800Y61700D02*
Y60492D01*
X35932Y59360D01*
Y56469D01*
G01X37698Y106227D02*
X38937Y104988D01*
Y104786D01*
G01X37698Y99928D02*
X36300Y98530D01*
G01X37698Y96778D02*
X39120Y98200D01*
G01X34549Y125124D02*
X35900Y126475D01*
G01X37698Y121975D02*
X39212Y123489D01*
G01X37698Y115676D02*
X39161Y117139D01*
G01X34549Y118825D02*
X36000Y120276D01*
G01X37698Y118825D02*
X37451D01*
X36000Y120276D01*
G01X37698Y125124D02*
X39000Y126426D01*
Y126600D01*
G01X31399Y125124D02*
X32875Y126600D01*
G01X37698Y112526D02*
X37926D01*
X39200Y113800D01*
G01X34549Y128274D02*
X32875Y126600D01*
G01X34549Y131424D02*
X33100Y132873D01*
G01X34549Y134573D02*
Y134322D01*
X33100Y132873D01*
G01X39598Y137669D02*
X39544Y137723D01*
X37698D01*
G01X33200Y142684D02*
X33211D01*
X34549Y144022D01*
G01X37698Y134573D02*
X39598D01*
G01X37698Y140872D02*
X39598D01*
G01X37698Y144022D02*
X39878D01*
G01X37698Y128274D02*
X39042Y129618D01*
G01X37989Y167290D02*
Y163590D01*
G01Y167290D02*
Y170990D01*
G01Y167290D02*
X41689D01*
G01X37989D02*
X34289D01*
G01X99200Y28500D02*
X74400D01*
G01X65198Y89399D02*
X66898D01*
G01X70835Y91368D02*
X72803Y93336D01*
X73073D01*
G01X70652Y109036D02*
Y111190D01*
G01X70835Y107116D02*
Y108547D01*
X70686Y108696D01*
Y108851D01*
X70664Y108873D01*
Y109024D01*
X70652Y109036D01*
G01X70835Y105148D02*
Y107116D01*
G01X68867Y103179D02*
X71279D01*
X71700Y103600D01*
G01X70835Y105148D02*
Y104465D01*
X71700Y103600D01*
G01X73073Y93336D02*
X74773D01*
G01X70835Y124832D02*
Y122864D01*
G01Y116958D02*
Y114990D01*
G01D02*
Y113022D01*
G01D02*
X70652Y112839D01*
Y111190D01*
G01X70574Y120836D02*
Y121003D01*
X70835Y121264D01*
Y122864D01*
G01Y116958D02*
Y118517D01*
X70562Y118790D01*
G01D02*
X70689Y118917D01*
Y120721D01*
X70574Y120836D01*
G01X68867Y126801D02*
X71203D01*
G01D02*
Y128789D01*
X71084Y128908D01*
G01X71203Y126801D02*
Y125200D01*
X70835Y124832D01*
G01X74773Y114990D02*
X74673Y115090D01*
X72789D01*
G01X70835Y138612D02*
X70677Y138454D01*
Y136792D01*
G01D02*
X72878D01*
X72911Y136825D01*
G01X70731Y134560D02*
X70835Y134456D01*
G01D02*
Y136634D01*
X70677Y136792D01*
G01X70835Y134456D02*
Y132706D01*
G01X68867Y136644D02*
X70529D01*
X70677Y136792D01*
G01X74773Y136644D02*
X73092D01*
X72911Y136825D01*
G01X70835Y132706D02*
Y130738D01*
G01D02*
Y129157D01*
X71084Y128908D01*
G01X75362Y-167478D02*
Y-147478D01*
G01X74862Y-97478D02*
Y-67478D01*
G01X84615Y101210D02*
X87144D01*
X87350Y101416D01*
G01X88552Y109084D02*
Y111053D01*
G01X78624Y108899D02*
Y111205D01*
X78709Y111290D01*
G01Y101210D02*
X77461Y102458D01*
Y102487D01*
G01X78709Y101210D02*
X79172Y101673D01*
X80589D01*
G01X90521Y103179D02*
Y101210D01*
G01X78624Y108899D02*
X78709Y108814D01*
Y107116D01*
G01X90521Y101210D02*
X87556D01*
X87350Y101416D01*
G01X87604Y93199D02*
X87594Y93209D01*
X84743D01*
X84615Y93336D01*
G01X76741D02*
X76979Y93098D01*
X79656D01*
X79752Y93194D01*
G01X82647Y93336D02*
X82646D01*
X82504Y93194D01*
X79752D01*
G01X84615Y93336D02*
X82647D01*
G01X90521D02*
X90393Y93209D01*
X87614D01*
X87604Y93199D01*
G01X92489Y93336D02*
X90521D01*
G01X78709Y107116D02*
Y105148D01*
G01X84615Y103179D02*
X86197D01*
X86390Y103372D01*
G01X90521Y99242D02*
X88967D01*
X88749Y99460D01*
G01X88552Y105148D02*
Y103370D01*
X88560Y103362D01*
G01X84615Y109084D02*
Y105148D01*
G01X86583Y109084D02*
X84615D01*
G01D02*
Y110886D01*
X84440Y111061D01*
G01X80678Y107116D02*
Y108816D01*
G01X82647Y107116D02*
Y106448D01*
X81499Y105300D01*
X80600D01*
G01X88552Y111053D02*
X86811D01*
X86754Y110996D01*
G01X88552Y118927D02*
X86644D01*
G01X88552Y116958D02*
Y118927D01*
G01X90521Y114990D02*
X92423D01*
X92504Y114909D01*
G01X78709Y113022D02*
Y111290D01*
G01Y116958D02*
Y118770D01*
X78589Y118890D01*
G01X88552Y118927D02*
Y120896D01*
G01Y111053D02*
Y113022D01*
G01X78709Y124832D02*
Y122864D01*
G01X78589Y118890D02*
Y121072D01*
X78709Y121192D01*
Y122864D01*
G01X80881Y126655D02*
X81646D01*
X82647Y127656D01*
Y128770D01*
G01X78709Y124832D02*
X77998Y125543D01*
Y127021D01*
G01D02*
Y128059D01*
X78709Y128770D01*
G01X84615Y126801D02*
X86278D01*
X86389Y126690D01*
G01X86583Y124832D02*
X88552D01*
G01D02*
Y126453D01*
X88689Y126590D01*
G01X90521Y124832D02*
X88552D01*
G01X92489Y118927D02*
X90521D01*
G01D02*
Y120896D01*
G01D02*
Y122864D01*
G01X86583Y120896D02*
Y122708D01*
X86715Y122840D01*
G01X88552Y122864D02*
X86739D01*
X86715Y122840D01*
G01X90521Y122864D02*
X88552D01*
G01X84615Y113022D02*
Y111236D01*
X84440Y111061D01*
G01X86583Y116958D02*
Y115107D01*
X86714Y114976D01*
G01X88552Y114990D02*
X86728D01*
X86714Y114976D01*
G01X86583Y113022D02*
Y114845D01*
X86714Y114976D01*
G01X84615Y120896D02*
Y119132D01*
X84472Y118989D01*
G01X84615Y116958D02*
Y118846D01*
X84472Y118989D01*
G01X82647Y114990D02*
X84615Y116958D01*
G01X82647Y114990D02*
X84615Y113022D01*
G01Y116958D02*
X86583D01*
G01X84615Y120896D02*
X86583D01*
G01X84615Y124832D02*
Y124184D01*
X85959Y122840D01*
X86715D01*
G01X80678Y116958D02*
Y118722D01*
G01X78709Y114990D02*
X76889D01*
G01X90521Y128770D02*
X90355Y128604D01*
X87581D01*
G01X79723Y136781D02*
X82509D01*
X82647Y136644D01*
G01Y128770D02*
X84615D01*
G01X79723Y136781D02*
X76878D01*
X76741Y136644D01*
G01D02*
X74773D01*
G01X82647D02*
X84615D01*
G01D02*
X84985Y137014D01*
X87380D01*
G01X90521Y136644D02*
X90151Y137014D01*
X87380D01*
G01X92489Y136644D02*
X90521D01*
G01X78709Y128770D02*
X82647D01*
G01X84615D02*
X84781Y128604D01*
X87581D01*
G01X78709Y128770D02*
Y130465D01*
X78441Y130733D01*
G01X110429Y10210D02*
Y6877D01*
G01Y11544D02*
X110302Y11627D01*
Y11794D01*
X110429Y11877D01*
X110556Y11794D01*
Y11627D01*
X110429Y11544D01*
G01X115529Y6710D02*
X115402Y6794D01*
Y6960D01*
X115529Y7044D01*
X115656Y6960D01*
Y6794D01*
X115529Y6710D01*
G01X118982Y6877D02*
Y11877D01*
X120629Y7710D01*
X122276Y11877D01*
Y6877D01*
G01X124399D02*
X127059Y11877D01*
G01X124399D02*
X127059Y6877D01*
G01X135929D02*
X136372Y6960D01*
X136879Y7210D01*
X137196Y7627D01*
X137322Y8210D01*
X137196Y8794D01*
X136816Y9294D01*
X136246Y9544D01*
X135612D01*
X135232Y9710D01*
X134916Y10127D01*
X134789Y10710D01*
X134979Y11294D01*
X135422Y11710D01*
X135929Y11877D01*
X136436Y11710D01*
X136879Y11294D01*
X137069Y10710D01*
X136942Y10127D01*
X136626Y9710D01*
X136246Y9544D01*
X135612D01*
X135042Y9294D01*
X134662Y8794D01*
X134536Y8210D01*
X134662Y7627D01*
X134979Y7210D01*
X135486Y6960D01*
X135929Y6877D01*
G01X139382D02*
Y11877D01*
X141029Y7710D01*
X142676Y11877D01*
Y6877D01*
G01X149772D02*
Y11877D01*
X152686Y6877D01*
Y11877D01*
G01X154746Y6877D02*
X156329Y11877D01*
X157912Y6877D01*
G01X157342Y8627D02*
X155316D01*
G01X159972Y6877D02*
Y11877D01*
X162886Y6877D01*
Y11877D01*
G01X166529Y6877D02*
X166022Y6960D01*
X165579Y7294D01*
X165199Y7794D01*
X164946Y8377D01*
X164819Y9044D01*
Y9710D01*
X164946Y10377D01*
X165199Y10960D01*
X165579Y11460D01*
X166022Y11794D01*
X166529Y11877D01*
X167036Y11794D01*
X167479Y11460D01*
X167859Y10960D01*
X168112Y10377D01*
X168239Y9710D01*
Y9044D01*
X168112Y8377D01*
X167859Y7794D01*
X167479Y7294D01*
X167036Y6960D01*
X166529Y6877D01*
G01X99689Y34490D02*
Y38762D01*
X99880Y38953D01*
G01X96426Y109084D02*
Y111053D01*
G01X100363Y103179D02*
X102101D01*
X102222Y103058D01*
G01X106269Y101210D02*
Y101530D01*
X104643Y103156D01*
G01X100363Y101210D02*
X102331D01*
G01X97435Y93151D02*
X94643D01*
X94457Y93336D01*
G01X97220Y101388D02*
X94635D01*
X94457Y101210D01*
G01X105380Y93227D02*
X102440D01*
X102331Y93336D01*
G01X94457D02*
X92489D01*
G01X100363D02*
X100178Y93151D01*
X97435D01*
G01X102331Y93336D02*
X100363D01*
G01X108237D02*
X108125Y93227D01*
X105380D01*
G01X110205Y93336D02*
X108237D01*
G01X106269Y107116D02*
X106027Y107357D01*
Y110065D01*
G01X106269Y105148D02*
Y107116D01*
G01X100363Y101210D02*
X100085Y101488D01*
G01X106269Y105148D02*
X104643Y103522D01*
G01X100085Y101488D02*
X97320D01*
X97220Y101388D01*
G01X104643Y103522D02*
Y103156D01*
G01X108237Y105148D02*
Y103649D01*
X107941Y103353D01*
G01X98284Y107116D02*
X96426D01*
G01Y105148D02*
Y103508D01*
X96253Y103335D01*
G01X94457Y103179D02*
X92513D01*
X92402Y103290D01*
G01X92489Y101210D02*
X92402Y101297D01*
Y103290D01*
G01X108237Y107116D02*
Y108895D01*
X108123Y109009D01*
G01X98395Y105148D02*
Y103304D01*
X98423Y103276D01*
G01X100363Y105148D02*
X98395D01*
G01X102331Y111053D02*
Y109084D01*
G01X104300Y107116D02*
Y108775D01*
X104163Y108912D01*
G01X102331Y109084D02*
X103991D01*
X104163Y108912D01*
G01X102331Y107116D02*
Y109084D01*
G01X98395D02*
X100363D01*
G01D02*
X100514Y109235D01*
Y111033D01*
G01X96426Y111053D02*
X98171D01*
X98240Y110984D01*
G01X94457Y114990D02*
X92585D01*
X92504Y114909D01*
G01X96426Y118927D02*
X98030D01*
X98218Y119115D01*
G01X96426Y116958D02*
Y118927D01*
G01Y111053D02*
Y113022D01*
G01Y118927D02*
Y120896D01*
G01X104300Y113022D02*
X106269D01*
G01X104300Y122864D02*
X106269D01*
G01D02*
Y124832D01*
G01Y114990D02*
Y116958D01*
G01Y113022D02*
Y112077D01*
X106027Y111835D01*
Y110065D01*
G01X106269Y114990D02*
Y113022D01*
G01Y122864D02*
X106104Y122699D01*
Y119896D01*
G01X106269Y124832D02*
X104112Y126989D01*
Y128252D01*
G01X106269Y128770D02*
Y124832D01*
G01X100363Y126801D02*
Y128770D01*
G01X106269Y116958D02*
X106104Y117123D01*
Y119896D01*
G01X102331Y114990D02*
Y116958D01*
G01Y114990D02*
X104281D01*
X104356Y115065D01*
G01X102331Y116958D02*
X104300D01*
G01X102331Y113022D02*
Y114990D01*
G01X104300Y116958D02*
X104356Y116902D01*
Y115065D01*
G01X102331Y122864D02*
Y123667D01*
X103331Y124667D01*
X103399D01*
G01X102331Y120896D02*
X104120D01*
X104161Y120937D01*
G01X102331Y118927D02*
Y120896D01*
G01X108237Y122864D02*
Y121018D01*
X108198Y120979D01*
G01X94457Y124832D02*
X96286Y126661D01*
X96340D01*
G01X108237Y124832D02*
Y126598D01*
X108217Y126618D01*
G01X96426Y114990D02*
X94457Y116958D01*
G01Y120896D02*
Y122864D01*
G01Y118927D02*
Y120896D01*
G01Y116958D02*
Y118927D01*
G01X100363Y113022D02*
X100514Y112871D01*
Y111033D01*
G01X100484Y115024D02*
X98276D01*
X98231Y115069D01*
G01X98395Y113022D02*
X98231Y113186D01*
Y115069D01*
G01X98395Y116958D02*
X98231Y116794D01*
Y115069D01*
G01X100363Y113022D02*
X100484Y113143D01*
Y115024D01*
G01X96426Y114990D02*
X96505Y115069D01*
X98231D01*
G01X100363Y116958D02*
X100484Y116837D01*
Y115024D01*
G01X98395Y120896D02*
X100363D01*
G01D02*
X100382Y120877D01*
Y118945D01*
G01X100363Y116958D02*
Y118926D01*
X100382Y118945D01*
G01X92489Y120810D02*
Y118927D01*
G01X94457Y128770D02*
X94639Y128588D01*
X97496D01*
G01X100363Y128770D02*
X99466D01*
X99284Y128588D01*
X97496D01*
G01X97411Y136875D02*
X94689D01*
X94457Y136644D01*
G01X97411Y136875D02*
X97518Y136768D01*
X100239D01*
X100363Y136644D01*
G01X104112Y128252D02*
X104630Y128770D01*
X106269D01*
G01X100363D02*
X102331D01*
G01X94457Y136644D02*
X92489D01*
G01X100363D02*
X102331D01*
G01D02*
X102579Y136892D01*
X105224D01*
G01X108237Y136644D02*
X105472D01*
X105224Y136892D01*
G01X110205Y136644D02*
X108237D01*
G01X102331Y128770D02*
X102849Y128252D01*
X104112D01*
G01X92489Y128770D02*
Y130590D01*
G01X94457Y134675D02*
X96138D01*
X96395Y134932D01*
G01X108237Y130738D02*
Y129038D01*
X108089Y128890D01*
G01X124862Y-167478D02*
Y-147478D01*
G01X118080Y89399D02*
X118824D01*
X119701Y88522D01*
G01X112184Y93232D02*
X113844D01*
X114326Y93714D01*
Y94608D01*
G01X114389Y110069D02*
Y107362D01*
X114143Y107116D01*
G01X112184Y93232D02*
X112079Y93336D01*
X110205D01*
G01X114326Y94608D02*
Y97090D01*
X114143Y97274D01*
G01Y107116D02*
Y105148D01*
G01D02*
X114437Y104853D01*
Y102537D01*
X114468Y102506D01*
Y102333D01*
G01X114143Y99242D02*
X114437Y99536D01*
Y100792D01*
X114440Y100795D01*
Y102232D01*
X114468Y102260D01*
Y102333D01*
G01X114143Y97274D02*
Y99242D01*
G01X114493Y127776D02*
Y125182D01*
X114143Y124832D01*
G01X114389Y110069D02*
Y112775D01*
X114143Y113022D01*
G01Y124832D02*
Y122864D01*
G01D02*
X114467Y122540D01*
Y119977D01*
G01X114143Y116958D02*
X114467Y117283D01*
Y119977D01*
G01X114143Y114990D02*
Y116958D01*
G01Y113022D02*
Y114990D01*
G01X114266Y136721D02*
X112068D01*
X111986Y136803D01*
G01X114296Y134493D02*
Y136691D01*
X114266Y136721D01*
G01X114296Y134493D02*
Y132859D01*
X114143Y132706D01*
G01X111986Y136803D02*
X111827Y136644D01*
X110205D01*
G01X118080Y140581D02*
X118649Y141150D01*
Y142274D01*
G01X116111Y138612D02*
X118080Y140581D01*
G01X114143Y132706D02*
Y130738D01*
G01D02*
X114493Y130388D01*
Y127776D01*
G01X110205Y130738D02*
Y129040D01*
X110290Y128955D01*
G01X138489Y138990D02*
Y142747D01*
X138285Y142951D01*
G01X138489Y138990D02*
X138442Y138943D01*
X135536D01*
X134828Y139651D01*
X132730D01*
G01X132668Y153775D02*
X131143Y155300D01*
X128529D01*
G01X128240Y163990D02*
Y159639D01*
X128206Y159605D01*
G01X139703Y161712D02*
X138955Y160964D01*
X135468D01*
X135323Y161109D01*
X130577D01*
X129073Y159605D01*
X128206D01*
G01X131901Y165257D02*
X134368Y162790D01*
X137507D01*
X137533Y162764D01*
G01X164380Y70920D02*
X165442Y69858D01*
X168995D01*
G01X156100Y108400D02*
X155273Y109227D01*
X148112D01*
G01X146100Y110300D02*
X147173Y109227D01*
X148112D01*
G01X149536Y125473D02*
X152317D01*
G01X144585Y151613D02*
Y155894D01*
G01Y151613D02*
Y147586D01*
G01X158474Y176380D02*
Y174078D01*
G01X168405Y47614D02*
X163486D01*
G01X168995Y71827D02*
X166695D01*
G01X168995Y67890D02*
X166695D01*
G01X171793Y77093D02*
X172342Y76544D01*
Y74386D01*
G01X178990Y77138D02*
X178791Y76939D01*
Y76680D01*
X178247Y76136D01*
Y74386D01*
G01X168405D02*
X166107D01*
G01X174310Y77030D02*
Y74386D01*
G01X176506Y76897D02*
X176279Y76670D01*
Y74386D01*
G01X170373D02*
Y75723D01*
X169146Y76950D01*
G01X169697Y104199D02*
X169696D01*
X167728Y102231D01*
G01D02*
Y100286D01*
G01X172814Y100271D02*
Y100812D01*
X171665Y101961D01*
Y102231D01*
G01X169697D02*
Y100786D01*
X170246Y100237D01*
G01X165280Y100102D02*
Y100744D01*
X165760Y101224D01*
Y102231D01*
G01X167728Y104199D02*
X165760Y102231D01*
G01X167539Y107985D02*
X167728Y107796D01*
Y106168D01*
G01X169697Y110105D02*
X171472Y108330D01*
G01X167633Y112073D02*
X169697D01*
G01X167696Y116679D02*
X167927D01*
X168596Y116010D01*
X169697D01*
G01X174148Y117616D02*
Y118194D01*
X173634Y118708D01*
Y119947D01*
G01X175602Y110105D02*
Y111538D01*
X175179Y111961D01*
G01X167728Y123884D02*
X169513Y122099D01*
X169672D01*
G01X167844Y118844D02*
X168161D01*
X169026Y117979D01*
X169697D01*
G01X171897Y117616D02*
Y118021D01*
X171665Y118253D01*
Y119947D01*
G01X177571Y110105D02*
Y111890D01*
G01X172527Y122207D02*
X172425Y122309D01*
Y123124D01*
X171665Y123884D01*
G01X172041Y129479D02*
Y129311D01*
X171665Y128935D01*
Y127821D01*
G01X169210Y159189D02*
Y156685D01*
G01Y159189D02*
X172201D01*
X172626Y158764D01*
X173432D01*
G01X166959Y169972D02*
X168983Y171996D01*
Y174525D01*
G01Y176627D02*
X163031D01*
X163029Y176625D01*
G01X193405Y67890D02*
X195705D01*
G01X196000Y72800D02*
X195200D01*
X194227Y71827D01*
X193405D01*
G01X182200Y76686D02*
Y76141D01*
X182184Y76125D01*
Y74386D01*
G01X193995D02*
X194609Y75000D01*
X196000D01*
G01X188877Y61984D02*
X185334D01*
X183759Y63559D01*
G01X188877Y60016D02*
X185334D01*
X183759Y58441D01*
G01X193405Y69858D02*
X195158D01*
X195800Y70500D01*
G01X192200Y80800D02*
X193000Y81600D01*
X195500D01*
G01X181322Y114657D02*
X181295Y114630D01*
X180127D01*
X179539Y114042D01*
G01Y112073D02*
X181191D01*
X181498Y111766D01*
X66898Y89399D03*
X70835Y91368D03*
X74773Y93336D03*
X68867D03*
Y89399D03*
Y91368D03*
X72804D03*
X70835Y89399D03*
X66898Y91368D03*
Y93336D03*
X74773Y91368D03*
Y89399D03*
X72804D03*
X70835Y105148D03*
Y107116D03*
Y97274D03*
Y99242D03*
X68867Y103179D03*
X66898Y101210D03*
Y103179D03*
Y95305D03*
X68867D03*
Y97274D03*
X66898D03*
Y107116D03*
X68867D03*
Y105148D03*
X66898D03*
X68867Y101210D03*
Y99242D03*
X66898D03*
X74773Y105148D03*
Y107116D03*
Y95305D03*
X72804Y97274D03*
X66898Y109084D03*
X68867D03*
X72804Y107116D03*
Y105148D03*
X74773Y99242D03*
X72804D03*
X70835Y113022D03*
Y114990D03*
Y116958D03*
Y122864D03*
Y124832D03*
X68867Y126801D03*
X74773Y114990D03*
X68867D03*
X66898D03*
Y113022D03*
Y126801D03*
Y122864D03*
X68867D03*
Y124832D03*
X66898D03*
X68867Y113022D03*
Y111053D03*
X66898D03*
X74773Y113022D03*
X72804D03*
X66898Y116958D03*
X68867D03*
Y118927D03*
X66898D03*
X74773Y122864D03*
Y116958D03*
X72804D03*
X74773Y124832D03*
X66898Y120896D03*
X68867D03*
X72804Y124832D03*
Y122864D03*
X70835Y130738D03*
Y132706D03*
X74773Y136644D03*
X68867D03*
X70835Y138612D03*
X66898Y140581D03*
Y128770D03*
X68867Y140581D03*
Y138612D03*
Y132706D03*
X66898D03*
X68867Y128770D03*
Y130738D03*
X72804Y138612D03*
X70835Y140581D03*
X66898Y138612D03*
Y136644D03*
Y134675D03*
X68867D03*
X74773Y138612D03*
Y140581D03*
X66898Y130738D03*
X72804Y140581D03*
X74773Y134675D03*
X72804Y132706D03*
X74773Y130738D03*
X72804D03*
X82647Y93336D03*
X76741D03*
X92489D03*
X90521D03*
X84615D03*
Y91368D03*
Y89399D03*
X86583Y91368D03*
Y89399D03*
X88552Y91368D03*
Y89399D03*
X90521Y91368D03*
Y89399D03*
X92489Y91368D03*
Y89399D03*
X82647Y91368D03*
Y89399D03*
X80678Y91368D03*
X76741D03*
Y89399D03*
X80678D03*
X78709Y91368D03*
Y89399D03*
Y107116D03*
X88552Y109084D03*
X78709Y101210D03*
X90521D03*
X84615D03*
X90521Y103179D03*
X78709Y105148D03*
X82647Y101210D03*
X86583Y105148D03*
X88552Y107116D03*
X86583Y109084D03*
X84615Y105148D03*
Y109084D03*
X90521Y107116D03*
Y109084D03*
X92489Y105148D03*
X90521D03*
X92489Y101210D03*
X90521Y99242D03*
X84615Y103179D03*
X88552Y105148D03*
X82647Y107116D03*
X80678D03*
X82647Y109084D03*
Y99242D03*
Y97274D03*
Y95305D03*
X84615Y99242D03*
Y97274D03*
Y95305D03*
X90521Y97274D03*
Y95305D03*
X92489Y97274D03*
X76741D03*
Y95305D03*
Y99242D03*
Y107116D03*
Y105148D03*
X88552Y111053D03*
X78709Y113022D03*
X88552D03*
X90521Y114990D03*
X78709Y116958D03*
X88552D03*
Y118927D03*
Y120896D03*
X78709Y122864D03*
Y124832D03*
X86583Y116958D03*
X92489Y118927D03*
X90521D03*
Y120896D03*
X86583D03*
X90521Y122864D03*
X88552D03*
X90521Y116958D03*
Y126801D03*
X92489Y124832D03*
X86583Y113022D03*
X88552Y114990D03*
X82647D03*
X84615Y124832D03*
Y113022D03*
Y116958D03*
Y120896D03*
X92489Y111053D03*
X90521D03*
Y113022D03*
Y124832D03*
X88552D03*
X86583D03*
X84615Y126801D03*
X82647Y111053D03*
Y113022D03*
X80678D03*
X82647Y116958D03*
X80678D03*
X82647Y118927D03*
Y120896D03*
Y122864D03*
X78709Y114990D03*
X80678Y122864D03*
X76741Y113022D03*
Y116958D03*
Y122864D03*
Y124832D03*
X82647Y128770D03*
X78709D03*
X90521D03*
X84615D03*
X82647Y136644D03*
X76741D03*
X92489D03*
X90521D03*
X84615D03*
X92489Y128770D03*
X76741Y140581D03*
Y132706D03*
X80678Y138612D03*
Y140581D03*
X76741Y138612D03*
Y134675D03*
X78709Y138612D03*
Y140581D03*
X90521Y130738D03*
X92489Y132706D03*
X90521D03*
Y134675D03*
X84615Y130738D03*
Y132706D03*
X82647Y134675D03*
X84615D03*
X82647Y130738D03*
Y132706D03*
X92489Y138612D03*
Y140581D03*
X90521Y138612D03*
Y140581D03*
X88552Y138612D03*
Y140581D03*
X84615Y138612D03*
Y140581D03*
X82647Y138612D03*
Y140581D03*
X86583Y138612D03*
Y140581D03*
X76741Y130738D03*
X110205Y93336D03*
X108237D03*
X102331D03*
X100363D03*
X94457D03*
X110205Y91368D03*
Y89399D03*
X108237Y91368D03*
Y89399D03*
X106269Y91368D03*
Y89399D03*
X104300Y91368D03*
Y89399D03*
X96426D03*
X102331Y91368D03*
Y89399D03*
X100363Y91368D03*
Y89399D03*
X98395Y91368D03*
Y89399D03*
X94457Y91368D03*
Y89399D03*
X96426Y91368D03*
X106269Y105148D03*
Y107116D03*
X96426Y109084D03*
X106269Y101210D03*
X102331D03*
X100363D03*
X94457D03*
X100363Y103179D03*
Y109084D03*
X98395D03*
X94457Y107116D03*
Y109084D03*
X96426Y105148D03*
X94457D03*
X96426Y107116D03*
X94457Y103179D03*
X108237Y107116D03*
X104300D03*
X98395Y105148D03*
X102331Y107116D03*
X100363Y105148D03*
X102331Y109084D03*
X108237Y105148D03*
X110205Y107116D03*
Y99242D03*
Y105148D03*
X94457Y99242D03*
X100363Y95305D03*
X94457Y97274D03*
Y95305D03*
X110205D03*
X108237Y97274D03*
Y95305D03*
X102331Y97274D03*
X108237Y99242D03*
X102331Y95305D03*
Y99242D03*
X100363Y97274D03*
Y99242D03*
X96426Y111053D03*
X106269Y113022D03*
X104300D03*
X96426D03*
X106269Y114990D03*
X94457D03*
X106269Y116958D03*
X96426D03*
Y118927D03*
Y120896D03*
X106269Y122864D03*
X104300D03*
X106269Y124832D03*
X100363Y126801D03*
X102331Y122864D03*
X94457Y126801D03*
X98395Y124832D03*
Y113022D03*
X100363Y120896D03*
Y116958D03*
X94457D03*
Y118927D03*
Y120896D03*
X96426Y122864D03*
X100363Y113022D03*
X94457Y122864D03*
X108237D03*
X96426Y124832D03*
X94457D03*
Y111053D03*
Y113022D03*
X102331Y114990D03*
X104300Y116958D03*
X102331Y113022D03*
X98395Y116958D03*
Y120896D03*
X96426Y114990D03*
X102331Y116958D03*
Y111053D03*
X108237Y124832D03*
X102331Y120896D03*
Y118927D03*
X100363Y124832D03*
X110205D03*
Y113022D03*
X108237D03*
X110205Y116958D03*
Y122864D03*
Y114990D03*
X108237Y116958D03*
X106269Y128770D03*
X102331D03*
X100363D03*
X94457D03*
X110205Y136644D03*
X108237D03*
X102331D03*
X100363D03*
X94457D03*
Y134675D03*
X100363Y130738D03*
X102331D03*
X100363Y134675D03*
Y132706D03*
X94457D03*
Y130738D03*
X100363Y138612D03*
Y140581D03*
X98395Y138612D03*
Y140581D03*
X94457Y138612D03*
Y140581D03*
X96426Y138612D03*
Y140581D03*
X104300Y138612D03*
Y140581D03*
X102331Y138612D03*
Y140581D03*
Y134675D03*
X106269Y138612D03*
Y140581D03*
X110205Y130738D03*
X108237Y132706D03*
X110205Y134675D03*
Y138612D03*
Y140581D03*
X108237Y130738D03*
X102331Y132706D03*
X108237Y134675D03*
Y138612D03*
Y140581D03*
X118080Y89399D03*
X112174Y91368D03*
Y89399D03*
X114143Y91368D03*
Y89399D03*
X116111Y91368D03*
Y89399D03*
X118080Y91368D03*
X116111Y93336D03*
X118080D03*
X114143Y105148D03*
Y107116D03*
Y97274D03*
Y99242D03*
X116111Y97274D03*
Y95305D03*
X118080D03*
Y99242D03*
Y97274D03*
Y101210D03*
X116111Y99242D03*
X112174Y107116D03*
Y99242D03*
Y105148D03*
X116111Y101210D03*
Y105148D03*
X118080D03*
X116111Y109084D03*
X118080D03*
X116111Y103179D03*
X118080D03*
Y107116D03*
X116111D03*
X112174Y97274D03*
X114143Y113022D03*
Y114990D03*
Y116958D03*
Y122864D03*
Y124832D03*
X112174D03*
X116111D03*
Y126801D03*
X118080Y124832D03*
Y126801D03*
X112174Y113022D03*
X116111Y111053D03*
X118080D03*
Y113022D03*
X116111D03*
X118080Y116958D03*
X116111Y114990D03*
Y116958D03*
Y122864D03*
Y120896D03*
Y118927D03*
X112174Y122864D03*
X118080D03*
Y120896D03*
Y118927D03*
Y114990D03*
X112174Y116958D03*
X114143Y130738D03*
Y132706D03*
X116111Y138612D03*
X118080Y140581D03*
X116111Y134675D03*
X114143Y138612D03*
X116111Y140581D03*
X112174Y130738D03*
Y138612D03*
Y132706D03*
Y140581D03*
X114143D03*
X118080Y136644D03*
Y130738D03*
X116111Y132706D03*
X118080D03*
X116111Y130738D03*
X118080Y134675D03*
Y128770D03*
X116111D03*
Y136644D03*
X118080Y138612D03*
X161823Y102231D03*
Y104199D03*
Y106168D03*
Y108136D03*
Y110105D03*
Y112073D03*
Y114042D03*
Y116010D03*
Y117979D03*
Y119947D03*
Y121916D03*
Y123884D03*
Y125853D03*
Y127821D03*
X179539Y102231D03*
X177571D03*
X175602D03*
X173634D03*
X171665D03*
X169697D03*
X167728D03*
X165760D03*
X163791D03*
X179539Y104199D03*
X177571D03*
X175602D03*
X173634D03*
X171665D03*
X169697D03*
X167728D03*
X165760D03*
X163791D03*
X179539Y106168D03*
X177571D03*
X175602D03*
X173634D03*
X171665D03*
X169697D03*
X167728D03*
X165760D03*
X163791D03*
X165760Y108136D03*
X163791D03*
X179539Y110105D03*
X177571D03*
X175602D03*
X173634D03*
X171665D03*
X169697D03*
X165760D03*
X163791D03*
X179539Y112073D03*
X169697D03*
X165760D03*
X163791D03*
X179539Y114042D03*
X169697D03*
X165760D03*
X163791D03*
X179539Y116010D03*
X169697D03*
X165760D03*
X163791D03*
X179539Y117979D03*
X169697D03*
X165760D03*
X163791D03*
X179539Y119947D03*
X177571D03*
X175602D03*
X173634D03*
X171665D03*
X169697D03*
X165760D03*
X163791D03*
X167728Y121916D03*
X165760D03*
X163791D03*
X179539Y123884D03*
X177571D03*
X175602D03*
X173634D03*
X171665D03*
X169697D03*
X167728D03*
X165760D03*
X163791D03*
X179539Y125853D03*
X177571D03*
X175602D03*
X173634D03*
X171665D03*
X169697D03*
X167728D03*
X165760D03*
X163791D03*
X179539Y127821D03*
X177571D03*
X175602D03*
X173634D03*
X171665D03*
X169697D03*
X167728D03*
X165760D03*
X163791D03*
X187413Y102231D03*
X185445D03*
X183476D03*
X181508D03*
X187413Y104199D03*
X185445D03*
X183476D03*
X181508D03*
X187413Y106168D03*
X185445D03*
X183476D03*
X181508D03*
X187413Y108136D03*
X185445D03*
X183476D03*
X187413Y110105D03*
X185445D03*
X183476D03*
X187413Y112073D03*
X185445D03*
X183476D03*
X187413Y114042D03*
X185445D03*
X183476D03*
X187413Y116010D03*
X185445D03*
X183476D03*
X187413Y117979D03*
X185445D03*
X183476D03*
X187413Y119947D03*
X185445D03*
X183476D03*
X187413Y121916D03*
X185445D03*
X183476D03*
X187413Y123884D03*
X185445D03*
X183476D03*
X181508D03*
X187413Y125853D03*
X185445D03*
X183476D03*
X181508D03*
X187413Y127821D03*
X185445D03*
X183476D03*
X181508D03*
G54D50*
G01X92489Y97274D02*
Y95426D01*
G54D23*
X39869Y43123D03*
G54D41*
X178641Y53323D03*
X173523D03*
X178641Y58441D03*
X173523Y68677D03*
X178641D03*
Y63559D03*
X183759Y53323D03*
Y58441D03*
Y68677D03*
X188877D03*
X183759Y63559D03*
G54D32*
X91242Y8957D03*
G54D14*
X11697Y18612D03*
X16259D03*
X18400Y10300D03*
X8480Y37308D03*
Y40308D03*
Y34608D03*
X14700Y26700D03*
X17200D03*
X12100D03*
Y29000D03*
X14700D03*
X17241Y28900D03*
X8480Y43308D03*
Y46108D03*
Y49108D03*
X12100Y57100D03*
X17400D03*
X14700D03*
X22200Y48100D03*
Y45900D03*
X17400Y59300D03*
X14600D03*
X12100D03*
X22600Y71300D03*
X17229Y145600D03*
X14300Y145820D03*
X39800Y37000D03*
X36800D03*
X33800D03*
X39800Y40000D03*
X36800D03*
X33800D03*
X39800Y43000D03*
X36800D03*
X33800D03*
X39800Y46000D03*
X36800D03*
X33800D03*
X39800Y49000D03*
X36800D03*
X33800D03*
X25700Y66100D03*
X25600Y68800D03*
X28600D03*
X25500Y71300D03*
X28700Y66200D03*
X28600Y71300D03*
X42800Y37000D03*
Y40000D03*
X45800Y37000D03*
Y40000D03*
X42800Y43000D03*
Y46000D03*
Y49000D03*
X45800Y43000D03*
Y46000D03*
Y49000D03*
X45900Y60800D03*
X48100D03*
X54900Y97600D03*
X57300Y96800D03*
X56713Y116840D03*
X66400Y23900D03*
X64000Y24000D03*
X61700D03*
X74200Y38000D03*
X70500Y38100D03*
X74400Y28500D03*
X66500Y26300D03*
X61700D03*
X64000Y26400D03*
X68800Y25100D03*
X70400Y44000D03*
X74300Y48700D03*
X70700Y48600D03*
X74200Y44000D03*
X67500Y57100D03*
X65100D03*
X62600D03*
X74200Y54550D03*
X67500Y59300D03*
X65100D03*
X62600D03*
X58200Y105600D03*
X58300Y107900D03*
X90200Y17500D03*
Y19900D03*
X87900D03*
Y17500D03*
X89800Y38900D03*
Y41300D03*
X87500D03*
Y38900D03*
X99206Y19827D03*
Y17327D03*
X94206Y19827D03*
X96706D03*
Y17327D03*
X94206D03*
X108054D03*
X105554D03*
X103054D03*
X108054Y19827D03*
X105554D03*
X103054D03*
X99880Y38953D03*
Y41453D03*
X94880Y38953D03*
Y41453D03*
X105578Y38953D03*
Y41453D03*
X99200Y28500D03*
X113054Y17327D03*
X110554D03*
X113054Y19827D03*
X110554D03*
X110578Y38953D03*
Y41453D03*
X113078Y38953D03*
Y41453D03*
X114589Y177590D03*
X139000Y15600D03*
X156754Y55900D03*
X161100Y52800D03*
X156615Y52393D03*
X154540Y58300D03*
X156800Y70200D03*
X150800Y60220D03*
Y64200D03*
X154800Y75940D03*
X152437Y76474D03*
X160200Y81840D03*
X156500Y80200D03*
X162234Y80766D03*
X156100Y108400D03*
X152317Y125473D03*
X178641Y53323D03*
Y58441D03*
X173523Y53323D03*
X163486Y47614D03*
X170700Y42400D03*
X170905Y44924D03*
X166107Y74386D03*
X166695Y71827D03*
Y67890D03*
X173523Y68677D03*
X178641D03*
Y63559D03*
X171793Y77093D03*
X178990Y77138D03*
X174310Y77030D03*
X176506Y76897D03*
X169181Y81840D03*
X169146Y76950D03*
X177299Y161716D03*
X177249Y153382D03*
X183759Y53323D03*
X188877D03*
X183759Y58441D03*
X195705Y52142D03*
X180400Y43000D03*
X180216Y45314D03*
X183700Y42750D03*
X183789Y45049D03*
X184600Y67900D03*
X195705Y67890D03*
X196000Y72800D03*
Y75000D03*
X188900Y67900D03*
X183759Y63559D03*
X195950Y59200D03*
X196147Y63953D03*
X191000Y65200D03*
X195800Y70500D03*
X182200Y76686D03*
X186520Y78091D03*
X192248Y77586D03*
X190120Y78575D03*
X182400Y79600D03*
X195500Y81600D03*
X188142Y79836D03*
G54D60*
G01X76689Y147190D02*
X76664Y147215D01*
G01X132163Y18253D02*
Y18420D01*
X130951Y19632D01*
Y21388D01*
X131913Y22350D01*
G01X78709Y140581D02*
Y142169D01*
X78200Y142678D01*
G01X119014Y127771D02*
X121999D01*
X122289Y127481D01*
G01X118828Y125831D02*
X119895Y124764D01*
X122679D01*
X124346Y126431D01*
X125413D01*
G01X166596Y132100D02*
X167728Y130968D01*
G01X167723Y134200D02*
X169697Y132226D01*
Y130448D01*
G01X157026Y126826D02*
X160645D01*
G01X118080Y124832D02*
X119098Y123814D01*
G01X118080Y126801D02*
X118280Y126601D01*
X119147D01*
X120034Y125714D01*
X122539D01*
G01X165846Y131100D02*
X166748Y130198D01*
G01X167255Y133200D02*
X168717Y131738D01*
G01X167967Y135300D02*
X170667Y132600D01*
Y130780D01*
G01X129185Y132686D02*
X130939Y134440D01*
X131039D01*
G01X128989Y135490D02*
X127915Y134416D01*
X124889D01*
G01X118808Y133456D02*
X123929D01*
X124889Y134416D01*
G01X118080Y130738D02*
X118148Y130806D01*
G01X130924D02*
X131374Y131256D01*
Y131361D01*
G01X118216Y128906D02*
X118080Y128770D01*
G01X119566Y129768D02*
X119654Y129856D01*
G01X132728Y148134D02*
X130906D01*
X129285Y146513D01*
Y145167D01*
X127618Y143500D01*
X125419D01*
G01X125169Y142300D02*
X127763D01*
X130645Y145182D01*
X132728D01*
G01X118080Y134675D02*
X118570D01*
X119019Y134226D01*
X122125D01*
X124513Y136614D01*
X124789D01*
G01X119034Y131713D02*
X119077Y131756D01*
G01X129599D02*
X130758Y132915D01*
X133793D01*
X133959Y133081D01*
G01X131039Y134440D02*
X131889Y135290D01*
X134789D01*
G01X131374Y131361D02*
X131403Y131390D01*
X132890D01*
X134694Y129586D01*
G01X133089Y136990D02*
X133489Y137390D01*
X135129D01*
X136729Y135790D01*
X140289D01*
G01X133959Y133081D02*
X134078Y133200D01*
X140799D01*
G54D51*
G01X47081Y26950D02*
X46844Y26713D01*
Y21332D01*
X46038Y20526D01*
X41041D01*
X38323Y17808D01*
Y13506D01*
X38668Y13161D01*
X39825D01*
G01X52500Y27437D02*
Y24777D01*
X51439Y23716D01*
Y23652D01*
X51423Y23636D01*
Y21464D01*
X51887Y21000D01*
X56500D01*
X60500Y17000D01*
Y13928D01*
X59733Y13161D01*
X58667D01*
G01Y11250D02*
X58158Y10741D01*
X40334D01*
X39825Y11250D01*
G54D15*
X14749Y32595D03*
Y39169D03*
G54D42*
X178247Y47614D03*
X176279D03*
X174310D03*
X172342D03*
X170373D03*
X168405D03*
Y74386D03*
X170373D03*
X172342D03*
X174310D03*
X176279D03*
X178247D03*
X193995Y47614D03*
X192027D03*
X190058D03*
X188090D03*
X186121D03*
X184153D03*
X182184D03*
X180216D03*
Y74386D03*
X182184D03*
X184153D03*
X186121D03*
X188090D03*
X190058D03*
X192027D03*
X193995D03*
G54D24*
X29633Y29777D03*
X31208D03*
X32782D03*
X34357D03*
X35932D03*
X37507D03*
X39082D03*
X40656D03*
Y56469D03*
X39082D03*
X37507D03*
X35932D03*
X34357D03*
X32782D03*
X31208D03*
X29633D03*
X42231Y29777D03*
X43806D03*
X45381D03*
X46956D03*
X48530D03*
X50105D03*
Y56469D03*
X48530D03*
X46956D03*
X45381D03*
X43806D03*
X42231D03*
G54D33*
X82502Y11600D03*
X78502D03*
X82502Y19800D03*
X78502D03*
X118989Y33490D03*
X114989D03*
X118600Y185900D03*
Y189900D03*
X131901Y165257D03*
X135901D03*
X159100Y58800D03*
X159200Y50900D03*
X159100Y54900D03*
Y66500D03*
X159200Y62800D03*
X151890Y160217D03*
X147890D03*
X163100Y58800D03*
X163200Y50900D03*
X163100Y54900D03*
Y66500D03*
X163200Y62800D03*
G54D61*
G01X31399Y115676D02*
X32900Y114175D01*
Y113700D01*
G01X36200Y113800D02*
X34549Y115451D01*
Y115676D01*
G01X31399Y140872D02*
X29475D01*
X28650Y140047D01*
Y132470D01*
X27793Y131613D01*
X26472D01*
X25600Y132485D01*
Y142699D01*
X29916Y147015D01*
X41984D01*
X53200Y135799D01*
Y132503D01*
X57492Y128211D01*
X62612D01*
X63171Y128770D01*
X66898D01*
G01Y126801D02*
Y127393D01*
X66371Y127920D01*
X65700D01*
X65180Y127400D01*
X64620D01*
X64100Y127920D01*
X63524D01*
X62965Y127361D01*
X57139D01*
X52350Y132150D01*
Y135446D01*
X41631Y146165D01*
X30269D01*
X26450Y142346D01*
Y132838D01*
X26825Y132463D01*
X27440D01*
X27800Y132823D01*
Y140400D01*
X29122Y141722D01*
X30438D01*
X31600Y142884D01*
Y143821D01*
X31399Y144022D01*
G01X58969Y120895D02*
X61164Y118700D01*
X66671D01*
X66898Y118927D01*
G01X61067Y121000D02*
Y120232D01*
X61749Y119550D01*
X66050D01*
G01X66300Y142800D02*
X67289D01*
X67650Y142439D01*
Y141346D01*
X67887Y141109D01*
G01X66299Y145120D02*
X68500Y142919D01*
Y141699D01*
X68867Y141332D01*
Y140581D01*
G01X110200Y147573D02*
Y150401D01*
X114119Y154320D01*
Y170520D01*
X115999Y172400D01*
X121279D01*
X123856Y174977D01*
Y178008D01*
X122892Y178972D01*
X121044D01*
X120689Y179327D01*
G01X108347Y142201D02*
Y142208D01*
G01X109300Y144900D02*
Y150704D01*
X113269Y154673D01*
Y170873D01*
X115646Y173250D01*
X120926D01*
X123006Y175330D01*
Y177655D01*
X122539Y178122D01*
X121550D01*
X120657Y177229D01*
X120589D01*
G01X110602Y142405D02*
X111450Y143253D01*
Y149853D01*
X115689Y154092D01*
Y167287D01*
X115688Y167288D01*
Y167992D01*
X118446Y170750D01*
X127546D01*
X131898Y175102D01*
Y176594D01*
X130714Y177778D01*
X130204D01*
X129589Y177163D01*
G01X111204Y141804D02*
X112300Y142900D01*
Y149500D01*
X116539Y153739D01*
Y167640D01*
X118799Y169900D01*
X127899D01*
X132748Y174749D01*
Y176948D01*
X131068Y178628D01*
X130218D01*
X129489Y179357D01*
G54D52*
G01X18801Y96778D02*
Y94878D01*
G01X72100Y144556D02*
Y142963D01*
X72804Y142259D01*
Y141561D01*
G01X68670Y147572D02*
X70142Y146100D01*
X70501D01*
X71300Y145301D01*
Y142850D01*
X71805Y142345D01*
G01X67887Y141109D02*
Y140013D01*
X68867Y139033D01*
Y138612D01*
G01X73499Y143852D02*
X73774Y143577D01*
Y140952D01*
G01X70071Y142100D02*
Y141937D01*
X70835Y141173D01*
Y140581D01*
G01X75089Y144306D02*
X72379Y147016D01*
Y147152D01*
X71999Y147532D01*
G54D16*
X14749Y44727D03*
Y52677D03*
X64989Y38369D03*
Y30419D03*
Y44727D03*
Y52677D03*
G54D43*
X179271Y148478D03*
Y170918D03*
X194271Y148478D03*
X189271D03*
X184271D03*
Y170918D03*
X189271D03*
X194271D03*
G54D25*
X26523Y40761D03*
Y39186D03*
Y37611D03*
Y36036D03*
Y34462D03*
Y32887D03*
Y53359D03*
Y51784D03*
Y50210D03*
Y48635D03*
Y47060D03*
Y45485D03*
Y43910D03*
Y42336D03*
X53215Y32887D03*
Y34462D03*
Y36036D03*
Y37611D03*
Y39186D03*
Y40761D03*
Y42336D03*
Y43910D03*
Y45485D03*
Y47060D03*
Y48635D03*
Y50210D03*
Y51784D03*
Y53359D03*
G54D34*
X101242Y8957D03*
G54D53*
G01X94641Y187271D02*
Y189359D01*
X89360Y194640D01*
X51153D01*
X3500Y146987D01*
Y79558D01*
X12376Y70682D01*
X14605D01*
X15962Y72039D01*
G01X20391Y49481D02*
X20615Y49705D01*
X22960D01*
X24030Y48635D01*
X26523D01*
G01X20550Y51575D02*
X21510Y50615D01*
X23657D01*
X24062Y50210D01*
X26523D01*
G01X5136Y140633D02*
Y80022D01*
X12376Y72782D01*
X12405D01*
X13000Y72187D01*
G01X18801Y109376D02*
X22100Y106077D01*
Y89800D01*
X23100Y88800D01*
X24633D01*
X25043Y88390D01*
Y87510D01*
X25453Y87100D01*
X26273D01*
X26683Y87510D01*
Y88390D01*
X27093Y88800D01*
X27913D01*
X28323Y88390D01*
Y87110D01*
X28733Y86700D01*
X29553D01*
X29963Y87110D01*
Y88390D01*
X30373Y88800D01*
X31193D01*
X31603Y88390D01*
Y87110D01*
X32013Y86700D01*
X32833D01*
X33243Y87110D01*
Y88390D01*
X33653Y88800D01*
X34473D01*
X34883Y88390D01*
Y87110D01*
X35293Y86700D01*
X36113D01*
X36523Y87110D01*
Y88390D01*
X36933Y88800D01*
X37753D01*
X38163Y88390D01*
Y87110D01*
X38573Y86700D01*
X39393D01*
X39803Y87110D01*
Y88390D01*
X40213Y88800D01*
X41033D01*
X41443Y88390D01*
Y87110D01*
X41853Y86700D01*
X42673D01*
X43083Y87110D01*
Y88390D01*
X43493Y88800D01*
X44313D01*
X44723Y88390D01*
Y87110D01*
X45133Y86700D01*
X45953D01*
X46363Y87110D01*
Y88390D01*
X46773Y88800D01*
X47593D01*
X48003Y88390D01*
Y87110D01*
X48413Y86700D01*
X49233D01*
X49643Y87110D01*
Y88390D01*
X50053Y88800D01*
X50873D01*
X51283Y88390D01*
Y87110D01*
X51693Y86700D01*
X52513D01*
X52923Y87110D01*
Y88390D01*
X53333Y88800D01*
X62000D01*
X65873Y92673D01*
Y99589D01*
G01X18801Y103077D02*
X20700Y101178D01*
Y91910D01*
X20290Y91500D01*
X16311D01*
X15901Y91090D01*
Y90110D01*
X16311Y89700D01*
X20289D01*
X20699Y89290D01*
Y88710D01*
X20289Y88300D01*
X16310D01*
X15900Y87890D01*
Y85901D01*
X16311Y85490D01*
X17493D01*
X17903Y85900D01*
Y86090D01*
X18313Y86500D01*
X19133D01*
X19543Y86090D01*
Y85900D01*
X19953Y85490D01*
X20773D01*
X21183Y85900D01*
Y86090D01*
X21593Y86500D01*
X22413D01*
X22823Y86090D01*
Y85900D01*
X23523Y85200D01*
X53900D01*
X56146Y87446D01*
X64792D01*
X65202Y87036D01*
Y84202D01*
X65612Y83792D01*
X66192D01*
X66842Y84442D01*
Y87036D01*
X67252Y87446D01*
X68072D01*
X68482Y87036D01*
Y84310D01*
X68892Y83900D01*
X69712D01*
X70122Y84310D01*
Y87036D01*
G01X15651Y103077D02*
X16992Y104418D01*
X16997D01*
G01X17400Y101400D02*
X15482D01*
X14346Y102536D01*
Y104922D01*
X15651Y106227D01*
G01X18801Y99928D02*
X17300Y98427D01*
G01X20200Y104600D02*
Y104828D01*
X18801Y106227D01*
G01X14100Y110800D02*
X14227D01*
X15651Y109376D01*
G01Y94878D02*
Y96778D01*
G01X11200Y120400D02*
X9200Y118400D01*
Y104300D01*
X12000Y101500D01*
X14079D01*
X15651Y99928D01*
G01Y125124D02*
Y125149D01*
X14100Y126700D01*
G01X20005Y123445D02*
Y123179D01*
X18801Y121975D01*
G01Y128274D02*
X19205Y127870D01*
X20729D01*
X22141Y126458D01*
Y126300D01*
G01X26587Y101495D02*
X25250Y102832D01*
Y109227D01*
X18801Y115676D01*
G01Y125124D02*
X20142Y126465D01*
X20147D01*
G01X15651Y112526D02*
X17200Y110977D01*
Y110700D01*
G01X15651Y121975D02*
X14345Y123281D01*
Y123355D01*
G01X20600Y119900D02*
X19525Y118825D01*
X18801D01*
G01X15651Y115676D02*
X14088Y114113D01*
G01X18801Y112526D02*
X17773D01*
X17200Y113099D01*
Y117200D01*
G01X65033Y130846D02*
X59364D01*
X55865Y134345D01*
Y136848D01*
X43303Y149410D01*
X28598D01*
X22700Y143512D01*
Y139500D01*
X19500Y136300D01*
X18682D01*
X17300Y134918D01*
Y133073D01*
X15651Y131424D01*
G01X60760Y132875D02*
X58285Y135350D01*
Y140228D01*
X45513Y153000D01*
X28300D01*
X20200Y144900D01*
Y140300D01*
X19300Y139400D01*
X17328D01*
X15651Y137723D01*
G01X18801Y144022D02*
X18834Y144055D01*
Y145459D01*
X20315Y146940D01*
Y147520D01*
X19557Y148278D01*
Y148858D01*
X20137Y149438D01*
X20717D01*
X21475Y148680D01*
X22055D01*
X22635Y149260D01*
Y149840D01*
X21877Y150598D01*
Y151178D01*
X22457Y151758D01*
X23037D01*
X23795Y151000D01*
X24399D01*
X24955Y151556D01*
Y152160D01*
X24197Y152918D01*
Y153498D01*
X24777Y154078D01*
X25357D01*
X26115Y153320D01*
X26695D01*
X27585Y154210D01*
X46091D01*
X59495Y140806D01*
Y135852D01*
X61671Y133676D01*
G01X59927Y132096D02*
X59826D01*
X57075Y134847D01*
Y139725D01*
X55039Y141761D01*
X54459D01*
X53853Y141155D01*
X53273D01*
X52693Y141735D01*
Y142315D01*
X53299Y142921D01*
Y143501D01*
X52719Y144081D01*
X52139D01*
X51533Y143475D01*
X50953D01*
X50373Y144055D01*
Y144635D01*
X50979Y145241D01*
Y145821D01*
X50399Y146401D01*
X49819D01*
X49213Y145795D01*
X48633D01*
X48053Y146375D01*
Y146955D01*
X48659Y147561D01*
Y148141D01*
X48079Y148721D01*
X47499D01*
X46893Y148115D01*
X46313D01*
X45733Y148695D01*
Y149275D01*
X46339Y149881D01*
Y150461D01*
X45010Y151790D01*
X39712D01*
X39302Y151380D01*
Y151310D01*
X38892Y150900D01*
X38072D01*
X37662Y151310D01*
Y151380D01*
X37252Y151790D01*
X28890D01*
X21400Y144300D01*
Y139900D01*
X19223Y137723D01*
X18801D01*
G01Y134573D02*
Y133630D01*
X19211Y133220D01*
X20317D01*
X21007Y133910D01*
Y135630D01*
X21417Y136040D01*
X22117D01*
X22647Y135510D01*
Y133715D01*
X23057Y133305D01*
X23690D01*
X24100Y133715D01*
Y143200D01*
X29100Y148200D01*
X42800D01*
X54590Y136410D01*
Y133908D01*
X58862Y129636D01*
X60636D01*
X60768Y129768D01*
G01X31208Y29777D02*
Y23576D01*
X30479Y22847D01*
G01X32782Y29777D02*
Y20124D01*
X31984Y19326D01*
G01X39000Y22000D02*
X41579D01*
X42098Y21481D01*
X43593D01*
X45246Y23134D01*
G01X160737Y28166D02*
X162327Y26576D01*
Y16328D01*
X159699Y13700D01*
X117900D01*
X114659Y16941D01*
Y23141D01*
X111900Y25900D01*
X80901D01*
X76001Y21000D01*
X72870D01*
X70935Y19065D01*
Y12735D01*
X67871Y9671D01*
X33878D01*
X31984Y11565D01*
Y16374D01*
G01X33264Y59553D02*
X33786D01*
X34357Y58982D01*
Y56469D01*
G01X30400Y61700D02*
Y60288D01*
X32782Y57906D01*
Y56469D01*
G01X64400Y100400D02*
Y95910D01*
X63990Y95500D01*
X63200D01*
X62800Y95100D01*
Y92000D01*
X62390Y91590D01*
X61210D01*
X60800Y92000D01*
Y94952D01*
X60390Y95362D01*
X59610D01*
X59200Y94952D01*
Y90810D01*
X58790Y90400D01*
X58054D01*
X57644Y90810D01*
Y92290D01*
X57234Y92700D01*
X56414D01*
X56004Y92290D01*
Y90810D01*
X55594Y90400D01*
X54774D01*
X54364Y90810D01*
Y92290D01*
X53954Y92700D01*
X53134D01*
X52724Y92290D01*
Y90810D01*
X52314Y90400D01*
X51494D01*
X51084Y90810D01*
Y92290D01*
X50674Y92700D01*
X49854D01*
X49444Y92290D01*
Y90810D01*
X49034Y90400D01*
X48214D01*
X47804Y90810D01*
Y92290D01*
X47394Y92700D01*
X46574D01*
X46164Y92290D01*
Y90810D01*
X45754Y90400D01*
X44934D01*
X44524Y90810D01*
Y92290D01*
X44114Y92700D01*
X43294D01*
X42884Y92290D01*
Y90810D01*
X42474Y90400D01*
X41654D01*
X41244Y90810D01*
Y92290D01*
X40834Y92700D01*
X40014D01*
X39604Y92290D01*
Y90810D01*
X39194Y90400D01*
X38374D01*
X37964Y90810D01*
Y92290D01*
X37554Y92700D01*
X36734D01*
X36324Y92290D01*
Y90810D01*
X35914Y90400D01*
X35094D01*
X34684Y90810D01*
Y92290D01*
X34274Y92700D01*
X33454D01*
X33044Y92290D01*
Y90810D01*
X32634Y90400D01*
X31814D01*
X31404Y90810D01*
Y92290D01*
X30994Y92700D01*
X30174D01*
X29764Y92290D01*
Y90810D01*
X29354Y90400D01*
X28534D01*
X28124Y90810D01*
Y92290D01*
X27714Y92700D01*
X24810D01*
X24400Y93110D01*
Y98700D01*
X24700Y99000D01*
X25690D01*
X26100Y98590D01*
Y94800D01*
X26400Y94500D01*
X27663D01*
X28073Y94910D01*
Y96090D01*
X28483Y96500D01*
X29303D01*
X29713Y96090D01*
Y94910D01*
X30123Y94500D01*
X34139D01*
X34549Y94910D01*
Y96778D01*
G01X31399Y109376D02*
Y108710D01*
X30989Y108300D01*
X29910D01*
X29500Y108710D01*
Y120200D01*
X29800Y120500D01*
G01X29848Y104852D02*
X29933Y104937D01*
X30109D01*
X31399Y106227D01*
G01X34549D02*
X35822Y107500D01*
X36200D01*
G01X24780Y131000D02*
X25009Y130771D01*
Y125190D01*
X28300Y121899D01*
Y104100D01*
X30800Y101600D01*
X31573D01*
X33245Y99928D01*
X34549D01*
G01Y109376D02*
X32900Y107727D01*
G01Y104600D02*
X33026D01*
X34549Y103077D01*
G01X31399D02*
X32704Y101772D01*
X34628D01*
X35300Y101100D01*
X36128D01*
X36800Y101772D01*
X37600D01*
X37972Y101400D01*
X39428D01*
X39800Y101772D01*
X40524D01*
X40935Y101361D01*
Y96410D01*
X40525Y96000D01*
X38766D01*
X38240Y95474D01*
Y94460D01*
X38600Y94100D01*
X42165D01*
X42575Y94510D01*
Y100823D01*
X42985Y101233D01*
X43805D01*
X44215Y100823D01*
Y94510D01*
X44625Y94100D01*
X45445D01*
X45855Y94510D01*
Y100823D01*
X46265Y101233D01*
X47085D01*
X47495Y100823D01*
Y94510D01*
X47905Y94100D01*
X48725D01*
X49135Y94510D01*
Y100823D01*
X49545Y101233D01*
X50365D01*
X50775Y100823D01*
Y94510D01*
X51185Y94100D01*
X55050D01*
X55460Y94510D01*
Y95540D01*
X55005Y95995D01*
X53220D01*
X52415Y96800D01*
Y100823D01*
X52825Y101233D01*
X54570D01*
X54980Y100823D01*
Y99615D01*
X55510Y99085D01*
X57285D01*
X58470Y97900D01*
X61590D01*
X62000Y98310D01*
Y99290D01*
X61590Y99700D01*
X59300D01*
X58290Y100710D01*
Y101290D01*
X59009Y102009D01*
X59887D01*
X60908Y100988D01*
X61488D01*
X62068Y101568D01*
Y102148D01*
X61047Y103169D01*
Y103749D01*
X61627Y104329D01*
X62207D01*
X62978Y103558D01*
X63558D01*
X64138Y104138D01*
Y104718D01*
X63068Y105788D01*
Y106368D01*
X65784Y109084D01*
X66898D01*
G01X36000Y104600D02*
X36100Y104500D01*
X36275D01*
X37698Y103077D01*
G01X24900Y119500D02*
Y120990D01*
X25510Y121600D01*
X26490D01*
X27100Y120990D01*
Y103499D01*
X30671Y99928D01*
X31399D01*
G01Y96778D02*
X29877Y98300D01*
X29400D01*
G01X34549Y121975D02*
X36087Y123513D01*
G01X32800Y110800D02*
X31399Y112201D01*
Y112526D01*
G01X65054Y110054D02*
X61700Y106700D01*
X60360D01*
X59900Y106240D01*
Y104900D01*
X57700Y102700D01*
X54910D01*
X54500Y103110D01*
Y108700D01*
X55400Y109600D01*
Y110700D01*
X54990Y111110D01*
X53410D01*
X53000Y110700D01*
Y103110D01*
X52590Y102700D01*
X51810D01*
X51400Y103110D01*
Y110700D01*
X51200Y110900D01*
X50410D01*
X50000Y110490D01*
Y103110D01*
X49590Y102700D01*
X48900D01*
X48400Y103200D01*
Y110700D01*
X48000Y111100D01*
X47100D01*
X46800Y110800D01*
Y103110D01*
X46390Y102700D01*
X43910D01*
X43500Y103110D01*
Y105600D01*
X43900Y106000D01*
X45000D01*
X45300Y106300D01*
Y110490D01*
X44690Y111100D01*
X42510D01*
X42100Y110690D01*
Y103110D01*
X41690Y102700D01*
X41110D01*
X40700Y103110D01*
Y110400D01*
X40000Y111100D01*
X34959D01*
X34549Y111510D01*
Y112526D01*
G01X31399Y121975D02*
X32924Y123500D01*
G01X31399Y118825D02*
X33000Y120426D01*
G01X29307Y130843D02*
X29888Y131424D01*
X31399D01*
G01X34549Y140872D02*
Y141848D01*
X35001Y142300D01*
X43300D01*
X44800Y140800D01*
Y127210D01*
X45210Y126800D01*
X45990D01*
X46400Y127210D01*
Y135890D01*
X46810Y136300D01*
X47390D01*
X47800Y135890D01*
Y127310D01*
X48210Y126900D01*
X48990D01*
X49400Y127310D01*
Y132190D01*
X49810Y132600D01*
X50483D01*
X50940Y132143D01*
Y129210D01*
X51350Y128800D01*
X53800D01*
X56500Y126100D01*
X65431D01*
X65700Y125831D01*
G01X66898Y124832D02*
X55768D01*
X53010Y127590D01*
X51392D01*
X48400Y124598D01*
Y119510D01*
X47990Y119100D01*
X47110D01*
X46700Y119510D01*
Y124890D01*
X46290Y125300D01*
X45510D01*
X45100Y124890D01*
Y117810D01*
X44690Y117400D01*
X43810D01*
X43400Y117810D01*
Y138890D01*
X42990Y139300D01*
X31900D01*
X31399Y138799D01*
Y137723D01*
G01X68867Y122864D02*
Y123424D01*
X68457Y123834D01*
G01X62647D02*
X62428Y123615D01*
X55273D01*
X54092Y124796D01*
X53414D01*
X53004Y124386D01*
Y123511D01*
X53400Y123115D01*
Y116510D01*
X52990Y116100D01*
X51910D01*
X51500Y116510D01*
Y124167D01*
X51090Y124577D01*
X50091D01*
X49800Y124286D01*
Y116510D01*
X49290Y116000D01*
X42600D01*
X42000Y116600D01*
Y135300D01*
X42003Y135303D01*
Y136988D01*
X41706Y137285D01*
X41285D01*
X40800Y136800D01*
Y136510D01*
X40390Y136100D01*
X37474D01*
X35490Y138084D01*
X34910D01*
X34549Y137723D01*
G01X31399Y128274D02*
X32925Y129800D01*
G01X63243Y123144D02*
X62504Y122405D01*
X55505D01*
X55095Y121995D01*
Y115205D01*
X54490Y114600D01*
X54462D01*
X54052Y114190D01*
Y113010D01*
X53642Y112600D01*
X52822D01*
X52412Y113010D01*
Y114190D01*
X52002Y114600D01*
X51182D01*
X50772Y114190D01*
Y113010D01*
X50362Y112600D01*
X49542D01*
X49132Y113010D01*
Y114190D01*
X48722Y114600D01*
X47902D01*
X47492Y114190D01*
Y113010D01*
X47082Y112600D01*
X46262D01*
X45852Y113010D01*
Y114190D01*
X45442Y114600D01*
X44622D01*
X44212Y114190D01*
Y113010D01*
X43802Y112600D01*
X42982D01*
X42572Y113010D01*
Y114190D01*
X42162Y114600D01*
X41127D01*
X40617Y115110D01*
Y132383D01*
X40100Y132900D01*
X37524D01*
X36100Y134324D01*
Y135800D01*
X35482Y136418D01*
X31709D01*
X31081Y135790D01*
Y134891D01*
X31399Y134573D01*
G01X58667Y15263D02*
X54167D01*
G01D02*
X51237D01*
X50368Y16132D01*
Y21586D01*
X50370Y21584D01*
Y25050D01*
G01X39825Y15263D02*
X44325D01*
G01D02*
X47763D01*
X48268Y15768D01*
Y25050D01*
G01X55489Y23073D02*
X52989D01*
G01X53215Y32887D02*
X54214D01*
X55489Y31612D01*
Y26025D01*
G01X53215Y34462D02*
X54438D01*
X58989Y29911D01*
Y26025D01*
G01X50105Y29777D02*
Y25315D01*
X50370Y25050D01*
G01X48530Y29777D02*
Y27630D01*
X48586Y27574D01*
Y25368D01*
X48268Y25050D01*
G01X53215Y53359D02*
X55980D01*
G01X69013Y70350D02*
X66250D01*
X57890Y61990D01*
Y52640D01*
X57034Y51784D01*
X53215D01*
G01X69013Y66850D02*
X64449D01*
X58800Y61201D01*
Y52161D01*
X56849Y50210D01*
X53215D01*
G01X50105Y56469D02*
Y62106D01*
X64099Y76100D01*
X71289D01*
X75747Y71642D01*
Y58753D01*
X93000Y41500D01*
Y36200D01*
X98800Y30400D01*
X101000D01*
X102100Y29300D01*
G01X69013Y63350D02*
X62649D01*
X59809Y60510D01*
Y51671D01*
X56773Y48635D01*
X53215D01*
G01X56100Y106800D02*
X56695Y107395D01*
Y109095D01*
X58900Y111300D01*
X62300D01*
X63753Y112753D01*
X66629D01*
X66898Y113022D01*
G01Y116958D02*
X63458D01*
X61500Y115000D01*
X57623D01*
X56713Y115910D01*
Y116840D01*
G01X76664Y147215D02*
Y151604D01*
X70106Y158162D01*
X54849D01*
X50039Y162972D01*
Y179428D01*
X59244Y188633D01*
X62063D01*
X62944Y189514D01*
Y190330D01*
X64839Y192225D01*
G01X74764Y146635D02*
Y150816D01*
X69537Y156043D01*
X54280D01*
X47816Y162507D01*
Y187316D01*
X52725Y192225D01*
X53689D01*
G01X75714Y147573D02*
Y151210D01*
X69752Y157172D01*
X54495D01*
X49089Y162578D01*
Y181190D01*
X56437Y188538D01*
Y190021D01*
G01X73814Y146580D02*
Y150422D01*
X69266Y154970D01*
X54009D01*
X46698Y162281D01*
Y187599D01*
X52829Y193730D01*
X60175D01*
X61680Y192225D01*
G01X73500Y23000D02*
X65000Y14500D01*
Y13200D01*
G01X91607Y30526D02*
X73527D01*
X71800Y28799D01*
Y23188D01*
X65612Y17000D01*
X62962D01*
X58989Y20973D01*
Y23073D01*
G01X75300Y19000D02*
X73000D01*
G01X71965Y63350D02*
X73292D01*
X74242Y64300D01*
G01X66904Y74400D02*
X71701D01*
X74136Y71965D01*
Y69021D01*
X71965Y66850D01*
G01X64820Y74139D02*
X66904Y72055D01*
X70649D01*
X71965Y70739D01*
Y70350D01*
G01X58300Y107900D02*
Y108800D01*
X59500Y110000D01*
X62400D01*
X64423Y112023D01*
X65223D01*
G01X57300Y96800D02*
X57410Y96690D01*
X62880D01*
X63400Y97210D01*
Y101000D01*
X65700Y103300D01*
Y107368D01*
X66446Y108114D01*
G01X60700Y108400D02*
X62100D01*
X64753Y111053D01*
X66898D01*
G01X64800Y114300D02*
X65000Y114100D01*
X65131D01*
X65211Y114020D01*
X66300D01*
G01X57906Y113193D02*
X61393D01*
X64100Y115900D01*
X65600D01*
X66510Y114990D01*
X66898D01*
G01X64200Y117928D02*
X62028D01*
X61300Y117200D01*
G01X65472Y148627D02*
X66045Y149200D01*
X69499D01*
X70515Y148184D01*
Y147085D01*
G01X66085Y186282D02*
X66297D01*
X69515Y189500D01*
Y190675D01*
X71065Y192225D01*
X71101D01*
G01X70289Y186282D02*
X70884Y186877D01*
Y189915D01*
X71089Y190120D01*
G01X74585Y186282D02*
X72477Y188390D01*
X72389D01*
G01X68010Y190125D02*
X66285Y188400D01*
X63903D01*
X61785Y186282D01*
G01X82502Y19800D02*
Y18302D01*
X80300Y16100D01*
G01X75300Y19000D02*
X77702D01*
X78502Y19800D01*
G01X82500Y22700D02*
Y20400D01*
X82502Y20398D01*
Y19800D01*
G01X90742Y34326D02*
X91607Y33461D01*
Y30526D01*
G01X127644Y40610D02*
X126654D01*
X121459Y45805D01*
X95748D01*
X95605Y45948D01*
X95604D01*
X79619Y61933D01*
Y88484D01*
X79679Y88544D01*
G01X81654Y88595D02*
Y62473D01*
X96502Y47625D01*
X123174D01*
X126179Y44620D01*
X130045D01*
X133453Y41212D01*
X133484D01*
G01X78709Y89399D02*
Y62310D01*
X78708Y62309D01*
Y61557D01*
X95313Y44952D01*
X95314D01*
X95371Y44895D01*
X121082D01*
X127300Y38677D01*
Y38640D01*
X127464Y38476D01*
G01X80678Y89399D02*
X80529Y89250D01*
Y62311D01*
X96125Y46715D01*
X121836D01*
X125436Y43115D01*
X127750D01*
G01X82647Y89399D02*
X82795Y89251D01*
Y62619D01*
X96879Y48535D01*
X124564D01*
X127099Y46000D01*
X127104D01*
X127105Y45999D01*
X130826D01*
X134989Y41836D01*
Y38155D01*
X134108Y37274D01*
X132860D01*
X131979Y38155D01*
Y40194D01*
X130893Y41280D01*
G01X83617Y88716D02*
X83705Y88628D01*
Y62996D01*
X97256Y49445D01*
X124942D01*
X127477Y46910D01*
X127481D01*
X127482Y46909D01*
X131203D01*
X135899Y42213D01*
Y37778D01*
X134485Y36364D01*
X132482D01*
X130474Y38372D01*
Y38554D01*
G01X77711Y88664D02*
Y61267D01*
X94937Y44041D01*
X94938D01*
X94994Y43985D01*
X118991D01*
X122650Y40326D01*
G01X129036Y18029D02*
X127307Y16300D01*
X125584D01*
X124541Y17343D01*
Y18874D01*
X123713Y19702D01*
Y20974D01*
X136809Y34070D01*
Y42725D01*
X131714Y47820D01*
X130874D01*
X130873Y47819D01*
X127859D01*
X127858Y47820D01*
X127855D01*
X125320Y50355D01*
X97633D01*
X84615Y63373D01*
Y89399D01*
G01X76741D02*
Y60950D01*
X94561Y43130D01*
X94562D01*
X94617Y43075D01*
X117225D01*
X119600Y40700D01*
G01X94772Y63217D02*
Y67427D01*
X91342Y70857D01*
Y88504D01*
X91516Y88678D01*
G01X92631Y65660D02*
Y67769D01*
X90432Y69968D01*
Y89310D01*
X90521Y89399D01*
G01X89522Y88661D02*
Y69179D01*
X91126Y67575D01*
Y62234D01*
X99365Y53995D01*
X126831D01*
X129366Y51460D01*
X137870D01*
X147477Y41853D01*
Y35074D01*
X134891Y22488D01*
Y18899D01*
X135715Y18075D01*
G01X131913Y22350D02*
X143429Y33866D01*
Y43327D01*
X137116Y49640D01*
X130120D01*
X130119Y49639D01*
X128613D01*
X128612Y49640D01*
X128611D01*
X126076Y52175D01*
X98387D01*
X86583Y63979D01*
Y89399D01*
G01X128228Y20069D02*
X129125D01*
X130658Y18536D01*
Y17629D01*
X131539Y16748D01*
X132787D01*
X133981Y17942D01*
Y22865D01*
X146567Y35451D01*
Y41476D01*
X137493Y50550D01*
X129743D01*
X129742Y50549D01*
X128990D01*
X126454Y53085D01*
X98764D01*
X87582Y64267D01*
Y88438D01*
G01X125218Y20350D02*
X140369Y35501D01*
Y41240D01*
X132879Y48730D01*
X130497D01*
X130496Y48729D01*
X128236D01*
X128235Y48730D01*
X128233D01*
X125698Y51265D01*
X98010D01*
X85604Y63671D01*
Y88592D01*
G01X82918Y186282D02*
X81118D01*
X79000Y188400D01*
X77948D01*
X75019Y191329D01*
X74279D01*
G01X75309Y188910D02*
Y187890D01*
X76917Y186282D01*
X78761D01*
G01X79621Y191774D02*
Y191380D01*
X81680Y189321D01*
X83466D01*
X84615Y188172D01*
X87467D01*
X88239Y187400D01*
X90342D01*
X91460Y186282D01*
G01X78663Y189905D02*
X79808D01*
X81302Y188411D01*
X83088D01*
X84237Y187262D01*
X86179D01*
X87159Y186282D01*
G01X100373Y63977D02*
X92489Y71861D01*
Y89399D01*
G01X104300D02*
Y78986D01*
X108046Y75240D01*
Y75235D01*
X113191Y70090D01*
X113196D01*
X115203Y68083D01*
X126518D01*
X128501Y66100D01*
X131279D01*
X131949Y66770D01*
G01X125800Y66500D02*
X125643D01*
X124970Y67173D01*
X114826D01*
X112819Y69180D01*
X112814D01*
X107136Y74858D01*
Y74863D01*
X103309Y78690D01*
Y88681D01*
G01X93475Y88610D02*
X93696Y88389D01*
Y75433D01*
X98036Y71093D01*
Y71088D01*
X109044Y60080D01*
X109049D01*
X114081Y55048D01*
X117095D01*
X117096Y55049D01*
X127065D01*
X129744Y52370D01*
X138247D01*
X148387Y42230D01*
Y31726D01*
X137194Y20533D01*
X136396D01*
G01X123300Y60400D02*
X123026Y60126D01*
X115438D01*
X110934Y64630D01*
X110929D01*
X102586Y72973D01*
Y72978D01*
X98395Y77169D01*
Y89399D01*
G01X102331D02*
Y78381D01*
X106226Y74486D01*
Y74481D01*
X112437Y68270D01*
X112442D01*
X114449Y66263D01*
X123837D01*
X125931Y64169D01*
X129348D01*
X129757Y64578D01*
G01X94457Y89399D02*
X94606Y89250D01*
Y75810D01*
X98946Y71470D01*
Y71465D01*
X109421Y60990D01*
X109426D01*
X114458Y55958D01*
X116718D01*
X116719Y55959D01*
X127443D01*
X130100Y53302D01*
X138602D01*
X149941Y41963D01*
Y19882D01*
X148224Y18165D01*
G01X95456Y88578D02*
X95516Y88518D01*
Y76187D01*
X99856Y71847D01*
Y71842D01*
X109798Y61900D01*
X109803D01*
X114835Y56868D01*
X116341D01*
X116342Y56869D01*
X128568D01*
X129299Y57600D01*
X135591D01*
X152951Y40240D01*
Y17614D01*
X151997Y16660D01*
X147600D01*
X146719Y17541D01*
Y18797D01*
X148436Y20514D01*
G01X120800Y62600D02*
X119559Y61359D01*
X115492D01*
X111311Y65540D01*
X111306D01*
X103496Y73350D01*
Y73355D01*
X99365Y77486D01*
Y88784D01*
G01X123400Y64500D02*
X123200Y64700D01*
Y64943D01*
X122790Y65353D01*
X114072D01*
X112065Y67360D01*
X112060D01*
X105316Y74104D01*
Y74109D01*
X101361Y78064D01*
Y88647D01*
G01X97397Y88561D02*
Y76880D01*
X101676Y72601D01*
Y72596D01*
X110552Y63720D01*
X110557D01*
X115588Y58689D01*
X127813D01*
X128544Y59420D01*
X137580D01*
X159177Y37823D01*
Y17725D01*
X156292Y14840D01*
X146270D01*
X143569Y17541D01*
Y18789D01*
X145261Y20481D01*
X145426D01*
G01X96426Y89399D02*
Y76564D01*
X100766Y72224D01*
Y72219D01*
X110175Y62810D01*
X110180D01*
X115212Y57778D01*
X115964D01*
X115965Y57779D01*
X128191D01*
X128922Y58510D01*
X135969D01*
X154100Y40379D01*
Y26900D01*
X156028Y24972D01*
Y18834D01*
X155979Y18785D01*
Y17541D01*
X154188Y15750D01*
X147223D01*
X145074Y17899D01*
Y18165D01*
G01X125850Y62250D02*
X125765Y62335D01*
X123265D01*
X121157Y64443D01*
X113695D01*
X111688Y66450D01*
X111683D01*
X104406Y73727D01*
Y73732D01*
X100363Y77775D01*
Y89399D01*
G01X160822Y38226D02*
X162323Y39727D01*
Y41244D01*
X144569Y58998D01*
Y61875D01*
X133544Y72900D01*
X119083D01*
X119082Y72899D01*
X116822D01*
X115081Y74640D01*
X115076D01*
X112596Y77120D01*
Y77125D01*
X109221Y80500D01*
Y88733D01*
G01X107244Y88664D02*
Y79903D01*
X110776Y76371D01*
Y76366D01*
X114322Y72820D01*
X114327D01*
X116258Y70889D01*
X130206D01*
X130942Y70153D01*
G01X106269Y89399D02*
Y79591D01*
X109866Y75994D01*
Y75989D01*
X113945Y71910D01*
X113950D01*
X115957Y69903D01*
X129062D01*
X130412Y68553D01*
X132296D01*
X132394Y68455D01*
X134565D01*
G01X128950Y67850D02*
X128750Y68050D01*
X128477D01*
X127534Y68993D01*
X115580D01*
X113573Y71000D01*
X113568D01*
X108956Y75612D01*
Y75617D01*
X105285Y79288D01*
Y88802D01*
G01X108237Y89399D02*
Y80197D01*
X111686Y76748D01*
Y76743D01*
X114699Y73730D01*
X114704D01*
X116445Y71989D01*
X119459D01*
X119460Y71990D01*
X133167D01*
X143659Y61498D01*
Y57778D01*
X160818Y40619D01*
G01X100889Y179175D02*
X100664Y179400D01*
X99996D01*
X98189Y177593D01*
Y174990D01*
G01X110231Y179356D02*
X109089D01*
X107689Y177956D01*
G01X110189Y177185D02*
X108589Y175585D01*
G01X105815Y177280D02*
X105656D01*
X104179Y175803D01*
G01X105489Y179355D02*
X105344Y179500D01*
X103854D01*
X103279Y178925D01*
G01X100819Y176976D02*
Y176865D01*
X99089Y175135D01*
G01X96326Y192026D02*
X98030Y193730D01*
X117170D01*
X118600Y192300D01*
Y189900D01*
G01X118989Y33490D02*
Y30990D01*
G01X114989Y33490D02*
Y30990D01*
G01X111180Y88544D02*
Y81115D01*
X114416Y77879D01*
Y77874D01*
X115830Y76460D01*
X115835D01*
X117576Y74719D01*
X118328D01*
X118329Y74720D01*
X135702D01*
X146390Y64032D01*
Y60348D01*
X165499Y41239D01*
Y39753D01*
X163972Y38226D01*
G01X110205Y89399D02*
Y80803D01*
X113506Y77502D01*
Y77497D01*
X115453Y75550D01*
X115458D01*
X117199Y73809D01*
X118705D01*
X118706Y73810D01*
X135325D01*
X145480Y63655D01*
Y59786D01*
X163994Y41272D01*
Y40615D01*
G01X116111Y89399D02*
X116127D01*
X117982Y87544D01*
X118563D01*
X118990Y87117D01*
X120330D01*
X121889Y88676D01*
X127996D01*
X134234Y82438D01*
Y82125D01*
X134286Y82073D01*
G01X112130Y82755D02*
Y81452D01*
X115326Y78256D01*
Y78251D01*
X116207Y77370D01*
X116212D01*
X117952Y75630D01*
X142345D01*
X144200Y77485D01*
G01X140944Y77544D02*
X128902Y89586D01*
X120938D01*
G01X134895Y79741D02*
X132816Y77662D01*
X123587D01*
X119287Y81962D01*
Y84172D01*
X116332Y87127D01*
X115340D01*
X114143Y88324D01*
Y89399D01*
G01X131800Y79200D02*
Y79300D01*
X131100Y80000D01*
Y84285D01*
X127619Y87766D01*
X122865D01*
X121091Y85992D01*
X118501D01*
X116119Y88374D01*
X115658D01*
G01X120771Y91972D02*
X121337Y91406D01*
X129658D01*
X140074Y80990D01*
X141989D01*
G01X138635Y77724D02*
X137663Y76752D01*
X123210D01*
X118187Y81775D01*
Y84238D01*
X116301Y86124D01*
X115570D01*
G01X146100Y79900D02*
Y79800D01*
X145493Y79193D01*
X140583D01*
X129280Y90496D01*
X124509D01*
G01X156800Y70200D02*
Y76300D01*
X149446Y83654D01*
Y88767D01*
X135836Y102377D01*
X132955D01*
X131183Y104149D01*
X119412D01*
G01X124509Y92316D02*
X130035D01*
X139856Y82495D01*
X144255D01*
X145771Y84011D01*
G01X140716Y92794D02*
X136101D01*
X129653Y99242D01*
X124509D01*
G01Y94144D02*
X130781D01*
X137895Y87030D01*
X142524D01*
X144502Y89008D01*
G01X124509Y93226D02*
X130412D01*
X139562Y84076D01*
X141005D01*
G01X120667Y96275D02*
X123816D01*
X124769Y95322D01*
X130998D01*
X137505Y88815D01*
X141073D01*
G01X127750Y97737D02*
X127215Y98272D01*
X119481D01*
G01X152437Y76474D02*
X147276Y81635D01*
Y88363D01*
X135082Y100557D01*
X132201D01*
X130549Y102209D01*
X119687D01*
G01X124509Y97274D02*
X124754D01*
X125796Y96232D01*
X131375D01*
X136983Y90624D01*
X138149D01*
G01X154800Y75940D02*
Y76382D01*
X148292Y82890D01*
Y88634D01*
X135459Y101467D01*
X132578D01*
X130866Y103179D01*
X124509D01*
G01X119343Y100240D02*
X129943D01*
X132041Y98142D01*
X133223D01*
G01X160200Y81840D02*
Y82600D01*
X137362Y105438D01*
X134994D01*
X134993Y105439D01*
X133754D01*
X132077Y107116D01*
X118080D01*
G01X178200Y81100D02*
Y79200D01*
X177698Y78698D01*
X176410D01*
X176000Y79108D01*
Y81135D01*
X175470Y81665D01*
X174770D01*
X174360Y81255D01*
Y79108D01*
X173950Y78698D01*
X173130D01*
X172720Y79108D01*
Y81435D01*
X172309Y81846D01*
X171210D01*
X170800Y81436D01*
Y79108D01*
X170390Y78698D01*
X167000D01*
X166500Y79198D01*
Y82700D01*
X166000Y83200D01*
X165000D01*
X164500Y82700D01*
Y79432D01*
X164090Y79022D01*
X160077D01*
X155752Y83347D01*
X154909D01*
X154357Y83899D01*
Y84528D01*
X155161Y85332D01*
Y86040D01*
X154580Y86621D01*
X154002D01*
X153304Y85922D01*
X152726D01*
X152145Y86503D01*
Y87083D01*
X152842Y87780D01*
Y88359D01*
X136673Y104528D01*
X134616D01*
X134615Y104529D01*
X133377D01*
X131788Y106118D01*
X119687D01*
G01X169181Y81840D02*
Y81919D01*
X166500Y84600D01*
X161285D01*
X138627Y107258D01*
X136101D01*
X136100Y107259D01*
X135746D01*
X135745Y107260D01*
X134507D01*
X132683Y109084D01*
X124509D01*
G01X156500Y80200D02*
X156400D01*
X150653Y85947D01*
Y88847D01*
X136213Y103287D01*
X133332D01*
X131471Y105148D01*
X124509D01*
G01X162234Y80766D02*
Y82225D01*
X138111Y106348D01*
X135724D01*
X135723Y106349D01*
X135369D01*
X135368Y106350D01*
X134130D01*
X132394Y108086D01*
X119171D01*
G01X118080Y101210D02*
X130261D01*
X131824Y99647D01*
X133847D01*
X135334Y98160D01*
G01X124509Y112052D02*
X134498D01*
X136561Y109989D01*
X137231D01*
X137232Y109988D01*
X143387D01*
X143689Y110290D01*
G01X124509Y113022D02*
X135078D01*
X136407Y111693D01*
X137939D01*
G01X186121Y74386D02*
Y75778D01*
X184915Y76984D01*
Y80785D01*
X175338Y90362D01*
Y91562D01*
X172561Y94339D01*
X168266D01*
X167856Y93929D01*
Y91510D01*
X167446Y91100D01*
X166626D01*
X166216Y91510D01*
Y93929D01*
X165806Y94339D01*
X164986D01*
X164576Y93929D01*
Y91510D01*
X164166Y91100D01*
X163346D01*
X162936Y91510D01*
Y93929D01*
X162526Y94339D01*
X161706D01*
X161296Y93929D01*
Y91510D01*
X160886Y91100D01*
X160066D01*
X159656Y91510D01*
Y93929D01*
X159246Y94339D01*
X154238D01*
X140032Y108545D01*
Y108546D01*
X139500Y109078D01*
X136855D01*
X136854Y109079D01*
X136501D01*
X136499Y109081D01*
X135260D01*
X133288Y111053D01*
X124509D01*
G01X119103Y110054D02*
X133000D01*
X134883Y108171D01*
X136121D01*
X136123Y108169D01*
X136477D01*
X136478Y108168D01*
X139122D01*
X161290Y86000D01*
X163713D01*
X164123Y86410D01*
Y87990D01*
X164533Y88400D01*
X165353D01*
X165763Y87990D01*
Y86410D01*
X166173Y86000D01*
X166993D01*
X167403Y86410D01*
Y87990D01*
X167813Y88400D01*
X168633D01*
X169043Y87990D01*
Y86410D01*
X169453Y86000D01*
X170273D01*
X170683Y86410D01*
Y87990D01*
X171093Y88400D01*
X171913D01*
X172323Y87990D01*
Y86410D01*
X172733Y86000D01*
X173553D01*
X173963Y86410D01*
Y87990D01*
X174373Y88400D01*
X175193D01*
X175603Y87990D01*
Y86410D01*
X176013Y86000D01*
X178299D01*
X184005Y80294D01*
Y76634D01*
X184153Y76486D01*
Y74386D01*
G01X124509Y119926D02*
X143773D01*
X147242Y123395D01*
Y126730D01*
X152612Y132100D01*
X166596D01*
G01X167728Y130968D02*
Y127821D01*
G01X124509Y121866D02*
X143137D01*
X145422Y124151D01*
Y127484D01*
X152138Y134200D01*
X167723D01*
G01X124509Y117928D02*
X145974D01*
X147439Y119393D01*
G01X124509Y115960D02*
X155500D01*
X155800Y116260D01*
Y119300D01*
X155400Y119700D01*
X152500D01*
X152100Y120100D01*
Y120800D01*
X152400Y121100D01*
X155800D01*
X156500Y121800D01*
Y126300D01*
X157026Y126826D01*
G01X119098Y123814D02*
X126998D01*
X128886Y125702D01*
G01X122539Y125714D02*
X124781Y127956D01*
X131195D01*
X133190Y125961D01*
X138491D01*
X139869Y127339D01*
X141639D01*
X142627Y128327D01*
Y129998D01*
X143469Y130840D01*
G01X124509Y116958D02*
X153758D01*
X154300Y117500D01*
Y118090D01*
X153890Y118500D01*
X151200D01*
X150790Y118910D01*
Y121790D01*
X151200Y122200D01*
X154690D01*
X155100Y122610D01*
Y128000D01*
X156208Y129108D01*
X163996D01*
G01X124509Y118927D02*
X144062D01*
X148152Y123017D01*
Y126353D01*
X152899Y131100D01*
X165846D01*
G01X166748Y130198D02*
Y128538D01*
G01X124509Y120896D02*
X143455D01*
X146332Y123773D01*
Y127107D01*
X152425Y133200D01*
X167255D01*
G01X168717Y131738D02*
Y128708D01*
G01X124509Y122864D02*
X142847D01*
X144512Y124529D01*
Y127861D01*
X151951Y135300D01*
X167967D01*
G01X146400Y114400D02*
X140830D01*
X140300Y114930D01*
X124569D01*
X124509Y114990D01*
G01X158026Y112139D02*
X151262D01*
X150501Y112900D01*
X144778D01*
X144773Y112905D01*
X139395D01*
X138280Y114020D01*
X124509D01*
G01X126361Y167090D02*
X125914D01*
X124124Y165300D01*
X121399D01*
X117960Y161861D01*
Y153072D01*
X113733Y148845D01*
Y142498D01*
X112174Y140939D01*
Y140581D01*
G01X118080Y132706D02*
X118100Y132686D01*
X129185D01*
G01X118148Y130806D02*
X130924D01*
G01X114143Y140581D02*
Y140941D01*
X115553Y142351D01*
Y147950D01*
X121385Y153782D01*
Y156085D01*
G01X138889Y131190D02*
Y127903D01*
X137897Y126911D01*
X133584D01*
X131589Y128906D01*
X118216D01*
G01X119654Y129856D02*
X131983D01*
X133978Y127861D01*
X136146D01*
X136887Y128602D01*
G01X133276Y158199D02*
X132177Y157100D01*
X127277D01*
X117750Y147573D01*
G01X116463D02*
X126902Y158012D01*
X129485D01*
X131377Y159904D01*
X134822D01*
X135141Y159585D01*
X139705D01*
X141208Y161088D01*
Y163946D01*
X139871Y165283D01*
X139845Y165257D01*
X135901D01*
G01X125419Y143500D02*
X124509D01*
G01Y142300D02*
X125169D01*
G01X114643Y147573D02*
Y148467D01*
X118910Y152734D01*
Y158911D01*
X121489Y161490D01*
G01X119077Y131756D02*
X129599D01*
G01X124509Y138245D02*
X125500Y139236D01*
Y139300D01*
G01X126104Y159605D02*
X124905D01*
X123540Y158240D01*
G01D02*
X121385Y156085D01*
G01X121489Y161490D02*
X123589Y163590D01*
G01X126138Y163990D02*
X123989D01*
X123589Y163590D01*
G01X122400Y186849D02*
X119549D01*
X118600Y185900D01*
G01X122400Y186849D02*
X127751D01*
X137800Y176800D01*
G01X193405Y65921D02*
X197021D01*
X197605Y66505D01*
Y81795D01*
X195650Y83750D01*
X192249D01*
X177302Y98697D01*
X151168D01*
X143503Y106362D01*
Y107203D01*
X143308Y107398D01*
G01X143689Y110290D02*
X143719D01*
X146087Y107922D01*
X148552D01*
X149200Y107274D01*
Y106000D01*
X149800Y105400D01*
X157300D01*
X157800Y105900D01*
Y106834D01*
X157970Y107004D01*
G01X137939Y111693D02*
X138732Y110900D01*
X140800D01*
X141890Y111990D01*
X142977D01*
X142982Y111995D01*
X144396D01*
X144401Y111990D01*
X147451D01*
X148112Y111329D01*
G01X129270Y191205D02*
Y189929D01*
X155400Y163799D01*
Y156501D01*
X150100Y151201D01*
Y134736D01*
X143602Y128238D01*
Y126203D01*
X141213Y123814D01*
X130774D01*
X128886Y125702D01*
G01X131354Y125640D02*
X132230Y124764D01*
X139707D01*
X140557Y125614D01*
G01X144585Y142951D02*
Y143415D01*
X141110Y146890D01*
X135189D01*
X134589Y146290D01*
Y142288D01*
X134054Y141753D01*
X132730D01*
G01X132728Y145182D02*
Y141755D01*
X132730Y141753D01*
G01X127046Y191205D02*
Y190653D01*
X154300Y163399D01*
Y157100D01*
X148700Y151500D01*
Y135517D01*
X144023Y130840D01*
X143469D01*
G01X140799Y133200D02*
X143289Y135690D01*
X145689D01*
X145889Y135890D01*
G01X147890Y160217D02*
X145182D01*
X144442Y160957D01*
X142648D01*
X139890Y158199D01*
X133276D01*
G01X138285Y151613D02*
X138225Y151673D01*
X132668D01*
G01X143139Y158693D02*
X140635Y156189D01*
Y153963D01*
X138285Y151613D01*
G01X132668Y151673D02*
Y148194D01*
X132728Y148134D01*
G01X131900Y169500D02*
X129490Y167090D01*
X126361D01*
G01X156754Y55900D02*
X157162Y55492D01*
X158508D01*
X159100Y54900D01*
G01X156615Y52393D02*
X157707D01*
X159200Y50900D01*
G01X150800Y60220D02*
X152980D01*
X155560Y62800D01*
X159200D01*
G01X159100Y66500D02*
X153100D01*
X150800Y64200D01*
G01X159100Y58800D02*
X155040D01*
X154540Y58300D01*
G01X157970Y109135D02*
X156205Y110900D01*
X148541D01*
X148112Y111329D01*
G01X149536Y123371D02*
X153270D01*
X153922Y124023D01*
Y129122D01*
X154862Y130062D01*
X164939D01*
X165760Y129241D01*
Y127821D01*
G01X149536Y123371D02*
Y120536D01*
X148393Y119393D01*
X147439D01*
G01X146400Y114400D02*
X147000Y115000D01*
X151930D01*
X152300Y114630D01*
Y113700D01*
X152600Y113400D01*
X153400D01*
X153700Y113700D01*
Y114530D01*
X154100Y114930D01*
X155000D01*
X155500Y114430D01*
Y113700D01*
X155800Y113400D01*
X156890D01*
X157300Y113810D01*
Y119690D01*
X157710Y120100D01*
X159390D01*
X159800Y119690D01*
Y115312D01*
G01X160789Y144628D02*
Y141812D01*
X161301Y141300D01*
X187399D01*
X189271Y143172D01*
Y148478D01*
G01X152259Y140481D02*
Y151158D01*
X157789Y156688D01*
Y167290D01*
G01X158918Y150430D02*
X161611D01*
X162021Y150020D01*
Y148510D01*
X162431Y148100D01*
X163251D01*
X163661Y148510D01*
Y150020D01*
X164071Y150430D01*
X164891D01*
X165301Y150020D01*
Y148510D01*
X165711Y148100D01*
X166531D01*
X166941Y148510D01*
Y150020D01*
X167351Y150430D01*
X168171D01*
X168581Y150020D01*
Y148510D01*
X168991Y148100D01*
X169811D01*
X170221Y148510D01*
Y150020D01*
X170631Y150430D01*
X172989D01*
G01X160800Y154300D02*
X162823Y152277D01*
X163149D01*
G01X160800Y154300D02*
Y160649D01*
X161454Y161303D01*
G01X165600Y142600D02*
X163200D01*
X162400Y143400D01*
Y145333D01*
X161600Y146133D01*
X158968D01*
X158558Y145723D01*
Y144607D01*
G01X151890Y160217D02*
Y157767D01*
G01X158474Y171976D02*
X158069Y171571D01*
Y171272D01*
X157789Y170992D01*
Y167290D01*
G01X170700Y42400D02*
X172510Y44210D01*
Y47446D01*
X172342Y47614D01*
G01X170905Y44924D02*
Y45054D01*
X170373Y45586D01*
Y47614D01*
G01X168995Y56079D02*
X168379D01*
X163200Y50900D01*
G01X168995Y58047D02*
X166247D01*
X163100Y54900D01*
G01X168995Y65921D02*
X163679D01*
X163100Y66500D01*
G01X168995Y61984D02*
X164016D01*
X163200Y62800D01*
G01X168995Y60016D02*
X164316D01*
X163100Y58800D01*
G01X180216Y74386D02*
Y75316D01*
X180595Y75695D01*
Y81742D01*
X180184Y82153D01*
X178611D01*
X178200Y81742D01*
Y81100D01*
G01X165600Y142600D02*
X167881D01*
X168291Y143010D01*
Y144490D01*
X168701Y144900D01*
X169521D01*
X169931Y144490D01*
Y143010D01*
X170341Y142600D01*
X171161D01*
X171571Y143010D01*
Y144490D01*
X171981Y144900D01*
X172801D01*
X173211Y144490D01*
Y143010D01*
X173621Y142600D01*
X174441D01*
X174851Y143010D01*
Y144490D01*
X175261Y144900D01*
X176081D01*
X176491Y144490D01*
Y143010D01*
X176901Y142600D01*
X177721D01*
X178131Y143010D01*
Y144490D01*
X178541Y144900D01*
X179361D01*
X179771Y144490D01*
Y143010D01*
X180181Y142600D01*
X183299D01*
X184271Y143572D01*
Y148478D01*
G01X189271Y170918D02*
Y171942D01*
X186624Y174589D01*
X176590D01*
X162284Y160283D01*
Y157381D01*
X163959Y155706D01*
X163989D01*
G01X166991Y153777D02*
X165918D01*
X163989Y155706D01*
G01X179271Y148478D02*
X174941D01*
X172989Y150430D01*
G01X163789Y158006D02*
Y160010D01*
X177458Y173679D01*
X182516D01*
X184271Y171924D01*
Y170918D01*
G01X194271D02*
Y171928D01*
X190700Y175499D01*
X175650D01*
X161454Y161303D01*
G01X163029Y170523D02*
Y167248D01*
G01X193405Y52142D02*
X195705D01*
G01X182184Y47614D02*
Y44784D01*
X180400Y43000D01*
G01X180216Y47614D02*
Y45314D01*
G01X183700Y42750D02*
X183760D01*
X186121Y45111D01*
Y47614D01*
G01X184153D02*
Y45413D01*
X183789Y45049D01*
G01X186520Y78091D02*
X188090Y76521D01*
Y74386D01*
G01X192248Y77586D02*
Y76624D01*
X192206Y76582D01*
Y76406D01*
X192027Y76227D01*
Y74386D01*
G01X190120Y78575D02*
Y78568D01*
X190058Y78506D01*
Y74386D01*
G01X193405Y63953D02*
X196147D01*
G01X191000Y65200D02*
X189753Y63953D01*
X188877D01*
G54D44*
X185300Y31000D03*
G54D26*
X26542Y29796D03*
Y56450D03*
X53196Y29796D03*
Y56450D03*
G54D35*
G01X11697Y22112D02*
Y18612D01*
G01X15437Y22112D02*
Y19434D01*
X16259Y18612D01*
G01X26546Y8793D02*
X21548D01*
G01X15437Y10891D02*
X17809D01*
X18400Y10300D01*
G01D02*
X19907Y8793D01*
X21548D01*
G01X7149Y57246D02*
X11954D01*
G01D02*
X12100Y57100D01*
G01X35682Y16374D02*
Y14274D01*
G01Y19326D02*
Y21426D01*
G01D02*
X35100Y22008D01*
Y26900D01*
G01X26542Y29796D02*
Y26654D01*
X25911Y26023D01*
G01X26542Y56450D02*
X26497D01*
X24477Y58470D01*
G01X53196Y29796D02*
Y28133D01*
X52500Y27437D01*
G01X53196Y56450D02*
Y58597D01*
X54293Y59694D01*
G01X90200Y19900D02*
X90000Y20100D01*
G01D02*
X90100Y20200D01*
G01X90000Y20300D02*
Y22932D01*
X89833Y23099D01*
G01X90100Y20200D02*
X90000Y20300D01*
G01X160700Y70883D02*
X160737Y70920D01*
X164380D01*
G01X169146Y76950D02*
X161333D01*
X160700Y76317D01*
G01X177299Y161716D02*
X173432D01*
G01X179271Y170918D02*
Y163688D01*
X177299Y161716D01*
G01X169210Y161291D02*
Y161590D01*
X173306D01*
X173432Y161716D01*
G01X172989Y153382D02*
X177249D01*
X137939Y111693D03*
X146400Y114400D03*
X178200Y81100D03*
G54D17*
X18801Y96778D03*
X15651D03*
X12502D03*
X18801Y99928D03*
X15651D03*
X12502D03*
X18801Y103077D03*
X15651D03*
X12502D03*
X18801Y106227D03*
X15651D03*
X12502D03*
X18801Y109376D03*
X15651D03*
X12502D03*
X18801Y112526D03*
X15651D03*
X12502D03*
X18801Y115676D03*
X15651D03*
X12502D03*
X18801Y118825D03*
X15651D03*
X12502D03*
X18801Y121975D03*
X15651D03*
X12502D03*
X18801Y125124D03*
X15651D03*
X12502D03*
X18801Y128274D03*
X15651D03*
X12502D03*
X18801Y131424D03*
X15651D03*
X12502D03*
X18801Y134573D03*
X15651D03*
X12502D03*
X18801Y137723D03*
X15651D03*
X12502D03*
X18801Y140872D03*
X15651D03*
X12502D03*
X18801Y144022D03*
X15651D03*
X12502D03*
X37698Y96778D03*
X34549D03*
X31399D03*
X37698Y99928D03*
X34549D03*
X31399D03*
X37698Y103077D03*
X34549D03*
X31399D03*
X37698Y106227D03*
X34549D03*
X31399D03*
X37698Y109376D03*
X34549D03*
X31399D03*
X37698Y112526D03*
X34549D03*
X31399D03*
X37698Y115676D03*
X34549D03*
X31399D03*
X37698Y118825D03*
X34549D03*
X31399D03*
X37698Y121975D03*
X34549D03*
X31399D03*
X37698Y125124D03*
X34549D03*
X31399D03*
X37698Y128274D03*
X34549D03*
X31399D03*
X37698Y131424D03*
X34549D03*
X31399D03*
X37698Y134573D03*
X34549D03*
X31399D03*
X37698Y137723D03*
X34549D03*
X31399D03*
X37698Y140872D03*
X34549D03*
X31399D03*
X37698Y144022D03*
X34549D03*
X31399D03*
G54D54*
G01X-4Y9993D02*
G03X9996Y-7I10000J0D01*
G01X189996D01*
G03X199996Y9993I0J10000D01*
G01Y189993D01*
G03X189996Y199993I-10000J0D01*
G01X9996D01*
G03X-4Y189993I0J-10000D01*
G01Y9993D01*
G01X21489Y20350D02*
X24737D01*
G01X21489Y14850D02*
X24737D01*
G01X26523Y37611D02*
X22321D01*
X22003Y37293D01*
G01X20489Y32350D02*
Y26850D01*
X21489Y25850D01*
G01X26523Y34462D02*
X22601D01*
X20489Y32350D01*
G01X6989Y63350D02*
X11150D01*
G01X35100Y26900D02*
Y27300D01*
X35932Y28132D01*
Y29777D01*
G01X37382Y27169D02*
Y27678D01*
X37507Y27803D01*
Y29777D01*
G01X37503Y25037D02*
X37776D01*
X39082Y26343D01*
Y29777D01*
G01X29633D02*
Y26813D01*
X27915Y25095D01*
G01X26523Y32887D02*
X24301D01*
X23873Y32459D01*
G01X39878Y24733D02*
X40382Y25237D01*
Y28244D01*
X40656Y28518D01*
Y29777D01*
G01X26523Y53359D02*
X24868D01*
X23877Y54350D01*
Y54560D01*
G01X37507Y56469D02*
Y60332D01*
X36989Y60850D01*
G01X28065Y61700D02*
Y61060D01*
X31208Y57917D01*
Y56469D01*
G01X22838Y52510D02*
X23564Y51784D01*
X26523D01*
G01X39825Y13161D02*
Y11250D01*
G01X42722Y22986D02*
X42754D01*
X43806Y24038D01*
Y29777D01*
G01X46956D02*
Y27075D01*
X47081Y26950D01*
G01X42082Y27120D02*
Y27943D01*
X42231Y28092D01*
Y29777D01*
G01X53215Y37611D02*
X57474D01*
X57598Y37487D01*
X57648D01*
G01X45246Y23134D02*
Y23907D01*
X45381Y24042D01*
Y29777D01*
G01X53215Y45485D02*
X57413D01*
X57538Y45610D01*
X57648D01*
G01X58667Y13161D02*
Y11250D01*
G01X75300Y16898D02*
X73000D01*
G01X78502Y11600D02*
X76700D01*
X74600Y13700D01*
G01X94457Y101210D02*
X92960Y99713D01*
X92018D01*
X90521Y101210D01*
G01Y126801D02*
Y127022D01*
X92269Y128770D01*
X92489D01*
G01X108208Y115030D02*
X108168Y114990D01*
X106269D01*
G01X92489Y128770D02*
X94457Y126802D01*
Y126801D01*
G01X92489Y124832D02*
Y126443D01*
X92347Y126585D01*
G01X114266Y136721D02*
Y136767D01*
X116111Y138612D01*
G01X188142Y79836D02*
X187932Y80046D01*
X187600D01*
X186800Y80846D01*
Y83700D01*
X186600Y83900D01*
G54D27*
X40565Y68743D03*
X32615D03*
G54D36*
X138285Y142951D03*
X144585D03*
X138285Y151613D03*
X144585D03*
G54D45*
X188877Y53323D03*
G54D18*
X10389Y163290D03*
X41314Y177489D03*
X154731Y191964D03*
G54D55*
G01X98189Y174990D02*
Y170717D01*
X103093Y165813D01*
Y154467D01*
X102401Y153775D01*
Y141762D01*
X102221Y141582D01*
Y140691D01*
X102331Y140581D01*
G01X107689Y177956D02*
Y171963D01*
X107688Y171962D01*
Y171218D01*
X109379Y169527D01*
Y154380D01*
X106288Y151289D01*
Y140600D01*
X106269Y140581D01*
G01X108589Y175585D02*
Y171590D01*
X110279Y169900D01*
Y154007D01*
X107188Y150916D01*
Y142151D01*
X107239Y142100D01*
G01Y139839D02*
X106269Y138869D01*
Y138612D01*
G01X104179Y175803D02*
Y171400D01*
X107989Y167590D01*
Y154890D01*
X105292Y152193D01*
Y141487D01*
G01X103279Y178925D02*
Y171027D01*
X107089Y167217D01*
Y155263D01*
X104392Y152566D01*
Y142686D01*
X104348Y142642D01*
Y140629D01*
X104300Y140581D01*
G01X99089Y175135D02*
Y171090D01*
X103993Y166186D01*
Y154094D01*
X103301Y153402D01*
Y141762D01*
G01Y139802D02*
X102331Y138832D01*
Y138612D01*
G54D46*
X186771Y159698D03*
G54D19*
X31984Y16374D03*
Y19326D03*
X35682Y16374D03*
Y19326D03*
X55489Y23073D03*
Y26025D03*
X58989Y23073D03*
Y26025D03*
X132728Y145182D03*
Y148134D03*
X173432Y158764D03*
Y161716D03*
X172989Y150430D03*
Y153382D03*
X190000Y37576D03*
Y34624D03*
G54D37*
X160700Y76317D03*
Y70883D03*
G54D28*
X37989Y167290D03*
X99689Y34490D03*
X165989Y191990D03*
G54D56*
G01X38899Y107700D02*
X38700D01*
X37698Y108702D01*
Y109376D01*
G01X66474Y123834D02*
X62647D01*
G01X37698Y131424D02*
X36174Y129900D01*
G01X80678Y140581D02*
X80314Y140945D01*
Y143495D01*
X78619Y145190D01*
X78389D01*
X76689Y146890D01*
Y147190D01*
G01X76569Y142125D02*
Y144830D01*
X74764Y146635D01*
G01X76741Y140581D02*
X75799Y141523D01*
Y144595D01*
X73814Y146580D01*
G01X72562Y118790D02*
X72796Y118556D01*
Y116966D01*
X72804Y116958D01*
G01X72592Y121177D02*
X72289Y121480D01*
Y122349D01*
X72804Y122864D01*
G01X70515Y147085D02*
X72100Y145500D01*
Y144556D01*
G01X72804Y141561D02*
Y140581D01*
G01X71805Y142345D02*
Y141646D01*
G01X71834Y140185D02*
Y140157D01*
X72804Y139187D01*
Y138612D01*
G01X62191Y137195D02*
X64711Y134675D01*
X66898D01*
G01X72804Y132706D02*
Y134306D01*
X72902Y134404D01*
G01X68867Y134675D02*
X67897Y135645D01*
G01X72804Y130738D02*
Y130044D01*
G01X74773Y140581D02*
Y143073D01*
X75089Y143389D01*
Y144306D01*
G01X76741Y124832D02*
X76004Y125569D01*
Y126584D01*
G01X76800Y121100D02*
X76741Y121159D01*
Y122864D01*
G01X74773Y134675D02*
Y133014D01*
X74653Y132894D01*
G01X96208Y99372D02*
X96249Y99413D01*
G54D47*
G01X190024Y31000D02*
X185300D01*
G01X190000Y34624D02*
Y31024D01*
X190024Y31000D01*
G01Y41100D02*
Y37600D01*
X190000Y37576D01*
G01X190024Y41100D02*
Y44324D01*
X190058Y44358D01*
Y47614D01*
G54D29*
X54167Y15263D03*
X44325D03*
G54D38*
X163029Y170523D03*
Y176625D03*
G54D57*
G01X-96613Y-154945D02*
X-96146Y-155278D01*
X-95621Y-155478D01*
X-95155D01*
X-94688Y-155278D01*
X-94338Y-154945D01*
X-94163Y-154478D01*
X-94280Y-154011D01*
X-94571Y-153611D01*
X-95096Y-153345D01*
X-95796Y-153211D01*
X-96205Y-152945D01*
X-96380Y-152478D01*
X-96263Y-152011D01*
X-95971Y-151678D01*
X-95563Y-151478D01*
X-95155D01*
X-94746Y-151611D01*
X-94396Y-151945D01*
G01X-91813Y-155478D02*
Y-151478D01*
G01X-89363D02*
Y-155478D01*
G01Y-153478D02*
X-91813D01*
G01X-84621Y-155478D02*
X-86955D01*
Y-151478D01*
X-84621D01*
G01X-85555Y-153411D02*
X-86955D01*
G01X-79821Y-155478D02*
X-82155D01*
Y-151478D01*
X-79821D01*
G01X-80755Y-153411D02*
X-82155D01*
G01X-76188Y-151478D02*
Y-155478D01*
G01X-77530Y-151478D02*
X-74846D01*
G01X-95288Y-163978D02*
Y-157678D01*
X-96228Y-158938D01*
G01Y-163978D02*
X-94348D01*
G01X-82688D02*
X-83315Y-163873D01*
X-83863Y-163453D01*
X-84333Y-162823D01*
X-84646Y-162088D01*
X-84803Y-161248D01*
Y-160408D01*
X-84646Y-159568D01*
X-84333Y-158833D01*
X-83863Y-158203D01*
X-83315Y-157783D01*
X-82688Y-157678D01*
X-82061Y-157783D01*
X-81513Y-158203D01*
X-81043Y-158833D01*
X-80730Y-159568D01*
X-80573Y-160408D01*
Y-161248D01*
X-80730Y-162088D01*
X-81043Y-162823D01*
X-81513Y-163453D01*
X-82061Y-163873D01*
X-82688Y-163978D01*
G01X-77876D02*
Y-157678D01*
X-74900D01*
G01X-75996Y-160723D02*
X-77876D01*
G01X-63788Y-163978D02*
Y-157678D01*
X-64728Y-158938D01*
G01Y-163978D02*
X-62848D01*
G01X-58976Y-158728D02*
X-58506Y-158098D01*
X-57958Y-157783D01*
X-57331Y-157678D01*
X-56548Y-157888D01*
X-56000Y-158413D01*
X-55843Y-159043D01*
X-55921Y-159673D01*
X-56235Y-160198D01*
X-57801Y-161248D01*
X-58506Y-161983D01*
X-58976Y-163033D01*
X-59133Y-163978D01*
X-55843D01*
G01X-88388Y-136478D02*
X-88855Y-136411D01*
X-89263Y-136145D01*
X-89613Y-135745D01*
X-89846Y-135278D01*
X-89963Y-134745D01*
Y-134211D01*
X-89846Y-133678D01*
X-89613Y-133211D01*
X-89263Y-132811D01*
X-88855Y-132545D01*
X-88388Y-132478D01*
X-87921Y-132545D01*
X-87513Y-132811D01*
X-87163Y-133211D01*
X-86930Y-133678D01*
X-86813Y-134211D01*
Y-134745D01*
X-86930Y-135278D01*
X-87163Y-135745D01*
X-87513Y-136145D01*
X-87921Y-136411D01*
X-88388Y-136478D01*
G01X-84755D02*
Y-132478D01*
X-83296D01*
X-82830Y-132678D01*
X-82538Y-132945D01*
X-82421Y-133478D01*
X-82538Y-134011D01*
X-82888Y-134345D01*
X-83296Y-134545D01*
X-84755D01*
G01X-83296D02*
X-82421Y-136478D01*
G01X-74688Y-132478D02*
X-73288D01*
G01X-73988D02*
Y-136478D01*
G01X-74688D02*
X-73288D01*
G01X-70530D02*
Y-132478D01*
X-67846Y-136478D01*
Y-132478D01*
G01X-60755Y-136478D02*
Y-132478D01*
X-59355D01*
X-58888Y-132678D01*
X-58538Y-133145D01*
X-58421Y-133678D01*
X-58538Y-134211D01*
X-58830Y-134611D01*
X-59355Y-134811D01*
X-60755D01*
G01X-56246Y-136478D02*
X-54788Y-132478D01*
X-53330Y-136478D01*
G01X-53855Y-135078D02*
X-55721D01*
G01X-51155Y-136478D02*
Y-132478D01*
X-49696D01*
X-49230Y-132678D01*
X-48938Y-132945D01*
X-48821Y-133478D01*
X-48938Y-134011D01*
X-49288Y-134345D01*
X-49696Y-134545D01*
X-51155D01*
G01X-49696D02*
X-48821Y-136478D01*
G01X-45188Y-132478D02*
Y-136478D01*
G01X-46530Y-132478D02*
X-43846D01*
G01X-37338D02*
X-36521Y-136478D01*
X-35588Y-132478D01*
X-34655Y-136478D01*
X-33838Y-132478D01*
G01X-31488D02*
X-30088D01*
G01X-30788D02*
Y-136478D01*
G01X-31488D02*
X-30088D01*
G01X-25988Y-132478D02*
Y-136478D01*
G01X-27330Y-132478D02*
X-24646D01*
G01X-22413Y-136478D02*
Y-132478D01*
G01X-19963D02*
Y-136478D01*
G01Y-134478D02*
X-22413D01*
G01X-16388Y-136478D02*
X-16855Y-136411D01*
X-17263Y-136145D01*
X-17613Y-135745D01*
X-17846Y-135278D01*
X-17963Y-134745D01*
Y-134211D01*
X-17846Y-133678D01*
X-17613Y-133211D01*
X-17263Y-132811D01*
X-16855Y-132545D01*
X-16388Y-132478D01*
X-15921Y-132545D01*
X-15513Y-132811D01*
X-15163Y-133211D01*
X-14930Y-133678D01*
X-14813Y-134211D01*
Y-134745D01*
X-14930Y-135278D01*
X-15163Y-135745D01*
X-15513Y-136145D01*
X-15921Y-136411D01*
X-16388Y-136478D01*
G01X-12871Y-132478D02*
Y-135345D01*
X-12638Y-135945D01*
X-12171Y-136345D01*
X-11588Y-136478D01*
X-11005Y-136345D01*
X-10538Y-135945D01*
X-10305Y-135345D01*
Y-132478D01*
G01X-6788D02*
Y-136478D01*
G01X-8130Y-132478D02*
X-5446D01*
G01X2812D02*
Y-136478D01*
G01X1470Y-132478D02*
X4154D01*
G01X6387Y-136478D02*
Y-132478D01*
G01X8837D02*
Y-136478D01*
G01Y-134478D02*
X6387D01*
G01X13579Y-136478D02*
X11245D01*
Y-132478D01*
X13579D01*
G01X12645Y-134411D02*
X11245D01*
G01X23295Y-132811D02*
X22945Y-132611D01*
X22537Y-132478D01*
X22070D01*
X21545Y-132678D01*
X21137Y-133011D01*
X20845Y-133411D01*
X20612Y-134078D01*
X20554Y-134678D01*
X20670Y-135278D01*
X20845Y-135678D01*
X21195Y-136078D01*
X21604Y-136345D01*
X22012Y-136478D01*
X22420D01*
X22829Y-136345D01*
X23179Y-136145D01*
X23470Y-135878D01*
G01X26812Y-136478D02*
X26345Y-136411D01*
X25937Y-136145D01*
X25587Y-135745D01*
X25354Y-135278D01*
X25237Y-134745D01*
Y-134211D01*
X25354Y-133678D01*
X25587Y-133211D01*
X25937Y-132811D01*
X26345Y-132545D01*
X26812Y-132478D01*
X27279Y-132545D01*
X27687Y-132811D01*
X28037Y-133211D01*
X28270Y-133678D01*
X28387Y-134211D01*
Y-134745D01*
X28270Y-135278D01*
X28037Y-135745D01*
X27687Y-136145D01*
X27279Y-136411D01*
X26812Y-136478D01*
G01X30270D02*
Y-132478D01*
X32954Y-136478D01*
Y-132478D01*
G01X35187Y-135945D02*
X35654Y-136278D01*
X36179Y-136478D01*
X36645D01*
X37112Y-136278D01*
X37462Y-135945D01*
X37637Y-135478D01*
X37520Y-135011D01*
X37229Y-134611D01*
X36704Y-134345D01*
X36004Y-134211D01*
X35595Y-133945D01*
X35420Y-133478D01*
X35537Y-133011D01*
X35829Y-132678D01*
X36237Y-132478D01*
X36645D01*
X37054Y-132611D01*
X37404Y-132945D01*
G01X42379Y-136478D02*
X40045D01*
Y-132478D01*
X42379D01*
G01X41445Y-134411D02*
X40045D01*
G01X44670Y-136478D02*
Y-132478D01*
X47354Y-136478D01*
Y-132478D01*
G01X50812D02*
Y-136478D01*
G01X49470Y-132478D02*
X52154D01*
G01X60412Y-136478D02*
X59945Y-136411D01*
X59537Y-136145D01*
X59187Y-135745D01*
X58954Y-135278D01*
X58837Y-134745D01*
Y-134211D01*
X58954Y-133678D01*
X59187Y-133211D01*
X59537Y-132811D01*
X59945Y-132545D01*
X60412Y-132478D01*
X60879Y-132545D01*
X61287Y-132811D01*
X61637Y-133211D01*
X61870Y-133678D01*
X61987Y-134211D01*
Y-134745D01*
X61870Y-135278D01*
X61637Y-135745D01*
X61287Y-136145D01*
X60879Y-136411D01*
X60412Y-136478D01*
G01X64104D02*
Y-132478D01*
X66320D01*
G01X65504Y-134411D02*
X64104D01*
G01X-88730Y-144478D02*
Y-140478D01*
X-86046Y-144478D01*
Y-140478D01*
G01X-83813Y-144478D02*
X-81363Y-140478D01*
G01X-83813D02*
X-81363Y-144478D01*
G01X-78955D02*
Y-140478D01*
X-77555D01*
X-77088Y-140678D01*
X-76738Y-141145D01*
X-76621Y-141678D01*
X-76738Y-142211D01*
X-77030Y-142611D01*
X-77555Y-142811D01*
X-78955D01*
G01X-72988Y-144611D02*
X-73105Y-144545D01*
Y-144411D01*
X-72988Y-144345D01*
X-72871Y-144411D01*
Y-144545D01*
X-72988Y-144611D01*
G01X-87921Y-118345D02*
X-87688Y-118145D01*
X-87513Y-117811D01*
X-87396Y-117345D01*
X-87513Y-116945D01*
X-87746Y-116678D01*
X-88155Y-116478D01*
X-89730D01*
Y-120478D01*
X-87805D01*
X-87396Y-120211D01*
X-87163Y-119811D01*
X-87046Y-119345D01*
X-87163Y-118878D01*
X-87513Y-118478D01*
X-87921Y-118345D01*
X-89730D01*
G01X-82421Y-120478D02*
X-84755D01*
Y-116478D01*
X-82421D01*
G01X-83355Y-118411D02*
X-84755D01*
G01X-75271Y-116478D02*
Y-119345D01*
X-75038Y-119945D01*
X-74571Y-120345D01*
X-73988Y-120478D01*
X-73405Y-120345D01*
X-72938Y-119945D01*
X-72705Y-119345D01*
Y-116478D01*
G01X-70413Y-119945D02*
X-69946Y-120278D01*
X-69421Y-120478D01*
X-68955D01*
X-68488Y-120278D01*
X-68138Y-119945D01*
X-67963Y-119478D01*
X-68080Y-119011D01*
X-68371Y-118611D01*
X-68896Y-118345D01*
X-69596Y-118211D01*
X-70005Y-117945D01*
X-70180Y-117478D01*
X-70063Y-117011D01*
X-69771Y-116678D01*
X-69363Y-116478D01*
X-68955D01*
X-68546Y-116611D01*
X-68196Y-116945D01*
G01X-63221Y-120478D02*
X-65555D01*
Y-116478D01*
X-63221D01*
G01X-64155Y-118411D02*
X-65555D01*
G01X-60871Y-120478D02*
Y-116478D01*
X-59705D01*
X-59238Y-116678D01*
X-58888Y-116945D01*
X-58596Y-117345D01*
X-58363Y-117811D01*
X-58305Y-118478D01*
X-58363Y-119145D01*
X-58596Y-119611D01*
X-58888Y-120011D01*
X-59238Y-120278D01*
X-59705Y-120478D01*
X-60871D01*
G01X-51096D02*
Y-116478D01*
X-48880D01*
G01X-49696Y-118411D02*
X-51096D01*
G01X-45188Y-120478D02*
X-45655Y-120411D01*
X-46063Y-120145D01*
X-46413Y-119745D01*
X-46646Y-119278D01*
X-46763Y-118745D01*
Y-118211D01*
X-46646Y-117678D01*
X-46413Y-117211D01*
X-46063Y-116811D01*
X-45655Y-116545D01*
X-45188Y-116478D01*
X-44721Y-116545D01*
X-44313Y-116811D01*
X-43963Y-117211D01*
X-43730Y-117678D01*
X-43613Y-118211D01*
Y-118745D01*
X-43730Y-119278D01*
X-43963Y-119745D01*
X-44313Y-120145D01*
X-44721Y-120411D01*
X-45188Y-120478D01*
G01X-41555D02*
Y-116478D01*
X-40096D01*
X-39630Y-116678D01*
X-39338Y-116945D01*
X-39221Y-117478D01*
X-39338Y-118011D01*
X-39688Y-118345D01*
X-40096Y-118545D01*
X-41555D01*
G01X-40096D02*
X-39221Y-120478D01*
G01X-29621D02*
X-31955D01*
Y-116478D01*
X-29621D01*
G01X-30555Y-118411D02*
X-31955D01*
G01X-27330Y-120478D02*
Y-116478D01*
X-24646Y-120478D01*
Y-116478D01*
G01X-20838Y-118478D02*
X-19671D01*
Y-119678D01*
X-20021Y-120078D01*
X-20430Y-120345D01*
X-21013Y-120478D01*
X-21596Y-120345D01*
X-22005Y-120078D01*
X-22355Y-119678D01*
X-22588Y-119211D01*
X-22705Y-118678D01*
Y-118211D01*
X-22588Y-117811D01*
X-22355Y-117345D01*
X-22005Y-116945D01*
X-21655Y-116678D01*
X-21188Y-116478D01*
X-20780D01*
X-20313Y-116611D01*
X-19963Y-116878D01*
G01X-17088Y-116478D02*
X-15688D01*
G01X-16388D02*
Y-120478D01*
G01X-17088D02*
X-15688D01*
G01X-12930D02*
Y-116478D01*
X-10246Y-120478D01*
Y-116478D01*
G01X-5621Y-120478D02*
X-7955D01*
Y-116478D01*
X-5621D01*
G01X-6555Y-118411D02*
X-7955D01*
G01X-821Y-120478D02*
X-3155D01*
Y-116478D01*
X-821D01*
G01X-1755Y-118411D02*
X-3155D01*
G01X1645Y-120478D02*
Y-116478D01*
X3104D01*
X3570Y-116678D01*
X3862Y-116945D01*
X3979Y-117478D01*
X3862Y-118011D01*
X3512Y-118345D01*
X3104Y-118545D01*
X1645D01*
G01X3104D02*
X3979Y-120478D01*
G01X6912Y-116478D02*
X8312D01*
G01X7612D02*
Y-120478D01*
G01X6912D02*
X8312D01*
G01X11070D02*
Y-116478D01*
X13754Y-120478D01*
Y-116478D01*
G01X17562Y-118478D02*
X18729D01*
Y-119678D01*
X18379Y-120078D01*
X17970Y-120345D01*
X17387Y-120478D01*
X16804Y-120345D01*
X16395Y-120078D01*
X16045Y-119678D01*
X15812Y-119211D01*
X15695Y-118678D01*
Y-118211D01*
X15812Y-117811D01*
X16045Y-117345D01*
X16395Y-116945D01*
X16745Y-116678D01*
X17212Y-116478D01*
X17620D01*
X18087Y-116611D01*
X18437Y-116878D01*
G01X25529Y-120478D02*
Y-116478D01*
X26695D01*
X27162Y-116678D01*
X27512Y-116945D01*
X27804Y-117345D01*
X28037Y-117811D01*
X28095Y-118478D01*
X28037Y-119145D01*
X27804Y-119611D01*
X27512Y-120011D01*
X27162Y-120278D01*
X26695Y-120478D01*
X25529D01*
G01X32779D02*
X30445D01*
Y-116478D01*
X32779D01*
G01X31845Y-118411D02*
X30445D01*
G01X35187Y-119945D02*
X35654Y-120278D01*
X36179Y-120478D01*
X36645D01*
X37112Y-120278D01*
X37462Y-119945D01*
X37637Y-119478D01*
X37520Y-119011D01*
X37229Y-118611D01*
X36704Y-118345D01*
X36004Y-118211D01*
X35595Y-117945D01*
X35420Y-117478D01*
X35537Y-117011D01*
X35829Y-116678D01*
X36237Y-116478D01*
X36645D01*
X37054Y-116611D01*
X37404Y-116945D01*
G01X40512Y-116478D02*
X41912D01*
G01X41212D02*
Y-120478D01*
G01X40512D02*
X41912D01*
G01X46362Y-118478D02*
X47529D01*
Y-119678D01*
X47179Y-120078D01*
X46770Y-120345D01*
X46187Y-120478D01*
X45604Y-120345D01*
X45195Y-120078D01*
X44845Y-119678D01*
X44612Y-119211D01*
X44495Y-118678D01*
Y-118211D01*
X44612Y-117811D01*
X44845Y-117345D01*
X45195Y-116945D01*
X45545Y-116678D01*
X46012Y-116478D01*
X46420D01*
X46887Y-116611D01*
X47237Y-116878D01*
G01X49470Y-120478D02*
Y-116478D01*
X52154Y-120478D01*
Y-116478D01*
G01X-89555Y-128478D02*
Y-124478D01*
X-88155D01*
X-87688Y-124678D01*
X-87338Y-125145D01*
X-87221Y-125678D01*
X-87338Y-126211D01*
X-87630Y-126611D01*
X-88155Y-126811D01*
X-89555D01*
G01X-84755Y-128478D02*
Y-124478D01*
X-83296D01*
X-82830Y-124678D01*
X-82538Y-124945D01*
X-82421Y-125478D01*
X-82538Y-126011D01*
X-82888Y-126345D01*
X-83296Y-126545D01*
X-84755D01*
G01X-83296D02*
X-82421Y-128478D01*
G01X-78788D02*
X-79255Y-128411D01*
X-79663Y-128145D01*
X-80013Y-127745D01*
X-80246Y-127278D01*
X-80363Y-126745D01*
Y-126211D01*
X-80246Y-125678D01*
X-80013Y-125211D01*
X-79663Y-124811D01*
X-79255Y-124545D01*
X-78788Y-124478D01*
X-78321Y-124545D01*
X-77913Y-124811D01*
X-77563Y-125211D01*
X-77330Y-125678D01*
X-77213Y-126211D01*
Y-126745D01*
X-77330Y-127278D01*
X-77563Y-127745D01*
X-77913Y-128145D01*
X-78321Y-128411D01*
X-78788Y-128478D01*
G01X-72705Y-124811D02*
X-73055Y-124611D01*
X-73463Y-124478D01*
X-73930D01*
X-74455Y-124678D01*
X-74863Y-125011D01*
X-75155Y-125411D01*
X-75388Y-126078D01*
X-75446Y-126678D01*
X-75330Y-127278D01*
X-75155Y-127678D01*
X-74805Y-128078D01*
X-74396Y-128345D01*
X-73988Y-128478D01*
X-73580D01*
X-73171Y-128345D01*
X-72821Y-128145D01*
X-72530Y-127878D01*
G01X-70471Y-124478D02*
Y-127345D01*
X-70238Y-127945D01*
X-69771Y-128345D01*
X-69188Y-128478D01*
X-68605Y-128345D01*
X-68138Y-127945D01*
X-67905Y-127345D01*
Y-124478D01*
G01X-65555Y-128478D02*
Y-124478D01*
X-64096D01*
X-63630Y-124678D01*
X-63338Y-124945D01*
X-63221Y-125478D01*
X-63338Y-126011D01*
X-63688Y-126345D01*
X-64096Y-126545D01*
X-65555D01*
G01X-64096D02*
X-63221Y-128478D01*
G01X-58421D02*
X-60755D01*
Y-124478D01*
X-58421D01*
G01X-59355Y-126411D02*
X-60755D01*
G01X-56305Y-128478D02*
Y-124478D01*
X-54788Y-127811D01*
X-53271Y-124478D01*
Y-128478D01*
G01X-48821D02*
X-51155D01*
Y-124478D01*
X-48821D01*
G01X-49755Y-126411D02*
X-51155D01*
G01X-46530Y-128478D02*
Y-124478D01*
X-43846Y-128478D01*
Y-124478D01*
G01X-40388D02*
Y-128478D01*
G01X-41730Y-124478D02*
X-39046D01*
G01X-30788Y-128478D02*
X-31255Y-128411D01*
X-31663Y-128145D01*
X-32013Y-127745D01*
X-32246Y-127278D01*
X-32363Y-126745D01*
Y-126211D01*
X-32246Y-125678D01*
X-32013Y-125211D01*
X-31663Y-124811D01*
X-31255Y-124545D01*
X-30788Y-124478D01*
X-30321Y-124545D01*
X-29913Y-124811D01*
X-29563Y-125211D01*
X-29330Y-125678D01*
X-29213Y-126211D01*
Y-126745D01*
X-29330Y-127278D01*
X-29563Y-127745D01*
X-29913Y-128145D01*
X-30321Y-128411D01*
X-30788Y-128478D01*
G01X-27155D02*
Y-124478D01*
X-25696D01*
X-25230Y-124678D01*
X-24938Y-124945D01*
X-24821Y-125478D01*
X-24938Y-126011D01*
X-25288Y-126345D01*
X-25696Y-126545D01*
X-27155D01*
G01X-25696D02*
X-24821Y-128478D01*
G01X-17905D02*
Y-124478D01*
X-16388Y-127811D01*
X-14871Y-124478D01*
Y-128478D01*
G01X-13046D02*
X-11588Y-124478D01*
X-10130Y-128478D01*
G01X-10655Y-127078D02*
X-12521D01*
G01X-8130Y-128478D02*
Y-124478D01*
X-5446Y-128478D01*
Y-124478D01*
G01X-3271D02*
Y-127345D01*
X-3038Y-127945D01*
X-2571Y-128345D01*
X-1988Y-128478D01*
X-1405Y-128345D01*
X-938Y-127945D01*
X-705Y-127345D01*
Y-124478D01*
G01X1704Y-128478D02*
Y-124478D01*
X3920D01*
G01X3104Y-126411D02*
X1704D01*
G01X6154Y-128478D02*
X7612Y-124478D01*
X9070Y-128478D01*
G01X8545Y-127078D02*
X6679D01*
G01X13695Y-124811D02*
X13345Y-124611D01*
X12937Y-124478D01*
X12470D01*
X11945Y-124678D01*
X11537Y-125011D01*
X11245Y-125411D01*
X11012Y-126078D01*
X10954Y-126678D01*
X11070Y-127278D01*
X11245Y-127678D01*
X11595Y-128078D01*
X12004Y-128345D01*
X12412Y-128478D01*
X12820D01*
X13229Y-128345D01*
X13579Y-128145D01*
X13870Y-127878D01*
G01X17212Y-124478D02*
Y-128478D01*
G01X15870Y-124478D02*
X18554D01*
G01X20729D02*
Y-127345D01*
X20962Y-127945D01*
X21429Y-128345D01*
X22012Y-128478D01*
X22595Y-128345D01*
X23062Y-127945D01*
X23295Y-127345D01*
Y-124478D01*
G01X25645Y-128478D02*
Y-124478D01*
X27104D01*
X27570Y-124678D01*
X27862Y-124945D01*
X27979Y-125478D01*
X27862Y-126011D01*
X27512Y-126345D01*
X27104Y-126545D01*
X25645D01*
G01X27104D02*
X27979Y-128478D01*
G01X32779D02*
X30445D01*
Y-124478D01*
X32779D01*
G01X31845Y-126411D02*
X30445D01*
G01X40512Y-124478D02*
X41912D01*
G01X41212D02*
Y-128478D01*
G01X40512D02*
X41912D01*
G01X44670D02*
Y-124478D01*
X47354Y-128478D01*
Y-124478D01*
G01X53862D02*
X54679Y-128478D01*
X55612Y-124478D01*
X56545Y-128478D01*
X57362Y-124478D01*
G01X59187Y-128478D02*
Y-124478D01*
G01X61637D02*
Y-128478D01*
G01Y-126478D02*
X59187D01*
G01X65212Y-128478D02*
X64745Y-128411D01*
X64337Y-128145D01*
X63987Y-127745D01*
X63754Y-127278D01*
X63637Y-126745D01*
Y-126211D01*
X63754Y-125678D01*
X63987Y-125211D01*
X64337Y-124811D01*
X64745Y-124545D01*
X65212Y-124478D01*
X65679Y-124545D01*
X66087Y-124811D01*
X66437Y-125211D01*
X66670Y-125678D01*
X66787Y-126211D01*
Y-126745D01*
X66670Y-127278D01*
X66437Y-127745D01*
X66087Y-128145D01*
X65679Y-128411D01*
X65212Y-128478D01*
G01X68845Y-124478D02*
Y-128478D01*
X71179D01*
G01X75979D02*
X73645D01*
Y-124478D01*
X75979D01*
G01X75045Y-126411D02*
X73645D01*
G01X-89388Y-100478D02*
Y-104478D01*
G01X-90730Y-100478D02*
X-88046D01*
G01X-85813Y-104478D02*
Y-100478D01*
G01X-83363D02*
Y-104478D01*
G01Y-102478D02*
X-85813D01*
G01X-80488Y-100478D02*
X-79088D01*
G01X-79788D02*
Y-104478D01*
G01X-80488D02*
X-79088D01*
G01X-76213Y-103945D02*
X-75746Y-104278D01*
X-75221Y-104478D01*
X-74755D01*
X-74288Y-104278D01*
X-73938Y-103945D01*
X-73763Y-103478D01*
X-73880Y-103011D01*
X-74171Y-102611D01*
X-74696Y-102345D01*
X-75396Y-102211D01*
X-75805Y-101945D01*
X-75980Y-101478D01*
X-75863Y-101011D01*
X-75571Y-100678D01*
X-75163Y-100478D01*
X-74755D01*
X-74346Y-100611D01*
X-73996Y-100945D01*
G01X-66671Y-104478D02*
Y-100478D01*
X-65505D01*
X-65038Y-100678D01*
X-64688Y-100945D01*
X-64396Y-101345D01*
X-64163Y-101811D01*
X-64105Y-102478D01*
X-64163Y-103145D01*
X-64396Y-103611D01*
X-64688Y-104011D01*
X-65038Y-104278D01*
X-65505Y-104478D01*
X-66671D01*
G01X-60588D02*
X-61055Y-104411D01*
X-61463Y-104145D01*
X-61813Y-103745D01*
X-62046Y-103278D01*
X-62163Y-102745D01*
Y-102211D01*
X-62046Y-101678D01*
X-61813Y-101211D01*
X-61463Y-100811D01*
X-61055Y-100545D01*
X-60588Y-100478D01*
X-60121Y-100545D01*
X-59713Y-100811D01*
X-59363Y-101211D01*
X-59130Y-101678D01*
X-59013Y-102211D01*
Y-102745D01*
X-59130Y-103278D01*
X-59363Y-103745D01*
X-59713Y-104145D01*
X-60121Y-104411D01*
X-60588Y-104478D01*
G01X-54505Y-100811D02*
X-54855Y-100611D01*
X-55263Y-100478D01*
X-55730D01*
X-56255Y-100678D01*
X-56663Y-101011D01*
X-56955Y-101411D01*
X-57188Y-102078D01*
X-57246Y-102678D01*
X-57130Y-103278D01*
X-56955Y-103678D01*
X-56605Y-104078D01*
X-56196Y-104345D01*
X-55788Y-104478D01*
X-55380D01*
X-54971Y-104345D01*
X-54621Y-104145D01*
X-54330Y-103878D01*
G01X-52271Y-100478D02*
Y-103345D01*
X-52038Y-103945D01*
X-51571Y-104345D01*
X-50988Y-104478D01*
X-50405Y-104345D01*
X-49938Y-103945D01*
X-49705Y-103345D01*
Y-100478D01*
G01X-47705Y-104478D02*
Y-100478D01*
X-46188Y-103811D01*
X-44671Y-100478D01*
Y-104478D01*
G01X-40221D02*
X-42555D01*
Y-100478D01*
X-40221D01*
G01X-41155Y-102411D02*
X-42555D01*
G01X-37930Y-104478D02*
Y-100478D01*
X-35246Y-104478D01*
Y-100478D01*
G01X-31788D02*
Y-104478D01*
G01X-33130Y-100478D02*
X-30446D01*
G01X-20905Y-100811D02*
X-21255Y-100611D01*
X-21663Y-100478D01*
X-22130D01*
X-22655Y-100678D01*
X-23063Y-101011D01*
X-23355Y-101411D01*
X-23588Y-102078D01*
X-23646Y-102678D01*
X-23530Y-103278D01*
X-23355Y-103678D01*
X-23005Y-104078D01*
X-22596Y-104345D01*
X-22188Y-104478D01*
X-21780D01*
X-21371Y-104345D01*
X-21021Y-104145D01*
X-20730Y-103878D01*
G01X-17388Y-104478D02*
X-17855Y-104411D01*
X-18263Y-104145D01*
X-18613Y-103745D01*
X-18846Y-103278D01*
X-18963Y-102745D01*
Y-102211D01*
X-18846Y-101678D01*
X-18613Y-101211D01*
X-18263Y-100811D01*
X-17855Y-100545D01*
X-17388Y-100478D01*
X-16921Y-100545D01*
X-16513Y-100811D01*
X-16163Y-101211D01*
X-15930Y-101678D01*
X-15813Y-102211D01*
Y-102745D01*
X-15930Y-103278D01*
X-16163Y-103745D01*
X-16513Y-104145D01*
X-16921Y-104411D01*
X-17388Y-104478D01*
G01X-13930D02*
Y-100478D01*
X-11246Y-104478D01*
Y-100478D01*
G01X-7788D02*
Y-104478D01*
G01X-9130Y-100478D02*
X-6446D01*
G01X-4446Y-104478D02*
X-2988Y-100478D01*
X-1530Y-104478D01*
G01X-2055Y-103078D02*
X-3921D01*
G01X1112Y-100478D02*
X2512D01*
G01X1812D02*
Y-104478D01*
G01X1112D02*
X2512D01*
G01X5270D02*
Y-100478D01*
X7954Y-104478D01*
Y-100478D01*
G01X10187Y-103945D02*
X10654Y-104278D01*
X11179Y-104478D01*
X11645D01*
X12112Y-104278D01*
X12462Y-103945D01*
X12637Y-103478D01*
X12520Y-103011D01*
X12229Y-102611D01*
X11704Y-102345D01*
X11004Y-102211D01*
X10595Y-101945D01*
X10420Y-101478D01*
X10537Y-101011D01*
X10829Y-100678D01*
X11237Y-100478D01*
X11645D01*
X12054Y-100611D01*
X12404Y-100945D01*
G01X20312Y-100478D02*
X21712D01*
G01X21012D02*
Y-104478D01*
G01X20312D02*
X21712D01*
G01X24470D02*
Y-100478D01*
X27154Y-104478D01*
Y-100478D01*
G01X29504Y-104478D02*
Y-100478D01*
X31720D01*
G01X30904Y-102411D02*
X29504D01*
G01X35412Y-104478D02*
X34945Y-104411D01*
X34537Y-104145D01*
X34187Y-103745D01*
X33954Y-103278D01*
X33837Y-102745D01*
Y-102211D01*
X33954Y-101678D01*
X34187Y-101211D01*
X34537Y-100811D01*
X34945Y-100545D01*
X35412Y-100478D01*
X35879Y-100545D01*
X36287Y-100811D01*
X36637Y-101211D01*
X36870Y-101678D01*
X36987Y-102211D01*
Y-102745D01*
X36870Y-103278D01*
X36637Y-103745D01*
X36287Y-104145D01*
X35879Y-104411D01*
X35412Y-104478D01*
G01X39045D02*
Y-100478D01*
X40504D01*
X40970Y-100678D01*
X41262Y-100945D01*
X41379Y-101478D01*
X41262Y-102011D01*
X40912Y-102345D01*
X40504Y-102545D01*
X39045D01*
G01X40504D02*
X41379Y-104478D01*
G01X43495D02*
Y-100478D01*
X45012Y-103811D01*
X46529Y-100478D01*
Y-104478D01*
G01X48354D02*
X49812Y-100478D01*
X51270Y-104478D01*
G01X50745Y-103078D02*
X48879D01*
G01X54612Y-100478D02*
Y-104478D01*
G01X53270Y-100478D02*
X55954D01*
G01X58712D02*
X60112D01*
G01X59412D02*
Y-104478D01*
G01X58712D02*
X60112D01*
G01X64212D02*
X63745Y-104411D01*
X63337Y-104145D01*
X62987Y-103745D01*
X62754Y-103278D01*
X62637Y-102745D01*
Y-102211D01*
X62754Y-101678D01*
X62987Y-101211D01*
X63337Y-100811D01*
X63745Y-100545D01*
X64212Y-100478D01*
X64679Y-100545D01*
X65087Y-100811D01*
X65437Y-101211D01*
X65670Y-101678D01*
X65787Y-102211D01*
Y-102745D01*
X65670Y-103278D01*
X65437Y-103745D01*
X65087Y-104145D01*
X64679Y-104411D01*
X64212Y-104478D01*
G01X67670D02*
Y-100478D01*
X70354Y-104478D01*
Y-100478D01*
G01X-89555Y-112478D02*
Y-108478D01*
X-88155D01*
X-87688Y-108678D01*
X-87338Y-109145D01*
X-87221Y-109678D01*
X-87338Y-110211D01*
X-87630Y-110611D01*
X-88155Y-110811D01*
X-89555D01*
G01X-84755Y-112478D02*
Y-108478D01*
X-83296D01*
X-82830Y-108678D01*
X-82538Y-108945D01*
X-82421Y-109478D01*
X-82538Y-110011D01*
X-82888Y-110345D01*
X-83296Y-110545D01*
X-84755D01*
G01X-83296D02*
X-82421Y-112478D01*
G01X-78788D02*
X-79255Y-112411D01*
X-79663Y-112145D01*
X-80013Y-111745D01*
X-80246Y-111278D01*
X-80363Y-110745D01*
Y-110211D01*
X-80246Y-109678D01*
X-80013Y-109211D01*
X-79663Y-108811D01*
X-79255Y-108545D01*
X-78788Y-108478D01*
X-78321Y-108545D01*
X-77913Y-108811D01*
X-77563Y-109211D01*
X-77330Y-109678D01*
X-77213Y-110211D01*
Y-110745D01*
X-77330Y-111278D01*
X-77563Y-111745D01*
X-77913Y-112145D01*
X-78321Y-112411D01*
X-78788Y-112478D01*
G01X-75155D02*
Y-108478D01*
X-73755D01*
X-73288Y-108678D01*
X-72938Y-109145D01*
X-72821Y-109678D01*
X-72938Y-110211D01*
X-73230Y-110611D01*
X-73755Y-110811D01*
X-75155D01*
G01X-70355Y-112478D02*
Y-108478D01*
X-68896D01*
X-68430Y-108678D01*
X-68138Y-108945D01*
X-68021Y-109478D01*
X-68138Y-110011D01*
X-68488Y-110345D01*
X-68896Y-110545D01*
X-70355D01*
G01X-68896D02*
X-68021Y-112478D01*
G01X-65088Y-108478D02*
X-63688D01*
G01X-64388D02*
Y-112478D01*
G01X-65088D02*
X-63688D01*
G01X-58421D02*
X-60755D01*
Y-108478D01*
X-58421D01*
G01X-59355Y-110411D02*
X-60755D01*
G01X-54788Y-108478D02*
Y-112478D01*
G01X-56130Y-108478D02*
X-53446D01*
G01X-51446Y-112478D02*
X-49988Y-108478D01*
X-48530Y-112478D01*
G01X-49055Y-111078D02*
X-50921D01*
G01X-46355Y-112478D02*
Y-108478D01*
X-44896D01*
X-44430Y-108678D01*
X-44138Y-108945D01*
X-44021Y-109478D01*
X-44138Y-110011D01*
X-44488Y-110345D01*
X-44896Y-110545D01*
X-46355D01*
G01X-44896D02*
X-44021Y-112478D01*
G01X-40388D02*
Y-110678D01*
X-41555Y-108478D01*
G01X-39221D02*
X-40388Y-110678D01*
G01X-30788Y-108478D02*
Y-112478D01*
G01X-32130Y-108478D02*
X-29446D01*
G01X-25988Y-112478D02*
X-26455Y-112411D01*
X-26863Y-112145D01*
X-27213Y-111745D01*
X-27446Y-111278D01*
X-27563Y-110745D01*
Y-110211D01*
X-27446Y-109678D01*
X-27213Y-109211D01*
X-26863Y-108811D01*
X-26455Y-108545D01*
X-25988Y-108478D01*
X-25521Y-108545D01*
X-25113Y-108811D01*
X-24763Y-109211D01*
X-24530Y-109678D01*
X-24413Y-110211D01*
Y-110745D01*
X-24530Y-111278D01*
X-24763Y-111745D01*
X-25113Y-112145D01*
X-25521Y-112411D01*
X-25988Y-112478D01*
G01X-17730D02*
Y-108478D01*
X-15046Y-112478D01*
Y-108478D01*
G01X-12813Y-112478D02*
X-10363Y-108478D01*
G01X-12813D02*
X-10363Y-112478D01*
G01X-7955D02*
Y-108478D01*
X-6555D01*
X-6088Y-108678D01*
X-5738Y-109145D01*
X-5621Y-109678D01*
X-5738Y-110211D01*
X-6030Y-110611D01*
X-6555Y-110811D01*
X-7955D01*
G01X1354Y-112478D02*
X2812Y-108478D01*
X4270Y-112478D01*
G01X3745Y-111078D02*
X1879D01*
G01X6270Y-112478D02*
Y-108478D01*
X8954Y-112478D01*
Y-108478D01*
G01X11129Y-112478D02*
Y-108478D01*
X12295D01*
X12762Y-108678D01*
X13112Y-108945D01*
X13404Y-109345D01*
X13637Y-109811D01*
X13695Y-110478D01*
X13637Y-111145D01*
X13404Y-111611D01*
X13112Y-112011D01*
X12762Y-112278D01*
X12295Y-112478D01*
X11129D01*
G01X20787Y-111945D02*
X21254Y-112278D01*
X21779Y-112478D01*
X22245D01*
X22712Y-112278D01*
X23062Y-111945D01*
X23237Y-111478D01*
X23120Y-111011D01*
X22829Y-110611D01*
X22304Y-110345D01*
X21604Y-110211D01*
X21195Y-109945D01*
X21020Y-109478D01*
X21137Y-109011D01*
X21429Y-108678D01*
X21837Y-108478D01*
X22245D01*
X22654Y-108611D01*
X23004Y-108945D01*
G01X25587Y-112478D02*
Y-108478D01*
G01X28037D02*
Y-112478D01*
G01Y-110478D02*
X25587D01*
G01X30154Y-112478D02*
X31612Y-108478D01*
X33070Y-112478D01*
G01X32545Y-111078D02*
X30679D01*
G01X35245Y-108478D02*
Y-112478D01*
X37579D01*
G01X40045Y-108478D02*
Y-112478D01*
X42379D01*
G01X49470D02*
Y-108478D01*
X52154Y-112478D01*
Y-108478D01*
G01X55612Y-112478D02*
X55145Y-112411D01*
X54737Y-112145D01*
X54387Y-111745D01*
X54154Y-111278D01*
X54037Y-110745D01*
Y-110211D01*
X54154Y-109678D01*
X54387Y-109211D01*
X54737Y-108811D01*
X55145Y-108545D01*
X55612Y-108478D01*
X56079Y-108545D01*
X56487Y-108811D01*
X56837Y-109211D01*
X57070Y-109678D01*
X57187Y-110211D01*
Y-110745D01*
X57070Y-111278D01*
X56837Y-111745D01*
X56487Y-112145D01*
X56079Y-112411D01*
X55612Y-112478D01*
G01X60412Y-108478D02*
Y-112478D01*
G01X59070Y-108478D02*
X61754D01*
G01X-96496Y-85811D02*
X-96088Y-85345D01*
X-95738Y-85078D01*
X-95271Y-84945D01*
X-94863Y-85078D01*
X-94571Y-85345D01*
X-94338Y-85745D01*
X-94280Y-86211D01*
X-94338Y-86611D01*
X-94571Y-87011D01*
X-94921Y-87345D01*
X-95330Y-87478D01*
X-95796Y-87345D01*
X-96205Y-86945D01*
X-96438Y-86345D01*
X-96496Y-85678D01*
X-96380Y-84811D01*
X-96205Y-84345D01*
X-95913Y-83878D01*
X-95505Y-83545D01*
X-95096Y-83478D01*
X-94688Y-83611D01*
X-94396Y-83945D01*
G01X-91871Y-86878D02*
X-91521Y-87211D01*
X-91113Y-87411D01*
X-90588Y-87478D01*
X-90063Y-87345D01*
X-89655Y-87078D01*
X-89363Y-86611D01*
X-89305Y-86078D01*
X-89421Y-85545D01*
X-89713Y-85211D01*
X-90121Y-84945D01*
X-90530Y-84878D01*
X-90938Y-84945D01*
X-91463Y-85211D01*
X-91288Y-83478D01*
X-89713D01*
G01X-85788D02*
X-86255Y-83611D01*
X-86605Y-83945D01*
X-86838Y-84345D01*
X-87013Y-84878D01*
X-87071Y-85478D01*
X-87013Y-86078D01*
X-86838Y-86611D01*
X-86605Y-87011D01*
X-86255Y-87345D01*
X-85788Y-87478D01*
X-85321Y-87345D01*
X-84971Y-87011D01*
X-84738Y-86611D01*
X-84563Y-86078D01*
X-84505Y-85478D01*
X-84563Y-84878D01*
X-84738Y-84345D01*
X-84971Y-83945D01*
X-85321Y-83611D01*
X-85788Y-83478D01*
G01X-80988Y-87478D02*
Y-83478D01*
X-81688Y-84278D01*
G01Y-87478D02*
X-80288D01*
G01X-73138Y-83478D02*
X-72321Y-87478D01*
X-71388Y-83478D01*
X-70455Y-87478D01*
X-69638Y-83478D01*
G01X-67288D02*
X-65888D01*
G01X-66588D02*
Y-87478D01*
G01X-67288D02*
X-65888D01*
G01X-62955Y-83478D02*
Y-87478D01*
X-60621D01*
G01X-58155Y-83478D02*
Y-87478D01*
X-55821D01*
G01X-52888Y-83478D02*
X-51488D01*
G01X-52188D02*
Y-87478D01*
G01X-52888D02*
X-51488D01*
G01X-48846D02*
X-47388Y-83478D01*
X-45930Y-87478D01*
G01X-46455Y-86078D02*
X-48321D01*
G01X-44105Y-87478D02*
Y-83478D01*
X-42588Y-86811D01*
X-41071Y-83478D01*
Y-87478D01*
G01X-31705Y-83811D02*
X-32055Y-83611D01*
X-32463Y-83478D01*
X-32930D01*
X-33455Y-83678D01*
X-33863Y-84011D01*
X-34155Y-84411D01*
X-34388Y-85078D01*
X-34446Y-85678D01*
X-34330Y-86278D01*
X-34155Y-86678D01*
X-33805Y-87078D01*
X-33396Y-87345D01*
X-32988Y-87478D01*
X-32580D01*
X-32171Y-87345D01*
X-31821Y-87145D01*
X-31530Y-86878D01*
G01X-29646Y-87478D02*
X-28188Y-83478D01*
X-26730Y-87478D01*
G01X-27255Y-86078D02*
X-29121D01*
G01X-24730Y-87478D02*
Y-83478D01*
X-22046Y-87478D01*
Y-83478D01*
G01X-19930Y-87478D02*
Y-83478D01*
X-17246Y-87478D01*
Y-83478D01*
G01X-13788Y-87478D02*
X-14255Y-87411D01*
X-14663Y-87145D01*
X-15013Y-86745D01*
X-15246Y-86278D01*
X-15363Y-85745D01*
Y-85211D01*
X-15246Y-84678D01*
X-15013Y-84211D01*
X-14663Y-83811D01*
X-14255Y-83545D01*
X-13788Y-83478D01*
X-13321Y-83545D01*
X-12913Y-83811D01*
X-12563Y-84211D01*
X-12330Y-84678D01*
X-12213Y-85211D01*
Y-85745D01*
X-12330Y-86278D01*
X-12563Y-86745D01*
X-12913Y-87145D01*
X-13321Y-87411D01*
X-13788Y-87478D01*
G01X-10330D02*
Y-83478D01*
X-7646Y-87478D01*
Y-83478D01*
G01X-671Y-87478D02*
Y-83478D01*
X495D01*
X962Y-83678D01*
X1312Y-83945D01*
X1604Y-84345D01*
X1837Y-84811D01*
X1895Y-85478D01*
X1837Y-86145D01*
X1604Y-86611D01*
X1312Y-87011D01*
X962Y-87278D01*
X495Y-87478D01*
X-671D01*
G01X4245D02*
Y-83478D01*
X5704D01*
X6170Y-83678D01*
X6462Y-83945D01*
X6579Y-84478D01*
X6462Y-85011D01*
X6112Y-85345D01*
X5704Y-85545D01*
X4245D01*
G01X5704D02*
X6579Y-87478D01*
G01X9512Y-83478D02*
X10912D01*
G01X10212D02*
Y-87478D01*
G01X9512D02*
X10912D01*
G01X13554Y-83478D02*
X15012Y-87478D01*
X16470Y-83478D01*
G01X20979Y-87478D02*
X18645D01*
Y-83478D01*
X20979D01*
G01X20045Y-85411D02*
X18645D01*
G01X27662Y-83478D02*
X28479Y-87478D01*
X29412Y-83478D01*
X30345Y-87478D01*
X31162Y-83478D01*
G01X35379Y-87478D02*
X33045D01*
Y-83478D01*
X35379D01*
G01X34445Y-85411D02*
X33045D01*
G01X37787Y-86945D02*
X38254Y-87278D01*
X38779Y-87478D01*
X39245D01*
X39712Y-87278D01*
X40062Y-86945D01*
X40237Y-86478D01*
X40120Y-86011D01*
X39829Y-85611D01*
X39304Y-85345D01*
X38604Y-85211D01*
X38195Y-84945D01*
X38020Y-84478D01*
X38137Y-84011D01*
X38429Y-83678D01*
X38837Y-83478D01*
X39245D01*
X39654Y-83611D01*
X40004Y-83945D01*
G01X43812Y-83478D02*
Y-87478D01*
G01X42470Y-83478D02*
X45154D01*
G01X-96846Y-94478D02*
X-95388Y-90478D01*
X-93930Y-94478D01*
G01X-94455Y-93078D02*
X-96321D01*
G01X-91871Y-90478D02*
Y-93345D01*
X-91638Y-93945D01*
X-91171Y-94345D01*
X-90588Y-94478D01*
X-90005Y-94345D01*
X-89538Y-93945D01*
X-89305Y-93345D01*
Y-90478D01*
G01X-87013Y-93945D02*
X-86546Y-94278D01*
X-86021Y-94478D01*
X-85555D01*
X-85088Y-94278D01*
X-84738Y-93945D01*
X-84563Y-93478D01*
X-84680Y-93011D01*
X-84971Y-92611D01*
X-85496Y-92345D01*
X-86196Y-92211D01*
X-86605Y-91945D01*
X-86780Y-91478D01*
X-86663Y-91011D01*
X-86371Y-90678D01*
X-85963Y-90478D01*
X-85555D01*
X-85146Y-90611D01*
X-84796Y-90945D01*
G01X-80988Y-90478D02*
Y-94478D01*
G01X-82330Y-90478D02*
X-79646D01*
G01X-76888D02*
X-75488D01*
G01X-76188D02*
Y-94478D01*
G01X-76888D02*
X-75488D01*
G01X-72730D02*
Y-90478D01*
X-70046Y-94478D01*
Y-90478D01*
G01X-66588Y-94611D02*
X-66705Y-94545D01*
Y-94411D01*
X-66588Y-94345D01*
X-66471Y-94411D01*
Y-94545D01*
X-66588Y-94611D01*
G01X-56988Y-90478D02*
Y-94478D01*
G01X-58330Y-90478D02*
X-55646D01*
G01X-51021Y-94478D02*
X-53355D01*
Y-90478D01*
X-51021D01*
G01X-51955Y-92411D02*
X-53355D01*
G01X-48613Y-94478D02*
X-46163Y-90478D01*
G01X-48613D02*
X-46163Y-94478D01*
G01X-44046D02*
X-42588Y-90478D01*
X-41130Y-94478D01*
G01X-41655Y-93078D02*
X-43521D01*
G01X-39013Y-93945D02*
X-38546Y-94278D01*
X-38021Y-94478D01*
X-37555D01*
X-37088Y-94278D01*
X-36738Y-93945D01*
X-36563Y-93478D01*
X-36680Y-93011D01*
X-36971Y-92611D01*
X-37496Y-92345D01*
X-38196Y-92211D01*
X-38605Y-91945D01*
X-38780Y-91478D01*
X-38663Y-91011D01*
X-38371Y-90678D01*
X-37963Y-90478D01*
X-37555D01*
X-37146Y-90611D01*
X-36796Y-90945D01*
G01X-28305Y-94478D02*
X-28188Y-93611D01*
X-28013Y-92878D01*
X-27780Y-92211D01*
X-27488Y-91478D01*
X-27021Y-90478D01*
X-29355D01*
G01X-23388Y-94478D02*
X-22980Y-94411D01*
X-22513Y-94211D01*
X-22221Y-93878D01*
X-22105Y-93411D01*
X-22221Y-92945D01*
X-22571Y-92545D01*
X-23096Y-92345D01*
X-23680D01*
X-24030Y-92211D01*
X-24321Y-91878D01*
X-24438Y-91411D01*
X-24263Y-90945D01*
X-23855Y-90611D01*
X-23388Y-90478D01*
X-22921Y-90611D01*
X-22513Y-90945D01*
X-22338Y-91411D01*
X-22455Y-91878D01*
X-22746Y-92211D01*
X-23096Y-92345D01*
X-23680D01*
X-24205Y-92545D01*
X-24555Y-92945D01*
X-24671Y-93411D01*
X-24555Y-93878D01*
X-24263Y-94211D01*
X-23796Y-94411D01*
X-23388Y-94478D01*
G01X-18705D02*
X-18588Y-93611D01*
X-18413Y-92878D01*
X-18180Y-92211D01*
X-17888Y-91478D01*
X-17421Y-90478D01*
X-19755D01*
G01X-15071Y-93678D02*
X-14721Y-94145D01*
X-14255Y-94411D01*
X-13730Y-94478D01*
X-13263Y-94411D01*
X-12796Y-94078D01*
X-12505Y-93678D01*
X-12446Y-93278D01*
X-12563Y-92811D01*
X-12971Y-92478D01*
X-13380Y-92345D01*
X-13905D01*
G01X-13380D02*
X-13030Y-92145D01*
X-12738Y-91811D01*
X-12621Y-91411D01*
X-12738Y-91011D01*
X-13030Y-90678D01*
X-13555Y-90478D01*
X-14080Y-90545D01*
X-14605Y-90811D01*
G01X-10271Y-93878D02*
X-9921Y-94211D01*
X-9513Y-94411D01*
X-8988Y-94478D01*
X-8463Y-94345D01*
X-8055Y-94078D01*
X-7763Y-93611D01*
X-7705Y-93078D01*
X-7821Y-92545D01*
X-8113Y-92211D01*
X-8521Y-91945D01*
X-8930Y-91878D01*
X-9338Y-91945D01*
X-9863Y-92211D01*
X-9688Y-90478D01*
X-8113D01*
G01X-671D02*
Y-93345D01*
X-438Y-93945D01*
X29Y-94345D01*
X612Y-94478D01*
X1195Y-94345D01*
X1662Y-93945D01*
X1895Y-93345D01*
Y-90478D01*
G01X4187Y-93945D02*
X4654Y-94278D01*
X5179Y-94478D01*
X5645D01*
X6112Y-94278D01*
X6462Y-93945D01*
X6637Y-93478D01*
X6520Y-93011D01*
X6229Y-92611D01*
X5704Y-92345D01*
X5004Y-92211D01*
X4595Y-91945D01*
X4420Y-91478D01*
X4537Y-91011D01*
X4829Y-90678D01*
X5237Y-90478D01*
X5645D01*
X6054Y-90611D01*
X6404Y-90945D01*
G01X8754Y-94478D02*
X10212Y-90478D01*
X11670Y-94478D01*
G01X11145Y-93078D02*
X9279D01*
G01X-93985Y-78478D02*
Y-70978D01*
X-89691Y-78478D01*
Y-70978D01*
G01X-86298Y-78478D02*
X-82378Y-70978D01*
G01X-86298D02*
X-82378Y-78478D01*
G01X-78705D02*
Y-70978D01*
X-76465D01*
X-75718Y-71353D01*
X-75158Y-72228D01*
X-74971Y-73228D01*
X-75158Y-74228D01*
X-75625Y-74978D01*
X-76465Y-75353D01*
X-78705D01*
G01X-63798Y-77478D02*
X-63051Y-78103D01*
X-62211Y-78478D01*
X-61465D01*
X-60718Y-78103D01*
X-60158Y-77478D01*
X-59878Y-76603D01*
X-60065Y-75728D01*
X-60531Y-74978D01*
X-61371Y-74478D01*
X-62491Y-74228D01*
X-63145Y-73728D01*
X-63425Y-72853D01*
X-63238Y-71978D01*
X-62771Y-71353D01*
X-62118Y-70978D01*
X-61465D01*
X-60811Y-71228D01*
X-60251Y-71853D01*
G01X-52471Y-78478D02*
X-56205D01*
Y-70978D01*
X-52471D01*
G01X-53965Y-74603D02*
X-56205D01*
G01X-49265Y-78478D02*
Y-70978D01*
X-46838Y-77228D01*
X-44411Y-70978D01*
Y-78478D01*
G01X-40458Y-70978D02*
X-38218D01*
G01X-39338D02*
Y-78478D01*
G01X-40458D02*
X-38218D01*
G01X-29785Y-71603D02*
X-30345Y-71228D01*
X-30998Y-70978D01*
X-31745D01*
X-32585Y-71353D01*
X-33238Y-71978D01*
X-33705Y-72728D01*
X-34078Y-73978D01*
X-34171Y-75103D01*
X-33985Y-76228D01*
X-33705Y-76978D01*
X-33145Y-77728D01*
X-32491Y-78228D01*
X-31838Y-78478D01*
X-31185D01*
X-30531Y-78228D01*
X-29971Y-77853D01*
X-29505Y-77353D01*
G01X-24338Y-78478D02*
X-25085Y-78353D01*
X-25738Y-77853D01*
X-26298Y-77103D01*
X-26671Y-76228D01*
X-26858Y-75228D01*
Y-74228D01*
X-26671Y-73228D01*
X-26298Y-72353D01*
X-25738Y-71603D01*
X-25085Y-71103D01*
X-24338Y-70978D01*
X-23591Y-71103D01*
X-22938Y-71603D01*
X-22378Y-72353D01*
X-22005Y-73228D01*
X-21818Y-74228D01*
Y-75228D01*
X-22005Y-76228D01*
X-22378Y-77103D01*
X-22938Y-77853D01*
X-23591Y-78353D01*
X-24338Y-78478D01*
G01X-18985D02*
Y-70978D01*
X-14691Y-78478D01*
Y-70978D01*
G01X-11391Y-78478D02*
Y-70978D01*
X-9525D01*
X-8778Y-71353D01*
X-8218Y-71853D01*
X-7751Y-72603D01*
X-7378Y-73478D01*
X-7285Y-74728D01*
X-7378Y-75978D01*
X-7751Y-76853D01*
X-8218Y-77603D01*
X-8778Y-78103D01*
X-9525Y-78478D01*
X-11391D01*
G01X-3891Y-70978D02*
Y-76353D01*
X-3518Y-77478D01*
X-2771Y-78228D01*
X-1838Y-78478D01*
X-905Y-78228D01*
X-158Y-77478D01*
X215Y-76353D01*
Y-70978D01*
G01X7715Y-71603D02*
X7155Y-71228D01*
X6502Y-70978D01*
X5755D01*
X4915Y-71353D01*
X4262Y-71978D01*
X3795Y-72728D01*
X3422Y-73978D01*
X3329Y-75103D01*
X3515Y-76228D01*
X3795Y-76978D01*
X4355Y-77728D01*
X5009Y-78228D01*
X5662Y-78478D01*
X6315D01*
X6969Y-78228D01*
X7529Y-77853D01*
X7995Y-77353D01*
G01X13162Y-70978D02*
Y-78478D01*
G01X11015Y-70978D02*
X15309D01*
G01X20662Y-78478D02*
X19915Y-78353D01*
X19262Y-77853D01*
X18702Y-77103D01*
X18329Y-76228D01*
X18142Y-75228D01*
Y-74228D01*
X18329Y-73228D01*
X18702Y-72353D01*
X19262Y-71603D01*
X19915Y-71103D01*
X20662Y-70978D01*
X21409Y-71103D01*
X22062Y-71603D01*
X22622Y-72353D01*
X22995Y-73228D01*
X23182Y-74228D01*
Y-75228D01*
X22995Y-76228D01*
X22622Y-77103D01*
X22062Y-77853D01*
X21409Y-78353D01*
X20662Y-78478D01*
G01X26295D02*
Y-70978D01*
X28629D01*
X29375Y-71353D01*
X29842Y-71853D01*
X30029Y-72853D01*
X29842Y-73853D01*
X29282Y-74478D01*
X28629Y-74853D01*
X26295D01*
G01X28629D02*
X30029Y-78478D01*
G01X33702Y-77478D02*
X34449Y-78103D01*
X35289Y-78478D01*
X36035D01*
X36782Y-78103D01*
X37342Y-77478D01*
X37622Y-76603D01*
X37435Y-75728D01*
X36969Y-74978D01*
X36129Y-74478D01*
X35009Y-74228D01*
X34355Y-73728D01*
X34075Y-72853D01*
X34262Y-71978D01*
X34729Y-71353D01*
X35382Y-70978D01*
X36035D01*
X36689Y-71228D01*
X37249Y-71853D01*
G01X-46496Y-155478D02*
Y-151478D01*
X-44280D01*
G01X-45096Y-153411D02*
X-46496D01*
G01X-41288Y-151478D02*
X-39888D01*
G01X-40588D02*
Y-155478D01*
G01X-41288D02*
X-39888D01*
G01X-36955Y-151478D02*
Y-155478D01*
X-34621D01*
G01X-32505D02*
Y-151478D01*
X-30988Y-154811D01*
X-29471Y-151478D01*
Y-155478D01*
G01X-24355Y-163978D02*
Y-157678D01*
X-22475D01*
X-21848Y-157993D01*
X-21378Y-158728D01*
X-21221Y-159568D01*
X-21378Y-160408D01*
X-21770Y-161038D01*
X-22475Y-161353D01*
X-24355D01*
G01X-18055Y-163978D02*
Y-157678D01*
X-16096D01*
X-15470Y-157993D01*
X-15078Y-158413D01*
X-14921Y-159253D01*
X-15078Y-160093D01*
X-15548Y-160618D01*
X-16096Y-160933D01*
X-18055D01*
G01X-16096D02*
X-14921Y-163978D01*
G01X-11128Y-157678D02*
X-9248D01*
G01X-10188D02*
Y-163978D01*
G01X-11128D02*
X-9248D01*
G01X-5925D02*
Y-157678D01*
X-3888Y-162928D01*
X-1851Y-157678D01*
Y-163978D01*
G01X454D02*
X2412Y-157678D01*
X4370Y-163978D01*
G01X3665Y-161773D02*
X1159D01*
G01X7145Y-163978D02*
Y-157678D01*
X9104D01*
X9730Y-157993D01*
X10122Y-158413D01*
X10279Y-159253D01*
X10122Y-160093D01*
X9652Y-160618D01*
X9104Y-160933D01*
X7145D01*
G01X9104D02*
X10279Y-163978D01*
G01X15012D02*
Y-161143D01*
X13445Y-157678D01*
G01X16579D02*
X15012Y-161143D01*
G01X25967Y-163138D02*
X26594Y-163663D01*
X27299Y-163978D01*
X27925D01*
X28552Y-163663D01*
X29022Y-163138D01*
X29257Y-162403D01*
X29100Y-161668D01*
X28709Y-161038D01*
X28004Y-160618D01*
X27064Y-160408D01*
X26515Y-159988D01*
X26280Y-159253D01*
X26437Y-158518D01*
X26829Y-157993D01*
X27377Y-157678D01*
X27925D01*
X28474Y-157888D01*
X28944Y-158413D01*
G01X32972Y-157678D02*
X34852D01*
G01X33912D02*
Y-163978D01*
G01X32972D02*
X34852D01*
G01X38489D02*
Y-157678D01*
X40055D01*
X40682Y-157993D01*
X41152Y-158413D01*
X41544Y-159043D01*
X41857Y-159778D01*
X41935Y-160828D01*
X41857Y-161878D01*
X41544Y-162613D01*
X41152Y-163243D01*
X40682Y-163663D01*
X40055Y-163978D01*
X38489D01*
G01X48079D02*
X44945D01*
Y-157678D01*
X48079D01*
G01X46825Y-160723D02*
X44945D01*
G01X81612Y-163478D02*
Y-159478D01*
X80912Y-160278D01*
G01Y-163478D02*
X82312D01*
G01X86412D02*
X86820Y-163411D01*
X87287Y-163211D01*
X87579Y-162878D01*
X87695Y-162411D01*
X87579Y-161945D01*
X87229Y-161545D01*
X86704Y-161345D01*
X86120D01*
X85770Y-161211D01*
X85479Y-160878D01*
X85362Y-160411D01*
X85537Y-159945D01*
X85945Y-159611D01*
X86412Y-159478D01*
X86879Y-159611D01*
X87287Y-159945D01*
X87462Y-160411D01*
X87345Y-160878D01*
X87054Y-161211D01*
X86704Y-161345D01*
X86120D01*
X85595Y-161545D01*
X85245Y-161945D01*
X85129Y-162411D01*
X85245Y-162878D01*
X85537Y-163211D01*
X86004Y-163411D01*
X86412Y-163478D01*
G01X90454Y-162145D02*
X91970D01*
G01X96012Y-159478D02*
X95545Y-159611D01*
X95195Y-159945D01*
X94962Y-160345D01*
X94787Y-160878D01*
X94729Y-161478D01*
X94787Y-162078D01*
X94962Y-162611D01*
X95195Y-163011D01*
X95545Y-163345D01*
X96012Y-163478D01*
X96479Y-163345D01*
X96829Y-163011D01*
X97062Y-162611D01*
X97237Y-162078D01*
X97295Y-161478D01*
X97237Y-160878D01*
X97062Y-160345D01*
X96829Y-159945D01*
X96479Y-159611D01*
X96012Y-159478D01*
G01X99529Y-162678D02*
X99879Y-163145D01*
X100345Y-163411D01*
X100870Y-163478D01*
X101337Y-163411D01*
X101804Y-163078D01*
X102095Y-162678D01*
X102154Y-162278D01*
X102037Y-161811D01*
X101629Y-161478D01*
X101220Y-161345D01*
X100695D01*
G01X101220D02*
X101570Y-161145D01*
X101862Y-160811D01*
X101979Y-160411D01*
X101862Y-160011D01*
X101570Y-159678D01*
X101045Y-159478D01*
X100520Y-159545D01*
X99995Y-159811D01*
G01X104854Y-162145D02*
X106370D01*
G01X110412Y-163478D02*
Y-159478D01*
X109712Y-160278D01*
G01Y-163478D02*
X111112D01*
G01X114220Y-163011D02*
X114629Y-163345D01*
X115095Y-163478D01*
X115562Y-163345D01*
X115970Y-162945D01*
X116262Y-162345D01*
X116379Y-161745D01*
Y-161011D01*
X116262Y-160411D01*
X115970Y-159878D01*
X115620Y-159611D01*
X115212Y-159478D01*
X114745Y-159611D01*
X114395Y-159878D01*
X114162Y-160278D01*
X114045Y-160811D01*
X114162Y-161278D01*
X114454Y-161745D01*
X114804Y-162011D01*
X115212Y-162078D01*
X115679Y-161945D01*
X116029Y-161611D01*
X116379Y-161011D01*
G01X78329Y-155478D02*
Y-151478D01*
X79495D01*
X79962Y-151678D01*
X80312Y-151945D01*
X80604Y-152345D01*
X80837Y-152811D01*
X80895Y-153478D01*
X80837Y-154145D01*
X80604Y-154611D01*
X80312Y-155011D01*
X79962Y-155278D01*
X79495Y-155478D01*
X78329D01*
G01X82954D02*
X84412Y-151478D01*
X85870Y-155478D01*
G01X85345Y-154078D02*
X83479D01*
G01X89212Y-151478D02*
Y-155478D01*
G01X87870Y-151478D02*
X90554D01*
G01X95179Y-155478D02*
X92845D01*
Y-151478D01*
X95179D01*
G01X94245Y-153411D02*
X92845D01*
G01X87862Y-141311D02*
X91362D01*
G01X92662D02*
X96162D01*
G01X97462D02*
X100962D01*
G01X110095Y-136311D02*
X109745Y-136111D01*
X109337Y-135978D01*
X108870D01*
X108345Y-136178D01*
X107937Y-136511D01*
X107645Y-136911D01*
X107412Y-137578D01*
X107354Y-138178D01*
X107470Y-138778D01*
X107645Y-139178D01*
X107995Y-139578D01*
X108404Y-139845D01*
X108812Y-139978D01*
X109220D01*
X109629Y-139845D01*
X109979Y-139645D01*
X110270Y-139378D01*
G01X113612Y-139978D02*
X113145Y-139911D01*
X112737Y-139645D01*
X112387Y-139245D01*
X112154Y-138778D01*
X112037Y-138245D01*
Y-137711D01*
X112154Y-137178D01*
X112387Y-136711D01*
X112737Y-136311D01*
X113145Y-136045D01*
X113612Y-135978D01*
X114079Y-136045D01*
X114487Y-136311D01*
X114837Y-136711D01*
X115070Y-137178D01*
X115187Y-137711D01*
Y-138245D01*
X115070Y-138778D01*
X114837Y-139245D01*
X114487Y-139645D01*
X114079Y-139911D01*
X113612Y-139978D01*
G01X116895D02*
Y-135978D01*
X118412Y-139311D01*
X119929Y-135978D01*
Y-139978D01*
G01X122045D02*
Y-135978D01*
X123445D01*
X123912Y-136178D01*
X124262Y-136645D01*
X124379Y-137178D01*
X124262Y-137711D01*
X123970Y-138111D01*
X123445Y-138311D01*
X122045D01*
G01X126554Y-139978D02*
X128012Y-135978D01*
X129470Y-139978D01*
G01X128945Y-138578D02*
X127079D01*
G01X131470Y-139978D02*
Y-135978D01*
X134154Y-139978D01*
Y-135978D01*
G01X137612Y-139978D02*
Y-138178D01*
X136445Y-135978D01*
G01X138779D02*
X137612Y-138178D01*
G01X148495Y-136311D02*
X148145Y-136111D01*
X147737Y-135978D01*
X147270D01*
X146745Y-136178D01*
X146337Y-136511D01*
X146045Y-136911D01*
X145812Y-137578D01*
X145754Y-138178D01*
X145870Y-138778D01*
X146045Y-139178D01*
X146395Y-139578D01*
X146804Y-139845D01*
X147212Y-139978D01*
X147620D01*
X148029Y-139845D01*
X148379Y-139645D01*
X148670Y-139378D01*
G01X152012Y-139978D02*
X151545Y-139911D01*
X151137Y-139645D01*
X150787Y-139245D01*
X150554Y-138778D01*
X150437Y-138245D01*
Y-137711D01*
X150554Y-137178D01*
X150787Y-136711D01*
X151137Y-136311D01*
X151545Y-136045D01*
X152012Y-135978D01*
X152479Y-136045D01*
X152887Y-136311D01*
X153237Y-136711D01*
X153470Y-137178D01*
X153587Y-137711D01*
Y-138245D01*
X153470Y-138778D01*
X153237Y-139245D01*
X152887Y-139645D01*
X152479Y-139911D01*
X152012Y-139978D01*
G01X155470D02*
Y-135978D01*
X158154Y-139978D01*
Y-135978D01*
G01X160504Y-139978D02*
Y-135978D01*
X162720D01*
G01X161904Y-137911D02*
X160504D01*
G01X165712Y-135978D02*
X167112D01*
G01X166412D02*
Y-139978D01*
G01X165712D02*
X167112D01*
G01X169929D02*
Y-135978D01*
X171095D01*
X171562Y-136178D01*
X171912Y-136445D01*
X172204Y-136845D01*
X172437Y-137311D01*
X172495Y-137978D01*
X172437Y-138645D01*
X172204Y-139111D01*
X171912Y-139511D01*
X171562Y-139778D01*
X171095Y-139978D01*
X169929D01*
G01X177179D02*
X174845D01*
Y-135978D01*
X177179D01*
G01X176245Y-137911D02*
X174845D01*
G01X179470Y-139978D02*
Y-135978D01*
X182154Y-139978D01*
Y-135978D01*
G01X185612D02*
Y-139978D01*
G01X184270Y-135978D02*
X186954D01*
G01X189712D02*
X191112D01*
G01X190412D02*
Y-139978D01*
G01X189712D02*
X191112D01*
G01X193754D02*
X195212Y-135978D01*
X196670Y-139978D01*
G01X196145Y-138578D02*
X194279D01*
G01X198845Y-135978D02*
Y-139978D01*
X201179D01*
G01X87862Y-124811D02*
X91362D01*
G01X92662D02*
X96162D01*
G01X97462D02*
X100962D01*
G01X110095Y-119811D02*
X109745Y-119611D01*
X109337Y-119478D01*
X108870D01*
X108345Y-119678D01*
X107937Y-120011D01*
X107645Y-120411D01*
X107412Y-121078D01*
X107354Y-121678D01*
X107470Y-122278D01*
X107645Y-122678D01*
X107995Y-123078D01*
X108404Y-123345D01*
X108812Y-123478D01*
X109220D01*
X109629Y-123345D01*
X109979Y-123145D01*
X110270Y-122878D01*
G01X113612Y-123478D02*
X113145Y-123411D01*
X112737Y-123145D01*
X112387Y-122745D01*
X112154Y-122278D01*
X112037Y-121745D01*
Y-121211D01*
X112154Y-120678D01*
X112387Y-120211D01*
X112737Y-119811D01*
X113145Y-119545D01*
X113612Y-119478D01*
X114079Y-119545D01*
X114487Y-119811D01*
X114837Y-120211D01*
X115070Y-120678D01*
X115187Y-121211D01*
Y-121745D01*
X115070Y-122278D01*
X114837Y-122745D01*
X114487Y-123145D01*
X114079Y-123411D01*
X113612Y-123478D01*
G01X116895D02*
Y-119478D01*
X118412Y-122811D01*
X119929Y-119478D01*
Y-123478D01*
G01X122045D02*
Y-119478D01*
X123445D01*
X123912Y-119678D01*
X124262Y-120145D01*
X124379Y-120678D01*
X124262Y-121211D01*
X123970Y-121611D01*
X123445Y-121811D01*
X122045D01*
G01X126554Y-123478D02*
X128012Y-119478D01*
X129470Y-123478D01*
G01X128945Y-122078D02*
X127079D01*
G01X131470Y-123478D02*
Y-119478D01*
X134154Y-123478D01*
Y-119478D01*
G01X137612Y-123478D02*
Y-121678D01*
X136445Y-119478D01*
G01X138779D02*
X137612Y-121678D01*
G01X146512Y-119478D02*
X147912D01*
G01X147212D02*
Y-123478D01*
G01X146512D02*
X147912D01*
G01X150670D02*
Y-119478D01*
X153354Y-123478D01*
Y-119478D01*
G01X156812D02*
Y-123478D01*
G01X155470Y-119478D02*
X158154D01*
G01X162779Y-123478D02*
X160445D01*
Y-119478D01*
X162779D01*
G01X161845Y-121411D02*
X160445D01*
G01X165245Y-123478D02*
Y-119478D01*
X166704D01*
X167170Y-119678D01*
X167462Y-119945D01*
X167579Y-120478D01*
X167462Y-121011D01*
X167112Y-121345D01*
X166704Y-121545D01*
X165245D01*
G01X166704D02*
X167579Y-123478D01*
G01X169870D02*
Y-119478D01*
X172554Y-123478D01*
Y-119478D01*
G01X174554Y-123478D02*
X176012Y-119478D01*
X177470Y-123478D01*
G01X176945Y-122078D02*
X175079D01*
G01X179645Y-119478D02*
Y-123478D01*
X181979D01*
G01X87862Y-108811D02*
X91362D01*
G01X92662D02*
X96162D01*
G01X97462D02*
X100962D01*
G01X110095Y-103811D02*
X109745Y-103611D01*
X109337Y-103478D01*
X108870D01*
X108345Y-103678D01*
X107937Y-104011D01*
X107645Y-104411D01*
X107412Y-105078D01*
X107354Y-105678D01*
X107470Y-106278D01*
X107645Y-106678D01*
X107995Y-107078D01*
X108404Y-107345D01*
X108812Y-107478D01*
X109220D01*
X109629Y-107345D01*
X109979Y-107145D01*
X110270Y-106878D01*
G01X113612Y-107478D02*
X113145Y-107411D01*
X112737Y-107145D01*
X112387Y-106745D01*
X112154Y-106278D01*
X112037Y-105745D01*
Y-105211D01*
X112154Y-104678D01*
X112387Y-104211D01*
X112737Y-103811D01*
X113145Y-103545D01*
X113612Y-103478D01*
X114079Y-103545D01*
X114487Y-103811D01*
X114837Y-104211D01*
X115070Y-104678D01*
X115187Y-105211D01*
Y-105745D01*
X115070Y-106278D01*
X114837Y-106745D01*
X114487Y-107145D01*
X114079Y-107411D01*
X113612Y-107478D01*
G01X116895D02*
Y-103478D01*
X118412Y-106811D01*
X119929Y-103478D01*
Y-107478D01*
G01X122045D02*
Y-103478D01*
X123445D01*
X123912Y-103678D01*
X124262Y-104145D01*
X124379Y-104678D01*
X124262Y-105211D01*
X123970Y-105611D01*
X123445Y-105811D01*
X122045D01*
G01X126554Y-107478D02*
X128012Y-103478D01*
X129470Y-107478D01*
G01X128945Y-106078D02*
X127079D01*
G01X131470Y-107478D02*
Y-103478D01*
X134154Y-107478D01*
Y-103478D01*
G01X137612Y-107478D02*
Y-105678D01*
X136445Y-103478D01*
G01X138779D02*
X137612Y-105678D01*
G01X146045Y-107478D02*
Y-103478D01*
X147445D01*
X147912Y-103678D01*
X148262Y-104145D01*
X148379Y-104678D01*
X148262Y-105211D01*
X147970Y-105611D01*
X147445Y-105811D01*
X146045D01*
G01X150729Y-103478D02*
Y-106345D01*
X150962Y-106945D01*
X151429Y-107345D01*
X152012Y-107478D01*
X152595Y-107345D01*
X153062Y-106945D01*
X153295Y-106345D01*
Y-103478D01*
G01X157279Y-105345D02*
X157512Y-105145D01*
X157687Y-104811D01*
X157804Y-104345D01*
X157687Y-103945D01*
X157454Y-103678D01*
X157045Y-103478D01*
X155470D01*
Y-107478D01*
X157395D01*
X157804Y-107211D01*
X158037Y-106811D01*
X158154Y-106345D01*
X158037Y-105878D01*
X157687Y-105478D01*
X157279Y-105345D01*
X155470D01*
G01X160445Y-103478D02*
Y-107478D01*
X162779D01*
G01X165712Y-103478D02*
X167112D01*
G01X166412D02*
Y-107478D01*
G01X165712D02*
X167112D01*
G01X172495Y-103811D02*
X172145Y-103611D01*
X171737Y-103478D01*
X171270D01*
X170745Y-103678D01*
X170337Y-104011D01*
X170045Y-104411D01*
X169812Y-105078D01*
X169754Y-105678D01*
X169870Y-106278D01*
X170045Y-106678D01*
X170395Y-107078D01*
X170804Y-107345D01*
X171212Y-107478D01*
X171620D01*
X172029Y-107345D01*
X172379Y-107145D01*
X172670Y-106878D01*
G01X78270Y-75478D02*
Y-71478D01*
X80954Y-75478D01*
Y-71478D01*
G01X82954Y-75478D02*
X84412Y-71478D01*
X85870Y-75478D01*
G01X85345Y-74078D02*
X83479D01*
G01X87695Y-75478D02*
Y-71478D01*
X89212Y-74811D01*
X90729Y-71478D01*
Y-75478D01*
G01X95179D02*
X92845D01*
Y-71478D01*
X95179D01*
G01X94245Y-73411D02*
X92845D01*
G01X82502Y11600D02*
X85329D01*
G01X93367Y-106978D02*
X96657Y-100678D01*
G01X93367D02*
X96657Y-106978D01*
G01X128270Y-155478D02*
Y-151478D01*
X130954Y-155478D01*
Y-151478D01*
G01X133129D02*
Y-154345D01*
X133362Y-154945D01*
X133829Y-155345D01*
X134412Y-155478D01*
X134995Y-155345D01*
X135462Y-154945D01*
X135695Y-154345D01*
Y-151478D01*
G01X137695Y-155478D02*
Y-151478D01*
X139212Y-154811D01*
X140729Y-151478D01*
Y-155478D01*
G01X144479Y-153345D02*
X144712Y-153145D01*
X144887Y-152811D01*
X145004Y-152345D01*
X144887Y-151945D01*
X144654Y-151678D01*
X144245Y-151478D01*
X142670D01*
Y-155478D01*
X144595D01*
X145004Y-155211D01*
X145237Y-154811D01*
X145354Y-154345D01*
X145237Y-153878D01*
X144887Y-153478D01*
X144479Y-153345D01*
X142670D01*
G01X149979Y-155478D02*
X147645D01*
Y-151478D01*
X149979D01*
G01X149045Y-153411D02*
X147645D01*
G01X152445Y-155478D02*
Y-151478D01*
X153904D01*
X154370Y-151678D01*
X154662Y-151945D01*
X154779Y-152478D01*
X154662Y-153011D01*
X154312Y-153345D01*
X153904Y-153545D01*
X152445D01*
G01X153904D02*
X154779Y-155478D01*
G01X163212Y-162478D02*
Y-156178D01*
X162272Y-157438D01*
G01Y-162478D02*
X164152D01*
G01X169355D02*
X169512Y-161113D01*
X169747Y-159958D01*
X170060Y-158908D01*
X170452Y-157753D01*
X171079Y-156178D01*
X167945D01*
G01X175812D02*
X175185Y-156388D01*
X174715Y-156913D01*
X174402Y-157543D01*
X174167Y-158383D01*
X174089Y-159328D01*
X174167Y-160273D01*
X174402Y-161113D01*
X174715Y-161743D01*
X175185Y-162268D01*
X175812Y-162478D01*
X176439Y-162268D01*
X176909Y-161743D01*
X177222Y-161113D01*
X177457Y-160273D01*
X177535Y-159328D01*
X177457Y-158383D01*
X177222Y-157543D01*
X176909Y-156913D01*
X176439Y-156388D01*
X175812Y-156178D01*
G01X181094Y-160378D02*
X183130D01*
G01X189352Y-162478D02*
Y-156178D01*
X186454Y-160693D01*
X190370D01*
G01X192989Y-161533D02*
X193459Y-162058D01*
X194007Y-162373D01*
X194712Y-162478D01*
X195417Y-162268D01*
X195965Y-161848D01*
X196357Y-161113D01*
X196435Y-160273D01*
X196279Y-159433D01*
X195887Y-158908D01*
X195339Y-158488D01*
X194790Y-158383D01*
X194242Y-158488D01*
X193537Y-158908D01*
X193772Y-156178D01*
X195887D01*
G01X199524Y-159853D02*
X200072Y-159118D01*
X200542Y-158698D01*
X201169Y-158488D01*
X201717Y-158698D01*
X202109Y-159118D01*
X202422Y-159748D01*
X202500Y-160483D01*
X202422Y-161113D01*
X202109Y-161743D01*
X201639Y-162268D01*
X201090Y-162478D01*
X200464Y-162268D01*
X199915Y-161638D01*
X199602Y-160693D01*
X199524Y-159643D01*
X199680Y-158278D01*
X199915Y-157543D01*
X200307Y-156808D01*
X200855Y-156283D01*
X201404Y-156178D01*
X201952Y-156388D01*
X202344Y-156913D01*
G01X205980Y-161743D02*
X206529Y-162268D01*
X207155Y-162478D01*
X207782Y-162268D01*
X208330Y-161638D01*
X208722Y-160693D01*
X208879Y-159748D01*
Y-158593D01*
X208722Y-157648D01*
X208330Y-156808D01*
X207860Y-156388D01*
X207312Y-156178D01*
X206685Y-156388D01*
X206215Y-156808D01*
X205902Y-157438D01*
X205745Y-158278D01*
X205902Y-159013D01*
X206294Y-159748D01*
X206764Y-160168D01*
X207312Y-160273D01*
X207939Y-160063D01*
X208409Y-159538D01*
X208879Y-158593D01*
G01X212280Y-161743D02*
X212829Y-162268D01*
X213455Y-162478D01*
X214082Y-162268D01*
X214630Y-161638D01*
X215022Y-160693D01*
X215179Y-159748D01*
Y-158593D01*
X215022Y-157648D01*
X214630Y-156808D01*
X214160Y-156388D01*
X213612Y-156178D01*
X212985Y-156388D01*
X212515Y-156808D01*
X212202Y-157438D01*
X212045Y-158278D01*
X212202Y-159013D01*
X212594Y-159748D01*
X213064Y-160168D01*
X213612Y-160273D01*
X214239Y-160063D01*
X214709Y-159538D01*
X215179Y-158593D01*
G01X256145Y-162478D02*
Y-156178D01*
X258104D01*
X258730Y-156493D01*
X259122Y-156913D01*
X259279Y-157753D01*
X259122Y-158593D01*
X258652Y-159118D01*
X258104Y-159433D01*
X256145D01*
G01X258104D02*
X259279Y-162478D01*
G01X265579D02*
X262445D01*
Y-156178D01*
X265579D01*
G01X264325Y-159223D02*
X262445D01*
G01X268354Y-156178D02*
X270312Y-162478D01*
X272270Y-156178D01*
G01X280954Y-162478D02*
X282912Y-156178D01*
X284870Y-162478D01*
G01X284165Y-160273D02*
X281659D01*
G01X165212Y-89478D02*
X165760Y-89373D01*
X166387Y-89058D01*
X166779Y-88533D01*
X166935Y-87798D01*
X166779Y-87063D01*
X166309Y-86433D01*
X165604Y-86118D01*
X164820D01*
X164350Y-85908D01*
X163959Y-85383D01*
X163802Y-84648D01*
X164037Y-83913D01*
X164585Y-83388D01*
X165212Y-83178D01*
X165839Y-83388D01*
X166387Y-83913D01*
X166622Y-84648D01*
X166465Y-85383D01*
X166074Y-85908D01*
X165604Y-86118D01*
X164820D01*
X164115Y-86433D01*
X163645Y-87063D01*
X163489Y-87798D01*
X163645Y-88533D01*
X164037Y-89058D01*
X164664Y-89373D01*
X165212Y-89478D01*
G01X169475D02*
Y-83178D01*
X171512Y-88428D01*
X173549Y-83178D01*
Y-89478D01*
G01X176010D02*
Y-83178D01*
X179614Y-89478D01*
Y-83178D01*
G01X182154Y-89478D02*
X184112Y-83178D01*
X186070Y-89478D01*
G01X185365Y-87273D02*
X182859D01*
G01X188610Y-89478D02*
Y-83178D01*
X192214Y-89478D01*
Y-83178D01*
G01X196712Y-89478D02*
X196085Y-89373D01*
X195537Y-88953D01*
X195067Y-88323D01*
X194754Y-87588D01*
X194597Y-86748D01*
Y-85908D01*
X194754Y-85068D01*
X195067Y-84333D01*
X195537Y-83703D01*
X196085Y-83283D01*
X196712Y-83178D01*
X197339Y-83283D01*
X197887Y-83703D01*
X198357Y-84333D01*
X198670Y-85068D01*
X198827Y-85908D01*
Y-86748D01*
X198670Y-87588D01*
X198357Y-88323D01*
X197887Y-88953D01*
X197339Y-89373D01*
X196712Y-89478D01*
G01X201289D02*
Y-83178D01*
X202855D01*
X203482Y-83493D01*
X203952Y-83913D01*
X204344Y-84543D01*
X204657Y-85278D01*
X204735Y-86328D01*
X204657Y-87378D01*
X204344Y-88113D01*
X203952Y-88743D01*
X203482Y-89163D01*
X202855Y-89478D01*
X201289D01*
G01X210252D02*
Y-83178D01*
X207354Y-87693D01*
X211270D01*
G01X214594Y-87378D02*
X216630D01*
G01X223479Y-89478D02*
X220345D01*
Y-83178D01*
X223479D01*
G01X222225Y-86223D02*
X220345D01*
G01X226254Y-83178D02*
X228212Y-89478D01*
X230170Y-83178D01*
G01X232789Y-89478D02*
Y-83178D01*
G01X235765D02*
X232789Y-87063D01*
G01X236235Y-89478D02*
X234120Y-85278D01*
G54D48*
G01X61785Y184180D02*
X66085D01*
G01D02*
X70289D01*
G01D02*
X74585D01*
G01D02*
X78761D01*
G01D02*
X82918D01*
G01D02*
X87159D01*
G01D02*
X91460D01*
G01X114589Y177590D02*
X112700Y179479D01*
Y182300D01*
X110820Y184180D01*
X91460D01*
G01X122400Y188951D02*
Y189499D01*
X125127Y192226D01*
G54D39*
X179300Y25190D03*
Y36810D03*
G54D58*
G01X70835Y99242D02*
Y97274D01*
G01D02*
Y95588D01*
X70821Y95574D01*
G01D02*
Y95290D01*
X68867Y93336D01*
G54D49*
G01X26523Y36036D02*
X22726D01*
X22090Y35400D01*
X22054D01*
X21527Y34873D01*
X20466D01*
G01X65873Y99589D02*
X66496Y100212D01*
X71237D01*
X71805Y99644D01*
Y98273D01*
X72804Y97274D01*
G01X70122Y87036D02*
X69837Y87321D01*
Y92437D01*
X72705Y95305D01*
X74773D01*
G01X66898Y130738D02*
X65141D01*
X65033Y130846D01*
G01X66898Y132706D02*
X65784D01*
X65615Y132875D01*
X60760D01*
G01X61671Y133676D02*
X67897D01*
X68867Y132706D01*
G01Y130738D02*
X67870Y131735D01*
X65141D01*
X64780Y132096D01*
X59927D01*
G01X60768Y129768D02*
X68331D01*
X68867Y129232D01*
Y128770D01*
G01X76741Y105148D02*
X73773Y102180D01*
X66180D01*
X64400Y100400D01*
G01X68867Y111053D02*
X67868Y110054D01*
X65054D01*
G01X65700Y125831D02*
X67569D01*
X68568Y124832D01*
X68867D01*
G01X68457Y123834D02*
X66474D01*
G01X66898Y122864D02*
X66618Y123144D01*
X63243D01*
G01X76741Y138612D02*
X77711Y139582D01*
Y140983D01*
X76569Y142125D01*
G01X78709Y138612D02*
X79679Y139582D01*
Y143230D01*
X78519Y144390D01*
X78089D01*
X75714Y146765D01*
Y147573D01*
G01X54389Y179147D02*
X54013Y179523D01*
X53139D01*
X52839Y179223D01*
Y176842D01*
X51839Y175842D01*
Y168740D01*
X60455Y160124D01*
X72149D01*
X82745Y149528D01*
Y140679D01*
X82647Y140581D01*
G01X54289Y176996D02*
X54266D01*
X52739Y175469D01*
Y169113D01*
X60828Y161024D01*
X72522D01*
X83645Y149901D01*
Y139610D01*
X82647Y138612D01*
G01X84615Y140581D02*
X84704Y140670D01*
Y150664D01*
X72712Y162656D01*
X62323D01*
X56089Y168890D01*
Y178443D01*
X57074Y179428D01*
X58308D01*
X58589Y179147D01*
G01X65223Y112023D02*
X68324D01*
X68867Y112566D01*
Y113022D01*
G01X66446Y108114D02*
X67897D01*
X68867Y109084D01*
G01X73037Y108800D02*
Y108563D01*
X74484Y107116D01*
X74773D01*
G01X66300Y114020D02*
X67897D01*
X68867Y114990D01*
G01Y116958D02*
X67897Y117928D01*
X64200D01*
G01X73900Y111400D02*
Y111600D01*
X74773Y112473D01*
Y113022D01*
G01X63067Y121000D02*
X64591Y122524D01*
X65576D01*
X66206Y121894D01*
X67869D01*
X68867Y120896D01*
G01X73691Y126600D02*
X73900Y126391D01*
Y125705D01*
X74773Y124832D01*
G01X66050Y119550D02*
X66397Y119897D01*
X67475D01*
X68445Y118927D01*
X68867D01*
G01X66898Y120896D02*
X65204D01*
X65100Y121000D01*
G01X66898Y140581D02*
Y139984D01*
X67868Y139014D01*
Y137643D01*
X68867Y136644D01*
G01X71805Y141646D02*
Y140214D01*
X71834Y140185D01*
G01X73774Y140952D02*
Y139611D01*
X74773Y138612D01*
G01X67897Y135645D02*
X64640D01*
X63800Y136485D01*
Y138199D01*
X61904Y140095D01*
X60900D01*
G01X64751Y140200D02*
X66339Y138612D01*
X66898D01*
G01X65239Y137017D02*
X65612Y136644D01*
X66898D01*
G01X72804Y130044D02*
Y129439D01*
X73253Y128990D01*
G01X84615Y138612D02*
X85613Y139610D01*
Y141792D01*
X85604Y142218D01*
Y151037D01*
X73085Y163556D01*
X62696D01*
X56989Y169263D01*
Y175470D01*
X58491Y176972D01*
Y176998D01*
G01X62914Y177172D02*
X62672D01*
X61189Y175689D01*
Y169764D01*
X64756Y166197D01*
X73582D01*
X87553Y152226D01*
Y140278D01*
X87566Y140265D01*
Y139594D01*
X86583Y138612D01*
G01X88552D02*
X89522Y139582D01*
Y153338D01*
X73801Y169059D01*
X68179D01*
X66139Y171099D01*
Y175706D01*
X67589Y177156D01*
G01X90521Y138612D02*
X91519Y139610D01*
Y154828D01*
X74076Y172271D01*
X72286D01*
X70789Y173768D01*
Y175512D01*
X72489Y177212D01*
Y177260D01*
G01X62989Y179298D02*
X62597D01*
X60289Y176990D01*
Y169391D01*
X64383Y165297D01*
X73209D01*
X86653Y151853D01*
Y140651D01*
X86583Y140581D01*
G01X90521D02*
X90619Y140679D01*
Y154455D01*
X73703Y171371D01*
X71913D01*
X69889Y173395D01*
Y179024D01*
X70465Y179600D01*
X72101D01*
X72345Y179356D01*
G01X88552Y140581D02*
X88622Y140651D01*
Y152965D01*
X73428Y168159D01*
X67806D01*
X65239Y170726D01*
Y178555D01*
X66173Y179489D01*
X67356D01*
X67589Y179256D01*
G01X76789Y179370D02*
X75573D01*
X74139Y177936D01*
Y174189D01*
X92559Y155769D01*
Y140651D01*
X92489Y140581D01*
G01X79679Y88544D02*
Y90398D01*
X78709Y91368D01*
G01X80678D02*
X81654Y90392D01*
Y88595D01*
G01X82647Y91368D02*
X83617Y90398D01*
Y88716D01*
G01X76741Y91368D02*
X77711Y90398D01*
Y88664D01*
G01X91516Y88678D02*
Y90372D01*
X90521Y91368D01*
G01X88552D02*
X89522Y90398D01*
Y88661D01*
G01X87582Y88438D02*
Y90370D01*
X86583Y91368D01*
G01X85604Y88592D02*
Y90379D01*
X84615Y91368D01*
G01X82647Y95305D02*
X81036D01*
X80850Y95118D01*
G01X82647Y97274D02*
X80913D01*
X80837Y97350D01*
G01X84615Y97274D02*
X86488D01*
X86533Y97228D01*
G01X82647Y99242D02*
X81157D01*
X80877Y99522D01*
G01X84615Y99242D02*
X86394D01*
X86550Y99398D01*
G01X84615Y95305D02*
X86235D01*
X86482Y95058D01*
G01X76741Y97274D02*
X78456D01*
X78596Y97414D01*
G01X76741Y95305D02*
X78206D01*
X78359Y95152D01*
X78571D01*
G01X90521Y97274D02*
X88750D01*
X88735Y97258D01*
G01X90521Y95305D02*
X88950D01*
X88732Y95087D01*
G01X75087Y108787D02*
X76741Y107133D01*
Y107116D01*
G01X76576Y118716D02*
X76548Y118688D01*
Y117151D01*
X76741Y116958D01*
G01X74773Y122864D02*
Y121100D01*
G01Y116958D02*
Y118534D01*
X74566Y118741D01*
G01X76741Y113022D02*
Y111941D01*
X76100Y111300D01*
G01X84615Y130738D02*
X86161D01*
X86435Y130465D01*
G01X84615Y132706D02*
X86464D01*
X86493Y132736D01*
G01X80678Y138612D02*
X81677Y139611D01*
Y144183D01*
X81310Y144550D01*
G01X76741Y132706D02*
X78649D01*
X78689Y132746D01*
G01X82647Y134675D02*
X82407Y134915D01*
X80841D01*
G01X82647Y132706D02*
X80994D01*
X80947Y132753D01*
G01X76741Y134675D02*
X78323D01*
X78561Y134913D01*
G01X90521Y130738D02*
X88947D01*
X88683Y130474D01*
G01X82647Y130738D02*
X80968D01*
X80768Y130538D01*
G01X84615Y134675D02*
X85998D01*
X86367Y135044D01*
G01X90521Y132706D02*
X88820D01*
X88728Y132798D01*
G01X90521Y134675D02*
X88942D01*
X88575Y135042D01*
G01X76741Y130738D02*
Y130142D01*
X75589Y128990D01*
G01X76697Y177227D02*
X76620D01*
X75039Y175646D01*
Y174562D01*
X93459Y156142D01*
Y139582D01*
X92489Y138612D01*
G01X94457Y140581D02*
X94527Y140651D01*
Y158005D01*
X79339Y173193D01*
Y178181D01*
X80480Y179322D01*
X81789D01*
G01X86889Y179355D02*
X85728D01*
X84439Y178066D01*
Y171968D01*
X96496Y159911D01*
Y140651D01*
X96426Y140581D01*
G01X86889Y177255D02*
X86835D01*
X85339Y175759D01*
Y172341D01*
X92339Y165340D01*
X97396Y160284D01*
Y139582D01*
X96426Y138612D01*
G01X94457D02*
X95427Y139582D01*
Y158378D01*
X80239Y173566D01*
Y175672D01*
X81789Y177222D01*
G01X98395Y138612D02*
X99365Y139582D01*
Y162013D01*
X90039Y171339D01*
Y175607D01*
X91689Y177257D01*
G01X98395Y140581D02*
X98465Y140651D01*
Y161640D01*
X89139Y170966D01*
Y177993D01*
X90501Y179355D01*
X91589D01*
G01X103309Y88681D02*
Y90390D01*
X102331Y91368D01*
G01X92489D02*
X93475Y90382D01*
Y88610D01*
G01X94457Y91368D02*
X95456Y90370D01*
Y88578D01*
G01X99365Y88784D02*
Y90398D01*
X98395Y91368D01*
G01X101361Y88647D02*
Y90370D01*
X100363Y91368D01*
G01X96426D02*
X97397Y90397D01*
Y88561D01*
G01X109221Y88733D02*
Y90384D01*
X108237Y91368D01*
G01X106269D02*
X107244Y90392D01*
Y88664D01*
G01X105285Y88802D02*
Y90383D01*
X104300Y91368D01*
G01X102331Y101210D02*
X102222Y101319D01*
Y103058D01*
G01X108237Y99242D02*
Y100970D01*
X108086Y101121D01*
G01X102331Y95305D02*
X103904D01*
X104057Y95152D01*
X104320D01*
G01X100363Y95305D02*
X98753D01*
X98536Y95088D01*
G01X100363Y97274D02*
X98592D01*
X98528Y97338D01*
G01X102331Y97274D02*
X104201D01*
X104269Y97342D01*
G01X108237Y97274D02*
X107325D01*
X106604Y97995D01*
G01X102331Y99242D02*
X104032D01*
X104302Y99512D01*
G01X108237Y95305D02*
X107008D01*
X106520Y95793D01*
G01X94457Y97274D02*
X96218D01*
X96288Y97204D01*
G01X94457Y99242D02*
X96078D01*
X96208Y99372D01*
G01X94457Y95305D02*
X96029D01*
X96301Y95033D01*
X96323D01*
G01X100363Y99242D02*
X99008D01*
X98565Y99685D01*
G01X108237Y116958D02*
Y118747D01*
G01Y113022D02*
Y111508D01*
X107964Y111235D01*
G01X102331Y134675D02*
X103936D01*
X104172Y134911D01*
X104209D01*
G01X106423Y134675D02*
X108237D01*
G01X100363Y130738D02*
X98758D01*
X98559Y130539D01*
G01X108237Y138612D02*
Y138938D01*
X109209Y139910D01*
Y143009D01*
X110200Y144000D01*
Y147573D01*
G01X107239Y142100D02*
Y139839D01*
G01X108237Y140581D02*
X108347Y140691D01*
Y142201D01*
G01Y142208D02*
Y143447D01*
X109300Y144400D01*
Y144900D01*
G01X105292Y141487D02*
Y139604D01*
X104300Y138612D01*
G01X102331Y132706D02*
X104227D01*
X104259Y132738D01*
G01X108237Y132706D02*
X107767Y132236D01*
X106478D01*
G01X92489Y132706D02*
Y134562D01*
G01X94457Y132706D02*
X96302D01*
X96358Y132762D01*
G01X103301Y141762D02*
Y139802D01*
G01X102331Y130738D02*
X104128D01*
X104300Y130566D01*
G01X94457Y130738D02*
X96229D01*
X96376Y130591D01*
G01X100363Y140581D02*
X100461Y140679D01*
Y164018D01*
X94039Y170440D01*
Y178022D01*
X95378Y179361D01*
X96489D01*
G01X100363Y138612D02*
X101361Y139610D01*
Y164392D01*
X94939Y170814D01*
Y175663D01*
X96489Y177213D01*
Y177261D01*
G01X100363Y132706D02*
X98543D01*
X98528Y132722D01*
G01X100363Y134675D02*
X98783D01*
X98567Y134892D01*
G01X110205Y91368D02*
X111180Y90394D01*
Y88544D01*
G01X112174Y89399D02*
X112130Y89355D01*
Y82755D01*
G01X120938Y89586D02*
X120139Y90385D01*
X117094D01*
X116111Y91368D01*
G01X115658Y88374D02*
X115141Y88891D01*
Y90370D01*
X114143Y91368D01*
G01X116111Y93336D02*
X117092Y92355D01*
X120388D01*
X120771Y91972D01*
G01X115570Y86124D02*
X114662D01*
X113169Y87617D01*
Y90373D01*
X112174Y91368D01*
G01X124509Y90496D02*
X120905D01*
X120033Y91368D01*
X118080D01*
G01X112174Y97274D02*
Y95422D01*
X112154Y95402D01*
G01X119412Y104149D02*
X117110D01*
X116111Y105148D01*
G01X118080Y93336D02*
X120833D01*
X121853Y92316D01*
X124509D01*
G01Y99242D02*
X118080D01*
G01Y95305D02*
X122229D01*
X123390Y94144D01*
X124509D01*
G01X116111Y95305D02*
X117102Y94314D01*
X121133D01*
X122221Y93226D01*
X124509D01*
G01X116111Y97274D02*
X117110Y96275D01*
X120667D01*
G01X119481Y98272D02*
X117081D01*
X116111Y99242D01*
G01X110205Y105148D02*
Y103332D01*
X110206Y103331D01*
G01X119687Y102209D02*
X117081D01*
X116111Y103179D01*
G01X118080Y97274D02*
X124509D01*
G01X112174Y105148D02*
Y103581D01*
X112303Y103452D01*
G01X112174Y107116D02*
Y108683D01*
X112469Y108978D01*
G01X124509Y103179D02*
X118080D01*
G01X110205Y107116D02*
Y108930D01*
X110293Y109018D01*
G01X116111Y101210D02*
X117081Y100240D01*
X119343D01*
G01X119687Y106118D02*
X117109D01*
X116111Y107116D01*
G01X110205Y95305D02*
Y96616D01*
X110289Y96700D01*
Y97050D01*
G01X124509Y109084D02*
X118080D01*
G01X124509Y105148D02*
X118080D01*
G01X119171Y108086D02*
X117109D01*
X116111Y109084D01*
G01X110205Y99242D02*
Y101006D01*
X110365Y101166D01*
G01X112174Y99242D02*
Y100972D01*
X112666Y101464D01*
G01X110205Y113022D02*
Y111236D01*
G01X116111Y113022D02*
X117081Y112052D01*
X124509D01*
G01X118080Y113022D02*
X124509D01*
G01Y111053D02*
X118080D01*
G01X116111D02*
X117110Y110054D01*
X119103D01*
G01X116111Y126801D02*
X117081Y127771D01*
X119014D01*
G01X116111Y124832D02*
X117110Y125831D01*
X118828D01*
G01X116111Y120896D02*
X117081Y119926D01*
X124509D01*
G01X116111Y122864D02*
X117109Y121866D01*
X124509D01*
G01X169697Y130448D02*
Y127821D01*
G01X112174Y116958D02*
Y118363D01*
X112597Y118786D01*
G01X110205Y116958D02*
Y118511D01*
X110424Y118730D01*
G01X110205Y114990D02*
X111990D01*
G01X112548Y121016D02*
X112142D01*
X111650Y121508D01*
Y122340D01*
X112174Y122864D01*
G01X110205D02*
X109800Y122459D01*
Y121653D01*
X110367Y121086D01*
G01X116111Y118927D02*
X117110Y117928D01*
X124509D01*
G01X116111Y116958D02*
X117109Y115960D01*
X124509D01*
G01X160645Y126826D02*
X162818D01*
X163791Y125853D01*
G01X118080Y116958D02*
X124509D01*
G01X163996Y129108D02*
X164790Y128314D01*
Y126823D01*
X165760Y125853D01*
G01X118080Y118927D02*
X124509D01*
G01X166748Y128538D02*
Y126833D01*
X167728Y125853D01*
G01X118080Y120896D02*
X124509D01*
G01X168717Y128708D02*
Y126833D01*
X169697Y125853D01*
G01X118080Y122864D02*
X124509D01*
G01X170667Y130780D02*
Y126851D01*
X171665Y125853D01*
G01X124509Y114990D02*
X118080D01*
G01X110205Y124832D02*
Y126481D01*
X110387Y126663D01*
G01X112174Y113022D02*
Y111599D01*
X112518Y111255D01*
G01X112174Y124832D02*
Y126201D01*
X112570Y126597D01*
G01X124509Y114020D02*
X117081D01*
X116111Y114990D01*
G01Y132706D02*
X117110Y133705D01*
X118559D01*
X118808Y133456D01*
G01X110205Y134675D02*
X110377Y134503D01*
X112031D01*
G01X116111Y128770D02*
X117109Y129768D01*
X119566D01*
G01X117750Y147573D02*
X117299Y147122D01*
Y141769D01*
X116111Y140581D01*
G01X114143Y138612D02*
X115141Y139610D01*
Y140983D01*
X116463Y142305D01*
Y147573D01*
G01X124509Y143500D02*
X123298D01*
X118410Y138612D01*
X118080D01*
G01X116111Y136644D02*
X117099Y137632D01*
X118473D01*
X123141Y142300D01*
X124509D01*
G01X110205Y140581D02*
X110472Y140848D01*
Y141502D01*
X110473Y142107D01*
X110602Y142236D01*
Y142405D01*
G01X110205Y138612D02*
Y139209D01*
X111175Y140179D01*
Y140674D01*
X111204Y140703D01*
Y141804D01*
G01X112174Y138612D02*
X113173Y139611D01*
Y140983D01*
X114643Y142453D01*
Y147573D01*
G01X112174Y132706D02*
X110213D01*
X110158Y132651D01*
G01X116111Y130738D02*
X117086Y131713D01*
X119034D01*
G01X112174Y130738D02*
Y129100D01*
X112488Y128785D01*
G01X116111Y134675D02*
X117081Y135645D01*
X118583D01*
X119307Y134921D01*
X121185D01*
X124509Y138245D01*
G01X120400Y136400D02*
X120100D01*
X119856Y136644D01*
X118080D01*
G01X157970Y107004D02*
X158104Y107138D01*
X164400D01*
X164790Y106748D01*
Y105476D01*
X165090Y105176D01*
X170673D01*
X171665Y106168D01*
G01X159848Y104093D02*
X160945Y105190D01*
X162800D01*
X163791Y104199D01*
G01X159848Y104093D02*
X160729Y103212D01*
X162804D01*
X163791Y104199D01*
G01X169697Y106168D02*
Y108232D01*
X168247Y109682D01*
X167048D01*
X166501Y109135D01*
X157970D01*
G01X159942Y124066D02*
X161122Y122886D01*
X162793D01*
X163791Y123884D01*
G01X159942Y124066D02*
X160747Y124871D01*
X162804D01*
X163791Y123884D01*
G01X159800Y115312D02*
X160100Y115012D01*
X167167D01*
X168137Y114042D01*
X169697D01*
G54D59*
G01X89621Y66618D02*
X88552Y67687D01*
Y89399D01*
M02*
