G04 ================== begin FILE IDENTIFICATION RECORD ==================*
G04 Layout Name:  C:/WORK/2019project/IMX815/FabOutput/Lay-45699_A.brd*
G04 Film Name:    L4_PWR_1.art*
G04 File Format:  Gerber RS274X*
G04 File Origin:  Cadence Allegro 17.2-S046*
G04 Origin Date:  Fri Mar 22 13:38:45 2019*
G04 *
G04 Layer:  MANUFACTURING/L5*
G04 Layer:  DRAWING FORMAT/FILM_TITLE_BLOCK*
G04 Layer:  BOARD GEOMETRY/OUTLINE*
G04 Layer:  ETCH/L4_PWR_1*
G04 Layer:  PIN/L4_PWR_1*
G04 Layer:  VIA CLASS/L4_PWR_1*
G04 *
G04 Offset:    (0.00 0.00)*
G04 Mirror:    No*
G04 Mode:      Positive*
G04 Rotation:  0*
G04 FullContactRelief:  No*
G04 UndefLineWidth:     8.00*
G04 ================== end FILE IDENTIFICATION RECORD ====================*
%FSLAX55Y55*MOIN*%
%IR0*IPPOS*OFA0.00000B0.00000*MIA0B0*SFA1.00000B1.00000*%
%ADD10C,.016*%
%ADD12C,.018*%
%ADD11C,.2*%
%ADD13C,.01*%
%ADD14C,.02*%
%ADD15C,.015*%
%ADD16C,.008*%
%ADD17C,.006*%
%ADD22C,.05104*%
%ADD20C,.02404*%
%ADD23C,.07004*%
%ADD18C,.02604*%
%ADD19C,.02804*%
%ADD21C,.08406*%
G75*
%LPD*%
G75*
G36*
G01X189996Y197989D02*
G02X197992Y189993I0J-7996D01*
G01Y97328D01*
G02X197296Y97059I-400J0D01*
G03X195426Y95248I-964J-875D01*
G02X195432Y94967I-139J-144D01*
G03X195445Y93160I944J-897D01*
G02X195444Y92881I-144J-139D01*
G03X197306Y91060I931J-910D01*
G02X197992Y90781I286J-280D01*
G01Y74098D01*
X198396Y73694D01*
Y41206D01*
X197992Y40802D01*
Y9993D01*
G02X189996Y1997I-7996J0D01*
G01X9996D01*
G02X2000Y9993I0J7996D01*
G01Y189993D01*
G02X9996Y197989I7996J0D01*
G01X189996D01*
G37*
%LPC*%
G75*
G36*
G01X108794Y191875D02*
G03X109198Y192263I4J400D01*
G02X111789Y192400I1301J-39D01*
G03X111962Y192228I198J26D01*
G02X112367I203J-1293D01*
G03X112538Y192399I-27J198D01*
G02X113676Y190926I1289J-180D01*
G03X113467Y190804I-24J-199D01*
G02X110862Y190809I-1302J132D01*
G03X110653Y190932I-185J-76D01*
G02X110486Y190923I-153J1293D01*
G03X110082Y190535I-4J-400D01*
G02X109757Y189712I-1301J38D01*
G03X109772Y189432I150J-132D01*
G02X107913Y189336I-883J-957D01*
G03X107898Y189616I-150J132D01*
G02X108794Y191875I883J957D01*
G37*
G36*
G01X173998Y27150D02*
Y34754D01*
X187201D01*
X188202Y33753D01*
Y27751D01*
X187601Y27150D01*
X173998D01*
G37*
G36*
G01X169785Y43463D02*
G03X169831Y44023I-261J303D01*
G02X171820Y43861I1074J901D01*
G03X171774Y43301I261J-303D01*
G02X169785Y43463I-1074J-901D01*
G37*
G36*
G01X182656Y43686D02*
G03X182676Y44196I-298J267D01*
G02X184833Y44113I1113J853D01*
G03X184813Y43603I298J-267D01*
G02X182656Y43686I-1113J-853D01*
G37*
G36*
G01X179259Y43815D02*
G03X179219Y44329I-325J233D01*
G02X181357Y44499I997J985D01*
G03X181397Y43985I325J-233D01*
G02X179259Y43815I-997J-985D01*
G37*
G36*
G01X194080Y84662D02*
G03X193801Y84686I-152J-131D01*
G02X193961Y86540I-827J1005D01*
G03X194240Y86516I152J131D01*
G02X194080Y84662I827J-1005D01*
G37*
G36*
G01X194632Y102447D02*
G03X194113Y102490I-285J-281D01*
G02X194276Y104458I-764J1054D01*
G03X194795Y104415I285J281D01*
G02X194632Y102447I764J-1054D01*
G37*
G36*
G01X53320Y177866D02*
G03X53343Y178371I-298J267D01*
G02X55358Y178277I1046J776D01*
G03X55335Y177772I298J-267D01*
G02X53320Y177866I-1046J-776D01*
G37*
G36*
G01X57521D02*
G03X57544Y178371I-298J267D01*
G02X59559Y178279I1045J776D01*
G03X59536Y177774I298J-267D01*
G02X57521Y177866I-1045J-776D01*
G37*
G36*
G01X99853Y177849D02*
G03X99869Y178365I-297J267D01*
G02X101855Y178302I1020J810D01*
G03X101839Y177786I297J-267D01*
G02X99853Y177849I-1020J-810D01*
G37*
G36*
G01X66658Y178066D02*
G03Y178346I-143J140D01*
G02X66287Y179256I931J910D01*
G02X68891I1302J0D01*
G02X68520Y178346I-1302J0D01*
G03Y178066I143J-140D01*
G02X68891Y177156I-931J-910D01*
G02X66287I-1302J0D01*
G02X66658Y178066I1302J0D01*
G37*
G36*
G01X62028Y178126D02*
G03X62038Y178409I-136J146D01*
G02X63875Y178344I951J889D01*
G03X63865Y178061I136J-146D01*
G02X62028Y178126I-951J-889D01*
G37*
G36*
G01X80858Y178132D02*
G03Y178412I-143J140D01*
G02X80487Y179322I931J910D01*
G02X83091I1302J0D01*
G02X82720Y178412I-1302J0D01*
G03Y178132I143J-140D01*
G02X83091Y177222I-931J-910D01*
G02X80487I-1302J0D01*
G02X80858Y178132I1302J0D01*
G37*
G36*
G01X85958Y178165D02*
G03Y178445I-143J140D01*
G02X85587Y179355I931J910D01*
G02X88191I1302J0D01*
G02X87820Y178445I-1302J0D01*
G03Y178165I143J-140D01*
G02X88191Y177255I-931J-910D01*
G02X85587I-1302J0D01*
G02X85958Y178165I1302J0D01*
G37*
G36*
G01X90716Y178122D02*
G03X90703Y178401I-150J133D01*
G02X92562Y178490I886J954D01*
G03X92575Y178211I150J-133D01*
G02X90716Y178122I-886J-954D01*
G37*
G36*
G01X104754Y178035D02*
G03X104711Y178311I-163J116D01*
G02X106550Y178600I778J1044D01*
G03X106593Y178324I163J-116D01*
G02X104754Y178035I-778J-1044D01*
G37*
G36*
G01X71498Y178105D02*
G03X71479Y178384I-152J130D01*
G02X73336Y178511I866J972D01*
G03X73355Y178232I152J-130D01*
G02X71498Y178105I-866J-972D01*
G37*
G36*
G01X109203Y178035D02*
G03X109212Y178545I-303J260D01*
G02X111217Y178506I1019J811D01*
G03X111208Y177996I303J-260D01*
G02X109203Y178035I-1019J-811D01*
G37*
G36*
G01X95558Y178171D02*
G03Y178451I-143J140D01*
G02X95187Y179361I931J910D01*
G02X97791I1302J0D01*
G02X97420Y178451I-1302J0D01*
G03Y178171I143J-140D01*
G02X97791Y177261I-931J-910D01*
G02X95187I-1302J0D01*
G02X95558Y178171I1302J0D01*
G37*
G36*
G01X75722Y178090D02*
G03X75744Y178594I-299J266D01*
G02X77764Y178507I1045J776D01*
G03X77742Y178003I299J-266D01*
G02X75722Y178090I-1045J-776D01*
G37*
G36*
G01X141923Y189456D02*
G03X142012Y189722I-91J178D01*
G02X143779Y189135I1170J570D01*
G03X143690Y188869I91J-178D01*
G02X142091Y187070I-1170J-570D01*
G03X141590Y186847I-132J-378D01*
G02X139888Y186148I-1201J503D01*
G03X139626Y186039I-77J-184D01*
G02X138921Y187732I-1206J491D01*
G03X139183Y187841I77J184D01*
G02X140818Y188579I1206J-491D01*
G03X141319Y188802I132J378D01*
G02X141923Y189456I1201J-503D01*
G37*
G36*
G01X128419Y190219D02*
G03X127897I-261J-302D01*
G02X127046Y189903I-850J986D01*
G02Y192507I0J1302D01*
G02X127897Y192191I1J-1302D01*
G03X128419I261J302D01*
G02X129270Y192507I850J-986D01*
G02Y189903I0J-1302D01*
G02X128419Y190219I-1J1302D01*
G37*
G36*
G01X78250Y191140D02*
G03X78377Y191389I-64J189D01*
G02X80483Y192750I1244J385D01*
G03X80987Y192729I265J300D01*
G02X82931Y192264I778J-1044D01*
G03X83415Y192062I358J178D01*
G02X82659Y190247I410J-1236D01*
G03X82175Y190449I-358J-178D01*
G02X80903Y190709I-410J1236D01*
G03X80399Y190730I-265J-300D01*
G02X80034Y190539I-779J1044D01*
G03X79907Y190290I64J-189D01*
G02X78250Y191140I-1244J-385D01*
G37*
G36*
G01X101280Y191892D02*
G03X101462Y192104I-18J199D01*
G02X102875Y190893I1299J86D01*
G03X102693Y190681I18J-199D01*
G02X101280Y191892I-1299J-86D01*
G37*
G36*
G01X63804Y190898D02*
G03X63820Y191415I-297J268D01*
G02X65806Y191354I1019J810D01*
G03X65790Y190837I297J-268D01*
G02X63804Y190898I-1019J-810D01*
G37*
G36*
G01X121688Y180162D02*
X128466D01*
G02X130512I1023J-804D01*
G01X162311D01*
X182626Y159847D01*
Y112418D01*
X182649Y112374D01*
G02X182800Y111766I-1151J-609D01*
G02X182649Y111158I-1302J1D01*
G01X182626Y111114D01*
Y88417D01*
X183561Y87482D01*
X183657Y87493D01*
G02X185102Y86049I152J-1293D01*
G01X185091Y85952D01*
X192065Y78979D01*
X192155Y78985D01*
G02X192248Y78988I92J-1399D01*
G02X193650Y77586I0J-1402D01*
G02X193647Y77493I-1402J-1D01*
G01X193641Y77403D01*
X194422Y76622D01*
X194300Y76500D01*
Y71927D01*
G03X194944Y71610I400J0D01*
G02X195800Y71902I856J-1109D01*
G02Y69098I0J-1402D01*
G02X194944Y69390I0J1401D01*
G03X194300Y69073I-244J-317D01*
G01Y57300D01*
X193247Y56247D01*
X169701D01*
X167900Y54446D01*
Y11600D01*
X160400Y4100D01*
X153000D01*
X152904Y4196D01*
X152706Y4000D01*
X9000D01*
Y59500D01*
X4700D01*
X3800Y60400D01*
Y76800D01*
X3000Y77600D01*
Y153207D01*
X6293Y156500D01*
X80211D01*
X86863Y149682D01*
X88986D01*
X104291Y164987D01*
X104282Y165081D01*
G02X104277Y165200I1297J114D01*
G02X105579Y166502I1302J0D01*
G02X105698Y166497I5J-1302D01*
G01X105792Y166488D01*
X112023Y172719D01*
Y178360D01*
X113825Y180162D01*
X119690D01*
G02X121688I999J-835D01*
G37*
G36*
G01X88081Y188961D02*
G02X87857Y191166I-792J1033D01*
G03X88421Y191435I174J360D01*
G02X90735Y190364I1268J-296D01*
G03X90773Y190087I161J-119D01*
G02X90808Y190059I-796J-1031D01*
G03X91330Y190069I255J308D01*
G02X91366Y188098I869J-970D01*
G03X90844Y188088I-255J-308D01*
G02X88712Y188741I-869J970D01*
G03X88081Y188961I-388J-97D01*
G37*
G36*
G01X96461Y190731D02*
G02X97592Y192330I-135J1295D01*
G03X98023Y192025I389J93D01*
G02X99259Y190036I135J-1295D01*
G03X99580Y189423I338J-213D01*
G02X99272Y186845I-56J-1301D01*
G03X98811Y186564I-77J-393D01*
G02X96368Y186408I-1250J365D01*
G03X95682Y186488I-366J-160D01*
G02X95834Y187792I-1041J782D01*
G03X96520Y187712I366J160D01*
G02X97813Y188206I1040J-783D01*
G03X98274Y188487I77J393D01*
G02X98423Y188816I1249J-367D01*
G03X98102Y189429I-338J213D01*
G02X96892Y190426I56J1301D01*
G03X96461Y190731I-389J-93D01*
G37*
G36*
G01X60651Y191427D02*
G02X62500Y191214I1029J798D01*
G03X62468Y190936I126J-155D01*
G02X60354Y189419I-1028J-799D01*
G03X59680Y189407I-333J-221D01*
G02X57676Y189145I-1108J683D01*
G03X57392Y189136I-138J-145D01*
G02X55321Y189350I-955J885D01*
G03X54652Y189375I-343J-206D01*
G02X52703Y191081I-1063J752D01*
G03X52716Y191360I-137J146D01*
G02X54575Y191271I973J865D01*
G03X54562Y190992I137J-146D01*
G02X54705Y190798I-972J-866D01*
G03X55374Y190773I343J206D01*
G02X57332Y190966I1063J-752D01*
G03X57616Y190975I138J145D01*
G02X59656Y190809I955J-885D01*
G03X60330Y190821I333J221D01*
G02X60619Y191149I1108J-685D01*
G03X60651Y191427I-126J155D01*
G37*
G36*
G01X70167Y191318D02*
G02X72025Y191307I934J907D01*
G03X72023Y191027I142J-141D01*
G02X72390Y190062I-934J-907D01*
G03X72695Y189655I400J-18D01*
G02X73394Y189218I-305J-1266D01*
G03X74080Y189340I309J254D01*
G02X74154Y189511I1229J-430D01*
G03X73912Y190080I-355J185D01*
G02X75434Y190728I367J1249D01*
G03X75676Y190159I355J-185D01*
G02X74304Y188082I-367J-1249D01*
G03X73618Y187960I-309J-254D01*
G02X71088Y188448I-1229J430D01*
G03X70783Y188855I-400J18D01*
G02X70165Y191038I306J1266D01*
G03X70167Y191318I-142J141D01*
G37*
G54D18*
X39724Y158690D03*
X32270Y159030D03*
X35300Y159407D03*
X43100Y159000D03*
X68010Y190125D03*
X102593Y187815D03*
X105622Y190078D03*
X138939Y191774D03*
X187094Y98679D03*
G54D19*
X195705Y52142D03*
X196147Y63953D03*
X195500Y81600D03*
%LPD*%
G75*
G36*
G01X6707Y155500D02*
X79789D01*
X86152Y148978D01*
Y137449D01*
X86142Y137418D01*
G03X86078Y137015I1238J-403D01*
G01Y137013D01*
G03X86142Y136610I1302J0D01*
G01X86152Y136579D01*
Y136337D01*
X86007Y136295D01*
G03X85065Y135044I360J-1251D01*
G03X85461Y134109I1302J0D01*
G02X85490Y133567I-279J-287D01*
G03X85191Y132737I1003J-830D01*
G01Y132736D01*
G03X85502Y131892I1301J0D01*
G02X85488Y131358I-305J-259D01*
G03X85133Y130465I946J-893D01*
G03X86016Y129232I1302J0D01*
G01X86152Y129186D01*
Y127979D01*
X86010Y127936D01*
G03X85087Y126690I380J-1246D01*
G03X85585Y125666I1302J0D01*
G02X85621Y125069I-247J-314D01*
G01X82700Y122148D01*
Y108952D01*
X86152Y105500D01*
Y104661D01*
X86010Y104617D01*
G03X85088Y103372I380J-1245D01*
G03X85859Y102183I1302J0D01*
G02X86085Y101723I-163J-365D01*
G03X86048Y101416I1265J-308D01*
G01Y101415D01*
G03X86138Y100940I1302J1D01*
G01X86152Y100904D01*
Y100645D01*
X86032Y100592D01*
G03X85248Y99398I517J-1194D01*
G03X85540Y98576I1303J0D01*
G02X85536Y98066I-310J-253D01*
G03X85231Y97229I997J-837D01*
G01Y97228D01*
G03X85511Y96422I1302J1D01*
G02X85499Y95912I-314J-248D01*
G03X85180Y95058I984J-854D01*
G03X86023Y93840I1301J0D01*
G01X86152Y93791D01*
Y93530D01*
X67967Y75181D01*
X67824Y75322D01*
G03X66905Y75702I-919J-922D01*
G01X66904D01*
G03X65885Y75211I0J-1303D01*
G02X65608Y75176I-156J125D01*
G03X64821Y75441I-787J-1037D01*
G01X64820D01*
G03X63612Y74625I0J-1302D01*
G01X63562Y74500D01*
X61696D01*
X61688Y74507D01*
X61491Y74500D01*
X61293D01*
X61285Y74492D01*
X61275D01*
X61140Y74347D01*
X61000Y74207D01*
Y74196D01*
X49573Y61890D01*
G02X49018Y61860I-293J272D01*
G03X48100Y62202I-918J-1061D01*
G03X47137Y61819I0J-1402D01*
G02X46863I-137J146D01*
G03X45900Y62202I-963J-1019D01*
G03X44500Y60878I0J-1402D01*
G02X44101Y60500I-399J22D01*
G01X38690D01*
G02X38290Y60888I0J400D01*
G03X35688I-1301J-38D01*
G02X35288Y60500I-400J12D01*
G01X34158D01*
G03X33264Y60855I-894J-948D01*
G03X32370Y60500I0J-1303D01*
G01X31902D01*
G02X31549Y61088I0J400D01*
G03X31702Y61700I-1149J612D01*
G03X30400Y63002I-1302J0D01*
G03X29507Y62647I0J-1301D01*
G02X28958I-274J291D01*
G03X28065Y63002I-893J-946D01*
G03X26763Y61700I0J-1302D01*
G03X26916Y61088I1302J0D01*
G02X26563Y60500I-353J-188D01*
G01X18125D01*
G03X16675I-725J-1200D01*
G01X15325D01*
G03X13875I-725J-1200D01*
G01X12825D01*
G03X11375I-725J-1200D01*
G01X5000D01*
X4600Y60900D01*
Y77700D01*
X4000Y78300D01*
Y139210D01*
G02X4584Y139565I400J0D01*
G03X5135Y139431I552J1068D01*
G01X5136D01*
G03Y141835I0J1202D01*
G01X5135D01*
G03X4584Y141701I1J-1202D01*
G02X4000Y142056I-184J355D01*
G01Y152793D01*
X6707Y155500D01*
G37*
G36*
G01X23602Y48100D02*
G03X22200Y49502I-1402J0D01*
G03X22077Y49497I-5J-1402D01*
G02X21654Y49798I-35J398D01*
G03X21388Y50318I-1263J-318D01*
G02X21409Y50597I153J129D01*
G03X21764Y51104I-858J979D01*
G02X22301Y51324I373J-145D01*
G03X22838Y51208I537J1185D01*
G01X22840D01*
G03X23172Y51251I0J1302D01*
G01X23197Y51258D01*
X25245D01*
X29835Y55848D01*
X49051D01*
X50100Y54800D01*
Y23000D01*
X54200Y18900D01*
X54891D01*
X54892Y18898D01*
X71691D01*
X71724Y18738D01*
G03X74276I1276J263D01*
G01X74309Y18898D01*
X76208D01*
X76209Y18900D01*
X77100D01*
X80900Y22700D01*
X81186D01*
X81210Y22527D01*
G03X83790I1290J172D01*
G01X83814Y22700D01*
X143300D01*
X154000Y33400D01*
Y47200D01*
X158200Y51400D01*
Y69400D01*
X163800Y75000D01*
Y98900D01*
X160383Y102317D01*
G02X160473Y102951I282J283D01*
G03X161150Y104093I-625J1142D01*
G03X159848Y105395I-1302J0D01*
G03X158706Y104718I0J-1302D01*
G02X158072Y104628I-351J192D01*
G01X155100Y107600D01*
Y120500D01*
X151500Y124100D01*
Y138817D01*
G02X151984Y139208I400J0D01*
G03X152259Y139179I273J1273D01*
G03Y141783I0J1302D01*
G03X151984Y141754I-2J-1302D01*
G02X151500Y142145I-84J391D01*
G01Y146700D01*
X144291Y153909D01*
G02X144576Y154592I283J283D01*
G01X144585D01*
G03X143283Y155894I0J1302D01*
G01Y155885D01*
G02X142600Y155600I-400J-2D01*
G01X142000Y156200D01*
X129470D01*
G03X127588I-941J-900D01*
G01X122000D01*
X118600Y152800D01*
X101900D01*
X95744Y146644D01*
Y142056D01*
X92158Y138471D01*
Y135829D01*
X92029Y135780D01*
G03Y133344I460J-1218D01*
G01X92158Y133295D01*
Y131857D01*
X92029Y131808D01*
G03X91187Y130590I460J-1218D01*
G03X91566Y129672I1301J0D01*
G02X91565Y129107I-284J-282D01*
G01X90726Y128268D01*
Y125874D01*
X90306Y125455D01*
X87872D01*
G02X87524Y126051I0J400D01*
G03X87691Y126689I-1135J638D01*
G01Y126690D01*
G03X87673Y126906I-1302J0D01*
G02X87953Y127356I394J67D01*
G03X88883Y128604I-372J1248D01*
G03X88867Y128810I-1302J2D01*
G02X89126Y129250I395J64D01*
G03X89985Y130474I-443J1224D01*
G03X89651Y131345I-1303J0D01*
G02X89662Y131891I298J267D01*
G03X90030Y132798I-934J907D01*
G03X89644Y133723I-1301J0D01*
G02X89609Y134250I282J283D01*
G03X89877Y135041I-1034J791D01*
G01Y135042D01*
G03X88937Y136293I-1302J0D01*
G02X88656Y136756I111J384D01*
G03X88682Y137014I-1276J259D01*
G03X87512Y138309I-1302J0D01*
G02X87152Y138707I40J398D01*
G01Y148682D01*
X89400D01*
X103652Y162934D01*
G02X104321Y162754I283J-283D01*
G03X105579Y161788I1258J336D01*
G03X106881Y163090I0J1302D01*
G01Y163091D01*
G03X106531Y163979I-1302J0D01*
G01X106505Y164006D01*
X106449Y164145D01*
X106505Y164284D01*
X106531Y164311D01*
G03X106881Y165199I-952J888D01*
G01Y165200D01*
G03X106729Y165811I-1302J0D01*
G01X106660Y165942D01*
X113023Y172305D01*
Y177946D01*
X114239Y179162D01*
X119388D01*
X119426Y179011D01*
G03X119716Y178462I1263J316D01*
G01X119740Y178435D01*
X119801Y178274D01*
X119702Y178183D01*
G03X119287Y177229I887J-953D01*
G03X119658Y176319I1302J0D01*
G02Y176039I-143J-140D01*
G03X119287Y175129I931J-910D01*
G03X121891I1302J0D01*
G03X121520Y176039I-1302J0D01*
G02Y176319I143J140D01*
G03X121891Y177229I-931J910D01*
G03X121562Y178094I-1302J0D01*
G01X121477Y178189D01*
X121545Y178345D01*
X121576Y178374D01*
G03X121952Y179011I-887J953D01*
G01X121990Y179162D01*
X128193D01*
X128233Y179015D01*
G03X128534Y178473I1256J343D01*
G02X128557Y177957I-294J-272D01*
G03X128287Y177163I1032J-794D01*
G03X128702Y176210I1302J0D01*
G01X128733Y176181D01*
X128801Y176025D01*
X128716Y175930D01*
G03X128387Y175065I973J-865D01*
G03X130991I1302J0D01*
G03X130576Y176019I-1302J1D01*
G01X130477Y176110D01*
X130538Y176271D01*
X130562Y176299D01*
G03X130891Y177163I-972J865D01*
G03X130544Y178047I-1302J-1D01*
G02X130521Y178563I294J272D01*
G03X130745Y179014I-1032J794D01*
G01X130785Y179162D01*
X161897D01*
X181626Y159433D01*
Y116356D01*
G02X181249Y115957I-400J0D01*
G03X180020Y114657I73J-1300D01*
G03X180707Y113510I1301J0D01*
G02X180748Y112830I-189J-353D01*
G03X180196Y111766I749J-1064D01*
G03X181365Y110470I1303J0D01*
G01X181438Y110463D01*
X181626Y110266D01*
Y88003D01*
X182712Y86917D01*
X182647Y86787D01*
G03X182507Y86200I1161J-587D01*
G03X183809Y84898I1302J0D01*
G03X184396Y85038I0J1301D01*
G01X184526Y85103D01*
X187815Y81814D01*
G02X187667Y81155I-283J-283D01*
G03X186740Y79873I475J-1319D01*
G02X186380Y79486I-400J11D01*
G03X185118Y78091I140J-1395D01*
G03X186520Y76689I1402J0D01*
G03X187922Y78054I0J1403D01*
G02X188282Y78441I400J-11D01*
G03X188339Y78448I-142J1395D01*
G02X188778Y78168I56J-396D01*
G03X190120Y77173I1342J408D01*
G01X190121D01*
G03X190499Y77225I0J1402D01*
G02X190972Y77006I109J-385D01*
G03X192248Y76184I1276J579D01*
G01X192250D01*
G03X193003Y76404I-1J1402D01*
G01X193139Y76490D01*
X193500Y76129D01*
Y58347D01*
X192400Y57247D01*
X185377D01*
G02X185018Y57823I0J400D01*
G03X185161Y58439I-1259J617D01*
G01Y58441D01*
G03X182357I-1402J0D01*
G01Y58439D01*
G03X182500Y57823I1402J1D01*
G02X182141Y57247I-359J-176D01*
G01X180259D01*
G02X179900Y57823I0J400D01*
G03X180043Y58439I-1259J617D01*
G01Y58441D01*
G03X177239I-1402J0D01*
G01Y58439D01*
G03X177382Y57823I1402J1D01*
G02X177023Y57247I-359J-176D01*
G01X169287D01*
X166970Y54930D01*
Y11870D01*
X160100Y5000D01*
X12692D01*
G02X12318Y5541I0J400D01*
G03X12402Y6000I-1218J460D01*
G03X11100Y7302I-1302J0D01*
G01X11098D01*
G03X10564Y7187I1J-1302D01*
G02X10000Y7551I-164J365D01*
G01Y17362D01*
G02X10688Y17639I400J-1D01*
G03X11697Y17210I1009J972D01*
G03Y20014I0J1402D01*
G03X10688Y19585I0J-1401D01*
G02X10000Y19862I-288J278D01*
G01Y59500D01*
X10698D01*
Y59300D01*
G03X11057Y58363I1402J0D01*
G01X11081Y58336D01*
X11135Y58200D01*
X11081Y58064D01*
X11057Y58037D01*
G03X10698Y57100I1043J-937D01*
G03X12100Y55698I1402J0D01*
G03X13111Y56129I0J1401D01*
G02X13689I289J-277D01*
G03X14700Y55698I1011J970D01*
G03X15750Y56171I0J1402D01*
G02X16350I300J-265D01*
G03X17400Y55698I1050J929D01*
G03X18802Y57100I0J1402D01*
G03X18443Y58037I-1402J0D01*
G01X18419Y58064D01*
X18365Y58200D01*
X18419Y58336D01*
X18443Y58363D01*
G03X18802Y59300I-1043J937D01*
G01Y59500D01*
X22896D01*
G02X23267Y58952I0J-400D01*
G03X23175Y58472I1210J-481D01*
G01Y58470D01*
G03X24477Y57168I1302J0D01*
G03X25694Y58008I0J1302D01*
G02X26351Y58149I374J-142D01*
G01X27474Y57026D01*
X24209Y53762D01*
X23197D01*
X23172Y53769D01*
G03X22840Y53812I-332J-1259D01*
G01X22838D01*
G03X21624Y52981I0J-1302D01*
G02X21087Y52761I-373J145D01*
G03X20550Y52877I-537J-1185D01*
G03X19248Y51575I0J-1302D01*
G03X19553Y50738I1301J0D01*
G02X19532Y50459I-153J-129D01*
G03X19089Y49481I858J-978D01*
G03X20391Y48179I1302J0D01*
G01X20418D01*
G02X20820Y47851I9J-400D01*
G03X21157Y47163I1380J249D01*
G01X21181Y47136D01*
X21235Y47000D01*
X21181Y46864D01*
X21157Y46837D01*
G03X20798Y45900I1043J-937D01*
G03X23602I1402J0D01*
G03X23243Y46837I-1402J0D01*
G01X23219Y46864D01*
X23165Y47000D01*
X23219Y47136D01*
X23243Y47163D01*
G03X23602Y48100I-1043J937D01*
G37*
G36*
G01X162700Y82566D02*
G02X162285Y82167I-400J1D01*
G03X162234Y82168I-53J-1401D01*
G03X161947Y82138I1J-1402D01*
G02X161495Y82377I-82J392D01*
G03X160200Y83242I-1295J-537D01*
G03Y80438I0J-1402D01*
G03X160487Y80468I-1J1402D01*
G02X160939Y80229I82J-392D01*
G03X162234Y79364I1295J537D01*
G03X162285Y79365I-2J1402D01*
G02X162700Y78966I15J-400D01*
G01Y75400D01*
X158422Y71122D01*
G02X157842Y71138I-282J283D01*
G03X156800Y71602I-1042J-938D01*
G03Y68798I0J-1402D01*
G02X157200Y68398I0J-400D01*
G01Y57701D01*
G02X156790Y57302I-400J1D01*
G01X156754D01*
G03Y54498I0J-1402D01*
G01X156790D01*
G02X157200Y54099I10J-400D01*
G01Y53748D01*
X156976D01*
X156952Y53754D01*
G03X156616Y53795I-337J-1361D01*
G01X156615D01*
G03X155213Y52393I0J-1402D01*
G03X155797Y51254I1403J0D01*
G02X155847Y50647I-233J-325D01*
G01X153000Y47800D01*
Y33900D01*
X142700Y23600D01*
X83441D01*
G03X81559I-941J-900D01*
G01X80200D01*
X76000Y19400D01*
X74246D01*
X74194Y19520D01*
G03X71806I-1194J-521D01*
G01X71754Y19400D01*
X55100D01*
X53304Y21196D01*
G02X53446Y21854I282J283D01*
G03X54291Y23073I-457J1219D01*
G03X52989Y24375I-1302J0D01*
G03X51770Y23530I0J-1302D01*
G02X51112Y23388I-375J140D01*
G01X50900Y23600D01*
Y26230D01*
G02X51582Y26514I400J0D01*
G03X52500Y26135I918J922D01*
G03Y28739I0J1302D01*
G03X51582Y28360I0J-1301D01*
G02X50900Y28644I-282J284D01*
G01Y49000D01*
X51000Y49100D01*
Y51500D01*
X52000Y52500D01*
X55002D01*
G03X56958I978J858D01*
G01X57991D01*
X58092Y52398D01*
X74408D01*
X74509Y52500D01*
X75450D01*
X88665Y65715D01*
X88805Y65603D01*
G03X89620Y65316I816J1015D01*
G01X89621D01*
G03X90923Y66618I0J1302D01*
G01Y66619D01*
G03X90636Y67434I-1302J-1D01*
G02X90651Y67701I156J125D01*
G01X113250Y90300D01*
Y92484D01*
G03X113470Y93031I-1067J747D01*
G02X113974Y93355I396J-61D01*
G03X114326Y93306I354J1253D01*
G03Y95910I0J1302D01*
G03X113823Y95809I0J-1303D01*
G02X113313Y95996I-154J369D01*
G03X113250Y96105I-1158J-596D01*
G01Y100300D01*
G03X113869Y100966I-584J1164D01*
G02X114109Y101082I185J-76D01*
G03X114468Y101031I361J1251D01*
G03Y103635I0J1302D01*
G03X114057Y103569I-2J-1302D01*
G02X113548Y103831I-127J379D01*
G03X113250Y104346I-1246J-377D01*
G01Y107936D01*
G03X113693Y108534I-781J1042D01*
G02X114144Y108790I376J-137D01*
G03X114386Y108767I244J1279D01*
G01X114389D01*
G03Y111371I0J1302D01*
G03X114203Y111358I-2J-1302D01*
G02X113763Y111636I-58J396D01*
G03X112518Y112557I-1245J-381D01*
G03X111625Y112203I0J-1303D01*
G02X111082Y112198I-274J291D01*
G03X110205Y112538I-877J-961D01*
G01X110204D01*
G03X109347Y112216I0J-1302D01*
G02X108821Y112215I-264J301D01*
G03X107964Y112537I-857J-979D01*
G03X106720Y111620I0J-1302D01*
G02X106265Y111345I-382J118D01*
G03X106027Y111367I-238J-1280D01*
G03X104758Y110355I0J-1302D01*
G01X104722Y110199D01*
X104361D01*
X104347Y110201D01*
G03X104163Y110214I-184J-1289D01*
G03X103979Y110201I0J-1302D01*
G01X103965Y110199D01*
X99898D01*
G02X99508Y110689I0J400D01*
G03X99542Y110984I-1268J296D01*
G03X98240Y112286I-1302J0D01*
G03X97707Y112172I0J-1303D01*
G01X97581Y112116D01*
X97050Y112647D01*
Y113680D01*
X95565Y115165D01*
X93789D01*
X93745Y115304D01*
G03X91263I-1241J-395D01*
G01X91219Y115165D01*
X90300D01*
X88818Y113682D01*
Y113592D01*
X88798Y113573D01*
Y106599D01*
X88300Y106100D01*
X86300D01*
X83700Y108700D01*
Y122200D01*
X86400Y124900D01*
X86755D01*
X87200Y124455D01*
X90720D01*
X91532Y125268D01*
Y127574D01*
X93158Y129200D01*
Y129473D01*
G03Y131707I-669J1117D01*
G01Y133445D01*
G03Y135679I-669J1117D01*
G01Y138057D01*
X96500Y141399D01*
Y146300D01*
X102300Y152100D01*
X119000D01*
X122200Y155300D01*
X127215D01*
X127239Y155127D01*
G03X129819I1290J172D01*
G01X129843Y155300D01*
X141800D01*
X150300Y146800D01*
Y123500D01*
X154200Y119600D01*
Y106600D01*
X162700Y98100D01*
Y97742D01*
X162395D01*
X162335Y97828D01*
G03X161267Y98386I-1068J-743D01*
G03Y95782I0J-1302D01*
G03X162057Y96049I0J1302D01*
G02X162700Y95732I243J-318D01*
G01Y82566D01*
G37*
G36*
G01X95151Y114165D02*
X96050Y113266D01*
Y112233D01*
X96975Y111308D01*
X96957Y111206D01*
G03X96938Y110985I1283J-222D01*
G01Y110984D01*
G03X98240Y109682I1302J0D01*
G01X98241D01*
G03X98462Y109701I-1J1302D01*
G01X98564Y109719D01*
X99084Y109199D01*
X102465D01*
G02X102864Y108826I0J-400D01*
G03X104163Y107610I1299J86D01*
G03X105400Y108506I0J1302D01*
G02X105838Y108777I380J-125D01*
G03X106027Y108763I190J1288D01*
G03X106404Y108819I-1J1302D01*
G02X106897Y108571I116J-383D01*
G03X108123Y107707I1226J438D01*
G03X108957Y108009I0J1303D01*
G02X109467Y108011I256J-307D01*
G03X110292Y107716I825J1007D01*
G01X110293D01*
G03X111107Y108002I0J1301D01*
G02X111618Y107992I249J-312D01*
G03X111800Y107861I849J987D01*
G01Y104659D01*
X111693Y104603D01*
G03X111340Y104329I610J-1151D01*
G02X111061Y104313I-148J135D01*
G03X110206Y104633I-855J-982D01*
G03X109349Y104311I0J-1301D01*
G02X108817Y104316I-263J301D01*
G03X107941Y104655I-876J-962D01*
G03X106639Y103353I0J-1302D01*
G03X107017Y102436I1301J0D01*
G02X107051Y101911I-284J-282D01*
G03X106784Y101121I1035J-790D01*
G03X108086Y99819I1302J0D01*
G01X108087D01*
G03X108977Y100171I0J1302D01*
G02X109512Y100182I274J-291D01*
G03X110365Y99864I853J985D01*
G01X110366D01*
G03X111157Y100132I0J1302D01*
G02X111800Y99815I243J-317D01*
G01Y98339D01*
G02X111139Y98036I-400J0D01*
G03X110289Y98352I-850J-985D01*
G03Y95748I0J-1302D01*
G03X110414Y95754I0J1302D01*
G02X110852Y95367I38J-398D01*
G03X111163Y94558I1302J36D01*
G02X111170Y94048I-305J-259D01*
G03X110882Y93232I1014J-817D01*
G03X111678Y92032I1303J0D01*
G01X111800Y91980D01*
Y90500D01*
X89121Y67821D01*
X89087Y67805D01*
X89086Y67804D01*
G03X88435Y67153I535J-1186D01*
G01X88434Y67152D01*
X88418Y67118D01*
X76178Y54878D01*
G02X75519Y55025I-283J283D01*
G03X74200Y55952I-1319J-475D01*
G03X72934Y55152I0J-1402D01*
G01X58918D01*
X56506Y57564D01*
G02X56694Y58235I283J283D01*
G03X57687Y59500I-309J1265D01*
G03X56385Y60802I-1302J0D01*
G01X56384D01*
G03X55564Y60511I0J-1302D01*
G02X55286Y60537I-126J156D01*
G03X54294Y60996I-992J-843D01*
G01X54293D01*
G03X52991Y59694I0J-1302D01*
G03X53209Y58973I1301J0D01*
G02X52876Y58352I-333J-221D01*
G01X49429D01*
Y60266D01*
X61718Y73500D01*
X63686D01*
G03X64820Y72837I1134J638D01*
G03X65839Y73328I0J1303D01*
G02X66116Y73363I156J-125D01*
G03X66903Y73098I787J1037D01*
G01X66904D01*
G03X68093Y73870I0J1302D01*
G01X68108Y73904D01*
X86222Y92180D01*
G02X86764Y92204I284J-282D01*
G03X87604Y91897I840J996D01*
G03X88906Y93199I0J1302D01*
G03X88889Y93411I-1302J2D01*
G02X89154Y93855I394J66D01*
G03X90034Y95087I-422J1232D01*
G03X89736Y95916I-1302J0D01*
G02X89737Y96426I308J254D01*
G03X90037Y97257I-1002J831D01*
G01Y97258D01*
G03X89733Y98094I-1302J0D01*
G02X89736Y98611I307J257D01*
G03X90051Y99460I-987J849D01*
G03X88963Y100744I-1302J0D01*
G02X88635Y101204I67J394D01*
G03X88652Y101416I-1285J210D01*
G03X88630Y101652I-1302J-2D01*
G02X88915Y102109I393J72D01*
G03X89862Y103362I-355J1253D01*
G03X89300Y104433I-1301J0D01*
G01Y113365D01*
X90100Y114165D01*
X91436D01*
G03X93572I1068J743D01*
G01X95151D01*
G37*
%LPC*%
G75*
G36*
G01X12069Y73377D02*
G02X14302Y74287I931J910D01*
G02X13931Y73377I-1302J0D01*
G03Y73097I143J-140D01*
G02X14165Y72769I-930J-911D01*
G03X14861Y72734I358J178D01*
G02X15049Y72967I1101J-696D01*
G03X15055Y73247I-140J143D01*
G02X14701Y74139I947J892D01*
G02X17305I1302J0D01*
G02X16916Y73211I-1301J0D01*
G03X16910Y72931I140J-143D01*
G02X17264Y72039I-947J-892D01*
G02X15962Y70737I-1302J0D01*
G02X14797Y71457I0J1303D01*
G03X14101Y71492I-358J-178D01*
G02X13000Y70885I-1101J695D01*
G02X11698Y72187I0J1302D01*
G02X12069Y73097I1302J0D01*
G03Y73377I-143J140D01*
G37*
G36*
G01X17489Y94028D02*
G03X17661Y94496I-207J342D01*
G02X17599Y94876I1140J381D01*
G01Y94878D01*
G02X20003I1202J0D01*
G02X19425Y93850I-1203J0D01*
G03X19253Y93382I207J-342D01*
G02X19315Y93002I-1140J-381D01*
G01Y93000D01*
G02X16911I-1202J0D01*
G02X17489Y94028I1203J0D01*
G37*
G36*
G01X21767Y127442D02*
G03X22032Y127917I-124J381D01*
G02X21998Y128200I1168J284D01*
G02X24402I1202J0D01*
G02X23574Y127058I-1202J0D01*
G03X23309Y126583I124J-381D01*
G02X23343Y126300I-1168J-284D01*
G02X22141Y125098I-1202J0D01*
G02X21316Y125426I0J1202D01*
G03X20818Y125467I-275J-291D01*
G02X20149Y125263I-670J998D01*
G01X20147D01*
G02Y127667I0J1202D01*
G02X20972Y127339I0J-1202D01*
G03X21470Y127298I275J291D01*
G02X21767Y127442I668J-999D01*
G37*
G36*
G01X25723Y100659D02*
G03X25127Y100635I-287J-278D01*
G02X24200Y100198I-927J765D01*
G02Y102602I0J1202D01*
G02X25064Y102236I0J-1203D01*
G03X25660Y102260I287J278D01*
G02X26587Y102697I927J-765D01*
G02Y100293I0J-1202D01*
G02X25723Y100659I0J1203D01*
G37*
G36*
G01X37260Y106933D02*
G02X36200Y108702I-1060J567D01*
G02X37165Y108217I0J-1203D01*
G03X37839Y108267I321J238D01*
G02X38899Y108902I1060J-567D01*
G02Y106498I0J-1202D01*
G02X37934Y106983I0J1203D01*
G03X37260Y106933I-321J-238D01*
G37*
G36*
G01X23337Y119501D02*
G03X23736Y119801I12J400D01*
G02X24900Y120702I1164J-301D01*
G02Y118298I0J-1202D01*
G02X24863Y118299I14J1202D01*
G03X24464Y117999I-12J-400D01*
G02X23300Y117098I-1164J301D01*
G02Y119502I0J1202D01*
G02X23337Y119501I-14J-1202D01*
G37*
G36*
G01X29156Y129651D02*
G03X28730Y129390I-50J-397D01*
G02X27600Y128598I-1130J410D01*
G02Y131002I0J1202D01*
G02X27751Y130992I-4J-1202D01*
G03X28177Y131253I50J397D01*
G02X29307Y132045I1130J-410D01*
G02Y129641I0J-1202D01*
G02X29156Y129651I4J1202D01*
G37*
G36*
G01X56051Y96164D02*
G03X55518Y96341I-356J-182D01*
G02X54902Y96198I-617J1259D01*
G01X54900D01*
G02Y99002I0J1402D01*
G02X56149Y98236I0J-1401D01*
G03X56682Y98059I356J182D01*
G02X57298Y98202I617J-1259D01*
G01X57300D01*
G02Y95398I0J-1402D01*
G02X56051Y96164I0J1401D01*
G37*
G36*
G01X56466Y108049D02*
G03X56961Y108315I113J384D01*
G02X58300Y109302I1339J-415D01*
G02X59090Y109058I0J-1401D01*
G03X59640Y109157I224J331D01*
G02X60700Y109702I1060J-758D01*
G02Y107098I0J-1302D01*
G02X60031Y107283I0J1302D01*
G03X59487Y107153I-206J-343D01*
G02X59339Y106958I-1187J747D01*
G03X59317Y106448I296J-268D01*
G02X59602Y105601I-1117J-847D01*
G01Y105600D01*
G02X58200Y104198I-1402J0D01*
G02X56845Y105239I0J1402D01*
G03X56374Y105527I-386J-103D01*
G02X56101Y105498I-273J1273D01*
G01X56100D01*
G02Y108102I0J1302D01*
G02X56466Y108049I-2J-1302D01*
G37*
G36*
G01X61934Y121971D02*
G03X62200I133J150D01*
G02X63067Y122302I867J-970D01*
G02X63948Y121959I0J-1303D01*
G03X64219I135J147D01*
G02X65100Y122302I881J-960D01*
G02Y119698I0J-1302D01*
G02X64219Y120041I0J1303D01*
G03X63948I-135J-147D01*
G02X63067Y119698I-881J960D01*
G02X62200Y120029I0J1301D01*
G03X61934I-133J-150D01*
G02X61067Y119698I-867J970D01*
G02X60204Y120025I0J1302D01*
G03X59925Y120011I-132J-150D01*
G02X58969Y119593I-956J884D01*
G02X58030Y119993I0J1302D01*
G01X57917Y120040D01*
X57804Y119994D01*
G02X56869Y119598I-935J906D01*
G02Y122202I0J1302D01*
G02X57808Y121802I0J-1302D01*
G01X57921Y121755D01*
X58034Y121801D01*
G02X58969Y122197I935J-906D01*
G02X59832Y121870I0J-1302D01*
G03X60111Y121884I132J150D01*
G02X61067Y122302I956J-884D01*
G02X61934Y121971I0J-1301D01*
G37*
G36*
G01X61969Y145440D02*
G02X63768Y148887I-2403J3447D01*
G01Y148884D01*
G02X63305Y146968I-4202J2D01*
G03X63717Y146389I356J-183D01*
G02X63900Y146402I184J-1289D01*
G02X64810Y146031I0J-1302D01*
G03X65374Y146036I279J286D01*
G02X66299Y146422I925J-915D01*
G02X67601Y145120I0J-1302D01*
G02X67252Y144233I-1302J0D01*
G03Y143688I293J-272D01*
G02X67602Y142800I-951J-888D01*
G02X64998I-1302J0D01*
G02X65347Y143687I1302J0D01*
G03Y144232I-293J273D01*
G02X65266Y144328I953J886D01*
G03X64946Y144325I-159J-122D01*
G02X63900Y143798I-1046J775D01*
G02X62598Y145100I0J1302D01*
G01Y145109D01*
G03X61969Y145440I-400J3D01*
G37*
G36*
G01X72836Y110649D02*
G02X73900Y112702I1064J751D01*
G01X73902D01*
G02X74787Y112354I-1J-1302D01*
G03X75304Y112330I273J292D01*
G02X76100Y112602I796J-1029D01*
G02X77101Y112132I0J-1301D01*
G03X77714Y112130I307J256D01*
G02X78709Y112592I995J-840D01*
G02X80011Y111290I0J-1302D01*
G02X79602Y110343I-1301J0D01*
G03X79582Y109781I274J-291D01*
G02X79926Y108899I-959J-882D01*
G02X77322I-1302J0D01*
G02X77731Y109846I1301J0D01*
G03X77751Y110408I-274J291D01*
G02X77708Y110458I965J874D01*
G03X77095Y110460I-307J-256D01*
G02X76443Y110044I-995J840D01*
G03X76205Y109454I106J-386D01*
G02X76389Y108787I-1117J-667D01*
G02X75087Y107485I-1302J0D01*
G02X74165Y107867I0J1304D01*
G01X74055Y107911D01*
X73945Y107868D01*
G02X73037Y107498I-909J932D01*
G02X72034Y107970I0J1302D01*
G03X71473Y108026I-309J-255D01*
G02X70652Y107734I-822J1010D01*
G02X69350Y109036I0J1302D01*
G02X69644Y109860I1302J0D01*
G03Y110366I-310J253D01*
G02X69350Y111190I1008J824D01*
G02X71954I1302J0D01*
G02X71660Y110366I-1302J0D01*
G03Y109860I310J-253D01*
G02X71763Y109715I-1007J-825D01*
G03X72081Y109683I171J104D01*
G02X72634Y110038I957J-883D01*
G03X72836Y110649I-124J380D01*
G37*
G36*
G01X69614Y119682D02*
G03X69616Y119955I-146J138D01*
G02X69272Y120836I958J882D01*
G02X70574Y122138I1302J0D01*
G01X70576D01*
G02X71290Y121924I-1J-1302D01*
G03X71559Y121969I110J167D01*
G02X72592Y122479I1033J-791D01*
G02X73461Y122146I-1J-1302D01*
G03X73974Y122128I267J298D01*
G02X74773Y122402I799J-1028D01*
G02X75652Y122061I0J-1303D01*
G03X75921I135J148D01*
G02X76800Y122402I879J-962D01*
G02X78102Y121100I0J-1302D01*
G01Y121098D01*
G02X78041Y120705I-1302J1D01*
G03X78461Y120186I381J-121D01*
G02X78589Y120192I125J-1296D01*
G02Y117588I0J-1302D01*
G02X77799Y117855I0J1302D01*
G03X77531Y117832I-121J-159D01*
G02X76576Y117414I-956J884D01*
G02X75666Y117784I-1J1303D01*
G01X75558Y117827D01*
X75451Y117786D01*
G02X74566Y117439I-885J955D01*
G02X73674Y117793I0J1301D01*
G03X73407Y117799I-137J-146D01*
G02X72563Y117488I-845J991D01*
G01X72562D01*
G02X71695Y117819I0J1301D01*
G03X71429I-133J-150D01*
G02X70562Y117488I-867J970D01*
G02X69260Y118790I0J1302D01*
G02X69614Y119682I1301J0D01*
G37*
G36*
G01X74147Y129937D02*
G03X74695I274J291D01*
G02X75589Y130292I894J-948D01*
G02X76891Y128990I0J-1302D01*
G02X76516Y128076I-1301J0D01*
G03X76571Y127757I143J-140D01*
G02X76662Y127707I-581J-1165D01*
G03X76929Y127765I102J172D01*
G02X77998Y128323I1069J-745D01*
G02X79186Y127554I0J-1302D01*
G03X79864Y127468I365J163D01*
G02X80881Y127957I1017J-813D01*
G02Y125353I0J-1302D01*
G02X79693Y126122I0J1302D01*
G03X79015Y126208I-365J-163D01*
G02X77998Y125719I-1017J813D01*
G02X77339Y125899I1J1302D01*
G03X77073Y125840I-101J-173D01*
G02X76004Y125282I-1069J745D01*
G02X75113Y125635I0J1301D01*
G03X74569Y125639I-274J-291D01*
G02X73691Y125298I-878J960D01*
G02X72668Y125795I0J1301D01*
G03X72083Y125842I-314J-248D01*
G02X71203Y125499I-881J959D01*
G02X69901Y126801I0J1302D01*
G02X70226Y127662I1303J0D01*
G03X70210Y127943I-150J132D01*
G02X69782Y128908I874J965D01*
G02X71084Y130210I1302J0D01*
G01X71085D01*
G02X71876Y129942I0J-1302D01*
G03X72385Y129961I243J317D01*
G02X73252Y130292I867J-971D01*
G01X73253D01*
G02X74147Y129937I0J-1303D01*
G37*
G36*
G01X69728Y135390D02*
G03X69715Y135914I-308J255D01*
G02X69375Y136791I962J877D01*
G01Y136792D01*
G02X70677Y138094I1302J0D01*
G02X71517Y137787I0J-1303D01*
G03X72042Y137795I258J305D01*
G02X72911Y138127I869J-971D01*
G02X74213Y136825I0J-1302D01*
G02X73823Y135896I-1301J0D01*
G03X73821Y135327I280J-285D01*
G02X74196Y134550I-919J-923D01*
G03X74607Y134195I397J45D01*
G02X74653Y134196I51J-1301D01*
G02Y131592I0J-1302D01*
G02X73359Y132748I0J1302D01*
G03X72948Y133103I-397J-45D01*
G02X72902Y133102I-51J1301D01*
G02X72000Y133465I0J1302D01*
G03X71490Y133502I-277J-288D01*
G02X70731Y133258I-759J1058D01*
G02X69429Y134560I0J1302D01*
G02X69728Y135390I1302J0D01*
G37*
G36*
G01X60838Y135196D02*
G02X61191Y136087I1302J0D01*
G03X61198Y136353I-146J137D01*
G02X60889Y137195I993J842D01*
G02X63493I1302J0D01*
G01Y137194D01*
G02X63140Y136303I-1302J0D01*
G03X63133Y136037I146J-137D01*
G02X63442Y135195I-993J-842D01*
G02X60838I-1302J0D01*
G01Y135196D01*
G37*
G36*
G01X69100Y142968D02*
G03X69070Y143532I-298J267D01*
G02X68638Y144500I870J969D01*
G02X71242I1302J0D01*
G01Y144499D01*
G02X70911Y143632I-1302J0D01*
G03X70941Y143068I298J-267D01*
G02X71373Y142100I-870J-969D01*
G02X68769I-1302J0D01*
G01Y142101D01*
G02X69100Y142968I1302J0D01*
G37*
G36*
G01X71079Y148454D02*
G03X71127Y148963I-282J283D01*
G02X70898Y149700I1073J737D01*
G02X73502I1302J0D01*
G01Y149699D01*
G02X73120Y148778I-1302J0D01*
G03X73072Y148269I282J-283D01*
G02X73301Y147532I-1073J-737D01*
G02X70697I-1302J0D01*
G01Y147533D01*
G02X71079Y148454I1302J0D01*
G37*
G36*
G01X79705Y100717D02*
G02X80589Y102975I884J956D01*
G01X80590D01*
G03X80989Y103355I-1J400D01*
G02X82289Y104592I1300J-65D01*
G02Y101988I0J-1302D01*
G01X82288D01*
G03X81889Y101608I1J-400D01*
G02X81693Y100983I-1300J65D01*
G03X81761Y100478I340J-211D01*
G02X82179Y99522I-884J-956D01*
G02X81864Y98673I-1302J0D01*
G03X81855Y98162I303J-261D01*
G02X82139Y97350I-1019J-812D01*
G02X81825Y96502I-1302J0D01*
G03X81828Y95977I303J-261D01*
G02X82152Y95118I-977J-859D01*
G02X81289Y93892I-1302J0D01*
G03X81031Y93440I135J-376D01*
G02X81054Y93194I-1279J-244D01*
G02X78450I-1302J0D01*
G02X78474Y93445I1302J2D01*
G03X78197Y93905I-392J77D01*
G02X77269Y95152I374J1247D01*
G02X77608Y96028I1301J0D01*
G03X77614Y96560I-296J269D01*
G02X77294Y97414I982J855D01*
G02X78596Y98716I1302J0D01*
G02X79592Y98253I0J-1303D01*
G03X79890Y98244I153J129D01*
G02X79955Y98308I946J-895D01*
G03X79961Y98597I-135J147D01*
G02X79575Y99522I915J925D01*
G02X79773Y100212I1301J0D01*
G03X79705Y100717I-340J211D01*
G37*
G36*
G01X78162Y136152D02*
G03X78435Y136591I-123J381D01*
G02X78421Y136781I1288J190D01*
G02X81025I1302J0D01*
G02X81010Y136582I-1302J-2D01*
G03X81272Y136143I395J-62D01*
G02X82143Y134915I-430J-1228D01*
G02X81885Y134137I-1302J0D01*
G03X81910Y133629I321J-239D01*
G02X82249Y132753I-962J-876D01*
G01Y132752D01*
G02X81862Y131826I-1302J0D01*
G03X81820Y131306I281J-284D01*
G02X82070Y130540I-1052J-767D01*
G01Y130538D01*
G02X80768Y129236I-1302J0D01*
G02X79799Y129669I0J1301D01*
G03X79252Y129714I-297J-268D01*
G02X78442Y129431I-811J1019D01*
G01X78441D01*
G02X77139Y130733I0J1302D01*
G02X77595Y131723I1303J0D01*
G03X77628Y131991I-130J152D01*
G02X77387Y132746I1062J755D01*
G02X77639Y133516I1302J0D01*
G03X77609Y134025I-323J236D01*
G02X77259Y134913I951J888D01*
G02X78162Y136152I1302J0D01*
G37*
G36*
G01X181503Y78523D02*
G02X183802Y79600I897J1077D01*
G02X183142Y78410I-1403J0D01*
G03X183097Y77763I211J-340D01*
G02X183602Y76686I-896J-1077D01*
G02X180798I-1402J0D01*
G02X181458Y77876I1403J0D01*
G03X181503Y78523I-211J340D01*
G37*
G36*
G01X162959Y156503D02*
G03X162912Y157043I-316J245D01*
G02X162487Y158005I877J962D01*
G01Y158006D01*
G02X165091I1302J0D01*
G01Y158005D01*
G02X164819Y157209I-1302J0D01*
G03X164866Y156669I316J-245D01*
G02X165291Y155707I-877J-962D01*
G01Y155706D01*
G02X162687I-1302J0D01*
G01Y155707D01*
G02X162959Y156503I1302J0D01*
G37*
G36*
G01X166752Y117576D02*
G03X166787Y118084I-290J275D01*
G02X166542Y118844I1056J760D01*
G02X169146I1302J0D01*
G02X168788Y117947I-1303J0D01*
G03X168753Y117439I290J-275D01*
G02X168998Y116679I-1056J-760D01*
G02X166394I-1302J0D01*
G02X166752Y117576I1303J0D01*
G37*
G36*
G01X173287Y116639D02*
G03X172758I-265J-300D01*
G02X171897Y116314I-861J978D01*
G02Y118918I0J1302D01*
G02X172758Y118593I0J-1303D01*
G03X173287I265J300D01*
G02X174148Y118918I861J-978D01*
G02Y116314I0J-1302D01*
G02X173287Y116639I0J1303D01*
G37*
G36*
G01X176629Y110992D02*
G03X176066Y111008I-290J-276D01*
G02X175179Y110659I-887J953D01*
G02Y113263I0J1302D01*
G02X176121Y112859I-1J-1302D01*
G03X176684Y112843I290J276D01*
G02X177571Y113192I887J-953D01*
G02Y110588I0J-1302D01*
G02X176629Y110992I1J1302D01*
G37*
G36*
G01X178109Y99067D02*
G02X177138Y99502I0J1302D01*
G03X176855Y99518I-149J-133D01*
G02X175989Y99188I-866J971D01*
G02Y101792I0J1302D01*
G01X175990D01*
G02X176961Y101357I0J-1302D01*
G03X177244Y101341I149J133D01*
G02X178110Y101671I866J-971D01*
G02Y99067I0J-1302D01*
G01X178109D01*
G37*
G36*
G01X177688Y91589D02*
X177575Y91635D01*
X177462Y91588D01*
G02X176523Y91188I-939J902D01*
G02Y93792I0J1302D01*
G02X177458Y93396I0J-1302D01*
G01X177571Y93350D01*
X177684Y93397D01*
G02X178623Y93797I939J-902D01*
G02Y91193I0J-1302D01*
G02X177688Y91589I0J1302D01*
G37*
G36*
G01X172302Y90506D02*
G03X171713Y90629I-348J-196D01*
G02X170932Y90368I-782J1041D01*
G01X170930D01*
G02Y92972I0J1302D01*
G02X172064Y92309I0J-1301D01*
G03X172653Y92186I348J196D01*
G02X173434Y92447I782J-1041D01*
G01X173436D01*
G02Y89843I0J-1302D01*
G02X172302Y90506I0J1301D01*
G37*
G36*
G01X172918Y84413D02*
G03X173482I282J284D01*
G02X174400Y84792I918J-922D01*
G02X175224Y84498I0J-1302D01*
G03X175751Y84516I253J310D01*
G02X176641Y84868I890J-949D01*
G02Y82264I0J-1302D01*
G02X175817Y82558I0J1302D01*
G03X175290Y82540I-253J-310D01*
G02X174400Y82188I-890J949D01*
G02X173482Y82567I0J1301D01*
G03X172918I-282J-284D01*
G02X172000Y82188I-918J922D01*
G02Y84792I0J1302D01*
G02X172918Y84413I0J-1301D01*
G37*
G36*
G01X174310Y78432D02*
G02X175333Y77989I0J-1403D01*
G03X175607Y77973I145J137D01*
G02X176506Y78299I899J-1077D01*
G02X177375Y77997I0J-1401D01*
G03X177926Y78051I247J314D01*
G02X178990Y78540I1064J-913D01*
G02Y75736I0J-1402D01*
G02X178121Y76038I0J1401D01*
G03X177570Y75984I-247J-314D01*
G02X176506Y75495I-1064J913D01*
G02X175483Y75938I0J1403D01*
G03X175209Y75954I-145J-137D01*
G02X174310Y75628I-899J1077D01*
G02X173306Y76052I0J1401D01*
G03X172747Y76066I-287J-279D01*
G02X171793Y75691I-954J1026D01*
G02X170815Y76089I0J1401D01*
G03X170227Y76057I-279J-286D01*
G02X169146Y75548I-1081J893D01*
G02Y78352I0J1402D01*
G02X170124Y77954I0J-1401D01*
G03X170712Y77986I279J286D01*
G02X171793Y78495I1081J-893D01*
G02X172797Y78071I0J-1401D01*
G03X173356Y78057I287J279D01*
G02X174310Y78432I954J-1026D01*
G37*
G36*
G01X165530Y72607D02*
G03X165400Y73175I-332J223D01*
G02X164705Y74386I708J1211D01*
G02X167509I1402J0D01*
G02X167272Y73606I-1402J0D01*
G03X167402Y73038I332J-223D01*
G02X168097Y71827I-708J-1211D01*
G02X165293I-1402J0D01*
G02X165530Y72607I1402J0D01*
G37*
G36*
G01X163053Y39148D02*
G03X163058Y39710I-282J284D01*
G02X162692Y40615I936J905D01*
G02X165296I1302J0D01*
G02X164913Y39693I-1301J0D01*
G03X164908Y39131I282J-284D01*
G02X165274Y38226I-936J-905D01*
G02X162670I-1302J0D01*
G02X163053Y39148I1301J0D01*
G37*
G36*
G01X163045Y19079D02*
G03Y19640I-285J281D01*
G02X162670Y20554I926J914D01*
G02X165274I1302J0D01*
G02X164899Y19640I-1301J0D01*
G03Y19079I285J-281D01*
G02X165274Y18165I-926J-914D01*
G02X162670I-1302J0D01*
G02X163045Y19079I1301J0D01*
G37*
G36*
G01X150283Y157322D02*
G03X150589Y157724I-94J389D01*
G02X150588Y157767I1301J52D01*
G02X153192I1302J0D01*
G02X152198Y156502I-1302J0D01*
G03X151892Y156100I94J-389D01*
G02X151893Y156057I-1301J-52D01*
G02X149289I-1302J0D01*
G02X150283Y157322I1302J0D01*
G37*
G36*
G01X159945Y143637D02*
G03X159421Y143632I-259J-305D01*
G02X158558Y143305I-863J975D01*
G02Y145909I0J1302D01*
G02X159402Y145598I0J-1301D01*
G03X159926Y145603I259J305D01*
G02X160789Y145930I863J-975D01*
G02Y143326I0J-1302D01*
G02X159945Y143637I0J1301D01*
G37*
G36*
G01X158560Y123692D02*
X158662Y123815D01*
X158651Y123902D01*
G02X158640Y124066I1291J169D01*
G02X161244I1302J0D01*
G02X160182Y122786I-1302J0D01*
G01X160111Y122773D01*
X160009Y122650D01*
X160020Y122563D01*
G02X160031Y122399I-1291J-169D01*
G02X157427I-1302J0D01*
G02X158489Y123679I1302J0D01*
G01X158560Y123692D01*
G37*
G36*
G01X160091Y110652D02*
G02X159112Y111096I0J1301D01*
G03X158837Y111120I-150J-132D01*
G02X158027Y110837I-811J1019D01*
G01X158026D01*
G02Y113441I0J1302D01*
G02X159005Y112997I0J-1301D01*
G03X159280Y112973I150J132D01*
G02X160090Y113256I811J-1019D01*
G01X160091D01*
G02Y110652I0J-1302D01*
G37*
G36*
G01X159895Y39140D02*
G03X159894Y39702I-285J280D01*
G02X159516Y40619I923J917D01*
G02X162120I1302J0D01*
G02X161745Y39705I-1301J0D01*
G03X161746Y39143I285J-280D01*
G02X162124Y38226I-923J-917D01*
G02X159520I-1302J0D01*
G02X159895Y39140I1301J0D01*
G37*
G36*
G01Y19079D02*
G03Y19640I-285J281D01*
G02X159520Y20554I926J914D01*
G02X162124I1302J0D01*
G02X161749Y19640I-1301J0D01*
G03Y19079I285J-281D01*
G02X162124Y18165I-926J-914D01*
G02X159520I-1302J0D01*
G02X159895Y19079I1301J0D01*
G37*
G36*
G01X156636Y19149D02*
G03X156680Y19711I-261J303D01*
G02X156370Y20554I991J843D01*
G02X158974I1302J0D01*
G02X158520Y19566I-1302J0D01*
G03X158476Y19004I261J-303D01*
G02X158786Y18161I-991J-843D01*
G02X156182I-1302J0D01*
G02X156636Y19149I1302J0D01*
G37*
G36*
G01X153566Y19098D02*
G03X153577Y19659I-279J286D01*
G02X153221Y20554I947J895D01*
G02X155825I1302J0D01*
G02X155431Y19621I-1302J0D01*
G03X155420Y19060I279J-286D01*
G02X155776Y18165I-947J-895D01*
G02X153172I-1302J0D01*
G02X153566Y19098I1302J0D01*
G37*
G36*
G01X150474Y19107D02*
G03X150491Y19669I-276J290D01*
G02X150144Y20554I955J885D01*
G02X152748I1302J0D01*
G02X152345Y19612I-1302J0D01*
G03X152328Y19050I276J-290D01*
G02X152675Y18165I-955J-885D01*
G02X150071I-1302J0D01*
G02X150474Y19107I1302J0D01*
G37*
G36*
G01X147370Y19148D02*
G03X147420Y19700I-262J302D01*
G02X147134Y20514I1015J814D01*
G02X149738I1302J0D01*
G02X149290Y19531I-1302J0D01*
G03X149240Y18979I262J-302D01*
G02X149526Y18165I-1015J-814D01*
G02X146922I-1302J0D01*
G02X147370Y19148I1302J0D01*
G37*
G36*
G01X144275Y19193D02*
G03X144357Y19737I-246J315D01*
G02X144124Y20480I1069J743D01*
G01Y20481D01*
G02X146728I1302J0D01*
G02X146225Y19453I-1302J0D01*
G03X146143Y18909I246J-315D01*
G02X146376Y18166I-1069J-743D01*
G01Y18165D01*
G02X143772I-1302J0D01*
G02X144275Y19193I1302J0D01*
G37*
G36*
G01X138472Y161288D02*
G03X137962Y161535I-378J-131D01*
G02X137533Y161462I-430J1229D01*
G02Y164066I0J1302D01*
G02X138764Y163188I0J-1302D01*
G03X139274Y162941I378J131D01*
G02X139703Y163014I430J-1229D01*
G02Y160410I0J-1302D01*
G02X138472Y161288I0J1302D01*
G37*
G36*
G01X135145Y19245D02*
G03X135305Y19823I-175J360D01*
G02X135094Y20533I1091J711D01*
G02X137698I1302J0D01*
G02X136966Y19363I-1301J0D01*
G03X136806Y18785I175J-360D01*
G02X137017Y18075I-1091J-711D01*
G02X134413I-1302J0D01*
G02X135145Y19245I1301J0D01*
G37*
G36*
G01X141191Y19240D02*
G03X141306Y19780I-226J330D01*
G02X141114Y20460I1110J681D01*
G01Y20461D01*
G02X143718I1302J0D01*
G02X143150Y19386I-1301J0D01*
G03X143035Y18846I226J-330D01*
G02X143227Y18166I-1110J-681D01*
G01Y18165D01*
G02X140623I-1302J0D01*
G02X141191Y19240I1301J0D01*
G37*
G36*
G01X138109Y19284D02*
G03X138257Y19815I-205J343D01*
G02X138104Y20427I1149J612D01*
G01Y20428D01*
G02X140708I1302J0D01*
G02X140072Y19309I-1302J0D01*
G03X139924Y18778I205J-343D01*
G02X140077Y18166I-1149J-612D01*
G01Y18165D01*
G02X139761Y17315I-1301J0D01*
G03X139828Y16731I303J-261D01*
G02X140402Y15600I-827J-1131D01*
G02X137598I-1402J0D01*
G02X137988Y16570I1401J0D01*
G03X137952Y17156I-289J276D01*
G02X137473Y18165I823J1009D01*
G02X138109Y19284I1302J0D01*
G37*
G36*
G01X131285Y19214D02*
G03X131358Y19714I-270J295D01*
G02X131174Y20381I1118J667D01*
G01Y20382D01*
G02X133778I1302J0D01*
G02X133354Y19421I-1301J0D01*
G03X133281Y18921I270J-295D01*
G02X133465Y18254I-1118J-667D01*
G01Y18253D01*
G02X130861I-1302J0D01*
G02X131285Y19214I1301J0D01*
G37*
G36*
G01X124657Y166273D02*
G02X123539Y168242I-1118J667D01*
G02X124580Y167722I0J-1302D01*
G03X125243Y167757I320J240D01*
G02X126361Y168392I1118J-667D01*
G02Y165788I0J-1302D01*
G02X125320Y166308I0J1302D01*
G03X124657Y166273I-320J-240D01*
G37*
G36*
G01X124709Y19152D02*
G02X126520Y20350I509J1198D01*
G02X126360Y19725I-1301J0D01*
G03X126555Y19165I351J-192D01*
G02X127339Y18116I-509J-1198D01*
G03X127738Y18125I199J23D01*
G02X127801Y18443I1299J-92D01*
G03X127612Y18922I-379J127D01*
G02X126926Y20069I616J1147D01*
G02X129530I1302J0D01*
G02X129463Y19655I-1302J-2D01*
G03X129652Y19176I379J-127D01*
G02X130338Y18029I-616J-1147D01*
G02X129036Y16727I-1302J0D01*
G02X127905Y17384I0J1302D01*
G03X127203Y17369I-347J-199D01*
G02X126046Y16665I-1157J599D01*
G02X124744Y17967I0J1302D01*
G02X124904Y18592I1301J0D01*
G03X124709Y19152I-351J192D01*
G37*
G36*
G01X118701Y18723D02*
G03X118541Y19240I-362J171D01*
G02X117896Y20364I657J1124D01*
G02X120500I1302J0D01*
G02X120374Y19806I-1302J1D01*
G03X120534Y19289I362J-171D01*
G02X121179Y18165I-657J-1124D01*
G02X118575I-1302J0D01*
G02X118701Y18723I1302J-1D01*
G37*
G36*
G01X115575Y18770D02*
G03X115448Y19285I-354J186D01*
G02X114886Y20357I741J1072D01*
G02X117490I1302J0D01*
G02X117341Y19752I-1303J0D01*
G03X117468Y19237I354J-186D01*
G02X118030Y18165I-741J-1072D01*
G02X115426I-1302J0D01*
G02X115575Y18770I1303J0D01*
G37*
G36*
G01X121783Y18550D02*
G03X121591Y19021I-382J119D01*
G02X120906Y20167I616J1146D01*
G02X123510I1302J0D01*
G01Y20166D01*
G02X123452Y19782I-1302J0D01*
G03X123644Y19311I382J-119D01*
G02X124329Y18165I-616J-1146D01*
G02X121725I-1302J0D01*
G01Y18166D01*
G02X121783Y18550I1302J0D01*
G37*
G36*
G01X95179Y20837D02*
G03X95733I277J288D01*
G02X96705Y21229I972J-1010D01*
G01X96707D01*
G02X97679Y20837I0J-1402D01*
G03X98233I277J288D01*
G02X99205Y21229I972J-1010D01*
G01X99206D01*
G02X100608Y19827I0J-1402D01*
G01Y19826D01*
G02X100216Y18854I-1402J0D01*
G03Y18300I288J-277D01*
G02X100608Y17328I-1010J-972D01*
G01Y17327D01*
G02X99206Y15925I-1402J0D01*
G01X99205D01*
G02X98233Y16317I0J1402D01*
G03X97679I-277J-288D01*
G02X96707Y15925I-972J1010D01*
G01X96705D01*
G02X95733Y16317I0J1402D01*
G03X95179I-277J-288D01*
G02X94207Y15925I-972J1010D01*
G01X94206D01*
G02X92804Y17327I0J1402D01*
G01Y17328D01*
G02X93196Y18300I1402J0D01*
G03Y18854I-288J277D01*
G02X92804Y19826I1010J972D01*
G01Y19827D01*
G02X94206Y21229I1402J0D01*
G01X94207D01*
G02X95179Y20837I0J-1402D01*
G37*
G36*
G01X86854Y18434D02*
G03Y18966I-298J266D01*
G02X86498Y19900I1047J934D01*
G02X87900Y21302I1402J0D01*
G02X88795Y20979I0J-1401D01*
G03X89305I255J308D01*
G02X90200Y21302I895J-1078D01*
G02X91602Y19900I0J-1402D01*
G02X91246Y18966I-1403J0D01*
G03Y18434I298J-266D01*
G02X91602Y17500I-1047J-934D01*
G02X90200Y16098I-1402J0D01*
G02X89305Y16421I0J1401D01*
G03X88795I-255J-308D01*
G02X87900Y16098I-895J1078D01*
G02X86498Y17500I0J1402D01*
G02X86854Y18434I1403J0D01*
G37*
G36*
G01X44332Y22207D02*
G03X43738Y22172I-281J-285D01*
G02X42722Y21684I-1016J814D01*
G02Y24288I0J1302D01*
G02X43636Y23913I0J-1301D01*
G03X44230Y23948I281J285D01*
G02X45246Y24436I1016J-814D01*
G02Y21832I0J-1302D01*
G02X44332Y22207I0J1301D01*
G37*
G36*
G01X41633Y49777D02*
G02X43967I1167J-777D01*
G03X44633I333J222D01*
G02X45800Y50402I1167J-777D01*
G02X47202Y49000I0J-1402D01*
G02X46577Y47833I-1402J0D01*
G03Y47167I222J-333D01*
G02Y44833I-777J-1167D01*
G03Y44167I222J-333D01*
G02Y41833I-777J-1167D01*
G03Y41167I222J-333D01*
G02Y38833I-777J-1167D01*
G03Y38167I222J-333D01*
G02X47202Y37000I-777J-1167D01*
G02X45800Y35598I-1402J0D01*
G02X44633Y36223I0J1402D01*
G03X43967I-333J-222D01*
G02X41633I-1167J777D01*
G03X40967I-333J-222D01*
G02X38633I-1167J777D01*
G03X37967I-333J-222D01*
G02X35633I-1167J777D01*
G03X34967I-333J-222D01*
G02X33800Y35598I-1167J777D01*
G02X32398Y37000I0J1402D01*
G02X33023Y38167I1402J0D01*
G03Y38833I-222J333D01*
G02Y41167I777J1167D01*
G03Y41833I-222J333D01*
G02Y44167I777J1167D01*
G03Y44833I-222J333D01*
G02Y47167I777J1167D01*
G03Y47833I-222J333D01*
G02X32398Y49000I777J1167D01*
G02X33800Y50402I1402J0D01*
G02X34967Y49777I0J-1402D01*
G03X35633I333J222D01*
G02X37967I1167J-777D01*
G03X38633I333J222D01*
G02X40967I1167J-777D01*
G03X41633I333J222D01*
G37*
G36*
G01X36201Y25037D02*
G02X36536Y25909I1302J0D01*
G03X36520Y26193I-148J134D01*
G02X36080Y27169I862J976D01*
G02X38684I1302J0D01*
G02X38349Y26297I-1302J0D01*
G03X38365Y26013I148J-134D01*
G02X38529Y25839I-862J-976D01*
G03X39087Y25767I315J246D01*
G02X39878Y26035I791J-1033D01*
G02Y23431I0J-1302D01*
G02X38852Y23931I0J1303D01*
G03X38294Y24003I-315J-246D01*
G02X37503Y23735I-791J1033D01*
G02X36201Y25037I0J1302D01*
G37*
G36*
G01X26732Y24551D02*
G03X26261Y24769I-363J-167D01*
G02X25911Y24721I-350J1254D01*
G02Y27325I0J1302D01*
G02X27094Y26567I0J-1302D01*
G03X27565Y26349I363J167D01*
G02X27915Y26397I350J-1254D01*
G02Y23793I0J-1302D01*
G02X26732Y24551I0J1302D01*
G37*
G36*
G01X20823Y36744D02*
G02X23305Y37293I1180J549D01*
G02X22008Y35991I-1302J0D01*
G03X21646Y35422I1J-400D01*
G02X21768Y34873I-1180J-550D01*
G02X21349Y33916I-1302J0D01*
G03X21354Y33323I271J-294D01*
G02X21791Y32350I-865J-973D01*
G02X19187I-1302J0D01*
G02X19606Y33307I1302J0D01*
G03X19601Y33900I-271J294D01*
G02X19164Y34873I865J973D01*
G02X20461Y36175I1302J0D01*
G03X20823Y36744I-1J400D01*
G37*
G36*
G01X86454Y39834D02*
G03Y40366I-298J266D01*
G02X86098Y41300I1047J934D01*
G02X87500Y42702I1402J0D01*
G02X88395Y42379I0J-1401D01*
G03X88905I255J308D01*
G02X89800Y42702I895J-1078D01*
G02X91202Y41300I0J-1402D01*
G02X90846Y40366I-1403J0D01*
G03Y39834I298J-266D01*
G02X91202Y38900I-1047J-934D01*
G02X89800Y37498I-1402J0D01*
G02X88905Y37821I0J1401D01*
G03X88395I-255J-308D01*
G02X87500Y37498I-895J1078D01*
G02X86098Y38900I0J1402D01*
G02X86454Y39834I1403J0D01*
G37*
G36*
G01X93870Y39926D02*
G03Y40480I-288J277D01*
G02X93478Y41452I1010J972D01*
G01Y41453D01*
G02X96282I1402J0D01*
G01Y41452D01*
G02X95890Y40480I-1402J0D01*
G03Y39926I288J-277D01*
G02X96282Y38954I-1010J-972D01*
G01Y38953D01*
G02X93478I-1402J0D01*
G01Y38954D01*
G02X93870Y39926I1402J0D01*
G37*
G36*
G01X98870D02*
G03Y40480I-288J277D01*
G02X98478Y41452I1010J972D01*
G01Y41453D01*
G02X101282I1402J0D01*
G01Y41452D01*
G02X100890Y40480I-1402J0D01*
G03Y39926I288J-277D01*
G02X101282Y38954I-1010J-972D01*
G01Y38953D01*
G02X98478I-1402J0D01*
G01Y38954D01*
G02X98870Y39926I1402J0D01*
G37*
G36*
G01X104568D02*
G03Y40480I-288J277D01*
G02X104176Y41452I1010J972D01*
G01Y41453D01*
G02X106980I1402J0D01*
G01Y41452D01*
G02X106588Y40480I-1402J0D01*
G03Y39926I288J-277D01*
G02X106980Y38954I-1010J-972D01*
G01Y38953D01*
G02X104176I-1402J0D01*
G01Y38954D01*
G02X104568Y39926I1402J0D01*
G37*
G36*
G01X100851Y29668D02*
G02X102100Y27998I1249J-368D01*
G02X101216Y28344I0J1302D01*
G03X100558Y28150I-271J-294D01*
G02X99200Y27098I-1358J351D01*
G02Y29902I0J1402D01*
G02X100186Y29497I0J-1403D01*
G03X100851Y29668I281J284D01*
G37*
G36*
G01X97723Y57962D02*
G03X97699Y58573I-270J295D01*
G02X97198Y59600I802J1027D01*
G02X99802I1302J0D01*
G02X99377Y58638I-1301J0D01*
G03X99401Y58027I270J-295D01*
G02X99902Y57000I-802J-1027D01*
G02X97298I-1302J0D01*
G02X97723Y57962I1301J0D01*
G37*
G36*
G01X106473Y121144D02*
G03X106966Y121399I114J384D01*
G02X108198Y122281I1232J-419D01*
G02X108978Y122021I-1J-1302D01*
G03X109488Y122046I240J320D01*
G02X110367Y122388I879J-959D01*
G02X111233Y122058I0J-1301D01*
G03X111746Y122042I266J299D01*
G02X112548Y122318I802J-1027D01*
G02X113758Y121497I0J-1302D01*
G03X114209Y121253I372J148D01*
G02X114467Y121279I259J-1276D01*
G02Y118675I0J-1302D01*
G01X114464D01*
G02X114282Y118688I2J1302D01*
G03X113843Y118408I-56J-396D01*
G02X112597Y117484I-1246J378D01*
G02X111792Y117763I0J1301D01*
G03X111281Y117750I-248J-314D01*
G02X110424Y117428I-857J979D01*
G02X109580Y117739I0J1301D01*
G03X109066Y117743I-259J-305D01*
G02X108237Y117445I-829J1004D01*
G02X106987Y118381I0J1303D01*
G03X106486Y118651I-384J-112D01*
G02X106106Y118594I-381J1245D01*
G01X106104D01*
G02X104892Y119420I0J1302D01*
G03X104436Y119664I-372J-147D01*
G02X104161Y119635I-273J1273D01*
G02Y122239I0J1302D01*
G02X105373Y121413I0J-1302D01*
G03X105829Y121169I372J147D01*
G02X106104Y121198I273J-1273D01*
G02X106473Y121144I-2J-1302D01*
G37*
G36*
G01X107201Y127433D02*
G03X107171Y127966I-312J250D01*
G02X106787Y128889I918J923D01*
G01Y128890D01*
G02X108089Y130192I1302J0D01*
G02X108902Y129907I0J-1302D01*
G03X109419Y129923I249J313D01*
G02X110290Y130257I871J-969D01*
G02X111207Y129879I0J-1301D01*
G03X111724Y129839I282J284D01*
G02X112488Y130087I764J-1053D01*
G02X113695Y129273I0J-1302D01*
G03X114166Y129036I371J150D01*
G02X114493Y129078I328J-1260D01*
G02Y126474I0J-1302D01*
G02X114267Y126494I1J1302D01*
G03X113815Y126217I-69J-394D01*
G02X112570Y125295I-1245J380D01*
G02X111705Y125624I0J1302D01*
G03X111192Y125640I-266J-299D01*
G02X110387Y125361I-805J1022D01*
G02X109578Y125643I0J1301D01*
G03X109068Y125632I-248J-313D01*
G02X108218Y125316I-850J986D01*
G01X108217D01*
G02X106915Y126618I0J1302D01*
G01Y126619D01*
G02X107201Y127433I1302J0D01*
G37*
G36*
G01X95901Y136137D02*
G03X96140Y136593I-152J370D01*
G02X96109Y136875I1271J282D01*
G02X98713I1302J0D01*
G01Y136874D01*
G02X98684Y136601I-1302J0D01*
G03X98955Y136135I391J-85D01*
G02X99869Y134892I-388J-1243D01*
G02X99555Y134044I-1302J0D01*
G03X99546Y133534I303J-260D01*
G02X99830Y132722I-1019J-812D01*
G01Y132721D01*
G02X99539Y131901I-1302J0D01*
G03X99546Y131388I310J-252D01*
G02X99861Y130539I-987J-849D01*
G02X99019Y129321I-1302J0D01*
G03X98769Y128862I141J-374D01*
G02X98798Y128589I-1273J-273D01*
G01Y128588D01*
G02X97892Y127348I-1302J0D01*
G03X97621Y126895I122J-381D01*
G02X97642Y126663I-1281J-233D01*
G01Y126661D01*
G02X95038I-1302J0D01*
G02X95944Y127901I1302J0D01*
G03X96215Y128354I-122J381D01*
G02X96194Y128587I1281J233D01*
G01Y128589D01*
G02X96228Y128885I1302J0D01*
G03X95965Y129356I-389J91D01*
G02X95074Y130591I410J1235D01*
G02X95366Y131413I1303J0D01*
G03X95362Y131923I-310J253D01*
G02X95056Y132762I997J839D01*
G02X95369Y133609I1303J0D01*
G03X95378Y134119I-303J260D01*
G02X95093Y134932I1017J813D01*
G02X95901Y136137I1303J0D01*
G37*
G36*
G01X103721Y136118D02*
G03X103959Y136583I-151J370D01*
G02X103922Y136890I1265J308D01*
G01Y136892D01*
G02X106526I1302J0D01*
G02X106452Y136460I-1302J1D01*
G03X106734Y135939I378J-132D01*
G02X107725Y134675I-311J-1264D01*
G02X107352Y133763I-1301J0D01*
G03X107365Y133189I285J-281D01*
G02X107780Y132236I-887J-953D01*
G02X106478Y130934I-1302J0D01*
G02X106114Y130986I0J1302D01*
G03X105602Y130594I-112J-384D01*
G01Y130566D01*
G02X105177Y129604I-1301J0D01*
G03X105133Y129060I270J-296D01*
G02X105414Y128252I-1021J-808D01*
G02X102810I-1302J0D01*
G02X103235Y129214I1301J0D01*
G03X103279Y129758I-270J296D01*
G02X102998Y130566I1021J808D01*
G02X103282Y131378I1303J0D01*
G03X103272Y131888I-313J249D01*
G02X102957Y132736I987J849D01*
G01Y132738D01*
G02X103238Y133546I1302J0D01*
G03X103226Y134057I-313J248D01*
G02X102907Y134911I984J854D01*
G02X103721Y136118I1302J0D01*
G37*
G36*
G01X121772Y39096D02*
G03X121760Y39376I-149J134D01*
G02X121348Y40326I889J950D01*
G02X123952I1302J0D01*
G02X123618Y39456I-1302J1D01*
G03X123630Y39176I149J-134D01*
G02X124042Y38226I-889J-950D01*
G02X121438I-1302J0D01*
G02X121772Y39096I1302J-1D01*
G37*
G36*
G01X109568Y39926D02*
G03Y40480I-288J277D01*
G02X109176Y41452I1010J972D01*
G01Y41453D01*
G02X110578Y42855I1402J0D01*
G01X110579D01*
G02X111551Y42463I0J-1402D01*
G03X112105I277J288D01*
G02X113077Y42855I972J-1010D01*
G01X113078D01*
G02X114480Y41453I0J-1402D01*
G01Y41452D01*
G02X114088Y40480I-1402J0D01*
G03Y39926I288J-277D01*
G02X114480Y38954I-1010J-972D01*
G01Y38953D01*
G02X113078Y37551I-1402J0D01*
G01X113077D01*
G02X112105Y37943I0J1402D01*
G03X111551I-277J-288D01*
G02X110579Y37551I-972J1010D01*
G01X110578D01*
G02X109176Y38953I0J1402D01*
G01Y38954D01*
G02X109568Y39926I1402J0D01*
G37*
G36*
G01X117847Y39950D02*
G02X116727Y41917I-1120J665D01*
G02X117805Y41345I0J-1302D01*
G03X118480Y41365I331J224D01*
G02X119600Y42002I1120J-666D01*
G02X120902Y40700I0J-1302D01*
G02X120541Y39801I-1302J1D01*
G03X120572Y39219I289J-276D01*
G02X121032Y38226I-842J-993D01*
G02X118428I-1302J0D01*
G02X118789Y39125I1302J-1D01*
G03X118758Y39707I-289J276D01*
G02X118522Y39970I842J993D01*
G03X117847Y39950I-331J-224D01*
G37*
G36*
G01X111044Y135904D02*
G02X111986Y138105I942J899D01*
G02X112893Y137737I0J-1302D01*
G03X113429Y137718I279J287D01*
G02X114266Y138023I837J-996D01*
G02X115568Y136721I0J-1302D01*
G02X115262Y135882I-1303J0D01*
G03X115269Y135358I306J-258D01*
G02X115598Y134493I-973J-865D01*
G02X114296Y133191I-1302J0D01*
G02X113425Y133525I0J1303D01*
G03X112893Y133527I-267J-298D01*
G02X112031Y133201I-862J977D01*
G02X111894Y133208I-2J1302D01*
G03X111454Y132773I-42J-398D01*
G02X111460Y132651I-1296J-125D01*
G02X110158Y133953I-1302J0D01*
G02X110295Y133946I2J-1302D01*
G03X110735Y134381I42J398D01*
G02X110729Y134503I1296J125D01*
G02X111054Y135364I1303J0D01*
G03X111044Y135904I-300J265D01*
G37*
G36*
G01X124501Y138465D02*
G02X126802Y139300I999J835D01*
G02X125955Y138080I-1302J0D01*
G03X125788Y137449I140J-375D01*
G02X126091Y136614I-999J-835D01*
G01Y136612D01*
G02X125820Y135818I-1302J1D01*
G03X125843Y135302I316J-244D01*
G02X126191Y134416I-954J-886D01*
G02X123587I-1302J0D01*
G01Y134418D01*
G02X123858Y135212I1302J-1D01*
G03X123835Y135728I-316J244D01*
G02X123487Y136614I954J886D01*
G02X124334Y137834I1302J0D01*
G03X124501Y138465I-140J375D01*
G37*
G36*
G01X140997Y39140D02*
G03Y39701I-285J281D01*
G02X140622Y40615I926J914D01*
G02X143226I1302J0D01*
G02X142851Y39701I-1301J0D01*
G03Y39140I285J-281D01*
G02X143226Y38226I-926J-914D01*
G02X140622I-1302J0D01*
G02X140997Y39140I1301J0D01*
G37*
G36*
G01X126805Y41605D02*
G03X126830Y42194I-258J306D01*
G02X126448Y43115I919J921D01*
G02X129052I1302J0D01*
G02X128589Y42120I-1301J0D01*
G03X128564Y41531I258J-306D01*
G02X128946Y40610I-919J-921D01*
G02X128476Y39608I-1303J0D01*
G03X128452Y39324I128J-154D01*
G02X128766Y38476I-988J-848D01*
G02X126162I-1302J0D01*
G02X126632Y39478I1303J0D01*
G03X126656Y39762I-128J154D01*
G02X126342Y40610I988J848D01*
G02X126805Y41605I1301J0D01*
G37*
G36*
G01X129978Y40353D02*
G02X130893Y42582I915J927D01*
G02X131906Y42098I0J-1302D01*
G03X132515Y42082I311J251D01*
G02X133484Y42514I969J-871D01*
G02X134786Y41212I0J-1302D01*
G01Y41211D01*
G02X134395Y40281I-1302J0D01*
G03Y39710I279J-285D01*
G02X134786Y38780I-911J-930D01*
G01Y38779D01*
G02X132182I-1302J0D01*
G01Y38780D01*
G02X132573Y39710I1302J0D01*
G03Y40281I-279J285D01*
G02X132471Y40394I914J928D01*
G03X131862Y40410I-311J-251D01*
G02X131487Y40121I-969J870D01*
G03X131389Y39481I183J-355D01*
G02X131776Y38555I-915J-926D01*
G01Y38554D01*
G02X129172I-1302J0D01*
G02X129880Y39713I1303J0D01*
G03X129978Y40353I-183J355D01*
G37*
G36*
G01X139164Y44067D02*
G03X138795Y44436I-399J-30D01*
G02X137591Y45734I98J1298D01*
G02X138893Y47036I1302J0D01*
G02X140191Y45832I0J-1302D01*
G03X140560Y45463I399J30D01*
G02X141764Y44165I-98J-1298D01*
G02X140462Y42863I-1302J0D01*
G02X139164Y44067I0J1302D01*
G37*
G36*
G01X132036Y54663D02*
G03X131495Y54655I-266J-299D01*
G02X130600Y54298I-896J945D01*
G02Y56902I0J1302D01*
G02X131464Y56574I0J-1302D01*
G03X132005Y56582I266J299D01*
G02X132900Y56939I896J-945D01*
G02Y54335I0J-1302D01*
G02X132036Y54663I0J1302D01*
G37*
G36*
G01X132042Y69117D02*
G03X131763Y69143I-153J-129D01*
G02X130942Y68851I-822J1010D01*
G02Y71455I0J1302D01*
G02X131934Y70996I0J-1301D01*
G03X132213Y70970I153J129D01*
G02X133034Y71262I822J-1010D01*
G02X134328Y70105I0J-1302D01*
G03X134688Y69751I398J44D01*
G02X135867Y68455I-123J-1296D01*
G01Y68453D01*
G02X135803Y68051I-1302J1D01*
G03X136113Y67534I380J-123D01*
G02X137185Y66252I-231J-1282D01*
G02X134581I-1302J0D01*
G01Y66254D01*
G02X134645Y66656I1302J-1D01*
G03X134335Y67173I-380J123D01*
G02X133271Y68310I230J1282D01*
G03X132911Y68664I-398J-44D01*
G02X132042Y69117I123J1296D01*
G37*
G36*
G01X139987Y76662D02*
G03X139444Y76704I-294J-271D01*
G02X138635Y76422I-809J1019D01*
G02Y79026I0J1302D01*
G02X139592Y78606I-1J-1302D01*
G03X140135Y78564I294J271D01*
G02X140944Y78846I809J-1019D01*
G02Y76242I0J-1302D01*
G02X139987Y76662I1J1302D01*
G37*
G36*
G01X133772Y80401D02*
G03X133629Y80949I-345J203D01*
G02X132984Y82073I657J1124D01*
G02X135588I1302J0D01*
G01Y82071D01*
G02X135409Y81413I-1302J1D01*
G03X135552Y80865I345J-203D01*
G02X136197Y79741I-657J-1124D01*
G02X133593I-1302J0D01*
G01Y79743D01*
G02X133772Y80401I1302J-1D01*
G37*
G36*
G01X142422Y83131D02*
G03X141890Y83121I-260J-304D01*
G02X141005Y82774I-885J955D01*
G02Y85378I0J1302D01*
G02X141852Y85065I0J-1303D01*
G03X142384Y85075I260J304D01*
G02X143269Y85422I885J-955D01*
G02X144264Y84959I0J-1301D01*
G03X144852Y84934I306J258D01*
G02X145770Y85313I918J-923D01*
G01X145771D01*
G02Y82709I0J-1302D01*
G02X144776Y83172I0J1301D01*
G03X144188Y83197I-306J-258D01*
G02X143270Y82818I-918J923D01*
G01X143269D01*
G02X142422Y83131I0J1303D01*
G37*
G36*
G01X134400Y97253D02*
X134287Y97299D01*
X134173Y97251D01*
G02X133223Y96840I-949J891D01*
G02Y99444I0J1302D01*
G02X134157Y99049I0J-1302D01*
G01X134270Y99003D01*
X134384Y99051D01*
G02X135334Y99462I949J-891D01*
G02Y96858I0J-1302D01*
G02X134400Y97253I0J1302D01*
G37*
G36*
G01X144261Y105984D02*
G03X143764Y106178I-357J-180D01*
G02X143310Y106096I-455J1220D01*
G01X143308D01*
G02Y108700I0J1302D01*
G02X144470Y107985I0J-1302D01*
G03X144967Y107791I357J180D01*
G02X145421Y107873I455J-1220D01*
G01X145423D01*
G02Y105269I0J-1302D01*
G02X144261Y105984I0J1302D01*
G37*
G36*
G01X140089Y130454D02*
X139899Y130367D01*
X139871Y130335D01*
G02X138889Y129888I-982J855D01*
G02Y132492I0J1302D01*
G02X139786Y132133I-1J-1302D01*
G03X140327Y132124I275J290D01*
G02X141189Y132450I862J-977D01*
G02X142491Y131148I0J-1302D01*
G02X142035Y130158I-1303J0D01*
G03X141969Y129621I259J-304D01*
G02X142211Y128865I-1060J-756D01*
G02X139607I-1302J0D01*
G02X140199Y129956I1301J0D01*
G03X140237Y130259I-109J168D01*
G02X140089Y130454I959J881D01*
G37*
G36*
G01X144100Y39103D02*
G03X144078Y39665I-295J270D01*
G02X143666Y40615I889J950D01*
G02X146270I1302J0D01*
G02X145930Y39738I-1301J0D01*
G03X145952Y39176I295J-270D01*
G02X146364Y38226I-889J-950D01*
G02X143760I-1302J0D01*
G02X144100Y39103I1301J0D01*
G37*
G36*
G01X153652Y75135D02*
G03X153127Y75254I-328J-229D01*
G02X152437Y75072I-691J1220D01*
G02Y77876I0J1402D01*
G02X153585Y77279I0J-1402D01*
G03X154110Y77160I328J229D01*
G02X154800Y77342I691J-1220D01*
G02Y74538I0J-1402D01*
G02X153652Y75135I0J1402D01*
G37*
G36*
G01X103279Y98187D02*
G03X103286Y98697I-305J259D01*
G02X103000Y99511I1016J814D01*
G01Y99512D01*
G02X104302Y100814I1302J0D01*
G02X105603Y99569I0J-1302D01*
G03X106144Y99213I399J18D01*
G02X106604Y99297I460J-1218D01*
G02X107906Y97995I0J-1302D01*
G02X107564Y97115I-1303J0D01*
G03X107544Y96597I294J-271D01*
G02X107822Y95793I-1024J-804D01*
G02X106757Y94513I-1302J0D01*
G03X106489Y93910I72J-393D01*
G02X106682Y93229I-1109J-682D01*
G01Y93227D01*
G02X104078I-1302J0D01*
G02X104104Y93484I1302J-2D01*
G03X103854Y93936I-392J78D01*
G02X103018Y95152I466J1216D01*
G02X103304Y95966I1301J0D01*
G03X103292Y96481I-312J250D01*
G02X102967Y97342I978J861D01*
G02X103279Y98187I1302J-1D01*
G37*
G36*
G01X96853Y102637D02*
G03X97136Y103081I-113J384D01*
G02X97121Y103276I1287J197D01*
G02X99725I1302J0D01*
G02X98790Y102027I-1302J0D01*
G03X98507Y101583I113J-384D01*
G02X98522Y101388I-1287J-197D01*
G01Y101358D01*
G03X98838Y100958I400J-9D01*
G02X99867Y99685I-273J-1273D01*
G01Y99684D01*
G02X99494Y98772I-1302J0D01*
G03X99485Y98221I285J-280D01*
G02X99830Y97338I-957J-883D01*
G02X99508Y96481I-1301J0D01*
G03X99510Y95952I301J-263D01*
G02X99838Y95088I-974J-864D01*
G02X98971Y93861I-1302J0D01*
G03X98712Y93405I133J-377D01*
G02X98737Y93151I-1278J-254D01*
G02X96133I-1302J0D01*
G02X96150Y93363I1302J2D01*
G03X95889Y93805I-394J65D01*
G02X95021Y95033I435J1228D01*
G02X95307Y95847I1301J0D01*
G03X95299Y96357I-312J250D01*
G02X94986Y97204I990J847D01*
G02X95283Y98031I1302J-1D01*
G03X95274Y98551I-309J255D01*
G02X94947Y99413I975J863D01*
G02X95729Y100607I1303J0D01*
G03X95957Y101071I-160J367D01*
G02X95918Y101387I1263J316D01*
G01Y101388D01*
G02X96853Y102637I1302J0D01*
G37*
G36*
G01X103754Y102205D02*
G03X103185Y102182I-273J-292D01*
G02X102222Y101756I-963J875D01*
G02Y104360I0J1302D01*
G02X103111Y104009I0J-1301D01*
G03X103680Y104032I273J292D01*
G02X104643Y104458I963J-875D01*
G02Y101854I0J-1302D01*
G02X103754Y102205I0J1301D01*
G37*
G54D22*
X79566Y148887D03*
X115412Y83041D03*
G54D20*
X8000Y91400D03*
X11155Y107567D03*
X12502Y94800D03*
X17240Y107800D03*
X11000Y104579D03*
X16997Y104418D03*
X17400Y101400D03*
X9400Y94000D03*
X17300Y98427D03*
X20200Y104600D03*
X15651Y94878D03*
X11158Y110720D03*
X17200Y110700D03*
X14100Y110800D03*
X10800Y123677D03*
X11000Y117178D03*
X17364Y120095D03*
X17200Y126700D03*
X7139Y112461D03*
X14100Y126700D03*
X20005Y123445D03*
X14345Y123355D03*
X20600Y119900D03*
X11200Y120400D03*
X14088Y114113D03*
X17200Y117200D03*
X20633Y130918D03*
X14100Y142423D03*
Y136200D03*
X10878Y129800D03*
X11074Y142300D03*
X38937Y104786D03*
X33000Y98400D03*
X29848Y104852D03*
X32900Y107727D03*
Y104600D03*
X36000D03*
X36300Y98530D03*
X29400Y98300D03*
X32800Y110800D03*
X35900Y126475D03*
X39212Y123489D03*
X39161Y117139D03*
X29800Y123489D03*
Y120500D03*
X36087Y123513D03*
X32900Y113700D03*
X32924Y123500D03*
X33000Y120426D03*
X36200Y113800D03*
X33200Y142684D03*
X39598Y137669D03*
X33100Y132873D03*
X24780Y131000D03*
X32925Y129800D03*
X39042Y129618D03*
X36174Y129900D03*
X43800Y107600D03*
G54D23*
X101242Y8957D03*
X91242D03*
G54D18*
X11150Y63350D03*
X45300Y65800D03*
X48800Y72700D03*
X45400Y69500D03*
X45300Y72600D03*
X48800Y69100D03*
X48900Y65800D03*
X65198Y89399D03*
X73073Y93336D03*
X70821Y95574D03*
X71700Y103600D03*
X72789Y115090D03*
X64800Y114300D03*
X73499Y143852D03*
X60900Y140095D03*
X64751Y140200D03*
X65239Y137017D03*
X65472Y148627D03*
X68670Y147572D03*
X77461Y102487D03*
X81310Y144550D03*
X78200Y142678D03*
X163029Y167248D03*
X166959Y169972D03*
X163149Y152277D03*
X169210Y156685D03*
X172041Y129479D03*
X169672Y122099D03*
X167633Y112073D03*
X171472Y108330D03*
X176772Y96300D03*
X172814Y100271D03*
X167728Y100286D03*
X178623Y89345D03*
X158474Y176380D03*
X158918Y150430D03*
X160737Y28166D03*
X156098Y38226D03*
X137800Y176800D03*
X123589Y163590D03*
X118589Y167100D03*
X111789Y165300D03*
X123540Y158240D03*
X111789Y159830D03*
X105560Y155870D03*
X105579Y159830D03*
X85329Y11600D03*
X85352Y7840D03*
X74600Y13700D03*
X58667Y11250D03*
X42082Y27120D03*
X47081Y26950D03*
X30479Y22847D03*
X24737Y14850D03*
Y20350D03*
X35682Y21426D03*
X39825Y11250D03*
X35682Y14274D03*
X57648Y37487D03*
Y45610D03*
X73500Y23000D03*
X91607Y30526D03*
X92631Y65660D03*
X86644Y118927D03*
X86754Y110996D03*
X100373Y63977D03*
X94772Y63217D03*
X108208Y115030D03*
X98218Y119115D03*
X104356Y115065D03*
X103399Y124667D03*
X118989Y30990D03*
X114989D03*
X125800Y66500D03*
X123300Y60400D03*
X120800Y62600D03*
X123400Y64500D03*
X125850Y62250D03*
X119701Y88522D03*
X122289Y127481D03*
X125413Y126431D03*
X111990Y114990D03*
X118649Y142274D03*
X120400Y136400D03*
X138864Y40615D03*
X139817Y73745D03*
X131949Y66770D03*
X129757Y64578D03*
X128950Y67850D03*
X140716Y92794D03*
X144200Y77485D03*
X131800Y79200D03*
X141989Y80990D03*
X144502Y89008D03*
X141073Y88815D03*
X138149Y90624D03*
X136628Y94396D03*
X127750Y97737D03*
X131354Y125640D03*
X138489Y138990D03*
X131039Y134440D03*
X131374Y131361D03*
X133089Y136990D03*
X136887Y128602D03*
X133959Y133081D03*
X144585Y147586D03*
X146522Y31990D03*
X146100Y79900D03*
Y110300D03*
X74242Y64300D03*
X92402Y103290D03*
X92489Y95426D03*
G54D19*
X17229Y145600D03*
X56713Y116840D03*
X191000Y65200D03*
X183759Y63559D03*
X188900Y67900D03*
X184600D03*
X169181Y81840D03*
X178641Y63559D03*
Y68677D03*
X173523D03*
X166695Y67890D03*
X163486Y47614D03*
X161100Y52800D03*
X18400Y10300D03*
X16259Y18612D03*
X74200Y38000D03*
X70500Y38100D03*
X74400Y28500D03*
X70400Y44000D03*
X74300Y48700D03*
X70700Y48600D03*
X74200Y44000D03*
X154540Y58300D03*
X150800Y60220D03*
Y64200D03*
X156500Y80200D03*
G54D21*
X59566Y83041D03*
X125412D03*
Y148887D03*
%LPD*%
G75*
G54D10*
X3000Y23303D03*
Y13303D03*
Y33303D03*
Y53303D03*
Y43303D03*
Y73303D03*
Y63303D03*
X5500Y170500D03*
Y174800D03*
X6033Y193281D03*
X4080Y188258D03*
X12900Y2900D03*
X22900D03*
X8500Y6600D03*
X22838Y52510D03*
X11100Y98526D03*
X7102Y98300D03*
X11158Y113870D03*
X14226Y117400D03*
X11026Y126600D03*
X11000Y136221D03*
X17373Y142300D03*
X17212Y129358D03*
X23200Y174800D03*
X16200D03*
Y170500D03*
X12600Y174800D03*
Y170500D03*
X9100D03*
Y174800D03*
X11801Y196165D03*
X17242Y193281D03*
X19481Y188124D03*
X11568Y180258D03*
X6405Y183095D03*
X17568Y183188D03*
X32900Y2900D03*
X23873Y32459D03*
X23877Y54560D03*
X39120Y98200D03*
X39200Y113800D03*
X36000Y120276D03*
X39000Y126600D03*
X32875D03*
X39598Y134573D03*
Y140872D03*
X39878Y144022D03*
X38390Y157068D03*
X35400Y157309D03*
X32300Y156930D03*
X27599Y174858D03*
X34289Y167290D03*
X37989Y170990D03*
Y163590D03*
X23900Y191900D03*
Y196200D03*
X27500Y191900D03*
Y196200D03*
X27700Y187400D03*
Y183100D03*
X31200D03*
Y187400D03*
X34800Y183100D03*
Y187400D03*
X24100D03*
Y183100D03*
X35000Y196100D03*
Y191800D03*
X38500D03*
Y196100D03*
X31400D03*
Y191800D03*
X42900Y2900D03*
X52900D03*
X45000Y104200D03*
X45198Y158902D03*
X41689Y167290D03*
X54189Y174867D03*
X42100Y191800D03*
Y196100D03*
X54381Y181247D03*
X62900Y2900D03*
X72900D03*
X73000Y16898D03*
X58439Y174869D03*
X72489Y175160D03*
X62889Y175072D03*
X67589Y175056D03*
X62897Y181396D03*
X67595Y181356D03*
X72428Y181455D03*
X58531Y181247D03*
X67980Y192225D03*
X58189Y192190D03*
X92900Y2900D03*
X82900D03*
X92489Y107098D03*
X92498Y109268D03*
X86731Y107116D03*
X80600Y105300D03*
X80678Y108816D03*
X92589Y112751D03*
X88689Y126590D03*
X92510Y117142D03*
X86715Y122840D03*
X92217Y122981D03*
X92489Y120810D03*
X84440Y111061D03*
X86714Y114976D03*
X84472Y118989D03*
X92347Y126585D03*
X80678Y118722D03*
Y115105D03*
X76889Y114990D03*
X82789Y125390D03*
X80589Y124590D03*
X80678Y120914D03*
X80754Y111238D03*
X86789Y175157D03*
X91689D03*
X76549Y175104D03*
X81789Y175122D03*
X91602Y181455D03*
X81789Y181422D03*
X86877Y181455D03*
X76789Y181470D03*
X77542Y192196D03*
X87737Y192152D03*
X102900Y2900D03*
X96253Y103335D03*
X98284Y107116D03*
X100514Y111033D03*
X98231Y115069D03*
X100484Y115024D03*
X100382Y118945D03*
X98562Y122704D03*
X100562Y122693D03*
X96489Y175161D03*
X100989Y174882D03*
X105689Y175183D03*
X105489Y181455D03*
X96326D03*
X100789Y181273D03*
X105771Y192197D03*
X122900Y2900D03*
X112900D03*
X110289Y175087D03*
X120815Y181424D03*
X110307Y181455D03*
X115032D03*
X125127Y192226D03*
X115989Y191890D03*
X142900Y2900D03*
X132900D03*
X144508Y177740D03*
X136206Y186518D03*
X141373Y191774D03*
X129394Y181455D03*
X152900Y2900D03*
X144950Y188990D03*
X172900Y2900D03*
X162900D03*
X176500Y3400D03*
X172200Y23600D03*
Y18900D03*
X178100Y18500D03*
X172000Y15400D03*
X171900Y11700D03*
X171700Y7400D03*
X176500Y7200D03*
X174300Y9600D03*
X176200Y12200D03*
X174500Y21400D03*
X177500D03*
X174900Y18100D03*
X175300Y15100D03*
X178200Y40200D03*
X174300Y40100D03*
X172100Y38000D03*
X172000Y34400D03*
X171900Y30700D03*
X172200Y27400D03*
X169800Y36200D03*
Y32100D03*
Y28300D03*
X169600Y25112D03*
X177800Y45200D03*
X177500Y42500D03*
X174900D03*
X170246Y100237D03*
X165280Y100102D03*
X167539Y107985D03*
X172527Y122207D03*
X171300Y183300D03*
Y187600D03*
X174900Y183300D03*
Y187600D03*
X171300Y191700D03*
Y196000D03*
X174900Y191700D03*
Y196000D03*
X162289Y191990D03*
X193939Y6580D03*
X182776Y6487D03*
X187939Y3650D03*
X179700Y3300D03*
X193613Y16673D03*
X182404D03*
X188172Y19557D03*
X195852Y11516D03*
X180451Y11650D03*
X187300Y23800D03*
X191200Y23600D03*
X195100Y23000D03*
X181200Y21500D03*
X184100Y40300D03*
X181200D03*
X185600Y26000D03*
X189700Y26100D03*
X193500Y25900D03*
X196700Y25800D03*
X195200Y28400D03*
X193000Y33800D03*
Y38600D03*
X194400Y36300D03*
X196100Y38400D03*
X196500Y34200D03*
Y31100D03*
X187300Y39600D03*
X187100Y35800D03*
X185300Y37200D03*
X188100Y45300D03*
X187400Y42400D03*
X192100Y45300D03*
X193300Y43300D03*
X195300Y45100D03*
X196300Y47600D03*
X196000Y41700D03*
X184627Y71927D03*
X185900Y86400D03*
X196376Y89719D03*
X195200Y110600D03*
X187150Y96572D03*
X195950Y99471D03*
X195200Y125600D03*
Y114800D03*
Y121900D03*
Y118400D03*
X195000Y136800D03*
X194900Y143800D03*
Y140200D03*
X195200Y132700D03*
Y129200D03*
X189621Y156848D03*
Y162548D03*
X183921D03*
Y156848D03*
X195700Y159000D03*
X187941Y180209D03*
X188174Y196116D03*
X182406Y193232D03*
X193615D03*
X195854Y188075D03*
X182778Y183046D03*
X193941Y183139D03*
X180453Y188209D03*
G54D11*
X11807Y188182D03*
X188185Y11804D03*
Y188182D03*
G54D12*
X8480Y37308D03*
Y40308D03*
Y34608D03*
X14700Y26700D03*
X17200D03*
X12100D03*
Y29000D03*
X14700D03*
X17241Y28900D03*
X8480Y43308D03*
Y46108D03*
Y49108D03*
X22600Y71300D03*
X14300Y145820D03*
X25700Y66100D03*
X25600Y68800D03*
X28600D03*
X25500Y71300D03*
X28700Y66200D03*
X28600Y71300D03*
X66400Y23900D03*
X64000Y24000D03*
X61700D03*
X66500Y26300D03*
X61700D03*
X64000Y26400D03*
X68800Y25100D03*
X67500Y57100D03*
X65100D03*
X62600D03*
X74200Y54550D03*
X67500Y59300D03*
X65100D03*
X62600D03*
X108054Y17327D03*
X105554D03*
X103054D03*
X108054Y19827D03*
X105554D03*
X103054D03*
X113054Y17327D03*
X110554D03*
X113054Y19827D03*
X110554D03*
X114589Y177590D03*
X156100Y108400D03*
X152317Y125473D03*
X178641Y53323D03*
X173523D03*
X177299Y161716D03*
X177249Y153382D03*
X183759Y53323D03*
X188877D03*
X195705Y67890D03*
X196000Y72800D03*
Y75000D03*
X195950Y59200D03*
G54D13*
G01X-100138Y-147478D02*
X299862D01*
G01X-100138Y-117478D02*
Y-97478D01*
X299862D01*
G01X-50138Y-167478D02*
Y-147478D01*
G01X75362Y-167478D02*
Y-147478D01*
G01X74862Y-97478D02*
Y-67478D01*
G01X124862Y-167478D02*
Y-147478D01*
G54D14*
G01X-100138Y-167478D02*
Y-67478D01*
X299862D01*
G01D02*
Y-167478D01*
X-100138D01*
G54D15*
G01X22838Y52510D02*
X24727D01*
X29317Y57100D01*
X55200D01*
X58400Y53900D01*
X73550D01*
X74200Y54550D01*
G54D16*
G01X-4Y9993D02*
G03X9996Y-7I10000J0D01*
G01X189996D01*
G03X199996Y9993I0J10000D01*
G01Y189993D01*
G03X189996Y199993I-10000J0D01*
G01X9996D01*
G03X-4Y189993I0J-10000D01*
G01Y9993D01*
G54D17*
G01X-96613Y-154945D02*
X-96146Y-155278D01*
X-95621Y-155478D01*
X-95155D01*
X-94688Y-155278D01*
X-94338Y-154945D01*
X-94163Y-154478D01*
X-94280Y-154011D01*
X-94571Y-153611D01*
X-95096Y-153345D01*
X-95796Y-153211D01*
X-96205Y-152945D01*
X-96380Y-152478D01*
X-96263Y-152011D01*
X-95971Y-151678D01*
X-95563Y-151478D01*
X-95155D01*
X-94746Y-151611D01*
X-94396Y-151945D01*
G01X-91813Y-155478D02*
Y-151478D01*
G01X-89363D02*
Y-155478D01*
G01Y-153478D02*
X-91813D01*
G01X-84621Y-155478D02*
X-86955D01*
Y-151478D01*
X-84621D01*
G01X-85555Y-153411D02*
X-86955D01*
G01X-79821Y-155478D02*
X-82155D01*
Y-151478D01*
X-79821D01*
G01X-80755Y-153411D02*
X-82155D01*
G01X-76188Y-151478D02*
Y-155478D01*
G01X-77530Y-151478D02*
X-74846D01*
G01X-94348Y-163978D02*
Y-157678D01*
X-97246Y-162193D01*
X-93330D01*
G01X-82688Y-157678D02*
X-83315Y-157888D01*
X-83785Y-158413D01*
X-84098Y-159043D01*
X-84333Y-159883D01*
X-84411Y-160828D01*
X-84333Y-161773D01*
X-84098Y-162613D01*
X-83785Y-163243D01*
X-83315Y-163768D01*
X-82688Y-163978D01*
X-82061Y-163768D01*
X-81591Y-163243D01*
X-81278Y-162613D01*
X-81043Y-161773D01*
X-80965Y-160828D01*
X-81043Y-159883D01*
X-81278Y-159043D01*
X-81591Y-158413D01*
X-82061Y-157888D01*
X-82688Y-157678D01*
G01X-77876Y-163978D02*
Y-157678D01*
X-74900D01*
G01X-75996Y-160723D02*
X-77876D01*
G01X-63788Y-163978D02*
Y-157678D01*
X-64728Y-158938D01*
G01Y-163978D02*
X-62848D01*
G01X-58976Y-158728D02*
X-58506Y-158098D01*
X-57958Y-157783D01*
X-57331Y-157678D01*
X-56548Y-157888D01*
X-56000Y-158413D01*
X-55843Y-159043D01*
X-55921Y-159673D01*
X-56235Y-160198D01*
X-57801Y-161248D01*
X-58506Y-161983D01*
X-58976Y-163033D01*
X-59133Y-163978D01*
X-55843D01*
G01X-88388Y-136478D02*
X-88855Y-136411D01*
X-89263Y-136145D01*
X-89613Y-135745D01*
X-89846Y-135278D01*
X-89963Y-134745D01*
Y-134211D01*
X-89846Y-133678D01*
X-89613Y-133211D01*
X-89263Y-132811D01*
X-88855Y-132545D01*
X-88388Y-132478D01*
X-87921Y-132545D01*
X-87513Y-132811D01*
X-87163Y-133211D01*
X-86930Y-133678D01*
X-86813Y-134211D01*
Y-134745D01*
X-86930Y-135278D01*
X-87163Y-135745D01*
X-87513Y-136145D01*
X-87921Y-136411D01*
X-88388Y-136478D01*
G01X-84755D02*
Y-132478D01*
X-83296D01*
X-82830Y-132678D01*
X-82538Y-132945D01*
X-82421Y-133478D01*
X-82538Y-134011D01*
X-82888Y-134345D01*
X-83296Y-134545D01*
X-84755D01*
G01X-83296D02*
X-82421Y-136478D01*
G01X-74688Y-132478D02*
X-73288D01*
G01X-73988D02*
Y-136478D01*
G01X-74688D02*
X-73288D01*
G01X-70530D02*
Y-132478D01*
X-67846Y-136478D01*
Y-132478D01*
G01X-60755Y-136478D02*
Y-132478D01*
X-59355D01*
X-58888Y-132678D01*
X-58538Y-133145D01*
X-58421Y-133678D01*
X-58538Y-134211D01*
X-58830Y-134611D01*
X-59355Y-134811D01*
X-60755D01*
G01X-56246Y-136478D02*
X-54788Y-132478D01*
X-53330Y-136478D01*
G01X-53855Y-135078D02*
X-55721D01*
G01X-51155Y-136478D02*
Y-132478D01*
X-49696D01*
X-49230Y-132678D01*
X-48938Y-132945D01*
X-48821Y-133478D01*
X-48938Y-134011D01*
X-49288Y-134345D01*
X-49696Y-134545D01*
X-51155D01*
G01X-49696D02*
X-48821Y-136478D01*
G01X-45188Y-132478D02*
Y-136478D01*
G01X-46530Y-132478D02*
X-43846D01*
G01X-37338D02*
X-36521Y-136478D01*
X-35588Y-132478D01*
X-34655Y-136478D01*
X-33838Y-132478D01*
G01X-31488D02*
X-30088D01*
G01X-30788D02*
Y-136478D01*
G01X-31488D02*
X-30088D01*
G01X-25988Y-132478D02*
Y-136478D01*
G01X-27330Y-132478D02*
X-24646D01*
G01X-22413Y-136478D02*
Y-132478D01*
G01X-19963D02*
Y-136478D01*
G01Y-134478D02*
X-22413D01*
G01X-16388Y-136478D02*
X-16855Y-136411D01*
X-17263Y-136145D01*
X-17613Y-135745D01*
X-17846Y-135278D01*
X-17963Y-134745D01*
Y-134211D01*
X-17846Y-133678D01*
X-17613Y-133211D01*
X-17263Y-132811D01*
X-16855Y-132545D01*
X-16388Y-132478D01*
X-15921Y-132545D01*
X-15513Y-132811D01*
X-15163Y-133211D01*
X-14930Y-133678D01*
X-14813Y-134211D01*
Y-134745D01*
X-14930Y-135278D01*
X-15163Y-135745D01*
X-15513Y-136145D01*
X-15921Y-136411D01*
X-16388Y-136478D01*
G01X-12871Y-132478D02*
Y-135345D01*
X-12638Y-135945D01*
X-12171Y-136345D01*
X-11588Y-136478D01*
X-11005Y-136345D01*
X-10538Y-135945D01*
X-10305Y-135345D01*
Y-132478D01*
G01X-6788D02*
Y-136478D01*
G01X-8130Y-132478D02*
X-5446D01*
G01X2812D02*
Y-136478D01*
G01X1470Y-132478D02*
X4154D01*
G01X6387Y-136478D02*
Y-132478D01*
G01X8837D02*
Y-136478D01*
G01Y-134478D02*
X6387D01*
G01X13579Y-136478D02*
X11245D01*
Y-132478D01*
X13579D01*
G01X12645Y-134411D02*
X11245D01*
G01X23295Y-132811D02*
X22945Y-132611D01*
X22537Y-132478D01*
X22070D01*
X21545Y-132678D01*
X21137Y-133011D01*
X20845Y-133411D01*
X20612Y-134078D01*
X20554Y-134678D01*
X20670Y-135278D01*
X20845Y-135678D01*
X21195Y-136078D01*
X21604Y-136345D01*
X22012Y-136478D01*
X22420D01*
X22829Y-136345D01*
X23179Y-136145D01*
X23470Y-135878D01*
G01X26812Y-136478D02*
X26345Y-136411D01*
X25937Y-136145D01*
X25587Y-135745D01*
X25354Y-135278D01*
X25237Y-134745D01*
Y-134211D01*
X25354Y-133678D01*
X25587Y-133211D01*
X25937Y-132811D01*
X26345Y-132545D01*
X26812Y-132478D01*
X27279Y-132545D01*
X27687Y-132811D01*
X28037Y-133211D01*
X28270Y-133678D01*
X28387Y-134211D01*
Y-134745D01*
X28270Y-135278D01*
X28037Y-135745D01*
X27687Y-136145D01*
X27279Y-136411D01*
X26812Y-136478D01*
G01X30270D02*
Y-132478D01*
X32954Y-136478D01*
Y-132478D01*
G01X35187Y-135945D02*
X35654Y-136278D01*
X36179Y-136478D01*
X36645D01*
X37112Y-136278D01*
X37462Y-135945D01*
X37637Y-135478D01*
X37520Y-135011D01*
X37229Y-134611D01*
X36704Y-134345D01*
X36004Y-134211D01*
X35595Y-133945D01*
X35420Y-133478D01*
X35537Y-133011D01*
X35829Y-132678D01*
X36237Y-132478D01*
X36645D01*
X37054Y-132611D01*
X37404Y-132945D01*
G01X42379Y-136478D02*
X40045D01*
Y-132478D01*
X42379D01*
G01X41445Y-134411D02*
X40045D01*
G01X44670Y-136478D02*
Y-132478D01*
X47354Y-136478D01*
Y-132478D01*
G01X50812D02*
Y-136478D01*
G01X49470Y-132478D02*
X52154D01*
G01X60412Y-136478D02*
X59945Y-136411D01*
X59537Y-136145D01*
X59187Y-135745D01*
X58954Y-135278D01*
X58837Y-134745D01*
Y-134211D01*
X58954Y-133678D01*
X59187Y-133211D01*
X59537Y-132811D01*
X59945Y-132545D01*
X60412Y-132478D01*
X60879Y-132545D01*
X61287Y-132811D01*
X61637Y-133211D01*
X61870Y-133678D01*
X61987Y-134211D01*
Y-134745D01*
X61870Y-135278D01*
X61637Y-135745D01*
X61287Y-136145D01*
X60879Y-136411D01*
X60412Y-136478D01*
G01X64104D02*
Y-132478D01*
X66320D01*
G01X65504Y-134411D02*
X64104D01*
G01X-88730Y-144478D02*
Y-140478D01*
X-86046Y-144478D01*
Y-140478D01*
G01X-83813Y-144478D02*
X-81363Y-140478D01*
G01X-83813D02*
X-81363Y-144478D01*
G01X-78955D02*
Y-140478D01*
X-77555D01*
X-77088Y-140678D01*
X-76738Y-141145D01*
X-76621Y-141678D01*
X-76738Y-142211D01*
X-77030Y-142611D01*
X-77555Y-142811D01*
X-78955D01*
G01X-72988Y-144611D02*
X-73105Y-144545D01*
Y-144411D01*
X-72988Y-144345D01*
X-72871Y-144411D01*
Y-144545D01*
X-72988Y-144611D01*
G01X-87921Y-118345D02*
X-87688Y-118145D01*
X-87513Y-117811D01*
X-87396Y-117345D01*
X-87513Y-116945D01*
X-87746Y-116678D01*
X-88155Y-116478D01*
X-89730D01*
Y-120478D01*
X-87805D01*
X-87396Y-120211D01*
X-87163Y-119811D01*
X-87046Y-119345D01*
X-87163Y-118878D01*
X-87513Y-118478D01*
X-87921Y-118345D01*
X-89730D01*
G01X-82421Y-120478D02*
X-84755D01*
Y-116478D01*
X-82421D01*
G01X-83355Y-118411D02*
X-84755D01*
G01X-75271Y-116478D02*
Y-119345D01*
X-75038Y-119945D01*
X-74571Y-120345D01*
X-73988Y-120478D01*
X-73405Y-120345D01*
X-72938Y-119945D01*
X-72705Y-119345D01*
Y-116478D01*
G01X-70413Y-119945D02*
X-69946Y-120278D01*
X-69421Y-120478D01*
X-68955D01*
X-68488Y-120278D01*
X-68138Y-119945D01*
X-67963Y-119478D01*
X-68080Y-119011D01*
X-68371Y-118611D01*
X-68896Y-118345D01*
X-69596Y-118211D01*
X-70005Y-117945D01*
X-70180Y-117478D01*
X-70063Y-117011D01*
X-69771Y-116678D01*
X-69363Y-116478D01*
X-68955D01*
X-68546Y-116611D01*
X-68196Y-116945D01*
G01X-63221Y-120478D02*
X-65555D01*
Y-116478D01*
X-63221D01*
G01X-64155Y-118411D02*
X-65555D01*
G01X-60871Y-120478D02*
Y-116478D01*
X-59705D01*
X-59238Y-116678D01*
X-58888Y-116945D01*
X-58596Y-117345D01*
X-58363Y-117811D01*
X-58305Y-118478D01*
X-58363Y-119145D01*
X-58596Y-119611D01*
X-58888Y-120011D01*
X-59238Y-120278D01*
X-59705Y-120478D01*
X-60871D01*
G01X-51096D02*
Y-116478D01*
X-48880D01*
G01X-49696Y-118411D02*
X-51096D01*
G01X-45188Y-120478D02*
X-45655Y-120411D01*
X-46063Y-120145D01*
X-46413Y-119745D01*
X-46646Y-119278D01*
X-46763Y-118745D01*
Y-118211D01*
X-46646Y-117678D01*
X-46413Y-117211D01*
X-46063Y-116811D01*
X-45655Y-116545D01*
X-45188Y-116478D01*
X-44721Y-116545D01*
X-44313Y-116811D01*
X-43963Y-117211D01*
X-43730Y-117678D01*
X-43613Y-118211D01*
Y-118745D01*
X-43730Y-119278D01*
X-43963Y-119745D01*
X-44313Y-120145D01*
X-44721Y-120411D01*
X-45188Y-120478D01*
G01X-41555D02*
Y-116478D01*
X-40096D01*
X-39630Y-116678D01*
X-39338Y-116945D01*
X-39221Y-117478D01*
X-39338Y-118011D01*
X-39688Y-118345D01*
X-40096Y-118545D01*
X-41555D01*
G01X-40096D02*
X-39221Y-120478D01*
G01X-29621D02*
X-31955D01*
Y-116478D01*
X-29621D01*
G01X-30555Y-118411D02*
X-31955D01*
G01X-27330Y-120478D02*
Y-116478D01*
X-24646Y-120478D01*
Y-116478D01*
G01X-20838Y-118478D02*
X-19671D01*
Y-119678D01*
X-20021Y-120078D01*
X-20430Y-120345D01*
X-21013Y-120478D01*
X-21596Y-120345D01*
X-22005Y-120078D01*
X-22355Y-119678D01*
X-22588Y-119211D01*
X-22705Y-118678D01*
Y-118211D01*
X-22588Y-117811D01*
X-22355Y-117345D01*
X-22005Y-116945D01*
X-21655Y-116678D01*
X-21188Y-116478D01*
X-20780D01*
X-20313Y-116611D01*
X-19963Y-116878D01*
G01X-17088Y-116478D02*
X-15688D01*
G01X-16388D02*
Y-120478D01*
G01X-17088D02*
X-15688D01*
G01X-12930D02*
Y-116478D01*
X-10246Y-120478D01*
Y-116478D01*
G01X-5621Y-120478D02*
X-7955D01*
Y-116478D01*
X-5621D01*
G01X-6555Y-118411D02*
X-7955D01*
G01X-821Y-120478D02*
X-3155D01*
Y-116478D01*
X-821D01*
G01X-1755Y-118411D02*
X-3155D01*
G01X1645Y-120478D02*
Y-116478D01*
X3104D01*
X3570Y-116678D01*
X3862Y-116945D01*
X3979Y-117478D01*
X3862Y-118011D01*
X3512Y-118345D01*
X3104Y-118545D01*
X1645D01*
G01X3104D02*
X3979Y-120478D01*
G01X6912Y-116478D02*
X8312D01*
G01X7612D02*
Y-120478D01*
G01X6912D02*
X8312D01*
G01X11070D02*
Y-116478D01*
X13754Y-120478D01*
Y-116478D01*
G01X17562Y-118478D02*
X18729D01*
Y-119678D01*
X18379Y-120078D01*
X17970Y-120345D01*
X17387Y-120478D01*
X16804Y-120345D01*
X16395Y-120078D01*
X16045Y-119678D01*
X15812Y-119211D01*
X15695Y-118678D01*
Y-118211D01*
X15812Y-117811D01*
X16045Y-117345D01*
X16395Y-116945D01*
X16745Y-116678D01*
X17212Y-116478D01*
X17620D01*
X18087Y-116611D01*
X18437Y-116878D01*
G01X25529Y-120478D02*
Y-116478D01*
X26695D01*
X27162Y-116678D01*
X27512Y-116945D01*
X27804Y-117345D01*
X28037Y-117811D01*
X28095Y-118478D01*
X28037Y-119145D01*
X27804Y-119611D01*
X27512Y-120011D01*
X27162Y-120278D01*
X26695Y-120478D01*
X25529D01*
G01X32779D02*
X30445D01*
Y-116478D01*
X32779D01*
G01X31845Y-118411D02*
X30445D01*
G01X35187Y-119945D02*
X35654Y-120278D01*
X36179Y-120478D01*
X36645D01*
X37112Y-120278D01*
X37462Y-119945D01*
X37637Y-119478D01*
X37520Y-119011D01*
X37229Y-118611D01*
X36704Y-118345D01*
X36004Y-118211D01*
X35595Y-117945D01*
X35420Y-117478D01*
X35537Y-117011D01*
X35829Y-116678D01*
X36237Y-116478D01*
X36645D01*
X37054Y-116611D01*
X37404Y-116945D01*
G01X40512Y-116478D02*
X41912D01*
G01X41212D02*
Y-120478D01*
G01X40512D02*
X41912D01*
G01X46362Y-118478D02*
X47529D01*
Y-119678D01*
X47179Y-120078D01*
X46770Y-120345D01*
X46187Y-120478D01*
X45604Y-120345D01*
X45195Y-120078D01*
X44845Y-119678D01*
X44612Y-119211D01*
X44495Y-118678D01*
Y-118211D01*
X44612Y-117811D01*
X44845Y-117345D01*
X45195Y-116945D01*
X45545Y-116678D01*
X46012Y-116478D01*
X46420D01*
X46887Y-116611D01*
X47237Y-116878D01*
G01X49470Y-120478D02*
Y-116478D01*
X52154Y-120478D01*
Y-116478D01*
G01X-89555Y-128478D02*
Y-124478D01*
X-88155D01*
X-87688Y-124678D01*
X-87338Y-125145D01*
X-87221Y-125678D01*
X-87338Y-126211D01*
X-87630Y-126611D01*
X-88155Y-126811D01*
X-89555D01*
G01X-84755Y-128478D02*
Y-124478D01*
X-83296D01*
X-82830Y-124678D01*
X-82538Y-124945D01*
X-82421Y-125478D01*
X-82538Y-126011D01*
X-82888Y-126345D01*
X-83296Y-126545D01*
X-84755D01*
G01X-83296D02*
X-82421Y-128478D01*
G01X-78788D02*
X-79255Y-128411D01*
X-79663Y-128145D01*
X-80013Y-127745D01*
X-80246Y-127278D01*
X-80363Y-126745D01*
Y-126211D01*
X-80246Y-125678D01*
X-80013Y-125211D01*
X-79663Y-124811D01*
X-79255Y-124545D01*
X-78788Y-124478D01*
X-78321Y-124545D01*
X-77913Y-124811D01*
X-77563Y-125211D01*
X-77330Y-125678D01*
X-77213Y-126211D01*
Y-126745D01*
X-77330Y-127278D01*
X-77563Y-127745D01*
X-77913Y-128145D01*
X-78321Y-128411D01*
X-78788Y-128478D01*
G01X-72705Y-124811D02*
X-73055Y-124611D01*
X-73463Y-124478D01*
X-73930D01*
X-74455Y-124678D01*
X-74863Y-125011D01*
X-75155Y-125411D01*
X-75388Y-126078D01*
X-75446Y-126678D01*
X-75330Y-127278D01*
X-75155Y-127678D01*
X-74805Y-128078D01*
X-74396Y-128345D01*
X-73988Y-128478D01*
X-73580D01*
X-73171Y-128345D01*
X-72821Y-128145D01*
X-72530Y-127878D01*
G01X-70471Y-124478D02*
Y-127345D01*
X-70238Y-127945D01*
X-69771Y-128345D01*
X-69188Y-128478D01*
X-68605Y-128345D01*
X-68138Y-127945D01*
X-67905Y-127345D01*
Y-124478D01*
G01X-65555Y-128478D02*
Y-124478D01*
X-64096D01*
X-63630Y-124678D01*
X-63338Y-124945D01*
X-63221Y-125478D01*
X-63338Y-126011D01*
X-63688Y-126345D01*
X-64096Y-126545D01*
X-65555D01*
G01X-64096D02*
X-63221Y-128478D01*
G01X-58421D02*
X-60755D01*
Y-124478D01*
X-58421D01*
G01X-59355Y-126411D02*
X-60755D01*
G01X-56305Y-128478D02*
Y-124478D01*
X-54788Y-127811D01*
X-53271Y-124478D01*
Y-128478D01*
G01X-48821D02*
X-51155D01*
Y-124478D01*
X-48821D01*
G01X-49755Y-126411D02*
X-51155D01*
G01X-46530Y-128478D02*
Y-124478D01*
X-43846Y-128478D01*
Y-124478D01*
G01X-40388D02*
Y-128478D01*
G01X-41730Y-124478D02*
X-39046D01*
G01X-30788Y-128478D02*
X-31255Y-128411D01*
X-31663Y-128145D01*
X-32013Y-127745D01*
X-32246Y-127278D01*
X-32363Y-126745D01*
Y-126211D01*
X-32246Y-125678D01*
X-32013Y-125211D01*
X-31663Y-124811D01*
X-31255Y-124545D01*
X-30788Y-124478D01*
X-30321Y-124545D01*
X-29913Y-124811D01*
X-29563Y-125211D01*
X-29330Y-125678D01*
X-29213Y-126211D01*
Y-126745D01*
X-29330Y-127278D01*
X-29563Y-127745D01*
X-29913Y-128145D01*
X-30321Y-128411D01*
X-30788Y-128478D01*
G01X-27155D02*
Y-124478D01*
X-25696D01*
X-25230Y-124678D01*
X-24938Y-124945D01*
X-24821Y-125478D01*
X-24938Y-126011D01*
X-25288Y-126345D01*
X-25696Y-126545D01*
X-27155D01*
G01X-25696D02*
X-24821Y-128478D01*
G01X-17905D02*
Y-124478D01*
X-16388Y-127811D01*
X-14871Y-124478D01*
Y-128478D01*
G01X-13046D02*
X-11588Y-124478D01*
X-10130Y-128478D01*
G01X-10655Y-127078D02*
X-12521D01*
G01X-8130Y-128478D02*
Y-124478D01*
X-5446Y-128478D01*
Y-124478D01*
G01X-3271D02*
Y-127345D01*
X-3038Y-127945D01*
X-2571Y-128345D01*
X-1988Y-128478D01*
X-1405Y-128345D01*
X-938Y-127945D01*
X-705Y-127345D01*
Y-124478D01*
G01X1704Y-128478D02*
Y-124478D01*
X3920D01*
G01X3104Y-126411D02*
X1704D01*
G01X6154Y-128478D02*
X7612Y-124478D01*
X9070Y-128478D01*
G01X8545Y-127078D02*
X6679D01*
G01X13695Y-124811D02*
X13345Y-124611D01*
X12937Y-124478D01*
X12470D01*
X11945Y-124678D01*
X11537Y-125011D01*
X11245Y-125411D01*
X11012Y-126078D01*
X10954Y-126678D01*
X11070Y-127278D01*
X11245Y-127678D01*
X11595Y-128078D01*
X12004Y-128345D01*
X12412Y-128478D01*
X12820D01*
X13229Y-128345D01*
X13579Y-128145D01*
X13870Y-127878D01*
G01X17212Y-124478D02*
Y-128478D01*
G01X15870Y-124478D02*
X18554D01*
G01X20729D02*
Y-127345D01*
X20962Y-127945D01*
X21429Y-128345D01*
X22012Y-128478D01*
X22595Y-128345D01*
X23062Y-127945D01*
X23295Y-127345D01*
Y-124478D01*
G01X25645Y-128478D02*
Y-124478D01*
X27104D01*
X27570Y-124678D01*
X27862Y-124945D01*
X27979Y-125478D01*
X27862Y-126011D01*
X27512Y-126345D01*
X27104Y-126545D01*
X25645D01*
G01X27104D02*
X27979Y-128478D01*
G01X32779D02*
X30445D01*
Y-124478D01*
X32779D01*
G01X31845Y-126411D02*
X30445D01*
G01X40512Y-124478D02*
X41912D01*
G01X41212D02*
Y-128478D01*
G01X40512D02*
X41912D01*
G01X44670D02*
Y-124478D01*
X47354Y-128478D01*
Y-124478D01*
G01X53862D02*
X54679Y-128478D01*
X55612Y-124478D01*
X56545Y-128478D01*
X57362Y-124478D01*
G01X59187Y-128478D02*
Y-124478D01*
G01X61637D02*
Y-128478D01*
G01Y-126478D02*
X59187D01*
G01X65212Y-128478D02*
X64745Y-128411D01*
X64337Y-128145D01*
X63987Y-127745D01*
X63754Y-127278D01*
X63637Y-126745D01*
Y-126211D01*
X63754Y-125678D01*
X63987Y-125211D01*
X64337Y-124811D01*
X64745Y-124545D01*
X65212Y-124478D01*
X65679Y-124545D01*
X66087Y-124811D01*
X66437Y-125211D01*
X66670Y-125678D01*
X66787Y-126211D01*
Y-126745D01*
X66670Y-127278D01*
X66437Y-127745D01*
X66087Y-128145D01*
X65679Y-128411D01*
X65212Y-128478D01*
G01X68845Y-124478D02*
Y-128478D01*
X71179D01*
G01X75979D02*
X73645D01*
Y-124478D01*
X75979D01*
G01X75045Y-126411D02*
X73645D01*
G01X-89388Y-100478D02*
Y-104478D01*
G01X-90730Y-100478D02*
X-88046D01*
G01X-85813Y-104478D02*
Y-100478D01*
G01X-83363D02*
Y-104478D01*
G01Y-102478D02*
X-85813D01*
G01X-80488Y-100478D02*
X-79088D01*
G01X-79788D02*
Y-104478D01*
G01X-80488D02*
X-79088D01*
G01X-76213Y-103945D02*
X-75746Y-104278D01*
X-75221Y-104478D01*
X-74755D01*
X-74288Y-104278D01*
X-73938Y-103945D01*
X-73763Y-103478D01*
X-73880Y-103011D01*
X-74171Y-102611D01*
X-74696Y-102345D01*
X-75396Y-102211D01*
X-75805Y-101945D01*
X-75980Y-101478D01*
X-75863Y-101011D01*
X-75571Y-100678D01*
X-75163Y-100478D01*
X-74755D01*
X-74346Y-100611D01*
X-73996Y-100945D01*
G01X-66671Y-104478D02*
Y-100478D01*
X-65505D01*
X-65038Y-100678D01*
X-64688Y-100945D01*
X-64396Y-101345D01*
X-64163Y-101811D01*
X-64105Y-102478D01*
X-64163Y-103145D01*
X-64396Y-103611D01*
X-64688Y-104011D01*
X-65038Y-104278D01*
X-65505Y-104478D01*
X-66671D01*
G01X-60588D02*
X-61055Y-104411D01*
X-61463Y-104145D01*
X-61813Y-103745D01*
X-62046Y-103278D01*
X-62163Y-102745D01*
Y-102211D01*
X-62046Y-101678D01*
X-61813Y-101211D01*
X-61463Y-100811D01*
X-61055Y-100545D01*
X-60588Y-100478D01*
X-60121Y-100545D01*
X-59713Y-100811D01*
X-59363Y-101211D01*
X-59130Y-101678D01*
X-59013Y-102211D01*
Y-102745D01*
X-59130Y-103278D01*
X-59363Y-103745D01*
X-59713Y-104145D01*
X-60121Y-104411D01*
X-60588Y-104478D01*
G01X-54505Y-100811D02*
X-54855Y-100611D01*
X-55263Y-100478D01*
X-55730D01*
X-56255Y-100678D01*
X-56663Y-101011D01*
X-56955Y-101411D01*
X-57188Y-102078D01*
X-57246Y-102678D01*
X-57130Y-103278D01*
X-56955Y-103678D01*
X-56605Y-104078D01*
X-56196Y-104345D01*
X-55788Y-104478D01*
X-55380D01*
X-54971Y-104345D01*
X-54621Y-104145D01*
X-54330Y-103878D01*
G01X-52271Y-100478D02*
Y-103345D01*
X-52038Y-103945D01*
X-51571Y-104345D01*
X-50988Y-104478D01*
X-50405Y-104345D01*
X-49938Y-103945D01*
X-49705Y-103345D01*
Y-100478D01*
G01X-47705Y-104478D02*
Y-100478D01*
X-46188Y-103811D01*
X-44671Y-100478D01*
Y-104478D01*
G01X-40221D02*
X-42555D01*
Y-100478D01*
X-40221D01*
G01X-41155Y-102411D02*
X-42555D01*
G01X-37930Y-104478D02*
Y-100478D01*
X-35246Y-104478D01*
Y-100478D01*
G01X-31788D02*
Y-104478D01*
G01X-33130Y-100478D02*
X-30446D01*
G01X-20905Y-100811D02*
X-21255Y-100611D01*
X-21663Y-100478D01*
X-22130D01*
X-22655Y-100678D01*
X-23063Y-101011D01*
X-23355Y-101411D01*
X-23588Y-102078D01*
X-23646Y-102678D01*
X-23530Y-103278D01*
X-23355Y-103678D01*
X-23005Y-104078D01*
X-22596Y-104345D01*
X-22188Y-104478D01*
X-21780D01*
X-21371Y-104345D01*
X-21021Y-104145D01*
X-20730Y-103878D01*
G01X-17388Y-104478D02*
X-17855Y-104411D01*
X-18263Y-104145D01*
X-18613Y-103745D01*
X-18846Y-103278D01*
X-18963Y-102745D01*
Y-102211D01*
X-18846Y-101678D01*
X-18613Y-101211D01*
X-18263Y-100811D01*
X-17855Y-100545D01*
X-17388Y-100478D01*
X-16921Y-100545D01*
X-16513Y-100811D01*
X-16163Y-101211D01*
X-15930Y-101678D01*
X-15813Y-102211D01*
Y-102745D01*
X-15930Y-103278D01*
X-16163Y-103745D01*
X-16513Y-104145D01*
X-16921Y-104411D01*
X-17388Y-104478D01*
G01X-13930D02*
Y-100478D01*
X-11246Y-104478D01*
Y-100478D01*
G01X-7788D02*
Y-104478D01*
G01X-9130Y-100478D02*
X-6446D01*
G01X-4446Y-104478D02*
X-2988Y-100478D01*
X-1530Y-104478D01*
G01X-2055Y-103078D02*
X-3921D01*
G01X1112Y-100478D02*
X2512D01*
G01X1812D02*
Y-104478D01*
G01X1112D02*
X2512D01*
G01X5270D02*
Y-100478D01*
X7954Y-104478D01*
Y-100478D01*
G01X10187Y-103945D02*
X10654Y-104278D01*
X11179Y-104478D01*
X11645D01*
X12112Y-104278D01*
X12462Y-103945D01*
X12637Y-103478D01*
X12520Y-103011D01*
X12229Y-102611D01*
X11704Y-102345D01*
X11004Y-102211D01*
X10595Y-101945D01*
X10420Y-101478D01*
X10537Y-101011D01*
X10829Y-100678D01*
X11237Y-100478D01*
X11645D01*
X12054Y-100611D01*
X12404Y-100945D01*
G01X20312Y-100478D02*
X21712D01*
G01X21012D02*
Y-104478D01*
G01X20312D02*
X21712D01*
G01X24470D02*
Y-100478D01*
X27154Y-104478D01*
Y-100478D01*
G01X29504Y-104478D02*
Y-100478D01*
X31720D01*
G01X30904Y-102411D02*
X29504D01*
G01X35412Y-104478D02*
X34945Y-104411D01*
X34537Y-104145D01*
X34187Y-103745D01*
X33954Y-103278D01*
X33837Y-102745D01*
Y-102211D01*
X33954Y-101678D01*
X34187Y-101211D01*
X34537Y-100811D01*
X34945Y-100545D01*
X35412Y-100478D01*
X35879Y-100545D01*
X36287Y-100811D01*
X36637Y-101211D01*
X36870Y-101678D01*
X36987Y-102211D01*
Y-102745D01*
X36870Y-103278D01*
X36637Y-103745D01*
X36287Y-104145D01*
X35879Y-104411D01*
X35412Y-104478D01*
G01X39045D02*
Y-100478D01*
X40504D01*
X40970Y-100678D01*
X41262Y-100945D01*
X41379Y-101478D01*
X41262Y-102011D01*
X40912Y-102345D01*
X40504Y-102545D01*
X39045D01*
G01X40504D02*
X41379Y-104478D01*
G01X43495D02*
Y-100478D01*
X45012Y-103811D01*
X46529Y-100478D01*
Y-104478D01*
G01X48354D02*
X49812Y-100478D01*
X51270Y-104478D01*
G01X50745Y-103078D02*
X48879D01*
G01X54612Y-100478D02*
Y-104478D01*
G01X53270Y-100478D02*
X55954D01*
G01X58712D02*
X60112D01*
G01X59412D02*
Y-104478D01*
G01X58712D02*
X60112D01*
G01X64212D02*
X63745Y-104411D01*
X63337Y-104145D01*
X62987Y-103745D01*
X62754Y-103278D01*
X62637Y-102745D01*
Y-102211D01*
X62754Y-101678D01*
X62987Y-101211D01*
X63337Y-100811D01*
X63745Y-100545D01*
X64212Y-100478D01*
X64679Y-100545D01*
X65087Y-100811D01*
X65437Y-101211D01*
X65670Y-101678D01*
X65787Y-102211D01*
Y-102745D01*
X65670Y-103278D01*
X65437Y-103745D01*
X65087Y-104145D01*
X64679Y-104411D01*
X64212Y-104478D01*
G01X67670D02*
Y-100478D01*
X70354Y-104478D01*
Y-100478D01*
G01X-89555Y-112478D02*
Y-108478D01*
X-88155D01*
X-87688Y-108678D01*
X-87338Y-109145D01*
X-87221Y-109678D01*
X-87338Y-110211D01*
X-87630Y-110611D01*
X-88155Y-110811D01*
X-89555D01*
G01X-84755Y-112478D02*
Y-108478D01*
X-83296D01*
X-82830Y-108678D01*
X-82538Y-108945D01*
X-82421Y-109478D01*
X-82538Y-110011D01*
X-82888Y-110345D01*
X-83296Y-110545D01*
X-84755D01*
G01X-83296D02*
X-82421Y-112478D01*
G01X-78788D02*
X-79255Y-112411D01*
X-79663Y-112145D01*
X-80013Y-111745D01*
X-80246Y-111278D01*
X-80363Y-110745D01*
Y-110211D01*
X-80246Y-109678D01*
X-80013Y-109211D01*
X-79663Y-108811D01*
X-79255Y-108545D01*
X-78788Y-108478D01*
X-78321Y-108545D01*
X-77913Y-108811D01*
X-77563Y-109211D01*
X-77330Y-109678D01*
X-77213Y-110211D01*
Y-110745D01*
X-77330Y-111278D01*
X-77563Y-111745D01*
X-77913Y-112145D01*
X-78321Y-112411D01*
X-78788Y-112478D01*
G01X-75155D02*
Y-108478D01*
X-73755D01*
X-73288Y-108678D01*
X-72938Y-109145D01*
X-72821Y-109678D01*
X-72938Y-110211D01*
X-73230Y-110611D01*
X-73755Y-110811D01*
X-75155D01*
G01X-70355Y-112478D02*
Y-108478D01*
X-68896D01*
X-68430Y-108678D01*
X-68138Y-108945D01*
X-68021Y-109478D01*
X-68138Y-110011D01*
X-68488Y-110345D01*
X-68896Y-110545D01*
X-70355D01*
G01X-68896D02*
X-68021Y-112478D01*
G01X-65088Y-108478D02*
X-63688D01*
G01X-64388D02*
Y-112478D01*
G01X-65088D02*
X-63688D01*
G01X-58421D02*
X-60755D01*
Y-108478D01*
X-58421D01*
G01X-59355Y-110411D02*
X-60755D01*
G01X-54788Y-108478D02*
Y-112478D01*
G01X-56130Y-108478D02*
X-53446D01*
G01X-51446Y-112478D02*
X-49988Y-108478D01*
X-48530Y-112478D01*
G01X-49055Y-111078D02*
X-50921D01*
G01X-46355Y-112478D02*
Y-108478D01*
X-44896D01*
X-44430Y-108678D01*
X-44138Y-108945D01*
X-44021Y-109478D01*
X-44138Y-110011D01*
X-44488Y-110345D01*
X-44896Y-110545D01*
X-46355D01*
G01X-44896D02*
X-44021Y-112478D01*
G01X-40388D02*
Y-110678D01*
X-41555Y-108478D01*
G01X-39221D02*
X-40388Y-110678D01*
G01X-30788Y-108478D02*
Y-112478D01*
G01X-32130Y-108478D02*
X-29446D01*
G01X-25988Y-112478D02*
X-26455Y-112411D01*
X-26863Y-112145D01*
X-27213Y-111745D01*
X-27446Y-111278D01*
X-27563Y-110745D01*
Y-110211D01*
X-27446Y-109678D01*
X-27213Y-109211D01*
X-26863Y-108811D01*
X-26455Y-108545D01*
X-25988Y-108478D01*
X-25521Y-108545D01*
X-25113Y-108811D01*
X-24763Y-109211D01*
X-24530Y-109678D01*
X-24413Y-110211D01*
Y-110745D01*
X-24530Y-111278D01*
X-24763Y-111745D01*
X-25113Y-112145D01*
X-25521Y-112411D01*
X-25988Y-112478D01*
G01X-17730D02*
Y-108478D01*
X-15046Y-112478D01*
Y-108478D01*
G01X-12813Y-112478D02*
X-10363Y-108478D01*
G01X-12813D02*
X-10363Y-112478D01*
G01X-7955D02*
Y-108478D01*
X-6555D01*
X-6088Y-108678D01*
X-5738Y-109145D01*
X-5621Y-109678D01*
X-5738Y-110211D01*
X-6030Y-110611D01*
X-6555Y-110811D01*
X-7955D01*
G01X1354Y-112478D02*
X2812Y-108478D01*
X4270Y-112478D01*
G01X3745Y-111078D02*
X1879D01*
G01X6270Y-112478D02*
Y-108478D01*
X8954Y-112478D01*
Y-108478D01*
G01X11129Y-112478D02*
Y-108478D01*
X12295D01*
X12762Y-108678D01*
X13112Y-108945D01*
X13404Y-109345D01*
X13637Y-109811D01*
X13695Y-110478D01*
X13637Y-111145D01*
X13404Y-111611D01*
X13112Y-112011D01*
X12762Y-112278D01*
X12295Y-112478D01*
X11129D01*
G01X20787Y-111945D02*
X21254Y-112278D01*
X21779Y-112478D01*
X22245D01*
X22712Y-112278D01*
X23062Y-111945D01*
X23237Y-111478D01*
X23120Y-111011D01*
X22829Y-110611D01*
X22304Y-110345D01*
X21604Y-110211D01*
X21195Y-109945D01*
X21020Y-109478D01*
X21137Y-109011D01*
X21429Y-108678D01*
X21837Y-108478D01*
X22245D01*
X22654Y-108611D01*
X23004Y-108945D01*
G01X25587Y-112478D02*
Y-108478D01*
G01X28037D02*
Y-112478D01*
G01Y-110478D02*
X25587D01*
G01X30154Y-112478D02*
X31612Y-108478D01*
X33070Y-112478D01*
G01X32545Y-111078D02*
X30679D01*
G01X35245Y-108478D02*
Y-112478D01*
X37579D01*
G01X40045Y-108478D02*
Y-112478D01*
X42379D01*
G01X49470D02*
Y-108478D01*
X52154Y-112478D01*
Y-108478D01*
G01X55612Y-112478D02*
X55145Y-112411D01*
X54737Y-112145D01*
X54387Y-111745D01*
X54154Y-111278D01*
X54037Y-110745D01*
Y-110211D01*
X54154Y-109678D01*
X54387Y-109211D01*
X54737Y-108811D01*
X55145Y-108545D01*
X55612Y-108478D01*
X56079Y-108545D01*
X56487Y-108811D01*
X56837Y-109211D01*
X57070Y-109678D01*
X57187Y-110211D01*
Y-110745D01*
X57070Y-111278D01*
X56837Y-111745D01*
X56487Y-112145D01*
X56079Y-112411D01*
X55612Y-112478D01*
G01X60412Y-108478D02*
Y-112478D01*
G01X59070Y-108478D02*
X61754D01*
G01X-96496Y-85811D02*
X-96088Y-85345D01*
X-95738Y-85078D01*
X-95271Y-84945D01*
X-94863Y-85078D01*
X-94571Y-85345D01*
X-94338Y-85745D01*
X-94280Y-86211D01*
X-94338Y-86611D01*
X-94571Y-87011D01*
X-94921Y-87345D01*
X-95330Y-87478D01*
X-95796Y-87345D01*
X-96205Y-86945D01*
X-96438Y-86345D01*
X-96496Y-85678D01*
X-96380Y-84811D01*
X-96205Y-84345D01*
X-95913Y-83878D01*
X-95505Y-83545D01*
X-95096Y-83478D01*
X-94688Y-83611D01*
X-94396Y-83945D01*
G01X-91871Y-86878D02*
X-91521Y-87211D01*
X-91113Y-87411D01*
X-90588Y-87478D01*
X-90063Y-87345D01*
X-89655Y-87078D01*
X-89363Y-86611D01*
X-89305Y-86078D01*
X-89421Y-85545D01*
X-89713Y-85211D01*
X-90121Y-84945D01*
X-90530Y-84878D01*
X-90938Y-84945D01*
X-91463Y-85211D01*
X-91288Y-83478D01*
X-89713D01*
G01X-85788D02*
X-86255Y-83611D01*
X-86605Y-83945D01*
X-86838Y-84345D01*
X-87013Y-84878D01*
X-87071Y-85478D01*
X-87013Y-86078D01*
X-86838Y-86611D01*
X-86605Y-87011D01*
X-86255Y-87345D01*
X-85788Y-87478D01*
X-85321Y-87345D01*
X-84971Y-87011D01*
X-84738Y-86611D01*
X-84563Y-86078D01*
X-84505Y-85478D01*
X-84563Y-84878D01*
X-84738Y-84345D01*
X-84971Y-83945D01*
X-85321Y-83611D01*
X-85788Y-83478D01*
G01X-80988Y-87478D02*
Y-83478D01*
X-81688Y-84278D01*
G01Y-87478D02*
X-80288D01*
G01X-73138Y-83478D02*
X-72321Y-87478D01*
X-71388Y-83478D01*
X-70455Y-87478D01*
X-69638Y-83478D01*
G01X-67288D02*
X-65888D01*
G01X-66588D02*
Y-87478D01*
G01X-67288D02*
X-65888D01*
G01X-62955Y-83478D02*
Y-87478D01*
X-60621D01*
G01X-58155Y-83478D02*
Y-87478D01*
X-55821D01*
G01X-52888Y-83478D02*
X-51488D01*
G01X-52188D02*
Y-87478D01*
G01X-52888D02*
X-51488D01*
G01X-48846D02*
X-47388Y-83478D01*
X-45930Y-87478D01*
G01X-46455Y-86078D02*
X-48321D01*
G01X-44105Y-87478D02*
Y-83478D01*
X-42588Y-86811D01*
X-41071Y-83478D01*
Y-87478D01*
G01X-31705Y-83811D02*
X-32055Y-83611D01*
X-32463Y-83478D01*
X-32930D01*
X-33455Y-83678D01*
X-33863Y-84011D01*
X-34155Y-84411D01*
X-34388Y-85078D01*
X-34446Y-85678D01*
X-34330Y-86278D01*
X-34155Y-86678D01*
X-33805Y-87078D01*
X-33396Y-87345D01*
X-32988Y-87478D01*
X-32580D01*
X-32171Y-87345D01*
X-31821Y-87145D01*
X-31530Y-86878D01*
G01X-29646Y-87478D02*
X-28188Y-83478D01*
X-26730Y-87478D01*
G01X-27255Y-86078D02*
X-29121D01*
G01X-24730Y-87478D02*
Y-83478D01*
X-22046Y-87478D01*
Y-83478D01*
G01X-19930Y-87478D02*
Y-83478D01*
X-17246Y-87478D01*
Y-83478D01*
G01X-13788Y-87478D02*
X-14255Y-87411D01*
X-14663Y-87145D01*
X-15013Y-86745D01*
X-15246Y-86278D01*
X-15363Y-85745D01*
Y-85211D01*
X-15246Y-84678D01*
X-15013Y-84211D01*
X-14663Y-83811D01*
X-14255Y-83545D01*
X-13788Y-83478D01*
X-13321Y-83545D01*
X-12913Y-83811D01*
X-12563Y-84211D01*
X-12330Y-84678D01*
X-12213Y-85211D01*
Y-85745D01*
X-12330Y-86278D01*
X-12563Y-86745D01*
X-12913Y-87145D01*
X-13321Y-87411D01*
X-13788Y-87478D01*
G01X-10330D02*
Y-83478D01*
X-7646Y-87478D01*
Y-83478D01*
G01X-671Y-87478D02*
Y-83478D01*
X495D01*
X962Y-83678D01*
X1312Y-83945D01*
X1604Y-84345D01*
X1837Y-84811D01*
X1895Y-85478D01*
X1837Y-86145D01*
X1604Y-86611D01*
X1312Y-87011D01*
X962Y-87278D01*
X495Y-87478D01*
X-671D01*
G01X4245D02*
Y-83478D01*
X5704D01*
X6170Y-83678D01*
X6462Y-83945D01*
X6579Y-84478D01*
X6462Y-85011D01*
X6112Y-85345D01*
X5704Y-85545D01*
X4245D01*
G01X5704D02*
X6579Y-87478D01*
G01X9512Y-83478D02*
X10912D01*
G01X10212D02*
Y-87478D01*
G01X9512D02*
X10912D01*
G01X13554Y-83478D02*
X15012Y-87478D01*
X16470Y-83478D01*
G01X20979Y-87478D02*
X18645D01*
Y-83478D01*
X20979D01*
G01X20045Y-85411D02*
X18645D01*
G01X27662Y-83478D02*
X28479Y-87478D01*
X29412Y-83478D01*
X30345Y-87478D01*
X31162Y-83478D01*
G01X35379Y-87478D02*
X33045D01*
Y-83478D01*
X35379D01*
G01X34445Y-85411D02*
X33045D01*
G01X37787Y-86945D02*
X38254Y-87278D01*
X38779Y-87478D01*
X39245D01*
X39712Y-87278D01*
X40062Y-86945D01*
X40237Y-86478D01*
X40120Y-86011D01*
X39829Y-85611D01*
X39304Y-85345D01*
X38604Y-85211D01*
X38195Y-84945D01*
X38020Y-84478D01*
X38137Y-84011D01*
X38429Y-83678D01*
X38837Y-83478D01*
X39245D01*
X39654Y-83611D01*
X40004Y-83945D01*
G01X43812Y-83478D02*
Y-87478D01*
G01X42470Y-83478D02*
X45154D01*
G01X-96846Y-94478D02*
X-95388Y-90478D01*
X-93930Y-94478D01*
G01X-94455Y-93078D02*
X-96321D01*
G01X-91871Y-90478D02*
Y-93345D01*
X-91638Y-93945D01*
X-91171Y-94345D01*
X-90588Y-94478D01*
X-90005Y-94345D01*
X-89538Y-93945D01*
X-89305Y-93345D01*
Y-90478D01*
G01X-87013Y-93945D02*
X-86546Y-94278D01*
X-86021Y-94478D01*
X-85555D01*
X-85088Y-94278D01*
X-84738Y-93945D01*
X-84563Y-93478D01*
X-84680Y-93011D01*
X-84971Y-92611D01*
X-85496Y-92345D01*
X-86196Y-92211D01*
X-86605Y-91945D01*
X-86780Y-91478D01*
X-86663Y-91011D01*
X-86371Y-90678D01*
X-85963Y-90478D01*
X-85555D01*
X-85146Y-90611D01*
X-84796Y-90945D01*
G01X-80988Y-90478D02*
Y-94478D01*
G01X-82330Y-90478D02*
X-79646D01*
G01X-76888D02*
X-75488D01*
G01X-76188D02*
Y-94478D01*
G01X-76888D02*
X-75488D01*
G01X-72730D02*
Y-90478D01*
X-70046Y-94478D01*
Y-90478D01*
G01X-66588Y-94611D02*
X-66705Y-94545D01*
Y-94411D01*
X-66588Y-94345D01*
X-66471Y-94411D01*
Y-94545D01*
X-66588Y-94611D01*
G01X-56988Y-90478D02*
Y-94478D01*
G01X-58330Y-90478D02*
X-55646D01*
G01X-51021Y-94478D02*
X-53355D01*
Y-90478D01*
X-51021D01*
G01X-51955Y-92411D02*
X-53355D01*
G01X-48613Y-94478D02*
X-46163Y-90478D01*
G01X-48613D02*
X-46163Y-94478D01*
G01X-44046D02*
X-42588Y-90478D01*
X-41130Y-94478D01*
G01X-41655Y-93078D02*
X-43521D01*
G01X-39013Y-93945D02*
X-38546Y-94278D01*
X-38021Y-94478D01*
X-37555D01*
X-37088Y-94278D01*
X-36738Y-93945D01*
X-36563Y-93478D01*
X-36680Y-93011D01*
X-36971Y-92611D01*
X-37496Y-92345D01*
X-38196Y-92211D01*
X-38605Y-91945D01*
X-38780Y-91478D01*
X-38663Y-91011D01*
X-38371Y-90678D01*
X-37963Y-90478D01*
X-37555D01*
X-37146Y-90611D01*
X-36796Y-90945D01*
G01X-28305Y-94478D02*
X-28188Y-93611D01*
X-28013Y-92878D01*
X-27780Y-92211D01*
X-27488Y-91478D01*
X-27021Y-90478D01*
X-29355D01*
G01X-23388Y-94478D02*
X-22980Y-94411D01*
X-22513Y-94211D01*
X-22221Y-93878D01*
X-22105Y-93411D01*
X-22221Y-92945D01*
X-22571Y-92545D01*
X-23096Y-92345D01*
X-23680D01*
X-24030Y-92211D01*
X-24321Y-91878D01*
X-24438Y-91411D01*
X-24263Y-90945D01*
X-23855Y-90611D01*
X-23388Y-90478D01*
X-22921Y-90611D01*
X-22513Y-90945D01*
X-22338Y-91411D01*
X-22455Y-91878D01*
X-22746Y-92211D01*
X-23096Y-92345D01*
X-23680D01*
X-24205Y-92545D01*
X-24555Y-92945D01*
X-24671Y-93411D01*
X-24555Y-93878D01*
X-24263Y-94211D01*
X-23796Y-94411D01*
X-23388Y-94478D01*
G01X-18705D02*
X-18588Y-93611D01*
X-18413Y-92878D01*
X-18180Y-92211D01*
X-17888Y-91478D01*
X-17421Y-90478D01*
X-19755D01*
G01X-15071Y-93678D02*
X-14721Y-94145D01*
X-14255Y-94411D01*
X-13730Y-94478D01*
X-13263Y-94411D01*
X-12796Y-94078D01*
X-12505Y-93678D01*
X-12446Y-93278D01*
X-12563Y-92811D01*
X-12971Y-92478D01*
X-13380Y-92345D01*
X-13905D01*
G01X-13380D02*
X-13030Y-92145D01*
X-12738Y-91811D01*
X-12621Y-91411D01*
X-12738Y-91011D01*
X-13030Y-90678D01*
X-13555Y-90478D01*
X-14080Y-90545D01*
X-14605Y-90811D01*
G01X-10271Y-93878D02*
X-9921Y-94211D01*
X-9513Y-94411D01*
X-8988Y-94478D01*
X-8463Y-94345D01*
X-8055Y-94078D01*
X-7763Y-93611D01*
X-7705Y-93078D01*
X-7821Y-92545D01*
X-8113Y-92211D01*
X-8521Y-91945D01*
X-8930Y-91878D01*
X-9338Y-91945D01*
X-9863Y-92211D01*
X-9688Y-90478D01*
X-8113D01*
G01X-671D02*
Y-93345D01*
X-438Y-93945D01*
X29Y-94345D01*
X612Y-94478D01*
X1195Y-94345D01*
X1662Y-93945D01*
X1895Y-93345D01*
Y-90478D01*
G01X4187Y-93945D02*
X4654Y-94278D01*
X5179Y-94478D01*
X5645D01*
X6112Y-94278D01*
X6462Y-93945D01*
X6637Y-93478D01*
X6520Y-93011D01*
X6229Y-92611D01*
X5704Y-92345D01*
X5004Y-92211D01*
X4595Y-91945D01*
X4420Y-91478D01*
X4537Y-91011D01*
X4829Y-90678D01*
X5237Y-90478D01*
X5645D01*
X6054Y-90611D01*
X6404Y-90945D01*
G01X8754Y-94478D02*
X10212Y-90478D01*
X11670Y-94478D01*
G01X11145Y-93078D02*
X9279D01*
G01X-93985Y-78478D02*
Y-70978D01*
X-89691Y-78478D01*
Y-70978D01*
G01X-86298Y-78478D02*
X-82378Y-70978D01*
G01X-86298D02*
X-82378Y-78478D01*
G01X-78705D02*
Y-70978D01*
X-76465D01*
X-75718Y-71353D01*
X-75158Y-72228D01*
X-74971Y-73228D01*
X-75158Y-74228D01*
X-75625Y-74978D01*
X-76465Y-75353D01*
X-78705D01*
G01X-63798Y-77478D02*
X-63051Y-78103D01*
X-62211Y-78478D01*
X-61465D01*
X-60718Y-78103D01*
X-60158Y-77478D01*
X-59878Y-76603D01*
X-60065Y-75728D01*
X-60531Y-74978D01*
X-61371Y-74478D01*
X-62491Y-74228D01*
X-63145Y-73728D01*
X-63425Y-72853D01*
X-63238Y-71978D01*
X-62771Y-71353D01*
X-62118Y-70978D01*
X-61465D01*
X-60811Y-71228D01*
X-60251Y-71853D01*
G01X-52471Y-78478D02*
X-56205D01*
Y-70978D01*
X-52471D01*
G01X-53965Y-74603D02*
X-56205D01*
G01X-49265Y-78478D02*
Y-70978D01*
X-46838Y-77228D01*
X-44411Y-70978D01*
Y-78478D01*
G01X-40458Y-70978D02*
X-38218D01*
G01X-39338D02*
Y-78478D01*
G01X-40458D02*
X-38218D01*
G01X-29785Y-71603D02*
X-30345Y-71228D01*
X-30998Y-70978D01*
X-31745D01*
X-32585Y-71353D01*
X-33238Y-71978D01*
X-33705Y-72728D01*
X-34078Y-73978D01*
X-34171Y-75103D01*
X-33985Y-76228D01*
X-33705Y-76978D01*
X-33145Y-77728D01*
X-32491Y-78228D01*
X-31838Y-78478D01*
X-31185D01*
X-30531Y-78228D01*
X-29971Y-77853D01*
X-29505Y-77353D01*
G01X-24338Y-78478D02*
X-25085Y-78353D01*
X-25738Y-77853D01*
X-26298Y-77103D01*
X-26671Y-76228D01*
X-26858Y-75228D01*
Y-74228D01*
X-26671Y-73228D01*
X-26298Y-72353D01*
X-25738Y-71603D01*
X-25085Y-71103D01*
X-24338Y-70978D01*
X-23591Y-71103D01*
X-22938Y-71603D01*
X-22378Y-72353D01*
X-22005Y-73228D01*
X-21818Y-74228D01*
Y-75228D01*
X-22005Y-76228D01*
X-22378Y-77103D01*
X-22938Y-77853D01*
X-23591Y-78353D01*
X-24338Y-78478D01*
G01X-18985D02*
Y-70978D01*
X-14691Y-78478D01*
Y-70978D01*
G01X-11391Y-78478D02*
Y-70978D01*
X-9525D01*
X-8778Y-71353D01*
X-8218Y-71853D01*
X-7751Y-72603D01*
X-7378Y-73478D01*
X-7285Y-74728D01*
X-7378Y-75978D01*
X-7751Y-76853D01*
X-8218Y-77603D01*
X-8778Y-78103D01*
X-9525Y-78478D01*
X-11391D01*
G01X-3891Y-70978D02*
Y-76353D01*
X-3518Y-77478D01*
X-2771Y-78228D01*
X-1838Y-78478D01*
X-905Y-78228D01*
X-158Y-77478D01*
X215Y-76353D01*
Y-70978D01*
G01X7715Y-71603D02*
X7155Y-71228D01*
X6502Y-70978D01*
X5755D01*
X4915Y-71353D01*
X4262Y-71978D01*
X3795Y-72728D01*
X3422Y-73978D01*
X3329Y-75103D01*
X3515Y-76228D01*
X3795Y-76978D01*
X4355Y-77728D01*
X5009Y-78228D01*
X5662Y-78478D01*
X6315D01*
X6969Y-78228D01*
X7529Y-77853D01*
X7995Y-77353D01*
G01X13162Y-70978D02*
Y-78478D01*
G01X11015Y-70978D02*
X15309D01*
G01X20662Y-78478D02*
X19915Y-78353D01*
X19262Y-77853D01*
X18702Y-77103D01*
X18329Y-76228D01*
X18142Y-75228D01*
Y-74228D01*
X18329Y-73228D01*
X18702Y-72353D01*
X19262Y-71603D01*
X19915Y-71103D01*
X20662Y-70978D01*
X21409Y-71103D01*
X22062Y-71603D01*
X22622Y-72353D01*
X22995Y-73228D01*
X23182Y-74228D01*
Y-75228D01*
X22995Y-76228D01*
X22622Y-77103D01*
X22062Y-77853D01*
X21409Y-78353D01*
X20662Y-78478D01*
G01X26295D02*
Y-70978D01*
X28629D01*
X29375Y-71353D01*
X29842Y-71853D01*
X30029Y-72853D01*
X29842Y-73853D01*
X29282Y-74478D01*
X28629Y-74853D01*
X26295D01*
G01X28629D02*
X30029Y-78478D01*
G01X33702Y-77478D02*
X34449Y-78103D01*
X35289Y-78478D01*
X36035D01*
X36782Y-78103D01*
X37342Y-77478D01*
X37622Y-76603D01*
X37435Y-75728D01*
X36969Y-74978D01*
X36129Y-74478D01*
X35009Y-74228D01*
X34355Y-73728D01*
X34075Y-72853D01*
X34262Y-71978D01*
X34729Y-71353D01*
X35382Y-70978D01*
X36035D01*
X36689Y-71228D01*
X37249Y-71853D01*
G01X-46496Y-155478D02*
Y-151478D01*
X-44280D01*
G01X-45096Y-153411D02*
X-46496D01*
G01X-41288Y-151478D02*
X-39888D01*
G01X-40588D02*
Y-155478D01*
G01X-41288D02*
X-39888D01*
G01X-36955Y-151478D02*
Y-155478D01*
X-34621D01*
G01X-32505D02*
Y-151478D01*
X-30988Y-154811D01*
X-29471Y-151478D01*
Y-155478D01*
G01X-16855Y-157678D02*
Y-163978D01*
X-13721D01*
G01X-8048D02*
Y-157678D01*
X-10946Y-162193D01*
X-7030D01*
G01X-5038Y-166078D02*
X-338D01*
G01X2045Y-163978D02*
Y-157678D01*
X3925D01*
X4552Y-157993D01*
X5022Y-158728D01*
X5179Y-159568D01*
X5022Y-160408D01*
X4630Y-161038D01*
X3925Y-161353D01*
X2045D01*
G01X7562Y-157678D02*
X8659Y-163978D01*
X9912Y-157678D01*
X11165Y-163978D01*
X12262Y-157678D01*
G01X14645Y-163978D02*
Y-157678D01*
X16604D01*
X17230Y-157993D01*
X17622Y-158413D01*
X17779Y-159253D01*
X17622Y-160093D01*
X17152Y-160618D01*
X16604Y-160933D01*
X14645D01*
G01X16604D02*
X17779Y-163978D01*
G01X20162Y-166078D02*
X24862D01*
G01X28812Y-163978D02*
Y-157678D01*
X27872Y-158938D01*
G01Y-163978D02*
X29752D01*
G01X81612Y-163478D02*
Y-159478D01*
X80912Y-160278D01*
G01Y-163478D02*
X82312D01*
G01X86412D02*
X86820Y-163411D01*
X87287Y-163211D01*
X87579Y-162878D01*
X87695Y-162411D01*
X87579Y-161945D01*
X87229Y-161545D01*
X86704Y-161345D01*
X86120D01*
X85770Y-161211D01*
X85479Y-160878D01*
X85362Y-160411D01*
X85537Y-159945D01*
X85945Y-159611D01*
X86412Y-159478D01*
X86879Y-159611D01*
X87287Y-159945D01*
X87462Y-160411D01*
X87345Y-160878D01*
X87054Y-161211D01*
X86704Y-161345D01*
X86120D01*
X85595Y-161545D01*
X85245Y-161945D01*
X85129Y-162411D01*
X85245Y-162878D01*
X85537Y-163211D01*
X86004Y-163411D01*
X86412Y-163478D01*
G01X90454Y-162145D02*
X91970D01*
G01X96012Y-159478D02*
X95545Y-159611D01*
X95195Y-159945D01*
X94962Y-160345D01*
X94787Y-160878D01*
X94729Y-161478D01*
X94787Y-162078D01*
X94962Y-162611D01*
X95195Y-163011D01*
X95545Y-163345D01*
X96012Y-163478D01*
X96479Y-163345D01*
X96829Y-163011D01*
X97062Y-162611D01*
X97237Y-162078D01*
X97295Y-161478D01*
X97237Y-160878D01*
X97062Y-160345D01*
X96829Y-159945D01*
X96479Y-159611D01*
X96012Y-159478D01*
G01X99529Y-162678D02*
X99879Y-163145D01*
X100345Y-163411D01*
X100870Y-163478D01*
X101337Y-163411D01*
X101804Y-163078D01*
X102095Y-162678D01*
X102154Y-162278D01*
X102037Y-161811D01*
X101629Y-161478D01*
X101220Y-161345D01*
X100695D01*
G01X101220D02*
X101570Y-161145D01*
X101862Y-160811D01*
X101979Y-160411D01*
X101862Y-160011D01*
X101570Y-159678D01*
X101045Y-159478D01*
X100520Y-159545D01*
X99995Y-159811D01*
G01X104854Y-162145D02*
X106370D01*
G01X110412Y-163478D02*
Y-159478D01*
X109712Y-160278D01*
G01Y-163478D02*
X111112D01*
G01X114220Y-163011D02*
X114629Y-163345D01*
X115095Y-163478D01*
X115562Y-163345D01*
X115970Y-162945D01*
X116262Y-162345D01*
X116379Y-161745D01*
Y-161011D01*
X116262Y-160411D01*
X115970Y-159878D01*
X115620Y-159611D01*
X115212Y-159478D01*
X114745Y-159611D01*
X114395Y-159878D01*
X114162Y-160278D01*
X114045Y-160811D01*
X114162Y-161278D01*
X114454Y-161745D01*
X114804Y-162011D01*
X115212Y-162078D01*
X115679Y-161945D01*
X116029Y-161611D01*
X116379Y-161011D01*
G01X78329Y-155478D02*
Y-151478D01*
X79495D01*
X79962Y-151678D01*
X80312Y-151945D01*
X80604Y-152345D01*
X80837Y-152811D01*
X80895Y-153478D01*
X80837Y-154145D01*
X80604Y-154611D01*
X80312Y-155011D01*
X79962Y-155278D01*
X79495Y-155478D01*
X78329D01*
G01X82954D02*
X84412Y-151478D01*
X85870Y-155478D01*
G01X85345Y-154078D02*
X83479D01*
G01X89212Y-151478D02*
Y-155478D01*
G01X87870Y-151478D02*
X90554D01*
G01X95179Y-155478D02*
X92845D01*
Y-151478D01*
X95179D01*
G01X94245Y-153411D02*
X92845D01*
G01X87862Y-141311D02*
X91362D01*
G01X92662D02*
X96162D01*
G01X97462D02*
X100962D01*
G01X110095Y-136311D02*
X109745Y-136111D01*
X109337Y-135978D01*
X108870D01*
X108345Y-136178D01*
X107937Y-136511D01*
X107645Y-136911D01*
X107412Y-137578D01*
X107354Y-138178D01*
X107470Y-138778D01*
X107645Y-139178D01*
X107995Y-139578D01*
X108404Y-139845D01*
X108812Y-139978D01*
X109220D01*
X109629Y-139845D01*
X109979Y-139645D01*
X110270Y-139378D01*
G01X113612Y-139978D02*
X113145Y-139911D01*
X112737Y-139645D01*
X112387Y-139245D01*
X112154Y-138778D01*
X112037Y-138245D01*
Y-137711D01*
X112154Y-137178D01*
X112387Y-136711D01*
X112737Y-136311D01*
X113145Y-136045D01*
X113612Y-135978D01*
X114079Y-136045D01*
X114487Y-136311D01*
X114837Y-136711D01*
X115070Y-137178D01*
X115187Y-137711D01*
Y-138245D01*
X115070Y-138778D01*
X114837Y-139245D01*
X114487Y-139645D01*
X114079Y-139911D01*
X113612Y-139978D01*
G01X116895D02*
Y-135978D01*
X118412Y-139311D01*
X119929Y-135978D01*
Y-139978D01*
G01X122045D02*
Y-135978D01*
X123445D01*
X123912Y-136178D01*
X124262Y-136645D01*
X124379Y-137178D01*
X124262Y-137711D01*
X123970Y-138111D01*
X123445Y-138311D01*
X122045D01*
G01X126554Y-139978D02*
X128012Y-135978D01*
X129470Y-139978D01*
G01X128945Y-138578D02*
X127079D01*
G01X131470Y-139978D02*
Y-135978D01*
X134154Y-139978D01*
Y-135978D01*
G01X137612Y-139978D02*
Y-138178D01*
X136445Y-135978D01*
G01X138779D02*
X137612Y-138178D01*
G01X148495Y-136311D02*
X148145Y-136111D01*
X147737Y-135978D01*
X147270D01*
X146745Y-136178D01*
X146337Y-136511D01*
X146045Y-136911D01*
X145812Y-137578D01*
X145754Y-138178D01*
X145870Y-138778D01*
X146045Y-139178D01*
X146395Y-139578D01*
X146804Y-139845D01*
X147212Y-139978D01*
X147620D01*
X148029Y-139845D01*
X148379Y-139645D01*
X148670Y-139378D01*
G01X152012Y-139978D02*
X151545Y-139911D01*
X151137Y-139645D01*
X150787Y-139245D01*
X150554Y-138778D01*
X150437Y-138245D01*
Y-137711D01*
X150554Y-137178D01*
X150787Y-136711D01*
X151137Y-136311D01*
X151545Y-136045D01*
X152012Y-135978D01*
X152479Y-136045D01*
X152887Y-136311D01*
X153237Y-136711D01*
X153470Y-137178D01*
X153587Y-137711D01*
Y-138245D01*
X153470Y-138778D01*
X153237Y-139245D01*
X152887Y-139645D01*
X152479Y-139911D01*
X152012Y-139978D01*
G01X155470D02*
Y-135978D01*
X158154Y-139978D01*
Y-135978D01*
G01X160504Y-139978D02*
Y-135978D01*
X162720D01*
G01X161904Y-137911D02*
X160504D01*
G01X165712Y-135978D02*
X167112D01*
G01X166412D02*
Y-139978D01*
G01X165712D02*
X167112D01*
G01X169929D02*
Y-135978D01*
X171095D01*
X171562Y-136178D01*
X171912Y-136445D01*
X172204Y-136845D01*
X172437Y-137311D01*
X172495Y-137978D01*
X172437Y-138645D01*
X172204Y-139111D01*
X171912Y-139511D01*
X171562Y-139778D01*
X171095Y-139978D01*
X169929D01*
G01X177179D02*
X174845D01*
Y-135978D01*
X177179D01*
G01X176245Y-137911D02*
X174845D01*
G01X179470Y-139978D02*
Y-135978D01*
X182154Y-139978D01*
Y-135978D01*
G01X185612D02*
Y-139978D01*
G01X184270Y-135978D02*
X186954D01*
G01X189712D02*
X191112D01*
G01X190412D02*
Y-139978D01*
G01X189712D02*
X191112D01*
G01X193754D02*
X195212Y-135978D01*
X196670Y-139978D01*
G01X196145Y-138578D02*
X194279D01*
G01X198845Y-135978D02*
Y-139978D01*
X201179D01*
G01X87862Y-124811D02*
X91362D01*
G01X92662D02*
X96162D01*
G01X97462D02*
X100962D01*
G01X110095Y-119811D02*
X109745Y-119611D01*
X109337Y-119478D01*
X108870D01*
X108345Y-119678D01*
X107937Y-120011D01*
X107645Y-120411D01*
X107412Y-121078D01*
X107354Y-121678D01*
X107470Y-122278D01*
X107645Y-122678D01*
X107995Y-123078D01*
X108404Y-123345D01*
X108812Y-123478D01*
X109220D01*
X109629Y-123345D01*
X109979Y-123145D01*
X110270Y-122878D01*
G01X113612Y-123478D02*
X113145Y-123411D01*
X112737Y-123145D01*
X112387Y-122745D01*
X112154Y-122278D01*
X112037Y-121745D01*
Y-121211D01*
X112154Y-120678D01*
X112387Y-120211D01*
X112737Y-119811D01*
X113145Y-119545D01*
X113612Y-119478D01*
X114079Y-119545D01*
X114487Y-119811D01*
X114837Y-120211D01*
X115070Y-120678D01*
X115187Y-121211D01*
Y-121745D01*
X115070Y-122278D01*
X114837Y-122745D01*
X114487Y-123145D01*
X114079Y-123411D01*
X113612Y-123478D01*
G01X116895D02*
Y-119478D01*
X118412Y-122811D01*
X119929Y-119478D01*
Y-123478D01*
G01X122045D02*
Y-119478D01*
X123445D01*
X123912Y-119678D01*
X124262Y-120145D01*
X124379Y-120678D01*
X124262Y-121211D01*
X123970Y-121611D01*
X123445Y-121811D01*
X122045D01*
G01X126554Y-123478D02*
X128012Y-119478D01*
X129470Y-123478D01*
G01X128945Y-122078D02*
X127079D01*
G01X131470Y-123478D02*
Y-119478D01*
X134154Y-123478D01*
Y-119478D01*
G01X137612Y-123478D02*
Y-121678D01*
X136445Y-119478D01*
G01X138779D02*
X137612Y-121678D01*
G01X146512Y-119478D02*
X147912D01*
G01X147212D02*
Y-123478D01*
G01X146512D02*
X147912D01*
G01X150670D02*
Y-119478D01*
X153354Y-123478D01*
Y-119478D01*
G01X156812D02*
Y-123478D01*
G01X155470Y-119478D02*
X158154D01*
G01X162779Y-123478D02*
X160445D01*
Y-119478D01*
X162779D01*
G01X161845Y-121411D02*
X160445D01*
G01X165245Y-123478D02*
Y-119478D01*
X166704D01*
X167170Y-119678D01*
X167462Y-119945D01*
X167579Y-120478D01*
X167462Y-121011D01*
X167112Y-121345D01*
X166704Y-121545D01*
X165245D01*
G01X166704D02*
X167579Y-123478D01*
G01X169870D02*
Y-119478D01*
X172554Y-123478D01*
Y-119478D01*
G01X174554Y-123478D02*
X176012Y-119478D01*
X177470Y-123478D01*
G01X176945Y-122078D02*
X175079D01*
G01X179645Y-119478D02*
Y-123478D01*
X181979D01*
G01X87862Y-108811D02*
X91362D01*
G01X92662D02*
X96162D01*
G01X97462D02*
X100962D01*
G01X110095Y-103811D02*
X109745Y-103611D01*
X109337Y-103478D01*
X108870D01*
X108345Y-103678D01*
X107937Y-104011D01*
X107645Y-104411D01*
X107412Y-105078D01*
X107354Y-105678D01*
X107470Y-106278D01*
X107645Y-106678D01*
X107995Y-107078D01*
X108404Y-107345D01*
X108812Y-107478D01*
X109220D01*
X109629Y-107345D01*
X109979Y-107145D01*
X110270Y-106878D01*
G01X113612Y-107478D02*
X113145Y-107411D01*
X112737Y-107145D01*
X112387Y-106745D01*
X112154Y-106278D01*
X112037Y-105745D01*
Y-105211D01*
X112154Y-104678D01*
X112387Y-104211D01*
X112737Y-103811D01*
X113145Y-103545D01*
X113612Y-103478D01*
X114079Y-103545D01*
X114487Y-103811D01*
X114837Y-104211D01*
X115070Y-104678D01*
X115187Y-105211D01*
Y-105745D01*
X115070Y-106278D01*
X114837Y-106745D01*
X114487Y-107145D01*
X114079Y-107411D01*
X113612Y-107478D01*
G01X116895D02*
Y-103478D01*
X118412Y-106811D01*
X119929Y-103478D01*
Y-107478D01*
G01X122045D02*
Y-103478D01*
X123445D01*
X123912Y-103678D01*
X124262Y-104145D01*
X124379Y-104678D01*
X124262Y-105211D01*
X123970Y-105611D01*
X123445Y-105811D01*
X122045D01*
G01X126554Y-107478D02*
X128012Y-103478D01*
X129470Y-107478D01*
G01X128945Y-106078D02*
X127079D01*
G01X131470Y-107478D02*
Y-103478D01*
X134154Y-107478D01*
Y-103478D01*
G01X137612Y-107478D02*
Y-105678D01*
X136445Y-103478D01*
G01X138779D02*
X137612Y-105678D01*
G01X146045Y-107478D02*
Y-103478D01*
X147445D01*
X147912Y-103678D01*
X148262Y-104145D01*
X148379Y-104678D01*
X148262Y-105211D01*
X147970Y-105611D01*
X147445Y-105811D01*
X146045D01*
G01X150729Y-103478D02*
Y-106345D01*
X150962Y-106945D01*
X151429Y-107345D01*
X152012Y-107478D01*
X152595Y-107345D01*
X153062Y-106945D01*
X153295Y-106345D01*
Y-103478D01*
G01X157279Y-105345D02*
X157512Y-105145D01*
X157687Y-104811D01*
X157804Y-104345D01*
X157687Y-103945D01*
X157454Y-103678D01*
X157045Y-103478D01*
X155470D01*
Y-107478D01*
X157395D01*
X157804Y-107211D01*
X158037Y-106811D01*
X158154Y-106345D01*
X158037Y-105878D01*
X157687Y-105478D01*
X157279Y-105345D01*
X155470D01*
G01X160445Y-103478D02*
Y-107478D01*
X162779D01*
G01X165712Y-103478D02*
X167112D01*
G01X166412D02*
Y-107478D01*
G01X165712D02*
X167112D01*
G01X172495Y-103811D02*
X172145Y-103611D01*
X171737Y-103478D01*
X171270D01*
X170745Y-103678D01*
X170337Y-104011D01*
X170045Y-104411D01*
X169812Y-105078D01*
X169754Y-105678D01*
X169870Y-106278D01*
X170045Y-106678D01*
X170395Y-107078D01*
X170804Y-107345D01*
X171212Y-107478D01*
X171620D01*
X172029Y-107345D01*
X172379Y-107145D01*
X172670Y-106878D01*
G01X78270Y-75478D02*
Y-71478D01*
X80954Y-75478D01*
Y-71478D01*
G01X82954Y-75478D02*
X84412Y-71478D01*
X85870Y-75478D01*
G01X85345Y-74078D02*
X83479D01*
G01X87695Y-75478D02*
Y-71478D01*
X89212Y-74811D01*
X90729Y-71478D01*
Y-75478D01*
G01X95179D02*
X92845D01*
Y-71478D01*
X95179D01*
G01X94245Y-73411D02*
X92845D01*
G01X93367Y-106978D02*
X96657Y-100678D01*
G01X93367D02*
X96657Y-106978D01*
G01X128270Y-155478D02*
Y-151478D01*
X130954Y-155478D01*
Y-151478D01*
G01X133129D02*
Y-154345D01*
X133362Y-154945D01*
X133829Y-155345D01*
X134412Y-155478D01*
X134995Y-155345D01*
X135462Y-154945D01*
X135695Y-154345D01*
Y-151478D01*
G01X137695Y-155478D02*
Y-151478D01*
X139212Y-154811D01*
X140729Y-151478D01*
Y-155478D01*
G01X144479Y-153345D02*
X144712Y-153145D01*
X144887Y-152811D01*
X145004Y-152345D01*
X144887Y-151945D01*
X144654Y-151678D01*
X144245Y-151478D01*
X142670D01*
Y-155478D01*
X144595D01*
X145004Y-155211D01*
X145237Y-154811D01*
X145354Y-154345D01*
X145237Y-153878D01*
X144887Y-153478D01*
X144479Y-153345D01*
X142670D01*
G01X149979Y-155478D02*
X147645D01*
Y-151478D01*
X149979D01*
G01X149045Y-153411D02*
X147645D01*
G01X152445Y-155478D02*
Y-151478D01*
X153904D01*
X154370Y-151678D01*
X154662Y-151945D01*
X154779Y-152478D01*
X154662Y-153011D01*
X154312Y-153345D01*
X153904Y-153545D01*
X152445D01*
G01X153904D02*
X154779Y-155478D01*
G01X163212Y-162478D02*
Y-156178D01*
X162272Y-157438D01*
G01Y-162478D02*
X164152D01*
G01X169355D02*
X169512Y-161113D01*
X169747Y-159958D01*
X170060Y-158908D01*
X170452Y-157753D01*
X171079Y-156178D01*
X167945D01*
G01X175812D02*
X175185Y-156388D01*
X174715Y-156913D01*
X174402Y-157543D01*
X174167Y-158383D01*
X174089Y-159328D01*
X174167Y-160273D01*
X174402Y-161113D01*
X174715Y-161743D01*
X175185Y-162268D01*
X175812Y-162478D01*
X176439Y-162268D01*
X176909Y-161743D01*
X177222Y-161113D01*
X177457Y-160273D01*
X177535Y-159328D01*
X177457Y-158383D01*
X177222Y-157543D01*
X176909Y-156913D01*
X176439Y-156388D01*
X175812Y-156178D01*
G01X181094Y-160378D02*
X183130D01*
G01X189352Y-162478D02*
Y-156178D01*
X186454Y-160693D01*
X190370D01*
G01X192989Y-161533D02*
X193459Y-162058D01*
X194007Y-162373D01*
X194712Y-162478D01*
X195417Y-162268D01*
X195965Y-161848D01*
X196357Y-161113D01*
X196435Y-160273D01*
X196279Y-159433D01*
X195887Y-158908D01*
X195339Y-158488D01*
X194790Y-158383D01*
X194242Y-158488D01*
X193537Y-158908D01*
X193772Y-156178D01*
X195887D01*
G01X199524Y-159853D02*
X200072Y-159118D01*
X200542Y-158698D01*
X201169Y-158488D01*
X201717Y-158698D01*
X202109Y-159118D01*
X202422Y-159748D01*
X202500Y-160483D01*
X202422Y-161113D01*
X202109Y-161743D01*
X201639Y-162268D01*
X201090Y-162478D01*
X200464Y-162268D01*
X199915Y-161638D01*
X199602Y-160693D01*
X199524Y-159643D01*
X199680Y-158278D01*
X199915Y-157543D01*
X200307Y-156808D01*
X200855Y-156283D01*
X201404Y-156178D01*
X201952Y-156388D01*
X202344Y-156913D01*
G01X205980Y-161743D02*
X206529Y-162268D01*
X207155Y-162478D01*
X207782Y-162268D01*
X208330Y-161638D01*
X208722Y-160693D01*
X208879Y-159748D01*
Y-158593D01*
X208722Y-157648D01*
X208330Y-156808D01*
X207860Y-156388D01*
X207312Y-156178D01*
X206685Y-156388D01*
X206215Y-156808D01*
X205902Y-157438D01*
X205745Y-158278D01*
X205902Y-159013D01*
X206294Y-159748D01*
X206764Y-160168D01*
X207312Y-160273D01*
X207939Y-160063D01*
X208409Y-159538D01*
X208879Y-158593D01*
G01X212280Y-161743D02*
X212829Y-162268D01*
X213455Y-162478D01*
X214082Y-162268D01*
X214630Y-161638D01*
X215022Y-160693D01*
X215179Y-159748D01*
Y-158593D01*
X215022Y-157648D01*
X214630Y-156808D01*
X214160Y-156388D01*
X213612Y-156178D01*
X212985Y-156388D01*
X212515Y-156808D01*
X212202Y-157438D01*
X212045Y-158278D01*
X212202Y-159013D01*
X212594Y-159748D01*
X213064Y-160168D01*
X213612Y-160273D01*
X214239Y-160063D01*
X214709Y-159538D01*
X215179Y-158593D01*
G01X256145Y-162478D02*
Y-156178D01*
X258104D01*
X258730Y-156493D01*
X259122Y-156913D01*
X259279Y-157753D01*
X259122Y-158593D01*
X258652Y-159118D01*
X258104Y-159433D01*
X256145D01*
G01X258104D02*
X259279Y-162478D01*
G01X265579D02*
X262445D01*
Y-156178D01*
X265579D01*
G01X264325Y-159223D02*
X262445D01*
G01X268354Y-156178D02*
X270312Y-162478D01*
X272270Y-156178D01*
G01X280954Y-162478D02*
X282912Y-156178D01*
X284870Y-162478D01*
G01X284165Y-160273D02*
X281659D01*
G01X165212Y-89478D02*
X165760Y-89373D01*
X166387Y-89058D01*
X166779Y-88533D01*
X166935Y-87798D01*
X166779Y-87063D01*
X166309Y-86433D01*
X165604Y-86118D01*
X164820D01*
X164350Y-85908D01*
X163959Y-85383D01*
X163802Y-84648D01*
X164037Y-83913D01*
X164585Y-83388D01*
X165212Y-83178D01*
X165839Y-83388D01*
X166387Y-83913D01*
X166622Y-84648D01*
X166465Y-85383D01*
X166074Y-85908D01*
X165604Y-86118D01*
X164820D01*
X164115Y-86433D01*
X163645Y-87063D01*
X163489Y-87798D01*
X163645Y-88533D01*
X164037Y-89058D01*
X164664Y-89373D01*
X165212Y-89478D01*
G01X169475D02*
Y-83178D01*
X171512Y-88428D01*
X173549Y-83178D01*
Y-89478D01*
G01X176010D02*
Y-83178D01*
X179614Y-89478D01*
Y-83178D01*
G01X182154Y-89478D02*
X184112Y-83178D01*
X186070Y-89478D01*
G01X185365Y-87273D02*
X182859D01*
G01X188610Y-89478D02*
Y-83178D01*
X192214Y-89478D01*
Y-83178D01*
G01X196712Y-89478D02*
X196085Y-89373D01*
X195537Y-88953D01*
X195067Y-88323D01*
X194754Y-87588D01*
X194597Y-86748D01*
Y-85908D01*
X194754Y-85068D01*
X195067Y-84333D01*
X195537Y-83703D01*
X196085Y-83283D01*
X196712Y-83178D01*
X197339Y-83283D01*
X197887Y-83703D01*
X198357Y-84333D01*
X198670Y-85068D01*
X198827Y-85908D01*
Y-86748D01*
X198670Y-87588D01*
X198357Y-88323D01*
X197887Y-88953D01*
X197339Y-89373D01*
X196712Y-89478D01*
G01X201289D02*
Y-83178D01*
X202855D01*
X203482Y-83493D01*
X203952Y-83913D01*
X204344Y-84543D01*
X204657Y-85278D01*
X204735Y-86328D01*
X204657Y-87378D01*
X204344Y-88113D01*
X203952Y-88743D01*
X203482Y-89163D01*
X202855Y-89478D01*
X201289D01*
G01X210252D02*
Y-83178D01*
X207354Y-87693D01*
X211270D01*
G01X214594Y-87378D02*
X216630D01*
G01X223479Y-89478D02*
X220345D01*
Y-83178D01*
X223479D01*
G01X222225Y-86223D02*
X220345D01*
G01X226254Y-83178D02*
X228212Y-89478D01*
X230170Y-83178D01*
G01X232789Y-89478D02*
Y-83178D01*
G01X235765D02*
X232789Y-87063D01*
G01X236235Y-89478D02*
X234120Y-85278D01*
M02*
