G04 ================== begin FILE IDENTIFICATION RECORD ==================*
G04 Layout Name:  C:/WORK/2019project/IMX815/FabOutput/Lay-45699_A.brd*
G04 Film Name:    L6_SS.art*
G04 File Format:  Gerber RS274X*
G04 File Origin:  Cadence Allegro 17.2-S046*
G04 Origin Date:  Fri Mar 22 13:38:45 2019*
G04 *
G04 Layer:  MANUFACTURING/SECONDARY_SIDE*
G04 Layer:  DRAWING FORMAT/FILM_TITLE_BLOCK*
G04 Layer:  BOARD GEOMETRY/OUTLINE*
G04 Layer:  ETCH/BOTTOM*
G04 Layer:  PIN/BOTTOM*
G04 Layer:  VIA CLASS/BOTTOM*
G04 *
G04 Offset:    (0.00 0.00)*
G04 Mirror:    No*
G04 Mode:      Positive*
G04 Rotation:  0*
G04 FullContactRelief:  No*
G04 UndefLineWidth:     8.00*
G04 ================== end FILE IDENTIFICATION RECORD ====================*
%FSLAX55Y55*MOIN*%
%IR0*IPPOS*OFA0.00000B0.00000*MIA0B0*SFA1.00000B1.00000*%
%ADD30C,.01*%
%ADD29C,.02*%
%ADD18C,.04*%
%ADD20C,.05*%
%ADD26C,.06*%
%ADD27C,.025*%
%ADD10C,.016*%
%ADD25C,.035*%
%ADD31R,.028X.008*%
%ADD22R,.008X.027*%
%ADD14C,.018*%
%ADD24R,.008X.028*%
%ADD19C,.064*%
%ADD17R,.012X.012*%
%ADD23R,.06X.06*%
%ADD15R,.02X.018*%
%ADD11C,.2*%
%ADD16R,.018X.02*%
%ADD21R,.014X.027*%
%ADD12R,.033X.028*%
%ADD13R,.028X.033*%
%ADD28R,.028X.035*%
%ADD32C,.012*%
%ADD33C,.015*%
%ADD34C,.003*%
%ADD35C,.0041*%
%ADD36C,.008*%
%ADD37C,.0042*%
%ADD38C,.0033*%
%ADD39C,.006*%
%ADD40C,.007*%
%ADD41C,.0045*%
%ADD42C,.0036*%
%ADD49R,.018X.008*%
%ADD50R,.019X.009*%
%ADD44C,.02604*%
%ADD43C,.02804*%
%ADD48R,.021X.011*%
%ADD47R,.021X.012*%
%ADD55R,.025X.012*%
%ADD52R,.024X.014*%
%ADD51R,.027X.012*%
%ADD45R,.025X.014*%
%ADD56R,.028X.012*%
%ADD54R,.015X.025*%
%ADD46R,.025X.015*%
%ADD53R,.017X.024*%
G75*
%LPD*%
G75*
G36*
G01X164100Y75600D02*
X166600D01*
X167100Y75100D01*
Y73000D01*
X167600Y72500D01*
X178700D01*
X179200Y72000D01*
Y70600D01*
X180200Y69600D01*
X180998D01*
Y69322D01*
X183002D01*
Y69600D01*
X183400D01*
X184000Y69000D01*
X189600D01*
X190000Y68600D01*
Y66183D01*
G03Y64217I1001J-983D01*
G01Y63800D01*
X192300Y61500D01*
X192505D01*
Y61286D01*
X192503Y61272D01*
G03X192498Y61200I497J-71D01*
G03X193000Y60698I502J0D01*
G01X193800D01*
G03X194299Y61144I0J502D01*
G02X194697Y61500I398J-44D01*
G01X196200D01*
X197900Y59800D01*
Y9800D01*
X190100Y2000D01*
X82000D01*
X81794Y1794D01*
X9996D01*
G02X1797Y9993I0J8199D01*
G01Y74700D01*
X4800D01*
X9100Y70400D01*
X19400D01*
X23800Y66000D01*
Y60500D01*
X25200Y59100D01*
Y57500D01*
X24500Y56800D01*
X22492D01*
Y57428D01*
X20200D01*
Y60400D01*
X19700Y60900D01*
X8100D01*
X6300Y59100D01*
Y56200D01*
X6986Y55513D01*
Y55124D01*
X8992D01*
X9052Y55148D01*
X9600Y54600D01*
Y51600D01*
X10100Y51100D01*
X18400D01*
X18900Y50600D01*
Y35500D01*
X18200Y34800D01*
X10700D01*
X8800Y32900D01*
Y25100D01*
X10000Y23900D01*
X12700D01*
X13000Y23600D01*
Y19000D01*
X14900Y17100D01*
X16001D01*
X16553Y16548D01*
X23637D01*
G02X23895Y15843I0J-400D01*
G03X23435Y14850I842J-993D01*
G03X26039I1302J0D01*
G03X25579Y15843I-1302J0D01*
G02X25837Y16548I258J305D01*
G01X32574D01*
X33126Y17100D01*
X34800D01*
X40751Y23051D01*
G02X41431Y22820I283J-283D01*
G03X41754Y22115I1291J165D01*
G02X41753Y21846I-149J-134D01*
G03X41620Y21507I366J-339D01*
G01Y20307D01*
G03X41844Y19890I502J1D01*
G01X41932Y19831D01*
Y19590D01*
X43512D01*
Y19831D01*
X43600Y19890D01*
G03X43690Y19967I-279J417D01*
G02X44278I294J-272D01*
G03X44368Y19890I369J340D01*
G01X44456Y19831D01*
Y19590D01*
X46036D01*
Y19831D01*
X46124Y19890D01*
G03X46348Y20307I-278J418D01*
G01Y21507D01*
G03X46148Y21908I-502J0D01*
G01Y22191D01*
X46201Y22249D01*
G03X46548Y23134I-955J885D01*
G03X45246Y24436I-1302J0D01*
G03X44230Y23948I0J-1302D01*
G02X43636Y23913I-313J250D01*
G03X42888Y24277I-914J-927D01*
G02X42657Y24957I52J397D01*
G01X45500Y27800D01*
Y30900D01*
X45400D01*
X45200Y31100D01*
X44754D01*
Y31330D01*
X42748D01*
Y31100D01*
X41278D01*
Y31116D01*
X39700D01*
Y31100D01*
X38360D01*
Y31330D01*
X36356D01*
Y31100D01*
X35200D01*
X34700Y30600D01*
Y28400D01*
X33400Y27100D01*
X28800D01*
X28400Y27500D01*
Y27848D01*
X28566D01*
Y29852D01*
X28400D01*
Y31456D01*
X28566D01*
Y33462D01*
X28400D01*
Y38400D01*
X27400Y39400D01*
Y49000D01*
X27849Y49448D01*
X28413D01*
G03X28724Y49557I-1J502D01*
G01X28779Y49600D01*
X29000D01*
X29200Y49800D01*
Y49948D01*
X29566D01*
Y51952D01*
X29200D01*
Y53348D01*
X29566D01*
Y55700D01*
X52300D01*
X53600Y54400D01*
Y51400D01*
X54700Y50300D01*
X55200D01*
Y50102D01*
X56698D01*
X56800Y50000D01*
Y49900D01*
X57000D01*
X58450Y51350D01*
X70350D01*
X70700Y51700D01*
Y61500D01*
X67500Y64700D01*
X39900D01*
X38900Y65700D01*
Y75000D01*
X39300Y75400D01*
X63352D01*
G02X63697Y74798I0J-400D01*
G03X63518Y74139I1124J-659D01*
G03X64820Y72837I1302J0D01*
G03X65839Y73328I0J1303D01*
G02X66116Y73363I156J-124D01*
G03X66904Y73098I787J1037D01*
G03X68206Y74400I0J1302D01*
G03X68122Y74859I-1302J-1D01*
G02X68497Y75400I374J141D01*
G01X71600D01*
X75200Y71800D01*
Y65908D01*
G02X74669Y65530I-400J0D01*
G03X74242Y65602I-427J-1230D01*
G03Y62998I0J-1302D01*
G03X74669Y63070I0J1302D01*
G02X75200Y62692I131J-378D01*
G01Y56249D01*
G02X74667Y55872I-400J0D01*
G03X74200Y55952I-467J-1323D01*
G03Y53148I0J-1402D01*
G03X74667Y53228I0J1403D01*
G02X75200Y52851I133J-377D01*
G01Y35200D01*
X72800Y32800D01*
X59700D01*
X58900Y32000D01*
Y23300D01*
X62200Y20000D01*
X71407D01*
G02X71782Y19459I1J-400D01*
G03X71698Y19000I1218J-460D01*
G03X72070Y18089I1301J0D01*
G02Y17809I-143J-140D01*
G03X71698Y16898I929J-911D01*
G03X73000Y15596I1302J0D01*
G03X74288Y16709I0J1302D01*
G02X74967Y16933I396J-58D01*
G01X76900Y15000D01*
X81300D01*
X82800Y13500D01*
Y10700D01*
X84388D01*
G03X86270I941J900D01*
G01X86400D01*
X87000Y10100D01*
Y5600D01*
X87600Y5000D01*
X104900D01*
X106000Y6100D01*
Y9800D01*
X106900Y10700D01*
X123398D01*
Y10268D01*
X123399Y10203D01*
G03X133403Y10304I5001J147D01*
G02X133803Y10700I400J-4D01*
G01X141400D01*
X142600Y9500D01*
X163900D01*
X167450Y13050D01*
Y18650D01*
X168700Y19900D01*
Y29997D01*
X168936Y30232D01*
Y41223D01*
G02X169638Y41484I400J0D01*
G03X170700Y40998I1062J917D01*
G03X172102Y42400I0J1402D01*
G03X171774Y43301I-1402J0D01*
G02X171820Y43861I307J257D01*
G03X172307Y44924I-915J1062D01*
G03X171513Y46187I-1402J0D01*
G01X171400Y46242D01*
Y58600D01*
X162700Y67300D01*
Y74200D01*
X164100Y75600D01*
G37*
G36*
G01X9700Y197700D02*
X191000D01*
X197900Y190800D01*
Y110100D01*
X195400Y107600D01*
X188800D01*
X188000Y108400D01*
Y114100D01*
X185200Y116900D01*
X181800D01*
X172100Y126600D01*
X163400D01*
X156600Y133400D01*
Y159820D01*
X162752Y165972D01*
X162851Y165958D01*
G03X163029Y165946I176J1290D01*
G03X161727Y167248I0J1302D01*
G03X161739Y167070I1302J-2D01*
G01X161753Y166971D01*
X157283Y162501D01*
G02X156600Y162784I-283J283D01*
G01Y183100D01*
X143100Y196600D01*
Y196800D01*
X142800Y197100D01*
X48900D01*
X45500Y193700D01*
Y186598D01*
X18102Y159200D01*
X17000D01*
X15989Y158189D01*
G02X15309Y158518I-283J283D01*
G03X10389Y164092I-4970J572D01*
G01X10289D01*
G03X6520Y155858I50J-5002D01*
G02X6215Y155200I-305J-258D01*
G01X4200D01*
X2100Y157300D01*
Y190100D01*
X9700Y197700D01*
G37*
G36*
G01X10599Y33112D02*
Y25830D01*
X18899D01*
Y33112D01*
X10599D01*
G37*
G36*
G01X18899Y52964D02*
Y60246D01*
X10599D01*
Y52964D01*
X18899D01*
G37*
G36*
G01X26360Y40198D02*
X21342D01*
Y48543D01*
X22199Y49400D01*
X25503D01*
X26360Y48543D01*
Y40198D01*
G37*
G36*
G01X21100Y75800D02*
X21900Y76600D01*
X35500D01*
X36700Y75400D01*
Y65700D01*
X36000Y65000D01*
X25200D01*
X24700Y65500D01*
Y67600D01*
X21100Y71200D01*
Y75800D01*
G37*
G36*
G01X40450Y56539D02*
Y59839D01*
Y61550D01*
Y62450D01*
X40500Y62500D01*
X40800Y62800D01*
X48300D01*
X48439Y62661D01*
Y61650D01*
Y56509D01*
X45139D01*
X40480D01*
X40450Y56539D01*
G37*
G36*
G01X59800Y30600D02*
X60300Y31100D01*
X69700D01*
X70800Y30000D01*
Y23100D01*
X69200Y21500D01*
X62000D01*
X59800Y23700D01*
Y30600D01*
G37*
G36*
G01X57700Y61100D02*
X58400Y61800D01*
X67700D01*
X69500Y60000D01*
Y53300D01*
X68900Y52700D01*
X59400D01*
X57700Y54400D01*
Y61100D01*
G37*
G36*
G01X78489Y113790D02*
X78589Y113690D01*
Y112490D01*
X78604Y112474D01*
Y112322D01*
X78757D01*
X79389Y111690D01*
Y109000D01*
X79387Y108987D01*
G03X79376Y108816I1291J-169D01*
G03X79387Y108645I1302J-2D01*
G01X79389Y108632D01*
Y108240D01*
X78639Y107490D01*
X77289D01*
X76611Y106812D01*
X76180D01*
Y104808D01*
X76471D01*
X77889Y103390D01*
X81089D01*
X81789Y104090D01*
X83289D01*
X83789Y104590D01*
Y104990D01*
X83985Y105186D01*
X84993D01*
X85189Y104990D01*
Y103890D01*
X83789Y102490D01*
Y100505D01*
X83698Y100415D01*
Y89299D01*
X83300Y88900D01*
X73479D01*
X68989Y93390D01*
Y111890D01*
X69093Y111994D01*
X72209D01*
G02X72606Y111548I0J-400D01*
G03X72836Y110649I1294J-148D01*
G02X72634Y110038I-326J-231D01*
G03X73919Y107843I402J-1238D01*
G02X74192Y107841I135J-147D01*
G03X76205Y109454I895J946D01*
G02X76443Y110044I344J204D01*
G03X77089Y112147I-343J1256D01*
G01Y113515D01*
X77327Y113753D01*
G03X77419Y113790I-443J1235D01*
G01X78489D01*
G37*
G36*
G01X79236Y141890D02*
X86789D01*
X89989Y138690D01*
Y136409D01*
G02X89351Y136088I-400J0D01*
G03X88575Y136344I-775J-1046D01*
G03X87731Y136034I-1J-1302D01*
G02X87212I-259J304D01*
G03X86367Y136346I-846J-990D01*
G03X85065Y135044I0J-1302D01*
G03X85461Y134109I1302J0D01*
G02X85490Y133567I-279J-287D01*
G03X85191Y132736I1003J-830D01*
G03X85502Y131892I1301J0D01*
G02X85488Y131358I-305J-259D01*
G03X85428Y131290I946J-895D01*
G01X81831D01*
G03X81719Y131427I-1062J-754D01*
G02X81743Y131722I146J137D01*
G03X82249Y132753I-797J1031D01*
G03X81910Y133629I-1301J0D01*
G02X81885Y134137I296J269D01*
G03X82143Y134915I-1044J778D01*
G03X80841Y136217I-1302J0D01*
G03X79968Y135881I0J-1302D01*
G02X79432I-268J297D01*
G03X78561Y136215I-871J-969D01*
G03X77259Y134913I0J-1302D01*
G03X77609Y134025I1301J0D01*
G02X77639Y133516I-293J-273D01*
G03X77387Y132746I1050J-770D01*
G03X78689Y131444I1302J0D01*
G03X79670Y131890I0J1302D01*
G02X79971Y131891I151J-131D01*
G03X79996Y131864I968J871D01*
G02X79972Y131569I-146J-137D01*
G03X79466Y130538I797J-1031D01*
G03X80469Y129271I1302J0D01*
G01X80622Y129235D01*
Y127700D01*
X80878D01*
X80989Y127590D01*
X81066D01*
X81117Y127556D01*
G03X81239Y127501I224J334D01*
G01X81291Y127488D01*
X81689Y127090D01*
Y126190D01*
X81230Y125731D01*
X81106Y125785D01*
G03X80589Y125892I-517J-1196D01*
G03X79892Y125690I0J-1302D01*
G01X78389D01*
X77689Y124990D01*
X77389D01*
X76801Y124402D01*
X76248D01*
Y122279D01*
G03X75921Y122061I550J-1180D01*
G02X75652I-135J148D01*
G03X74773Y122402I-879J-962D01*
G03X73974Y122128I0J-1302D01*
G02X73461Y122146I-246J316D01*
G03X72592Y122479I-870J-969D01*
G03X71290Y121177I0J-1302D01*
G03X71652Y120276I1302J0D01*
G02X71645Y119715I-288J-277D01*
G03X71260Y118790I917J-924D01*
G03X72562Y117488I1302J0D01*
G03X73407Y117799I0J1302D01*
G02X73674Y117793I130J-152D01*
G03X74566Y117439I892J947D01*
G03X75425Y117763I0J1301D01*
G02X75693Y117759I132J-151D01*
G03X76576Y117414I883J957D01*
G03X77878Y118716I0J1302D01*
G03X77583Y119541I-1301J0D01*
G02X77636Y120102I309J254D01*
G03X78102Y121100I-836J998D01*
G03X77997Y121611I-1302J-1D01*
G01X77981Y121649D01*
Y121890D01*
X78536D01*
X79288Y121139D01*
Y121030D01*
X79339Y120978D01*
Y120640D01*
X79426Y120553D01*
X79441Y120508D01*
G03X79474Y120419I1236J408D01*
G01X79489Y120382D01*
Y119490D01*
X79289Y119290D01*
Y118690D01*
X78339Y117740D01*
X78248D01*
Y117650D01*
X78089Y117490D01*
Y116190D01*
X77989Y116090D01*
X77588D01*
X77541Y116117D01*
G03X77418Y116180I-654J-1126D01*
G01X77384Y116195D01*
X77289Y116290D01*
X76956D01*
G03X76889Y116292I-72J-1300D01*
G03X76822Y116290I5J-1302D01*
G01X76289D01*
X75489Y115490D01*
Y114990D01*
X75389Y114890D01*
X74291D01*
G02X74091Y115090I0J200D01*
G03X73511Y116173I-1301J0D01*
G01X73495Y116184D01*
X73439Y116240D01*
X73401D01*
X73360Y116260D01*
G03X72218I-571J-1169D01*
G01X72177Y116240D01*
X71839D01*
X71589Y115990D01*
X66289D01*
X66189Y116090D01*
Y117290D01*
X67089Y118190D01*
X67689D01*
X68689Y119190D01*
Y123778D01*
X73878D01*
X75483Y125384D01*
X75600Y125346D01*
G03X76004Y125282I403J1238D01*
G03X77306Y126584I0J1302D01*
G03X76739Y127658I-1301J0D01*
G02X76642Y128224I226J330D01*
G03X76891Y128990I-1054J766D01*
G03X76375Y130028I-1302J0D01*
G01X76296Y130088D01*
Y130203D01*
X75292Y131206D01*
X74661D01*
Y131580D01*
X74833Y131605D01*
G03X75955Y132894I-179J1289D01*
G03X74653Y134196I-1302J0D01*
G03X74607Y134195I5J-1302D01*
G02X74196Y134550I-14J400D01*
G03X72902Y135706I-1294J-146D01*
G03X71600Y134404I0J-1302D01*
G03X71612Y134226I1302J-2D01*
G01X71626Y134127D01*
X71360Y133862D01*
X67489D01*
Y140390D01*
X68441Y141342D01*
G02X69041Y141304I283J-282D01*
G03X70071Y140798I1030J795D01*
G03X71324Y141745I0J1302D01*
G01X71365Y141890D01*
X77164D01*
G03X79236I1036J787D01*
G37*
G36*
G01X70571Y129794D02*
X71600D01*
G02X71988Y129299I-1J-400D01*
G03X71951Y128990I1265J-308D01*
G03X72524Y127911I1302J0D01*
G02X72627Y127350I-224J-331D01*
G03X72389Y126600I1063J-750D01*
G03X72401Y126422I1302J-2D01*
G01X72415Y126323D01*
X72103Y126012D01*
X71005D01*
X70306Y126710D01*
Y129093D01*
X70288Y129111D01*
G02X70571Y129794I283J283D01*
G37*
G36*
G01X86407Y21427D02*
Y24727D01*
X87207D01*
Y21427D01*
X87981D01*
Y24727D01*
X88781D01*
Y21427D01*
X89556D01*
Y24727D01*
X90356D01*
Y21427D01*
X91131D01*
Y24727D01*
X91931D01*
Y16427D01*
X86407D01*
Y21427D01*
G37*
G36*
G01X91930Y37353D02*
Y34053D01*
X91130D01*
Y37353D01*
X90356D01*
Y34053D01*
X89556D01*
Y37353D01*
X88781D01*
Y34053D01*
X87981D01*
Y37353D01*
X87206D01*
Y34053D01*
X86406D01*
Y42353D01*
X87293Y43240D01*
Y52397D01*
X88133Y53237D01*
X91229D01*
X91930Y52536D01*
Y42353D01*
Y37353D01*
G37*
G36*
G01X94236Y91726D02*
X96909D01*
Y86279D01*
X99200Y83988D01*
Y77400D01*
X89719Y67919D01*
X89635Y67920D01*
X89621D01*
G03X88319Y66618I0J-1302D01*
G01Y66604D01*
X88320Y66520D01*
X82500Y60700D01*
Y56600D01*
X81600Y55700D01*
Y53600D01*
X81100Y53100D01*
X79100D01*
X78200Y54000D01*
Y65901D01*
X93889Y81590D01*
Y91379D01*
X94236Y91726D01*
G37*
G36*
G01X82108Y125900D02*
X83500D01*
X83800Y125600D01*
Y124400D01*
X83753Y124353D01*
G03X83534Y124221I87J-392D01*
G01X83474Y124150D01*
X83122D01*
Y122572D01*
X83300D01*
Y122000D01*
X83162Y121862D01*
X83076D01*
G03X82674Y121461I0J-402D01*
G01Y121374D01*
X82000Y120700D01*
Y116900D01*
X82188Y116712D01*
Y116519D01*
G03X82590Y116118I401J0D01*
G01X82782D01*
X83500Y115400D01*
Y113900D01*
X83308Y113708D01*
X81936D01*
Y113356D01*
X81865Y113296D01*
G03X81724Y112990I260J-305D01*
G01Y112724D01*
X81600Y112600D01*
Y105200D01*
X80800Y104400D01*
X78100D01*
X77400Y105100D01*
Y106500D01*
X77888Y106988D01*
X78897D01*
X78908Y107000D01*
X79000D01*
X80100Y108100D01*
Y112000D01*
X79138Y112962D01*
Y113900D01*
X79088D01*
X78900Y114088D01*
Y114100D01*
X78600Y114400D01*
X77300D01*
X77192Y114292D01*
X76981D01*
X76588Y113898D01*
Y113688D01*
X76000Y113100D01*
Y112800D01*
X75000D01*
X74500Y113300D01*
Y113700D01*
X74882Y114082D01*
X75632D01*
Y114232D01*
X76100Y114700D01*
Y115300D01*
X76588Y115788D01*
X77081D01*
X77281Y115588D01*
X78197D01*
X78590Y115982D01*
Y116162D01*
X78782D01*
Y116282D01*
X79300Y116800D01*
Y117799D01*
G03X79891Y118890I-712J1091D01*
G03X79880Y119061I-1302J2D01*
G01X79867Y119159D01*
X79990Y119282D01*
Y120698D01*
X79840Y120848D01*
Y121448D01*
X78897Y122392D01*
X78808D01*
X78800Y122400D01*
X78000D01*
X77402Y122998D01*
Y124294D01*
X77597Y124488D01*
X77897D01*
X78597Y125188D01*
X81397D01*
X82108Y125900D01*
G37*
G36*
G01X92706Y21427D02*
Y24727D01*
X93506D01*
Y21427D01*
X94281D01*
Y24727D01*
X95081D01*
Y21427D01*
X95856D01*
Y24727D01*
X96656D01*
Y21427D01*
X97430D01*
Y24727D01*
X98230D01*
Y21427D01*
X99005D01*
Y24727D01*
X99805D01*
Y21427D01*
X100580D01*
Y24727D01*
X101380D01*
Y16427D01*
X107007Y10800D01*
X111905D01*
X112955Y9750D01*
Y6828D01*
X112407Y6280D01*
X110627Y4500D01*
X98500D01*
X97707Y5293D01*
Y6201D01*
Y12349D01*
X96646Y13410D01*
X93815D01*
X92706Y14519D01*
Y16427D01*
Y21427D01*
G37*
G36*
G01X102154Y16427D02*
Y24727D01*
X102954D01*
Y21427D01*
X103729D01*
Y24727D01*
X104529D01*
Y21427D01*
X105304D01*
Y24727D01*
X106104D01*
Y21427D01*
X106879D01*
Y24727D01*
X107679D01*
Y21427D01*
X108454D01*
Y24727D01*
X109254D01*
Y21427D01*
X110028D01*
Y24727D01*
X110828D01*
Y21427D01*
X111603D01*
Y24727D01*
X112403D01*
Y21427D01*
X113178D01*
Y24727D01*
X113978D01*
Y16427D01*
Y12895D01*
X112923Y11840D01*
X109659D01*
X109040D01*
X104453Y16427D01*
X102154D01*
G37*
G36*
G01X101380Y37353D02*
Y34053D01*
X100580D01*
Y37353D01*
X99805D01*
Y34053D01*
X99005D01*
Y37353D01*
X98230D01*
Y34053D01*
X97430D01*
Y37353D01*
X96656D01*
Y34053D01*
X95856D01*
Y37353D01*
X95081D01*
Y34053D01*
X94281D01*
Y37353D01*
X93506D01*
Y34053D01*
X92706D01*
Y42353D01*
X92755D01*
Y52507D01*
X93397Y53149D01*
X99721D01*
X101380Y51490D01*
Y42353D01*
Y37353D01*
G37*
G36*
G01X113978Y42353D02*
Y34053D01*
X113178D01*
Y37353D01*
X112403D01*
Y34053D01*
X111603D01*
Y37353D01*
X110828D01*
Y34053D01*
X110028D01*
Y37353D01*
X109253D01*
Y34053D01*
X108453D01*
Y37353D01*
X107678D01*
Y34053D01*
X106878D01*
Y37353D01*
X106104D01*
Y34053D01*
X105304D01*
Y37353D01*
X104529D01*
Y34053D01*
X103729D01*
Y37353D01*
X102954D01*
Y34053D01*
X102154D01*
Y42353D01*
Y46782D01*
X102322Y46950D01*
Y68385D01*
X100669Y70038D01*
Y92396D01*
X101007Y92734D01*
X102218D01*
X105104Y89848D01*
X110372Y84580D01*
Y74872D01*
X113978Y71265D01*
Y45970D01*
Y42353D01*
G37*
G36*
G01X107071Y104572D02*
X107354D01*
X107742Y104184D01*
X108158D01*
X108209Y104150D01*
G03X108431Y104083I222J334D01*
G01X108541D01*
G02X108932Y103600I0J-400D01*
G03X108904Y103331I1274J-269D01*
G03X109377Y102327I1302J0D01*
G02X109399Y102038I-127J-155D01*
G03X109360Y101994I954J-885D01*
G02X109057Y101988I-154J128D01*
G03X108086Y102423I-971J-866D01*
G03Y99819I0J-1302D01*
G03X108977Y100171I1J1302D01*
G02X109512Y100182I274J-291D01*
G03X110365Y99864I853J985D01*
G01X110394D01*
G02X110802Y99464I8J-400D01*
G01Y98748D01*
G02X110376Y98349I-400J0D01*
G03X110289Y98352I-88J-1299D01*
G03X108987Y97085I0J-1302D01*
G01X108982Y96890D01*
X108153D01*
G02X107789Y97456I0J400D01*
G03X107906Y97995I-1185J539D01*
G03X106604Y99297I-1302J0D01*
G03X106144Y99213I0J-1302D01*
G02X105603Y99569I-142J374D01*
G03X104989Y100618I-1301J-57D01*
G01Y101563D01*
X105544Y102119D01*
Y102145D01*
X106089Y102690D01*
Y103590D01*
X107071Y104572D01*
G37*
%LPC*%
G75*
G36*
G01X54400Y34300D02*
X52900Y35800D01*
Y47600D01*
X53600Y48300D01*
X57600D01*
X59400Y46500D01*
Y36700D01*
X58500Y35800D01*
X57700D01*
X56200Y34300D01*
X54400D01*
G37*
G36*
G01X182656Y43686D02*
G03X182676Y44196I-298J267D01*
G02X182387Y45049I1114J853D01*
G02X185191I1402J0D01*
G02X184833Y44113I-1403J0D01*
G03X184813Y43603I298J-267D01*
G02X185102Y42750I-1114J-853D01*
G02X182298I-1402J0D01*
G02X182656Y43686I1403J0D01*
G37*
G36*
G01X179259Y43815D02*
G03X179219Y44329I-325J233D01*
G02X178814Y45314I997J986D01*
G02X181618I1402J0D01*
G02X181357Y44499I-1403J0D01*
G03X181397Y43985I325J-233D01*
G02X181802Y43000I-997J-986D01*
G02X178998I-1402J0D01*
G02X179259Y43815I1403J0D01*
G37*
G36*
G01X159945Y143637D02*
G03X159421Y143632I-259J-305D01*
G02X158558Y143305I-863J975D01*
G02Y145909I0J1302D01*
G02X159402Y145598I0J-1301D01*
G03X159926Y145603I259J305D01*
G02X160789Y145930I863J-975D01*
G02Y143326I0J-1302D01*
G02X159945Y143637I0J1301D01*
G37*
G36*
G01X162959Y156503D02*
G03X162912Y157043I-316J245D01*
G02X162487Y158006I877J962D01*
G02X165091I1302J0D01*
G02X164819Y157209I-1302J-1D01*
G03X164866Y156669I316J-245D01*
G02X165291Y155706I-877J-962D01*
G02X162687I-1302J0D01*
G02X162959Y156503I1302J1D01*
G37*
G36*
G01X156169Y197052D02*
X156269D01*
G02X156169I-50J-5002D01*
G37*
G36*
G01X79955Y98308D02*
G03X79961Y98597I-135J147D01*
G02X81864Y98673I916J925D01*
G03X81855Y98162I303J-261D01*
G02X81825Y96502I-1018J-812D01*
G03X81828Y95977I303J-261D01*
G02X79964Y94164I-979J-858D01*
G03X79428Y94172I-272J-293D01*
G02X77608Y96028I-856J981D01*
G03X77614Y96560I-296J269D01*
G02X79592Y98253I982J854D01*
G03X79890Y98244I153J128D01*
G02X79955Y98308I946J-895D01*
G37*
G54D49*
X50000Y43700D03*
G54D50*
X49950Y39750D03*
G54D44*
X11150Y63350D03*
X52989Y23073D03*
X74600Y13700D03*
X158918Y150430D03*
X158474Y176380D03*
X163149Y152277D03*
X166959Y169972D03*
G54D43*
X18400Y10300D03*
X195705Y52142D03*
X177299Y161716D03*
X177249Y153382D03*
G54D48*
X44450Y52550D03*
G54D47*
X39650Y52600D03*
G54D55*
X64850Y29100D03*
G54D52*
X64700Y49300D03*
G54D51*
X64850Y34500D03*
G54D45*
X14750Y49200D03*
G54D56*
X64700Y54500D03*
G54D54*
X24750Y44250D03*
G54D46*
X14650Y36850D03*
X14739Y31600D03*
Y54600D03*
G54D53*
X29850Y44300D03*
%LPD*%
G75*
G54D10*
G01X7989Y57177D02*
X12023D01*
G01D02*
X12100Y57100D01*
X3000Y23303D03*
Y13303D03*
Y33303D03*
Y53303D03*
Y43303D03*
Y73303D03*
Y63303D03*
X5136Y140633D03*
X5500Y170500D03*
Y174800D03*
X6033Y193281D03*
X4080Y188258D03*
X12900Y2900D03*
X22900D03*
X8500Y6600D03*
X11100Y6000D03*
X22003Y37293D03*
X20489Y32350D03*
X20466Y34873D03*
X20391Y49481D03*
X22838Y52510D03*
X20550Y51575D03*
X13000Y72187D03*
X15962Y72039D03*
X13000Y74287D03*
X16003Y74139D03*
X11150Y63350D03*
X18113Y93000D03*
X8000Y91400D03*
X11155Y107567D03*
X12502Y94800D03*
X17240Y107800D03*
X11000Y104579D03*
X16997Y104418D03*
X17400Y101400D03*
X11158Y110720D03*
X9400Y94000D03*
X17300Y98427D03*
X20200Y104600D03*
X17200Y110700D03*
X14100Y110800D03*
X15651Y94878D03*
X18801D03*
X11100Y98526D03*
X7102Y98300D03*
X10800Y123677D03*
X11000Y117178D03*
X17364Y120095D03*
X23200Y128200D03*
X23300Y118300D03*
X17200Y126700D03*
X7139Y112461D03*
X14100Y126700D03*
X20005Y123445D03*
X22141Y126300D03*
X20147Y126465D03*
X14345Y123355D03*
X20600Y119900D03*
X11200Y120400D03*
X11158Y113870D03*
X14226Y117400D03*
X11026Y126600D03*
X14088Y114113D03*
X17200Y117200D03*
X20633Y130918D03*
X14100Y142423D03*
Y136200D03*
X10878Y129800D03*
X11074Y142300D03*
X11000Y136221D03*
X17373Y142300D03*
X17212Y129358D03*
X23200Y174800D03*
X16200D03*
Y170500D03*
X12600Y174800D03*
Y170500D03*
X9100D03*
Y174800D03*
X11801Y196165D03*
X17242Y193281D03*
X19481Y188124D03*
X11568Y180258D03*
X6405Y183095D03*
X17568Y183188D03*
X32900Y2900D03*
X35682Y14274D03*
X39825Y11250D03*
X35682Y21426D03*
X24737Y20350D03*
Y14850D03*
X30479Y22847D03*
X25911Y26023D03*
X37382Y27169D03*
X37503Y25037D03*
X27915Y25095D03*
X23873Y32459D03*
X39878Y24733D03*
X24477Y58470D03*
X23877Y54560D03*
X33264Y59553D03*
X36989Y60850D03*
X28065Y61700D03*
X30400D03*
X38937Y104786D03*
X38899Y107700D03*
X24200Y101400D03*
X33000Y98400D03*
X26587Y101495D03*
X29848Y104852D03*
X36200Y107500D03*
X32800Y110800D03*
X32900Y107727D03*
Y104600D03*
X36000D03*
X36300Y98530D03*
X39120Y98200D03*
X29400Y98300D03*
X35900Y126475D03*
X39212Y123489D03*
X39161Y117139D03*
X29800Y123489D03*
Y120500D03*
X36087Y123513D03*
X32900Y113700D03*
X32924Y123500D03*
X33000Y120426D03*
X24900Y119500D03*
X36200Y113800D03*
X39200D03*
X36000Y120276D03*
X39000Y126600D03*
X32875D03*
X33200Y142684D03*
X39598Y137669D03*
X33100Y132873D03*
X27600Y129800D03*
X29307Y130843D03*
X24780Y131000D03*
X32925Y129800D03*
X39598Y134573D03*
Y140872D03*
X39878Y144022D03*
X39042Y129618D03*
X36174Y129900D03*
X38390Y157068D03*
X35400Y157309D03*
X32300Y156930D03*
X39724Y158690D03*
X32270Y159030D03*
X35300Y159407D03*
X27599Y174858D03*
X34289Y167290D03*
X37989Y170990D03*
Y163590D03*
X23900Y191900D03*
Y196200D03*
X27500Y191900D03*
Y196200D03*
X27700Y187400D03*
Y183100D03*
X31200D03*
Y187400D03*
X34800Y183100D03*
Y187400D03*
X24100D03*
Y183100D03*
X35000Y196100D03*
Y191800D03*
X38500D03*
Y196100D03*
X31400D03*
Y191800D03*
X42900Y2900D03*
X52900D03*
X52989Y23073D03*
X42722Y22986D03*
X45246Y23134D03*
X52500Y27437D03*
X47081Y26950D03*
X42082Y27120D03*
X57648Y37487D03*
Y45610D03*
X55980Y53359D03*
X54293Y59694D03*
X45300Y65800D03*
X48800Y72700D03*
X45400Y69500D03*
X45300Y72600D03*
X48800Y69100D03*
X48900Y65800D03*
X56385Y59500D03*
X45000Y104200D03*
X43800Y107600D03*
X56100Y106800D03*
X56869Y120900D03*
X45198Y158902D03*
X43100Y159000D03*
X41689Y167290D03*
X54189Y174867D03*
X54389Y179147D03*
X54289Y176996D03*
X42100Y191800D03*
Y196100D03*
X54381Y181247D03*
X53689Y192225D03*
X56437Y190021D03*
X53589Y190127D03*
X62900Y2900D03*
X72900D03*
X58667Y11250D03*
X73500Y23000D03*
X73000Y16898D03*
Y19000D03*
X74600Y13700D03*
X74242Y64300D03*
X66904Y74400D03*
X64820Y74139D03*
X65198Y89399D03*
X73073Y93336D03*
X70652Y109036D03*
X70821Y95574D03*
X71700Y103600D03*
X75087Y108787D03*
X73037Y108800D03*
X60700Y108400D03*
X71203Y126801D03*
X70652Y111190D03*
X70562Y118790D03*
X70574Y120836D03*
X72789Y115090D03*
X64800Y114300D03*
X72562Y118790D03*
X72592Y121177D03*
X58969Y120895D03*
X73900Y111400D03*
X74773Y121100D03*
X74566Y118741D03*
X63067Y121000D03*
X73691Y126600D03*
X61067Y121000D03*
X65100D03*
X70731Y134560D03*
X62140Y135195D03*
X72911Y136825D03*
X71084Y128908D03*
X70677Y136792D03*
X69940Y144500D03*
X63900Y145100D03*
X62191Y137195D03*
X66300Y142800D03*
X66299Y145120D03*
X72902Y134404D03*
X73499Y143852D03*
X70071Y142100D03*
X60900Y140095D03*
X64751Y140200D03*
X65239Y137017D03*
X74653Y132894D03*
X73253Y128990D03*
X72200Y149700D03*
X65472Y148627D03*
X71999Y147532D03*
X68670Y147572D03*
X58439Y174869D03*
X72489Y175160D03*
X62889Y175072D03*
X67589Y175056D03*
X58491Y176998D03*
X62914Y177172D03*
X67589Y177156D03*
X72489Y177260D03*
X62989Y179298D03*
X72345Y179356D03*
X58589Y179147D03*
X67589Y179256D03*
X62897Y181396D03*
X67595Y181356D03*
X72428Y181455D03*
X58531Y181247D03*
X67980Y192225D03*
X58189Y192190D03*
X74279Y191329D03*
X75309Y188910D03*
X64771Y190027D03*
X64839Y192225D03*
X61439Y190138D03*
X71101Y192225D03*
X58571Y190090D03*
X71089Y190120D03*
X72389Y188390D03*
X68010Y190125D03*
X61680Y192225D03*
X92900Y2900D03*
X82900D03*
X85352Y7840D03*
X85329Y11600D03*
X82500Y22700D03*
X91607Y30526D03*
X89621Y66618D03*
X92631Y65660D03*
X79752Y93194D03*
X87604Y93199D03*
X80589Y101673D03*
X77461Y102487D03*
X87350Y101416D03*
X78624Y108899D03*
X82289Y103290D03*
X80850Y95118D03*
X80837Y97350D03*
X86533Y97228D03*
X80877Y99522D03*
X86550Y99398D03*
X86482Y95058D03*
X78596Y97414D03*
X78571Y95152D03*
X92489Y107098D03*
X92498Y109268D03*
X92402Y103290D03*
X86390Y103372D03*
X92489Y95426D03*
X88735Y97258D03*
X88732Y95087D03*
X88560Y103362D03*
X88749Y99460D03*
X86731Y107116D03*
X80600Y105300D03*
X80678Y108816D03*
X80881Y126655D03*
X77998Y127021D03*
X92504Y114909D03*
X86644Y118927D03*
X86754Y110996D03*
X78589Y118890D03*
X78709Y111290D03*
X92589Y112751D03*
X86389Y126690D03*
X88689Y126590D03*
X92510Y117142D03*
X86715Y122840D03*
X92217Y122981D03*
X92489Y120810D03*
X84440Y111061D03*
X86714Y114976D03*
X84472Y118989D03*
X92347Y126585D03*
X76004Y126584D03*
X76576Y118716D03*
X76800Y121100D03*
X76100Y111300D03*
X80678Y118722D03*
Y115105D03*
X76889Y114990D03*
X82789Y125390D03*
X80589Y124590D03*
X80678Y120914D03*
X80754Y111238D03*
X79723Y136781D03*
X87380Y137014D03*
X87581Y128604D03*
X78441Y130733D03*
X86435Y130465D03*
X86493Y132736D03*
X81310Y144550D03*
X78689Y132746D03*
X80841Y134915D03*
X78200Y142678D03*
X92489Y130590D03*
X80947Y132753D03*
X92489Y134562D03*
X78561Y134913D03*
X88683Y130474D03*
X80768Y130538D03*
X86367Y135044D03*
X88728Y132798D03*
X88575Y135042D03*
X75589Y128990D03*
X86789Y175157D03*
X91689D03*
X76549Y175104D03*
X81789Y175122D03*
X86889Y179355D03*
Y177255D03*
X76789Y179370D03*
X76697Y177227D03*
X81789Y179322D03*
Y177222D03*
X91689Y177257D03*
X91589Y179355D03*
X92199Y189099D03*
X91602Y181455D03*
X81789Y181422D03*
X86877Y181455D03*
X76789Y181470D03*
X77542Y192196D03*
X87737Y192152D03*
X89689Y191139D03*
X87289Y189995D03*
X83825Y190826D03*
X79621Y191774D03*
X78663Y189905D03*
X89975Y189058D03*
X81765Y191685D03*
X102900Y2900D03*
X102100Y29300D03*
X98600Y57000D03*
X100373Y63977D03*
X98500Y59600D03*
X94772Y63217D03*
X97435Y93151D03*
X105380Y93227D03*
X102222Y103058D03*
X106027Y110065D03*
X104643Y103156D03*
X97220Y101388D03*
X108086Y101121D03*
X104320Y95152D03*
X107941Y103353D03*
X98536Y95088D03*
X98528Y97338D03*
X104269Y97342D03*
X96253Y103335D03*
X98284Y107116D03*
X106604Y97995D03*
X104302Y99512D03*
X108123Y109009D03*
X110206Y103331D03*
X98423Y103276D03*
X106520Y95793D03*
X96288Y97204D03*
X96249Y99413D03*
X96323Y95033D03*
X104163Y108912D03*
X98565Y99685D03*
X106104Y119896D03*
X98240Y110984D03*
X108208Y115030D03*
X98218Y119115D03*
X110205Y111236D03*
X104356Y115065D03*
X103399Y124667D03*
X108237Y118747D03*
X104161Y120937D03*
X108198Y120979D03*
X96340Y126661D03*
X107964Y111235D03*
X108217Y126618D03*
X100514Y111033D03*
X98231Y115069D03*
X100484Y115024D03*
X100382Y118945D03*
X98562Y122704D03*
X100562Y122693D03*
X104112Y128252D03*
X105224Y136892D03*
X97411Y136875D03*
X97496Y128588D03*
X104209Y134911D03*
X106423Y134675D03*
X98559Y130539D03*
X104259Y132738D03*
X106478Y132236D03*
X110158Y132651D03*
X96358Y132762D03*
X104300Y130566D03*
X96376Y130591D03*
X96395Y134932D03*
X98528Y132722D03*
X98567Y134892D03*
X108089Y128890D03*
X105579Y159830D03*
X105560Y155870D03*
X96489Y175161D03*
X100989Y174882D03*
X105689Y175183D03*
X105579Y163090D03*
X100889Y179175D03*
X110231Y179356D03*
X110189Y177185D03*
X105815Y177280D03*
X105489Y179355D03*
X105579Y165200D03*
X100819Y176976D03*
X96489Y179361D03*
Y177261D03*
X105489Y181455D03*
X96326D03*
X100789Y181273D03*
X105771Y192197D03*
X99524Y188122D03*
X97561Y186929D03*
X98158Y190730D03*
X102593Y187815D03*
X102761Y192190D03*
X105622Y190078D03*
X94641Y187271D03*
X108781Y190573D03*
X108889Y188475D03*
X101394Y190595D03*
X96326Y192026D03*
X122900Y2900D03*
X112900D03*
X122208Y20167D03*
X119877Y18165D03*
X116188Y20357D03*
X123027Y18165D03*
X116728D03*
X119198Y20364D03*
X126046Y17967D03*
X125218Y20350D03*
X122740Y38226D03*
X127464Y38476D03*
X122650Y40326D03*
X119730Y38226D03*
X116727Y40615D03*
X118989Y30990D03*
X119600Y40700D03*
X114989Y30990D03*
X125800Y66500D03*
X123300Y60400D03*
X120800Y62600D03*
X123400Y64500D03*
X125850Y62250D03*
X112184Y93232D03*
X119701Y88522D03*
X114389Y110069D03*
X114468Y102333D03*
X114326Y94608D03*
X112154Y95402D03*
X112303Y103452D03*
X112469Y108978D03*
X110293Y109018D03*
X110289Y97050D03*
X110365Y101166D03*
X112666Y101464D03*
X114493Y127776D03*
X114467Y119977D03*
X122289Y127481D03*
X125413Y126431D03*
X112597Y118786D03*
X110424Y118730D03*
X111990Y114990D03*
X112548Y121016D03*
X110367Y121086D03*
X110387Y126663D03*
X112518Y111255D03*
X112570Y126597D03*
X111986Y136803D03*
X114266Y136721D03*
X114296Y134493D03*
X118649Y142274D03*
X124889Y134416D03*
X112031Y134503D03*
X124789Y136614D03*
X110290Y128955D03*
X112488Y128785D03*
X125500Y139300D03*
X120400Y136400D03*
X111789Y159830D03*
X123540Y158240D03*
X126361Y167090D03*
X110289Y175087D03*
X120589Y175129D03*
X111789Y165300D03*
X118589Y167100D03*
X123539Y166940D03*
X120689Y179327D03*
X120589Y177229D03*
X123589Y163590D03*
X120815Y181424D03*
X110307Y181455D03*
X115032D03*
X125127Y192226D03*
X115989Y191890D03*
X112165Y190935D03*
X113827Y192219D03*
X110499Y192225D03*
X127046Y191205D03*
X142900Y2900D03*
X132900D03*
X142416Y20461D03*
X132476Y20382D03*
X138775Y18165D03*
X132163Y18253D03*
X128228Y20069D03*
X129036Y18029D03*
X136396Y20533D03*
X135715Y18075D03*
X139406Y20428D03*
X141925Y18165D03*
X133484Y38779D03*
X127644Y40610D03*
X133484Y41212D03*
X130893Y41280D03*
X130474Y38554D03*
X138864Y40615D03*
X141924D03*
Y38226D03*
X140462Y44165D03*
X132900Y55637D03*
X127750Y43115D03*
X130600Y55600D03*
X138893Y45734D03*
X135883Y66252D03*
X133034Y69960D03*
X139817Y73745D03*
X131949Y66770D03*
X130942Y70153D03*
X129757Y64578D03*
X134565Y68455D03*
X128950Y67850D03*
X143269Y84120D03*
X134286Y82073D03*
X140716Y92794D03*
X144200Y77485D03*
X140944Y77544D03*
X134895Y79741D03*
X131800Y79200D03*
X141989Y80990D03*
X144502Y89008D03*
X141005Y84076D03*
X141073Y88815D03*
X138635Y77724D03*
X138149Y90624D03*
X143308Y107398D03*
X136628Y94396D03*
X127750Y97737D03*
X133223Y98142D03*
X135334Y98160D03*
X131354Y125640D03*
X140909Y128865D03*
X138489Y138990D03*
X131039Y134440D03*
X131374Y131361D03*
X133089Y136990D03*
X138889Y131190D03*
X136887Y128602D03*
X141189Y131148D03*
X133959Y133081D03*
X144585Y147586D03*
X128529Y155300D03*
X144585Y155894D03*
X137533Y162764D03*
X139703Y161712D03*
X129689Y175065D03*
X129589Y177163D03*
X129489Y179357D03*
X144508Y177740D03*
X137800Y176800D03*
X136206Y186518D03*
X141373Y191774D03*
X129394Y181455D03*
X138939Y191774D03*
X143182Y190292D03*
X140389Y187350D03*
X138420Y186530D03*
X129270Y191205D03*
X142520Y188299D03*
X152900Y2900D03*
X160822Y20554D03*
X151446D03*
X160822Y18165D03*
X151373D03*
X157672Y20554D03*
X148224Y18165D03*
X148436Y20514D03*
X154474Y18165D03*
X157484Y18161D03*
X145426Y20481D03*
X145074Y18165D03*
X154523Y20554D03*
X145062Y38226D03*
X156098D03*
X160822D03*
X146522Y31990D03*
X160818Y40619D03*
X144968Y40615D03*
X160737Y28166D03*
X145771Y84011D03*
X146100Y79900D03*
X159848Y104093D03*
X161267Y97084D03*
X145423Y106571D03*
X146100Y110300D03*
X160091Y111954D03*
X158729Y122399D03*
X159942Y124066D03*
X158026Y112139D03*
X158558Y144607D03*
X160789Y144628D03*
X152259Y140481D03*
X150591Y156057D03*
X158918Y150430D03*
X151890Y157767D03*
X158474Y176380D03*
X144950Y188990D03*
X172900Y2900D03*
X162900D03*
X176500Y3400D03*
X172200Y23600D03*
Y18900D03*
X178100Y18500D03*
X172000Y15400D03*
X171900Y11700D03*
X171700Y7400D03*
X176500Y7200D03*
X174300Y9600D03*
X176200Y12200D03*
X174500Y21400D03*
X177500D03*
X174900Y18100D03*
X175300Y15100D03*
X163972Y20554D03*
Y18165D03*
X178200Y40200D03*
X174300Y40100D03*
X172100Y38000D03*
X172000Y34400D03*
X171900Y30700D03*
X172200Y27400D03*
X169800Y36200D03*
Y32100D03*
Y28300D03*
X169600Y25112D03*
X163972Y38226D03*
X163994Y40615D03*
X177800Y45200D03*
X177500Y42500D03*
X174900D03*
X174400Y83490D03*
X170930Y91670D03*
X178623Y92495D03*
Y89345D03*
X176523Y92490D03*
X176641Y83566D03*
X172000Y83490D03*
X173436Y91145D03*
X167728Y100286D03*
X172814Y100271D03*
X178110Y100369D03*
X175989Y100490D03*
X176772Y96300D03*
X170246Y100237D03*
X165280Y100102D03*
X167539Y107985D03*
X171472Y108330D03*
X167633Y112073D03*
X167696Y116679D03*
X174148Y117616D03*
X175179Y111961D03*
X169672Y122099D03*
X167844Y118844D03*
X171897Y117616D03*
X177571Y111890D03*
X172527Y122207D03*
X172041Y129479D03*
X169210Y156685D03*
X163989Y155706D03*
X163789Y158006D03*
X163149Y152277D03*
X166959Y169972D03*
X163029Y167248D03*
X171300Y183300D03*
Y187600D03*
X174900Y183300D03*
Y187600D03*
X171300Y191700D03*
Y196000D03*
X174900Y191700D03*
Y196000D03*
X162289Y191990D03*
X193939Y6580D03*
X182776Y6487D03*
X187939Y3650D03*
X179700Y3300D03*
X193613Y16673D03*
X182404D03*
X188172Y19557D03*
X195852Y11516D03*
X180451Y11650D03*
X187300Y23800D03*
X191200Y23600D03*
X195100Y23000D03*
X181200Y21500D03*
X184100Y40300D03*
X181200D03*
X185600Y26000D03*
X189700Y26100D03*
X193500Y25900D03*
X196700Y25800D03*
X195200Y28400D03*
X193000Y33800D03*
Y38600D03*
X194400Y36300D03*
X196100Y38400D03*
X196500Y34200D03*
Y31100D03*
X187300Y39600D03*
X187100Y35800D03*
X185300Y37200D03*
X188100Y45300D03*
X187400Y42400D03*
X192100Y45300D03*
X193300Y43300D03*
X195300Y45100D03*
X196300Y47600D03*
X196000Y41700D03*
X184627Y71927D03*
X183809Y86200D03*
X185900Y86400D03*
X196376Y89719D03*
X196375Y91970D03*
X195067Y85511D03*
X192974Y85691D03*
X195200Y110600D03*
X187150Y96572D03*
X195950Y99471D03*
X193349Y103544D03*
X196376Y94070D03*
X196332Y96184D03*
X187094Y98679D03*
X195559Y103361D03*
X195200Y125600D03*
Y114800D03*
Y121900D03*
Y118400D03*
X181322Y114657D03*
X181498Y111766D03*
X195000Y136800D03*
X194900Y143800D03*
Y140200D03*
X195200Y132700D03*
Y129200D03*
X189621Y156848D03*
Y162548D03*
X183921D03*
Y156848D03*
X195700Y159000D03*
X187941Y180209D03*
X188174Y196116D03*
X182406Y193232D03*
X193615D03*
X195854Y188075D03*
X182778Y183046D03*
X193941Y183139D03*
X180453Y188209D03*
G54D11*
X11807Y188182D03*
X188185Y11804D03*
Y188182D03*
G54D20*
X57900Y137400D03*
G54D12*
X21989Y22791D03*
X17249Y36830D03*
Y31712D03*
X12249Y36830D03*
Y31712D03*
X21989Y27909D03*
X17249Y49246D03*
Y54364D03*
X12249Y49246D03*
Y54364D03*
X37289Y57909D03*
Y52791D03*
X46844Y57909D03*
Y52791D03*
X42100Y57909D03*
Y52791D03*
X62089Y34350D03*
Y29232D03*
X67689Y34450D03*
Y29332D03*
X67489Y49146D03*
Y54264D03*
X61889Y49146D03*
Y54264D03*
X110935Y8258D03*
Y13376D03*
G54D21*
X51936Y194775D03*
Y184006D03*
X132842Y184005D03*
Y194775D03*
G54D30*
G01X-100138Y-147478D02*
X299862D01*
G01X-100138Y-117478D02*
Y-97478D01*
X299862D01*
G01X-50138Y-167478D02*
Y-147478D01*
G01X8000Y91400D02*
X4800Y94600D01*
Y136100D01*
X8405Y139705D01*
X11547D01*
G01X36711Y95600D02*
Y93411D01*
X34200Y90900D01*
X8500D01*
X8000Y91400D01*
G01X13011Y107161D02*
X11561D01*
X11155Y107567D01*
G01X7098Y108043D02*
Y110570D01*
X7139Y110611D01*
G01X7100Y105443D02*
Y108041D01*
X7098Y108043D01*
G01X12502Y94800D02*
X13607Y95905D01*
Y97025D01*
G01X9200Y108043D02*
Y110570D01*
X9241Y110611D01*
G01X9200Y108043D02*
Y105445D01*
X9202Y105443D01*
G01D02*
Y102961D01*
X9198Y102957D01*
G01D02*
Y100463D01*
X9204Y100457D01*
G01D02*
Y94196D01*
X9400Y94000D01*
G01X11100Y98526D02*
X11226D01*
X12677Y99977D01*
X13607D01*
G01X7096Y102957D02*
Y100463D01*
X7102Y100457D01*
G01D02*
Y98300D01*
G01X8789Y117366D02*
X10812D01*
X11000Y117178D01*
G01X7139Y110611D02*
Y112461D01*
G01X9241Y110611D02*
X11049D01*
X11158Y110720D01*
G01X8789Y114414D02*
X10614D01*
X11158Y113870D01*
G01X14499Y139705D02*
Y142024D01*
X14100Y142423D01*
G01X11547Y139705D02*
Y141827D01*
X11074Y142300D01*
G01X11007Y133942D02*
Y136214D01*
X11000Y136221D01*
G01X17836Y148381D02*
Y146207D01*
X17229Y145600D01*
G01X14884Y148381D02*
Y146404D01*
X14300Y145820D01*
G01X30176Y95500D02*
X33659D01*
X33759Y95600D01*
G01X40843Y105415D02*
X40214Y104786D01*
X38937D01*
G01X33759Y95600D02*
Y97641D01*
X33000Y98400D01*
G01X36711Y95600D02*
Y98119D01*
X36300Y98530D01*
G01X41693Y117648D02*
X39670D01*
X39161Y117139D01*
G01X35146Y117657D02*
X38643D01*
X39161Y117139D01*
G01X33098Y115557D02*
Y117603D01*
X33044Y117657D01*
G01X33098Y115557D02*
X35490D01*
X35576Y115643D01*
G01X41693Y114696D02*
X40096D01*
X39200Y113800D01*
G01X36400Y134951D02*
X39118Y137669D01*
X39598D01*
G01X34600Y144793D02*
Y144084D01*
X33200Y142684D01*
G01X41400Y134951D02*
Y135867D01*
X39598Y137669D01*
G01X37552Y144793D02*
X39107D01*
X39878Y144022D01*
G01X55989Y51419D02*
Y53350D01*
X55980Y53359D01*
G01X56000Y55448D02*
Y53379D01*
X55980Y53359D01*
G01X45000Y104200D02*
X44800Y104000D01*
X44400D01*
X43300Y102900D01*
X43051D01*
G01X74400Y28500D02*
X76800Y30900D01*
Y67400D01*
X84700Y75300D01*
Y100000D01*
X85393Y100693D01*
Y101527D01*
G01X57900Y137400D02*
X60105Y135195D01*
X62140D01*
G01X58189Y192190D02*
X58289Y192290D01*
Y192490D01*
X58531Y192732D01*
Y194775D01*
G01X75362Y-167478D02*
Y-147478D01*
G01X74862Y-97478D02*
Y-67478D01*
G01X87604Y93199D02*
X87629D01*
X88052Y92776D01*
X89642D01*
G01X92489Y107098D02*
Y106108D01*
X90513Y104132D01*
Y103488D01*
G01X86390Y103372D02*
X85393Y102375D01*
Y101527D01*
G01X91744Y92776D02*
Y93484D01*
X90704Y94524D01*
Y97814D01*
X89070Y99448D01*
X88761D01*
X88749Y99460D01*
G01X84462Y106503D02*
X85075Y107116D01*
X86731D01*
G01X89254Y106517D02*
X87330D01*
X86731Y107116D01*
G01X78234Y105810D02*
X78744Y105300D01*
X80600D01*
G01X78234Y105810D02*
X80678Y108254D01*
Y108816D01*
G01X85292Y117119D02*
X86644Y118471D01*
Y118927D01*
G01X89007Y119626D02*
X87343D01*
X86644Y118927D01*
G01X88424Y116818D02*
Y117147D01*
X86644Y118927D01*
G01X90385Y114293D02*
X91001Y114909D01*
X92504D01*
G01X88424Y116818D02*
Y115505D01*
X89636Y114293D01*
X90385D01*
G01X79838Y128490D02*
X78369Y127021D01*
X77998D01*
G01X90385Y112191D02*
X92029D01*
X92589Y112751D01*
G01X84589Y126739D02*
X86340D01*
X86389Y126690D01*
G01X90526Y116818D02*
X92186D01*
X92510Y117142D01*
G01X89007Y122578D02*
X86977D01*
X86715Y122840D01*
G01X89007Y122578D02*
X90167D01*
X90569Y122980D01*
X92216D01*
X92217Y122981D01*
G01X87733Y113041D02*
Y113957D01*
X86714Y114976D01*
G01X83676Y120861D02*
Y120153D01*
X84472Y119357D01*
Y118989D01*
G01X79566Y116951D02*
X80678Y118063D01*
Y118722D01*
G01X79566Y116951D02*
X80678Y115839D01*
Y115105D01*
G01X74842Y113297D02*
X75596D01*
X76889Y114590D01*
Y114990D01*
G01X82338Y123361D02*
Y124939D01*
X82789Y125390D01*
G01D02*
Y127641D01*
X81940Y128490D01*
G01X78301Y123400D02*
X79491Y124590D01*
X80589D01*
G01X78301Y123400D02*
X80189Y121512D01*
Y121403D01*
X80678Y120914D01*
G01X80754Y111238D02*
X80678Y111314D01*
Y112355D01*
X79922Y113111D01*
G01X87581Y128604D02*
X85775D01*
X85538Y128841D01*
X84589D01*
G01X83689Y132090D02*
X84589Y131190D01*
Y128841D01*
G01X77542Y192196D02*
Y192537D01*
X77428Y192651D01*
Y194775D01*
G01X101242Y8957D02*
X104944D01*
G01D02*
X105657D01*
G01D02*
X105700Y9000D01*
G01X94513Y89647D02*
X94274Y89886D01*
G01D02*
Y96166D01*
X92914Y97526D01*
X92623D01*
X92128Y98021D01*
Y98941D01*
G01X105380Y93227D02*
Y92099D01*
X106505Y90974D01*
X108309D01*
G01X101400Y91600D02*
Y97459D01*
X100378Y98481D01*
Y101006D01*
G01X100274Y105161D02*
X102576D01*
X102715Y105022D01*
G01X106077Y105473D02*
X104679D01*
X104662Y105490D01*
X104194Y105022D01*
G01D02*
X102715D01*
G01X104643Y103156D02*
Y104573D01*
X104194Y105022D01*
G01X95310Y109470D02*
X95702Y109078D01*
X98185D01*
G01D02*
X98240Y109133D01*
Y110984D01*
G01X102480Y101006D02*
X103157D01*
X104643Y102492D01*
Y103156D01*
G01X94344Y101715D02*
X95320D01*
X95647Y101388D01*
X97220D01*
G01X94230Y98941D02*
Y101601D01*
X94344Y101715D01*
G01X102715Y105022D02*
Y103551D01*
X102222Y103058D01*
G01X106077Y105473D02*
X107727D01*
X108115Y105085D01*
X109031D01*
G01X108409Y97380D02*
Y94026D01*
X108309Y93926D01*
G01X136628Y94396D02*
X136618Y94386D01*
X136482D01*
X133513Y91417D01*
X111594D01*
X110485Y92526D01*
Y93154D01*
X109713Y93926D01*
X108309D01*
G01X92489Y107098D02*
Y109259D01*
X92498Y109268D01*
G01X95310Y106518D02*
X93069D01*
X92489Y107098D01*
G01X98172Y105161D02*
Y107004D01*
X98284Y107116D01*
G01X94344Y103817D02*
X95771D01*
X96253Y103335D01*
G01X98284Y107116D02*
X96897D01*
X96299Y106518D01*
X95310D01*
G01X96253Y103335D02*
Y105575D01*
X95310Y106518D01*
G01X92402Y103290D02*
Y100699D01*
X92128Y100425D01*
Y98941D01*
G01X109031Y107187D02*
X108123Y108095D01*
Y109009D01*
G01X109031Y107187D02*
X109739D01*
X111726Y105200D01*
X116100D01*
X117149Y104151D01*
G01X98423Y103276D02*
X100378Y101321D01*
Y101006D01*
G01X102715Y107124D02*
Y107464D01*
X104163Y108912D01*
G01X106077Y107575D02*
X105500D01*
X104163Y108912D01*
G01X100287Y109078D02*
X100514Y109305D01*
Y111033D01*
G01X95267Y119910D02*
Y121264D01*
X96736Y122733D01*
G01X98269Y113038D02*
X97119D01*
X95892Y114265D01*
X95036D01*
G01D02*
X94392Y114909D01*
X92504D01*
G01X95267Y119910D02*
X97423D01*
X98218Y119115D01*
G01X99363Y120918D02*
X98218Y119773D01*
Y119115D01*
G01X106268Y122877D02*
Y120060D01*
X106104Y119896D01*
G01X98269Y113038D02*
Y111013D01*
X98240Y110984D01*
G01X98267Y117005D02*
Y119066D01*
X98218Y119115D01*
G01X102889Y111339D02*
X104753D01*
X106027Y110065D01*
G01X107605Y113145D02*
X108208Y113748D01*
Y115030D01*
G01X106219Y117308D02*
Y117019D01*
X108208Y115030D01*
G01X95036Y112163D02*
X93177D01*
X92589Y112751D01*
G01X102889Y113441D02*
Y113598D01*
X104356Y115065D01*
G01X105503Y113145D02*
Y113918D01*
X104356Y115065D01*
G01X103399Y124667D02*
X103443D01*
X104276Y125500D01*
X106023D01*
G01X104166Y122877D02*
Y120942D01*
X104161Y120937D01*
G01X108198Y120979D02*
Y121630D01*
X109511Y122943D01*
X113535D01*
G01X108843Y124602D02*
X108217Y125228D01*
Y126618D01*
G01X92510Y117142D02*
X95083D01*
X95267Y116958D01*
G01X100371Y113038D02*
Y111176D01*
X100514Y111033D01*
G01X95267Y116958D02*
X97156Y115069D01*
X98231D01*
G01X100369Y117005D02*
Y115139D01*
X100484Y115024D01*
G01D02*
X98276D01*
X98231Y115069D01*
G01X100371Y113038D02*
Y114911D01*
X100484Y115024D01*
G01X103267Y117308D02*
X101630Y118945D01*
X100382D01*
G01D02*
Y117018D01*
X100369Y117005D01*
G01X98562Y122704D02*
X100551D01*
X100562Y122693D01*
G01X101465Y120918D02*
Y121790D01*
X100562Y122693D01*
G01X98562Y122704D02*
Y124017D01*
X97744Y124835D01*
X96736D01*
G01X100382Y118945D02*
X101465Y120028D01*
Y120918D01*
G01X92217Y122981D02*
X92429Y122769D01*
Y120870D01*
X92489Y120810D01*
G01X94420Y137159D02*
X97127D01*
X97411Y136875D01*
G01X106023Y127602D02*
X105373Y128252D01*
X104112D01*
G01X99388Y128574D02*
X97510D01*
X97496Y128588D01*
G01X95080Y128645D02*
X97439D01*
X97496Y128588D01*
G01X95080Y128645D02*
Y129482D01*
X94676Y129886D01*
Y130369D01*
X94621Y130424D01*
Y130681D01*
X94240Y131062D01*
Y132590D01*
G01X108989Y138041D02*
Y143962D01*
X108951Y144000D01*
G01X116798Y175199D02*
X116789Y175190D01*
Y158690D01*
X108986Y150887D01*
Y144035D01*
X108951Y144000D01*
G01X94420Y135057D02*
X94545Y134932D01*
X96395D01*
G01X108989Y135939D02*
Y135640D01*
X108289Y134940D01*
Y129090D01*
X108089Y128890D01*
G01X105579Y159830D02*
X107738D01*
G01X124862Y-167478D02*
Y-147478D01*
G01X114326Y94608D02*
Y97653D01*
X113009Y98970D01*
X112120D01*
G01X117743Y107304D02*
X120541D01*
X120543Y107302D01*
G01X123649Y104111D02*
X127750D01*
G01X123649D02*
X123609Y104151D01*
X120100D01*
G01X117149D02*
X120100D01*
G01D02*
Y105700D01*
X120543Y106143D01*
Y107302D01*
G01X114738Y117492D02*
Y119706D01*
X114467Y119977D01*
G01X115637Y122943D02*
Y121147D01*
X114467Y119977D01*
G01X110945Y124602D02*
X114686D01*
X115637Y123651D01*
Y122943D01*
G01X118553Y126541D02*
Y129367D01*
G01X114493Y127776D02*
X115780D01*
X117015Y126541D01*
X118553D01*
G01X124672Y184005D02*
X124689Y183988D01*
Y170654D01*
X120700Y166665D01*
Y152101D01*
X116300Y147701D01*
Y139279D01*
X118553Y137026D01*
Y131469D01*
G01X120749Y138200D02*
Y140174D01*
X118649Y142274D01*
G01X118553Y131469D02*
X118532Y131490D01*
X115240D01*
G01X113138D02*
X112787D01*
X110290Y128993D01*
Y128955D01*
G01X109840Y159830D02*
X111789D01*
G01X109951Y166200D02*
X110600D01*
X111400Y165400D01*
X111689D01*
X111789Y165300D01*
G01X110676Y162900D02*
X111789Y164013D01*
Y165300D01*
G01X134900Y104051D02*
X131508D01*
X131457Y104102D01*
G01D02*
X127759D01*
X127750Y104111D01*
G01X135079Y136971D02*
X136470D01*
X138489Y138990D01*
G01X161267Y97084D02*
X161316D01*
X163350Y95050D01*
Y94347D01*
G01X144508Y182007D02*
Y177740D01*
G01X169400Y71624D02*
X166898D01*
X166695Y71827D01*
G01X182000Y68424D02*
X178894D01*
X178641Y68677D01*
G01X177869Y71622D02*
Y69449D01*
X178641Y68677D01*
G01X173641Y71634D02*
Y68795D01*
X173523Y68677D01*
G01X173641Y74586D02*
Y76361D01*
X174310Y77030D01*
G01X177869Y74574D02*
Y75534D01*
X176506Y76897D01*
G01X173344Y97364D02*
Y99741D01*
X172814Y100271D01*
G01X167041Y98004D02*
X167728Y98691D01*
Y100286D01*
G01X171242Y97364D02*
Y99241D01*
X170246Y100237D01*
G01X164939Y98004D02*
Y99761D01*
X165280Y100102D01*
G01X174365Y108056D02*
X171746D01*
X171472Y108330D01*
G01X169672Y122099D02*
X165573D01*
X165540Y122066D01*
G01X169672Y122099D02*
Y124838D01*
X169649Y124861D01*
G01X165540Y122066D02*
Y124666D01*
G01X192700Y68949D02*
X193759Y67890D01*
X195705D01*
G01X193400Y59200D02*
X195950D01*
G01X184627Y71927D02*
X184076Y71376D01*
X182000D01*
G01X186913Y70213D02*
X186341D01*
X184627Y71927D01*
X188487Y71787D03*
X186913D03*
X188487Y70213D03*
X186913D03*
G54D40*
G01X85778Y120861D02*
Y121357D01*
X84440Y122695D01*
Y123361D01*
G01X188451Y75600D02*
Y77149D01*
X188300Y77300D01*
Y79678D01*
X188142Y79836D01*
G54D13*
X16259Y22000D03*
X11141D03*
X24930Y36750D03*
X30048D03*
X24960Y41850D03*
X30078D03*
X24960Y46893D03*
X30078D03*
X40450Y67343D03*
X35332D03*
X40450Y73243D03*
X35332D03*
X55048Y37850D03*
X49930D03*
X55048Y45610D03*
X49930D03*
X89736Y50608D03*
Y44958D03*
X94854Y50608D03*
Y44958D03*
X99973Y44787D03*
X105091D03*
G54D22*
X56956Y194775D03*
X55381D03*
X53806D03*
X56956Y184005D03*
X55381D03*
X53806D03*
X74279Y194775D03*
X72704D03*
X71129D03*
X69554D03*
X67980D03*
X66405D03*
X64830D03*
X63255D03*
X61680D03*
X60106D03*
X58531D03*
X74279Y184005D03*
X72704D03*
X71129D03*
X69554D03*
X67980D03*
X66405D03*
X64830D03*
X63255D03*
X61680D03*
X60106D03*
X58531D03*
X91602Y194775D03*
X90027D03*
X88452D03*
X86877D03*
X85302D03*
X83728D03*
X82153D03*
X80578D03*
X79003D03*
X77428D03*
X75854D03*
X91602Y184005D03*
X90027D03*
X88452D03*
X86877D03*
X85302D03*
X83728D03*
X82153D03*
X80578D03*
X79003D03*
X77428D03*
X75854D03*
X108924Y194775D03*
X107350D03*
X105775D03*
X104200D03*
X102625D03*
X101050D03*
X99476D03*
X97901D03*
X96326D03*
X94751D03*
X93176D03*
X108924Y184005D03*
X107350D03*
X105775D03*
X104200D03*
X102625D03*
X101050D03*
X99476D03*
X97901D03*
X96326D03*
X94751D03*
X93176D03*
X126247Y194775D03*
X124672D03*
X123098D03*
X121523D03*
X119948D03*
X118373D03*
X116798D03*
X115224D03*
X113649D03*
X112074D03*
X110499D03*
X126247Y184005D03*
X124672D03*
X123098D03*
X121523D03*
X119948D03*
X118373D03*
X116798D03*
X115224D03*
X113649D03*
X112074D03*
X110499D03*
X130972Y194775D03*
X129397D03*
X127822D03*
X130972Y184005D03*
X129397D03*
X127822D03*
G54D31*
X193349Y92495D03*
X181223D03*
X193349Y89345D03*
Y90920D03*
X181223Y89345D03*
Y90920D03*
X193349Y87770D03*
X181223D03*
X193349Y101944D03*
X181223D03*
X193349Y100369D03*
X181223D03*
X193349Y98794D03*
X181223D03*
X193349Y95644D03*
Y97219D03*
X181223Y95644D03*
Y97219D03*
X193349Y94070D03*
X181223D03*
G54D41*
G01X118854Y167365D02*
X118589Y167100D01*
G01X131210Y181869D02*
X130972Y182107D01*
G54D32*
G01X94170Y123860D02*
X93096D01*
X92217Y122981D01*
G01X82725Y114492D02*
X81291D01*
X80678Y115105D01*
G01X92138Y132590D02*
Y130941D01*
X92489Y130590D01*
G01X98376Y91110D02*
Y92210D01*
X97435Y93151D01*
G01X98376Y91110D02*
Y90001D01*
X98999Y89378D01*
Y87386D01*
G01X99388Y126472D02*
X96529D01*
X96340Y126661D01*
G01X102162Y127972D02*
X100662Y126472D01*
X99388D01*
G01X92978Y128645D02*
X92347Y128014D01*
Y126585D01*
G54D23*
X91242Y8957D03*
G54D14*
X11697Y18612D03*
X16259D03*
X18400Y10300D03*
X8480Y37308D03*
Y40308D03*
Y34608D03*
X14700Y26700D03*
X17200D03*
X12100D03*
Y29000D03*
X14700D03*
X17241Y28900D03*
X8480Y43308D03*
Y46108D03*
Y49108D03*
X12100Y57100D03*
X17400D03*
X14700D03*
X22200Y48100D03*
Y45900D03*
X17400Y59300D03*
X14600D03*
X12100D03*
X22600Y71300D03*
X17229Y145600D03*
X14300Y145820D03*
X39800Y37000D03*
X36800D03*
X33800D03*
X39800Y40000D03*
X36800D03*
X33800D03*
X39800Y43000D03*
X36800D03*
X33800D03*
X39800Y46000D03*
X36800D03*
X33800D03*
X39800Y49000D03*
X36800D03*
X33800D03*
X25700Y66100D03*
X25600Y68800D03*
X28600D03*
X25500Y71300D03*
X28700Y66200D03*
X28600Y71300D03*
X42800Y37000D03*
Y40000D03*
X45800Y37000D03*
Y40000D03*
X42800Y43000D03*
Y46000D03*
Y49000D03*
X45800Y43000D03*
Y46000D03*
Y49000D03*
X45900Y60800D03*
X48100D03*
X54900Y97600D03*
X57300Y96800D03*
X56713Y116840D03*
X66400Y23900D03*
X64000Y24000D03*
X61700D03*
X74200Y38000D03*
X70500Y38100D03*
X74400Y28500D03*
X66500Y26300D03*
X61700D03*
X64000Y26400D03*
X68800Y25100D03*
X70400Y44000D03*
X74300Y48700D03*
X70700Y48600D03*
X74200Y44000D03*
X67500Y57100D03*
X65100D03*
X62600D03*
X74200Y54550D03*
X67500Y59300D03*
X65100D03*
X62600D03*
X58200Y105600D03*
X58300Y107900D03*
X90200Y17500D03*
Y19900D03*
X87900D03*
Y17500D03*
X89800Y38900D03*
Y41300D03*
X87500D03*
Y38900D03*
X99206Y19827D03*
Y17327D03*
X94206Y19827D03*
X96706D03*
Y17327D03*
X94206D03*
X108054D03*
X105554D03*
X103054D03*
X108054Y19827D03*
X105554D03*
X103054D03*
X99880Y38953D03*
Y41453D03*
X94880Y38953D03*
Y41453D03*
X105578Y38953D03*
Y41453D03*
X99200Y28500D03*
X113054Y17327D03*
X110554D03*
X113054Y19827D03*
X110554D03*
X110578Y38953D03*
Y41453D03*
X113078Y38953D03*
Y41453D03*
X114589Y177590D03*
X139000Y15600D03*
X156754Y55900D03*
X161100Y52800D03*
X156615Y52393D03*
X154540Y58300D03*
X156800Y70200D03*
X150800Y60220D03*
Y64200D03*
X154800Y75940D03*
X152437Y76474D03*
X160200Y81840D03*
X156500Y80200D03*
X162234Y80766D03*
X156100Y108400D03*
X152317Y125473D03*
X178641Y53323D03*
Y58441D03*
X173523Y53323D03*
X163486Y47614D03*
X170700Y42400D03*
X170905Y44924D03*
X166107Y74386D03*
X166695Y71827D03*
Y67890D03*
X173523Y68677D03*
X178641D03*
Y63559D03*
X171793Y77093D03*
X178990Y77138D03*
X174310Y77030D03*
X176506Y76897D03*
X169181Y81840D03*
X169146Y76950D03*
X177299Y161716D03*
X177249Y153382D03*
X183759Y53323D03*
X188877D03*
X183759Y58441D03*
X195705Y52142D03*
X180400Y43000D03*
X180216Y45314D03*
X183700Y42750D03*
X183789Y45049D03*
X184600Y67900D03*
X195705Y67890D03*
X196000Y72800D03*
Y75000D03*
X188900Y67900D03*
X183759Y63559D03*
X195950Y59200D03*
X196147Y63953D03*
X191000Y65200D03*
X195800Y70500D03*
X182200Y76686D03*
X186520Y78091D03*
X192248Y77586D03*
X190120Y78575D03*
X182400Y79600D03*
X195500Y81600D03*
X188142Y79836D03*
G54D42*
G01X66300Y142800D02*
X65961D01*
X65661Y142500D01*
X54700D01*
X48500Y148700D01*
X28100D01*
X23400Y144000D01*
Y130501D01*
X21700Y128801D01*
Y126741D01*
X22141Y126300D01*
G01X20147Y126465D02*
X20850Y127168D01*
Y129154D01*
X22550Y130854D01*
Y144353D01*
X27747Y149550D01*
X48853D01*
X55053Y143350D01*
X64529D01*
X66299Y145120D01*
G01X24900Y119500D02*
Y116900D01*
X24400Y116400D01*
G01X32900Y113700D02*
X31900D01*
X30996Y114604D01*
Y115557D01*
G01X32900Y113700D02*
X33600D01*
X34200Y113100D01*
Y112499D01*
X35199Y111500D01*
X43099D01*
X44750Y113151D01*
Y121590D01*
X45110Y121950D01*
X45890D01*
X46250Y121590D01*
Y113147D01*
X47147Y112250D01*
X49158D01*
X50015Y113107D01*
Y125212D01*
X50378Y125575D01*
X51222D01*
X51584Y125213D01*
Y113957D01*
X52441Y113100D01*
X54193D01*
X55050Y113957D01*
Y122751D01*
X57899Y125600D01*
X65295D01*
X65655Y125240D01*
Y124410D01*
X65095Y123850D01*
X60556D01*
X59900Y123194D01*
Y121826D01*
X58969Y120895D01*
G01X36200Y113800D02*
X36800D01*
X37678Y114678D01*
Y115643D01*
G01X61067Y121000D02*
X60750Y121317D01*
Y122640D01*
X61110Y123000D01*
X65448D01*
X66505Y124057D01*
Y125594D01*
X65649Y126450D01*
X57546D01*
X54200Y123104D01*
Y114310D01*
X53840Y113950D01*
X52794D01*
X52434Y114310D01*
Y125566D01*
X51575Y126425D01*
X50025D01*
X49165Y125565D01*
Y113460D01*
X48805Y113100D01*
X47500D01*
X47100Y113500D01*
Y121943D01*
X46243Y122800D01*
X44757D01*
X43900Y121943D01*
Y113504D01*
X42746Y112350D01*
X35552D01*
X35320Y112582D01*
Y113220D01*
X35900Y113800D01*
X36200D01*
G01X118373Y184005D02*
Y180436D01*
X118945Y179864D01*
Y177245D01*
X119296Y176894D01*
X120254D01*
X120589Y177229D01*
G01X120689Y179327D02*
X119335Y180681D01*
Y182121D01*
X119948Y182734D01*
Y184005D01*
G01X126247D02*
Y182874D01*
X126891Y182230D01*
Y180659D01*
X127900Y179650D01*
Y177754D01*
X128491Y177163D01*
X129589D01*
G01X129489Y179357D02*
X129397D01*
X127822Y180932D01*
Y184005D01*
G54D33*
G01X11141Y22000D02*
Y19168D01*
X11697Y18612D01*
G01X21989Y22791D02*
X22679D01*
X25911Y26023D01*
G01X16259Y22000D02*
Y18612D01*
G01D02*
X17071Y17800D01*
X32056D01*
X35682Y21426D01*
G01X22003Y37293D02*
X22546Y36750D01*
X24930D01*
G01X21489Y55374D02*
X22853D01*
X23667Y54560D01*
X23877D01*
G01X22838Y52510D02*
X23648Y51700D01*
X26763D01*
X27513Y50950D01*
G01X13959Y133942D02*
Y136059D01*
X14100Y136200D01*
G01X37382Y27169D02*
Y27170D01*
X37375Y27177D01*
Y27388D01*
X37358Y27405D01*
Y29277D01*
G01X23873Y32459D02*
X26513D01*
G01X23877Y54560D02*
X24087Y54350D01*
X27513D01*
G01X36989Y60850D02*
Y58209D01*
X37289Y57909D01*
G01X28065Y61700D02*
X27915Y61850D01*
X25965D01*
G01X57648Y37487D02*
X57285Y37850D01*
X55048D01*
G01Y45610D02*
X57648D01*
G01X105560Y155870D02*
X102162Y152472D01*
Y127972D01*
G01X105224Y136892D02*
X106476Y138144D01*
Y143627D01*
X106849Y144000D01*
G01X139000Y15600D02*
X142556Y12044D01*
X149307D01*
G01X128307Y122440D02*
X128319Y122452D01*
X134907D01*
G01X146100Y110300D02*
X140107Y116293D01*
Y122488D01*
G01X134907Y122452D02*
X140071D01*
X140107Y122488D01*
G01X161907Y12000D02*
X157655D01*
X157607Y12048D01*
G01D02*
X153355D01*
X153307Y12096D01*
G01D02*
X149359D01*
X149307Y12044D01*
G01X160893Y48364D02*
X156745D01*
X156693Y48416D01*
G01X160893Y48364D02*
X161100Y48571D01*
Y52800D01*
G01X169400Y74576D02*
Y76696D01*
X169146Y76950D01*
G01X164930Y108443D02*
X167081D01*
X167539Y107985D01*
G01X165459Y116938D02*
Y116639D01*
X167656D01*
X167696Y116679D01*
G01X173967Y119901D02*
X174266D01*
Y117734D01*
X174148Y117616D01*
G01X164930Y111395D02*
X166955D01*
X167633Y112073D01*
G01X165459Y119040D02*
Y119339D01*
X167349D01*
X167844Y118844D01*
G01X171865Y119901D02*
X171566D01*
Y117947D01*
X171897Y117616D01*
G01X171751Y124861D02*
X172050D01*
Y122684D01*
X172527Y122207D01*
G01X183959Y115043D02*
X181708D01*
X181322Y114657D01*
G01X183959Y112091D02*
X181823D01*
X181498Y111766D01*
G54D15*
X7989Y54225D03*
Y57177D03*
X21489Y58326D03*
Y55374D03*
X13607Y97025D03*
Y99977D03*
X8789Y117366D03*
Y114414D03*
X37358Y32229D03*
Y29277D03*
X43751Y32229D03*
Y29277D03*
X41693Y117648D03*
Y114696D03*
X89254Y109469D03*
Y106517D03*
X89007Y119626D03*
Y122578D03*
X108309Y90974D03*
X95310Y109470D03*
Y106518D03*
X108309Y93926D03*
X95267Y119910D03*
Y116958D03*
X134907Y122452D03*
Y125404D03*
X128307Y122440D03*
Y125392D03*
X140107Y122488D03*
Y125440D03*
X161907Y12000D03*
Y14952D03*
X157607Y12048D03*
Y15000D03*
X153307Y12096D03*
Y15048D03*
X149307Y12044D03*
Y14996D03*
X160893Y48364D03*
Y45412D03*
X156693Y48416D03*
Y45464D03*
X177869Y71622D03*
Y74574D03*
X173641Y71634D03*
Y74586D03*
X169400Y71624D03*
Y74576D03*
X164930Y108443D03*
Y111395D03*
X182000Y68424D03*
Y71376D03*
X183959Y115043D03*
Y112091D03*
G54D24*
X91531Y23327D03*
X89956D03*
X88381D03*
X86806D03*
X91531Y35453D03*
X89956D03*
X88381D03*
X86806D03*
X108854Y23327D03*
X107279D03*
X105704D03*
X104129D03*
X102554D03*
X100980D03*
X99405D03*
X97830D03*
X96255D03*
X94680D03*
X93106D03*
X108854Y35453D03*
X107279D03*
X105704D03*
X104129D03*
X102554D03*
X100980D03*
X99405D03*
X97830D03*
X96255D03*
X94680D03*
X93106D03*
X126176Y23327D03*
X124602D03*
X123027D03*
X121452D03*
X119877D03*
X118302D03*
X116728D03*
X115153D03*
X113578D03*
X112003D03*
X110428D03*
X126176Y35453D03*
X124602D03*
X123027D03*
X121452D03*
X119877D03*
X118302D03*
X116728D03*
X115153D03*
X113578D03*
X112003D03*
X110428D03*
X143499Y23327D03*
X141924D03*
X140350D03*
X138775D03*
X137200D03*
X135625D03*
X134050D03*
X132476D03*
X130901D03*
X129326D03*
X127751D03*
X143499Y35453D03*
X141924D03*
X140350D03*
X138775D03*
X137200D03*
X135625D03*
X134050D03*
X132476D03*
X130901D03*
X129326D03*
X127751D03*
X160822Y23327D03*
X159247D03*
X157672D03*
X156098D03*
X154523D03*
X152948D03*
X151373D03*
X149798D03*
X148224D03*
X146649D03*
X145074D03*
X160822Y35453D03*
X159247D03*
X157672D03*
X156098D03*
X154523D03*
X152948D03*
X151373D03*
X149798D03*
X148224D03*
X146649D03*
X145074D03*
X163972Y23327D03*
X162397D03*
X163972Y35453D03*
X162397D03*
G54D34*
G01X54289Y176996D02*
X56956Y179663D01*
Y184005D01*
G01X54389Y179147D02*
X55167D01*
X56056Y180036D01*
Y181623D01*
X55381Y182298D01*
Y184005D01*
G01X61680D02*
Y182679D01*
X61447Y182446D01*
Y179874D01*
X58571Y176998D01*
X58491D01*
G01X62914Y177172D02*
X63555Y177813D01*
X64570D01*
X66145Y179388D01*
Y181925D01*
X66405Y182185D01*
Y184005D01*
G01X67589Y177156D02*
X68237Y177804D01*
X68941D01*
X70854Y179717D01*
Y182639D01*
X71129Y182914D01*
Y184005D01*
G01X75854D02*
Y182669D01*
X75339Y182154D01*
Y179119D01*
X74092Y177872D01*
X73101D01*
X72489Y177260D01*
G01X62989Y179298D02*
X63574Y178713D01*
X64197D01*
X65230Y179746D01*
Y182461D01*
X64830Y182861D01*
Y184005D01*
G01X74279D02*
X74439Y183845D01*
Y179492D01*
X73719Y178772D01*
X72929D01*
X72345Y179356D01*
G01X69554Y184005D02*
Y182933D01*
X69954Y182533D01*
Y180091D01*
X68567Y178704D01*
X68141D01*
X67589Y179256D01*
G01X58589Y179147D02*
X59446D01*
X60547Y180248D01*
Y182408D01*
X60106Y182849D01*
Y184005D01*
G01X86889Y179355D02*
X87344Y178900D01*
X88628D01*
X89127Y179399D01*
Y182162D01*
X88452Y182837D01*
Y184005D01*
G01X86889Y177255D02*
X87634Y178000D01*
X89001D01*
X90027Y179026D01*
Y184005D01*
G01X79003D02*
Y182798D01*
X79403Y182398D01*
Y179820D01*
X78130Y178547D01*
X77298D01*
X76789Y179056D01*
Y179370D01*
G01X80578Y184005D02*
Y182778D01*
X80339Y182539D01*
Y179483D01*
X78503Y177647D01*
X77117D01*
X76697Y177227D01*
G01X81789Y179322D02*
X82611Y178500D01*
X83280D01*
X84402Y179622D01*
Y181997D01*
X83728Y182671D01*
Y184005D01*
G01X81789Y177222D02*
X82167Y177600D01*
X83653D01*
X85302Y179249D01*
Y184005D01*
G01X91589Y179355D02*
X92457Y178487D01*
X93437D01*
X93754Y178804D01*
Y182397D01*
X93176Y182975D01*
Y184005D01*
G01X114738Y115390D02*
X114439D01*
X112539Y113490D01*
X110219D01*
X107964Y111235D01*
G01X94751Y184005D02*
Y178528D01*
X93810Y177587D01*
X92019D01*
X91689Y177257D01*
G01X97901Y184005D02*
Y182934D01*
X98439Y182396D01*
Y178846D01*
X98139Y178546D01*
X97304D01*
X96489Y179361D01*
G01Y177261D02*
X96874Y177646D01*
X98513D01*
X99339Y178472D01*
Y181940D01*
X99476Y182077D01*
Y184005D01*
G01X112303Y103452D02*
X112534Y103683D01*
X115029D01*
X115719Y102993D01*
Y102843D01*
X116513Y102049D01*
X117149D01*
G01X112111Y107200D02*
X110293Y109018D01*
G01X110365Y101166D02*
X110643D01*
X111269Y100540D01*
X111680D01*
X112106Y100114D01*
X114500D01*
X114610Y100004D01*
X116396D01*
G01X116300Y100734D02*
X113396D01*
X112666Y101464D01*
G01X124509Y112605D02*
X111574D01*
X110205Y111236D01*
G01X118553Y124439D02*
X117040D01*
X115489Y125990D01*
X113177D01*
X112570Y126597D01*
G01X163438Y124666D02*
X160542D01*
X159942Y124066D01*
G01X163438Y124666D02*
Y122066D01*
G54D16*
X23013Y61850D03*
X13959Y133942D03*
X11007D03*
X14499Y139705D03*
X11547D03*
X17836Y148381D03*
X14884D03*
X26513Y28850D03*
X29465D03*
X26513Y32459D03*
X29465D03*
X30465Y50950D03*
X27513D03*
Y54350D03*
X30465D03*
X25965Y61850D03*
X30176Y95500D03*
X27224D03*
X33759Y95600D03*
X36711D03*
X34600Y144793D03*
X37552D03*
X75282Y105810D03*
X75349Y123400D03*
X78234Y105810D03*
X78301Y123400D03*
X98999Y87386D03*
X96047D03*
X103267Y117308D03*
X106219D03*
X107724Y162900D03*
X110676D03*
X144508Y182007D03*
X141556D03*
G54D25*
X79566Y148887D03*
X115412Y83041D03*
G54D35*
G01X13000Y74287D02*
X2500Y84787D01*
Y142599D01*
X48417Y188516D01*
X69485D01*
X71089Y190120D01*
G01X16003Y74139D02*
X3410Y86732D01*
Y141810D01*
X49206Y187606D01*
X71605D01*
X72389Y188390D01*
G01X13011Y105059D02*
X11480D01*
X11000Y104579D01*
G01X56100Y106800D02*
Y101300D01*
X52900Y98100D01*
Y92811D01*
X52489Y92400D01*
X51510D01*
X51100Y92810D01*
Y98490D01*
X50690Y98900D01*
X49810D01*
X49400Y98490D01*
Y92810D01*
X48990Y92400D01*
X48110D01*
X47700Y92810D01*
Y98489D01*
X47289Y98900D01*
X46410D01*
X46000Y98490D01*
Y92811D01*
X45589Y92400D01*
X41110D01*
X40700Y92810D01*
Y99595D01*
X40290Y100005D01*
X27005D01*
X26000Y99000D01*
X20300D01*
X19400Y99900D01*
X16100D01*
X15215Y100785D01*
Y102855D01*
X13011Y105059D01*
G01X17200Y110700D02*
X15700Y109200D01*
Y106415D01*
X16110Y106005D01*
X21390D01*
X21800Y105595D01*
Y103910D01*
X22210Y103500D01*
X22990D01*
X23400Y103910D01*
Y105595D01*
X23810Y106005D01*
X24790D01*
X25200Y105595D01*
Y103711D01*
X25611Y103300D01*
X26290D01*
X26700Y103710D01*
Y105090D01*
X27310Y105700D01*
X27990D01*
X28400Y105290D01*
Y102765D01*
X28810Y102355D01*
X30890D01*
X31300Y102765D01*
Y105595D01*
X31710Y106005D01*
X34090D01*
X34500Y105595D01*
Y101800D01*
X35093Y101207D01*
X41790D01*
X42200Y100797D01*
Y94210D01*
X42610Y93800D01*
X43890D01*
X44300Y94210D01*
Y100797D01*
X44710Y101207D01*
X45992D01*
X46299Y100900D01*
X47590D01*
X48000Y101310D01*
Y103090D01*
X48410Y103500D01*
X49290D01*
X49700Y103090D01*
Y100910D01*
X50110Y100500D01*
X53087D01*
X54595Y102008D01*
Y107695D01*
X56600Y109700D01*
X59400D01*
X60700Y108400D01*
G01X14100Y110800D02*
X15000D01*
X16400Y112200D01*
X18000D01*
X18700Y112900D01*
Y117800D01*
X19110Y118210D01*
X19690D01*
X20100Y117800D01*
Y111700D01*
X19200Y110800D01*
Y107600D01*
X19600Y107200D01*
X20400D01*
X20800Y107600D01*
Y108900D01*
X21100Y109200D01*
X22000D01*
X22400Y108800D01*
Y107400D01*
X22700Y107100D01*
X23800D01*
X24100Y107400D01*
Y108800D01*
X24500Y109200D01*
X25500D01*
X25800Y108900D01*
Y107400D01*
X26100Y107100D01*
X27300D01*
X27600Y107400D01*
Y108800D01*
X28000Y109200D01*
X29100D01*
X29300Y109000D01*
Y107300D01*
X29600Y107000D01*
X30500D01*
X30900Y107400D01*
Y108900D01*
X31200Y109200D01*
X33200D01*
X34344Y110344D01*
X53544D01*
X56000Y112800D01*
X62790D01*
X63200Y113210D01*
Y113990D01*
X62790Y114400D01*
X59510D01*
X59100Y114810D01*
Y116020D01*
X60780Y117700D01*
X61900D01*
X62310Y117290D01*
Y116510D01*
X62720Y116100D01*
X63300D01*
X63710Y116510D01*
Y120357D01*
X63067Y121000D01*
G01X74653Y132894D02*
X73659Y131900D01*
X43312D01*
X39625Y128213D01*
X26801D01*
X23438Y124850D01*
X18304D01*
X15354Y121900D01*
X12700D01*
X11200Y120400D01*
G01X24400Y116400D02*
Y111210D01*
X23890Y110700D01*
X23010D01*
X22600Y111110D01*
Y112846D01*
X22190Y113256D01*
X21610D01*
X21200Y113666D01*
Y114486D01*
X21610Y114896D01*
X22190D01*
X22600Y115306D01*
Y116126D01*
X22190Y116536D01*
X21710D01*
X21300Y116946D01*
Y118612D01*
X22005Y119317D01*
Y120205D01*
X23884Y122084D01*
X39794D01*
X47000Y129290D01*
X69110D01*
X69600Y128800D01*
Y126417D01*
X70712Y125305D01*
X72396D01*
X73691Y126600D01*
G01X17200Y117200D02*
X16110D01*
X15700Y116790D01*
Y113500D01*
X14500Y112300D01*
X13010D01*
X12600Y112710D01*
Y119600D01*
X13300Y120300D01*
X15582D01*
X16782Y121500D01*
X21700D01*
X22400Y122200D01*
Y123100D01*
X22700Y123400D01*
X26000D01*
X26600Y124000D01*
Y125900D01*
X27110Y126410D01*
X27790D01*
X28200Y126000D01*
Y125310D01*
X28610Y124900D01*
X29290D01*
X29700Y125310D01*
Y126590D01*
X30110Y127000D01*
X30990D01*
X31400Y126590D01*
Y125410D01*
X31810Y125000D01*
X40800D01*
X41467Y125667D01*
Y126247D01*
X41047Y126667D01*
Y127247D01*
X41627Y127827D01*
X42207D01*
X42627Y127407D01*
X43207D01*
X43787Y127987D01*
Y128567D01*
X43367Y128987D01*
Y129567D01*
X43947Y130147D01*
X44527D01*
X44947Y129727D01*
X45725D01*
X46498Y130500D01*
X74999D01*
X75589Y129910D01*
Y128990D01*
G01X5136Y140633D02*
Y141937D01*
X49895Y186696D01*
X89796D01*
X92199Y189099D01*
G01X39878Y24733D02*
X39388Y25223D01*
Y28698D01*
X40489Y29799D01*
G01X30400Y61700D02*
X32555Y63855D01*
X53545D01*
X56385Y61015D01*
Y59500D01*
G01X40843Y107517D02*
X40660Y107700D01*
X38899D01*
G01X36000Y104600D02*
X37700Y102900D01*
X40949D01*
G01X73900Y111400D02*
Y111900D01*
X73100Y112700D01*
X65200D01*
X64378Y111878D01*
Y107774D01*
X64788Y107364D01*
X65590D01*
X66000Y106954D01*
Y106134D01*
X65590Y105724D01*
X64788D01*
X64378Y105314D01*
Y104494D01*
X64788Y104084D01*
X65590D01*
X66000Y103674D01*
Y102854D01*
X65590Y102444D01*
X64788D01*
X64378Y102034D01*
Y99110D01*
X63668Y98400D01*
X60210D01*
X59800Y98810D01*
Y99790D01*
X60210Y100200D01*
X62327D01*
X62738Y100611D01*
Y103013D01*
X62328Y103423D01*
X60210D01*
X59800Y103833D01*
Y104653D01*
X60210Y105063D01*
X62390D01*
X62800Y105473D01*
Y110528D01*
X62328Y111000D01*
X56000D01*
X54134Y109134D01*
X53400D01*
X52800Y108534D01*
Y102700D01*
X52340Y102240D01*
X51610D01*
X51200Y102650D01*
Y108634D01*
X50700Y109134D01*
X50010D01*
X49600Y108724D01*
Y105700D01*
X49200Y105300D01*
X48541D01*
X48200Y105641D01*
Y108483D01*
X47549Y109134D01*
X35435D01*
X34028Y107727D01*
X32900D01*
G01X29800Y120500D02*
X29169Y121131D01*
X26831D01*
X26500Y120800D01*
Y120050D01*
X26950Y119600D01*
X28000D01*
X28200Y119400D01*
Y118625D01*
X27790Y118215D01*
X26410D01*
X26000Y117805D01*
Y116985D01*
X26410Y116575D01*
X27790D01*
X28200Y116165D01*
Y115345D01*
X27790Y114935D01*
X26410D01*
X26000Y114525D01*
Y113705D01*
X26410Y113295D01*
X27790D01*
X28200Y112885D01*
Y112300D01*
X27700Y111800D01*
X26200D01*
X25900Y111500D01*
Y110934D01*
X26300Y110534D01*
X30990D01*
X31400Y110944D01*
Y112600D01*
X31000Y113000D01*
X30111D01*
X29700Y113411D01*
Y118100D01*
X30471Y118871D01*
X38570D01*
X47779Y128080D01*
X67520D01*
X68100Y127500D01*
Y124895D01*
X68510Y124485D01*
X73585D01*
X75684Y126584D01*
X76004D01*
G01X24780Y131000D02*
X27000Y133220D01*
Y137764D01*
X28703Y139467D01*
X51133D01*
X52970Y137630D01*
Y135830D01*
X55645Y133155D01*
X71653D01*
X72902Y134404D01*
G01X41400Y132849D02*
Y131976D01*
X39042Y129618D01*
G01X98528Y132722D02*
X100100Y134294D01*
Y140899D01*
X76299Y164700D01*
X41399D01*
X37611Y160912D01*
X34152D01*
X32270Y159030D01*
G01X98567Y134892D02*
X99121Y135446D01*
Y139878D01*
X75499Y163500D01*
X41901D01*
X37808Y159407D01*
X35300D01*
G01X56385Y59500D02*
Y57935D01*
X56000Y57550D01*
G01X46657Y107585D02*
X46172Y107100D01*
X44300D01*
X43800Y107600D01*
G01X40843Y107517D02*
X41283D01*
X43000Y105800D01*
X46340D01*
X46657Y105483D01*
G01X39724Y158690D02*
Y159024D01*
X42400Y161700D01*
X75299D01*
X92489Y144510D01*
Y134562D01*
G01X43100Y159000D02*
X44600Y160500D01*
X74628D01*
X90800Y144328D01*
Y132379D01*
X88895Y130474D01*
X88683D01*
G01X53806Y194775D02*
Y192342D01*
X53689Y192225D01*
G01X56437Y190021D02*
Y192538D01*
X56956Y193057D01*
Y194775D01*
G01X55381D02*
Y191787D01*
X53721Y190127D01*
X53589D01*
G01X64800Y114300D02*
X65000D01*
X65093Y114393D01*
X66754D01*
G01X75309Y188910D02*
X74569D01*
X72704Y190775D01*
Y194775D01*
G01X66405D02*
Y191661D01*
X64771Y190027D01*
G01X64830Y194775D02*
Y192234D01*
X64839Y192225D01*
G01X63255Y194775D02*
Y191670D01*
X61723Y190138D01*
X61439D01*
G01X71129Y194775D02*
Y192253D01*
X71101Y192225D01*
G01X58571Y190090D02*
X58879D01*
X59289Y190500D01*
Y190808D01*
X60106Y191625D01*
Y194775D01*
G01X68010Y190125D02*
X68124D01*
X69554Y191555D01*
Y194775D01*
G01X61680D02*
Y192225D01*
G01X82500Y22700D02*
X83700Y23900D01*
Y56729D01*
X92631Y65660D01*
G01X85329Y11600D02*
Y29729D01*
X87700Y32100D01*
X108799D01*
X111414Y29485D01*
X115613D01*
X116728Y30600D01*
Y35453D01*
G01X141189Y131148D02*
X147694Y124643D01*
Y72106D01*
X166409Y53391D01*
Y32109D01*
X164300Y30000D01*
X159593D01*
X157921Y28328D01*
X110673D01*
X107901Y31100D01*
X92181D01*
X91607Y30526D01*
G01X92199Y189099D02*
X91194Y190104D01*
Y192147D01*
X90027Y193314D01*
Y194775D01*
G01X74279Y191329D02*
Y194775D01*
G01X89689Y191139D02*
Y192364D01*
X88452Y193601D01*
Y194775D01*
G01X85302D02*
Y192931D01*
X86240Y191993D01*
Y190405D01*
X86650Y189995D01*
X87289D01*
G01X94641Y187271D02*
X93704Y188208D01*
Y189723D01*
X92104Y191323D01*
Y192775D01*
X91602Y193277D01*
Y194775D01*
G01X83825Y190826D02*
Y190990D01*
X83489Y191326D01*
Y192090D01*
X82153Y193426D01*
Y194775D01*
G01X79621Y191774D02*
Y192160D01*
X79003Y192778D01*
Y194775D01*
G01X78663Y189905D02*
X77374D01*
X75854Y191425D01*
Y194775D01*
G01X89975Y189058D02*
X89107Y188190D01*
X86089D01*
X85330Y188949D01*
Y191615D01*
X83728Y193217D01*
Y194775D01*
G01X81765Y191685D02*
X81489Y191961D01*
Y192190D01*
X80578Y193101D01*
Y194775D01*
G01X102100Y29300D02*
X104739Y26661D01*
X164365D01*
X168229Y30525D01*
Y55671D01*
X150652Y73248D01*
Y119830D01*
X153922Y123100D01*
Y155735D01*
X151890Y157767D01*
G01X107724Y162900D02*
X105769D01*
X105579Y163090D01*
G01X102625Y184005D02*
Y182975D01*
G01X108924Y184005D02*
Y183327D01*
G01X107350Y184005D02*
Y182951D01*
G01X107849Y166200D02*
X106579D01*
X105579Y165200D01*
G01X104200Y183327D02*
Y184005D01*
G01X94751Y194775D02*
Y191252D01*
X97513Y188490D01*
X99156D01*
X99524Y188122D01*
G01X97561Y186929D02*
Y187154D01*
X93176Y191539D01*
Y194775D01*
G01X97901D02*
Y190987D01*
X98158Y190730D01*
G01X99476Y194775D02*
Y192203D01*
X99663Y192016D01*
Y190113D01*
X101961Y187815D01*
X102593D01*
G01X102625Y194775D02*
Y192326D01*
X102761Y192190D01*
G01X105622Y190078D02*
Y190216D01*
X104266Y191572D01*
Y193113D01*
X104200Y193179D01*
Y194775D01*
G01X108924D02*
Y190716D01*
X108781Y190573D01*
G01X108889Y188475D02*
X108749D01*
X107276Y189948D01*
Y192677D01*
X107350Y192751D01*
Y194775D01*
G01X101050D02*
Y190939D01*
X101394Y190595D01*
G01X96326Y194775D02*
Y192026D01*
G01X119877Y18165D02*
X119244D01*
X117693Y19716D01*
Y21012D01*
X118302Y21621D01*
Y23327D01*
G01X116728D02*
Y20897D01*
X116188Y20357D01*
G01X123027Y18165D02*
X122057D01*
X120703Y19519D01*
Y20815D01*
X121452Y21564D01*
Y23327D01*
G01X116728Y18165D02*
X116227D01*
X114683Y19709D01*
Y21005D01*
X115153Y21475D01*
Y23327D01*
G01X119877D02*
Y21276D01*
X119198Y20597D01*
Y20364D01*
G01X124602Y23327D02*
Y21863D01*
X123713Y20974D01*
Y19702D01*
X125448Y17967D01*
X126046D01*
G01X125218Y20350D02*
Y21144D01*
X126176Y22102D01*
Y23327D01*
G01Y35453D02*
Y37313D01*
X125900Y37589D01*
Y41265D01*
X127750Y43115D01*
G01X122650Y40326D02*
X122770D01*
X124602Y38494D01*
Y35453D01*
G01X119877D02*
Y38079D01*
X119730Y38226D01*
G01X116727Y40615D02*
Y39100D01*
X118302Y37525D01*
Y35453D01*
G01X150800Y64200D02*
X152900D01*
X165499Y51601D01*
Y33563D01*
X164063Y32127D01*
X158658D01*
X157016Y30485D01*
X119494D01*
X118989Y30990D01*
G01X119600Y40700D02*
X121235Y39065D01*
Y37602D01*
X121452Y37385D01*
Y35453D01*
G01X114989Y30990D02*
X115153Y31154D01*
Y35453D01*
G01X120543Y109404D02*
X119416Y110531D01*
X116839D01*
X114508Y108200D01*
X113247D01*
X112469Y108978D01*
G01X117743Y109406D02*
X116748D01*
X114542Y107200D01*
X112111D01*
G01X116396Y100004D02*
X116400Y100000D01*
X121640D01*
X123649Y102009D01*
G01X120100Y102049D02*
X118785Y100734D01*
X116300D01*
G01X143308Y107398D02*
Y107399D01*
X138102Y112605D01*
X124509D01*
G01X137800Y176800D02*
Y170900D01*
X135100Y168200D01*
Y148900D01*
X125500Y139300D01*
G01X124789Y136614D02*
X124437D01*
X122851Y138200D01*
G01X124200Y131900D02*
X120400Y135700D01*
Y136400D01*
G01X128307Y125392D02*
Y127793D01*
X124200Y131900D01*
G01X123098Y184005D02*
Y171609D01*
X118854Y167365D01*
G01X123539Y166940D02*
X123693D01*
X131210Y174457D01*
Y181869D01*
G01X130972Y182107D02*
Y184005D01*
G01X112074Y183327D02*
Y184005D01*
G01X113649Y182651D02*
Y184005D01*
G01X138939Y191774D02*
X138065Y190900D01*
X132063D01*
X130863Y189700D01*
X125511D01*
X123098Y192113D01*
Y194775D01*
G01X112165Y190935D02*
Y191485D01*
X112074Y191576D01*
Y194775D01*
G01X113827Y192219D02*
Y192452D01*
X113649Y192630D01*
Y194775D01*
G01X110499D02*
Y192225D01*
G01X143182Y190292D02*
X142880Y189990D01*
X132440D01*
X131240Y188790D01*
X125133D01*
X121523Y192400D01*
Y194775D01*
G01X140389Y187350D02*
X139569Y188170D01*
X133274D01*
X132074Y186970D01*
X124377D01*
X118373Y192974D01*
Y194775D01*
G01X116798D02*
Y193261D01*
X123999Y186060D01*
X134339D01*
X135386Y185013D01*
X136903D01*
X138420Y186530D01*
G01X127046Y191205D02*
Y192593D01*
X126247Y193392D01*
Y194775D01*
G01X119948D02*
Y192687D01*
X124755Y187880D01*
X131696D01*
X132896Y189080D01*
X141599D01*
X142380Y188299D01*
X142520D01*
G01X138775Y18165D02*
X137901Y19039D01*
Y21157D01*
X137200Y21858D01*
Y23327D01*
G01X132163Y18253D02*
X130901Y19515D01*
Y23327D01*
G01X128228Y20069D02*
X129326Y21167D01*
Y23327D01*
G01X127751D02*
Y21721D01*
X126723Y20693D01*
Y19421D01*
X128115Y18029D01*
X129036D01*
G01X135625Y23327D02*
Y21304D01*
X136396Y20533D01*
G01X135715Y18075D02*
X134050Y19740D01*
Y23327D01*
G01X139406Y20428D02*
Y20781D01*
X138775Y21412D01*
Y23327D01*
G01X145074Y18165D02*
X143921Y19318D01*
Y21085D01*
X143499Y21507D01*
Y23327D01*
G01X141925Y18165D02*
X140911Y19179D01*
Y21052D01*
X140350Y21613D01*
Y23327D01*
G01X127644Y40610D02*
X128969Y39285D01*
Y37548D01*
X129326Y37191D01*
Y35453D01*
G01X135625D02*
Y39071D01*
X133484Y41212D01*
G01X127751Y35453D02*
Y38189D01*
X127464Y38476D01*
G01X130893Y41280D02*
X131979Y40194D01*
Y38154D01*
X132476Y37657D01*
Y35453D01*
G01X130474Y38554D02*
Y38377D01*
X130901Y37950D01*
Y35453D01*
G01X138775D02*
Y33394D01*
X140179Y31990D01*
X146522D01*
G01X138893Y45734D02*
X137200Y44041D01*
Y35453D01*
G01X138864Y40615D02*
Y40526D01*
X140350Y39040D01*
Y35453D01*
G01X141924Y40615D02*
X143499Y39040D01*
Y35453D01*
G01X141924D02*
Y38226D01*
G01X139817Y73745D02*
X132145D01*
X127445Y69045D01*
Y56626D01*
X130371Y53700D01*
X137200D01*
X148224Y42676D01*
Y35453D01*
G01X149798D02*
Y43101D01*
X135757Y57142D01*
X132142D01*
X130600Y55600D01*
G01X151373Y35453D02*
Y37571D01*
X151406Y37604D01*
Y38852D01*
X151373Y38885D01*
Y43327D01*
X132900Y61800D01*
Y65819D01*
X131949Y66770D01*
G01X152948Y35453D02*
Y43853D01*
X134100Y62701D01*
Y66749D01*
X132574Y68275D01*
X129475D01*
X129150Y67950D01*
X129050D01*
X128950Y67850D01*
G01X156693Y45464D02*
X154436D01*
X138800Y61100D01*
Y67399D01*
X134734Y71465D01*
X132260D01*
X130948Y70153D01*
X130942D01*
G01X154523Y35453D02*
Y43878D01*
X137500Y60901D01*
Y67100D01*
X136145Y68455D01*
X134565D01*
G01X134900Y101949D02*
Y98594D01*
X135334Y98160D01*
G01X127750Y102009D02*
Y97737D01*
G01X131457Y102000D02*
Y99908D01*
X133223Y98142D01*
G01X138889Y131190D02*
Y126658D01*
X140107Y125440D01*
G01X134907Y125404D02*
X136887Y127384D01*
Y128602D01*
G01X133089Y136990D02*
X130090D01*
X128200Y135100D01*
Y131900D01*
G01X130972Y194775D02*
Y193447D01*
X131699Y192720D01*
X134819D01*
X136799Y194700D01*
X143100D01*
X148438Y189362D01*
Y140739D01*
X138889Y131190D01*
G01X136887Y128602D02*
Y131386D01*
X146800Y141299D01*
Y189501D01*
X142801Y193500D01*
X137099D01*
X135409Y191810D01*
X130919D01*
X129397Y193332D01*
Y194775D01*
G01X135079Y134869D02*
X133959Y133749D01*
Y133081D01*
G01X137800Y176800D02*
Y178251D01*
X141556Y182007D01*
G01X127822Y194775D02*
Y193069D01*
X129270Y191621D01*
Y191205D01*
G01X159247Y23327D02*
Y20007D01*
X159317Y19937D01*
Y19930D01*
X160822Y18425D01*
Y18165D01*
G01X151373D02*
Y18432D01*
X149941Y19864D01*
Y21138D01*
X149798Y21281D01*
Y23327D01*
G01X151373Y18165D02*
Y16982D01*
X153307Y15048D01*
G01X157672Y23327D02*
Y20554D01*
G01D02*
Y20102D01*
X159317Y18457D01*
Y17541D01*
X161906Y14952D01*
X161907D01*
G01X148224Y18165D02*
X146931Y19458D01*
Y21105D01*
X146649Y21387D01*
Y23327D01*
G01X148224D02*
Y20726D01*
X148436Y20514D01*
G01D02*
Y20082D01*
X149729Y18789D01*
Y15418D01*
X149307Y14996D01*
G01X154474Y18165D02*
Y18214D01*
X152951Y19737D01*
Y21178D01*
X152948Y21181D01*
Y23327D01*
G01X157484Y18161D02*
X156098Y19547D01*
Y23327D01*
G01X157484Y18161D02*
Y15123D01*
X157607Y15000D01*
G01X145074Y23327D02*
Y20833D01*
X145426Y20481D01*
G01X154523Y23327D02*
Y20554D01*
G01X160822Y35453D02*
Y38226D01*
G01X160893Y45412D02*
X162323Y43982D01*
Y39995D01*
X160822Y38494D01*
Y38226D01*
G01X157672Y35453D02*
Y42228D01*
X156693Y43207D01*
Y45464D01*
G01X160818Y40619D02*
Y40611D01*
X159247Y39040D01*
Y35453D01*
G01X144968Y40615D02*
X145064D01*
X146649Y39040D01*
Y35453D01*
G01X160737Y28166D02*
X160740Y28169D01*
X164586D01*
X167319Y30902D01*
Y54580D01*
X149348Y72551D01*
Y137570D01*
X152259Y140481D01*
G01X170700Y42400D02*
X169300Y43800D01*
Y56500D01*
X159100Y66700D01*
Y77600D01*
X156500Y80200D01*
G01X162234Y80766D02*
X160100Y78632D01*
Y67299D01*
X170400Y56999D01*
Y45429D01*
X170905Y44924D01*
G01X163029Y167248D02*
X155219Y159438D01*
Y122400D01*
X152000Y119181D01*
Y92200D01*
X157347Y86853D01*
X160800D01*
G01X158250Y94347D02*
Y111915D01*
X158026Y112139D01*
G01X163972Y23327D02*
Y20554D01*
G01Y18165D02*
X162397Y19740D01*
Y23327D01*
G01X163972Y35453D02*
Y38226D01*
G01X163994Y40615D02*
Y40377D01*
X162467Y38850D01*
Y35523D01*
X162397Y35453D01*
G01X172000Y83490D02*
X174941Y86431D01*
Y93038D01*
X176698Y94795D01*
X177518D01*
X178367Y95644D01*
X181223D01*
G01X176641Y83566D02*
Y89493D01*
X178068Y90920D01*
X181223D01*
G01Y98794D02*
X177129D01*
X173513Y95178D01*
Y91222D01*
X173436Y91145D01*
G01X176523Y92490D02*
Y92525D01*
X178068Y94070D01*
X181223D01*
G01X176772Y96300D02*
X176997Y96525D01*
X177029D01*
X177723Y97219D01*
X181223D01*
G01X193400Y63200D02*
X191400Y65200D01*
X191000D01*
G01X183809Y86200D02*
X183503D01*
X181933Y87770D01*
X181223D01*
G01X195067Y85511D02*
X195717Y86161D01*
Y88227D01*
X194599Y89345D01*
X193349D01*
G01X192974Y85691D02*
X193349Y86066D01*
Y87770D01*
G01X187094Y98679D02*
Y100694D01*
X191500Y105100D01*
X196327D01*
X197500Y103927D01*
Y98891D01*
X196298Y97689D01*
X194967D01*
X194497Y97219D01*
X193349D01*
G01X196375Y91970D02*
X196197D01*
X195672Y92495D01*
X193349D01*
G01Y101944D02*
Y103544D01*
G01Y94070D02*
X196376D01*
G01X196332Y96184D02*
X196261Y96113D01*
X196064D01*
X195595Y95644D01*
X193349D01*
G01X195559Y103361D02*
Y101356D01*
X194572Y100369D01*
X193349D01*
G54D17*
X9198Y102957D03*
X7096D03*
X7100Y105443D03*
X9202D03*
X13011Y105059D03*
Y107161D03*
X7139Y110611D03*
X9241D03*
X7098Y108043D03*
X9200D03*
X9204Y100457D03*
X7102D03*
X40489Y31901D03*
Y29799D03*
X40843Y107517D03*
Y105415D03*
X35576Y115643D03*
X37678D03*
X35146Y117657D03*
X33044D03*
X33098Y115557D03*
X30996D03*
X36400Y132849D03*
Y134951D03*
X42722Y18805D03*
Y20907D03*
X45246Y18805D03*
Y20907D03*
X56000Y57550D03*
Y55448D03*
X55989Y51419D03*
Y49317D03*
X46657Y105483D03*
Y107585D03*
X43051Y102900D03*
X40949D03*
X41400Y132849D03*
Y134951D03*
X70300Y116551D03*
Y114449D03*
X74842Y115399D03*
Y113297D03*
X66754Y114393D03*
Y116495D03*
X89642Y92776D03*
X91744D03*
X83291Y101527D03*
X85393D03*
X92128Y98941D03*
X90513Y101386D03*
Y103488D03*
X84462Y104401D03*
Y106503D03*
X85096Y109156D03*
X82994D03*
X90500Y126381D03*
X85778Y120861D03*
X83676D03*
X88424Y116818D03*
X90526D03*
X90385Y114293D03*
Y112191D03*
X85631Y113041D03*
X87733D03*
X85292Y117119D03*
X83190D03*
X82725Y112390D03*
Y114492D03*
X77464Y116951D03*
X79566D03*
X77820Y113111D03*
X79922D03*
X84440Y123361D03*
X82338D03*
X84589Y126739D03*
X92978Y128645D03*
X90500Y128483D03*
X79838Y128490D03*
X81940D03*
X92138Y132590D03*
X84589Y128841D03*
X98376Y91110D03*
X96274D03*
X109031Y105085D03*
Y107187D03*
X102715Y105022D03*
Y107124D03*
X106077Y105473D03*
Y107575D03*
X102480Y101006D03*
X100378D03*
X94230Y98941D03*
X100274Y105161D03*
X98172D03*
X98185Y109078D03*
X100287D03*
X94344Y101715D03*
Y103817D03*
X110018Y98970D03*
X108843Y124602D03*
X99363Y120918D03*
X101465D03*
X106268Y122877D03*
X104166D03*
X99388Y126472D03*
X107605Y113145D03*
X105503D03*
X106023Y127602D03*
Y125500D03*
X94170Y125962D03*
Y123860D03*
X95036Y114265D03*
Y112163D03*
X98267Y117005D03*
X100369D03*
X98269Y113038D03*
X100371D03*
X96736Y122733D03*
Y124835D03*
X102889Y111339D03*
Y113441D03*
X95080Y128645D03*
X99388Y128574D03*
X94420Y137159D03*
Y135057D03*
X106849Y144000D03*
X108951D03*
X94240Y132590D03*
X108989Y138041D03*
Y135939D03*
X109840Y159830D03*
X107738D03*
X109951Y166200D03*
X107849D03*
X112120Y98970D03*
X123649Y102009D03*
Y104111D03*
X117149Y102049D03*
Y104151D03*
X120100Y102049D03*
Y104151D03*
X120543Y109404D03*
Y107302D03*
X117743Y109406D03*
Y107304D03*
X110945Y124602D03*
X115637Y122943D03*
X113535D03*
X118553Y126541D03*
Y124439D03*
X114738Y117492D03*
Y115390D03*
X118553Y129367D03*
Y131469D03*
X120749Y138200D03*
X122851D03*
X115240Y131490D03*
X113138D03*
X134900Y101949D03*
Y104051D03*
X127750Y102009D03*
Y104111D03*
X131457Y102000D03*
Y104102D03*
X135079Y136971D03*
Y134869D03*
X167041Y98004D03*
X164939D03*
X173344Y97364D03*
X171242D03*
X165540Y122066D03*
X163438D03*
X165540Y124666D03*
X163438D03*
X169649Y124861D03*
X171751D03*
X173967Y119901D03*
X171865D03*
X165459Y116938D03*
Y119040D03*
X193051Y75600D03*
X190949D03*
X192700Y68949D03*
Y71051D03*
X188451Y75600D03*
X186349D03*
G54D26*
X101242Y8957D03*
G54D36*
G01X-4Y9993D02*
G03X9996Y-7I10000J0D01*
G01X189996D01*
G03X199996Y9993I0J10000D01*
G01Y189993D01*
G03X189996Y199993I-10000J0D01*
G01X9996D01*
G03X-4Y189993I0J-10000D01*
G01Y9993D01*
G01X27915Y25095D02*
Y26424D01*
X26513Y27826D01*
Y28850D01*
G01X42722Y22986D02*
Y20907D01*
G01X45246D02*
Y23134D01*
G01X43751Y29277D02*
Y28789D01*
X42082Y27120D01*
G01X70300Y114449D02*
X72148D01*
X72789Y115090D01*
G01X67980Y194775D02*
Y192225D01*
G01X89254Y109469D02*
X87727Y110996D01*
X86754D01*
G01X85096Y109156D02*
X86754Y110814D01*
Y110996D01*
G01X90513Y101386D02*
X87380D01*
X87350Y101416D01*
G01X84440Y111061D02*
X83744D01*
X82994Y110311D01*
Y109156D01*
G01X77820Y113111D02*
Y112453D01*
X78089Y112184D01*
Y112095D01*
X78709Y111475D01*
Y111290D01*
G01X85631Y113041D02*
Y113649D01*
X84989Y114291D01*
Y116816D01*
X85292Y117119D01*
G01X85631Y113041D02*
Y112327D01*
X86754Y111204D01*
Y110996D01*
G01X85631Y113041D02*
X84040D01*
X83389Y112390D01*
X82725D01*
G01X85778Y120861D02*
X86644Y119995D01*
Y118927D01*
G01X90500Y126381D02*
X88898D01*
X88689Y126590D01*
G01X83190Y117119D02*
Y117707D01*
X84472Y118989D01*
G01X90500Y128483D02*
X87702D01*
X87581Y128604D01*
G01X86877Y194775D02*
Y193012D01*
X87737Y192152D01*
G01X95080Y128645D02*
Y127655D01*
X94170Y126745D01*
Y125962D01*
G01X116798Y184005D02*
Y175199D01*
G01X105775Y194775D02*
Y192201D01*
X105771Y192197D01*
G01X123027Y23327D02*
Y21851D01*
X122867Y21691D01*
Y21685D01*
X122581Y21399D01*
Y20540D01*
X122208Y20167D01*
G01X123027Y35453D02*
Y37939D01*
X122740Y38226D01*
G01X124672Y194775D02*
Y192681D01*
X125127Y192226D01*
G01X115989Y191890D02*
Y192490D01*
X115224Y193255D01*
Y194775D01*
G01X132476Y23327D02*
Y20382D01*
G01X141924Y23327D02*
Y21602D01*
X142016Y21510D01*
Y20861D01*
X142416Y20461D01*
G01X134050Y35453D02*
Y38213D01*
X133484Y38779D01*
G01X160822Y23327D02*
Y20554D01*
G01X151373Y23327D02*
Y20627D01*
X151446Y20554D01*
G01X156098Y35453D02*
Y38226D01*
G01X145074Y35453D02*
X145064Y38224D01*
X145062Y38226D01*
G01X181223Y100369D02*
X178110D01*
G01X175989Y100490D02*
Y101269D01*
X176789Y102069D01*
X179910D01*
X180035Y101944D01*
X181223D01*
G01X188487Y71787D02*
X190347D01*
X191360Y72800D01*
X196000D01*
G01X192700Y71051D02*
X191451D01*
X190613Y70213D01*
X188487D01*
G01X192700Y71051D02*
X195249D01*
X195800Y70500D01*
G01X188451Y75600D02*
Y74051D01*
X186913Y72513D01*
Y71787D01*
G01X196376Y89719D02*
X196189D01*
X194988Y90920D01*
X193349D01*
G01X181223Y89345D02*
X178623D01*
G01X196000Y75000D02*
X195700Y75300D01*
X193351D01*
X193051Y75600D01*
G01X186349D02*
X184300Y77649D01*
Y77700D01*
X182400Y79600D01*
G01X188451Y75600D02*
X190949D01*
G01X195950Y99471D02*
X195934Y99455D01*
X195637D01*
X194976Y98794D01*
X193349D01*
G01X181223Y92495D02*
X178623D01*
G54D27*
G01X80300Y54933D02*
Y29800D01*
X73500Y23000D01*
X124200Y131900D03*
X128200D03*
X193400Y59200D03*
Y63200D03*
G54D18*
X10289Y159090D03*
X128400Y10300D03*
X156169Y192050D03*
G54D37*
G01X102625Y182975D02*
X103025Y182575D01*
Y178899D01*
X102481Y178355D01*
X101435D01*
X100889Y178901D01*
Y179175D01*
G01X108924Y183327D02*
Y182825D01*
X108700Y182601D01*
Y179734D01*
X106246Y177280D01*
X105815D01*
G01X107350Y182951D02*
X107750Y182551D01*
Y180058D01*
X106565Y178873D01*
X105971D01*
X105489Y179355D01*
G01X100819Y176976D02*
X101243Y177400D01*
X102800D01*
X103979Y178579D01*
Y182080D01*
X104200Y182301D01*
Y183327D01*
G01X110231Y179356D02*
X111183Y178404D01*
X111778D01*
X112516Y179142D01*
Y182122D01*
X112074Y182564D01*
Y183327D01*
G01X110189Y177185D02*
X110508Y177504D01*
X112225D01*
X113416Y178695D01*
Y182418D01*
X113649Y182651D01*
G54D28*
X158250Y94347D03*
X160800Y86853D03*
X163350Y94347D03*
G54D19*
X59566Y83041D03*
Y148887D03*
X125412Y83041D03*
Y148887D03*
G54D38*
G01X27224Y95500D02*
Y97424D01*
X28100Y98300D01*
X29400D01*
G01X36400Y132849D02*
Y130126D01*
X36174Y129900D01*
G54D29*
G01X-100138Y-167478D02*
Y-67478D01*
X299862D01*
G01D02*
Y-167478D01*
X-100138D01*
G01X21989Y27909D02*
Y30850D01*
X20489Y32350D01*
X174365Y108056D03*
G54D39*
G01X-92976Y-161353D02*
X-92428Y-160618D01*
X-91958Y-160198D01*
X-91331Y-159988D01*
X-90783Y-160198D01*
X-90391Y-160618D01*
X-90078Y-161248D01*
X-90000Y-161983D01*
X-90078Y-162613D01*
X-90391Y-163243D01*
X-90861Y-163768D01*
X-91410Y-163978D01*
X-92036Y-163768D01*
X-92585Y-163138D01*
X-92898Y-162193D01*
X-92976Y-161143D01*
X-92820Y-159778D01*
X-92585Y-159043D01*
X-92193Y-158308D01*
X-91645Y-157783D01*
X-91096Y-157678D01*
X-90548Y-157888D01*
X-90156Y-158413D01*
G01X-78888Y-163978D02*
X-79515Y-163873D01*
X-80063Y-163453D01*
X-80533Y-162823D01*
X-80846Y-162088D01*
X-81003Y-161248D01*
Y-160408D01*
X-80846Y-159568D01*
X-80533Y-158833D01*
X-80063Y-158203D01*
X-79515Y-157783D01*
X-78888Y-157678D01*
X-78261Y-157783D01*
X-77713Y-158203D01*
X-77243Y-158833D01*
X-76930Y-159568D01*
X-76773Y-160408D01*
Y-161248D01*
X-76930Y-162088D01*
X-77243Y-162823D01*
X-77713Y-163453D01*
X-78261Y-163873D01*
X-78888Y-163978D01*
G01X-74076D02*
Y-157678D01*
X-71100D01*
G01X-72196Y-160723D02*
X-74076D01*
G01X-59988Y-163978D02*
Y-157678D01*
X-60928Y-158938D01*
G01Y-163978D02*
X-59048D01*
G01X-55176Y-158728D02*
X-54706Y-158098D01*
X-54158Y-157783D01*
X-53531Y-157678D01*
X-52748Y-157888D01*
X-52200Y-158413D01*
X-52043Y-159043D01*
X-52121Y-159673D01*
X-52435Y-160198D01*
X-54001Y-161248D01*
X-54706Y-161983D01*
X-55176Y-163033D01*
X-55333Y-163978D01*
X-52043D01*
G01X-96613Y-154945D02*
X-96146Y-155278D01*
X-95621Y-155478D01*
X-95155D01*
X-94688Y-155278D01*
X-94338Y-154945D01*
X-94163Y-154478D01*
X-94280Y-154011D01*
X-94571Y-153611D01*
X-95096Y-153345D01*
X-95796Y-153211D01*
X-96205Y-152945D01*
X-96380Y-152478D01*
X-96263Y-152011D01*
X-95971Y-151678D01*
X-95563Y-151478D01*
X-95155D01*
X-94746Y-151611D01*
X-94396Y-151945D01*
G01X-91813Y-155478D02*
Y-151478D01*
G01X-89363D02*
Y-155478D01*
G01Y-153478D02*
X-91813D01*
G01X-84621Y-155478D02*
X-86955D01*
Y-151478D01*
X-84621D01*
G01X-85555Y-153411D02*
X-86955D01*
G01X-79821Y-155478D02*
X-82155D01*
Y-151478D01*
X-79821D01*
G01X-80755Y-153411D02*
X-82155D01*
G01X-76188Y-151478D02*
Y-155478D01*
G01X-77530Y-151478D02*
X-74846D01*
G01X-88388Y-136478D02*
X-88855Y-136411D01*
X-89263Y-136145D01*
X-89613Y-135745D01*
X-89846Y-135278D01*
X-89963Y-134745D01*
Y-134211D01*
X-89846Y-133678D01*
X-89613Y-133211D01*
X-89263Y-132811D01*
X-88855Y-132545D01*
X-88388Y-132478D01*
X-87921Y-132545D01*
X-87513Y-132811D01*
X-87163Y-133211D01*
X-86930Y-133678D01*
X-86813Y-134211D01*
Y-134745D01*
X-86930Y-135278D01*
X-87163Y-135745D01*
X-87513Y-136145D01*
X-87921Y-136411D01*
X-88388Y-136478D01*
G01X-84755D02*
Y-132478D01*
X-83296D01*
X-82830Y-132678D01*
X-82538Y-132945D01*
X-82421Y-133478D01*
X-82538Y-134011D01*
X-82888Y-134345D01*
X-83296Y-134545D01*
X-84755D01*
G01X-83296D02*
X-82421Y-136478D01*
G01X-74688Y-132478D02*
X-73288D01*
G01X-73988D02*
Y-136478D01*
G01X-74688D02*
X-73288D01*
G01X-70530D02*
Y-132478D01*
X-67846Y-136478D01*
Y-132478D01*
G01X-60755Y-136478D02*
Y-132478D01*
X-59355D01*
X-58888Y-132678D01*
X-58538Y-133145D01*
X-58421Y-133678D01*
X-58538Y-134211D01*
X-58830Y-134611D01*
X-59355Y-134811D01*
X-60755D01*
G01X-56246Y-136478D02*
X-54788Y-132478D01*
X-53330Y-136478D01*
G01X-53855Y-135078D02*
X-55721D01*
G01X-51155Y-136478D02*
Y-132478D01*
X-49696D01*
X-49230Y-132678D01*
X-48938Y-132945D01*
X-48821Y-133478D01*
X-48938Y-134011D01*
X-49288Y-134345D01*
X-49696Y-134545D01*
X-51155D01*
G01X-49696D02*
X-48821Y-136478D01*
G01X-45188Y-132478D02*
Y-136478D01*
G01X-46530Y-132478D02*
X-43846D01*
G01X-37338D02*
X-36521Y-136478D01*
X-35588Y-132478D01*
X-34655Y-136478D01*
X-33838Y-132478D01*
G01X-31488D02*
X-30088D01*
G01X-30788D02*
Y-136478D01*
G01X-31488D02*
X-30088D01*
G01X-25988Y-132478D02*
Y-136478D01*
G01X-27330Y-132478D02*
X-24646D01*
G01X-22413Y-136478D02*
Y-132478D01*
G01X-19963D02*
Y-136478D01*
G01Y-134478D02*
X-22413D01*
G01X-16388Y-136478D02*
X-16855Y-136411D01*
X-17263Y-136145D01*
X-17613Y-135745D01*
X-17846Y-135278D01*
X-17963Y-134745D01*
Y-134211D01*
X-17846Y-133678D01*
X-17613Y-133211D01*
X-17263Y-132811D01*
X-16855Y-132545D01*
X-16388Y-132478D01*
X-15921Y-132545D01*
X-15513Y-132811D01*
X-15163Y-133211D01*
X-14930Y-133678D01*
X-14813Y-134211D01*
Y-134745D01*
X-14930Y-135278D01*
X-15163Y-135745D01*
X-15513Y-136145D01*
X-15921Y-136411D01*
X-16388Y-136478D01*
G01X-12871Y-132478D02*
Y-135345D01*
X-12638Y-135945D01*
X-12171Y-136345D01*
X-11588Y-136478D01*
X-11005Y-136345D01*
X-10538Y-135945D01*
X-10305Y-135345D01*
Y-132478D01*
G01X-6788D02*
Y-136478D01*
G01X-8130Y-132478D02*
X-5446D01*
G01X2812D02*
Y-136478D01*
G01X1470Y-132478D02*
X4154D01*
G01X6387Y-136478D02*
Y-132478D01*
G01X8837D02*
Y-136478D01*
G01Y-134478D02*
X6387D01*
G01X13579Y-136478D02*
X11245D01*
Y-132478D01*
X13579D01*
G01X12645Y-134411D02*
X11245D01*
G01X23295Y-132811D02*
X22945Y-132611D01*
X22537Y-132478D01*
X22070D01*
X21545Y-132678D01*
X21137Y-133011D01*
X20845Y-133411D01*
X20612Y-134078D01*
X20554Y-134678D01*
X20670Y-135278D01*
X20845Y-135678D01*
X21195Y-136078D01*
X21604Y-136345D01*
X22012Y-136478D01*
X22420D01*
X22829Y-136345D01*
X23179Y-136145D01*
X23470Y-135878D01*
G01X26812Y-136478D02*
X26345Y-136411D01*
X25937Y-136145D01*
X25587Y-135745D01*
X25354Y-135278D01*
X25237Y-134745D01*
Y-134211D01*
X25354Y-133678D01*
X25587Y-133211D01*
X25937Y-132811D01*
X26345Y-132545D01*
X26812Y-132478D01*
X27279Y-132545D01*
X27687Y-132811D01*
X28037Y-133211D01*
X28270Y-133678D01*
X28387Y-134211D01*
Y-134745D01*
X28270Y-135278D01*
X28037Y-135745D01*
X27687Y-136145D01*
X27279Y-136411D01*
X26812Y-136478D01*
G01X30270D02*
Y-132478D01*
X32954Y-136478D01*
Y-132478D01*
G01X35187Y-135945D02*
X35654Y-136278D01*
X36179Y-136478D01*
X36645D01*
X37112Y-136278D01*
X37462Y-135945D01*
X37637Y-135478D01*
X37520Y-135011D01*
X37229Y-134611D01*
X36704Y-134345D01*
X36004Y-134211D01*
X35595Y-133945D01*
X35420Y-133478D01*
X35537Y-133011D01*
X35829Y-132678D01*
X36237Y-132478D01*
X36645D01*
X37054Y-132611D01*
X37404Y-132945D01*
G01X42379Y-136478D02*
X40045D01*
Y-132478D01*
X42379D01*
G01X41445Y-134411D02*
X40045D01*
G01X44670Y-136478D02*
Y-132478D01*
X47354Y-136478D01*
Y-132478D01*
G01X50812D02*
Y-136478D01*
G01X49470Y-132478D02*
X52154D01*
G01X60412Y-136478D02*
X59945Y-136411D01*
X59537Y-136145D01*
X59187Y-135745D01*
X58954Y-135278D01*
X58837Y-134745D01*
Y-134211D01*
X58954Y-133678D01*
X59187Y-133211D01*
X59537Y-132811D01*
X59945Y-132545D01*
X60412Y-132478D01*
X60879Y-132545D01*
X61287Y-132811D01*
X61637Y-133211D01*
X61870Y-133678D01*
X61987Y-134211D01*
Y-134745D01*
X61870Y-135278D01*
X61637Y-135745D01*
X61287Y-136145D01*
X60879Y-136411D01*
X60412Y-136478D01*
G01X64104D02*
Y-132478D01*
X66320D01*
G01X65504Y-134411D02*
X64104D01*
G01X-88730Y-144478D02*
Y-140478D01*
X-86046Y-144478D01*
Y-140478D01*
G01X-83813Y-144478D02*
X-81363Y-140478D01*
G01X-83813D02*
X-81363Y-144478D01*
G01X-78955D02*
Y-140478D01*
X-77555D01*
X-77088Y-140678D01*
X-76738Y-141145D01*
X-76621Y-141678D01*
X-76738Y-142211D01*
X-77030Y-142611D01*
X-77555Y-142811D01*
X-78955D01*
G01X-72988Y-144611D02*
X-73105Y-144545D01*
Y-144411D01*
X-72988Y-144345D01*
X-72871Y-144411D01*
Y-144545D01*
X-72988Y-144611D01*
G01X-87921Y-118345D02*
X-87688Y-118145D01*
X-87513Y-117811D01*
X-87396Y-117345D01*
X-87513Y-116945D01*
X-87746Y-116678D01*
X-88155Y-116478D01*
X-89730D01*
Y-120478D01*
X-87805D01*
X-87396Y-120211D01*
X-87163Y-119811D01*
X-87046Y-119345D01*
X-87163Y-118878D01*
X-87513Y-118478D01*
X-87921Y-118345D01*
X-89730D01*
G01X-82421Y-120478D02*
X-84755D01*
Y-116478D01*
X-82421D01*
G01X-83355Y-118411D02*
X-84755D01*
G01X-75271Y-116478D02*
Y-119345D01*
X-75038Y-119945D01*
X-74571Y-120345D01*
X-73988Y-120478D01*
X-73405Y-120345D01*
X-72938Y-119945D01*
X-72705Y-119345D01*
Y-116478D01*
G01X-70413Y-119945D02*
X-69946Y-120278D01*
X-69421Y-120478D01*
X-68955D01*
X-68488Y-120278D01*
X-68138Y-119945D01*
X-67963Y-119478D01*
X-68080Y-119011D01*
X-68371Y-118611D01*
X-68896Y-118345D01*
X-69596Y-118211D01*
X-70005Y-117945D01*
X-70180Y-117478D01*
X-70063Y-117011D01*
X-69771Y-116678D01*
X-69363Y-116478D01*
X-68955D01*
X-68546Y-116611D01*
X-68196Y-116945D01*
G01X-63221Y-120478D02*
X-65555D01*
Y-116478D01*
X-63221D01*
G01X-64155Y-118411D02*
X-65555D01*
G01X-60871Y-120478D02*
Y-116478D01*
X-59705D01*
X-59238Y-116678D01*
X-58888Y-116945D01*
X-58596Y-117345D01*
X-58363Y-117811D01*
X-58305Y-118478D01*
X-58363Y-119145D01*
X-58596Y-119611D01*
X-58888Y-120011D01*
X-59238Y-120278D01*
X-59705Y-120478D01*
X-60871D01*
G01X-51096D02*
Y-116478D01*
X-48880D01*
G01X-49696Y-118411D02*
X-51096D01*
G01X-45188Y-120478D02*
X-45655Y-120411D01*
X-46063Y-120145D01*
X-46413Y-119745D01*
X-46646Y-119278D01*
X-46763Y-118745D01*
Y-118211D01*
X-46646Y-117678D01*
X-46413Y-117211D01*
X-46063Y-116811D01*
X-45655Y-116545D01*
X-45188Y-116478D01*
X-44721Y-116545D01*
X-44313Y-116811D01*
X-43963Y-117211D01*
X-43730Y-117678D01*
X-43613Y-118211D01*
Y-118745D01*
X-43730Y-119278D01*
X-43963Y-119745D01*
X-44313Y-120145D01*
X-44721Y-120411D01*
X-45188Y-120478D01*
G01X-41555D02*
Y-116478D01*
X-40096D01*
X-39630Y-116678D01*
X-39338Y-116945D01*
X-39221Y-117478D01*
X-39338Y-118011D01*
X-39688Y-118345D01*
X-40096Y-118545D01*
X-41555D01*
G01X-40096D02*
X-39221Y-120478D01*
G01X-29621D02*
X-31955D01*
Y-116478D01*
X-29621D01*
G01X-30555Y-118411D02*
X-31955D01*
G01X-27330Y-120478D02*
Y-116478D01*
X-24646Y-120478D01*
Y-116478D01*
G01X-20838Y-118478D02*
X-19671D01*
Y-119678D01*
X-20021Y-120078D01*
X-20430Y-120345D01*
X-21013Y-120478D01*
X-21596Y-120345D01*
X-22005Y-120078D01*
X-22355Y-119678D01*
X-22588Y-119211D01*
X-22705Y-118678D01*
Y-118211D01*
X-22588Y-117811D01*
X-22355Y-117345D01*
X-22005Y-116945D01*
X-21655Y-116678D01*
X-21188Y-116478D01*
X-20780D01*
X-20313Y-116611D01*
X-19963Y-116878D01*
G01X-17088Y-116478D02*
X-15688D01*
G01X-16388D02*
Y-120478D01*
G01X-17088D02*
X-15688D01*
G01X-12930D02*
Y-116478D01*
X-10246Y-120478D01*
Y-116478D01*
G01X-5621Y-120478D02*
X-7955D01*
Y-116478D01*
X-5621D01*
G01X-6555Y-118411D02*
X-7955D01*
G01X-821Y-120478D02*
X-3155D01*
Y-116478D01*
X-821D01*
G01X-1755Y-118411D02*
X-3155D01*
G01X1645Y-120478D02*
Y-116478D01*
X3104D01*
X3570Y-116678D01*
X3862Y-116945D01*
X3979Y-117478D01*
X3862Y-118011D01*
X3512Y-118345D01*
X3104Y-118545D01*
X1645D01*
G01X3104D02*
X3979Y-120478D01*
G01X6912Y-116478D02*
X8312D01*
G01X7612D02*
Y-120478D01*
G01X6912D02*
X8312D01*
G01X11070D02*
Y-116478D01*
X13754Y-120478D01*
Y-116478D01*
G01X17562Y-118478D02*
X18729D01*
Y-119678D01*
X18379Y-120078D01*
X17970Y-120345D01*
X17387Y-120478D01*
X16804Y-120345D01*
X16395Y-120078D01*
X16045Y-119678D01*
X15812Y-119211D01*
X15695Y-118678D01*
Y-118211D01*
X15812Y-117811D01*
X16045Y-117345D01*
X16395Y-116945D01*
X16745Y-116678D01*
X17212Y-116478D01*
X17620D01*
X18087Y-116611D01*
X18437Y-116878D01*
G01X25529Y-120478D02*
Y-116478D01*
X26695D01*
X27162Y-116678D01*
X27512Y-116945D01*
X27804Y-117345D01*
X28037Y-117811D01*
X28095Y-118478D01*
X28037Y-119145D01*
X27804Y-119611D01*
X27512Y-120011D01*
X27162Y-120278D01*
X26695Y-120478D01*
X25529D01*
G01X32779D02*
X30445D01*
Y-116478D01*
X32779D01*
G01X31845Y-118411D02*
X30445D01*
G01X35187Y-119945D02*
X35654Y-120278D01*
X36179Y-120478D01*
X36645D01*
X37112Y-120278D01*
X37462Y-119945D01*
X37637Y-119478D01*
X37520Y-119011D01*
X37229Y-118611D01*
X36704Y-118345D01*
X36004Y-118211D01*
X35595Y-117945D01*
X35420Y-117478D01*
X35537Y-117011D01*
X35829Y-116678D01*
X36237Y-116478D01*
X36645D01*
X37054Y-116611D01*
X37404Y-116945D01*
G01X40512Y-116478D02*
X41912D01*
G01X41212D02*
Y-120478D01*
G01X40512D02*
X41912D01*
G01X46362Y-118478D02*
X47529D01*
Y-119678D01*
X47179Y-120078D01*
X46770Y-120345D01*
X46187Y-120478D01*
X45604Y-120345D01*
X45195Y-120078D01*
X44845Y-119678D01*
X44612Y-119211D01*
X44495Y-118678D01*
Y-118211D01*
X44612Y-117811D01*
X44845Y-117345D01*
X45195Y-116945D01*
X45545Y-116678D01*
X46012Y-116478D01*
X46420D01*
X46887Y-116611D01*
X47237Y-116878D01*
G01X49470Y-120478D02*
Y-116478D01*
X52154Y-120478D01*
Y-116478D01*
G01X-89555Y-128478D02*
Y-124478D01*
X-88155D01*
X-87688Y-124678D01*
X-87338Y-125145D01*
X-87221Y-125678D01*
X-87338Y-126211D01*
X-87630Y-126611D01*
X-88155Y-126811D01*
X-89555D01*
G01X-84755Y-128478D02*
Y-124478D01*
X-83296D01*
X-82830Y-124678D01*
X-82538Y-124945D01*
X-82421Y-125478D01*
X-82538Y-126011D01*
X-82888Y-126345D01*
X-83296Y-126545D01*
X-84755D01*
G01X-83296D02*
X-82421Y-128478D01*
G01X-78788D02*
X-79255Y-128411D01*
X-79663Y-128145D01*
X-80013Y-127745D01*
X-80246Y-127278D01*
X-80363Y-126745D01*
Y-126211D01*
X-80246Y-125678D01*
X-80013Y-125211D01*
X-79663Y-124811D01*
X-79255Y-124545D01*
X-78788Y-124478D01*
X-78321Y-124545D01*
X-77913Y-124811D01*
X-77563Y-125211D01*
X-77330Y-125678D01*
X-77213Y-126211D01*
Y-126745D01*
X-77330Y-127278D01*
X-77563Y-127745D01*
X-77913Y-128145D01*
X-78321Y-128411D01*
X-78788Y-128478D01*
G01X-72705Y-124811D02*
X-73055Y-124611D01*
X-73463Y-124478D01*
X-73930D01*
X-74455Y-124678D01*
X-74863Y-125011D01*
X-75155Y-125411D01*
X-75388Y-126078D01*
X-75446Y-126678D01*
X-75330Y-127278D01*
X-75155Y-127678D01*
X-74805Y-128078D01*
X-74396Y-128345D01*
X-73988Y-128478D01*
X-73580D01*
X-73171Y-128345D01*
X-72821Y-128145D01*
X-72530Y-127878D01*
G01X-70471Y-124478D02*
Y-127345D01*
X-70238Y-127945D01*
X-69771Y-128345D01*
X-69188Y-128478D01*
X-68605Y-128345D01*
X-68138Y-127945D01*
X-67905Y-127345D01*
Y-124478D01*
G01X-65555Y-128478D02*
Y-124478D01*
X-64096D01*
X-63630Y-124678D01*
X-63338Y-124945D01*
X-63221Y-125478D01*
X-63338Y-126011D01*
X-63688Y-126345D01*
X-64096Y-126545D01*
X-65555D01*
G01X-64096D02*
X-63221Y-128478D01*
G01X-58421D02*
X-60755D01*
Y-124478D01*
X-58421D01*
G01X-59355Y-126411D02*
X-60755D01*
G01X-56305Y-128478D02*
Y-124478D01*
X-54788Y-127811D01*
X-53271Y-124478D01*
Y-128478D01*
G01X-48821D02*
X-51155D01*
Y-124478D01*
X-48821D01*
G01X-49755Y-126411D02*
X-51155D01*
G01X-46530Y-128478D02*
Y-124478D01*
X-43846Y-128478D01*
Y-124478D01*
G01X-40388D02*
Y-128478D01*
G01X-41730Y-124478D02*
X-39046D01*
G01X-30788Y-128478D02*
X-31255Y-128411D01*
X-31663Y-128145D01*
X-32013Y-127745D01*
X-32246Y-127278D01*
X-32363Y-126745D01*
Y-126211D01*
X-32246Y-125678D01*
X-32013Y-125211D01*
X-31663Y-124811D01*
X-31255Y-124545D01*
X-30788Y-124478D01*
X-30321Y-124545D01*
X-29913Y-124811D01*
X-29563Y-125211D01*
X-29330Y-125678D01*
X-29213Y-126211D01*
Y-126745D01*
X-29330Y-127278D01*
X-29563Y-127745D01*
X-29913Y-128145D01*
X-30321Y-128411D01*
X-30788Y-128478D01*
G01X-27155D02*
Y-124478D01*
X-25696D01*
X-25230Y-124678D01*
X-24938Y-124945D01*
X-24821Y-125478D01*
X-24938Y-126011D01*
X-25288Y-126345D01*
X-25696Y-126545D01*
X-27155D01*
G01X-25696D02*
X-24821Y-128478D01*
G01X-17905D02*
Y-124478D01*
X-16388Y-127811D01*
X-14871Y-124478D01*
Y-128478D01*
G01X-13046D02*
X-11588Y-124478D01*
X-10130Y-128478D01*
G01X-10655Y-127078D02*
X-12521D01*
G01X-8130Y-128478D02*
Y-124478D01*
X-5446Y-128478D01*
Y-124478D01*
G01X-3271D02*
Y-127345D01*
X-3038Y-127945D01*
X-2571Y-128345D01*
X-1988Y-128478D01*
X-1405Y-128345D01*
X-938Y-127945D01*
X-705Y-127345D01*
Y-124478D01*
G01X1704Y-128478D02*
Y-124478D01*
X3920D01*
G01X3104Y-126411D02*
X1704D01*
G01X6154Y-128478D02*
X7612Y-124478D01*
X9070Y-128478D01*
G01X8545Y-127078D02*
X6679D01*
G01X13695Y-124811D02*
X13345Y-124611D01*
X12937Y-124478D01*
X12470D01*
X11945Y-124678D01*
X11537Y-125011D01*
X11245Y-125411D01*
X11012Y-126078D01*
X10954Y-126678D01*
X11070Y-127278D01*
X11245Y-127678D01*
X11595Y-128078D01*
X12004Y-128345D01*
X12412Y-128478D01*
X12820D01*
X13229Y-128345D01*
X13579Y-128145D01*
X13870Y-127878D01*
G01X17212Y-124478D02*
Y-128478D01*
G01X15870Y-124478D02*
X18554D01*
G01X20729D02*
Y-127345D01*
X20962Y-127945D01*
X21429Y-128345D01*
X22012Y-128478D01*
X22595Y-128345D01*
X23062Y-127945D01*
X23295Y-127345D01*
Y-124478D01*
G01X25645Y-128478D02*
Y-124478D01*
X27104D01*
X27570Y-124678D01*
X27862Y-124945D01*
X27979Y-125478D01*
X27862Y-126011D01*
X27512Y-126345D01*
X27104Y-126545D01*
X25645D01*
G01X27104D02*
X27979Y-128478D01*
G01X32779D02*
X30445D01*
Y-124478D01*
X32779D01*
G01X31845Y-126411D02*
X30445D01*
G01X40512Y-124478D02*
X41912D01*
G01X41212D02*
Y-128478D01*
G01X40512D02*
X41912D01*
G01X44670D02*
Y-124478D01*
X47354Y-128478D01*
Y-124478D01*
G01X53862D02*
X54679Y-128478D01*
X55612Y-124478D01*
X56545Y-128478D01*
X57362Y-124478D01*
G01X59187Y-128478D02*
Y-124478D01*
G01X61637D02*
Y-128478D01*
G01Y-126478D02*
X59187D01*
G01X65212Y-128478D02*
X64745Y-128411D01*
X64337Y-128145D01*
X63987Y-127745D01*
X63754Y-127278D01*
X63637Y-126745D01*
Y-126211D01*
X63754Y-125678D01*
X63987Y-125211D01*
X64337Y-124811D01*
X64745Y-124545D01*
X65212Y-124478D01*
X65679Y-124545D01*
X66087Y-124811D01*
X66437Y-125211D01*
X66670Y-125678D01*
X66787Y-126211D01*
Y-126745D01*
X66670Y-127278D01*
X66437Y-127745D01*
X66087Y-128145D01*
X65679Y-128411D01*
X65212Y-128478D01*
G01X68845Y-124478D02*
Y-128478D01*
X71179D01*
G01X75979D02*
X73645D01*
Y-124478D01*
X75979D01*
G01X75045Y-126411D02*
X73645D01*
G01X-89388Y-100478D02*
Y-104478D01*
G01X-90730Y-100478D02*
X-88046D01*
G01X-85813Y-104478D02*
Y-100478D01*
G01X-83363D02*
Y-104478D01*
G01Y-102478D02*
X-85813D01*
G01X-80488Y-100478D02*
X-79088D01*
G01X-79788D02*
Y-104478D01*
G01X-80488D02*
X-79088D01*
G01X-76213Y-103945D02*
X-75746Y-104278D01*
X-75221Y-104478D01*
X-74755D01*
X-74288Y-104278D01*
X-73938Y-103945D01*
X-73763Y-103478D01*
X-73880Y-103011D01*
X-74171Y-102611D01*
X-74696Y-102345D01*
X-75396Y-102211D01*
X-75805Y-101945D01*
X-75980Y-101478D01*
X-75863Y-101011D01*
X-75571Y-100678D01*
X-75163Y-100478D01*
X-74755D01*
X-74346Y-100611D01*
X-73996Y-100945D01*
G01X-66671Y-104478D02*
Y-100478D01*
X-65505D01*
X-65038Y-100678D01*
X-64688Y-100945D01*
X-64396Y-101345D01*
X-64163Y-101811D01*
X-64105Y-102478D01*
X-64163Y-103145D01*
X-64396Y-103611D01*
X-64688Y-104011D01*
X-65038Y-104278D01*
X-65505Y-104478D01*
X-66671D01*
G01X-60588D02*
X-61055Y-104411D01*
X-61463Y-104145D01*
X-61813Y-103745D01*
X-62046Y-103278D01*
X-62163Y-102745D01*
Y-102211D01*
X-62046Y-101678D01*
X-61813Y-101211D01*
X-61463Y-100811D01*
X-61055Y-100545D01*
X-60588Y-100478D01*
X-60121Y-100545D01*
X-59713Y-100811D01*
X-59363Y-101211D01*
X-59130Y-101678D01*
X-59013Y-102211D01*
Y-102745D01*
X-59130Y-103278D01*
X-59363Y-103745D01*
X-59713Y-104145D01*
X-60121Y-104411D01*
X-60588Y-104478D01*
G01X-54505Y-100811D02*
X-54855Y-100611D01*
X-55263Y-100478D01*
X-55730D01*
X-56255Y-100678D01*
X-56663Y-101011D01*
X-56955Y-101411D01*
X-57188Y-102078D01*
X-57246Y-102678D01*
X-57130Y-103278D01*
X-56955Y-103678D01*
X-56605Y-104078D01*
X-56196Y-104345D01*
X-55788Y-104478D01*
X-55380D01*
X-54971Y-104345D01*
X-54621Y-104145D01*
X-54330Y-103878D01*
G01X-52271Y-100478D02*
Y-103345D01*
X-52038Y-103945D01*
X-51571Y-104345D01*
X-50988Y-104478D01*
X-50405Y-104345D01*
X-49938Y-103945D01*
X-49705Y-103345D01*
Y-100478D01*
G01X-47705Y-104478D02*
Y-100478D01*
X-46188Y-103811D01*
X-44671Y-100478D01*
Y-104478D01*
G01X-40221D02*
X-42555D01*
Y-100478D01*
X-40221D01*
G01X-41155Y-102411D02*
X-42555D01*
G01X-37930Y-104478D02*
Y-100478D01*
X-35246Y-104478D01*
Y-100478D01*
G01X-31788D02*
Y-104478D01*
G01X-33130Y-100478D02*
X-30446D01*
G01X-20905Y-100811D02*
X-21255Y-100611D01*
X-21663Y-100478D01*
X-22130D01*
X-22655Y-100678D01*
X-23063Y-101011D01*
X-23355Y-101411D01*
X-23588Y-102078D01*
X-23646Y-102678D01*
X-23530Y-103278D01*
X-23355Y-103678D01*
X-23005Y-104078D01*
X-22596Y-104345D01*
X-22188Y-104478D01*
X-21780D01*
X-21371Y-104345D01*
X-21021Y-104145D01*
X-20730Y-103878D01*
G01X-17388Y-104478D02*
X-17855Y-104411D01*
X-18263Y-104145D01*
X-18613Y-103745D01*
X-18846Y-103278D01*
X-18963Y-102745D01*
Y-102211D01*
X-18846Y-101678D01*
X-18613Y-101211D01*
X-18263Y-100811D01*
X-17855Y-100545D01*
X-17388Y-100478D01*
X-16921Y-100545D01*
X-16513Y-100811D01*
X-16163Y-101211D01*
X-15930Y-101678D01*
X-15813Y-102211D01*
Y-102745D01*
X-15930Y-103278D01*
X-16163Y-103745D01*
X-16513Y-104145D01*
X-16921Y-104411D01*
X-17388Y-104478D01*
G01X-13930D02*
Y-100478D01*
X-11246Y-104478D01*
Y-100478D01*
G01X-7788D02*
Y-104478D01*
G01X-9130Y-100478D02*
X-6446D01*
G01X-4446Y-104478D02*
X-2988Y-100478D01*
X-1530Y-104478D01*
G01X-2055Y-103078D02*
X-3921D01*
G01X1112Y-100478D02*
X2512D01*
G01X1812D02*
Y-104478D01*
G01X1112D02*
X2512D01*
G01X5270D02*
Y-100478D01*
X7954Y-104478D01*
Y-100478D01*
G01X10187Y-103945D02*
X10654Y-104278D01*
X11179Y-104478D01*
X11645D01*
X12112Y-104278D01*
X12462Y-103945D01*
X12637Y-103478D01*
X12520Y-103011D01*
X12229Y-102611D01*
X11704Y-102345D01*
X11004Y-102211D01*
X10595Y-101945D01*
X10420Y-101478D01*
X10537Y-101011D01*
X10829Y-100678D01*
X11237Y-100478D01*
X11645D01*
X12054Y-100611D01*
X12404Y-100945D01*
G01X20312Y-100478D02*
X21712D01*
G01X21012D02*
Y-104478D01*
G01X20312D02*
X21712D01*
G01X24470D02*
Y-100478D01*
X27154Y-104478D01*
Y-100478D01*
G01X29504Y-104478D02*
Y-100478D01*
X31720D01*
G01X30904Y-102411D02*
X29504D01*
G01X35412Y-104478D02*
X34945Y-104411D01*
X34537Y-104145D01*
X34187Y-103745D01*
X33954Y-103278D01*
X33837Y-102745D01*
Y-102211D01*
X33954Y-101678D01*
X34187Y-101211D01*
X34537Y-100811D01*
X34945Y-100545D01*
X35412Y-100478D01*
X35879Y-100545D01*
X36287Y-100811D01*
X36637Y-101211D01*
X36870Y-101678D01*
X36987Y-102211D01*
Y-102745D01*
X36870Y-103278D01*
X36637Y-103745D01*
X36287Y-104145D01*
X35879Y-104411D01*
X35412Y-104478D01*
G01X39045D02*
Y-100478D01*
X40504D01*
X40970Y-100678D01*
X41262Y-100945D01*
X41379Y-101478D01*
X41262Y-102011D01*
X40912Y-102345D01*
X40504Y-102545D01*
X39045D01*
G01X40504D02*
X41379Y-104478D01*
G01X43495D02*
Y-100478D01*
X45012Y-103811D01*
X46529Y-100478D01*
Y-104478D01*
G01X48354D02*
X49812Y-100478D01*
X51270Y-104478D01*
G01X50745Y-103078D02*
X48879D01*
G01X54612Y-100478D02*
Y-104478D01*
G01X53270Y-100478D02*
X55954D01*
G01X58712D02*
X60112D01*
G01X59412D02*
Y-104478D01*
G01X58712D02*
X60112D01*
G01X64212D02*
X63745Y-104411D01*
X63337Y-104145D01*
X62987Y-103745D01*
X62754Y-103278D01*
X62637Y-102745D01*
Y-102211D01*
X62754Y-101678D01*
X62987Y-101211D01*
X63337Y-100811D01*
X63745Y-100545D01*
X64212Y-100478D01*
X64679Y-100545D01*
X65087Y-100811D01*
X65437Y-101211D01*
X65670Y-101678D01*
X65787Y-102211D01*
Y-102745D01*
X65670Y-103278D01*
X65437Y-103745D01*
X65087Y-104145D01*
X64679Y-104411D01*
X64212Y-104478D01*
G01X67670D02*
Y-100478D01*
X70354Y-104478D01*
Y-100478D01*
G01X-89555Y-112478D02*
Y-108478D01*
X-88155D01*
X-87688Y-108678D01*
X-87338Y-109145D01*
X-87221Y-109678D01*
X-87338Y-110211D01*
X-87630Y-110611D01*
X-88155Y-110811D01*
X-89555D01*
G01X-84755Y-112478D02*
Y-108478D01*
X-83296D01*
X-82830Y-108678D01*
X-82538Y-108945D01*
X-82421Y-109478D01*
X-82538Y-110011D01*
X-82888Y-110345D01*
X-83296Y-110545D01*
X-84755D01*
G01X-83296D02*
X-82421Y-112478D01*
G01X-78788D02*
X-79255Y-112411D01*
X-79663Y-112145D01*
X-80013Y-111745D01*
X-80246Y-111278D01*
X-80363Y-110745D01*
Y-110211D01*
X-80246Y-109678D01*
X-80013Y-109211D01*
X-79663Y-108811D01*
X-79255Y-108545D01*
X-78788Y-108478D01*
X-78321Y-108545D01*
X-77913Y-108811D01*
X-77563Y-109211D01*
X-77330Y-109678D01*
X-77213Y-110211D01*
Y-110745D01*
X-77330Y-111278D01*
X-77563Y-111745D01*
X-77913Y-112145D01*
X-78321Y-112411D01*
X-78788Y-112478D01*
G01X-75155D02*
Y-108478D01*
X-73755D01*
X-73288Y-108678D01*
X-72938Y-109145D01*
X-72821Y-109678D01*
X-72938Y-110211D01*
X-73230Y-110611D01*
X-73755Y-110811D01*
X-75155D01*
G01X-70355Y-112478D02*
Y-108478D01*
X-68896D01*
X-68430Y-108678D01*
X-68138Y-108945D01*
X-68021Y-109478D01*
X-68138Y-110011D01*
X-68488Y-110345D01*
X-68896Y-110545D01*
X-70355D01*
G01X-68896D02*
X-68021Y-112478D01*
G01X-65088Y-108478D02*
X-63688D01*
G01X-64388D02*
Y-112478D01*
G01X-65088D02*
X-63688D01*
G01X-58421D02*
X-60755D01*
Y-108478D01*
X-58421D01*
G01X-59355Y-110411D02*
X-60755D01*
G01X-54788Y-108478D02*
Y-112478D01*
G01X-56130Y-108478D02*
X-53446D01*
G01X-51446Y-112478D02*
X-49988Y-108478D01*
X-48530Y-112478D01*
G01X-49055Y-111078D02*
X-50921D01*
G01X-46355Y-112478D02*
Y-108478D01*
X-44896D01*
X-44430Y-108678D01*
X-44138Y-108945D01*
X-44021Y-109478D01*
X-44138Y-110011D01*
X-44488Y-110345D01*
X-44896Y-110545D01*
X-46355D01*
G01X-44896D02*
X-44021Y-112478D01*
G01X-40388D02*
Y-110678D01*
X-41555Y-108478D01*
G01X-39221D02*
X-40388Y-110678D01*
G01X-30788Y-108478D02*
Y-112478D01*
G01X-32130Y-108478D02*
X-29446D01*
G01X-25988Y-112478D02*
X-26455Y-112411D01*
X-26863Y-112145D01*
X-27213Y-111745D01*
X-27446Y-111278D01*
X-27563Y-110745D01*
Y-110211D01*
X-27446Y-109678D01*
X-27213Y-109211D01*
X-26863Y-108811D01*
X-26455Y-108545D01*
X-25988Y-108478D01*
X-25521Y-108545D01*
X-25113Y-108811D01*
X-24763Y-109211D01*
X-24530Y-109678D01*
X-24413Y-110211D01*
Y-110745D01*
X-24530Y-111278D01*
X-24763Y-111745D01*
X-25113Y-112145D01*
X-25521Y-112411D01*
X-25988Y-112478D01*
G01X-17730D02*
Y-108478D01*
X-15046Y-112478D01*
Y-108478D01*
G01X-12813Y-112478D02*
X-10363Y-108478D01*
G01X-12813D02*
X-10363Y-112478D01*
G01X-7955D02*
Y-108478D01*
X-6555D01*
X-6088Y-108678D01*
X-5738Y-109145D01*
X-5621Y-109678D01*
X-5738Y-110211D01*
X-6030Y-110611D01*
X-6555Y-110811D01*
X-7955D01*
G01X1354Y-112478D02*
X2812Y-108478D01*
X4270Y-112478D01*
G01X3745Y-111078D02*
X1879D01*
G01X6270Y-112478D02*
Y-108478D01*
X8954Y-112478D01*
Y-108478D01*
G01X11129Y-112478D02*
Y-108478D01*
X12295D01*
X12762Y-108678D01*
X13112Y-108945D01*
X13404Y-109345D01*
X13637Y-109811D01*
X13695Y-110478D01*
X13637Y-111145D01*
X13404Y-111611D01*
X13112Y-112011D01*
X12762Y-112278D01*
X12295Y-112478D01*
X11129D01*
G01X20787Y-111945D02*
X21254Y-112278D01*
X21779Y-112478D01*
X22245D01*
X22712Y-112278D01*
X23062Y-111945D01*
X23237Y-111478D01*
X23120Y-111011D01*
X22829Y-110611D01*
X22304Y-110345D01*
X21604Y-110211D01*
X21195Y-109945D01*
X21020Y-109478D01*
X21137Y-109011D01*
X21429Y-108678D01*
X21837Y-108478D01*
X22245D01*
X22654Y-108611D01*
X23004Y-108945D01*
G01X25587Y-112478D02*
Y-108478D01*
G01X28037D02*
Y-112478D01*
G01Y-110478D02*
X25587D01*
G01X30154Y-112478D02*
X31612Y-108478D01*
X33070Y-112478D01*
G01X32545Y-111078D02*
X30679D01*
G01X35245Y-108478D02*
Y-112478D01*
X37579D01*
G01X40045Y-108478D02*
Y-112478D01*
X42379D01*
G01X49470D02*
Y-108478D01*
X52154Y-112478D01*
Y-108478D01*
G01X55612Y-112478D02*
X55145Y-112411D01*
X54737Y-112145D01*
X54387Y-111745D01*
X54154Y-111278D01*
X54037Y-110745D01*
Y-110211D01*
X54154Y-109678D01*
X54387Y-109211D01*
X54737Y-108811D01*
X55145Y-108545D01*
X55612Y-108478D01*
X56079Y-108545D01*
X56487Y-108811D01*
X56837Y-109211D01*
X57070Y-109678D01*
X57187Y-110211D01*
Y-110745D01*
X57070Y-111278D01*
X56837Y-111745D01*
X56487Y-112145D01*
X56079Y-112411D01*
X55612Y-112478D01*
G01X60412Y-108478D02*
Y-112478D01*
G01X59070Y-108478D02*
X61754D01*
G01X-96496Y-85811D02*
X-96088Y-85345D01*
X-95738Y-85078D01*
X-95271Y-84945D01*
X-94863Y-85078D01*
X-94571Y-85345D01*
X-94338Y-85745D01*
X-94280Y-86211D01*
X-94338Y-86611D01*
X-94571Y-87011D01*
X-94921Y-87345D01*
X-95330Y-87478D01*
X-95796Y-87345D01*
X-96205Y-86945D01*
X-96438Y-86345D01*
X-96496Y-85678D01*
X-96380Y-84811D01*
X-96205Y-84345D01*
X-95913Y-83878D01*
X-95505Y-83545D01*
X-95096Y-83478D01*
X-94688Y-83611D01*
X-94396Y-83945D01*
G01X-91871Y-86878D02*
X-91521Y-87211D01*
X-91113Y-87411D01*
X-90588Y-87478D01*
X-90063Y-87345D01*
X-89655Y-87078D01*
X-89363Y-86611D01*
X-89305Y-86078D01*
X-89421Y-85545D01*
X-89713Y-85211D01*
X-90121Y-84945D01*
X-90530Y-84878D01*
X-90938Y-84945D01*
X-91463Y-85211D01*
X-91288Y-83478D01*
X-89713D01*
G01X-85788D02*
X-86255Y-83611D01*
X-86605Y-83945D01*
X-86838Y-84345D01*
X-87013Y-84878D01*
X-87071Y-85478D01*
X-87013Y-86078D01*
X-86838Y-86611D01*
X-86605Y-87011D01*
X-86255Y-87345D01*
X-85788Y-87478D01*
X-85321Y-87345D01*
X-84971Y-87011D01*
X-84738Y-86611D01*
X-84563Y-86078D01*
X-84505Y-85478D01*
X-84563Y-84878D01*
X-84738Y-84345D01*
X-84971Y-83945D01*
X-85321Y-83611D01*
X-85788Y-83478D01*
G01X-80988Y-87478D02*
Y-83478D01*
X-81688Y-84278D01*
G01Y-87478D02*
X-80288D01*
G01X-73138Y-83478D02*
X-72321Y-87478D01*
X-71388Y-83478D01*
X-70455Y-87478D01*
X-69638Y-83478D01*
G01X-67288D02*
X-65888D01*
G01X-66588D02*
Y-87478D01*
G01X-67288D02*
X-65888D01*
G01X-62955Y-83478D02*
Y-87478D01*
X-60621D01*
G01X-58155Y-83478D02*
Y-87478D01*
X-55821D01*
G01X-52888Y-83478D02*
X-51488D01*
G01X-52188D02*
Y-87478D01*
G01X-52888D02*
X-51488D01*
G01X-48846D02*
X-47388Y-83478D01*
X-45930Y-87478D01*
G01X-46455Y-86078D02*
X-48321D01*
G01X-44105Y-87478D02*
Y-83478D01*
X-42588Y-86811D01*
X-41071Y-83478D01*
Y-87478D01*
G01X-31705Y-83811D02*
X-32055Y-83611D01*
X-32463Y-83478D01*
X-32930D01*
X-33455Y-83678D01*
X-33863Y-84011D01*
X-34155Y-84411D01*
X-34388Y-85078D01*
X-34446Y-85678D01*
X-34330Y-86278D01*
X-34155Y-86678D01*
X-33805Y-87078D01*
X-33396Y-87345D01*
X-32988Y-87478D01*
X-32580D01*
X-32171Y-87345D01*
X-31821Y-87145D01*
X-31530Y-86878D01*
G01X-29646Y-87478D02*
X-28188Y-83478D01*
X-26730Y-87478D01*
G01X-27255Y-86078D02*
X-29121D01*
G01X-24730Y-87478D02*
Y-83478D01*
X-22046Y-87478D01*
Y-83478D01*
G01X-19930Y-87478D02*
Y-83478D01*
X-17246Y-87478D01*
Y-83478D01*
G01X-13788Y-87478D02*
X-14255Y-87411D01*
X-14663Y-87145D01*
X-15013Y-86745D01*
X-15246Y-86278D01*
X-15363Y-85745D01*
Y-85211D01*
X-15246Y-84678D01*
X-15013Y-84211D01*
X-14663Y-83811D01*
X-14255Y-83545D01*
X-13788Y-83478D01*
X-13321Y-83545D01*
X-12913Y-83811D01*
X-12563Y-84211D01*
X-12330Y-84678D01*
X-12213Y-85211D01*
Y-85745D01*
X-12330Y-86278D01*
X-12563Y-86745D01*
X-12913Y-87145D01*
X-13321Y-87411D01*
X-13788Y-87478D01*
G01X-10330D02*
Y-83478D01*
X-7646Y-87478D01*
Y-83478D01*
G01X-671Y-87478D02*
Y-83478D01*
X495D01*
X962Y-83678D01*
X1312Y-83945D01*
X1604Y-84345D01*
X1837Y-84811D01*
X1895Y-85478D01*
X1837Y-86145D01*
X1604Y-86611D01*
X1312Y-87011D01*
X962Y-87278D01*
X495Y-87478D01*
X-671D01*
G01X4245D02*
Y-83478D01*
X5704D01*
X6170Y-83678D01*
X6462Y-83945D01*
X6579Y-84478D01*
X6462Y-85011D01*
X6112Y-85345D01*
X5704Y-85545D01*
X4245D01*
G01X5704D02*
X6579Y-87478D01*
G01X9512Y-83478D02*
X10912D01*
G01X10212D02*
Y-87478D01*
G01X9512D02*
X10912D01*
G01X13554Y-83478D02*
X15012Y-87478D01*
X16470Y-83478D01*
G01X20979Y-87478D02*
X18645D01*
Y-83478D01*
X20979D01*
G01X20045Y-85411D02*
X18645D01*
G01X27662Y-83478D02*
X28479Y-87478D01*
X29412Y-83478D01*
X30345Y-87478D01*
X31162Y-83478D01*
G01X35379Y-87478D02*
X33045D01*
Y-83478D01*
X35379D01*
G01X34445Y-85411D02*
X33045D01*
G01X37787Y-86945D02*
X38254Y-87278D01*
X38779Y-87478D01*
X39245D01*
X39712Y-87278D01*
X40062Y-86945D01*
X40237Y-86478D01*
X40120Y-86011D01*
X39829Y-85611D01*
X39304Y-85345D01*
X38604Y-85211D01*
X38195Y-84945D01*
X38020Y-84478D01*
X38137Y-84011D01*
X38429Y-83678D01*
X38837Y-83478D01*
X39245D01*
X39654Y-83611D01*
X40004Y-83945D01*
G01X43812Y-83478D02*
Y-87478D01*
G01X42470Y-83478D02*
X45154D01*
G01X-96846Y-94478D02*
X-95388Y-90478D01*
X-93930Y-94478D01*
G01X-94455Y-93078D02*
X-96321D01*
G01X-91871Y-90478D02*
Y-93345D01*
X-91638Y-93945D01*
X-91171Y-94345D01*
X-90588Y-94478D01*
X-90005Y-94345D01*
X-89538Y-93945D01*
X-89305Y-93345D01*
Y-90478D01*
G01X-87013Y-93945D02*
X-86546Y-94278D01*
X-86021Y-94478D01*
X-85555D01*
X-85088Y-94278D01*
X-84738Y-93945D01*
X-84563Y-93478D01*
X-84680Y-93011D01*
X-84971Y-92611D01*
X-85496Y-92345D01*
X-86196Y-92211D01*
X-86605Y-91945D01*
X-86780Y-91478D01*
X-86663Y-91011D01*
X-86371Y-90678D01*
X-85963Y-90478D01*
X-85555D01*
X-85146Y-90611D01*
X-84796Y-90945D01*
G01X-80988Y-90478D02*
Y-94478D01*
G01X-82330Y-90478D02*
X-79646D01*
G01X-76888D02*
X-75488D01*
G01X-76188D02*
Y-94478D01*
G01X-76888D02*
X-75488D01*
G01X-72730D02*
Y-90478D01*
X-70046Y-94478D01*
Y-90478D01*
G01X-66588Y-94611D02*
X-66705Y-94545D01*
Y-94411D01*
X-66588Y-94345D01*
X-66471Y-94411D01*
Y-94545D01*
X-66588Y-94611D01*
G01X-56988Y-90478D02*
Y-94478D01*
G01X-58330Y-90478D02*
X-55646D01*
G01X-51021Y-94478D02*
X-53355D01*
Y-90478D01*
X-51021D01*
G01X-51955Y-92411D02*
X-53355D01*
G01X-48613Y-94478D02*
X-46163Y-90478D01*
G01X-48613D02*
X-46163Y-94478D01*
G01X-44046D02*
X-42588Y-90478D01*
X-41130Y-94478D01*
G01X-41655Y-93078D02*
X-43521D01*
G01X-39013Y-93945D02*
X-38546Y-94278D01*
X-38021Y-94478D01*
X-37555D01*
X-37088Y-94278D01*
X-36738Y-93945D01*
X-36563Y-93478D01*
X-36680Y-93011D01*
X-36971Y-92611D01*
X-37496Y-92345D01*
X-38196Y-92211D01*
X-38605Y-91945D01*
X-38780Y-91478D01*
X-38663Y-91011D01*
X-38371Y-90678D01*
X-37963Y-90478D01*
X-37555D01*
X-37146Y-90611D01*
X-36796Y-90945D01*
G01X-28305Y-94478D02*
X-28188Y-93611D01*
X-28013Y-92878D01*
X-27780Y-92211D01*
X-27488Y-91478D01*
X-27021Y-90478D01*
X-29355D01*
G01X-23388Y-94478D02*
X-22980Y-94411D01*
X-22513Y-94211D01*
X-22221Y-93878D01*
X-22105Y-93411D01*
X-22221Y-92945D01*
X-22571Y-92545D01*
X-23096Y-92345D01*
X-23680D01*
X-24030Y-92211D01*
X-24321Y-91878D01*
X-24438Y-91411D01*
X-24263Y-90945D01*
X-23855Y-90611D01*
X-23388Y-90478D01*
X-22921Y-90611D01*
X-22513Y-90945D01*
X-22338Y-91411D01*
X-22455Y-91878D01*
X-22746Y-92211D01*
X-23096Y-92345D01*
X-23680D01*
X-24205Y-92545D01*
X-24555Y-92945D01*
X-24671Y-93411D01*
X-24555Y-93878D01*
X-24263Y-94211D01*
X-23796Y-94411D01*
X-23388Y-94478D01*
G01X-18705D02*
X-18588Y-93611D01*
X-18413Y-92878D01*
X-18180Y-92211D01*
X-17888Y-91478D01*
X-17421Y-90478D01*
X-19755D01*
G01X-15071Y-93678D02*
X-14721Y-94145D01*
X-14255Y-94411D01*
X-13730Y-94478D01*
X-13263Y-94411D01*
X-12796Y-94078D01*
X-12505Y-93678D01*
X-12446Y-93278D01*
X-12563Y-92811D01*
X-12971Y-92478D01*
X-13380Y-92345D01*
X-13905D01*
G01X-13380D02*
X-13030Y-92145D01*
X-12738Y-91811D01*
X-12621Y-91411D01*
X-12738Y-91011D01*
X-13030Y-90678D01*
X-13555Y-90478D01*
X-14080Y-90545D01*
X-14605Y-90811D01*
G01X-10271Y-93878D02*
X-9921Y-94211D01*
X-9513Y-94411D01*
X-8988Y-94478D01*
X-8463Y-94345D01*
X-8055Y-94078D01*
X-7763Y-93611D01*
X-7705Y-93078D01*
X-7821Y-92545D01*
X-8113Y-92211D01*
X-8521Y-91945D01*
X-8930Y-91878D01*
X-9338Y-91945D01*
X-9863Y-92211D01*
X-9688Y-90478D01*
X-8113D01*
G01X-671D02*
Y-93345D01*
X-438Y-93945D01*
X29Y-94345D01*
X612Y-94478D01*
X1195Y-94345D01*
X1662Y-93945D01*
X1895Y-93345D01*
Y-90478D01*
G01X4187Y-93945D02*
X4654Y-94278D01*
X5179Y-94478D01*
X5645D01*
X6112Y-94278D01*
X6462Y-93945D01*
X6637Y-93478D01*
X6520Y-93011D01*
X6229Y-92611D01*
X5704Y-92345D01*
X5004Y-92211D01*
X4595Y-91945D01*
X4420Y-91478D01*
X4537Y-91011D01*
X4829Y-90678D01*
X5237Y-90478D01*
X5645D01*
X6054Y-90611D01*
X6404Y-90945D01*
G01X8754Y-94478D02*
X10212Y-90478D01*
X11670Y-94478D01*
G01X11145Y-93078D02*
X9279D01*
G01X-93985Y-78478D02*
Y-70978D01*
X-89691Y-78478D01*
Y-70978D01*
G01X-86298Y-78478D02*
X-82378Y-70978D01*
G01X-86298D02*
X-82378Y-78478D01*
G01X-78705D02*
Y-70978D01*
X-76465D01*
X-75718Y-71353D01*
X-75158Y-72228D01*
X-74971Y-73228D01*
X-75158Y-74228D01*
X-75625Y-74978D01*
X-76465Y-75353D01*
X-78705D01*
G01X-63798Y-77478D02*
X-63051Y-78103D01*
X-62211Y-78478D01*
X-61465D01*
X-60718Y-78103D01*
X-60158Y-77478D01*
X-59878Y-76603D01*
X-60065Y-75728D01*
X-60531Y-74978D01*
X-61371Y-74478D01*
X-62491Y-74228D01*
X-63145Y-73728D01*
X-63425Y-72853D01*
X-63238Y-71978D01*
X-62771Y-71353D01*
X-62118Y-70978D01*
X-61465D01*
X-60811Y-71228D01*
X-60251Y-71853D01*
G01X-52471Y-78478D02*
X-56205D01*
Y-70978D01*
X-52471D01*
G01X-53965Y-74603D02*
X-56205D01*
G01X-49265Y-78478D02*
Y-70978D01*
X-46838Y-77228D01*
X-44411Y-70978D01*
Y-78478D01*
G01X-40458Y-70978D02*
X-38218D01*
G01X-39338D02*
Y-78478D01*
G01X-40458D02*
X-38218D01*
G01X-29785Y-71603D02*
X-30345Y-71228D01*
X-30998Y-70978D01*
X-31745D01*
X-32585Y-71353D01*
X-33238Y-71978D01*
X-33705Y-72728D01*
X-34078Y-73978D01*
X-34171Y-75103D01*
X-33985Y-76228D01*
X-33705Y-76978D01*
X-33145Y-77728D01*
X-32491Y-78228D01*
X-31838Y-78478D01*
X-31185D01*
X-30531Y-78228D01*
X-29971Y-77853D01*
X-29505Y-77353D01*
G01X-24338Y-78478D02*
X-25085Y-78353D01*
X-25738Y-77853D01*
X-26298Y-77103D01*
X-26671Y-76228D01*
X-26858Y-75228D01*
Y-74228D01*
X-26671Y-73228D01*
X-26298Y-72353D01*
X-25738Y-71603D01*
X-25085Y-71103D01*
X-24338Y-70978D01*
X-23591Y-71103D01*
X-22938Y-71603D01*
X-22378Y-72353D01*
X-22005Y-73228D01*
X-21818Y-74228D01*
Y-75228D01*
X-22005Y-76228D01*
X-22378Y-77103D01*
X-22938Y-77853D01*
X-23591Y-78353D01*
X-24338Y-78478D01*
G01X-18985D02*
Y-70978D01*
X-14691Y-78478D01*
Y-70978D01*
G01X-11391Y-78478D02*
Y-70978D01*
X-9525D01*
X-8778Y-71353D01*
X-8218Y-71853D01*
X-7751Y-72603D01*
X-7378Y-73478D01*
X-7285Y-74728D01*
X-7378Y-75978D01*
X-7751Y-76853D01*
X-8218Y-77603D01*
X-8778Y-78103D01*
X-9525Y-78478D01*
X-11391D01*
G01X-3891Y-70978D02*
Y-76353D01*
X-3518Y-77478D01*
X-2771Y-78228D01*
X-1838Y-78478D01*
X-905Y-78228D01*
X-158Y-77478D01*
X215Y-76353D01*
Y-70978D01*
G01X7715Y-71603D02*
X7155Y-71228D01*
X6502Y-70978D01*
X5755D01*
X4915Y-71353D01*
X4262Y-71978D01*
X3795Y-72728D01*
X3422Y-73978D01*
X3329Y-75103D01*
X3515Y-76228D01*
X3795Y-76978D01*
X4355Y-77728D01*
X5009Y-78228D01*
X5662Y-78478D01*
X6315D01*
X6969Y-78228D01*
X7529Y-77853D01*
X7995Y-77353D01*
G01X13162Y-70978D02*
Y-78478D01*
G01X11015Y-70978D02*
X15309D01*
G01X20662Y-78478D02*
X19915Y-78353D01*
X19262Y-77853D01*
X18702Y-77103D01*
X18329Y-76228D01*
X18142Y-75228D01*
Y-74228D01*
X18329Y-73228D01*
X18702Y-72353D01*
X19262Y-71603D01*
X19915Y-71103D01*
X20662Y-70978D01*
X21409Y-71103D01*
X22062Y-71603D01*
X22622Y-72353D01*
X22995Y-73228D01*
X23182Y-74228D01*
Y-75228D01*
X22995Y-76228D01*
X22622Y-77103D01*
X22062Y-77853D01*
X21409Y-78353D01*
X20662Y-78478D01*
G01X26295D02*
Y-70978D01*
X28629D01*
X29375Y-71353D01*
X29842Y-71853D01*
X30029Y-72853D01*
X29842Y-73853D01*
X29282Y-74478D01*
X28629Y-74853D01*
X26295D01*
G01X28629D02*
X30029Y-78478D01*
G01X33702Y-77478D02*
X34449Y-78103D01*
X35289Y-78478D01*
X36035D01*
X36782Y-78103D01*
X37342Y-77478D01*
X37622Y-76603D01*
X37435Y-75728D01*
X36969Y-74978D01*
X36129Y-74478D01*
X35009Y-74228D01*
X34355Y-73728D01*
X34075Y-72853D01*
X34262Y-71978D01*
X34729Y-71353D01*
X35382Y-70978D01*
X36035D01*
X36689Y-71228D01*
X37249Y-71853D01*
G01X-46496Y-155478D02*
Y-151478D01*
X-44280D01*
G01X-45096Y-153411D02*
X-46496D01*
G01X-41288Y-151478D02*
X-39888D01*
G01X-40588D02*
Y-155478D01*
G01X-41288D02*
X-39888D01*
G01X-36955Y-151478D02*
Y-155478D01*
X-34621D01*
G01X-32505D02*
Y-151478D01*
X-30988Y-154811D01*
X-29471Y-151478D01*
Y-155478D01*
G01X-26933Y-163138D02*
X-26306Y-163663D01*
X-25601Y-163978D01*
X-24975D01*
X-24348Y-163663D01*
X-23878Y-163138D01*
X-23643Y-162403D01*
X-23800Y-161668D01*
X-24191Y-161038D01*
X-24896Y-160618D01*
X-25836Y-160408D01*
X-26385Y-159988D01*
X-26620Y-159253D01*
X-26463Y-158518D01*
X-26071Y-157993D01*
X-25523Y-157678D01*
X-24975D01*
X-24426Y-157888D01*
X-23956Y-158413D01*
G01X-17421Y-163978D02*
X-20555D01*
Y-157678D01*
X-17421D01*
G01X-18675Y-160723D02*
X-20555D01*
G01X-10965Y-158203D02*
X-11435Y-157888D01*
X-11983Y-157678D01*
X-12610D01*
X-13315Y-157993D01*
X-13863Y-158518D01*
X-14255Y-159148D01*
X-14568Y-160198D01*
X-14646Y-161143D01*
X-14490Y-162088D01*
X-14255Y-162718D01*
X-13785Y-163348D01*
X-13236Y-163768D01*
X-12688Y-163978D01*
X-12140D01*
X-11591Y-163768D01*
X-11121Y-163453D01*
X-10730Y-163033D01*
G01X-6388Y-163978D02*
X-7015Y-163873D01*
X-7563Y-163453D01*
X-8033Y-162823D01*
X-8346Y-162088D01*
X-8503Y-161248D01*
Y-160408D01*
X-8346Y-159568D01*
X-8033Y-158833D01*
X-7563Y-158203D01*
X-7015Y-157783D01*
X-6388Y-157678D01*
X-5761Y-157783D01*
X-5213Y-158203D01*
X-4743Y-158833D01*
X-4430Y-159568D01*
X-4273Y-160408D01*
Y-161248D01*
X-4430Y-162088D01*
X-4743Y-162823D01*
X-5213Y-163453D01*
X-5761Y-163873D01*
X-6388Y-163978D01*
G01X-1890D02*
Y-157678D01*
X1714Y-163978D01*
Y-157678D01*
G01X4489Y-163978D02*
Y-157678D01*
X6055D01*
X6682Y-157993D01*
X7152Y-158413D01*
X7544Y-159043D01*
X7857Y-159778D01*
X7935Y-160828D01*
X7857Y-161878D01*
X7544Y-162613D01*
X7152Y-163243D01*
X6682Y-163663D01*
X6055Y-163978D01*
X4489D01*
G01X10554D02*
X12512Y-157678D01*
X14470Y-163978D01*
G01X13765Y-161773D02*
X11259D01*
G01X17245Y-163978D02*
Y-157678D01*
X19204D01*
X19830Y-157993D01*
X20222Y-158413D01*
X20379Y-159253D01*
X20222Y-160093D01*
X19752Y-160618D01*
X19204Y-160933D01*
X17245D01*
G01X19204D02*
X20379Y-163978D01*
G01X25112D02*
Y-161143D01*
X23545Y-157678D01*
G01X26679D02*
X25112Y-161143D01*
G01X36067Y-163138D02*
X36694Y-163663D01*
X37399Y-163978D01*
X38025D01*
X38652Y-163663D01*
X39122Y-163138D01*
X39357Y-162403D01*
X39200Y-161668D01*
X38809Y-161038D01*
X38104Y-160618D01*
X37164Y-160408D01*
X36615Y-159988D01*
X36380Y-159253D01*
X36537Y-158518D01*
X36929Y-157993D01*
X37477Y-157678D01*
X38025D01*
X38574Y-157888D01*
X39044Y-158413D01*
G01X43072Y-157678D02*
X44952D01*
G01X44012D02*
Y-163978D01*
G01X43072D02*
X44952D01*
G01X48589D02*
Y-157678D01*
X50155D01*
X50782Y-157993D01*
X51252Y-158413D01*
X51644Y-159043D01*
X51957Y-159778D01*
X52035Y-160828D01*
X51957Y-161878D01*
X51644Y-162613D01*
X51252Y-163243D01*
X50782Y-163663D01*
X50155Y-163978D01*
X48589D01*
G01X58179D02*
X55045D01*
Y-157678D01*
X58179D01*
G01X56925Y-160723D02*
X55045D01*
G01X53806Y184005D02*
Y181822D01*
X54381Y181247D01*
G01X72428Y181455D02*
X72704Y181731D01*
Y184005D01*
G01X58531D02*
Y181247D01*
G01X63255Y184005D02*
Y181754D01*
X62897Y181396D01*
G01X67980Y184005D02*
Y181741D01*
X67595Y181356D01*
G01X81612Y-163478D02*
Y-159478D01*
X80912Y-160278D01*
G01Y-163478D02*
X82312D01*
G01X86412D02*
X86820Y-163411D01*
X87287Y-163211D01*
X87579Y-162878D01*
X87695Y-162411D01*
X87579Y-161945D01*
X87229Y-161545D01*
X86704Y-161345D01*
X86120D01*
X85770Y-161211D01*
X85479Y-160878D01*
X85362Y-160411D01*
X85537Y-159945D01*
X85945Y-159611D01*
X86412Y-159478D01*
X86879Y-159611D01*
X87287Y-159945D01*
X87462Y-160411D01*
X87345Y-160878D01*
X87054Y-161211D01*
X86704Y-161345D01*
X86120D01*
X85595Y-161545D01*
X85245Y-161945D01*
X85129Y-162411D01*
X85245Y-162878D01*
X85537Y-163211D01*
X86004Y-163411D01*
X86412Y-163478D01*
G01X90454Y-162145D02*
X91970D01*
G01X96012Y-159478D02*
X95545Y-159611D01*
X95195Y-159945D01*
X94962Y-160345D01*
X94787Y-160878D01*
X94729Y-161478D01*
X94787Y-162078D01*
X94962Y-162611D01*
X95195Y-163011D01*
X95545Y-163345D01*
X96012Y-163478D01*
X96479Y-163345D01*
X96829Y-163011D01*
X97062Y-162611D01*
X97237Y-162078D01*
X97295Y-161478D01*
X97237Y-160878D01*
X97062Y-160345D01*
X96829Y-159945D01*
X96479Y-159611D01*
X96012Y-159478D01*
G01X99529Y-162678D02*
X99879Y-163145D01*
X100345Y-163411D01*
X100870Y-163478D01*
X101337Y-163411D01*
X101804Y-163078D01*
X102095Y-162678D01*
X102154Y-162278D01*
X102037Y-161811D01*
X101629Y-161478D01*
X101220Y-161345D01*
X100695D01*
G01X101220D02*
X101570Y-161145D01*
X101862Y-160811D01*
X101979Y-160411D01*
X101862Y-160011D01*
X101570Y-159678D01*
X101045Y-159478D01*
X100520Y-159545D01*
X99995Y-159811D01*
G01X104854Y-162145D02*
X106370D01*
G01X110412Y-163478D02*
Y-159478D01*
X109712Y-160278D01*
G01Y-163478D02*
X111112D01*
G01X114220Y-163011D02*
X114629Y-163345D01*
X115095Y-163478D01*
X115562Y-163345D01*
X115970Y-162945D01*
X116262Y-162345D01*
X116379Y-161745D01*
Y-161011D01*
X116262Y-160411D01*
X115970Y-159878D01*
X115620Y-159611D01*
X115212Y-159478D01*
X114745Y-159611D01*
X114395Y-159878D01*
X114162Y-160278D01*
X114045Y-160811D01*
X114162Y-161278D01*
X114454Y-161745D01*
X114804Y-162011D01*
X115212Y-162078D01*
X115679Y-161945D01*
X116029Y-161611D01*
X116379Y-161011D01*
G01X78329Y-155478D02*
Y-151478D01*
X79495D01*
X79962Y-151678D01*
X80312Y-151945D01*
X80604Y-152345D01*
X80837Y-152811D01*
X80895Y-153478D01*
X80837Y-154145D01*
X80604Y-154611D01*
X80312Y-155011D01*
X79962Y-155278D01*
X79495Y-155478D01*
X78329D01*
G01X82954D02*
X84412Y-151478D01*
X85870Y-155478D01*
G01X85345Y-154078D02*
X83479D01*
G01X89212Y-151478D02*
Y-155478D01*
G01X87870Y-151478D02*
X90554D01*
G01X95179Y-155478D02*
X92845D01*
Y-151478D01*
X95179D01*
G01X94245Y-153411D02*
X92845D01*
G01X87862Y-141311D02*
X91362D01*
G01X92662D02*
X96162D01*
G01X97462D02*
X100962D01*
G01X110095Y-136311D02*
X109745Y-136111D01*
X109337Y-135978D01*
X108870D01*
X108345Y-136178D01*
X107937Y-136511D01*
X107645Y-136911D01*
X107412Y-137578D01*
X107354Y-138178D01*
X107470Y-138778D01*
X107645Y-139178D01*
X107995Y-139578D01*
X108404Y-139845D01*
X108812Y-139978D01*
X109220D01*
X109629Y-139845D01*
X109979Y-139645D01*
X110270Y-139378D01*
G01X113612Y-139978D02*
X113145Y-139911D01*
X112737Y-139645D01*
X112387Y-139245D01*
X112154Y-138778D01*
X112037Y-138245D01*
Y-137711D01*
X112154Y-137178D01*
X112387Y-136711D01*
X112737Y-136311D01*
X113145Y-136045D01*
X113612Y-135978D01*
X114079Y-136045D01*
X114487Y-136311D01*
X114837Y-136711D01*
X115070Y-137178D01*
X115187Y-137711D01*
Y-138245D01*
X115070Y-138778D01*
X114837Y-139245D01*
X114487Y-139645D01*
X114079Y-139911D01*
X113612Y-139978D01*
G01X116895D02*
Y-135978D01*
X118412Y-139311D01*
X119929Y-135978D01*
Y-139978D01*
G01X122045D02*
Y-135978D01*
X123445D01*
X123912Y-136178D01*
X124262Y-136645D01*
X124379Y-137178D01*
X124262Y-137711D01*
X123970Y-138111D01*
X123445Y-138311D01*
X122045D01*
G01X126554Y-139978D02*
X128012Y-135978D01*
X129470Y-139978D01*
G01X128945Y-138578D02*
X127079D01*
G01X131470Y-139978D02*
Y-135978D01*
X134154Y-139978D01*
Y-135978D01*
G01X137612Y-139978D02*
Y-138178D01*
X136445Y-135978D01*
G01X138779D02*
X137612Y-138178D01*
G01X148495Y-136311D02*
X148145Y-136111D01*
X147737Y-135978D01*
X147270D01*
X146745Y-136178D01*
X146337Y-136511D01*
X146045Y-136911D01*
X145812Y-137578D01*
X145754Y-138178D01*
X145870Y-138778D01*
X146045Y-139178D01*
X146395Y-139578D01*
X146804Y-139845D01*
X147212Y-139978D01*
X147620D01*
X148029Y-139845D01*
X148379Y-139645D01*
X148670Y-139378D01*
G01X152012Y-139978D02*
X151545Y-139911D01*
X151137Y-139645D01*
X150787Y-139245D01*
X150554Y-138778D01*
X150437Y-138245D01*
Y-137711D01*
X150554Y-137178D01*
X150787Y-136711D01*
X151137Y-136311D01*
X151545Y-136045D01*
X152012Y-135978D01*
X152479Y-136045D01*
X152887Y-136311D01*
X153237Y-136711D01*
X153470Y-137178D01*
X153587Y-137711D01*
Y-138245D01*
X153470Y-138778D01*
X153237Y-139245D01*
X152887Y-139645D01*
X152479Y-139911D01*
X152012Y-139978D01*
G01X155470D02*
Y-135978D01*
X158154Y-139978D01*
Y-135978D01*
G01X160504Y-139978D02*
Y-135978D01*
X162720D01*
G01X161904Y-137911D02*
X160504D01*
G01X165712Y-135978D02*
X167112D01*
G01X166412D02*
Y-139978D01*
G01X165712D02*
X167112D01*
G01X169929D02*
Y-135978D01*
X171095D01*
X171562Y-136178D01*
X171912Y-136445D01*
X172204Y-136845D01*
X172437Y-137311D01*
X172495Y-137978D01*
X172437Y-138645D01*
X172204Y-139111D01*
X171912Y-139511D01*
X171562Y-139778D01*
X171095Y-139978D01*
X169929D01*
G01X177179D02*
X174845D01*
Y-135978D01*
X177179D01*
G01X176245Y-137911D02*
X174845D01*
G01X179470Y-139978D02*
Y-135978D01*
X182154Y-139978D01*
Y-135978D01*
G01X185612D02*
Y-139978D01*
G01X184270Y-135978D02*
X186954D01*
G01X189712D02*
X191112D01*
G01X190412D02*
Y-139978D01*
G01X189712D02*
X191112D01*
G01X193754D02*
X195212Y-135978D01*
X196670Y-139978D01*
G01X196145Y-138578D02*
X194279D01*
G01X198845Y-135978D02*
Y-139978D01*
X201179D01*
G01X87862Y-124811D02*
X91362D01*
G01X92662D02*
X96162D01*
G01X97462D02*
X100962D01*
G01X110095Y-119811D02*
X109745Y-119611D01*
X109337Y-119478D01*
X108870D01*
X108345Y-119678D01*
X107937Y-120011D01*
X107645Y-120411D01*
X107412Y-121078D01*
X107354Y-121678D01*
X107470Y-122278D01*
X107645Y-122678D01*
X107995Y-123078D01*
X108404Y-123345D01*
X108812Y-123478D01*
X109220D01*
X109629Y-123345D01*
X109979Y-123145D01*
X110270Y-122878D01*
G01X113612Y-123478D02*
X113145Y-123411D01*
X112737Y-123145D01*
X112387Y-122745D01*
X112154Y-122278D01*
X112037Y-121745D01*
Y-121211D01*
X112154Y-120678D01*
X112387Y-120211D01*
X112737Y-119811D01*
X113145Y-119545D01*
X113612Y-119478D01*
X114079Y-119545D01*
X114487Y-119811D01*
X114837Y-120211D01*
X115070Y-120678D01*
X115187Y-121211D01*
Y-121745D01*
X115070Y-122278D01*
X114837Y-122745D01*
X114487Y-123145D01*
X114079Y-123411D01*
X113612Y-123478D01*
G01X116895D02*
Y-119478D01*
X118412Y-122811D01*
X119929Y-119478D01*
Y-123478D01*
G01X122045D02*
Y-119478D01*
X123445D01*
X123912Y-119678D01*
X124262Y-120145D01*
X124379Y-120678D01*
X124262Y-121211D01*
X123970Y-121611D01*
X123445Y-121811D01*
X122045D01*
G01X126554Y-123478D02*
X128012Y-119478D01*
X129470Y-123478D01*
G01X128945Y-122078D02*
X127079D01*
G01X131470Y-123478D02*
Y-119478D01*
X134154Y-123478D01*
Y-119478D01*
G01X137612Y-123478D02*
Y-121678D01*
X136445Y-119478D01*
G01X138779D02*
X137612Y-121678D01*
G01X146512Y-119478D02*
X147912D01*
G01X147212D02*
Y-123478D01*
G01X146512D02*
X147912D01*
G01X150670D02*
Y-119478D01*
X153354Y-123478D01*
Y-119478D01*
G01X156812D02*
Y-123478D01*
G01X155470Y-119478D02*
X158154D01*
G01X162779Y-123478D02*
X160445D01*
Y-119478D01*
X162779D01*
G01X161845Y-121411D02*
X160445D01*
G01X165245Y-123478D02*
Y-119478D01*
X166704D01*
X167170Y-119678D01*
X167462Y-119945D01*
X167579Y-120478D01*
X167462Y-121011D01*
X167112Y-121345D01*
X166704Y-121545D01*
X165245D01*
G01X166704D02*
X167579Y-123478D01*
G01X169870D02*
Y-119478D01*
X172554Y-123478D01*
Y-119478D01*
G01X174554Y-123478D02*
X176012Y-119478D01*
X177470Y-123478D01*
G01X176945Y-122078D02*
X175079D01*
G01X179645Y-119478D02*
Y-123478D01*
X181979D01*
G01X87862Y-108811D02*
X91362D01*
G01X92662D02*
X96162D01*
G01X97462D02*
X100962D01*
G01X110095Y-103811D02*
X109745Y-103611D01*
X109337Y-103478D01*
X108870D01*
X108345Y-103678D01*
X107937Y-104011D01*
X107645Y-104411D01*
X107412Y-105078D01*
X107354Y-105678D01*
X107470Y-106278D01*
X107645Y-106678D01*
X107995Y-107078D01*
X108404Y-107345D01*
X108812Y-107478D01*
X109220D01*
X109629Y-107345D01*
X109979Y-107145D01*
X110270Y-106878D01*
G01X113612Y-107478D02*
X113145Y-107411D01*
X112737Y-107145D01*
X112387Y-106745D01*
X112154Y-106278D01*
X112037Y-105745D01*
Y-105211D01*
X112154Y-104678D01*
X112387Y-104211D01*
X112737Y-103811D01*
X113145Y-103545D01*
X113612Y-103478D01*
X114079Y-103545D01*
X114487Y-103811D01*
X114837Y-104211D01*
X115070Y-104678D01*
X115187Y-105211D01*
Y-105745D01*
X115070Y-106278D01*
X114837Y-106745D01*
X114487Y-107145D01*
X114079Y-107411D01*
X113612Y-107478D01*
G01X116895D02*
Y-103478D01*
X118412Y-106811D01*
X119929Y-103478D01*
Y-107478D01*
G01X122045D02*
Y-103478D01*
X123445D01*
X123912Y-103678D01*
X124262Y-104145D01*
X124379Y-104678D01*
X124262Y-105211D01*
X123970Y-105611D01*
X123445Y-105811D01*
X122045D01*
G01X126554Y-107478D02*
X128012Y-103478D01*
X129470Y-107478D01*
G01X128945Y-106078D02*
X127079D01*
G01X131470Y-107478D02*
Y-103478D01*
X134154Y-107478D01*
Y-103478D01*
G01X137612Y-107478D02*
Y-105678D01*
X136445Y-103478D01*
G01X138779D02*
X137612Y-105678D01*
G01X146045Y-107478D02*
Y-103478D01*
X147445D01*
X147912Y-103678D01*
X148262Y-104145D01*
X148379Y-104678D01*
X148262Y-105211D01*
X147970Y-105611D01*
X147445Y-105811D01*
X146045D01*
G01X150729Y-103478D02*
Y-106345D01*
X150962Y-106945D01*
X151429Y-107345D01*
X152012Y-107478D01*
X152595Y-107345D01*
X153062Y-106945D01*
X153295Y-106345D01*
Y-103478D01*
G01X157279Y-105345D02*
X157512Y-105145D01*
X157687Y-104811D01*
X157804Y-104345D01*
X157687Y-103945D01*
X157454Y-103678D01*
X157045Y-103478D01*
X155470D01*
Y-107478D01*
X157395D01*
X157804Y-107211D01*
X158037Y-106811D01*
X158154Y-106345D01*
X158037Y-105878D01*
X157687Y-105478D01*
X157279Y-105345D01*
X155470D01*
G01X160445Y-103478D02*
Y-107478D01*
X162779D01*
G01X165712Y-103478D02*
X167112D01*
G01X166412D02*
Y-107478D01*
G01X165712D02*
X167112D01*
G01X172495Y-103811D02*
X172145Y-103611D01*
X171737Y-103478D01*
X171270D01*
X170745Y-103678D01*
X170337Y-104011D01*
X170045Y-104411D01*
X169812Y-105078D01*
X169754Y-105678D01*
X169870Y-106278D01*
X170045Y-106678D01*
X170395Y-107078D01*
X170804Y-107345D01*
X171212Y-107478D01*
X171620D01*
X172029Y-107345D01*
X172379Y-107145D01*
X172670Y-106878D01*
G01X78270Y-75478D02*
Y-71478D01*
X80954Y-75478D01*
Y-71478D01*
G01X82954Y-75478D02*
X84412Y-71478D01*
X85870Y-75478D01*
G01X85345Y-74078D02*
X83479D01*
G01X87695Y-75478D02*
Y-71478D01*
X89212Y-74811D01*
X90729Y-71478D01*
Y-75478D01*
G01X95179D02*
X92845D01*
Y-71478D01*
X95179D01*
G01X94245Y-73411D02*
X92845D01*
G01X77428Y184005D02*
Y182109D01*
X76789Y181470D01*
G01X82153Y184005D02*
Y181786D01*
X81789Y181422D01*
G01X86877Y184005D02*
Y181455D01*
G01X91602Y184005D02*
Y181455D01*
G01X93367Y-106978D02*
X96657Y-100678D01*
G01X93367D02*
X96657Y-106978D01*
G01X96326Y184005D02*
Y181455D01*
G01X101050Y184005D02*
Y181534D01*
X100789Y181273D01*
G01X105775Y184005D02*
Y181741D01*
X105489Y181455D01*
G01X110307D02*
X110499Y181647D01*
Y184005D01*
G01X115224D02*
Y181647D01*
X115032Y181455D01*
G01X121523Y184005D02*
Y182132D01*
X120815Y181424D01*
G01X128270Y-155478D02*
Y-151478D01*
X130954Y-155478D01*
Y-151478D01*
G01X133129D02*
Y-154345D01*
X133362Y-154945D01*
X133829Y-155345D01*
X134412Y-155478D01*
X134995Y-155345D01*
X135462Y-154945D01*
X135695Y-154345D01*
Y-151478D01*
G01X137695Y-155478D02*
Y-151478D01*
X139212Y-154811D01*
X140729Y-151478D01*
Y-155478D01*
G01X144479Y-153345D02*
X144712Y-153145D01*
X144887Y-152811D01*
X145004Y-152345D01*
X144887Y-151945D01*
X144654Y-151678D01*
X144245Y-151478D01*
X142670D01*
Y-155478D01*
X144595D01*
X145004Y-155211D01*
X145237Y-154811D01*
X145354Y-154345D01*
X145237Y-153878D01*
X144887Y-153478D01*
X144479Y-153345D01*
X142670D01*
G01X149979Y-155478D02*
X147645D01*
Y-151478D01*
X149979D01*
G01X149045Y-153411D02*
X147645D01*
G01X152445Y-155478D02*
Y-151478D01*
X153904D01*
X154370Y-151678D01*
X154662Y-151945D01*
X154779Y-152478D01*
X154662Y-153011D01*
X154312Y-153345D01*
X153904Y-153545D01*
X152445D01*
G01X153904D02*
X154779Y-155478D01*
G01X129397Y184005D02*
Y181458D01*
X129394Y181455D01*
G01X163212Y-162478D02*
Y-156178D01*
X162272Y-157438D01*
G01Y-162478D02*
X164152D01*
G01X169355D02*
X169512Y-161113D01*
X169747Y-159958D01*
X170060Y-158908D01*
X170452Y-157753D01*
X171079Y-156178D01*
X167945D01*
G01X175812D02*
X175185Y-156388D01*
X174715Y-156913D01*
X174402Y-157543D01*
X174167Y-158383D01*
X174089Y-159328D01*
X174167Y-160273D01*
X174402Y-161113D01*
X174715Y-161743D01*
X175185Y-162268D01*
X175812Y-162478D01*
X176439Y-162268D01*
X176909Y-161743D01*
X177222Y-161113D01*
X177457Y-160273D01*
X177535Y-159328D01*
X177457Y-158383D01*
X177222Y-157543D01*
X176909Y-156913D01*
X176439Y-156388D01*
X175812Y-156178D01*
G01X181094Y-160378D02*
X183130D01*
G01X189352Y-162478D02*
Y-156178D01*
X186454Y-160693D01*
X190370D01*
G01X192989Y-161533D02*
X193459Y-162058D01*
X194007Y-162373D01*
X194712Y-162478D01*
X195417Y-162268D01*
X195965Y-161848D01*
X196357Y-161113D01*
X196435Y-160273D01*
X196279Y-159433D01*
X195887Y-158908D01*
X195339Y-158488D01*
X194790Y-158383D01*
X194242Y-158488D01*
X193537Y-158908D01*
X193772Y-156178D01*
X195887D01*
G01X199524Y-159853D02*
X200072Y-159118D01*
X200542Y-158698D01*
X201169Y-158488D01*
X201717Y-158698D01*
X202109Y-159118D01*
X202422Y-159748D01*
X202500Y-160483D01*
X202422Y-161113D01*
X202109Y-161743D01*
X201639Y-162268D01*
X201090Y-162478D01*
X200464Y-162268D01*
X199915Y-161638D01*
X199602Y-160693D01*
X199524Y-159643D01*
X199680Y-158278D01*
X199915Y-157543D01*
X200307Y-156808D01*
X200855Y-156283D01*
X201404Y-156178D01*
X201952Y-156388D01*
X202344Y-156913D01*
G01X205980Y-161743D02*
X206529Y-162268D01*
X207155Y-162478D01*
X207782Y-162268D01*
X208330Y-161638D01*
X208722Y-160693D01*
X208879Y-159748D01*
Y-158593D01*
X208722Y-157648D01*
X208330Y-156808D01*
X207860Y-156388D01*
X207312Y-156178D01*
X206685Y-156388D01*
X206215Y-156808D01*
X205902Y-157438D01*
X205745Y-158278D01*
X205902Y-159013D01*
X206294Y-159748D01*
X206764Y-160168D01*
X207312Y-160273D01*
X207939Y-160063D01*
X208409Y-159538D01*
X208879Y-158593D01*
G01X212280Y-161743D02*
X212829Y-162268D01*
X213455Y-162478D01*
X214082Y-162268D01*
X214630Y-161638D01*
X215022Y-160693D01*
X215179Y-159748D01*
Y-158593D01*
X215022Y-157648D01*
X214630Y-156808D01*
X214160Y-156388D01*
X213612Y-156178D01*
X212985Y-156388D01*
X212515Y-156808D01*
X212202Y-157438D01*
X212045Y-158278D01*
X212202Y-159013D01*
X212594Y-159748D01*
X213064Y-160168D01*
X213612Y-160273D01*
X214239Y-160063D01*
X214709Y-159538D01*
X215179Y-158593D01*
G01X256145Y-162478D02*
Y-156178D01*
X258104D01*
X258730Y-156493D01*
X259122Y-156913D01*
X259279Y-157753D01*
X259122Y-158593D01*
X258652Y-159118D01*
X258104Y-159433D01*
X256145D01*
G01X258104D02*
X259279Y-162478D01*
G01X265579D02*
X262445D01*
Y-156178D01*
X265579D01*
G01X264325Y-159223D02*
X262445D01*
G01X268354Y-156178D02*
X270312Y-162478D01*
X272270Y-156178D01*
G01X280954Y-162478D02*
X282912Y-156178D01*
X284870Y-162478D01*
G01X284165Y-160273D02*
X281659D01*
G01X165212Y-89478D02*
X165760Y-89373D01*
X166387Y-89058D01*
X166779Y-88533D01*
X166935Y-87798D01*
X166779Y-87063D01*
X166309Y-86433D01*
X165604Y-86118D01*
X164820D01*
X164350Y-85908D01*
X163959Y-85383D01*
X163802Y-84648D01*
X164037Y-83913D01*
X164585Y-83388D01*
X165212Y-83178D01*
X165839Y-83388D01*
X166387Y-83913D01*
X166622Y-84648D01*
X166465Y-85383D01*
X166074Y-85908D01*
X165604Y-86118D01*
X164820D01*
X164115Y-86433D01*
X163645Y-87063D01*
X163489Y-87798D01*
X163645Y-88533D01*
X164037Y-89058D01*
X164664Y-89373D01*
X165212Y-89478D01*
G01X169475D02*
Y-83178D01*
X171512Y-88428D01*
X173549Y-83178D01*
Y-89478D01*
G01X176010D02*
Y-83178D01*
X179614Y-89478D01*
Y-83178D01*
G01X182154Y-89478D02*
X184112Y-83178D01*
X186070Y-89478D01*
G01X185365Y-87273D02*
X182859D01*
G01X188610Y-89478D02*
Y-83178D01*
X192214Y-89478D01*
Y-83178D01*
G01X196712Y-89478D02*
X196085Y-89373D01*
X195537Y-88953D01*
X195067Y-88323D01*
X194754Y-87588D01*
X194597Y-86748D01*
Y-85908D01*
X194754Y-85068D01*
X195067Y-84333D01*
X195537Y-83703D01*
X196085Y-83283D01*
X196712Y-83178D01*
X197339Y-83283D01*
X197887Y-83703D01*
X198357Y-84333D01*
X198670Y-85068D01*
X198827Y-85908D01*
Y-86748D01*
X198670Y-87588D01*
X198357Y-88323D01*
X197887Y-88953D01*
X197339Y-89373D01*
X196712Y-89478D01*
G01X201289D02*
Y-83178D01*
X202855D01*
X203482Y-83493D01*
X203952Y-83913D01*
X204344Y-84543D01*
X204657Y-85278D01*
X204735Y-86328D01*
X204657Y-87378D01*
X204344Y-88113D01*
X203952Y-88743D01*
X203482Y-89163D01*
X202855Y-89478D01*
X201289D01*
G01X210252D02*
Y-83178D01*
X207354Y-87693D01*
X211270D01*
G01X214594Y-87378D02*
X216630D01*
G01X223479Y-89478D02*
X220345D01*
Y-83178D01*
X223479D01*
G01X222225Y-86223D02*
X220345D01*
G01X226254Y-83178D02*
X228212Y-89478D01*
X230170Y-83178D01*
G01X232789Y-89478D02*
Y-83178D01*
G01X235765D02*
X232789Y-87063D01*
G01X236235Y-89478D02*
X234120Y-85278D01*
M02*
