G04 ================== begin FILE IDENTIFICATION RECORD ==================*
G04 Layout Name:  C:/WORK/2019project/IMX815/FabOutput/Lay-45699_A.brd*
G04 Film Name:    psp*
G04 File Format:  Gerber RS274X*
G04 File Origin:  Cadence Allegro 17.2-S046*
G04 Origin Date:  Fri Mar 22 13:38:46 2019*
G04 *
G04 Layer:  BOARD GEOMETRY/PASTEMASK_TOP*
G04 Layer:  PIN/PASTEMASK_TOP*
G04 Layer:  PACKAGE GEOMETRY/PASTEMASK_TOP*
G04 Layer:  DRAWING FORMAT/FILM_TITLE_BLOCK*
G04 Layer:  BOARD GEOMETRY/OUTLINE*
G04 *
G04 Offset:    (0.00 0.00)*
G04 Mirror:    No*
G04 Mode:      Positive*
G04 Rotation:  0*
G04 FullContactRelief:  No*
G04 UndefLineWidth:     8.00*
G04 ================== end FILE IDENTIFICATION RECORD ====================*
%FSLAX55Y55*MOIN*%
%IR0*IPPOS*OFA0.00000B0.00000*MIA0B0*SFA1.00000B1.00000*%
%ADD22C,.01*%
%ADD13C,.014*%
%ADD23C,.025*%
%ADD17R,.008X.027*%
%ADD19R,.02X.02*%
%ADD18R,.027X.008*%
%ADD16R,.012X.012*%
%ADD25R,.04X.04*%
%ADD29R,.039X.039*%
%ADD30R,.01X.02*%
%ADD28R,.02X.01*%
%ADD32R,.042X.04*%
%ADD26R,.031X.033*%
%AMMACRO33*
4,1,5,.0195,.0195,
-.0195,.0195,
-.0195,-.0195,
-.0005,-.0195,
.0195,.0005,
.0195,.0195,
0.0*
%
%ADD33MACRO33*%
%ADD31R,.024X.04*%
%ADD14R,.02X.018*%
%ADD15R,.018X.02*%
%ADD11R,.071X.034*%
%ADD10R,.024X.044*%
%ADD21R,.043X.075*%
%ADD27R,.087X.042*%
%ADD24R,.047X.055*%
%ADD12R,.079X.048*%
%ADD20R,.048X.079*%
%ADD34C,.02*%
%ADD35C,.008*%
%ADD36C,.006*%
G75*
%LPD*%
G75*
G36*
G01X39082Y35643D02*
Y42336D01*
X32389D01*
Y35643D01*
X39082D01*
G37*
G36*
G01Y43910D02*
Y50603D01*
X32389D01*
Y43910D01*
X39082D01*
G37*
G36*
G01X47349Y42336D02*
X40656D01*
Y35643D01*
X47349D01*
Y42336D01*
G37*
G36*
G01X40656Y50603D02*
Y43910D01*
X47349D01*
Y50603D01*
X40656D01*
G37*
G36*
G01X187171Y154398D02*
X192071D01*
Y159298D01*
X187171D01*
Y154398D01*
G37*
G36*
G01X181471D02*
X186371D01*
Y159298D01*
X181471D01*
Y154398D01*
G37*
G36*
G01Y160098D02*
X186371D01*
Y164998D01*
X181471D01*
Y160098D01*
G37*
G36*
G01X187171D02*
X192071D01*
Y164998D01*
X187171D01*
Y160098D01*
G37*
G54D10*
X15437Y22112D03*
X11697D03*
X7957D03*
Y10891D03*
X15437D03*
G54D20*
X40565Y68743D03*
X32615D03*
G54D11*
X14749Y32595D03*
Y39169D03*
G54D12*
Y44727D03*
Y52677D03*
X64989Y38369D03*
Y30419D03*
Y44727D03*
Y52677D03*
G54D21*
X54167Y15263D03*
X44325D03*
G54D30*
X178247Y47614D03*
X176279D03*
X174310D03*
X172342D03*
X170373D03*
X168405D03*
Y74386D03*
X170373D03*
X172342D03*
X174310D03*
X176279D03*
X178247D03*
X193995Y47614D03*
X192027D03*
X190058D03*
X188090D03*
X186121D03*
X184153D03*
X182184D03*
X180216D03*
Y74386D03*
X182184D03*
X184153D03*
X186121D03*
X188090D03*
X190058D03*
X192027D03*
X193995D03*
G54D31*
X179271Y148478D03*
Y170918D03*
X194271Y148478D03*
X189271D03*
X184271D03*
Y170918D03*
X189271D03*
X194271D03*
G54D13*
X18801Y96778D03*
X15651D03*
X12502D03*
X18801Y99928D03*
X15651D03*
X12502D03*
X18801Y103077D03*
X15651D03*
X12502D03*
X18801Y106227D03*
X15651D03*
X12502D03*
X18801Y109376D03*
X15651D03*
X12502D03*
X18801Y112526D03*
X15651D03*
X12502D03*
X18801Y115676D03*
X15651D03*
X12502D03*
X18801Y118825D03*
X15651D03*
X12502D03*
X18801Y121975D03*
X15651D03*
X12502D03*
X18801Y125124D03*
X15651D03*
X12502D03*
X18801Y128274D03*
X15651D03*
X12502D03*
X18801Y131424D03*
X15651D03*
X12502D03*
X18801Y134573D03*
X15651D03*
X12502D03*
X18801Y137723D03*
X15651D03*
X12502D03*
X18801Y140872D03*
X15651D03*
X12502D03*
X18801Y144022D03*
X15651D03*
X12502D03*
X37698Y96778D03*
X34549D03*
X31399D03*
X37698Y99928D03*
X34549D03*
X31399D03*
X37698Y103077D03*
X34549D03*
X31399D03*
X37698Y106227D03*
X34549D03*
X31399D03*
X37698Y109376D03*
X34549D03*
X31399D03*
X37698Y112526D03*
X34549D03*
X31399D03*
X37698Y115676D03*
X34549D03*
X31399D03*
X37698Y118825D03*
X34549D03*
X31399D03*
X37698Y121975D03*
X34549D03*
X31399D03*
X37698Y125124D03*
X34549D03*
X31399D03*
X37698Y128274D03*
X34549D03*
X31399D03*
X37698Y131424D03*
X34549D03*
X31399D03*
X37698Y134573D03*
X34549D03*
X31399D03*
X37698Y137723D03*
X34549D03*
X31399D03*
X37698Y140872D03*
X34549D03*
X31399D03*
X37698Y144022D03*
X34549D03*
X31399D03*
G54D22*
G01X-100138Y-147478D02*
X299862D01*
G01X-100138Y-117478D02*
Y-97478D01*
X299862D01*
G01X-50138Y-167478D02*
Y-147478D01*
G01X75362Y-167478D02*
Y-147478D01*
G01X74862Y-97478D02*
Y-67478D01*
G01X124862Y-167478D02*
Y-147478D01*
X66898Y89399D03*
X70835Y91368D03*
X74773Y93336D03*
X68867D03*
Y89399D03*
Y91368D03*
X72804D03*
X70835Y89399D03*
X66898Y91368D03*
Y93336D03*
X74773Y91368D03*
Y89399D03*
X72804D03*
X70835Y105148D03*
Y107116D03*
Y97274D03*
Y99242D03*
X68867Y103179D03*
X66898Y101210D03*
Y103179D03*
Y95305D03*
X68867D03*
Y97274D03*
X66898D03*
Y107116D03*
X68867D03*
Y105148D03*
X66898D03*
X68867Y101210D03*
Y99242D03*
X66898D03*
X74773Y105148D03*
Y107116D03*
Y95305D03*
X72804Y97274D03*
X66898Y109084D03*
X68867D03*
X72804Y107116D03*
Y105148D03*
X74773Y99242D03*
X72804D03*
X70835Y113022D03*
Y114990D03*
Y116958D03*
Y122864D03*
Y124832D03*
X68867Y126801D03*
X74773Y114990D03*
X68867D03*
X66898D03*
Y113022D03*
Y126801D03*
Y122864D03*
X68867D03*
Y124832D03*
X66898D03*
X68867Y113022D03*
Y111053D03*
X66898D03*
X74773Y113022D03*
X72804D03*
X66898Y116958D03*
X68867D03*
Y118927D03*
X66898D03*
X74773Y122864D03*
Y116958D03*
X72804D03*
X74773Y124832D03*
X66898Y120896D03*
X68867D03*
X72804Y124832D03*
Y122864D03*
X70835Y130738D03*
Y132706D03*
X74773Y136644D03*
X68867D03*
X70835Y138612D03*
X66898Y140581D03*
Y128770D03*
X68867Y140581D03*
Y138612D03*
Y132706D03*
X66898D03*
X68867Y128770D03*
Y130738D03*
X72804Y138612D03*
X70835Y140581D03*
X66898Y138612D03*
Y136644D03*
Y134675D03*
X68867D03*
X74773Y138612D03*
Y140581D03*
X66898Y130738D03*
X72804Y140581D03*
X74773Y134675D03*
X72804Y132706D03*
X74773Y130738D03*
X72804D03*
X82647Y93336D03*
X76741D03*
X92489D03*
X90521D03*
X84615D03*
Y91368D03*
Y89399D03*
X86583Y91368D03*
Y89399D03*
X88552Y91368D03*
Y89399D03*
X90521Y91368D03*
Y89399D03*
X92489Y91368D03*
Y89399D03*
X82647Y91368D03*
Y89399D03*
X80678Y91368D03*
X76741D03*
Y89399D03*
X80678D03*
X78709Y91368D03*
Y89399D03*
Y107116D03*
X88552Y109084D03*
X78709Y101210D03*
X90521D03*
X84615D03*
X90521Y103179D03*
X78709Y105148D03*
X82647Y101210D03*
X86583Y105148D03*
X88552Y107116D03*
X86583Y109084D03*
X84615Y105148D03*
Y109084D03*
X90521Y107116D03*
Y109084D03*
X92489Y105148D03*
X90521D03*
X92489Y101210D03*
X90521Y99242D03*
X84615Y103179D03*
X88552Y105148D03*
X82647Y107116D03*
X80678D03*
X82647Y109084D03*
Y99242D03*
Y97274D03*
Y95305D03*
X84615Y99242D03*
Y97274D03*
Y95305D03*
X90521Y97274D03*
Y95305D03*
X92489Y97274D03*
X76741D03*
Y95305D03*
Y99242D03*
Y107116D03*
Y105148D03*
X88552Y111053D03*
X78709Y113022D03*
X88552D03*
X90521Y114990D03*
X78709Y116958D03*
X88552D03*
Y118927D03*
Y120896D03*
X78709Y122864D03*
Y124832D03*
X86583Y116958D03*
X92489Y118927D03*
X90521D03*
Y120896D03*
X86583D03*
X90521Y122864D03*
X88552D03*
X90521Y116958D03*
Y126801D03*
X92489Y124832D03*
X86583Y113022D03*
X88552Y114990D03*
X82647D03*
X84615Y124832D03*
Y113022D03*
Y116958D03*
Y120896D03*
X92489Y111053D03*
X90521D03*
Y113022D03*
Y124832D03*
X88552D03*
X86583D03*
X84615Y126801D03*
X82647Y111053D03*
Y113022D03*
X80678D03*
X82647Y116958D03*
X80678D03*
X82647Y118927D03*
Y120896D03*
Y122864D03*
X78709Y114990D03*
X80678Y122864D03*
X76741Y113022D03*
Y116958D03*
Y122864D03*
Y124832D03*
X82647Y128770D03*
X78709D03*
X90521D03*
X84615D03*
X82647Y136644D03*
X76741D03*
X92489D03*
X90521D03*
X84615D03*
X92489Y128770D03*
X76741Y140581D03*
Y132706D03*
X80678Y138612D03*
Y140581D03*
X76741Y138612D03*
Y134675D03*
X78709Y138612D03*
Y140581D03*
X90521Y130738D03*
X92489Y132706D03*
X90521D03*
Y134675D03*
X84615Y130738D03*
Y132706D03*
X82647Y134675D03*
X84615D03*
X82647Y130738D03*
Y132706D03*
X92489Y138612D03*
Y140581D03*
X90521Y138612D03*
Y140581D03*
X88552Y138612D03*
Y140581D03*
X84615Y138612D03*
Y140581D03*
X82647Y138612D03*
Y140581D03*
X86583Y138612D03*
Y140581D03*
X76741Y130738D03*
X110205Y93336D03*
X108237D03*
X102331D03*
X100363D03*
X94457D03*
X110205Y91368D03*
Y89399D03*
X108237Y91368D03*
Y89399D03*
X106269Y91368D03*
Y89399D03*
X104300Y91368D03*
Y89399D03*
X96426D03*
X102331Y91368D03*
Y89399D03*
X100363Y91368D03*
Y89399D03*
X98395Y91368D03*
Y89399D03*
X94457Y91368D03*
Y89399D03*
X96426Y91368D03*
X106269Y105148D03*
Y107116D03*
X96426Y109084D03*
X106269Y101210D03*
X102331D03*
X100363D03*
X94457D03*
X100363Y103179D03*
Y109084D03*
X98395D03*
X94457Y107116D03*
Y109084D03*
X96426Y105148D03*
X94457D03*
X96426Y107116D03*
X94457Y103179D03*
X108237Y107116D03*
X104300D03*
X98395Y105148D03*
X102331Y107116D03*
X100363Y105148D03*
X102331Y109084D03*
X108237Y105148D03*
X110205Y107116D03*
Y99242D03*
Y105148D03*
X94457Y99242D03*
X100363Y95305D03*
X94457Y97274D03*
Y95305D03*
X110205D03*
X108237Y97274D03*
Y95305D03*
X102331Y97274D03*
X108237Y99242D03*
X102331Y95305D03*
Y99242D03*
X100363Y97274D03*
Y99242D03*
X96426Y111053D03*
X106269Y113022D03*
X104300D03*
X96426D03*
X106269Y114990D03*
X94457D03*
X106269Y116958D03*
X96426D03*
Y118927D03*
Y120896D03*
X106269Y122864D03*
X104300D03*
X106269Y124832D03*
X100363Y126801D03*
X102331Y122864D03*
X94457Y126801D03*
X98395Y124832D03*
Y113022D03*
X100363Y120896D03*
Y116958D03*
X94457D03*
Y118927D03*
Y120896D03*
X96426Y122864D03*
X100363Y113022D03*
X94457Y122864D03*
X108237D03*
X96426Y124832D03*
X94457D03*
Y111053D03*
Y113022D03*
X102331Y114990D03*
X104300Y116958D03*
X102331Y113022D03*
X98395Y116958D03*
Y120896D03*
X96426Y114990D03*
X102331Y116958D03*
Y111053D03*
X108237Y124832D03*
X102331Y120896D03*
Y118927D03*
X100363Y124832D03*
X110205D03*
Y113022D03*
X108237D03*
X110205Y116958D03*
Y122864D03*
Y114990D03*
X108237Y116958D03*
X106269Y128770D03*
X102331D03*
X100363D03*
X94457D03*
X110205Y136644D03*
X108237D03*
X102331D03*
X100363D03*
X94457D03*
Y134675D03*
X100363Y130738D03*
X102331D03*
X100363Y134675D03*
Y132706D03*
X94457D03*
Y130738D03*
X100363Y138612D03*
Y140581D03*
X98395Y138612D03*
Y140581D03*
X94457Y138612D03*
Y140581D03*
X96426Y138612D03*
Y140581D03*
X104300Y138612D03*
Y140581D03*
X102331Y138612D03*
Y140581D03*
Y134675D03*
X106269Y138612D03*
Y140581D03*
X110205Y130738D03*
X108237Y132706D03*
X110205Y134675D03*
Y138612D03*
Y140581D03*
X108237Y130738D03*
X102331Y132706D03*
X108237Y134675D03*
Y138612D03*
Y140581D03*
X118080Y89399D03*
X112174Y91368D03*
Y89399D03*
X114143Y91368D03*
Y89399D03*
X116111Y91368D03*
Y89399D03*
X118080Y91368D03*
X116111Y93336D03*
X118080D03*
X114143Y105148D03*
Y107116D03*
Y97274D03*
Y99242D03*
X116111Y97274D03*
Y95305D03*
X118080D03*
Y99242D03*
Y97274D03*
Y101210D03*
X116111Y99242D03*
X112174Y107116D03*
Y99242D03*
Y105148D03*
X116111Y101210D03*
Y105148D03*
X118080D03*
X116111Y109084D03*
X118080D03*
X116111Y103179D03*
X118080D03*
Y107116D03*
X116111D03*
X112174Y97274D03*
X114143Y113022D03*
Y114990D03*
Y116958D03*
Y122864D03*
Y124832D03*
X112174D03*
X116111D03*
Y126801D03*
X118080Y124832D03*
Y126801D03*
X112174Y113022D03*
X116111Y111053D03*
X118080D03*
Y113022D03*
X116111D03*
X118080Y116958D03*
X116111Y114990D03*
Y116958D03*
Y122864D03*
Y120896D03*
Y118927D03*
X112174Y122864D03*
X118080D03*
Y120896D03*
Y118927D03*
Y114990D03*
X112174Y116958D03*
X114143Y130738D03*
Y132706D03*
X116111Y138612D03*
X118080Y140581D03*
X116111Y134675D03*
X114143Y138612D03*
X116111Y140581D03*
X112174Y130738D03*
Y138612D03*
Y132706D03*
Y140581D03*
X114143D03*
X118080Y136644D03*
Y130738D03*
X116111Y132706D03*
X118080D03*
X116111Y130738D03*
X118080Y134675D03*
Y128770D03*
X116111D03*
Y136644D03*
X118080Y138612D03*
X161823Y102231D03*
Y104199D03*
Y106168D03*
Y108136D03*
Y110105D03*
Y112073D03*
Y114042D03*
Y116010D03*
Y117979D03*
Y119947D03*
Y121916D03*
Y123884D03*
Y125853D03*
Y127821D03*
X179539Y102231D03*
X177571D03*
X175602D03*
X173634D03*
X171665D03*
X169697D03*
X167728D03*
X165760D03*
X163791D03*
X179539Y104199D03*
X177571D03*
X175602D03*
X173634D03*
X171665D03*
X169697D03*
X167728D03*
X165760D03*
X163791D03*
X179539Y106168D03*
X177571D03*
X175602D03*
X173634D03*
X171665D03*
X169697D03*
X167728D03*
X165760D03*
X163791D03*
X165760Y108136D03*
X163791D03*
X179539Y110105D03*
X177571D03*
X175602D03*
X173634D03*
X171665D03*
X169697D03*
X165760D03*
X163791D03*
X179539Y112073D03*
X169697D03*
X165760D03*
X163791D03*
X179539Y114042D03*
X169697D03*
X165760D03*
X163791D03*
X179539Y116010D03*
X169697D03*
X165760D03*
X163791D03*
X179539Y117979D03*
X169697D03*
X165760D03*
X163791D03*
X179539Y119947D03*
X177571D03*
X175602D03*
X173634D03*
X171665D03*
X169697D03*
X165760D03*
X163791D03*
X167728Y121916D03*
X165760D03*
X163791D03*
X179539Y123884D03*
X177571D03*
X175602D03*
X173634D03*
X171665D03*
X169697D03*
X167728D03*
X165760D03*
X163791D03*
X179539Y125853D03*
X177571D03*
X175602D03*
X173634D03*
X171665D03*
X169697D03*
X167728D03*
X165760D03*
X163791D03*
X179539Y127821D03*
X177571D03*
X175602D03*
X173634D03*
X171665D03*
X169697D03*
X167728D03*
X165760D03*
X163791D03*
X187413Y102231D03*
X185445D03*
X183476D03*
X181508D03*
X187413Y104199D03*
X185445D03*
X183476D03*
X181508D03*
X187413Y106168D03*
X185445D03*
X183476D03*
X181508D03*
X187413Y108136D03*
X185445D03*
X183476D03*
X187413Y110105D03*
X185445D03*
X183476D03*
X187413Y112073D03*
X185445D03*
X183476D03*
X187413Y114042D03*
X185445D03*
X183476D03*
X187413Y116010D03*
X185445D03*
X183476D03*
X187413Y117979D03*
X185445D03*
X183476D03*
X187413Y119947D03*
X185445D03*
X183476D03*
X187413Y121916D03*
X185445D03*
X183476D03*
X187413Y123884D03*
X185445D03*
X183476D03*
X181508D03*
X187413Y125853D03*
X185445D03*
X183476D03*
X181508D03*
X187413Y127821D03*
X185445D03*
X183476D03*
X181508D03*
G54D14*
X31984Y16374D03*
Y19326D03*
X35682Y16374D03*
Y19326D03*
X55489Y23073D03*
Y26025D03*
X58989Y23073D03*
Y26025D03*
X132728Y145182D03*
Y148134D03*
X173432Y158764D03*
Y161716D03*
X172989Y150430D03*
Y153382D03*
X190000Y37576D03*
Y34624D03*
G54D32*
X185300Y31000D03*
G54D23*
X82502Y11600D03*
X78502D03*
X82502Y19800D03*
X78502D03*
X118989Y33490D03*
X114989D03*
X118600Y185900D03*
Y189900D03*
X131901Y165257D03*
X135901D03*
X159100Y58800D03*
X159200Y50900D03*
X159100Y54900D03*
Y66500D03*
X159200Y62800D03*
X151890Y160217D03*
X147890D03*
X163100Y58800D03*
X163200Y50900D03*
X163100Y54900D03*
Y66500D03*
X163200Y62800D03*
G54D24*
X138285Y142951D03*
X144585D03*
X138285Y151613D03*
X144585D03*
G54D15*
X29498Y8793D03*
X26546D03*
X69013Y66850D03*
X71965D03*
X69013Y70350D03*
X71965D03*
Y63350D03*
X69013D03*
X192976Y41100D03*
X190024D03*
X192976Y31000D03*
X190024D03*
G54D33*
X188877Y53323D03*
G54D34*
G01X-100138Y-167478D02*
Y-67478D01*
X299862D01*
G01D02*
Y-167478D01*
X-100138D01*
G54D25*
X160700Y76317D03*
Y70883D03*
G54D16*
X39825Y13161D03*
Y15263D03*
X48268Y25050D03*
X50370D03*
X75300Y19000D03*
Y16898D03*
X58667Y13161D03*
Y15263D03*
X66085Y186282D03*
Y184180D03*
X61785Y186282D03*
Y184180D03*
X74585Y186282D03*
Y184180D03*
X70289Y186282D03*
Y184180D03*
X91460Y186282D03*
Y184180D03*
X87159Y186282D03*
Y184180D03*
X82918Y186282D03*
Y184180D03*
X78761Y186282D03*
Y184180D03*
X126104Y159605D03*
X126138Y163990D03*
X122400Y188951D03*
Y186849D03*
X132730Y139651D03*
Y141753D03*
X128206Y159605D03*
X132668Y153775D03*
Y151673D03*
X128240Y163990D03*
X148112Y109227D03*
X149536Y123371D03*
Y125473D03*
X148112Y111329D03*
X158474Y171976D03*
Y174078D03*
X169210Y159189D03*
Y161291D03*
X168983Y176627D03*
Y174525D03*
G54D35*
G01X-4Y9993D02*
G03X9996Y-7I10000J0D01*
G01X189996D01*
G03X199996Y9993I0J10000D01*
G01Y189993D01*
G03X189996Y199993I-10000J0D01*
G01X9996D01*
G03X-4Y189993I0J-10000D01*
G01Y9993D01*
G54D26*
X163029Y170523D03*
Y176625D03*
G54D17*
X29633Y29777D03*
X31208D03*
X32782D03*
X34357D03*
X35932D03*
X37507D03*
X39082D03*
X40656D03*
Y56469D03*
X39082D03*
X37507D03*
X35932D03*
X34357D03*
X32782D03*
X31208D03*
X29633D03*
X42231Y29777D03*
X43806D03*
X45381D03*
X46956D03*
X48530D03*
X50105D03*
Y56469D03*
X48530D03*
X46956D03*
X45381D03*
X43806D03*
X42231D03*
G54D36*
G01X-97260Y-164561D02*
X-96712Y-164456D01*
X-96085Y-164141D01*
X-95693Y-163616D01*
X-95537Y-162881D01*
X-95693Y-162146D01*
X-96163Y-161516D01*
X-96868Y-161201D01*
X-97652D01*
X-98122Y-160991D01*
X-98513Y-160466D01*
X-98670Y-159731D01*
X-98435Y-158996D01*
X-97887Y-158471D01*
X-97260Y-158261D01*
X-96633Y-158471D01*
X-96085Y-158996D01*
X-95850Y-159731D01*
X-96007Y-160466D01*
X-96398Y-160991D01*
X-96868Y-161201D01*
X-97652D01*
X-98357Y-161516D01*
X-98827Y-162146D01*
X-98983Y-162881D01*
X-98827Y-163616D01*
X-98435Y-164141D01*
X-97808Y-164456D01*
X-97260Y-164561D01*
G01X-78360D02*
X-78987Y-164456D01*
X-79535Y-164036D01*
X-80005Y-163406D01*
X-80318Y-162671D01*
X-80475Y-161831D01*
Y-160991D01*
X-80318Y-160151D01*
X-80005Y-159416D01*
X-79535Y-158786D01*
X-78987Y-158366D01*
X-78360Y-158261D01*
X-77733Y-158366D01*
X-77185Y-158786D01*
X-76715Y-159416D01*
X-76402Y-160151D01*
X-76245Y-160991D01*
Y-161831D01*
X-76402Y-162671D01*
X-76715Y-163406D01*
X-77185Y-164036D01*
X-77733Y-164456D01*
X-78360Y-164561D01*
G01X-73548D02*
Y-158261D01*
X-70572D01*
G01X-71668Y-161306D02*
X-73548D01*
G01X-59460Y-164561D02*
Y-158261D01*
X-60400Y-159521D01*
G01Y-164561D02*
X-58520D01*
G01X-54648Y-159311D02*
X-54178Y-158681D01*
X-53630Y-158366D01*
X-53003Y-158261D01*
X-52220Y-158471D01*
X-51672Y-158996D01*
X-51515Y-159626D01*
X-51593Y-160256D01*
X-51907Y-160781D01*
X-53473Y-161831D01*
X-54178Y-162566D01*
X-54648Y-163616D01*
X-54805Y-164561D01*
X-51515D01*
G01X-96613Y-154945D02*
X-96146Y-155278D01*
X-95621Y-155478D01*
X-95155D01*
X-94688Y-155278D01*
X-94338Y-154945D01*
X-94163Y-154478D01*
X-94280Y-154011D01*
X-94571Y-153611D01*
X-95096Y-153345D01*
X-95796Y-153211D01*
X-96205Y-152945D01*
X-96380Y-152478D01*
X-96263Y-152011D01*
X-95971Y-151678D01*
X-95563Y-151478D01*
X-95155D01*
X-94746Y-151611D01*
X-94396Y-151945D01*
G01X-91813Y-155478D02*
Y-151478D01*
G01X-89363D02*
Y-155478D01*
G01Y-153478D02*
X-91813D01*
G01X-84621Y-155478D02*
X-86955D01*
Y-151478D01*
X-84621D01*
G01X-85555Y-153411D02*
X-86955D01*
G01X-79821Y-155478D02*
X-82155D01*
Y-151478D01*
X-79821D01*
G01X-80755Y-153411D02*
X-82155D01*
G01X-76188Y-151478D02*
Y-155478D01*
G01X-77530Y-151478D02*
X-74846D01*
G01X-88388Y-136478D02*
X-88855Y-136411D01*
X-89263Y-136145D01*
X-89613Y-135745D01*
X-89846Y-135278D01*
X-89963Y-134745D01*
Y-134211D01*
X-89846Y-133678D01*
X-89613Y-133211D01*
X-89263Y-132811D01*
X-88855Y-132545D01*
X-88388Y-132478D01*
X-87921Y-132545D01*
X-87513Y-132811D01*
X-87163Y-133211D01*
X-86930Y-133678D01*
X-86813Y-134211D01*
Y-134745D01*
X-86930Y-135278D01*
X-87163Y-135745D01*
X-87513Y-136145D01*
X-87921Y-136411D01*
X-88388Y-136478D01*
G01X-84755D02*
Y-132478D01*
X-83296D01*
X-82830Y-132678D01*
X-82538Y-132945D01*
X-82421Y-133478D01*
X-82538Y-134011D01*
X-82888Y-134345D01*
X-83296Y-134545D01*
X-84755D01*
G01X-83296D02*
X-82421Y-136478D01*
G01X-74688Y-132478D02*
X-73288D01*
G01X-73988D02*
Y-136478D01*
G01X-74688D02*
X-73288D01*
G01X-70530D02*
Y-132478D01*
X-67846Y-136478D01*
Y-132478D01*
G01X-60755Y-136478D02*
Y-132478D01*
X-59355D01*
X-58888Y-132678D01*
X-58538Y-133145D01*
X-58421Y-133678D01*
X-58538Y-134211D01*
X-58830Y-134611D01*
X-59355Y-134811D01*
X-60755D01*
G01X-56246Y-136478D02*
X-54788Y-132478D01*
X-53330Y-136478D01*
G01X-53855Y-135078D02*
X-55721D01*
G01X-51155Y-136478D02*
Y-132478D01*
X-49696D01*
X-49230Y-132678D01*
X-48938Y-132945D01*
X-48821Y-133478D01*
X-48938Y-134011D01*
X-49288Y-134345D01*
X-49696Y-134545D01*
X-51155D01*
G01X-49696D02*
X-48821Y-136478D01*
G01X-45188Y-132478D02*
Y-136478D01*
G01X-46530Y-132478D02*
X-43846D01*
G01X-37338D02*
X-36521Y-136478D01*
X-35588Y-132478D01*
X-34655Y-136478D01*
X-33838Y-132478D01*
G01X-31488D02*
X-30088D01*
G01X-30788D02*
Y-136478D01*
G01X-31488D02*
X-30088D01*
G01X-25988Y-132478D02*
Y-136478D01*
G01X-27330Y-132478D02*
X-24646D01*
G01X-22413Y-136478D02*
Y-132478D01*
G01X-19963D02*
Y-136478D01*
G01Y-134478D02*
X-22413D01*
G01X-16388Y-136478D02*
X-16855Y-136411D01*
X-17263Y-136145D01*
X-17613Y-135745D01*
X-17846Y-135278D01*
X-17963Y-134745D01*
Y-134211D01*
X-17846Y-133678D01*
X-17613Y-133211D01*
X-17263Y-132811D01*
X-16855Y-132545D01*
X-16388Y-132478D01*
X-15921Y-132545D01*
X-15513Y-132811D01*
X-15163Y-133211D01*
X-14930Y-133678D01*
X-14813Y-134211D01*
Y-134745D01*
X-14930Y-135278D01*
X-15163Y-135745D01*
X-15513Y-136145D01*
X-15921Y-136411D01*
X-16388Y-136478D01*
G01X-12871Y-132478D02*
Y-135345D01*
X-12638Y-135945D01*
X-12171Y-136345D01*
X-11588Y-136478D01*
X-11005Y-136345D01*
X-10538Y-135945D01*
X-10305Y-135345D01*
Y-132478D01*
G01X-6788D02*
Y-136478D01*
G01X-8130Y-132478D02*
X-5446D01*
G01X2812D02*
Y-136478D01*
G01X1470Y-132478D02*
X4154D01*
G01X6387Y-136478D02*
Y-132478D01*
G01X8837D02*
Y-136478D01*
G01Y-134478D02*
X6387D01*
G01X13579Y-136478D02*
X11245D01*
Y-132478D01*
X13579D01*
G01X12645Y-134411D02*
X11245D01*
G01X23295Y-132811D02*
X22945Y-132611D01*
X22537Y-132478D01*
X22070D01*
X21545Y-132678D01*
X21137Y-133011D01*
X20845Y-133411D01*
X20612Y-134078D01*
X20554Y-134678D01*
X20670Y-135278D01*
X20845Y-135678D01*
X21195Y-136078D01*
X21604Y-136345D01*
X22012Y-136478D01*
X22420D01*
X22829Y-136345D01*
X23179Y-136145D01*
X23470Y-135878D01*
G01X26812Y-136478D02*
X26345Y-136411D01*
X25937Y-136145D01*
X25587Y-135745D01*
X25354Y-135278D01*
X25237Y-134745D01*
Y-134211D01*
X25354Y-133678D01*
X25587Y-133211D01*
X25937Y-132811D01*
X26345Y-132545D01*
X26812Y-132478D01*
X27279Y-132545D01*
X27687Y-132811D01*
X28037Y-133211D01*
X28270Y-133678D01*
X28387Y-134211D01*
Y-134745D01*
X28270Y-135278D01*
X28037Y-135745D01*
X27687Y-136145D01*
X27279Y-136411D01*
X26812Y-136478D01*
G01X30270D02*
Y-132478D01*
X32954Y-136478D01*
Y-132478D01*
G01X35187Y-135945D02*
X35654Y-136278D01*
X36179Y-136478D01*
X36645D01*
X37112Y-136278D01*
X37462Y-135945D01*
X37637Y-135478D01*
X37520Y-135011D01*
X37229Y-134611D01*
X36704Y-134345D01*
X36004Y-134211D01*
X35595Y-133945D01*
X35420Y-133478D01*
X35537Y-133011D01*
X35829Y-132678D01*
X36237Y-132478D01*
X36645D01*
X37054Y-132611D01*
X37404Y-132945D01*
G01X42379Y-136478D02*
X40045D01*
Y-132478D01*
X42379D01*
G01X41445Y-134411D02*
X40045D01*
G01X44670Y-136478D02*
Y-132478D01*
X47354Y-136478D01*
Y-132478D01*
G01X50812D02*
Y-136478D01*
G01X49470Y-132478D02*
X52154D01*
G01X60412Y-136478D02*
X59945Y-136411D01*
X59537Y-136145D01*
X59187Y-135745D01*
X58954Y-135278D01*
X58837Y-134745D01*
Y-134211D01*
X58954Y-133678D01*
X59187Y-133211D01*
X59537Y-132811D01*
X59945Y-132545D01*
X60412Y-132478D01*
X60879Y-132545D01*
X61287Y-132811D01*
X61637Y-133211D01*
X61870Y-133678D01*
X61987Y-134211D01*
Y-134745D01*
X61870Y-135278D01*
X61637Y-135745D01*
X61287Y-136145D01*
X60879Y-136411D01*
X60412Y-136478D01*
G01X64104D02*
Y-132478D01*
X66320D01*
G01X65504Y-134411D02*
X64104D01*
G01X-88730Y-144478D02*
Y-140478D01*
X-86046Y-144478D01*
Y-140478D01*
G01X-83813Y-144478D02*
X-81363Y-140478D01*
G01X-83813D02*
X-81363Y-144478D01*
G01X-78955D02*
Y-140478D01*
X-77555D01*
X-77088Y-140678D01*
X-76738Y-141145D01*
X-76621Y-141678D01*
X-76738Y-142211D01*
X-77030Y-142611D01*
X-77555Y-142811D01*
X-78955D01*
G01X-72988Y-144611D02*
X-73105Y-144545D01*
Y-144411D01*
X-72988Y-144345D01*
X-72871Y-144411D01*
Y-144545D01*
X-72988Y-144611D01*
G01X-87921Y-118345D02*
X-87688Y-118145D01*
X-87513Y-117811D01*
X-87396Y-117345D01*
X-87513Y-116945D01*
X-87746Y-116678D01*
X-88155Y-116478D01*
X-89730D01*
Y-120478D01*
X-87805D01*
X-87396Y-120211D01*
X-87163Y-119811D01*
X-87046Y-119345D01*
X-87163Y-118878D01*
X-87513Y-118478D01*
X-87921Y-118345D01*
X-89730D01*
G01X-82421Y-120478D02*
X-84755D01*
Y-116478D01*
X-82421D01*
G01X-83355Y-118411D02*
X-84755D01*
G01X-75271Y-116478D02*
Y-119345D01*
X-75038Y-119945D01*
X-74571Y-120345D01*
X-73988Y-120478D01*
X-73405Y-120345D01*
X-72938Y-119945D01*
X-72705Y-119345D01*
Y-116478D01*
G01X-70413Y-119945D02*
X-69946Y-120278D01*
X-69421Y-120478D01*
X-68955D01*
X-68488Y-120278D01*
X-68138Y-119945D01*
X-67963Y-119478D01*
X-68080Y-119011D01*
X-68371Y-118611D01*
X-68896Y-118345D01*
X-69596Y-118211D01*
X-70005Y-117945D01*
X-70180Y-117478D01*
X-70063Y-117011D01*
X-69771Y-116678D01*
X-69363Y-116478D01*
X-68955D01*
X-68546Y-116611D01*
X-68196Y-116945D01*
G01X-63221Y-120478D02*
X-65555D01*
Y-116478D01*
X-63221D01*
G01X-64155Y-118411D02*
X-65555D01*
G01X-60871Y-120478D02*
Y-116478D01*
X-59705D01*
X-59238Y-116678D01*
X-58888Y-116945D01*
X-58596Y-117345D01*
X-58363Y-117811D01*
X-58305Y-118478D01*
X-58363Y-119145D01*
X-58596Y-119611D01*
X-58888Y-120011D01*
X-59238Y-120278D01*
X-59705Y-120478D01*
X-60871D01*
G01X-51096D02*
Y-116478D01*
X-48880D01*
G01X-49696Y-118411D02*
X-51096D01*
G01X-45188Y-120478D02*
X-45655Y-120411D01*
X-46063Y-120145D01*
X-46413Y-119745D01*
X-46646Y-119278D01*
X-46763Y-118745D01*
Y-118211D01*
X-46646Y-117678D01*
X-46413Y-117211D01*
X-46063Y-116811D01*
X-45655Y-116545D01*
X-45188Y-116478D01*
X-44721Y-116545D01*
X-44313Y-116811D01*
X-43963Y-117211D01*
X-43730Y-117678D01*
X-43613Y-118211D01*
Y-118745D01*
X-43730Y-119278D01*
X-43963Y-119745D01*
X-44313Y-120145D01*
X-44721Y-120411D01*
X-45188Y-120478D01*
G01X-41555D02*
Y-116478D01*
X-40096D01*
X-39630Y-116678D01*
X-39338Y-116945D01*
X-39221Y-117478D01*
X-39338Y-118011D01*
X-39688Y-118345D01*
X-40096Y-118545D01*
X-41555D01*
G01X-40096D02*
X-39221Y-120478D01*
G01X-29621D02*
X-31955D01*
Y-116478D01*
X-29621D01*
G01X-30555Y-118411D02*
X-31955D01*
G01X-27330Y-120478D02*
Y-116478D01*
X-24646Y-120478D01*
Y-116478D01*
G01X-20838Y-118478D02*
X-19671D01*
Y-119678D01*
X-20021Y-120078D01*
X-20430Y-120345D01*
X-21013Y-120478D01*
X-21596Y-120345D01*
X-22005Y-120078D01*
X-22355Y-119678D01*
X-22588Y-119211D01*
X-22705Y-118678D01*
Y-118211D01*
X-22588Y-117811D01*
X-22355Y-117345D01*
X-22005Y-116945D01*
X-21655Y-116678D01*
X-21188Y-116478D01*
X-20780D01*
X-20313Y-116611D01*
X-19963Y-116878D01*
G01X-17088Y-116478D02*
X-15688D01*
G01X-16388D02*
Y-120478D01*
G01X-17088D02*
X-15688D01*
G01X-12930D02*
Y-116478D01*
X-10246Y-120478D01*
Y-116478D01*
G01X-5621Y-120478D02*
X-7955D01*
Y-116478D01*
X-5621D01*
G01X-6555Y-118411D02*
X-7955D01*
G01X-821Y-120478D02*
X-3155D01*
Y-116478D01*
X-821D01*
G01X-1755Y-118411D02*
X-3155D01*
G01X1645Y-120478D02*
Y-116478D01*
X3104D01*
X3570Y-116678D01*
X3862Y-116945D01*
X3979Y-117478D01*
X3862Y-118011D01*
X3512Y-118345D01*
X3104Y-118545D01*
X1645D01*
G01X3104D02*
X3979Y-120478D01*
G01X6912Y-116478D02*
X8312D01*
G01X7612D02*
Y-120478D01*
G01X6912D02*
X8312D01*
G01X11070D02*
Y-116478D01*
X13754Y-120478D01*
Y-116478D01*
G01X17562Y-118478D02*
X18729D01*
Y-119678D01*
X18379Y-120078D01*
X17970Y-120345D01*
X17387Y-120478D01*
X16804Y-120345D01*
X16395Y-120078D01*
X16045Y-119678D01*
X15812Y-119211D01*
X15695Y-118678D01*
Y-118211D01*
X15812Y-117811D01*
X16045Y-117345D01*
X16395Y-116945D01*
X16745Y-116678D01*
X17212Y-116478D01*
X17620D01*
X18087Y-116611D01*
X18437Y-116878D01*
G01X25529Y-120478D02*
Y-116478D01*
X26695D01*
X27162Y-116678D01*
X27512Y-116945D01*
X27804Y-117345D01*
X28037Y-117811D01*
X28095Y-118478D01*
X28037Y-119145D01*
X27804Y-119611D01*
X27512Y-120011D01*
X27162Y-120278D01*
X26695Y-120478D01*
X25529D01*
G01X32779D02*
X30445D01*
Y-116478D01*
X32779D01*
G01X31845Y-118411D02*
X30445D01*
G01X35187Y-119945D02*
X35654Y-120278D01*
X36179Y-120478D01*
X36645D01*
X37112Y-120278D01*
X37462Y-119945D01*
X37637Y-119478D01*
X37520Y-119011D01*
X37229Y-118611D01*
X36704Y-118345D01*
X36004Y-118211D01*
X35595Y-117945D01*
X35420Y-117478D01*
X35537Y-117011D01*
X35829Y-116678D01*
X36237Y-116478D01*
X36645D01*
X37054Y-116611D01*
X37404Y-116945D01*
G01X40512Y-116478D02*
X41912D01*
G01X41212D02*
Y-120478D01*
G01X40512D02*
X41912D01*
G01X46362Y-118478D02*
X47529D01*
Y-119678D01*
X47179Y-120078D01*
X46770Y-120345D01*
X46187Y-120478D01*
X45604Y-120345D01*
X45195Y-120078D01*
X44845Y-119678D01*
X44612Y-119211D01*
X44495Y-118678D01*
Y-118211D01*
X44612Y-117811D01*
X44845Y-117345D01*
X45195Y-116945D01*
X45545Y-116678D01*
X46012Y-116478D01*
X46420D01*
X46887Y-116611D01*
X47237Y-116878D01*
G01X49470Y-120478D02*
Y-116478D01*
X52154Y-120478D01*
Y-116478D01*
G01X-89555Y-128478D02*
Y-124478D01*
X-88155D01*
X-87688Y-124678D01*
X-87338Y-125145D01*
X-87221Y-125678D01*
X-87338Y-126211D01*
X-87630Y-126611D01*
X-88155Y-126811D01*
X-89555D01*
G01X-84755Y-128478D02*
Y-124478D01*
X-83296D01*
X-82830Y-124678D01*
X-82538Y-124945D01*
X-82421Y-125478D01*
X-82538Y-126011D01*
X-82888Y-126345D01*
X-83296Y-126545D01*
X-84755D01*
G01X-83296D02*
X-82421Y-128478D01*
G01X-78788D02*
X-79255Y-128411D01*
X-79663Y-128145D01*
X-80013Y-127745D01*
X-80246Y-127278D01*
X-80363Y-126745D01*
Y-126211D01*
X-80246Y-125678D01*
X-80013Y-125211D01*
X-79663Y-124811D01*
X-79255Y-124545D01*
X-78788Y-124478D01*
X-78321Y-124545D01*
X-77913Y-124811D01*
X-77563Y-125211D01*
X-77330Y-125678D01*
X-77213Y-126211D01*
Y-126745D01*
X-77330Y-127278D01*
X-77563Y-127745D01*
X-77913Y-128145D01*
X-78321Y-128411D01*
X-78788Y-128478D01*
G01X-72705Y-124811D02*
X-73055Y-124611D01*
X-73463Y-124478D01*
X-73930D01*
X-74455Y-124678D01*
X-74863Y-125011D01*
X-75155Y-125411D01*
X-75388Y-126078D01*
X-75446Y-126678D01*
X-75330Y-127278D01*
X-75155Y-127678D01*
X-74805Y-128078D01*
X-74396Y-128345D01*
X-73988Y-128478D01*
X-73580D01*
X-73171Y-128345D01*
X-72821Y-128145D01*
X-72530Y-127878D01*
G01X-70471Y-124478D02*
Y-127345D01*
X-70238Y-127945D01*
X-69771Y-128345D01*
X-69188Y-128478D01*
X-68605Y-128345D01*
X-68138Y-127945D01*
X-67905Y-127345D01*
Y-124478D01*
G01X-65555Y-128478D02*
Y-124478D01*
X-64096D01*
X-63630Y-124678D01*
X-63338Y-124945D01*
X-63221Y-125478D01*
X-63338Y-126011D01*
X-63688Y-126345D01*
X-64096Y-126545D01*
X-65555D01*
G01X-64096D02*
X-63221Y-128478D01*
G01X-58421D02*
X-60755D01*
Y-124478D01*
X-58421D01*
G01X-59355Y-126411D02*
X-60755D01*
G01X-56305Y-128478D02*
Y-124478D01*
X-54788Y-127811D01*
X-53271Y-124478D01*
Y-128478D01*
G01X-48821D02*
X-51155D01*
Y-124478D01*
X-48821D01*
G01X-49755Y-126411D02*
X-51155D01*
G01X-46530Y-128478D02*
Y-124478D01*
X-43846Y-128478D01*
Y-124478D01*
G01X-40388D02*
Y-128478D01*
G01X-41730Y-124478D02*
X-39046D01*
G01X-30788Y-128478D02*
X-31255Y-128411D01*
X-31663Y-128145D01*
X-32013Y-127745D01*
X-32246Y-127278D01*
X-32363Y-126745D01*
Y-126211D01*
X-32246Y-125678D01*
X-32013Y-125211D01*
X-31663Y-124811D01*
X-31255Y-124545D01*
X-30788Y-124478D01*
X-30321Y-124545D01*
X-29913Y-124811D01*
X-29563Y-125211D01*
X-29330Y-125678D01*
X-29213Y-126211D01*
Y-126745D01*
X-29330Y-127278D01*
X-29563Y-127745D01*
X-29913Y-128145D01*
X-30321Y-128411D01*
X-30788Y-128478D01*
G01X-27155D02*
Y-124478D01*
X-25696D01*
X-25230Y-124678D01*
X-24938Y-124945D01*
X-24821Y-125478D01*
X-24938Y-126011D01*
X-25288Y-126345D01*
X-25696Y-126545D01*
X-27155D01*
G01X-25696D02*
X-24821Y-128478D01*
G01X-17905D02*
Y-124478D01*
X-16388Y-127811D01*
X-14871Y-124478D01*
Y-128478D01*
G01X-13046D02*
X-11588Y-124478D01*
X-10130Y-128478D01*
G01X-10655Y-127078D02*
X-12521D01*
G01X-8130Y-128478D02*
Y-124478D01*
X-5446Y-128478D01*
Y-124478D01*
G01X-3271D02*
Y-127345D01*
X-3038Y-127945D01*
X-2571Y-128345D01*
X-1988Y-128478D01*
X-1405Y-128345D01*
X-938Y-127945D01*
X-705Y-127345D01*
Y-124478D01*
G01X1704Y-128478D02*
Y-124478D01*
X3920D01*
G01X3104Y-126411D02*
X1704D01*
G01X6154Y-128478D02*
X7612Y-124478D01*
X9070Y-128478D01*
G01X8545Y-127078D02*
X6679D01*
G01X13695Y-124811D02*
X13345Y-124611D01*
X12937Y-124478D01*
X12470D01*
X11945Y-124678D01*
X11537Y-125011D01*
X11245Y-125411D01*
X11012Y-126078D01*
X10954Y-126678D01*
X11070Y-127278D01*
X11245Y-127678D01*
X11595Y-128078D01*
X12004Y-128345D01*
X12412Y-128478D01*
X12820D01*
X13229Y-128345D01*
X13579Y-128145D01*
X13870Y-127878D01*
G01X17212Y-124478D02*
Y-128478D01*
G01X15870Y-124478D02*
X18554D01*
G01X20729D02*
Y-127345D01*
X20962Y-127945D01*
X21429Y-128345D01*
X22012Y-128478D01*
X22595Y-128345D01*
X23062Y-127945D01*
X23295Y-127345D01*
Y-124478D01*
G01X25645Y-128478D02*
Y-124478D01*
X27104D01*
X27570Y-124678D01*
X27862Y-124945D01*
X27979Y-125478D01*
X27862Y-126011D01*
X27512Y-126345D01*
X27104Y-126545D01*
X25645D01*
G01X27104D02*
X27979Y-128478D01*
G01X32779D02*
X30445D01*
Y-124478D01*
X32779D01*
G01X31845Y-126411D02*
X30445D01*
G01X40512Y-124478D02*
X41912D01*
G01X41212D02*
Y-128478D01*
G01X40512D02*
X41912D01*
G01X44670D02*
Y-124478D01*
X47354Y-128478D01*
Y-124478D01*
G01X53862D02*
X54679Y-128478D01*
X55612Y-124478D01*
X56545Y-128478D01*
X57362Y-124478D01*
G01X59187Y-128478D02*
Y-124478D01*
G01X61637D02*
Y-128478D01*
G01Y-126478D02*
X59187D01*
G01X65212Y-128478D02*
X64745Y-128411D01*
X64337Y-128145D01*
X63987Y-127745D01*
X63754Y-127278D01*
X63637Y-126745D01*
Y-126211D01*
X63754Y-125678D01*
X63987Y-125211D01*
X64337Y-124811D01*
X64745Y-124545D01*
X65212Y-124478D01*
X65679Y-124545D01*
X66087Y-124811D01*
X66437Y-125211D01*
X66670Y-125678D01*
X66787Y-126211D01*
Y-126745D01*
X66670Y-127278D01*
X66437Y-127745D01*
X66087Y-128145D01*
X65679Y-128411D01*
X65212Y-128478D01*
G01X68845Y-124478D02*
Y-128478D01*
X71179D01*
G01X75979D02*
X73645D01*
Y-124478D01*
X75979D01*
G01X75045Y-126411D02*
X73645D01*
G01X-89388Y-100478D02*
Y-104478D01*
G01X-90730Y-100478D02*
X-88046D01*
G01X-85813Y-104478D02*
Y-100478D01*
G01X-83363D02*
Y-104478D01*
G01Y-102478D02*
X-85813D01*
G01X-80488Y-100478D02*
X-79088D01*
G01X-79788D02*
Y-104478D01*
G01X-80488D02*
X-79088D01*
G01X-76213Y-103945D02*
X-75746Y-104278D01*
X-75221Y-104478D01*
X-74755D01*
X-74288Y-104278D01*
X-73938Y-103945D01*
X-73763Y-103478D01*
X-73880Y-103011D01*
X-74171Y-102611D01*
X-74696Y-102345D01*
X-75396Y-102211D01*
X-75805Y-101945D01*
X-75980Y-101478D01*
X-75863Y-101011D01*
X-75571Y-100678D01*
X-75163Y-100478D01*
X-74755D01*
X-74346Y-100611D01*
X-73996Y-100945D01*
G01X-66671Y-104478D02*
Y-100478D01*
X-65505D01*
X-65038Y-100678D01*
X-64688Y-100945D01*
X-64396Y-101345D01*
X-64163Y-101811D01*
X-64105Y-102478D01*
X-64163Y-103145D01*
X-64396Y-103611D01*
X-64688Y-104011D01*
X-65038Y-104278D01*
X-65505Y-104478D01*
X-66671D01*
G01X-60588D02*
X-61055Y-104411D01*
X-61463Y-104145D01*
X-61813Y-103745D01*
X-62046Y-103278D01*
X-62163Y-102745D01*
Y-102211D01*
X-62046Y-101678D01*
X-61813Y-101211D01*
X-61463Y-100811D01*
X-61055Y-100545D01*
X-60588Y-100478D01*
X-60121Y-100545D01*
X-59713Y-100811D01*
X-59363Y-101211D01*
X-59130Y-101678D01*
X-59013Y-102211D01*
Y-102745D01*
X-59130Y-103278D01*
X-59363Y-103745D01*
X-59713Y-104145D01*
X-60121Y-104411D01*
X-60588Y-104478D01*
G01X-54505Y-100811D02*
X-54855Y-100611D01*
X-55263Y-100478D01*
X-55730D01*
X-56255Y-100678D01*
X-56663Y-101011D01*
X-56955Y-101411D01*
X-57188Y-102078D01*
X-57246Y-102678D01*
X-57130Y-103278D01*
X-56955Y-103678D01*
X-56605Y-104078D01*
X-56196Y-104345D01*
X-55788Y-104478D01*
X-55380D01*
X-54971Y-104345D01*
X-54621Y-104145D01*
X-54330Y-103878D01*
G01X-52271Y-100478D02*
Y-103345D01*
X-52038Y-103945D01*
X-51571Y-104345D01*
X-50988Y-104478D01*
X-50405Y-104345D01*
X-49938Y-103945D01*
X-49705Y-103345D01*
Y-100478D01*
G01X-47705Y-104478D02*
Y-100478D01*
X-46188Y-103811D01*
X-44671Y-100478D01*
Y-104478D01*
G01X-40221D02*
X-42555D01*
Y-100478D01*
X-40221D01*
G01X-41155Y-102411D02*
X-42555D01*
G01X-37930Y-104478D02*
Y-100478D01*
X-35246Y-104478D01*
Y-100478D01*
G01X-31788D02*
Y-104478D01*
G01X-33130Y-100478D02*
X-30446D01*
G01X-20905Y-100811D02*
X-21255Y-100611D01*
X-21663Y-100478D01*
X-22130D01*
X-22655Y-100678D01*
X-23063Y-101011D01*
X-23355Y-101411D01*
X-23588Y-102078D01*
X-23646Y-102678D01*
X-23530Y-103278D01*
X-23355Y-103678D01*
X-23005Y-104078D01*
X-22596Y-104345D01*
X-22188Y-104478D01*
X-21780D01*
X-21371Y-104345D01*
X-21021Y-104145D01*
X-20730Y-103878D01*
G01X-17388Y-104478D02*
X-17855Y-104411D01*
X-18263Y-104145D01*
X-18613Y-103745D01*
X-18846Y-103278D01*
X-18963Y-102745D01*
Y-102211D01*
X-18846Y-101678D01*
X-18613Y-101211D01*
X-18263Y-100811D01*
X-17855Y-100545D01*
X-17388Y-100478D01*
X-16921Y-100545D01*
X-16513Y-100811D01*
X-16163Y-101211D01*
X-15930Y-101678D01*
X-15813Y-102211D01*
Y-102745D01*
X-15930Y-103278D01*
X-16163Y-103745D01*
X-16513Y-104145D01*
X-16921Y-104411D01*
X-17388Y-104478D01*
G01X-13930D02*
Y-100478D01*
X-11246Y-104478D01*
Y-100478D01*
G01X-7788D02*
Y-104478D01*
G01X-9130Y-100478D02*
X-6446D01*
G01X-4446Y-104478D02*
X-2988Y-100478D01*
X-1530Y-104478D01*
G01X-2055Y-103078D02*
X-3921D01*
G01X1112Y-100478D02*
X2512D01*
G01X1812D02*
Y-104478D01*
G01X1112D02*
X2512D01*
G01X5270D02*
Y-100478D01*
X7954Y-104478D01*
Y-100478D01*
G01X10187Y-103945D02*
X10654Y-104278D01*
X11179Y-104478D01*
X11645D01*
X12112Y-104278D01*
X12462Y-103945D01*
X12637Y-103478D01*
X12520Y-103011D01*
X12229Y-102611D01*
X11704Y-102345D01*
X11004Y-102211D01*
X10595Y-101945D01*
X10420Y-101478D01*
X10537Y-101011D01*
X10829Y-100678D01*
X11237Y-100478D01*
X11645D01*
X12054Y-100611D01*
X12404Y-100945D01*
G01X20312Y-100478D02*
X21712D01*
G01X21012D02*
Y-104478D01*
G01X20312D02*
X21712D01*
G01X24470D02*
Y-100478D01*
X27154Y-104478D01*
Y-100478D01*
G01X29504Y-104478D02*
Y-100478D01*
X31720D01*
G01X30904Y-102411D02*
X29504D01*
G01X35412Y-104478D02*
X34945Y-104411D01*
X34537Y-104145D01*
X34187Y-103745D01*
X33954Y-103278D01*
X33837Y-102745D01*
Y-102211D01*
X33954Y-101678D01*
X34187Y-101211D01*
X34537Y-100811D01*
X34945Y-100545D01*
X35412Y-100478D01*
X35879Y-100545D01*
X36287Y-100811D01*
X36637Y-101211D01*
X36870Y-101678D01*
X36987Y-102211D01*
Y-102745D01*
X36870Y-103278D01*
X36637Y-103745D01*
X36287Y-104145D01*
X35879Y-104411D01*
X35412Y-104478D01*
G01X39045D02*
Y-100478D01*
X40504D01*
X40970Y-100678D01*
X41262Y-100945D01*
X41379Y-101478D01*
X41262Y-102011D01*
X40912Y-102345D01*
X40504Y-102545D01*
X39045D01*
G01X40504D02*
X41379Y-104478D01*
G01X43495D02*
Y-100478D01*
X45012Y-103811D01*
X46529Y-100478D01*
Y-104478D01*
G01X48354D02*
X49812Y-100478D01*
X51270Y-104478D01*
G01X50745Y-103078D02*
X48879D01*
G01X54612Y-100478D02*
Y-104478D01*
G01X53270Y-100478D02*
X55954D01*
G01X58712D02*
X60112D01*
G01X59412D02*
Y-104478D01*
G01X58712D02*
X60112D01*
G01X64212D02*
X63745Y-104411D01*
X63337Y-104145D01*
X62987Y-103745D01*
X62754Y-103278D01*
X62637Y-102745D01*
Y-102211D01*
X62754Y-101678D01*
X62987Y-101211D01*
X63337Y-100811D01*
X63745Y-100545D01*
X64212Y-100478D01*
X64679Y-100545D01*
X65087Y-100811D01*
X65437Y-101211D01*
X65670Y-101678D01*
X65787Y-102211D01*
Y-102745D01*
X65670Y-103278D01*
X65437Y-103745D01*
X65087Y-104145D01*
X64679Y-104411D01*
X64212Y-104478D01*
G01X67670D02*
Y-100478D01*
X70354Y-104478D01*
Y-100478D01*
G01X-89555Y-112478D02*
Y-108478D01*
X-88155D01*
X-87688Y-108678D01*
X-87338Y-109145D01*
X-87221Y-109678D01*
X-87338Y-110211D01*
X-87630Y-110611D01*
X-88155Y-110811D01*
X-89555D01*
G01X-84755Y-112478D02*
Y-108478D01*
X-83296D01*
X-82830Y-108678D01*
X-82538Y-108945D01*
X-82421Y-109478D01*
X-82538Y-110011D01*
X-82888Y-110345D01*
X-83296Y-110545D01*
X-84755D01*
G01X-83296D02*
X-82421Y-112478D01*
G01X-78788D02*
X-79255Y-112411D01*
X-79663Y-112145D01*
X-80013Y-111745D01*
X-80246Y-111278D01*
X-80363Y-110745D01*
Y-110211D01*
X-80246Y-109678D01*
X-80013Y-109211D01*
X-79663Y-108811D01*
X-79255Y-108545D01*
X-78788Y-108478D01*
X-78321Y-108545D01*
X-77913Y-108811D01*
X-77563Y-109211D01*
X-77330Y-109678D01*
X-77213Y-110211D01*
Y-110745D01*
X-77330Y-111278D01*
X-77563Y-111745D01*
X-77913Y-112145D01*
X-78321Y-112411D01*
X-78788Y-112478D01*
G01X-75155D02*
Y-108478D01*
X-73755D01*
X-73288Y-108678D01*
X-72938Y-109145D01*
X-72821Y-109678D01*
X-72938Y-110211D01*
X-73230Y-110611D01*
X-73755Y-110811D01*
X-75155D01*
G01X-70355Y-112478D02*
Y-108478D01*
X-68896D01*
X-68430Y-108678D01*
X-68138Y-108945D01*
X-68021Y-109478D01*
X-68138Y-110011D01*
X-68488Y-110345D01*
X-68896Y-110545D01*
X-70355D01*
G01X-68896D02*
X-68021Y-112478D01*
G01X-65088Y-108478D02*
X-63688D01*
G01X-64388D02*
Y-112478D01*
G01X-65088D02*
X-63688D01*
G01X-58421D02*
X-60755D01*
Y-108478D01*
X-58421D01*
G01X-59355Y-110411D02*
X-60755D01*
G01X-54788Y-108478D02*
Y-112478D01*
G01X-56130Y-108478D02*
X-53446D01*
G01X-51446Y-112478D02*
X-49988Y-108478D01*
X-48530Y-112478D01*
G01X-49055Y-111078D02*
X-50921D01*
G01X-46355Y-112478D02*
Y-108478D01*
X-44896D01*
X-44430Y-108678D01*
X-44138Y-108945D01*
X-44021Y-109478D01*
X-44138Y-110011D01*
X-44488Y-110345D01*
X-44896Y-110545D01*
X-46355D01*
G01X-44896D02*
X-44021Y-112478D01*
G01X-40388D02*
Y-110678D01*
X-41555Y-108478D01*
G01X-39221D02*
X-40388Y-110678D01*
G01X-30788Y-108478D02*
Y-112478D01*
G01X-32130Y-108478D02*
X-29446D01*
G01X-25988Y-112478D02*
X-26455Y-112411D01*
X-26863Y-112145D01*
X-27213Y-111745D01*
X-27446Y-111278D01*
X-27563Y-110745D01*
Y-110211D01*
X-27446Y-109678D01*
X-27213Y-109211D01*
X-26863Y-108811D01*
X-26455Y-108545D01*
X-25988Y-108478D01*
X-25521Y-108545D01*
X-25113Y-108811D01*
X-24763Y-109211D01*
X-24530Y-109678D01*
X-24413Y-110211D01*
Y-110745D01*
X-24530Y-111278D01*
X-24763Y-111745D01*
X-25113Y-112145D01*
X-25521Y-112411D01*
X-25988Y-112478D01*
G01X-17730D02*
Y-108478D01*
X-15046Y-112478D01*
Y-108478D01*
G01X-12813Y-112478D02*
X-10363Y-108478D01*
G01X-12813D02*
X-10363Y-112478D01*
G01X-7955D02*
Y-108478D01*
X-6555D01*
X-6088Y-108678D01*
X-5738Y-109145D01*
X-5621Y-109678D01*
X-5738Y-110211D01*
X-6030Y-110611D01*
X-6555Y-110811D01*
X-7955D01*
G01X1354Y-112478D02*
X2812Y-108478D01*
X4270Y-112478D01*
G01X3745Y-111078D02*
X1879D01*
G01X6270Y-112478D02*
Y-108478D01*
X8954Y-112478D01*
Y-108478D01*
G01X11129Y-112478D02*
Y-108478D01*
X12295D01*
X12762Y-108678D01*
X13112Y-108945D01*
X13404Y-109345D01*
X13637Y-109811D01*
X13695Y-110478D01*
X13637Y-111145D01*
X13404Y-111611D01*
X13112Y-112011D01*
X12762Y-112278D01*
X12295Y-112478D01*
X11129D01*
G01X20787Y-111945D02*
X21254Y-112278D01*
X21779Y-112478D01*
X22245D01*
X22712Y-112278D01*
X23062Y-111945D01*
X23237Y-111478D01*
X23120Y-111011D01*
X22829Y-110611D01*
X22304Y-110345D01*
X21604Y-110211D01*
X21195Y-109945D01*
X21020Y-109478D01*
X21137Y-109011D01*
X21429Y-108678D01*
X21837Y-108478D01*
X22245D01*
X22654Y-108611D01*
X23004Y-108945D01*
G01X25587Y-112478D02*
Y-108478D01*
G01X28037D02*
Y-112478D01*
G01Y-110478D02*
X25587D01*
G01X30154Y-112478D02*
X31612Y-108478D01*
X33070Y-112478D01*
G01X32545Y-111078D02*
X30679D01*
G01X35245Y-108478D02*
Y-112478D01*
X37579D01*
G01X40045Y-108478D02*
Y-112478D01*
X42379D01*
G01X49470D02*
Y-108478D01*
X52154Y-112478D01*
Y-108478D01*
G01X55612Y-112478D02*
X55145Y-112411D01*
X54737Y-112145D01*
X54387Y-111745D01*
X54154Y-111278D01*
X54037Y-110745D01*
Y-110211D01*
X54154Y-109678D01*
X54387Y-109211D01*
X54737Y-108811D01*
X55145Y-108545D01*
X55612Y-108478D01*
X56079Y-108545D01*
X56487Y-108811D01*
X56837Y-109211D01*
X57070Y-109678D01*
X57187Y-110211D01*
Y-110745D01*
X57070Y-111278D01*
X56837Y-111745D01*
X56487Y-112145D01*
X56079Y-112411D01*
X55612Y-112478D01*
G01X60412Y-108478D02*
Y-112478D01*
G01X59070Y-108478D02*
X61754D01*
G01X-96496Y-85811D02*
X-96088Y-85345D01*
X-95738Y-85078D01*
X-95271Y-84945D01*
X-94863Y-85078D01*
X-94571Y-85345D01*
X-94338Y-85745D01*
X-94280Y-86211D01*
X-94338Y-86611D01*
X-94571Y-87011D01*
X-94921Y-87345D01*
X-95330Y-87478D01*
X-95796Y-87345D01*
X-96205Y-86945D01*
X-96438Y-86345D01*
X-96496Y-85678D01*
X-96380Y-84811D01*
X-96205Y-84345D01*
X-95913Y-83878D01*
X-95505Y-83545D01*
X-95096Y-83478D01*
X-94688Y-83611D01*
X-94396Y-83945D01*
G01X-91871Y-86878D02*
X-91521Y-87211D01*
X-91113Y-87411D01*
X-90588Y-87478D01*
X-90063Y-87345D01*
X-89655Y-87078D01*
X-89363Y-86611D01*
X-89305Y-86078D01*
X-89421Y-85545D01*
X-89713Y-85211D01*
X-90121Y-84945D01*
X-90530Y-84878D01*
X-90938Y-84945D01*
X-91463Y-85211D01*
X-91288Y-83478D01*
X-89713D01*
G01X-85788D02*
X-86255Y-83611D01*
X-86605Y-83945D01*
X-86838Y-84345D01*
X-87013Y-84878D01*
X-87071Y-85478D01*
X-87013Y-86078D01*
X-86838Y-86611D01*
X-86605Y-87011D01*
X-86255Y-87345D01*
X-85788Y-87478D01*
X-85321Y-87345D01*
X-84971Y-87011D01*
X-84738Y-86611D01*
X-84563Y-86078D01*
X-84505Y-85478D01*
X-84563Y-84878D01*
X-84738Y-84345D01*
X-84971Y-83945D01*
X-85321Y-83611D01*
X-85788Y-83478D01*
G01X-80988Y-87478D02*
Y-83478D01*
X-81688Y-84278D01*
G01Y-87478D02*
X-80288D01*
G01X-73138Y-83478D02*
X-72321Y-87478D01*
X-71388Y-83478D01*
X-70455Y-87478D01*
X-69638Y-83478D01*
G01X-67288D02*
X-65888D01*
G01X-66588D02*
Y-87478D01*
G01X-67288D02*
X-65888D01*
G01X-62955Y-83478D02*
Y-87478D01*
X-60621D01*
G01X-58155Y-83478D02*
Y-87478D01*
X-55821D01*
G01X-52888Y-83478D02*
X-51488D01*
G01X-52188D02*
Y-87478D01*
G01X-52888D02*
X-51488D01*
G01X-48846D02*
X-47388Y-83478D01*
X-45930Y-87478D01*
G01X-46455Y-86078D02*
X-48321D01*
G01X-44105Y-87478D02*
Y-83478D01*
X-42588Y-86811D01*
X-41071Y-83478D01*
Y-87478D01*
G01X-31705Y-83811D02*
X-32055Y-83611D01*
X-32463Y-83478D01*
X-32930D01*
X-33455Y-83678D01*
X-33863Y-84011D01*
X-34155Y-84411D01*
X-34388Y-85078D01*
X-34446Y-85678D01*
X-34330Y-86278D01*
X-34155Y-86678D01*
X-33805Y-87078D01*
X-33396Y-87345D01*
X-32988Y-87478D01*
X-32580D01*
X-32171Y-87345D01*
X-31821Y-87145D01*
X-31530Y-86878D01*
G01X-29646Y-87478D02*
X-28188Y-83478D01*
X-26730Y-87478D01*
G01X-27255Y-86078D02*
X-29121D01*
G01X-24730Y-87478D02*
Y-83478D01*
X-22046Y-87478D01*
Y-83478D01*
G01X-19930Y-87478D02*
Y-83478D01*
X-17246Y-87478D01*
Y-83478D01*
G01X-13788Y-87478D02*
X-14255Y-87411D01*
X-14663Y-87145D01*
X-15013Y-86745D01*
X-15246Y-86278D01*
X-15363Y-85745D01*
Y-85211D01*
X-15246Y-84678D01*
X-15013Y-84211D01*
X-14663Y-83811D01*
X-14255Y-83545D01*
X-13788Y-83478D01*
X-13321Y-83545D01*
X-12913Y-83811D01*
X-12563Y-84211D01*
X-12330Y-84678D01*
X-12213Y-85211D01*
Y-85745D01*
X-12330Y-86278D01*
X-12563Y-86745D01*
X-12913Y-87145D01*
X-13321Y-87411D01*
X-13788Y-87478D01*
G01X-10330D02*
Y-83478D01*
X-7646Y-87478D01*
Y-83478D01*
G01X-671Y-87478D02*
Y-83478D01*
X495D01*
X962Y-83678D01*
X1312Y-83945D01*
X1604Y-84345D01*
X1837Y-84811D01*
X1895Y-85478D01*
X1837Y-86145D01*
X1604Y-86611D01*
X1312Y-87011D01*
X962Y-87278D01*
X495Y-87478D01*
X-671D01*
G01X4245D02*
Y-83478D01*
X5704D01*
X6170Y-83678D01*
X6462Y-83945D01*
X6579Y-84478D01*
X6462Y-85011D01*
X6112Y-85345D01*
X5704Y-85545D01*
X4245D01*
G01X5704D02*
X6579Y-87478D01*
G01X9512Y-83478D02*
X10912D01*
G01X10212D02*
Y-87478D01*
G01X9512D02*
X10912D01*
G01X13554Y-83478D02*
X15012Y-87478D01*
X16470Y-83478D01*
G01X20979Y-87478D02*
X18645D01*
Y-83478D01*
X20979D01*
G01X20045Y-85411D02*
X18645D01*
G01X27662Y-83478D02*
X28479Y-87478D01*
X29412Y-83478D01*
X30345Y-87478D01*
X31162Y-83478D01*
G01X35379Y-87478D02*
X33045D01*
Y-83478D01*
X35379D01*
G01X34445Y-85411D02*
X33045D01*
G01X37787Y-86945D02*
X38254Y-87278D01*
X38779Y-87478D01*
X39245D01*
X39712Y-87278D01*
X40062Y-86945D01*
X40237Y-86478D01*
X40120Y-86011D01*
X39829Y-85611D01*
X39304Y-85345D01*
X38604Y-85211D01*
X38195Y-84945D01*
X38020Y-84478D01*
X38137Y-84011D01*
X38429Y-83678D01*
X38837Y-83478D01*
X39245D01*
X39654Y-83611D01*
X40004Y-83945D01*
G01X43812Y-83478D02*
Y-87478D01*
G01X42470Y-83478D02*
X45154D01*
G01X-96846Y-94478D02*
X-95388Y-90478D01*
X-93930Y-94478D01*
G01X-94455Y-93078D02*
X-96321D01*
G01X-91871Y-90478D02*
Y-93345D01*
X-91638Y-93945D01*
X-91171Y-94345D01*
X-90588Y-94478D01*
X-90005Y-94345D01*
X-89538Y-93945D01*
X-89305Y-93345D01*
Y-90478D01*
G01X-87013Y-93945D02*
X-86546Y-94278D01*
X-86021Y-94478D01*
X-85555D01*
X-85088Y-94278D01*
X-84738Y-93945D01*
X-84563Y-93478D01*
X-84680Y-93011D01*
X-84971Y-92611D01*
X-85496Y-92345D01*
X-86196Y-92211D01*
X-86605Y-91945D01*
X-86780Y-91478D01*
X-86663Y-91011D01*
X-86371Y-90678D01*
X-85963Y-90478D01*
X-85555D01*
X-85146Y-90611D01*
X-84796Y-90945D01*
G01X-80988Y-90478D02*
Y-94478D01*
G01X-82330Y-90478D02*
X-79646D01*
G01X-76888D02*
X-75488D01*
G01X-76188D02*
Y-94478D01*
G01X-76888D02*
X-75488D01*
G01X-72730D02*
Y-90478D01*
X-70046Y-94478D01*
Y-90478D01*
G01X-66588Y-94611D02*
X-66705Y-94545D01*
Y-94411D01*
X-66588Y-94345D01*
X-66471Y-94411D01*
Y-94545D01*
X-66588Y-94611D01*
G01X-56988Y-90478D02*
Y-94478D01*
G01X-58330Y-90478D02*
X-55646D01*
G01X-51021Y-94478D02*
X-53355D01*
Y-90478D01*
X-51021D01*
G01X-51955Y-92411D02*
X-53355D01*
G01X-48613Y-94478D02*
X-46163Y-90478D01*
G01X-48613D02*
X-46163Y-94478D01*
G01X-44046D02*
X-42588Y-90478D01*
X-41130Y-94478D01*
G01X-41655Y-93078D02*
X-43521D01*
G01X-39013Y-93945D02*
X-38546Y-94278D01*
X-38021Y-94478D01*
X-37555D01*
X-37088Y-94278D01*
X-36738Y-93945D01*
X-36563Y-93478D01*
X-36680Y-93011D01*
X-36971Y-92611D01*
X-37496Y-92345D01*
X-38196Y-92211D01*
X-38605Y-91945D01*
X-38780Y-91478D01*
X-38663Y-91011D01*
X-38371Y-90678D01*
X-37963Y-90478D01*
X-37555D01*
X-37146Y-90611D01*
X-36796Y-90945D01*
G01X-28305Y-94478D02*
X-28188Y-93611D01*
X-28013Y-92878D01*
X-27780Y-92211D01*
X-27488Y-91478D01*
X-27021Y-90478D01*
X-29355D01*
G01X-23388Y-94478D02*
X-22980Y-94411D01*
X-22513Y-94211D01*
X-22221Y-93878D01*
X-22105Y-93411D01*
X-22221Y-92945D01*
X-22571Y-92545D01*
X-23096Y-92345D01*
X-23680D01*
X-24030Y-92211D01*
X-24321Y-91878D01*
X-24438Y-91411D01*
X-24263Y-90945D01*
X-23855Y-90611D01*
X-23388Y-90478D01*
X-22921Y-90611D01*
X-22513Y-90945D01*
X-22338Y-91411D01*
X-22455Y-91878D01*
X-22746Y-92211D01*
X-23096Y-92345D01*
X-23680D01*
X-24205Y-92545D01*
X-24555Y-92945D01*
X-24671Y-93411D01*
X-24555Y-93878D01*
X-24263Y-94211D01*
X-23796Y-94411D01*
X-23388Y-94478D01*
G01X-18705D02*
X-18588Y-93611D01*
X-18413Y-92878D01*
X-18180Y-92211D01*
X-17888Y-91478D01*
X-17421Y-90478D01*
X-19755D01*
G01X-15071Y-93678D02*
X-14721Y-94145D01*
X-14255Y-94411D01*
X-13730Y-94478D01*
X-13263Y-94411D01*
X-12796Y-94078D01*
X-12505Y-93678D01*
X-12446Y-93278D01*
X-12563Y-92811D01*
X-12971Y-92478D01*
X-13380Y-92345D01*
X-13905D01*
G01X-13380D02*
X-13030Y-92145D01*
X-12738Y-91811D01*
X-12621Y-91411D01*
X-12738Y-91011D01*
X-13030Y-90678D01*
X-13555Y-90478D01*
X-14080Y-90545D01*
X-14605Y-90811D01*
G01X-10271Y-93878D02*
X-9921Y-94211D01*
X-9513Y-94411D01*
X-8988Y-94478D01*
X-8463Y-94345D01*
X-8055Y-94078D01*
X-7763Y-93611D01*
X-7705Y-93078D01*
X-7821Y-92545D01*
X-8113Y-92211D01*
X-8521Y-91945D01*
X-8930Y-91878D01*
X-9338Y-91945D01*
X-9863Y-92211D01*
X-9688Y-90478D01*
X-8113D01*
G01X-671D02*
Y-93345D01*
X-438Y-93945D01*
X29Y-94345D01*
X612Y-94478D01*
X1195Y-94345D01*
X1662Y-93945D01*
X1895Y-93345D01*
Y-90478D01*
G01X4187Y-93945D02*
X4654Y-94278D01*
X5179Y-94478D01*
X5645D01*
X6112Y-94278D01*
X6462Y-93945D01*
X6637Y-93478D01*
X6520Y-93011D01*
X6229Y-92611D01*
X5704Y-92345D01*
X5004Y-92211D01*
X4595Y-91945D01*
X4420Y-91478D01*
X4537Y-91011D01*
X4829Y-90678D01*
X5237Y-90478D01*
X5645D01*
X6054Y-90611D01*
X6404Y-90945D01*
G01X8754Y-94478D02*
X10212Y-90478D01*
X11670Y-94478D01*
G01X11145Y-93078D02*
X9279D01*
G01X-93985Y-78478D02*
Y-70978D01*
X-89691Y-78478D01*
Y-70978D01*
G01X-86298Y-78478D02*
X-82378Y-70978D01*
G01X-86298D02*
X-82378Y-78478D01*
G01X-78705D02*
Y-70978D01*
X-76465D01*
X-75718Y-71353D01*
X-75158Y-72228D01*
X-74971Y-73228D01*
X-75158Y-74228D01*
X-75625Y-74978D01*
X-76465Y-75353D01*
X-78705D01*
G01X-63798Y-77478D02*
X-63051Y-78103D01*
X-62211Y-78478D01*
X-61465D01*
X-60718Y-78103D01*
X-60158Y-77478D01*
X-59878Y-76603D01*
X-60065Y-75728D01*
X-60531Y-74978D01*
X-61371Y-74478D01*
X-62491Y-74228D01*
X-63145Y-73728D01*
X-63425Y-72853D01*
X-63238Y-71978D01*
X-62771Y-71353D01*
X-62118Y-70978D01*
X-61465D01*
X-60811Y-71228D01*
X-60251Y-71853D01*
G01X-52471Y-78478D02*
X-56205D01*
Y-70978D01*
X-52471D01*
G01X-53965Y-74603D02*
X-56205D01*
G01X-49265Y-78478D02*
Y-70978D01*
X-46838Y-77228D01*
X-44411Y-70978D01*
Y-78478D01*
G01X-40458Y-70978D02*
X-38218D01*
G01X-39338D02*
Y-78478D01*
G01X-40458D02*
X-38218D01*
G01X-29785Y-71603D02*
X-30345Y-71228D01*
X-30998Y-70978D01*
X-31745D01*
X-32585Y-71353D01*
X-33238Y-71978D01*
X-33705Y-72728D01*
X-34078Y-73978D01*
X-34171Y-75103D01*
X-33985Y-76228D01*
X-33705Y-76978D01*
X-33145Y-77728D01*
X-32491Y-78228D01*
X-31838Y-78478D01*
X-31185D01*
X-30531Y-78228D01*
X-29971Y-77853D01*
X-29505Y-77353D01*
G01X-24338Y-78478D02*
X-25085Y-78353D01*
X-25738Y-77853D01*
X-26298Y-77103D01*
X-26671Y-76228D01*
X-26858Y-75228D01*
Y-74228D01*
X-26671Y-73228D01*
X-26298Y-72353D01*
X-25738Y-71603D01*
X-25085Y-71103D01*
X-24338Y-70978D01*
X-23591Y-71103D01*
X-22938Y-71603D01*
X-22378Y-72353D01*
X-22005Y-73228D01*
X-21818Y-74228D01*
Y-75228D01*
X-22005Y-76228D01*
X-22378Y-77103D01*
X-22938Y-77853D01*
X-23591Y-78353D01*
X-24338Y-78478D01*
G01X-18985D02*
Y-70978D01*
X-14691Y-78478D01*
Y-70978D01*
G01X-11391Y-78478D02*
Y-70978D01*
X-9525D01*
X-8778Y-71353D01*
X-8218Y-71853D01*
X-7751Y-72603D01*
X-7378Y-73478D01*
X-7285Y-74728D01*
X-7378Y-75978D01*
X-7751Y-76853D01*
X-8218Y-77603D01*
X-8778Y-78103D01*
X-9525Y-78478D01*
X-11391D01*
G01X-3891Y-70978D02*
Y-76353D01*
X-3518Y-77478D01*
X-2771Y-78228D01*
X-1838Y-78478D01*
X-905Y-78228D01*
X-158Y-77478D01*
X215Y-76353D01*
Y-70978D01*
G01X7715Y-71603D02*
X7155Y-71228D01*
X6502Y-70978D01*
X5755D01*
X4915Y-71353D01*
X4262Y-71978D01*
X3795Y-72728D01*
X3422Y-73978D01*
X3329Y-75103D01*
X3515Y-76228D01*
X3795Y-76978D01*
X4355Y-77728D01*
X5009Y-78228D01*
X5662Y-78478D01*
X6315D01*
X6969Y-78228D01*
X7529Y-77853D01*
X7995Y-77353D01*
G01X13162Y-70978D02*
Y-78478D01*
G01X11015Y-70978D02*
X15309D01*
G01X20662Y-78478D02*
X19915Y-78353D01*
X19262Y-77853D01*
X18702Y-77103D01*
X18329Y-76228D01*
X18142Y-75228D01*
Y-74228D01*
X18329Y-73228D01*
X18702Y-72353D01*
X19262Y-71603D01*
X19915Y-71103D01*
X20662Y-70978D01*
X21409Y-71103D01*
X22062Y-71603D01*
X22622Y-72353D01*
X22995Y-73228D01*
X23182Y-74228D01*
Y-75228D01*
X22995Y-76228D01*
X22622Y-77103D01*
X22062Y-77853D01*
X21409Y-78353D01*
X20662Y-78478D01*
G01X26295D02*
Y-70978D01*
X28629D01*
X29375Y-71353D01*
X29842Y-71853D01*
X30029Y-72853D01*
X29842Y-73853D01*
X29282Y-74478D01*
X28629Y-74853D01*
X26295D01*
G01X28629D02*
X30029Y-78478D01*
G01X33702Y-77478D02*
X34449Y-78103D01*
X35289Y-78478D01*
X36035D01*
X36782Y-78103D01*
X37342Y-77478D01*
X37622Y-76603D01*
X37435Y-75728D01*
X36969Y-74978D01*
X36129Y-74478D01*
X35009Y-74228D01*
X34355Y-73728D01*
X34075Y-72853D01*
X34262Y-71978D01*
X34729Y-71353D01*
X35382Y-70978D01*
X36035D01*
X36689Y-71228D01*
X37249Y-71853D01*
G01X-46496Y-155478D02*
Y-151478D01*
X-44280D01*
G01X-45096Y-153411D02*
X-46496D01*
G01X-41288Y-151478D02*
X-39888D01*
G01X-40588D02*
Y-155478D01*
G01X-41288D02*
X-39888D01*
G01X-36955Y-151478D02*
Y-155478D01*
X-34621D01*
G01X-32505D02*
Y-151478D01*
X-30988Y-154811D01*
X-29471Y-151478D01*
Y-155478D01*
G01X-26855Y-163978D02*
Y-157678D01*
X-24975D01*
X-24348Y-157993D01*
X-23878Y-158728D01*
X-23721Y-159568D01*
X-23878Y-160408D01*
X-24270Y-161038D01*
X-24975Y-161353D01*
X-26855D01*
G01X-20946Y-163978D02*
X-18988Y-157678D01*
X-17030Y-163978D01*
G01X-17735Y-161773D02*
X-20241D01*
G01X-14333Y-163138D02*
X-13706Y-163663D01*
X-13001Y-163978D01*
X-12375D01*
X-11748Y-163663D01*
X-11278Y-163138D01*
X-11043Y-162403D01*
X-11200Y-161668D01*
X-11591Y-161038D01*
X-12296Y-160618D01*
X-13236Y-160408D01*
X-13785Y-159988D01*
X-14020Y-159253D01*
X-13863Y-158518D01*
X-13471Y-157993D01*
X-12923Y-157678D01*
X-12375D01*
X-11826Y-157888D01*
X-11356Y-158413D01*
G01X-6388Y-157678D02*
Y-163978D01*
G01X-8190Y-157678D02*
X-4586D01*
G01X1479Y-163978D02*
X-1655D01*
Y-157678D01*
X1479D01*
G01X225Y-160723D02*
X-1655D01*
G01X4175Y-163978D02*
Y-157678D01*
X6212Y-162928D01*
X8249Y-157678D01*
Y-163978D01*
G01X10554D02*
X12512Y-157678D01*
X14470Y-163978D01*
G01X13765Y-161773D02*
X11259D01*
G01X17167Y-163138D02*
X17794Y-163663D01*
X18499Y-163978D01*
X19125D01*
X19752Y-163663D01*
X20222Y-163138D01*
X20457Y-162403D01*
X20300Y-161668D01*
X19909Y-161038D01*
X19204Y-160618D01*
X18264Y-160408D01*
X17715Y-159988D01*
X17480Y-159253D01*
X17637Y-158518D01*
X18029Y-157993D01*
X18577Y-157678D01*
X19125D01*
X19674Y-157888D01*
X20144Y-158413D01*
G01X23389Y-163978D02*
Y-157678D01*
G01X26365D02*
X23389Y-161563D01*
G01X26835Y-163978D02*
X24720Y-159778D01*
G01X37712Y-157678D02*
Y-163978D01*
G01X35910Y-157678D02*
X39514D01*
G01X44012Y-163978D02*
X43385Y-163873D01*
X42837Y-163453D01*
X42367Y-162823D01*
X42054Y-162088D01*
X41897Y-161248D01*
Y-160408D01*
X42054Y-159568D01*
X42367Y-158833D01*
X42837Y-158203D01*
X43385Y-157783D01*
X44012Y-157678D01*
X44639Y-157783D01*
X45187Y-158203D01*
X45657Y-158833D01*
X45970Y-159568D01*
X46127Y-160408D01*
Y-161248D01*
X45970Y-162088D01*
X45657Y-162823D01*
X45187Y-163453D01*
X44639Y-163873D01*
X44012Y-163978D01*
G01X48745D02*
Y-157678D01*
X50625D01*
X51252Y-157993D01*
X51722Y-158728D01*
X51879Y-159568D01*
X51722Y-160408D01*
X51330Y-161038D01*
X50625Y-161353D01*
X48745D01*
G01X81612Y-163478D02*
Y-159478D01*
X80912Y-160278D01*
G01Y-163478D02*
X82312D01*
G01X86412D02*
X86820Y-163411D01*
X87287Y-163211D01*
X87579Y-162878D01*
X87695Y-162411D01*
X87579Y-161945D01*
X87229Y-161545D01*
X86704Y-161345D01*
X86120D01*
X85770Y-161211D01*
X85479Y-160878D01*
X85362Y-160411D01*
X85537Y-159945D01*
X85945Y-159611D01*
X86412Y-159478D01*
X86879Y-159611D01*
X87287Y-159945D01*
X87462Y-160411D01*
X87345Y-160878D01*
X87054Y-161211D01*
X86704Y-161345D01*
X86120D01*
X85595Y-161545D01*
X85245Y-161945D01*
X85129Y-162411D01*
X85245Y-162878D01*
X85537Y-163211D01*
X86004Y-163411D01*
X86412Y-163478D01*
G01X90454Y-162145D02*
X91970D01*
G01X96012Y-159478D02*
X95545Y-159611D01*
X95195Y-159945D01*
X94962Y-160345D01*
X94787Y-160878D01*
X94729Y-161478D01*
X94787Y-162078D01*
X94962Y-162611D01*
X95195Y-163011D01*
X95545Y-163345D01*
X96012Y-163478D01*
X96479Y-163345D01*
X96829Y-163011D01*
X97062Y-162611D01*
X97237Y-162078D01*
X97295Y-161478D01*
X97237Y-160878D01*
X97062Y-160345D01*
X96829Y-159945D01*
X96479Y-159611D01*
X96012Y-159478D01*
G01X99529Y-162678D02*
X99879Y-163145D01*
X100345Y-163411D01*
X100870Y-163478D01*
X101337Y-163411D01*
X101804Y-163078D01*
X102095Y-162678D01*
X102154Y-162278D01*
X102037Y-161811D01*
X101629Y-161478D01*
X101220Y-161345D01*
X100695D01*
G01X101220D02*
X101570Y-161145D01*
X101862Y-160811D01*
X101979Y-160411D01*
X101862Y-160011D01*
X101570Y-159678D01*
X101045Y-159478D01*
X100520Y-159545D01*
X99995Y-159811D01*
G01X104854Y-162145D02*
X106370D01*
G01X110412Y-163478D02*
Y-159478D01*
X109712Y-160278D01*
G01Y-163478D02*
X111112D01*
G01X114220Y-163011D02*
X114629Y-163345D01*
X115095Y-163478D01*
X115562Y-163345D01*
X115970Y-162945D01*
X116262Y-162345D01*
X116379Y-161745D01*
Y-161011D01*
X116262Y-160411D01*
X115970Y-159878D01*
X115620Y-159611D01*
X115212Y-159478D01*
X114745Y-159611D01*
X114395Y-159878D01*
X114162Y-160278D01*
X114045Y-160811D01*
X114162Y-161278D01*
X114454Y-161745D01*
X114804Y-162011D01*
X115212Y-162078D01*
X115679Y-161945D01*
X116029Y-161611D01*
X116379Y-161011D01*
G01X78329Y-155478D02*
Y-151478D01*
X79495D01*
X79962Y-151678D01*
X80312Y-151945D01*
X80604Y-152345D01*
X80837Y-152811D01*
X80895Y-153478D01*
X80837Y-154145D01*
X80604Y-154611D01*
X80312Y-155011D01*
X79962Y-155278D01*
X79495Y-155478D01*
X78329D01*
G01X82954D02*
X84412Y-151478D01*
X85870Y-155478D01*
G01X85345Y-154078D02*
X83479D01*
G01X89212Y-151478D02*
Y-155478D01*
G01X87870Y-151478D02*
X90554D01*
G01X95179Y-155478D02*
X92845D01*
Y-151478D01*
X95179D01*
G01X94245Y-153411D02*
X92845D01*
G01X87862Y-141311D02*
X91362D01*
G01X92662D02*
X96162D01*
G01X97462D02*
X100962D01*
G01X110095Y-136311D02*
X109745Y-136111D01*
X109337Y-135978D01*
X108870D01*
X108345Y-136178D01*
X107937Y-136511D01*
X107645Y-136911D01*
X107412Y-137578D01*
X107354Y-138178D01*
X107470Y-138778D01*
X107645Y-139178D01*
X107995Y-139578D01*
X108404Y-139845D01*
X108812Y-139978D01*
X109220D01*
X109629Y-139845D01*
X109979Y-139645D01*
X110270Y-139378D01*
G01X113612Y-139978D02*
X113145Y-139911D01*
X112737Y-139645D01*
X112387Y-139245D01*
X112154Y-138778D01*
X112037Y-138245D01*
Y-137711D01*
X112154Y-137178D01*
X112387Y-136711D01*
X112737Y-136311D01*
X113145Y-136045D01*
X113612Y-135978D01*
X114079Y-136045D01*
X114487Y-136311D01*
X114837Y-136711D01*
X115070Y-137178D01*
X115187Y-137711D01*
Y-138245D01*
X115070Y-138778D01*
X114837Y-139245D01*
X114487Y-139645D01*
X114079Y-139911D01*
X113612Y-139978D01*
G01X116895D02*
Y-135978D01*
X118412Y-139311D01*
X119929Y-135978D01*
Y-139978D01*
G01X122045D02*
Y-135978D01*
X123445D01*
X123912Y-136178D01*
X124262Y-136645D01*
X124379Y-137178D01*
X124262Y-137711D01*
X123970Y-138111D01*
X123445Y-138311D01*
X122045D01*
G01X126554Y-139978D02*
X128012Y-135978D01*
X129470Y-139978D01*
G01X128945Y-138578D02*
X127079D01*
G01X131470Y-139978D02*
Y-135978D01*
X134154Y-139978D01*
Y-135978D01*
G01X137612Y-139978D02*
Y-138178D01*
X136445Y-135978D01*
G01X138779D02*
X137612Y-138178D01*
G01X148495Y-136311D02*
X148145Y-136111D01*
X147737Y-135978D01*
X147270D01*
X146745Y-136178D01*
X146337Y-136511D01*
X146045Y-136911D01*
X145812Y-137578D01*
X145754Y-138178D01*
X145870Y-138778D01*
X146045Y-139178D01*
X146395Y-139578D01*
X146804Y-139845D01*
X147212Y-139978D01*
X147620D01*
X148029Y-139845D01*
X148379Y-139645D01*
X148670Y-139378D01*
G01X152012Y-139978D02*
X151545Y-139911D01*
X151137Y-139645D01*
X150787Y-139245D01*
X150554Y-138778D01*
X150437Y-138245D01*
Y-137711D01*
X150554Y-137178D01*
X150787Y-136711D01*
X151137Y-136311D01*
X151545Y-136045D01*
X152012Y-135978D01*
X152479Y-136045D01*
X152887Y-136311D01*
X153237Y-136711D01*
X153470Y-137178D01*
X153587Y-137711D01*
Y-138245D01*
X153470Y-138778D01*
X153237Y-139245D01*
X152887Y-139645D01*
X152479Y-139911D01*
X152012Y-139978D01*
G01X155470D02*
Y-135978D01*
X158154Y-139978D01*
Y-135978D01*
G01X160504Y-139978D02*
Y-135978D01*
X162720D01*
G01X161904Y-137911D02*
X160504D01*
G01X165712Y-135978D02*
X167112D01*
G01X166412D02*
Y-139978D01*
G01X165712D02*
X167112D01*
G01X169929D02*
Y-135978D01*
X171095D01*
X171562Y-136178D01*
X171912Y-136445D01*
X172204Y-136845D01*
X172437Y-137311D01*
X172495Y-137978D01*
X172437Y-138645D01*
X172204Y-139111D01*
X171912Y-139511D01*
X171562Y-139778D01*
X171095Y-139978D01*
X169929D01*
G01X177179D02*
X174845D01*
Y-135978D01*
X177179D01*
G01X176245Y-137911D02*
X174845D01*
G01X179470Y-139978D02*
Y-135978D01*
X182154Y-139978D01*
Y-135978D01*
G01X185612D02*
Y-139978D01*
G01X184270Y-135978D02*
X186954D01*
G01X189712D02*
X191112D01*
G01X190412D02*
Y-139978D01*
G01X189712D02*
X191112D01*
G01X193754D02*
X195212Y-135978D01*
X196670Y-139978D01*
G01X196145Y-138578D02*
X194279D01*
G01X198845Y-135978D02*
Y-139978D01*
X201179D01*
G01X87862Y-124811D02*
X91362D01*
G01X92662D02*
X96162D01*
G01X97462D02*
X100962D01*
G01X110095Y-119811D02*
X109745Y-119611D01*
X109337Y-119478D01*
X108870D01*
X108345Y-119678D01*
X107937Y-120011D01*
X107645Y-120411D01*
X107412Y-121078D01*
X107354Y-121678D01*
X107470Y-122278D01*
X107645Y-122678D01*
X107995Y-123078D01*
X108404Y-123345D01*
X108812Y-123478D01*
X109220D01*
X109629Y-123345D01*
X109979Y-123145D01*
X110270Y-122878D01*
G01X113612Y-123478D02*
X113145Y-123411D01*
X112737Y-123145D01*
X112387Y-122745D01*
X112154Y-122278D01*
X112037Y-121745D01*
Y-121211D01*
X112154Y-120678D01*
X112387Y-120211D01*
X112737Y-119811D01*
X113145Y-119545D01*
X113612Y-119478D01*
X114079Y-119545D01*
X114487Y-119811D01*
X114837Y-120211D01*
X115070Y-120678D01*
X115187Y-121211D01*
Y-121745D01*
X115070Y-122278D01*
X114837Y-122745D01*
X114487Y-123145D01*
X114079Y-123411D01*
X113612Y-123478D01*
G01X116895D02*
Y-119478D01*
X118412Y-122811D01*
X119929Y-119478D01*
Y-123478D01*
G01X122045D02*
Y-119478D01*
X123445D01*
X123912Y-119678D01*
X124262Y-120145D01*
X124379Y-120678D01*
X124262Y-121211D01*
X123970Y-121611D01*
X123445Y-121811D01*
X122045D01*
G01X126554Y-123478D02*
X128012Y-119478D01*
X129470Y-123478D01*
G01X128945Y-122078D02*
X127079D01*
G01X131470Y-123478D02*
Y-119478D01*
X134154Y-123478D01*
Y-119478D01*
G01X137612Y-123478D02*
Y-121678D01*
X136445Y-119478D01*
G01X138779D02*
X137612Y-121678D01*
G01X146512Y-119478D02*
X147912D01*
G01X147212D02*
Y-123478D01*
G01X146512D02*
X147912D01*
G01X150670D02*
Y-119478D01*
X153354Y-123478D01*
Y-119478D01*
G01X156812D02*
Y-123478D01*
G01X155470Y-119478D02*
X158154D01*
G01X162779Y-123478D02*
X160445D01*
Y-119478D01*
X162779D01*
G01X161845Y-121411D02*
X160445D01*
G01X165245Y-123478D02*
Y-119478D01*
X166704D01*
X167170Y-119678D01*
X167462Y-119945D01*
X167579Y-120478D01*
X167462Y-121011D01*
X167112Y-121345D01*
X166704Y-121545D01*
X165245D01*
G01X166704D02*
X167579Y-123478D01*
G01X169870D02*
Y-119478D01*
X172554Y-123478D01*
Y-119478D01*
G01X174554Y-123478D02*
X176012Y-119478D01*
X177470Y-123478D01*
G01X176945Y-122078D02*
X175079D01*
G01X179645Y-119478D02*
Y-123478D01*
X181979D01*
G01X87862Y-108811D02*
X91362D01*
G01X92662D02*
X96162D01*
G01X97462D02*
X100962D01*
G01X110095Y-103811D02*
X109745Y-103611D01*
X109337Y-103478D01*
X108870D01*
X108345Y-103678D01*
X107937Y-104011D01*
X107645Y-104411D01*
X107412Y-105078D01*
X107354Y-105678D01*
X107470Y-106278D01*
X107645Y-106678D01*
X107995Y-107078D01*
X108404Y-107345D01*
X108812Y-107478D01*
X109220D01*
X109629Y-107345D01*
X109979Y-107145D01*
X110270Y-106878D01*
G01X113612Y-107478D02*
X113145Y-107411D01*
X112737Y-107145D01*
X112387Y-106745D01*
X112154Y-106278D01*
X112037Y-105745D01*
Y-105211D01*
X112154Y-104678D01*
X112387Y-104211D01*
X112737Y-103811D01*
X113145Y-103545D01*
X113612Y-103478D01*
X114079Y-103545D01*
X114487Y-103811D01*
X114837Y-104211D01*
X115070Y-104678D01*
X115187Y-105211D01*
Y-105745D01*
X115070Y-106278D01*
X114837Y-106745D01*
X114487Y-107145D01*
X114079Y-107411D01*
X113612Y-107478D01*
G01X116895D02*
Y-103478D01*
X118412Y-106811D01*
X119929Y-103478D01*
Y-107478D01*
G01X122045D02*
Y-103478D01*
X123445D01*
X123912Y-103678D01*
X124262Y-104145D01*
X124379Y-104678D01*
X124262Y-105211D01*
X123970Y-105611D01*
X123445Y-105811D01*
X122045D01*
G01X126554Y-107478D02*
X128012Y-103478D01*
X129470Y-107478D01*
G01X128945Y-106078D02*
X127079D01*
G01X131470Y-107478D02*
Y-103478D01*
X134154Y-107478D01*
Y-103478D01*
G01X137612Y-107478D02*
Y-105678D01*
X136445Y-103478D01*
G01X138779D02*
X137612Y-105678D01*
G01X146045Y-107478D02*
Y-103478D01*
X147445D01*
X147912Y-103678D01*
X148262Y-104145D01*
X148379Y-104678D01*
X148262Y-105211D01*
X147970Y-105611D01*
X147445Y-105811D01*
X146045D01*
G01X150729Y-103478D02*
Y-106345D01*
X150962Y-106945D01*
X151429Y-107345D01*
X152012Y-107478D01*
X152595Y-107345D01*
X153062Y-106945D01*
X153295Y-106345D01*
Y-103478D01*
G01X157279Y-105345D02*
X157512Y-105145D01*
X157687Y-104811D01*
X157804Y-104345D01*
X157687Y-103945D01*
X157454Y-103678D01*
X157045Y-103478D01*
X155470D01*
Y-107478D01*
X157395D01*
X157804Y-107211D01*
X158037Y-106811D01*
X158154Y-106345D01*
X158037Y-105878D01*
X157687Y-105478D01*
X157279Y-105345D01*
X155470D01*
G01X160445Y-103478D02*
Y-107478D01*
X162779D01*
G01X165712Y-103478D02*
X167112D01*
G01X166412D02*
Y-107478D01*
G01X165712D02*
X167112D01*
G01X172495Y-103811D02*
X172145Y-103611D01*
X171737Y-103478D01*
X171270D01*
X170745Y-103678D01*
X170337Y-104011D01*
X170045Y-104411D01*
X169812Y-105078D01*
X169754Y-105678D01*
X169870Y-106278D01*
X170045Y-106678D01*
X170395Y-107078D01*
X170804Y-107345D01*
X171212Y-107478D01*
X171620D01*
X172029Y-107345D01*
X172379Y-107145D01*
X172670Y-106878D01*
G01X78270Y-75478D02*
Y-71478D01*
X80954Y-75478D01*
Y-71478D01*
G01X82954Y-75478D02*
X84412Y-71478D01*
X85870Y-75478D01*
G01X85345Y-74078D02*
X83479D01*
G01X87695Y-75478D02*
Y-71478D01*
X89212Y-74811D01*
X90729Y-71478D01*
Y-75478D01*
G01X95179D02*
X92845D01*
Y-71478D01*
X95179D01*
G01X94245Y-73411D02*
X92845D01*
G01X93367Y-106978D02*
X96657Y-100678D01*
G01X93367D02*
X96657Y-106978D01*
G01X128270Y-155478D02*
Y-151478D01*
X130954Y-155478D01*
Y-151478D01*
G01X133129D02*
Y-154345D01*
X133362Y-154945D01*
X133829Y-155345D01*
X134412Y-155478D01*
X134995Y-155345D01*
X135462Y-154945D01*
X135695Y-154345D01*
Y-151478D01*
G01X137695Y-155478D02*
Y-151478D01*
X139212Y-154811D01*
X140729Y-151478D01*
Y-155478D01*
G01X144479Y-153345D02*
X144712Y-153145D01*
X144887Y-152811D01*
X145004Y-152345D01*
X144887Y-151945D01*
X144654Y-151678D01*
X144245Y-151478D01*
X142670D01*
Y-155478D01*
X144595D01*
X145004Y-155211D01*
X145237Y-154811D01*
X145354Y-154345D01*
X145237Y-153878D01*
X144887Y-153478D01*
X144479Y-153345D01*
X142670D01*
G01X149979Y-155478D02*
X147645D01*
Y-151478D01*
X149979D01*
G01X149045Y-153411D02*
X147645D01*
G01X152445Y-155478D02*
Y-151478D01*
X153904D01*
X154370Y-151678D01*
X154662Y-151945D01*
X154779Y-152478D01*
X154662Y-153011D01*
X154312Y-153345D01*
X153904Y-153545D01*
X152445D01*
G01X153904D02*
X154779Y-155478D01*
G01X163212Y-162478D02*
Y-156178D01*
X162272Y-157438D01*
G01Y-162478D02*
X164152D01*
G01X169355D02*
X169512Y-161113D01*
X169747Y-159958D01*
X170060Y-158908D01*
X170452Y-157753D01*
X171079Y-156178D01*
X167945D01*
G01X175812D02*
X175185Y-156388D01*
X174715Y-156913D01*
X174402Y-157543D01*
X174167Y-158383D01*
X174089Y-159328D01*
X174167Y-160273D01*
X174402Y-161113D01*
X174715Y-161743D01*
X175185Y-162268D01*
X175812Y-162478D01*
X176439Y-162268D01*
X176909Y-161743D01*
X177222Y-161113D01*
X177457Y-160273D01*
X177535Y-159328D01*
X177457Y-158383D01*
X177222Y-157543D01*
X176909Y-156913D01*
X176439Y-156388D01*
X175812Y-156178D01*
G01X181094Y-160378D02*
X183130D01*
G01X189352Y-162478D02*
Y-156178D01*
X186454Y-160693D01*
X190370D01*
G01X192989Y-161533D02*
X193459Y-162058D01*
X194007Y-162373D01*
X194712Y-162478D01*
X195417Y-162268D01*
X195965Y-161848D01*
X196357Y-161113D01*
X196435Y-160273D01*
X196279Y-159433D01*
X195887Y-158908D01*
X195339Y-158488D01*
X194790Y-158383D01*
X194242Y-158488D01*
X193537Y-158908D01*
X193772Y-156178D01*
X195887D01*
G01X199524Y-159853D02*
X200072Y-159118D01*
X200542Y-158698D01*
X201169Y-158488D01*
X201717Y-158698D01*
X202109Y-159118D01*
X202422Y-159748D01*
X202500Y-160483D01*
X202422Y-161113D01*
X202109Y-161743D01*
X201639Y-162268D01*
X201090Y-162478D01*
X200464Y-162268D01*
X199915Y-161638D01*
X199602Y-160693D01*
X199524Y-159643D01*
X199680Y-158278D01*
X199915Y-157543D01*
X200307Y-156808D01*
X200855Y-156283D01*
X201404Y-156178D01*
X201952Y-156388D01*
X202344Y-156913D01*
G01X205980Y-161743D02*
X206529Y-162268D01*
X207155Y-162478D01*
X207782Y-162268D01*
X208330Y-161638D01*
X208722Y-160693D01*
X208879Y-159748D01*
Y-158593D01*
X208722Y-157648D01*
X208330Y-156808D01*
X207860Y-156388D01*
X207312Y-156178D01*
X206685Y-156388D01*
X206215Y-156808D01*
X205902Y-157438D01*
X205745Y-158278D01*
X205902Y-159013D01*
X206294Y-159748D01*
X206764Y-160168D01*
X207312Y-160273D01*
X207939Y-160063D01*
X208409Y-159538D01*
X208879Y-158593D01*
G01X212280Y-161743D02*
X212829Y-162268D01*
X213455Y-162478D01*
X214082Y-162268D01*
X214630Y-161638D01*
X215022Y-160693D01*
X215179Y-159748D01*
Y-158593D01*
X215022Y-157648D01*
X214630Y-156808D01*
X214160Y-156388D01*
X213612Y-156178D01*
X212985Y-156388D01*
X212515Y-156808D01*
X212202Y-157438D01*
X212045Y-158278D01*
X212202Y-159013D01*
X212594Y-159748D01*
X213064Y-160168D01*
X213612Y-160273D01*
X214239Y-160063D01*
X214709Y-159538D01*
X215179Y-158593D01*
G01X256145Y-162478D02*
Y-156178D01*
X258104D01*
X258730Y-156493D01*
X259122Y-156913D01*
X259279Y-157753D01*
X259122Y-158593D01*
X258652Y-159118D01*
X258104Y-159433D01*
X256145D01*
G01X258104D02*
X259279Y-162478D01*
G01X265579D02*
X262445D01*
Y-156178D01*
X265579D01*
G01X264325Y-159223D02*
X262445D01*
G01X268354Y-156178D02*
X270312Y-162478D01*
X272270Y-156178D01*
G01X280954Y-162478D02*
X282912Y-156178D01*
X284870Y-162478D01*
G01X284165Y-160273D02*
X281659D01*
G01X165212Y-89478D02*
X165760Y-89373D01*
X166387Y-89058D01*
X166779Y-88533D01*
X166935Y-87798D01*
X166779Y-87063D01*
X166309Y-86433D01*
X165604Y-86118D01*
X164820D01*
X164350Y-85908D01*
X163959Y-85383D01*
X163802Y-84648D01*
X164037Y-83913D01*
X164585Y-83388D01*
X165212Y-83178D01*
X165839Y-83388D01*
X166387Y-83913D01*
X166622Y-84648D01*
X166465Y-85383D01*
X166074Y-85908D01*
X165604Y-86118D01*
X164820D01*
X164115Y-86433D01*
X163645Y-87063D01*
X163489Y-87798D01*
X163645Y-88533D01*
X164037Y-89058D01*
X164664Y-89373D01*
X165212Y-89478D01*
G01X169475D02*
Y-83178D01*
X171512Y-88428D01*
X173549Y-83178D01*
Y-89478D01*
G01X176010D02*
Y-83178D01*
X179614Y-89478D01*
Y-83178D01*
G01X182154Y-89478D02*
X184112Y-83178D01*
X186070Y-89478D01*
G01X185365Y-87273D02*
X182859D01*
G01X188610Y-89478D02*
Y-83178D01*
X192214Y-89478D01*
Y-83178D01*
G01X196712Y-89478D02*
X196085Y-89373D01*
X195537Y-88953D01*
X195067Y-88323D01*
X194754Y-87588D01*
X194597Y-86748D01*
Y-85908D01*
X194754Y-85068D01*
X195067Y-84333D01*
X195537Y-83703D01*
X196085Y-83283D01*
X196712Y-83178D01*
X197339Y-83283D01*
X197887Y-83703D01*
X198357Y-84333D01*
X198670Y-85068D01*
X198827Y-85908D01*
Y-86748D01*
X198670Y-87588D01*
X198357Y-88323D01*
X197887Y-88953D01*
X197339Y-89373D01*
X196712Y-89478D01*
G01X201289D02*
Y-83178D01*
X202855D01*
X203482Y-83493D01*
X203952Y-83913D01*
X204344Y-84543D01*
X204657Y-85278D01*
X204735Y-86328D01*
X204657Y-87378D01*
X204344Y-88113D01*
X203952Y-88743D01*
X203482Y-89163D01*
X202855Y-89478D01*
X201289D01*
G01X210252D02*
Y-83178D01*
X207354Y-87693D01*
X211270D01*
G01X214594Y-87378D02*
X216630D01*
G01X223479Y-89478D02*
X220345D01*
Y-83178D01*
X223479D01*
G01X222225Y-86223D02*
X220345D01*
G01X226254Y-83178D02*
X228212Y-89478D01*
X230170Y-83178D01*
G01X232789Y-89478D02*
Y-83178D01*
G01X235765D02*
X232789Y-87063D01*
G01X236235Y-89478D02*
X234120Y-85278D01*
G54D27*
X179300Y25190D03*
Y36810D03*
G54D18*
X26523Y40761D03*
Y39186D03*
Y37611D03*
Y36036D03*
Y34462D03*
Y32887D03*
Y53359D03*
Y51784D03*
Y50210D03*
Y48635D03*
Y47060D03*
Y45485D03*
Y43910D03*
Y42336D03*
X53215Y32887D03*
Y34462D03*
Y36036D03*
Y37611D03*
Y39186D03*
Y40761D03*
Y42336D03*
Y43910D03*
Y45485D03*
Y47060D03*
Y48635D03*
Y50210D03*
Y51784D03*
Y53359D03*
G54D28*
X173523Y58047D03*
X168995Y50173D03*
Y52142D03*
Y54110D03*
Y56079D03*
Y58047D03*
X173523Y60016D03*
Y61984D03*
Y63953D03*
X168995Y60016D03*
Y61984D03*
Y63953D03*
Y65921D03*
Y67890D03*
Y69858D03*
Y71827D03*
X188877Y58047D03*
X193405D03*
Y56079D03*
Y54110D03*
Y52142D03*
Y50173D03*
X188877Y60016D03*
Y63953D03*
Y61984D03*
X193405Y71827D03*
Y69858D03*
Y67890D03*
Y65921D03*
Y63953D03*
Y61984D03*
Y60016D03*
G54D19*
X26542Y29796D03*
Y56450D03*
X53196Y29796D03*
Y56450D03*
G54D29*
X178641Y53323D03*
X173523D03*
X178641Y58441D03*
X173523Y68677D03*
X178641D03*
Y63559D03*
X183759Y53323D03*
Y58441D03*
Y68677D03*
X188877D03*
X183759Y63559D03*
M02*
